<?xml version="1.0" encoding="iso-8859-1"?>
<!-- Generator: Adobe Illustrator 17.1.0, SVG Export Plug-In . SVG Version: 6.00 Build 0)  -->
<!DOCTYPE svg PUBLIC "-//W3C//DTD SVG 1.1//EN" "http://www.w3.org/Graphics/SVG/1.1/DTD/svg11.dtd">
<svg version="1.1" xmlns="http://www.w3.org/2000/svg" xmlns:xlink="http://www.w3.org/1999/xlink" x="0px" y="0px"
	 viewBox="0 0 60.857 58.941" style="enable-background:new 0 0 60.857 58.941;" xml:space="preserve">
<g id="aces">
	<path style="fill:#F7A13A;" d="M47.874,7.886C47.656,7.953,47.73,7.927,47.874,7.886C47.839,7.896,47.874,7.886,47.874,7.886z
		 M55.266,10.139c0.018,0.008,0.028,0.013,0.044,0.02C55.311,10.141,55.325,10.126,55.266,10.139z M59.775,15.286
		C59.934,15.173,59.781,15.265,59.775,15.286C59.775,15.286,59.776,15.281,59.775,15.286z M49.263,50.33
		C49.223,50.043,49.248,50.339,49.263,50.33C49.263,50.33,49.251,50.337,49.263,50.33z M56.956,24.795
		c-0.141-0.255,0.566-0.951,0.273-1.166C57.138,24.017,57.047,24.406,56.956,24.795C56.955,24.792,57.047,24.406,56.956,24.795z
		 M60.857,11.64c-0.234,0.79-0.505,1.568-0.757,2.351c-0.151,0.471-0.296,0.944-0.422,1.422c-0.003,0.01-0.488,1.411-0.104,0.754
		c-0.544,1.669-1.555,3.44-1.406,5.248c0.03-0.381-0.244,0.153-0.276,0.218c-0.303,0.624-0.358,1.419-0.537,2.087
		c-0.033-1.338,0.615-2.621,0.94-3.893c-0.407-0.109-1.204,3.655-1.276,4.151c-0.134,0.929-0.392,1.645-0.719,2.532
		c0.071-0.262,0.142-0.523,0.213-0.785c-0.329,0.699-0.401,1.502-0.65,2.231c-0.347,1.017-0.773,2.004-1.167,3.003
		c0.218-0.293,0.435-0.587,0.653-0.88c-0.351,1.21-0.87,2.403-1.02,3.61c-0.017,0.194,0.033,0.372,0.149,0.534
		c-0.087,0.449-0.244,0.883-0.406,1.31c-0.282,0.74-0.607,1.481-0.726,2.271c0.045-0.121,0.26-0.459,0.028,0.04
		c0.674-1.043-0.176,0.505-0.266,0.803c-0.104,0.346-0.112,0.734-0.183,1.088c-0.08,0.396-0.176,0.793-0.322,1.171
		c-0.084,0.217-0.618,0.804-0.276,0.19c-0.061,0.148-0.221,0.951-0.378,0.979c0.056-0.065,0.107-0.133,0.153-0.205
		c-0.34,0.143-0.681,1.707-0.757,1.986c-0.329,1.201-0.702,2.341-1.175,3.493c-0.342,0.833-0.531,1.685-0.761,2.549
		c-0.165,0.62-0.646,1.094-0.728,1.836c0.044-0.178,0.096-0.354,0.155-0.528c-0.627,1.194-1.603,2.651-0.791,3.881
		c-0.924-0.033-2.089,0.218-2.974-0.085c-1.975-0.677-3.969-1.199-5.997-1.707c-0.987-0.247-1.962-0.601-2.993-0.545
		c-1.168,0.063-2.273,0.491-3.395,0.782c-0.792,0.205-1.48,0.713-2.302,0.821c-0.489,0.064-0.968,0.186-1.442,0.322
		c-0.316,0.093-0.632,0.186-0.948,0.279c-0.537,0.088-0.635,0.136-0.294,0.145c-1.88,0.461-3.741,0.993-5.606,1.509
		c-1.017,0.282-2.036,0.559-3.059,0.818c-0.512,0.129-1.024,0.254-1.539,0.373c-0.048,0.011-1.344,0.51-0.877,0.128
		c-0.127,0.035-0.413,0.349-0.546,0.275c0.321-0.192,0.225-0.194-0.289-0.005c-0.401,0.101-0.828,0.171-1.21,0.334
		c-0.373,0.159-1.243,0.763-1.48,0.112c-0.257-0.702-0.511-1.428-0.541-2.182c0.131-0.072-0.186-0.873-0.098-0.748
		c-1.045-2.84-1.458-5.867-2.51-8.705c0.265,0.641,0.046-1.232-0.191-0.318c-0.003-0.21-0.276-1.835-0.437-1.862
		c0.075,0.182-0.13-0.961-0.167-1.206c-0.052,0.046-0.079,0.1-0.081,0.162c-0.418-2.383-1.214-4.849-1.926-7.163
		c-0.851-2.768-1.663-5.546-2.428-8.339c-1.469-5.364-2.729-10.776-4.088-16.168c0.219,0.483-0.051-0.333-0.078-0.411
		c-0.142-0.422-0.278-0.856-0.459-1.263c0.574,0.859,0.048-0.391-0.003-0.533c0.162,0.353-0.018-0.366-0.041-0.457
		C0.117,9.434,2.398,8.754,2.396,8.66C2.304,8.65,2.213,8.657,2.121,8.682c0.219-0.049,2.172-0.574,1.189-0.16
		c0.463-0.179,1.472-0.062,1.617-0.697C4.689,7.921,4.45,8.017,4.212,8.113c0.326-0.148,0.943-0.649,1.326-0.456
		C6.131,7.418,6.867,7.528,7.386,7.11C7.062,7.49,9.066,7.321,8.41,7.01c0.346-0.039,0.694-0.056,1.039-0.107
		c0.356-0.053,0.693-0.297,1.041-0.327c-0.342,0.24-0.238,0.248,0.31,0.023c0.498-0.134,0.997-0.263,1.497-0.39
		c0.983-0.251,1.967-0.497,2.942-0.777c1.326-0.38,3.221-0.647,4.896-1.308c-0.534,0.043,0.062-0.214,0.234-0.395
		c0.262-0.275,0.736-0.414,1.097-0.471c-0.091,0.016-0.13,0.056-0.117,0.12c0.33,0.027,0.892-0.293,1.173-0.453
		c-0.284,0.077-0.188,0.278,0.049,0.331c0.408,0.091,0.871-0.076,1.248-0.213c0.867-0.315,1.544-0.556,2.478-0.643
		c1.034-0.096,1.881-0.757,2.873-0.935c1.8-0.322,3.533-1.057,5.327-1.457c1.072-0.239,1.506,4.303,1.779,5.116
		c-0.012-0.558,0.041,0.038,0.291,0.154c0.209,0.096,0.697,0.401,0.424-0.045c0.318,0.145,0.625,0.341,0.961,0.443
		c0.233,0.071,0.615,0.053,0.838,0.163c-0.388,0.05-0.298,0.109,0.269,0.178c0.485,0.13,0.969,0.266,1.452,0.402
		c0.949,0.268,1.897,0.539,2.857,0.764c0.911,0.213,2.61,0.896,3.973,1.08c-0.403-0.201,1.083-0.265,1.43-0.126
		c-0.118-0.032-0.168-0.013-0.15,0.058c0.292,0.145,0.796,0.158,1.118,0.15c-0.089-0.02-0.149,0.006-0.178,0.077
		c0.105,0.426,1.557,0.67,1.927,0.735c1.032,0.182,1.954,0.826,2.976,0.955c0.748,0.094,1.374,0.123,2.156,0.385
		C57.993,10.957,59.464,11.207,60.857,11.64C60.538,12.712,60.037,11.385,60.857,11.64C60.394,13.198,59.943,11.356,60.857,11.64z
		 M41.972,48.941c1.257-0.36,2.738-0.66,4.036-0.35c-0.246-0.707-1.058-2.617-1.038-3.096c-0.322-1.907-1.05-3.983-1.705-5.804
		c0.043,0.302,0.085,0.605,0.128,0.907c-0.148-1.131-0.365-2.253-0.629-3.363c-0.144-0.606-0.276-1.232-0.5-1.815
		c-0.054-0.139-0.551-1.461-0.327-1.025c-0.893-2.822-1.515-5.719-2.343-8.559c0.044,0.399,0.089,0.798,0.133,1.197
		c-2.599-7.378-4.024-15.136-5.952-22.7c-0.294-1.155-0.419-1.736-1.714-1.336c-1.761,0.545-3.53,1.02-5.31,1.507
		c-4.436,1.213-8.864,2.455-13.299,3.672c-2.129,0.584-4.259,1.162-6.393,1.727c-0.333,0.153-1.708,0.364-2.386,0.526
		c-0.432,0.104-1.736,0.146-1.988,0.549c-0.13,0.208,0.325,1.265,0.382,1.476c0.26,0.966,0.533,1.928,0.823,2.885
		c0.684,2.258,1.261,4.546,1.824,6.837c2.149,8.739,4.71,17.366,6.982,26.073c0.202,0.774,1.915,7.982,2.176,7.972
		c0.872-0.031,1.907-0.582,2.747-0.812c1.679-0.46,3.358-0.92,5.037-1.381C29.083,52.265,35.562,50.775,41.972,48.941
		C43.126,48.611,39.699,49.591,41.972,48.941z M57.903,13.345c-1.099-0.68-2.474-0.747-3.694-1.083
		c-1.829-0.503-3.664-0.981-5.498-1.462c-3.929-1.032-7.867-2.026-11.794-3.067c0.252,1.009,0.352,2.12,0.928,3.014
		c-0.174-0.383-0.124,0.386-0.106,0.491c0.181,0.739,0.433,1.458,0.631,2.193c-0.773-1.286-0.861-2.886-1.256-4.304
		c-0.385,0.103,0.822,3.97,1,4.457c0.394,1.081,0.623,1.997,0.83,3.134c-0.078-0.293-0.155-0.587-0.233-0.88
		c0.083,0.815,0.45,1.56,0.579,2.365c0.198,1.241,0.436,2.475,0.636,3.716c0.031-0.402,0.062-0.804,0.094-1.206
		c0.292,1.177,0.624,2.423,0.836,3.544c0.192-0.474,0.307-0.985,0.469-1.42c0.195,0.112,0.436-1.953,0.397-2.314
		c-0.124-1.161-2.133-0.777-1.961-1.791c1.5,0.131,2.877,0.738,4.346,1.089c0.61,0.146,1.339,0.107,1.839,0.536
		c0.639,0.549,0.134,0.332-0.136,0.617c-0.462,0.301-0.869,0.047-1.359,0.194c-0.624,0.187-0.634,0.662-0.772,1.165
		c-0.326,1.195-0.708,2.744-1.085,3.724c-0.021,0.054-0.211,0.337-0.025,0.161c-0.535,0.908-0.545,2.131-0.175,3.107
		c-0.025-0.142-0.021-0.589,0.045,0.024c0.003-0.187-0.012-0.372-0.046-0.556c0.236,0.941,0.398,1.867,0.703,2.791
		c0.129,0.391,0.252,0.789,0.32,1.196c0.041,0.244-0.127,1.096-0.152,0.304c0.028,0.189,0.339,1.023,0.195,1.158
		c0.015-0.093,0.022-0.188,0.023-0.282c-0.102,0.151,0.083,0.902,0.114,1.097c0.176,1.085,0.672,2.093,0.789,3.19
		c0.295,1.135,0.42,2.304,0.616,3.458c0.102,0.601,0.554,1.588,0.554,2.07c-0.028-0.023-0.029-0.046-0.003-0.07
		c0.102,0.562-0.011,1.171,0.221,1.709c-0.066-0.194-0.115-0.392-0.146-0.595c0.085,1.385-0.069,3.576,1.374,4.2
		c-0.681,0.341-1.384,0.639-2.067,0.975c-0.746,0.367-1.187,0.939-1.892,1.372c-0.205-0.668-0.381-0.541-0.966-0.365
		c-0.695,0.209-1.39,0.426-2.099,0.584c2.635,0.653,5.07,1.179,7.436,2.545c0.143-0.74,0.219-1.527,0.589-2.199
		c0.066-0.069,0.111-0.765-0.058-0.517c0.615-1.599,0.972-3.568,1.258-5.255c-0.106,0.252-0.212,0.504-0.318,0.755
		c0.456-1.052,0.834-2.139,1.151-3.24c0.123-0.426,0.259-0.857,0.322-1.297c0.018-0.125,0.202-1.352,0.191-0.905
		c0.556-2.585,1.384-5.099,2.005-7.668c-0.15,0.327-0.3,0.653-0.45,0.98c0.668-3.764,1.843-7.471,2.967-11.12
		c0.572-1.859,1.047-3.744,1.532-5.627C56.994,16.505,57.094,14.734,57.903,13.345C56.912,12.732,57.232,14.497,57.903,13.345z
		 M48.802,47.874l0.008-0.034C48.749,47.825,48.758,47.882,48.802,47.874z M55.365,30.024c-0.12,0.109,0.11-0.111,0.127-0.137
		C55.45,29.933,55.407,29.978,55.365,30.024z M52.383,41.274c-0.055,0.189-0.095,0.357-0.108,0.482
		C52.435,41.235,52.427,41.206,52.383,41.274z M47.765,52.206c-0.098,0.109-0.099,0.158-0.003,0.149
		c0.118-0.184,0.181-0.385,0.19-0.603C48.191,51.171,47.581,52.653,47.765,52.206C47.687,52.349,47.821,52.07,47.765,52.206z
		 M48.892,51.299l0.026,0.099C48.95,51.232,48.93,51.234,48.892,51.299z M51.921,27.178C51.933,27.198,51.999,27.305,51.921,27.178
		L51.921,27.178z M46.607,13.75C46.612,13.77,46.594,13.696,46.607,13.75L46.607,13.75z M46.617,13.75
		c0.053,0.02,0.107,0.04,0.16,0.06C46.796,13.739,46.577,13.747,46.617,13.75C46.671,13.771,46.64,13.752,46.617,13.75z
		 M50.613,31.454C50.606,31.453,50.51,31.465,50.613,31.454C50.598,31.451,50.613,31.454,50.613,31.454z M47.081,41.701
		C47.012,41.596,47.076,41.694,47.081,41.701L47.081,41.701z M49.646,34.243c0.112,0.093,0.198-0.271,0.067-0.348
		C49.691,34.011,49.669,34.127,49.646,34.243z M52.947,15.293c-0.685-0.11-2.416-0.263-2.92-0.813
		c0.096,0.267-0.16,0.022-0.109,0.041c-1.142-0.033-2.143-0.828-3.284-0.826c-0.973,0.001-1.819-0.467-2.763-0.691
		c-1.182-0.281-2.283-0.438-3.418-0.884c-0.344-0.135-2.35-0.687-2.285,0.182c0.087,1.166,2.433,1.334,3.265,1.614
		c1.33,0.448,2.726,0.959,4.098,1.253c1.103,0.236,2.114,0.196,3.217,0.56c1.374,0.454,2.804,0.896,4.226,1.165
		c-0.895,3.439-1.927,6.837-2.792,10.284c-0.439,1.749-0.916,3.489-1.438,5.216c-0.238,0.786-0.498,1.563-0.76,2.341
		c-0.149,0.443-0.289,0.889-0.39,1.346c-0.042,0.191-0.449,1.336,0.062,0.635c-0.27,1.289-0.391,2.729-1.137,3.855
		c0.327-0.52-0.113,0.625-0.144,0.831c-0.054,0.364-0.219,1.189-0.132,1.539c0.198-0.343,0.377-0.704,0.644-1.001
		c-0.069,0.185,0.245-0.507,0.322-0.717c0.108-0.295,0.532-1.942,0.907-1.968c0.076-0.125,0.426-0.918,0.544-1.293
		c-0.213,0.408,0.036-0.089-0.123,0.107c0.006-0.531,0.317-0.79,0.254-1.295c-0.041-0.326,0.693-1.39-0.023-0.771
		c0.273-0.482,0.398-1.03,0.68-1.507c-0.176,0.64,0.119-0.222,0.191-0.224c-0.028-0.525,0.164-1.03,0.327-1.519
		c0.106,0.372-0.139,0.808-0.165,1.179c0.416-1.557,0.96-3.2,1.455-4.855c0.198-0.661,0.542-1.23,0.641-1.788
		c0.003-0.153-0.075-0.242-0.233-0.267c-0.009-0.431,0.127-0.856,0.268-1.257c0.209-0.599,0.34-1.255,0.716-1.774
		c-0.088,0.015,0.366-0.676,0.31-1.101c0.022,0.592-0.037-0.234-0.038-0.277c0.003,0.022,0.283-0.908,0.307-1.084
		c0.068-0.499,0.372-0.936,0.522-1.41c0.181-0.571,0.235-1.174,0.423-1.749c0.132-0.405,0.924-2.129,0.547-2.511
		C54.426,15.566,52.993,15.298,52.947,15.293C52.563,15.232,53.108,15.308,52.947,15.293z M46.556,40.872l0.002-0.01
		C46.518,40.851,46.529,40.87,46.556,40.872z M49.111,35.769C49.043,35.795,49.325,35.685,49.111,35.769L49.111,35.769z
		 M48.242,39.092c-0.017,0.056-0.028,0.106-0.024,0.144C48.272,39.084,48.264,39.074,48.242,39.092z M46.293,42.162
		C46.235,42.35,46.533,41.768,46.293,42.162C46.268,42.243,46.313,42.13,46.293,42.162z M46.933,41.976l0.026,0.034
		C46.964,41.96,46.951,41.959,46.933,41.976z M46.268,46.286C46.34,46.39,46.276,46.276,46.268,46.286
		C46.268,46.286,46.286,46.264,46.268,46.286z M46.235,45.924c0.012-0.069,0.025-0.138,0.037-0.207
		c-0.028,0.022-0.05,0.049-0.066,0.081c-0.086-0.057-0.042-0.331-0.05-0.423c-0.278,0.057,0.06,0.724,0.095,0.853
		C46.488,46.101,46.226,45.925,46.235,45.924C46.251,45.855,46.357,45.905,46.235,45.924z M45.46,43.271
		C45.499,43.213,45.465,43.264,45.46,43.271C45.466,43.261,45.46,43.271,45.46,43.271z M46.334,46.171
		c0.006,0.021,0.016,0.037,0.033,0.045C46.357,46.156,46.346,46.157,46.334,46.171z M43.652,22.233
		C43.622,22.251,43.699,22.205,43.652,22.233L43.652,22.233z M43.649,22.245c-0.023,0.063-0.045,0.126-0.068,0.189
		C43.616,22.444,43.66,22.198,43.649,22.245C43.626,22.308,43.643,22.271,43.649,22.245z M41.184,23.1
		c0.018-0.067,0.031-0.126,0.036-0.169C41.167,23.114,41.169,23.124,41.184,23.1z M20.317,3.634
		c0.066-0.008,0.112-0.047,0.138-0.116C20.41,3.557,20.364,3.596,20.317,3.634z M28.877,1.535c0.021-0.002,0.034-0.004,0.054-0.006
		C28.922,1.513,28.927,1.492,28.877,1.535z M0.084,9.91C0.055,9.822,0.03,9.744,0,9.654C0.032,9.78,0.059,9.854,0.084,9.91z
		 M15.629,58.283C15.531,58.222,15.772,58.374,15.629,58.283L15.629,58.283z M15.266,58.42c0.107-0.041,0.214-0.082,0.321-0.123
		c-0.35,0.054-0.694,0.138-1.03,0.25C14.561,58.52,15.191,58.434,15.266,58.42C15.222,58.418,14.989,58.47,15.266,58.42
		C15.367,58.364,15.023,58.464,15.266,58.42z M36.014,3.824C36.005,3.827,35.9,4.017,36.014,3.824
		C35.993,3.832,36.014,3.824,36.014,3.824z M45.487,43.717c0.048,0.101,0.023-0.011-0.006-0.055
		C45.415,43.549,45.417,43.567,45.487,43.717z M38.213,13.408c0.043,0.144,0.316,1.321,0.418,1.315
		C38.575,14.306,38.449,13.669,38.213,13.408z M43.83,41.578l-0.011-0.038C43.759,41.558,43.797,41.609,43.83,41.578z
		 M40.003,20.649c-0.049,0.181,0.036-0.171,0.036-0.201C40.027,20.514,40.015,20.581,40.003,20.649z M43.406,33.228
		c0.054,0.214,0.108,0.4,0.163,0.529C43.43,33.161,43.408,33.138,43.406,33.228z M45.236,46.363c0.019,0.06,0.037,0.119,0.056,0.179
		c-0.124-0.207-0.044-0.499-0.136-0.721C45.053,45.123,45.315,46.897,45.236,46.363C45.255,46.423,45.212,46.197,45.236,46.363z
		 M45.723,44.879l0.075,0.083C45.737,44.783,45.721,44.795,45.723,44.879z M13.565,39.453
		C13.543,39.439,13.433,39.373,13.565,39.453L13.565,39.453z M25.84,49.209C25.823,49.192,25.882,49.25,25.84,49.209L25.84,49.209z
		 M25.8,49.256C25.826,49.255,25.548,49.14,25.8,49.256C25.742,49.256,25.767,49.24,25.8,49.256z M12.453,34.697
		C12.459,34.695,12.536,34.632,12.453,34.697C12.467,34.692,12.453,34.697,12.453,34.697z M10.13,23.091
		C10.248,23.158,10.134,23.094,10.13,23.091L10.13,23.091z M11.825,31.536c-0.155-0.032-0.036,0.36,0.124,0.366
		C11.908,31.78,11.861,31.659,11.825,31.536z M33.461,45.634c-5.088,1.579-10.354,2.522-15.407,4.222
		c-0.78-3.826-1.925-7.554-2.994-11.305c-0.554-1.943-1.071-3.897-1.53-5.864c-0.217-0.931-0.396-1.869-0.6-2.802
		c-0.095-0.435-0.202-0.869-0.341-1.293c-0.069-0.21-0.278-1.355-0.348-0.454c-0.444-1.376-1.092-2.789-1.039-4.266
		c-0.009,0.648-0.218-0.677-0.318-0.898c-0.179-0.397-0.397-1.183-0.684-1.503c0.001,0.039,0.073,1.339-0.068,1.116
		c0.127,0.2,0.159,1.152,0.215,1.464c0.051,0.28,0.461,1.701,0.17,1.909c0.005,0.189,0.11,1.08,0.209,1.516
		c-0.032-0.5,0.015,0.106,0.05-0.167c0.262,0.49,0.058,0.923,0.423,1.322c0.248,0.272,0.18,1.701,0.459,0.765
		c0.018,0.603,0.186,1.188,0.203,1.79c-0.183-0.702,0.015,0.272-0.047,0.314c0.26,0.424,0.565,1.128,0.436,1.638
		c-0.12-0.408-0.192-0.852-0.398-1.23c0.297,1.106,0.631,2.253,0.839,3.436c0.135,0.766,0.305,1.433,0.585,2.148
		c0.072,0.183,0.104,1.388,0.044,1.336c0.771,0.743,0.919,1.877,1.179,3.044c0.031,0.138,0.055,1.036,0.199,0.907
		c-0.069,0.385-0.167,0.894,0.215,1.296c-0.3-0.504,0.123,0.146,0.177,0.244c0.223,0.308,0.215,1.488,0.542,2.168
		c0.557,1.156,0.557,2.759,0.954,3.994c0.133,0.412,0.262,0.826,0.392,1.239c0.396-0.122,0.794-0.239,1.204-0.304
		c0.437-0.069,0.872-0.237,1.293-0.369c0.669-0.21,1.994-0.878,2.727-0.678c-0.239-0.185,0.154-0.105,0.082-0.092
		c1.931-0.994,4.401-1.237,6.477-1.852c1.089-0.322,2.311-0.591,3.355-1.016c0.363-0.148,0.784-0.166,1.167-0.235
		c0.659-0.118,1.006-0.506,1.512-0.936C34.502,45.75,33.958,45.731,33.461,45.634C28.309,47.233,33.987,45.737,33.461,45.634z
		 M11.014,23.607l0.003,0.011C11.058,23.606,11.038,23.594,11.014,23.607z M11.487,29.802C11.521,29.76,11.346,29.978,11.487,29.802
		L11.487,29.802z M10.496,26.183c-0.014-0.062-0.031-0.115-0.055-0.15C10.474,26.206,10.486,26.211,10.496,26.183z M10.566,22.24
		C10.518,22.031,10.566,22.74,10.566,22.24C10.545,22.15,10.566,22.281,10.566,22.24z M10.113,22.751l-0.04-0.019
		C10.095,22.783,10.106,22.777,10.113,22.751z M35.035,19.826C35.058,19.84,35.167,19.908,35.035,19.826L35.035,19.826z
		 M22.486,9.825C22.504,9.842,22.444,9.784,22.486,9.825L22.486,9.825z M22.528,9.779C22.498,9.779,22.788,9.894,22.528,9.779
		C22.587,9.778,22.561,9.793,22.528,9.779z M36.179,24.7C36.173,24.702,36.096,24.766,36.179,24.7
		C36.165,24.704,36.179,24.7,36.179,24.7z M38.578,36.589C38.459,36.52,38.575,36.588,38.578,36.589L38.578,36.589z M36.827,27.938
		c0.058,0.013-0.103-0.358-0.127-0.376C36.743,27.688,36.787,27.812,36.827,27.938z M36.406,31.783
		c0.009-0.124,0.017-0.247,0.026-0.371c0.417,1.296,1.107,2.982,1.067,4.372c0.005-0.678,0.301,0.83,0.397,1.084
		c0.158,0.421,0.321,1.036,0.622,1.38c-0.011-0.439-0.05-0.883,0.022-1.32c0.068,0.381,0.073-0.317,0.051-0.328
		c0.444-0.604-1.136-2.427-0.419-2.949c-0.008-0.176-0.12-1.119-0.219-1.552c0.036,0.511-0.015-0.109-0.049,0.17
		c-0.265-0.501-0.067-0.946-0.433-1.357c-0.248-0.278-0.189-1.738-0.464-0.785c-0.021-0.617-0.194-1.216-0.215-1.833
		c0.162,0.622-0.006-0.38-0.098-0.565c-0.195-0.395-0.411-0.985-0.303-1.434c0.122,0.419,0.197,0.872,0.406,1.261
		c-0.261-0.972-0.438-1.914-0.732-2.919c-0.186-0.637-0.21-1.311-0.392-1.95c-0.146-0.516-0.403-0.937-0.46-1.477
		c-0.037-0.355,0.08-0.69-0.062-0.894c-0.344-0.491-0.658-0.934-0.814-1.667c-0.182-0.856-0.413-1.591-0.364-2.322
		c-0.075,0.069-0.008-0.907-0.318-1.241c0.038,0.068,0.077,0.136,0.119,0.202c-0.235-0.082-0.194-0.263-0.297-0.453
		c0.172,0.241-0.354-0.945-0.134-0.912c-0.339-0.387-0.316-1.217-0.437-1.696c-0.213-0.836-0.353-1.699-0.59-2.527
		c-0.191-0.669-0.356-1.741-0.772-2.302c-0.214-0.288-0.762,0.114-1.014,0.151c-1.224,0.178-3.073,1.414-4.314,1.09
		c0.209,0.158,0.005,0.075-0.123,0.084c-0.3,0.019-1.102,0.419-1.545,0.517c-0.724,0.159-1.539,0.235-2.2,0.594
		c-0.759,0.623-2.023,0.56-2.944,0.796c-0.837,0.214-1.617,0.521-2.454,0.709c-0.849,0.191-1.694,0.434-2.521,0.703
		c-0.45,0.147-0.765,0.514-1.123,0.813c0.358,0.588,1.043,0.641,1.658,0.524c1.463-0.279,2.921-0.802,4.386-1.129
		c3.729-0.831,7.484-1.943,11.117-3.124c1.161,3.798,1.945,7.709,3.053,11.524c0.591,2.036,1.188,4.073,1.638,6.146
		C35.533,28.528,35.647,30.146,36.406,31.783C36.414,31.659,36.007,30.922,36.406,31.783z M37.689,36.057l-0.003-0.011
		C37.645,36.057,37.665,36.07,37.689,36.057z M37.177,29.714C37.142,29.758,37.318,29.534,37.177,29.714L37.177,29.714z
		 M38.248,33.578c-0.002-0.061-0.017-0.116-0.047-0.167c-0.015,0.002,0.081,0.256,0.12,0.28
		C38.356,33.713,38.135,33.403,38.248,33.578C38.246,33.517,38.225,33.542,38.248,33.578z M38.147,37.458
		C38.196,37.671,38.144,36.946,38.147,37.458C38.168,37.55,38.147,37.416,38.147,37.458z M38.597,36.937l0.04,0.02
		C38.615,36.905,38.604,36.911,38.597,36.937z M7.015,13.91C7.008,13.903,6.919,13.822,7.015,13.91L7.015,13.91z M11.49,18.601
		C11.486,18.599,11.524,18.611,11.49,18.601L11.49,18.601z M11.489,18.608C11.387,18.659,11.468,18.759,11.489,18.608
		C11.453,18.626,11.487,18.625,11.489,18.608z M8.069,11.704C8.079,11.721,8.129,11.775,8.069,11.704
		C8.079,11.721,8.069,11.704,8.069,11.704z M9.356,11.893c0.045-0.079-0.012-0.138-0.171-0.179
		C9.185,11.842,9.262,11.818,9.356,11.893z M10.289,19.886c-0.016-0.058-0.032-0.115-0.048-0.173c0.221,0.147,0.438,0.3,0.651,0.459
		c0.661-1.259,1.071-2.674,1.542-4.016c0.186-0.53,0.376-0.799-0.089-1.253c-0.575-0.562-0.95-1.329-1.488-1.845
		c-0.012,0.035-0.016,0.071-0.012,0.107c-0.116-0.013-0.238-0.282-0.293-0.372c-0.376,0.574-0.38-0.73-0.571,0.089
		c-0.107-0.297-0.324-0.493-0.508-0.738c0.206,0.186,0.17,0.097-0.109-0.269c-0.154,0.193-0.739-0.513-0.773-0.588
		c0.196,0.145,0.393,0.288,0.593,0.428c-0.315-0.141-0.476-0.48-0.741-0.683c-0.227,0.54-0.742,1.024-0.848,1.611
		c-0.012,0.067-0.166,1.486-0.557,1.004C7.171,13.786,7.158,13.858,7,13.86c0.121,0.332,0.396,0.106,0.146,0.596
		c-0.095,0.187-0.594,0.743-0.413,0.778c-0.399,0.043-0.262,0.318-0.407,0.672c-0.014-0.27,0.114,0.029-0.147,0.383
		c0.055-0.045,0.195,0.298-0.002,0.327c0.793,0.138,1.713,1.485,2.423,1.962C9.169,18.961,10.023,19.31,10.289,19.886
		C10.274,19.828,10.203,19.699,10.289,19.886z M10.044,12.589C10.033,12.62,10.107,12.42,10.044,12.589L10.044,12.589z
		 M11.181,13.455c0.018,0.017,0.036,0.027,0.056,0.027C11.193,13.43,11.184,13.436,11.181,13.455z M36.156,41.837
		C36.149,41.83,36.061,41.749,36.156,41.837L36.156,41.837z M40.632,46.528C40.627,46.527,40.665,46.539,40.632,46.528
		L40.632,46.528z M40.63,46.536C40.528,46.587,40.61,46.687,40.63,46.536C40.594,46.554,40.628,46.553,40.63,46.536z M37.21,39.632
		C37.22,39.648,37.271,39.703,37.21,39.632C37.22,39.648,37.21,39.632,37.21,39.632z M38.497,39.821
		c0.045-0.079-0.012-0.138-0.171-0.179C38.326,39.769,38.403,39.746,38.497,39.821z M41.449,42.807
		c-0.586-0.538-0.92-1.313-1.449-1.821c-0.012,0.035-0.016,0.071-0.012,0.107c-0.116-0.013-0.238-0.282-0.293-0.372
		c-0.376,0.574-0.379-0.731-0.571,0.089c-0.107-0.297-0.324-0.493-0.508-0.738c0.206,0.186,0.17,0.097-0.109-0.269
		c-0.155,0.193-0.739-0.513-0.773-0.588c0.196,0.145,0.393,0.288,0.593,0.428c-0.315-0.141-0.476-0.48-0.741-0.683
		c-0.227,0.54-0.742,1.024-0.848,1.611c-0.012,0.067-0.166,1.486-0.557,1.004c0.132,0.14,0.119,0.212-0.039,0.215
		c0.121,0.332,0.396,0.106,0.146,0.596c-0.095,0.187-0.594,0.743-0.413,0.778c-0.398,0.043-0.266,0.317-0.407,0.672
		c-0.013-0.27,0.114,0.029-0.147,0.383c0.055-0.045,0.195,0.298-0.002,0.327c0.792,0.138,1.713,1.485,2.423,1.962
		c0.57,0.383,1.424,0.732,1.69,1.307c-0.13-0.472,0.531,0.219,0.604,0.286C40.447,47.312,42.391,43.544,41.449,42.807
		C41.111,42.497,41.598,42.923,41.449,42.807z M39.186,40.517C39.174,40.547,39.248,40.347,39.186,40.517L39.186,40.517z
		 M40.322,41.382c0.018,0.017,0.036,0.028,0.056,0.027C40.334,41.357,40.325,41.363,40.322,41.382z M25.329,37.25
		C25.328,37.247,25.306,37.186,25.329,37.25L25.329,37.25z M24.314,19.64C24.296,19.677,24.342,19.585,24.314,19.64L24.314,19.64z
		 M24.318,19.653c0.014,0.074,0.027,0.148,0.041,0.221C24.395,19.866,24.302,19.601,24.318,19.653
		C24.331,19.727,24.326,19.682,24.318,19.653z M25.113,32.139C25.115,32.138,25.152,32.073,25.113,32.139
		C25.12,32.136,25.113,32.139,25.113,32.139z M24.217,28.329c0.021,0.082,0.087,0.367,0.134,0.451
		C24.307,28.63,24.261,28.48,24.217,28.329z M18.801,18.35c-0.053,0.023-0.107,0.047-0.16,0.07c0.401,0.695,0.565,0.323,1.248,0.228
		c0.657-0.092,1.415,0.035,1.809,0.627c0.471,0.884,0.675,1.898,0.817,2.621c0.01,0.034,0.244,1.173,0.331,1.499
		c-0.123-0.604,0.031,0.151-0.005-0.186c0.217,0.557,0.388,1.129,0.54,1.707c0.057,0.217,0.371,1.985,0.354,0.88
		c0.135,0.713,0.349,1.41,0.439,2.131c-0.03-0.108-0.059-0.215-0.086-0.324c0.037,0.242,0.078,0.483,0.123,0.723
		c0.093,0.509,0.505,1.27,0.527,1.955c-0.141-0.505-0.259-1.018-0.439-1.511c0.245,0.856,2.37,8.592,0.915,8.598
		c0.032,0.006,0.064,0.012,0.096,0.019c-0.891,0.024-2.154,0.583-2.157,1.674c0.336,0.95,1.677,0.493,2.138,0.214
		c0.178,0.003,0.977-0.692,1.155-1.203c-0.284,0.56,0.229-0.43,0.233-0.436c0.118-0.188,0.338-0.534,0.377-0.774
		c0.248-0.742,1.338-1.939,1.132-2.882c-0.36-1.648-0.816-3.312-1.248-4.947c-0.264-1-0.554-1.994-0.887-2.973
		c-0.204-0.6-0.556-1.292-0.568-1.944c-0.069,0.279-0.055-0.119-0.064-0.172c-0.19-1.129-0.747-2.795-1.046-4.115
		c-0.113-0.5-0.34-0.972-0.069-1.47c0.236-0.434,1.707-0.869,1.714-1.124c0.017-0.577-0.15-1.009-0.69-0.84
		c-0.877,0.274-1.742,0.589-2.618,0.869C21.4,17.686,20.061,17.796,18.801,18.35z M23.72,26.239
		C23.744,26.138,23.67,26.459,23.72,26.239L23.72,26.239z M22.467,21.848c-0.02-0.075-0.04-0.139-0.059-0.184
		C22.459,21.871,22.467,21.879,22.467,21.848z"/>
</g>
<g id="Layer_1">
</g>
</svg>
