<?xml version="1.0" encoding="iso-8859-1"?>
<!-- Generator: Adobe Illustrator 17.1.0, SVG Export Plug-In . SVG Version: 6.00 Build 0)  -->
<!DOCTYPE svg PUBLIC "-//W3C//DTD SVG 1.1//EN" "http://www.w3.org/Graphics/SVG/1.1/DTD/svg11.dtd">
<svg version="1.1" xmlns="http://www.w3.org/2000/svg" xmlns:xlink="http://www.w3.org/1999/xlink" x="0px" y="0px"
	 viewBox="0 0 38.433 71.366" style="enable-background:new 0 0 38.433 71.366;" xml:space="preserve">
<g id="arrow_x5F_l">
	<path style="fill:#F7A13A;" d="M9.132,46.18C9.156,45.954,9.141,46.066,9.132,46.18C9.136,46.147,9.132,46.18,9.132,46.18z
		 M13.11,49.661c0.012,0.006,0.019,0.01,0.031,0.016C13.122,49.691,13.109,49.713,13.11,49.661z M22.704,13.321
		C22.716,13.372,22.677,13.204,22.704,13.321L22.704,13.321z M22.685,13.335c-0.085,0.101-0.17,0.202-0.255,0.303
		C22.316,13.521,22.762,13.28,22.685,13.335C22.6,13.436,22.643,13.366,22.685,13.335z M16.665,53.126
		C16.675,53.118,16.865,53.05,16.665,53.126C16.688,53.107,16.665,53.126,16.665,53.126z M35.426,69.738
		C35.413,69.519,35.462,69.727,35.426,69.738C35.426,69.738,35.44,69.734,35.426,69.738z M21.781,57.642
		c0.03-0.097-0.732-0.33-0.543-0.613C21.419,57.233,21.6,57.438,21.781,57.642C21.752,57.735,21.6,57.438,21.781,57.642z
		 M0.311,36.848c0.147-0.302-0.29-0.596-0.311-0.911c-0.011-0.161,0.935-0.671,0.012-0.339c0.242-0.132,0.464-0.333,0.679-0.503
		c0.077-0.061,0.816-0.668,0.311-0.326c2.565-2.688,5.043-5.657,7.945-8.19c1.884-1.645,3.82-3.412,5.459-5.303
		c0.445-0.513,1.028-0.812,1.395-1.197c0.162-0.169,0.874-1.071,0.939-1.297c0.065,0.607,0.48-0.185,0.25-0.058
		c1.555-1.026,2.52-2.71,4.068-3.744c0.175-0.019,0.687-0.982,0.957-1.138c0.128-0.074,1.056-0.749,0.858-0.746
		c0.074-0.001,0.51-0.183,0.235-0.121c1.37-1.735,3.094-3.138,4.61-4.737c0.396-0.418,1.05-1.134,1.731-1.69
		c0.531-0.433,1.086-1.042,1.635-1.401c0.695-0.455,0.969-1.127,1.636-1.543c0.516-0.321,0.725-0.646,1.088-1.1
		c1.137-1.42,2.081-1.857,3.776-2.503c0.44,1.644-0.051,2.748-1.286,3.827c-1.478,1.291-2.76,2.65-4.069,4.107
		c-1.227,1.367-2.506,2.686-3.806,3.983c-1.386,1.382-2.752,3.008-4.36,4.127c-0.609,0.424-1.003,1.063-1.512,1.593
		c-0.627,0.653-1.311,1.249-1.956,1.884c-0.487,0.48-1.141,0.95-1.576,1.445c-0.382,0.435-0.534,0.95-1.009,1.372
		c-2.618,2.327-5.27,4.636-7.711,7.156c-1.224,1.264-2.235,2.729-3.483,3.962c-0.576,0.569-3.446,2.364-2.367,3.208
		c2.976,2.329,5.403,5.263,8.021,7.972c2.764,2.86,5.764,5.481,8.554,8.316c2.638,2.681,5.804,4.88,8.004,7.972
		c-0.228-0.114-0.456-0.228-0.684-0.342c1.214,1.336,2.633,2.474,3.781,3.872c0.245,0.688,1.97,2.028,2.934,2.559
		c-0.162-0.102-0.327-0.198-0.497-0.287c0.384,0.556,0.885,1.002,1.342,1.494c0.263,0.284,0.522,0.192,0.662,0.603
		c0.102,0.299,0.187,0.463,0.468,0.648c-0.396-0.074,0.228,0.479,0.275,0.507c0.477,0.283,0.937,0.866,1.122,1.388
		c-0.77-0.476-1.518-1.01-2.368-1.34c0.166,0.015,0.25,0.099,0.253,0.254c-0.325-0.142-0.638-0.32-0.93-0.522
		c0.256-0.25-2.251-1.804-2.559-2.062c-0.462-0.386-0.848-0.956-1.39-1.236c-0.125-0.065-1.085-0.653-0.652-0.472
		c-0.188-0.01-0.426-0.306-0.586-0.402c0.267,0.288-0.523-0.272-0.586-0.319c-0.139-0.105-0.295-0.211-0.418-0.336
		c-0.237-0.23-0.486-0.445-0.749-0.645c-0.504-0.366-0.522-0.429-0.056-0.188c-0.397-0.195-0.033-0.087,0.02-0.05
		c-0.426-0.667-2.056-1.144-1.889-1.953c0.128-0.62-1.498-1.587-1.903-1.961c0.29,0.037,0.581,0.075,0.871,0.112
		c-0.551-0.349-1.096-0.707-1.635-1.075c-0.498-0.339-0.853-1.005-1.411-1.216c0.129,0.132,0.261,0.262,0.395,0.39
		c-0.64-0.445-0.903-0.677-1.382-1.264c-0.284-0.348-1.912-2.175-2.171-1.916c0.617,0.6,1.517,1.196,1.839,2.027
		c-0.086-0.086-1.512-1.337-1.354-0.999c-0.197-1.161-1.795-1.953-2.623-2.624c0.287,0.087-0.956-1.013-1.21-1.21
		c-0.306-0.237-1.317-0.737-1.453-1.086c-0.013-0.033,0.14-0.002,0.137-0.055c-0.024-0.436-1.316-1.319-1.604-1.665
		c-0.481-0.578-0.49-0.877-1.179-1.206c-0.132-0.063-1.994-2.017-1.819-1.204c-0.069-0.271-0.186-0.52-0.35-0.747
		c-0.124,0.035-0.151,0.11-0.081,0.223c-0.203-0.126-0.712-1.191-0.187-1.115c-0.331-0.552-1.523-1.59-1.784-1.72
		c-0.324-0.392-0.762-0.617-1.143-0.94c-0.579-0.492-0.961-1.162-1.483-1.707c-0.003,0.476-0.11-0.403-0.407-0.172
		c-0.09-0.36-0.354-0.298-0.622-0.433c0.592-0.178-0.501-0.758-0.597-0.279c-0.212-0.543-0.939-0.811-1.296-1.573
		c0.067,0.147,0.148,0.286,0.242,0.418c0.394-0.46-1.036-1.624-0.499-0.858c-0.366-0.424-0.827-0.742-1.259-1.093
		c0.761,0.618-0.383-0.496-0.131-0.291C0.477,36.954,0.439,36.951,0.311,36.848C0.385,36.695,0.549,37.041,0.311,36.848z
		 M35.358,67.63l-0.016-0.018C35.402,67.554,35.405,67.602,35.358,67.63z M24.591,60.107C24.612,60.105,24.283,60.139,24.591,60.107
		L24.591,60.107z M30.181,65.756c0.099,0.092,0.178,0.179,0.219,0.258C30.118,65.769,30.121,65.743,30.181,65.756z M37.395,69.894
		c0.212,0.198-0.208-0.071-0.294-0.175C36.795,69.536,37.66,70.051,37.395,69.894C37.607,70.092,37.312,69.844,37.395,69.894z
		 M36.026,70.135l-0.005,0.091C35.951,70.133,35.972,70.119,36.026,70.135z"/>
</g>
<g id="Layer_1">
</g>
</svg>
