<?xml version="1.0" encoding="iso-8859-1"?>
<!-- Generator: Adobe Illustrator 17.1.0, SVG Export Plug-In . SVG Version: 6.00 Build 0)  -->
<!DOCTYPE svg PUBLIC "-//W3C//DTD SVG 1.1//EN" "http://www.w3.org/Graphics/SVG/1.1/DTD/svg11.dtd">
<svg version="1.1" xmlns="http://www.w3.org/2000/svg" xmlns:xlink="http://www.w3.org/1999/xlink" x="0px" y="0px"
	 viewBox="0 0 56.768 65.624" style="enable-background:new 0 0 56.768 65.624;" xml:space="preserve">
<g id="biceps">
	<path style="fill:#F7A13A;" d="M8.731,28.928C8.788,28.806,8.898,28.79,8.731,28.928C8.739,28.912,8.731,28.928,8.731,28.928z
		 M11.839,22.045c-0.005,0.016-0.008,0.027-0.014,0.044C11.874,22.057,11.853,22.057,11.839,22.045z M30.948,63.009
		C30.784,63.081,30.916,63.025,30.948,63.009C30.917,63.022,30.948,63.009,30.948,63.009z M30.75,63.016
		c-0.135,0.051-0.27,0.103-0.406,0.154c0.183-0.014,0.359-0.057,0.529-0.129C30.812,63.063,30.571,63.077,30.75,63.016
		C30.61,63.055,30.594,63.069,30.75,63.016z M15.176,15.964C15.182,15.995,15.206,16.138,15.176,15.964L15.176,15.964z
		 M41.234,7.568c0.003,0.043-0.038,0.167,0.032,0.168C41.255,7.68,41.245,7.624,41.234,7.568z M20.262,8.902
		c-0.141,0.119-0.281,0.238-0.422,0.357c0.196,0.101,0.756-0.546,0.899-0.706c-0.067-0.059-0.444,0.327-0.522,0.39
		C20.33,8.852,20.345,8.838,20.262,8.902C20.122,9.021,20.481,8.727,20.262,8.902z M56.768,56.206
		c-1.056,2.787-3.509,4.509-6.28,5.356c-1.351,0.413-2.754,0.644-4.159,0.772c-1.576,0.143-3.241-0.045-4.79,0.275
		c-4.249,0.878-8.218,2.548-12.594,2.908c-4.133,0.34-8.452-0.17-12.532-0.831c-4.066-0.659-8.11-1.728-11.825-3.537
		c-1.413-0.688-3.27-1.693-3.789-3.299c-0.239-0.739-0.071-1.504,0.007-2.253c0.111-1.074-0.444-2.049-0.616-3.11
		c-0.564-3.475,0.223-7.315,1.179-10.657c1.18-4.124,2.477-8.094,4.197-12.036c2.546-5.834,5.354-11.793,8.886-17.104
		c3.266-4.91,8.301-9.827,14.105-11.51c-0.301,0.203-0.601,0.406-0.902,0.609c1.387-0.617,2.785-1.25,4.273-1.58
		c0.736-0.163,1.495-0.249,2.248-0.189c0.296,0.023,0.589,0.071,0.877,0.142c0.037,0.009,1.256,0.557,0.671,0.183
		c0.811,0.3,1.405,0.991,1.994,1.59c0.841,0.854,1.762,1.655,2.684,2.42c-0.21-0.174-0.42-0.348-0.63-0.522
		c1.236,1.606,3.57,3.582,2.061,5.762c0.073-0.08,0.076-0.141,0.01-0.182c-0.633,0.173-1.423,1.377-1.891,1.774
		c0.478,0.196,0.068,0.049,0.157-0.089c0.086,0.361,0.347,0.655,0.588,0.92c0.221,0.243,0.735,1.23,0.744,0.632
		c1.079,1.244-0.614,2.973-1.731,3.389c-1.746,0.65-3.337-0.477-5.011-0.668c-0.578-0.066-0.946-0.273-1.518-0.157
		c-0.856,0.173-1.688,0.49-2.566,0.546c-0.738,0.047-1.313-0.279-2.055-0.243c-0.964,0.046-1.712-0.468-2.629-0.491
		c0.277,0.548-0.687,1.343-0.836,1.856c-0.211,0.73-0.584,1.424-0.91,2.107c-1.091,2.282-1.792,4.772-2.159,7.288
		c-0.418,2.862-0.346,5.9-0.192,8.78c0.045,0.838,0.291,1.643,0.336,2.472c0.038,0.709-0.047,1.439,0.232,2.101
		c0.174,0.412,0.163,0.928,0.153,1.366c-0.008,0.33,0.089,1.193-0.308,0.717c-0.025,0.402,0.043,0.8,0.069,1.2
		c2.014-1.848,4.492-2.563,7.082-2.745c0.981-0.069,2.043-0.01,3.012,0.148c0.588,0.096,3.017,1.597,3.392,1.235
		c1.008-0.972,1.776-2.133,2.862-3.037c0.566-0.471,1.177-0.893,1.838-1.218c0.256-0.127,0.519-0.237,0.79-0.33
		c0.253-0.086,1.019-0.528,0.644,0.04c0.521-0.111,0.993-0.451,1.532-0.485c0.583-0.037,0.872-0.002,1.38-0.39
		c-0.458,0.349,0.545,0.142,0.683,0.043c0.241,0.122,0.976,0.241,1.101,0.381c-0.456,0.275-0.643,0.633-0.988,0.813
		c-0.025-0.209-1.664,0.636-1.66,0.646c-0.093,0.323-0.54,0.493-0.807,0.614c0.049-0.104-0.004-0.112,0.043-0.159
		c-0.204-0.039-0.458,0.304-0.621,0.39c-0.401-0.64-1.04,0.603-0.819-0.371c-0.224,0.327-0.545,0.541-0.791,0.846
		c0.377-0.197-0.166,0.222-0.336,0.263c-0.195,0.047-0.589,0.267-0.552,0.529c0.186-0.138,0.447-0.292,0.676-0.343
		c-0.07,0.048-0.62,0.348-0.273,0.416c-0.797-0.158-0.973,1.173-1.541,1.365c-0.305,0.103-1.458,1.166-0.791,1.283
		c-0.12-0.039-0.227-0.017-0.321,0.069c0.036,0.085,0.152,0.438-0.273,0.267c-0.414-0.166-0.543,0.149-0.68,0.606
		c-0.087,0.293-0.145,0.609-0.325,0.865c-0.361,0.516-1.027-0.623-0.904-0.265c-0.083-0.076-0.151-0.165-0.202-0.266
		c-0.012,0.136-0.105,0.064-0.322,0.06c0.134-0.292-0.338-0.327-0.292,0.007c-0.098-0.196-0.436-0.361-0.758-0.667
		c0.169,0.379,0.198-0.094-0.04-0.123c-0.338-0.26-0.072-0.03-0.3-0.245c-0.108-0.034-0.193,0-0.254,0.101
		c-0.044-0.293-0.385-0.258-0.575-0.172c0.029-0.214-0.482-0.291-0.604-0.317c-0.908-0.192-1.86-0.218-2.785-0.252
		c-0.632-0.023-1.137-0.141-1.658,0.207c0.173-0.116-2.109,0.725-2.239,0.673c-0.336-0.134-1.777,1.165-2.12,1.395
		c-0.536,0.36-0.975,1.059-1.296,1.604c-0.51,0.868-2.113-0.307-1.653-1.229c0.302-0.604,0.462-0.545,0.304-1.261
		c-0.102-0.465-0.432-0.644-0.53-1.369c0.137,0.137,0.104,0.017,0.142,0.096c0.302-0.688-0.554-0.436,0.157-0.936
		c-0.112-0.27-0.149-0.565-0.194-0.851c0.141,0.063,0.28,0.131,0.417,0.203c-0.227-0.381-0.234-0.848-0.485-1.213
		c0.04,0.487-0.185-0.216-0.123-0.434c0.07-0.246,0.107-0.78-0.17-0.936c0.03,0.282,0.066,0.634-0.034,0.908
		c-0.006-0.082-0.024-0.821-0.227-0.535c0.528-0.662-0.494-1.95-0.249-2.699c0.081-0.246,0.116-2.081-0.395-1.694
		c0.258-0.162,0.276-0.287,0.052-0.376c-0.06-0.333,0.635,0.089,0.517-0.479c-0.126-0.601-0.14-1.14-0.118-1.777
		c-0.087,0.078-0.123,0.072-0.109-0.019c0.21-0.114-0.008-0.216-0.122-0.369c0.359,0.087,0.029-0.267-0.168-0.21
		c0.214-0.193-0.163-0.295,0.164-0.685c-0.25,0.402,0.118-0.108,0.167-0.197c-0.105,0.168-0.154,0.091-0.147-0.233
		c0.25,0.219-0.045-1.147,0.025-1.249c0.426-0.629,0.054-1.898,0.152-2.625c0.094-0.7,0.32-1.413,0.479-2.101
		c0.093-0.406,0.647-1.622,0.354-2.031c0.217,0.151,0.276-0.676,0.362-0.948c0.172-0.544,0.35-1.149,0.657-1.636
		c0.418-0.665,0.677-1.488,0.975-2.288c0.232-0.624,0.879-1.352,1.216-1.967c0.198-0.361,0.384-0.744,0.622-1.081
		c0.074-0.105,0.635-0.201,0.761-0.208c0.279,0.169,0.453,0.088,0.52-0.244c0.111-0.234,0.234-0.306,0.368-0.215
		c0.758,0.249,1.598,0.281,2.386,0.343c0.335,0.027,0.664,0.117,0.945,0.066c0.296-0.054,1.502-0.039,1.525-0.031
		c0.774,0.272,1.525-0.432,2.298-0.463c0.497-0.02,0.997,0.052,1.492,0.083c0.339,0.021,0.849,0.575,1.19,0.254
		c-0.212,0.086,0.296,0.046,0.302,0.04c-0.044,0.082,0.061,0.464,0.084,0.151c0.158,0.254,0.219,0.231,0.535,0.332
		c0.228,0.073,0.459,0.154,0.695,0.203c0.231,0.048,0.098-0.224,0.266-0.306c0.024,0.171,0.103,0.175,0.236,0.012
		c-0.391,0.411,0.554,0.359,0.747,0.232c0.295-0.193,0.274,0.248,0.672-0.042c0.298-0.217,0.221-0.046,0.447-0.273
		c-0.051,0.125-0.129,0.231-0.234,0.318c0.149,0.071,0.815-0.586,1.054-0.816c-0.452,0.124-0.37-0.187-0.231-0.269
		c-0.098,0.04-0.198,0.049-0.301,0.026c0.039-0.11,0.027-0.213-0.037-0.309c-0.009,0.037-0.026,0.07-0.051,0.1
		c-0.261-0.46-0.129-0.679-0.399-1.133c-0.219-0.367-1.145-0.559-1.523-0.937c-0.157-0.157-0.847-0.84-1.005-0.841
		c-0.005,0.011-2.303-1.711-1.719-2.32c-0.077-0.012-0.048,0.051-0.103-0.01c0.011-0.083,0.106-0.173-0.071-0.293
		c-0.048-0.1-0.29-0.505,0.178-0.998c0.055-0.058,0.766-0.563,0.766-0.558c-0.024-0.151,0.495-0.611,0.542-0.619
		c0.064-0.011,0.243-0.438,0.335-0.507c0.39,0.39,0.78,0.78,1.17,1.17c-0.19,0.086-0.098,0.176-0.226,0.056
		c0.108,0.101-0.163,0.159-0.207,0.124c-0.02,0.099,0.079,0.349-0.219,0.104c0.071,0.059,0.065,0.08,0.127,0.127
		c-0.073-0.04-0.588,0.528-0.647,0.605c0.179,0.055,0.101-0.034,0.138,0.087c0.114-0.133,0.145-0.049,0.111-0.009
		c-0.047-0.257,0.051,0.005,0.04-0.005c0.009-0.041,0.027-0.078,0.053-0.112c0.137,0.076,1.513,0.211,1.501,0.178
		c0.016,0.029,0.049,0.224,0.064,0.088c-0.009,0.144,0.173,0.091,0.192,0.186c0.048-0.069-0.027-0.061,0.036-0.086
		c0.05,0.038,0.392,0.214,0.418,0.198c0.02-0.088,0.009-0.055-0.033,0.097c0.022,0.045,0.173-0.302,0.064,0.049
		c0.133-0.182,0.015,0.058,0.094-0.092c-0.007-0.067,0.135,0.411,0.065,0.255c0.101-0.129-0.002-0.116,0.057,0.065
		c0.008-0.282,0.108,0.148,0.049-0.039c0.029,0.107,0.014,0.211-0.034,0.297c-0.012-0.337-0.149,0.399-0.048-0.251
		c-0.011,0.232-0.169,0.136-0.174,0.051c-0.01,0.046-0.05,0.175-0.044,0.214c0.004-0.05,0.006-0.101,0.005-0.151
		c0.015,0.17-0.06-0.037-0.055-0.093c0.096,0.611-0.139,0.048-0.076,0.025c0.066-0.025-0.066-0.031-0.025,0.168
		c-0.039-0.241-0.051-0.062-0.058,0.041c-0.047-0.043-0.067-0.095-0.06-0.158c-0.071,0.237-0.137-0.123-0.089,0.116
		c-0.02-0.053-0.034-0.107-0.043-0.163c-0.058,0.048-0.194,0.274-0.146-0.007c-0.105,0.574-0.067,0.161-0.091,0.073
		c0.045,0.159-0.116-0.004-0.121-0.009c0.006,0.025-0.067,0.195-0.084,0.218c0.099-0.576-0.1,0.295-0.118-0.116
		c-0.037,0.074-0.067,0.151-0.091,0.231c-0.004-0.316-0.202-0.018-0.129-0.293c-0.008-0.011-0.042,0.139-0.069,0.2
		c-0.027-0.342-0.084-0.044-0.103,0.05c0.025-0.122-0.063,0.015-0.075-0.123c-0.008,0.098-0.033,0.109-0.075,0.032
		c-0.027,0.016-0.173,0.285-0.204,0.319c0.036-0.109-0.029-0.043-0.036-0.161c-0.279,0.26-0.32-0.072-0.518,0.169
		c0.039-0.028,0.032-0.006-0.02,0.067c0.21,0.026,0.779,0.508,0.723,0.603c0.032-0.026,0.04-0.029,0.063-0.069
		c-0.042,0.111,0.915,0.648,1.035,0.732c0.406,0.286,0.339,0.68,0.763,1.011c0.514-0.628,1.643-1.395,1.644-2.294
		c-0.044,0.091-0.212,0.535-0.344,0.514c0.854,0.131-0.346-2.548-0.514-2.751c-1.442-1.732-3.398-3.376-5.296-4.532
		c0.061-0.035,0.126-0.046,0.196-0.032c-0.135,0.046-0.777-0.355-0.854-0.165c0.716,0.189-0.633,0.082-0.667,0.084
		c-0.453,0.029-0.939,0.062-1.383,0.162c-0.336,0.076-1.84,0.844-0.924,0.201C31.2,2.435,31.5,2.222,31.61,2.177
		c-0.735,0.118-1.404,0.496-2.047,0.85c-0.253,0.142-0.509,0.279-0.768,0.409c-0.444,0.218-0.436-0.024-0.812,0.081
		c-1.117,0.312-2.166,1.179-3.151,1.834c0.206-0.284,0.412-0.568,0.618-0.852c-0.743,0.563-1.472,1.144-2.175,1.755
		c-0.62,0.539-1.403,0.941-1.951,1.553c0.204-0.157,0.407-0.314,0.611-0.471c-0.618,0.57-5.049,4.287-4.446,4.735
		c0.68-0.939,1.389-2.237,2.489-2.742c-0.387,0.366-0.873,0.744-1.167,1.192c-0.046,0.069-0.46,0.782-0.195,0.571
		c-1.474,0.838-2.152,2.768-2.955,4.163c0.124-0.331,0.064-0.287-0.181,0.133c-0.235,0.352-0.439,0.724-0.636,1.099
		c-0.316,0.601-0.579,1.191-0.831,1.82c-0.405,1.012-1.16,1.812-1.688,2.776c-0.322,0.588-0.566,1.201-0.974,1.736
		c-0.495,0.647-0.524,1.268-0.866,1.969c-0.2,0.409-1.307,1.98-0.985,2.466c0.063,0.025,0.113,0.001,0.152-0.069
		c-0.202,0.226-0.509,0.611-0.577,0.91c0.044,0.055,0.09,0.03,0.138-0.076c-0.108,0.354-1.064,1.383-0.976,0.973
		c-0.686,1.11-1.207,2.829-1.52,3.659c-0.552,1.467-1.127,2.944-1.658,4.42c0.437-0.395-0.152,0.387-0.183,0.51
		c-0.111,0.333-0.068,0.741-0.117,1.088c-0.293-0.578-0.502,1.143-0.105,0.869c-0.564,0.501-0.576,1.96-0.923,2.656
		c0.103-0.192,0.19-0.392,0.261-0.598c-0.585,0.101-0.471,0.944-0.624,1.355c0.36-0.781-0.043,0.72-0.073,0.945
		c0.09-0.53-0.261,0.43-0.294,0.533c-0.073,0.226-0.486,1.345-0.047,1.102c-0.14,0.184-0.379,1.272-0.24,0.907
		c-0.428,2.711-0.002,5.294,0.353,7.978c0.1,0.758-0.291,2.345,0.139,2.934c0.427,0.585,1.162,0.987,1.773,1.347
		c1.897,1.118,4.014,1.666,6.082,2.376c1.288,0.442,2.593,0.631,3.918,0.921c0.336,0.073,2.402,0.264,2.256,0.509
		c0.194,0.007,1.226,0.064,1.035,0.005c0.025,0.104,1.449,0.185,1.611,0.157c-0.707,0.353,0.816,0.281,0.288,0.137
		c2.342,0.52,4.754,0.364,7.128,0.58c0.685,0.062,1.225-0.13,1.902-0.223c0.341-0.047,0.693-0.01,1.037-0.026
		c0.236-0.011,1.417-0.015,1.036-0.204c0.171-0.007,0.342,0.002,0.511,0.028c-0.365-0.182,0.703-0.261,0.854-0.302
		c0.67-0.181,1.342-0.358,2.012-0.537c1.342-0.357,2.683-0.717,4.013-1.114c2.241-0.668,3.523-1.025,6.023-0.868
		c2.065,0.13,4.79,0.186,6.617-0.932c1.847-1.13,3.693-2.679,5.306-4.118C56.671,55.456,56.725,55.83,56.768,56.206
		C54.693,61.682,56.725,55.83,56.768,56.206z M37.009,8.541C37.025,8.539,37.025,8.535,37.009,8.541
		C37.014,8.54,37.009,8.541,37.009,8.541z M37.532,6.547C37.532,6.547,37.533,6.549,37.532,6.547
		C37.532,6.547,37.532,6.547,37.532,6.547z M36.836,8.551C36.824,8.502,36.664,8.661,36.836,8.551
		C36.834,8.546,36.807,8.57,36.836,8.551z M36.934,8.611C36.836,8.633,36.851,8.638,36.934,8.611
		C36.916,8.615,36.925,8.614,36.934,8.611z M37.021,8.55C37.02,8.541,37.003,8.535,37.021,8.55
		C37.021,8.546,37.018,8.547,37.021,8.55z M37.067,8.546C37.055,8.442,37.03,8.564,37.067,8.546
		C37.065,8.53,37.058,8.551,37.067,8.546z M37.177,8.554C37.174,8.522,37.136,8.584,37.177,8.554
		C37.177,8.55,37.167,8.562,37.177,8.554z M37.204,8.542C37.24,8.524,37.191,8.4,37.204,8.542
		C37.209,8.54,37.203,8.522,37.204,8.542z M40.882,5.165l0.023,0.028C40.948,5.183,40.931,5.126,40.882,5.165z M24.698,5.539
		c0.045-0.063,0.089-0.126,0.134-0.189C24.762,5.404,24.745,5.465,24.698,5.539z M35.097,2.013c-0.076-0.064-0.219-0.088-0.37-0.128
		C34.66,1.898,34.685,1.904,35.097,2.013z M41.128,10.257c0.101-0.125,0.202-0.249,0.303-0.374c0.034-0.03-0.539,0.571-0.4,0.492
		c0.098-0.041,0.129-0.082,0.093-0.124C41.035,10.341,41.037,10.343,41.128,10.257C41.229,10.132,40.926,10.454,41.128,10.257z
		 M41.245,8.832c0.006,0.004,0.087-0.063,0.087-0.063C41.339,8.688,41.333,8.683,41.245,8.832z M37.586,14.206
		C37.592,14.196,37.668,14.089,37.586,14.206L37.586,14.206z M29.203,13.951C29.203,13.954,29.195,13.91,29.203,13.951
		L29.203,13.951z M29.226,13.915C29.236,13.924,29.277,14.071,29.226,13.915C29.247,13.933,29.235,13.941,29.226,13.915z
		 M39.003,14.455C39.019,14.486,39.038,14.523,39.003,14.455C39.011,14.47,39.003,14.455,39.003,14.455z M39.867,14.073
		C39.677,14.31,39.879,14.081,39.867,14.073C39.867,14.073,39.872,14.077,39.867,14.073z M40.224,13.668
		C40.258,13.67,40.024,13.654,40.224,13.668L40.224,13.668z M39.74,12.713c-0.014-0.02-0.031-0.033-0.051-0.035
		C39.721,12.738,39.732,12.733,39.74,12.713z M19.207,34.005C19.261,33.987,19.358,33.943,19.207,34.005
		C19.227,33.999,19.207,34.005,19.207,34.005z M19.563,35.766l-0.009-0.01C19.527,35.77,19.545,35.766,19.563,35.766z
		 M21.501,19.519C21.515,19.554,21.517,19.545,21.501,19.519C21.505,19.53,21.501,19.519,21.501,19.519z M21.455,19.554
		C21.577,19.701,21.462,19.605,21.455,19.554C21.48,19.585,21.462,19.6,21.455,19.554z M19.764,37.41
		C19.755,37.408,19.624,37.385,19.764,37.41L19.764,37.41z M20.203,39.351c-0.154-0.006-0.168,0.088-0.044,0.281
		C20.219,39.625,20.196,39.393,20.203,39.351z M20.362,40.802C20.471,40.847,20.471,40.848,20.362,40.802L20.362,40.802z
		 M20.539,43.545c0.019-0.028,0.023-0.067,0.018-0.11C20.532,43.418,20.517,43.424,20.539,43.545z M37.829,43.271
		C37.761,43.257,37.68,43.24,37.829,43.271C37.809,43.266,37.829,43.271,37.829,43.271z M38.627,41.846c0,0,0,0.007,0,0.012
		C38.654,41.87,38.639,41.859,38.627,41.846z M25.706,43.354C25.713,43.326,25.709,43.322,25.706,43.354
		C25.709,43.344,25.706,43.354,25.706,43.354z M25.755,43.363C25.739,43.134,25.762,43.348,25.755,43.363
		C25.752,43.326,25.772,43.329,25.755,43.363z M39.542,40.863C39.547,40.872,39.609,40.987,39.542,40.863L39.542,40.863z
		 M45.613,37.291C45.709,37.394,45.631,37.295,45.613,37.291C45.613,37.291,45.629,37.294,45.613,37.291z M40.695,39.668
		c0.054,0.129,0.132,0.108,0.233-0.063C40.936,39.606,40.675,39.632,40.695,39.668z M45.07,36.29l0.008,0
		C45.078,36.25,45.064,36.227,45.07,36.29z M41.766,39.049C41.762,38.933,41.762,38.932,41.766,39.049L41.766,39.049z M43.976,38.27
		c-0.028-0.015-0.061-0.013-0.098-0.002C43.87,38.296,43.878,38.31,43.976,38.27z M46.067,36.356
		C45.703,36.527,46.246,36.332,46.067,36.356C46.031,36.373,46.13,36.348,46.067,36.356z M14.864,30.944
		C14.856,30.941,14.745,30.896,14.864,30.944L14.864,30.944z M14.919,36.507C14.919,36.507,14.884,36.516,14.919,36.507
		L14.919,36.507z M14.917,36.504C14.977,36.463,14.869,36.434,14.917,36.504C14.943,36.486,14.912,36.497,14.917,36.504z
		 M15.206,29.641C15.237,29.643,15.276,29.645,15.206,29.641C15.221,29.642,15.206,29.641,15.206,29.641z M16.667,26.707
		C16.735,26.745,16.682,26.715,16.667,26.707L16.667,26.707z M15.584,28.819C15.557,28.933,15.549,28.966,15.584,28.819
		L15.584,28.819z M17.41,26.941c-0.092-0.156-0.086-0.406-0.169-0.486c-0.206,0.065-0.404,0.148-0.594,0.248
		c0.072,0.025-0.773,0.858-0.833,0.997c0.035,0.001,0.068-0.004,0.099-0.017c-0.051,0.105-0.114,0.202-0.188,0.292
		c0.502,0.196-0.287,0.433,0.356,0.368c-0.191,0.141-0.195,0.269-0.362,0.367c-0.321,0.188,0.063,0.36-0.152,0.564
		c-0.002-0.119-0.048-0.254-0.073-0.371c-0.03,0.15-0.467,1.969-0.68,1.85c0.163,0.081,0.171,0.134,0.023,0.159
		c0.26,0.25,0.333-0.069,0.257,0.413c-0.047,0.3,0.023,0.451-0.208,0.602c0.294-0.015-0.066,0.084-0.119,0.07
		c0.147,0.095,0.028,0.066-0.056,0.158c0.331,0.279,0.065,0.554,0.059,1.054c-0.003,0.318,0.167,2.161-0.056,2.268
		c0.093-0.02,0.259,2.746,0.355,3.151c0.152,0.644,1.431,0.352,1.404-0.312c-0.038-0.917-0.193-1.904-0.183-2.814
		c-0.088-0.962,0.099-1.938,0.12-2.898c0.022-0.989,0.174-2.405,0.505-3.337c0.229-0.645,0.067-0.89,0.203-1.438
		C17.218,27.436,17.392,27.201,17.41,26.941C17.382,26.894,17.401,27.067,17.41,26.941z M17.309,27.092l0,0.003
		C17.349,27.106,17.335,27.098,17.309,27.092z M15.799,28.377C15.826,28.376,15.626,28.379,15.799,28.377L15.799,28.377z
		 M16.017,27.385c0.007-0.016,0.008-0.031-0.002-0.045C15.99,27.382,15.999,27.387,16.017,27.385z M17.331,26.71
		C17.354,26.657,17.173,26.795,17.331,26.71C17.34,26.688,17.318,26.717,17.331,26.71z M37.649,10.814
		C37.648,10.814,37.634,10.824,37.649,10.814L37.649,10.814z M35.139,7.708C35.138,7.708,35.145,7.691,35.139,7.708L35.139,7.708z
		 M36.136,5.922C36.136,5.921,36.129,5.906,36.136,5.922L36.136,5.922z M39.426,7.601C39.426,7.606,39.457,7.63,39.426,7.601
		C39.426,7.603,39.426,7.601,39.426,7.601z M39.424,8.267c-0.006,0.037-0.02-0.007-0.019,0.029
		C39.412,8.291,39.421,8.319,39.424,8.267z M38.269,8.314C38.269,8.314,38.269,8.316,38.269,8.314
		C38.269,8.314,38.269,8.314,38.269,8.314z M38.546,8.369C38.547,8.357,38.546,8.372,38.546,8.369
		C38.546,8.367,38.546,8.369,38.546,8.369z M38.083,8.399C38.083,8.399,38.084,8.401,38.083,8.399
		C38.083,8.399,38.083,8.399,38.083,8.399z M38.221,8.353C38.221,8.353,38.23,8.318,38.221,8.353
		C38.222,8.35,38.221,8.353,38.221,8.353z M38.555,8.378C38.568,8.353,38.507,8.464,38.555,8.378L38.555,8.378z M39.313,8.196
		C39.299,8.195,39.301,8.196,39.313,8.196L39.313,8.196z M39.277,8.296C39.274,8.291,39.266,8.332,39.277,8.296
		C39.276,8.295,39.277,8.296,39.277,8.296z M39.405,8.296C39.4,8.301,39.405,8.336,39.405,8.296
		C39.403,8.298,39.405,8.301,39.405,8.296z M40.459,55.297C40.434,55.331,40.407,55.374,40.459,55.297
		C40.451,55.307,40.459,55.297,40.459,55.297z M44.306,57.715C44.298,57.724,44.291,57.737,44.306,57.715
		C44.302,57.72,44.306,57.715,44.306,57.715z M44.296,57.692C44.235,57.802,44.281,57.703,44.296,57.692
		C44.285,57.713,44.28,57.703,44.296,57.692z M39.555,54.653C39.562,54.648,39.633,54.603,39.555,54.653L39.555,54.653z
		 M39.009,54.259C39.006,54.201,38.999,54.094,39.009,54.259L39.009,54.259z M43.8,59.029c0.527,0.65,1.343,0.15,2.002,0.339
		c0.729,0.208,0.79-1.229,0.344-1.301c-0.243-0.039-2.824-0.385-2.624-0.741c-0.318,0.363-1.97-1.334-2.214-0.962
		c-0.048-0.046-0.056-0.099-0.022-0.16c-0.306,0.028-0.069-0.12-0.099-0.092c0.055-0.397-0.171,0.038-0.103-0.216
		c-0.049,0.073-0.115,0.114-0.2,0.125c0.069-0.068-0.053-0.03-0.232-0.166c-0.424-0.324-0.325-0.151-0.217-0.551
		c-0.126,0.08-0.144,0.04-0.056-0.12c-0.193,0.374-1.193-0.892-1.322-0.962c0.179,0.096,0.203,0.201,0.071,0.315
		c-0.041-0.341-0.419-0.496-0.744-0.576c0.43-0.118,0.2-0.227,0.025-0.221c0.015-0.1,0.084-0.166,0.207-0.199
		c-0.089-0.052-0.17-0.113-0.243-0.186c0.032,0.002,0.063-0.002,0.094-0.011c-0.086-0.133-1.655-1.668-1.669-0.712
		c-0.007,0.458-0.303,1.079-0.528,1.476c-0.314,0.555-0.805,1.001-1.11,1.556c-0.137,0.25-1.459,1.031-1.467,1.006
		c-0.022,0.738-4.486,1.678-4.797,1.042c0.205,0.188-0.283-0.055-0.298-0.08c-0.006,0.125-0.069,0.187-0.19,0.184
		c0.075-0.162-0.595-0.12-0.796-0.161c-0.646-0.132-0.367-0.213-0.549-0.587c-0.124,0.1-0.187,0.053-0.189-0.14
		c0.03,0.434-0.823-0.253-0.935-0.318c-0.412-0.276-1.129-0.588-1.253-1.126c-0.002,0.255-0.298-0.152-0.329-0.208
		c0.086,0.157,0.2,0.37,0.331,0.495c-0.335,0.024-1.026-0.972-1.305-1.149c0.921-0.01-0.519-0.366,0.175-0.609
		c-0.084-0.095-0.335-0.304-0.307-0.447c0.033,0.019,0.068,0.028,0.108,0.029c-0.069-0.148-1.195-1.775-0.98-1.806
		c-0.132-0.279-0.4-0.45-0.544-0.73c-0.261,0.269-0.088,1.53-0.231,1.343c0.482,0.591,0.521,1.453,0.757,2.15
		c-0.467-0.278-0.034,0.418,0.037,0.577c0.203,0.457,0.494,0.871,0.826,1.243c0.694,0.776,1.562,1.389,2.461,1.904
		c2.025,1.161,4.09,1.397,6.35,0.858c1.272-0.304,2.024-0.683,2.974-1.49c1-0.849,2.33-1.533,2.53-2.996
		c0.566,0.968,1.541,1.977,2.423,2.657C40.544,57.75,43.015,59.392,43.8,59.029C44.218,59.546,43.383,59.222,43.8,59.029z
		 M38.714,53.87C38.601,53.906,38.672,53.883,38.714,53.87L38.714,53.87z M27.093,57.06C27.086,57.098,27.08,57.164,27.093,57.06
		C27.091,57.073,27.093,57.06,27.093,57.06z M35.029,55.737C35.034,55.763,35.032,55.753,35.029,55.737L35.029,55.737z
		 M34.994,55.743C35.049,55.898,34.993,55.75,34.994,55.743C35.003,55.768,34.988,55.771,34.994,55.743z M25.278,56.125
		C25.283,56.121,25.355,56.072,25.278,56.125L25.278,56.125z M22.328,51.813C22.394,51.743,22.331,51.8,22.328,51.813
		C22.328,51.813,22.331,51.801,22.328,51.813z M24.311,55.361c0.085-0.05,0.062-0.105-0.071-0.164
		C24.246,55.247,24.288,55.305,24.311,55.361z M21.695,52.234l0-0.006C21.668,52.228,21.653,52.239,21.695,52.234z M23.766,54.616
		C23.631,54.628,23.722,54.62,23.766,54.616L23.766,54.616z M23.063,53.015c-0.008,0.021-0.005,0.046,0.004,0.072
		C23.086,53.093,23.095,53.086,23.063,53.015z M21.704,51.486C21.838,51.711,21.696,51.421,21.704,51.486
		C21.716,51.505,21.699,51.439,21.704,51.486z"/>
</g>
<g id="Layer_1">
</g>
</svg>
