<?xml version="1.0" encoding="iso-8859-1"?>
<!-- Generator: Adobe Illustrator 17.1.0, SVG Export Plug-In . SVG Version: 6.00 Build 0)  -->
<!DOCTYPE svg PUBLIC "-//W3C//DTD SVG 1.1//EN" "http://www.w3.org/Graphics/SVG/1.1/DTD/svg11.dtd">
<svg version="1.1" xmlns="http://www.w3.org/2000/svg" xmlns:xlink="http://www.w3.org/1999/xlink" x="0px" y="0px"
	 viewBox="0 0 85.735 99.17" style="enable-background:new 0 0 85.735 99.17;" xml:space="preserve">
<g id="biceps_x5F_big">
	<path style="fill:#F7A13A;" d="M12.001,94.642c13.635,4.556,28.768,6.306,42.756,2.266c3.471-1.003,6.834-2.314,10.476-2.543
		c3.582-0.225,7.239-0.096,10.708-1.165c4.364-1.344,10.258-4.245,9.765-9.686c-2.63,2.487-5.32,5.159-8.703,6.6
		c-3.81,1.622-7.825,1.213-11.846,1.165c-3.9-0.046-7.444,1.654-11.149,2.673c-1.449,0.399-2.845,0.663-4.319,0.895
		c-0.504,0.079-1.109,0.168-1.525,0.491c-0.385,0.299-0.375,0.16-0.929,0.258c0.254-0.064-0.375,0.235-0.428,0.255
		c-0.552,0.208-1.27,0.137-1.853,0.201c-1.539,0.169-3.09,0.21-4.637,0.176c-3.345-0.074-6.723-0.091-10.01-0.8
		c-0.027-0.003-0.529,0.345-0.737-0.039c0.021-0.139,0.12-0.189,0.297-0.15c-1.356,0.186-2.676-0.215-4.022-0.287
		c0.49,0.249-0.012-0.256-0.12-0.306c-0.269-0.125-0.567-0.188-0.857-0.236c-0.606-0.099-1.22-0.108-1.829-0.182
		c-2.012-0.243-4.049-0.794-6.02-1.258c-3.69-0.868-7.474-2.002-10.666-4.111C4.818,87.846,4.006,86.579,4,84.71
		c-0.007-2.046,0.05-3.872-0.328-5.903c-0.371-1.994-0.521-3.944-0.358-5.97c0.106-1.317,0.059-2.716,0.656-3.887
		C3.723,69.109,3.875,68,3.904,67.88c0.104-0.417,0.136-0.871,0.393-1.235c0.045-0.063,0.345-0.463,0.192-0.186
		c0.085-0.638,0.401-1.236,0.359-1.892c-0.056,0.172-0.132,0.334-0.23,0.486c0.24-0.553-0.104-2.22,0.913-2.103
		c-0.127,0.305-0.253,0.61-0.38,0.915c0.609-1.299,0.661-2.796,1.378-4.052c-0.476,0.378-0.04-1.852,0.19-1.313
		c0.349-2.111,1.116-4.095,1.916-6.098c0.546-1.366,1.042-2.742,1.623-4.096c0.635-1.48,0.967-3.116,1.796-4.507
		c-0.094,0.392,1.259-1.081,1.4-1.517c-0.172,0.443-0.163-0.028-0.144-0.136c0.084-0.486,0.51-0.785,0.804-1.138
		c-0.11,0.438-0.262-0.144-0.283-0.255c-0.108-0.555,0.192-1.129,0.415-1.623c0.678-1.499,1.494-2.949,2.285-4.391
		c1.577-2.875,3.274-5.682,4.786-8.593c1.214-2.338,2.718-4.698,4.157-6.903c0.342-0.523,0.703-1.034,1.098-1.519
		c0.288-0.354,1.249-0.974,1.309-1.377c0.186-1.235,1.213-1.676,2.052-2.47c-0.719,0.261-1.122,0.951-1.584,1.509
		c-0.739,0.892-1.52,1.751-2.201,2.689c-0.841-0.626,6.313-6.75,6.805-7.193c-0.31,0.239-0.62,0.477-0.93,0.716
		c0.78-0.832,1.809-1.359,2.68-2.082c1.191-0.989,2.389-1.97,3.637-2.887c-0.33,0.408-0.657,0.818-0.98,1.232
		c1.6-1.056,3.274-1.992,5.086-2.633c1.771-0.627,3.418-1.944,5.301-2.189c-0.027,0.285-0.453,0.247-0.628,0.339
		c0.863-0.264,1.704-0.635,2.612-0.723c0.971-0.094,2.077,0.476,2.976-0.101c-0.111-0.108-0.244-0.159-0.398-0.152
		c0.098-0.256,1.166,0.075,1.303,0.22c-0.093,0.043-0.184,0.09-0.272,0.142c0.105,0.309,0.601,0.34,0.856,0.417
		c0.733,0.22,1.28,0.851,1.812,1.362c1.069,1.028,2.168,2.021,3.259,3.025c1.027,0.945,1.959,1.98,2.68,3.18
		c0.348,0.579,0.663,1.224,0.662,1.916c-0.001,0.473-0.619,0.686-0.547,1.176c-0.055-0.373,0.396-0.494,0.533-0.773
		c-0.056,1.485-1.543,2.231-2.397,3.242c-0.518-1.056-1.864-1.085-2.724-1.718c-0.584-0.43-0.993-1.054-1.586-1.471
		c-0.396-0.278-0.909-0.175-0.943-0.721c0.177,0.689,2.619,0.076,2.941-0.318c0.015,0.143,0.09,0.24,0.226,0.29
		c-0.044-0.376,0.346-0.037,0.413-0.33c0.074,0.538,0.166-0.252,0.195,0.342c0.139-0.34,0.829-0.611,0.808-0.189
		c0.011-0.133,0.215-0.416,0.182-0.001c0.025-0.155,0.118-0.201,0.279-0.138c-0.03-0.049-0.076-0.073-0.138-0.07
		c0.02,0.365,0.603,0.084,0.194-0.254c-0.408-0.338-1.071-0.411-1.573-0.489c-1.17-0.18-2.389-0.262-3.574-0.229
		c0.899-0.62,1.349-1.755,2.385-2.198c-0.39-0.39-0.78-0.78-1.17-1.17c-0.37,0.611-0.764,1.218-1.277,1.721
		c-0.41,0.401-1.031,0.415-1.47,0.767c-1.055,0.845,0.321,2.497,0.84,3.236c0.841,1.198,1.888,2.01,3.178,2.692
		c0.38,0.201,2.174,1.009,1.639,1.643c0.118-0.118,0.253-0.213,0.403-0.285c0.161,0.497,0.763,3.05,1.422,2.692
		c0.074,0.215,0.012,0.377-0.188,0.487c0.201-0.026,0.402-0.054,0.603-0.084c-0.113,0.092-0.786,0.783-0.934,0.56
		c-0.004-0.005,0.474-0.045,0.549-0.036c-0.304-0.034-0.48,0.095-0.786,0.042c0.201,0.318-0.35,0.363-0.194,0.67
		c-0.412-0.055-0.057-0.426,0.015-0.606c-0.115,0.113-0.297,0.369-0.393,0.051c0.127,1.211-2.766,0.561-2.214-0.109
		c-0.451,0.661-3.203,0.321-2.767-0.569c-0.36,0.344-1.626-0.11-1.966-0.243c-0.8-0.315-1.649-0.551-2.487-0.252
		c-0.76,0.272-3.184,1.761-3.768,0.611c0.042,0.183-3.435,0.24-3.813,0.159c-0.9-0.193-4.191-1.33-4.298,0.366
		c-1.505-1.395-4.769,6.185-5.197,7.139c-1.08,2.409-1.96,4.833-2.517,7.422c-0.367,1.705-0.875,3.503-0.959,5.249
		c-0.027,0.568,0.6,2.576-0.169,2.789c0.422,0.179,0.377,0.932,0.062,1.183c0.402-0.076-0.055,1.563-0.074,1.559
		c0.081-0.367,0.052-0.38-0.087-0.04c-0.038,0.264,0.123,0.567-0.097,0.792c0.325-0.109,0.506,1.192,0.519,1.508
		c0.042,1.053,0.35,2.656-0.574,3.383c0.295-0.253,0.596,2.462,0.612,2.729c0.101,1.613,0.495,3.198,0.606,4.756
		c0.198-0.441,0.08-0.923,0.033-1.378c0.913,0.229,0.178,1.767,0.432,2.36c-0.04-0.494,0.063,0.055,0.077,0.166
		c0.064,0.51,0.326,0.96,0.563,1.405c-0.184-0.11-0.37-0.214-0.56-0.313c0.05,0.346,0.616,1.241,0.028,1.421
		c-0.571,0.175,0.172,0.951,0.041,1.295c-0.156-0.189-0.06,0.064-0.047,0.113c-0.012-0.067-0.042-0.12-0.09-0.159
		c0.033,0.867,0.747,1.698,0.828,2.588c0.113,1.251-1.549,2.519,0.155,3.403c1.314,0.681,2.164-0.943,2.762-1.813
		c0.807-1.174,2.231-2.096,3.448-2.801c2.436-1.412,4.723-1.858,7.499-1.799c1.083,0.023,4.862-0.319,5.201,1.179
		c0.114-0.465,1.354,0.765,1.345,0.973c0.177-0.266,0.303,0.018,0.332,0.176c-0.064-0.73,2.083,1.155,2.485,1.122
		c0.93-0.077,0.842-2.036,1.513-2.5c0.386,0.748,0.625-0.431,1.098-0.309c-0.488-0.056,0.771-1.667,0.919-1.831
		c0.16-0.177,0.33-0.139,0.536-0.191c0.34-0.087,0.453-0.692,0.61-0.94c0.318-0.504,0.888-1.23,1.579-1.063
		c-0.289-0.036,0.367-0.557,0.44-0.607c-0.395,0.06-0.715,0.314-1.026,0.543c-0.253-0.75,0.941-0.594,1.27-0.883
		c0.02-0.017,0.221-0.355,0.111-0.297c0.331-0.489,0.884-0.755,1.24-1.221c-0.024,0.209-0.042,0.418-0.054,0.628
		c0.218-0.192,0.466-0.331,0.744-0.416c0.293-0.039,0.542,0.235,0.818,0.017c0.113-0.09,0.686-0.611,0.584-0.124
		c1.838-0.812,3.53-1.905,5.289-2.865c-0.474-0.463-1.221-0.34-1.816-0.336c-0.115,0.001-0.953-0.154-0.864-0.214
		c-0.702,0.474-1.496,0.478-2.291,0.658c-0.567,0.128-1.564,0.724-2.108,0.607c-0.99-0.214-2.291,0.417-3.07,0.926
		c-1.46,0.953-2.847,2.197-3.939,3.554c-0.999,1.24-2.104,3.111-3.897,2.178c-1.474-0.767-2.529-1.533-4.239-1.801
		c-1.873-0.294-3.802-0.182-5.662,0.152c-3.252,0.583-7.191,1.672-9.271,4.439c0.082-0.824-0.138-1.639-0.098-2.463
		c0.105,0.194,0.327-1.206,0.323-1.425c-0.029-1.732-0.44-3.437-0.584-5.161c-0.28-3.356-0.314-6.725-0.354-10.091
		c-0.04-3.344,0.233-6.697,0.935-9.969c0.737-3.432,2.213-6.609,3.483-9.862c0.422-1.081,0.637-2.701,1.722-3.356
		c1.115-0.673,2.516,0.178,3.64,0.379c3.199,0.572,6.375-0.893,9.582-0.252c2.769,0.554,5.664,2.15,8.458,0.797
		c1.257-0.609,2.392-1.727,2.91-3.038c0.211-0.534,0.231-1.034,0.007-1.558c-0.071-0.167-0.681-1.104-0.507-0.202
		c-0.34-0.669-0.697-1.35-1.244-1.877c-0.179-0.452-0.797-0.589-0.836-1.119c-0.039,0.236-0.317,0.045-0.161-0.206
		c0.237-0.38,0.654-0.672,1.004-0.938c0.86-0.654,1.584-0.95,1.951-2.048c0.965-2.89-2.076-5.472-3.656-7.478
		c0.318,0.262,0.63,0.53,0.939,0.803c-1.325-1.138-2.632-2.298-3.868-3.533c-0.945-0.945-1.845-2.036-3.133-2.521
		c0.345,0.018-0.807-0.191-0.963-0.246c-1.242-0.443-2.612-0.33-3.888-0.112c-2.548,0.435-4.899,1.494-7.241,2.545
		c0.456-0.301,0.907-0.609,1.375-0.891c-3.937,1.182-7.347,3.575-10.624,5.982c-3.274,2.405-6.191,5.289-8.656,8.517
		c-5.157,6.755-8.861,14.454-12.455,22.112C7.71,46.406,4.171,54.515,2.074,63.07c-1.033,4.214-2.157,8.483-2.069,12.857
		c0.041,2.042,0.681,4.006,0.872,6.031c0.19,2.008-0.311,4.125,0.501,6.044c0.887,2.096,2.947,3.357,4.88,4.366
		c2.424,1.265,4.958,2.393,7.658,2.909c-0.834-0.159-1.924-0.062-2.485-0.838c0.712,0.986,2.177,0.824,3.224,1.084
		c-1.043-0.26-2.355-0.194-3.139-1.054c0.727,0.797,1.943,0.744,2.91,0.978c-0.919-0.222-2.345-0.077-2.933-0.986
		c0.47,0.727,2.073,0.988,2.865,0.963c-0.657,0.02-2.571-0.275-2.872-0.966c0.321,0.737,2.56,0.693,3.227,1.084
		c-0.971-0.568-2.316-0.314-3.191-1.071c0.53,0.458,1.771,0.604,2.441,0.827c0.721,0.241,1.442,0.481,2.163,0.721
		c0.356,0.118,1.031,0.503,1.419,0.468c-0.789,0.072-2.2-0.745-2.943-0.994c-0.881-0.295-2.114-0.474-2.907-0.961
		C11.781,94.585,11.905,94.609,12.001,94.642C25.471,99.143,9.289,93.694,12.001,94.642z M56.447,9.507
		C56.445,9.507,56.446,9.506,56.447,9.507C56.446,9.507,56.446,9.507,56.447,9.507z M53.487,10.263
		C53.402,10.185,53.541,10.212,53.487,10.263C53.481,10.258,53.499,10.252,53.487,10.263z M53.535,10.217
		C53.538,10.2,53.548,10.205,53.535,10.217C53.535,10.217,53.538,10.214,53.535,10.217z M53.584,10.17
		C53.526,10.143,53.715,10.051,53.584,10.17C53.564,10.161,53.602,10.154,53.584,10.17z M54.602,10.818
		C54.613,10.821,54.64,10.883,54.602,10.818C54.606,10.819,54.607,10.826,54.602,10.818z M54.642,10.8
		C54.64,10.798,54.683,10.764,54.642,10.8C54.641,10.799,54.642,10.8,54.642,10.8z M26.527,41.258
		c-0.782,0.233-0.52,1.537-0.461,2.114c0.117,1.146-0.264,2.213-0.539,3.318c-0.792,3.178-0.61,6.197-0.41,9.425
		c0.06,0.965,0.092,2.407-1.003,2.828c-0.957,0.368-1.649-0.425-1.741-1.302c-0.04-0.383-0.347-3.975-0.709-3.913
		c0.621-0.229-0.09-3.781,0.257-4.351c0.178-0.292-0.335-1.102,0.216-1.089c0.371,0.009,0.012-1.461-0.282-1.583
		c0.067,0.028,0.44-0.095,0.429-0.109c-0.171-0.08-0.351-0.116-0.54-0.108c0.499,0.226,0.783-0.517,0.643-0.851
		c-0.261-0.622,0.679-1.215,0.259-1.682c0.256,0.211,0.281-0.118,0.312-0.274c0.041,0.187-0.06,0.779,0.324,0.474
		c-0.668-0.281,0.314-0.735,0.518-0.928c-0.11,0.119-0.243,0.202-0.399,0.248c0.315-0.098,0.393-0.455,0.669-0.604
		c-0.188,0.05-0.367,0.028-0.537-0.068c0.018-0.178,0.108-0.303,0.272-0.375c-0.769,0.176-0.21-1.085,0.354-1.079
		c-0.378,0.092-0.224-0.028,0-0.149c0.417-0.333,0.825-0.874,1.386-0.966c0.836-0.136,1.09,0.992,0.776,1.082
		C26.84,41.168,25.996,41.295,26.527,41.258c-0.152,0.043-0.303,0.086-0.455,0.129C26.223,41.343,26.375,41.3,26.527,41.258
		c-0.13,0.046-0.262,0.083-0.396,0.109C26.245,41.313,26.4,41.267,26.527,41.258C25.555,41.547,26.393,41.267,26.527,41.258z
		 M64.9,89.734c0.295-0.973-2.452-1.375-3.011-1.611c-2.095-0.883-3.441-2.807-4.954-4.406c-2.736,4.714-8.413,7.306-13.775,6.635
		c-2.761-0.345-5.477-1.609-7.53-3.488c-1.055-0.966-2.074-2.232-2.398-3.656c-0.274-1.203-0.175-2.783-1.125-3.712
		c0.241,0.252,0.491-0.773,0.045-0.847c0.493,0.082,0.212-1.059,0.467-1.26c1.025,1.484,2.452,2.977,3.108,4.381
		c-0.163,0.059-0.301,0.154-0.414,0.285c0.256,0.151,0.359,0.438,0.547,0.652c-0.194,0.031-0.389,0.054-0.585,0.07
		c0.359,0.173,1.75,1.863,2.118,1.607c-0.219-0.197-0.362-0.439-0.43-0.725c0.075,0.098,0.436,0.634,0.502,0.236
		c-0.225,0.747,1.791,1.029,1.616,1.406c0.534-0.073,0.236,0.732,0.675,0.817c0.392-0.343,0.746,0.411,0.99-0.231
		c-0.018,0.047-0.165,0.575-0.11,0.556c0.121-0.097,0.223-0.211,0.306-0.342c-0.559,0.484,2.279,2.064,2.292,0.864
		c0.055,0.149,1.303,0.911,1.267,0.358c0.582,0.954,2.502-0.424,3.252-0.499c0.733-0.073,3.042-0.02,2.932-1.211
		c0.201,0.539,1.609-0.97,1.805-1.171c0.901-0.922,1.779-1.913,2.306-3.103c0.288-0.651,0.817-2.426,1.843-2.086
		c0.878,0.291,1.144,1.404,1.948,1.779c-0.149,0.076-0.285,0.17-0.407,0.284c0.153,0.062,0.286,0.152,0.398,0.273
		c-0.171,0.069-0.344,0.13-0.521,0.181c0.181,0.02,0.716-0.094,0.58,0.281c0.162-0.074,0.333-0.108,0.511-0.1
		c-0.07,0.2,0.178,0.393,0.002,0.577c0.35,0.015,0.235-0.35,0.154-0.526c0.052,0.292,0.168,0.319,0.347,0.079
		c-0.201,0.419,1.363,1.852,1.711,1.25c-0.549,0.594,0.341,1.496,0.804,1.169c0.38-0.269,0.261,1.02,0.632,0.503
		c-0.242,0.409,0.565,0.043,0.365,0.332c0.836-0.729,2.053,2.216,2.779,1.21c-0.025,0.05,1.369,0.898,1.587,0.965
		c0.993,0.306,2.305-0.132,2.644,1.195c0.345,1.351-0.66,1.966-1.869,1.776c-0.598-0.094-1.178-0.271-1.777-0.369
		c-0.349-0.057-0.701-0.115-1.04-0.217c-0.089-0.027-0.942-0.478-0.249-0.256c-0.932,0.49-0.041-0.306,0.034-0.113
		C65.192,89.674,65.068,89.744,64.9,89.734c0.036-0.117,0.176-0.395,0.353-0.281C65.425,89.564,64.953,89.721,64.9,89.734
		c0.032-0.106,0.188-0.443,0.361-0.307C65.438,89.567,64.967,89.718,64.9,89.734c0.008-0.027,0.2-0.536,0.374-0.352
		C65.447,89.567,64.926,89.728,64.9,89.734C65.163,88.866,65.668,89.552,64.9,89.734z"/>
</g>
<g id="Layer_1">
</g>
</svg>
