<?xml version="1.0" encoding="utf-8"?>
<!-- Generator: Adobe Illustrator 17.1.0, SVG Export Plug-In . SVG Version: 6.00 Build 0)  -->
<!DOCTYPE svg PUBLIC "-//W3C//DTD SVG 1.1//EN" "http://www.w3.org/Graphics/SVG/1.1/DTD/svg11.dtd">
<svg version="1.1" id="Layer_1" xmlns="http://www.w3.org/2000/svg" xmlns:xlink="http://www.w3.org/1999/xlink" x="0px" y="0px"
	 viewBox="0 0 146 115.9" enable-background="new 0 0 146 115.9" xml:space="preserve">
<g id="blob.svg">
	<g>
		<path fill="#F6931D" d="M28.8,74.4c0,0.4,0,0.9,0,1.3C29.3,75.4,29.7,74.3,28.8,74.4z M33.2,72.6C33.2,72.6,33.2,72.6,33.2,72.6
			c1.5-0.1,1-1.9-0.2-1.9c-0.7,0-0.8,0.6-0.8,1.1C32.5,72.1,32.6,72.5,33.2,72.6z M33.7,71.4c0.2,0.5-0.6,1.2-1,0.6
			C32.1,71.3,33.4,70.4,33.7,71.4z M107.9,12.3C107.9,12.3,108,12.3,107.9,12.3c0.1-0.5,0.5-1.1-0.3-1.1
			C106.9,11.4,107.2,12.8,107.9,12.3z M113.8,18.6c0.1-0.2,0.5-0.3,0.5-0.7c-0.2-0.7-0.6-0.2-0.9-0.2
			C113,18.1,113.3,18.6,113.8,18.6z M110.5,13.6c0-0.3,0.3-1.3-0.5-0.8C109.3,13.2,110,14.3,110.5,13.6z M67.3,9.9
			c0.1-0.1,0.4-1.3-0.3-0.8C66.6,9.4,66.7,10,67.3,9.9z M70.8,9.7c0.4,0,0.7-0.6,0.3-0.8C70.6,8.8,70.4,9.4,70.8,9.7
			C70.7,9.7,70.6,9.6,70.8,9.7z M69.8,1.5c0.1-0.2,0-0.7-0.4-0.5C68.8,1.4,69.5,2.1,69.8,1.5z M69.8,1.5C69.7,1.8,69.9,1.3,69.8,1.5
			L69.8,1.5z M72.2,4.7c0.2-0.4-0.2-0.7-0.6-0.4C71.3,4.7,71.9,5.2,72.2,4.7z M72.2,4.7C72.1,4.8,72.3,4.5,72.2,4.7L72.2,4.7z
			 M68.2,0.5C68.1,0.6,68.1,0.7,68.2,0.5c0-0.5-0.3-0.7-0.5-0.2C67.4,0.8,67.9,0.9,68.2,0.5z M72.4,0.2c-0.2-0.3-0.5,0.2-0.4,0.4
			C72,0.8,72.8,0.6,72.4,0.2z M72.4,0.2C72.5,0.3,72.3,0.1,72.4,0.2L72.4,0.2z M127.7,66.9C127.5,67.9,129,66.7,127.7,66.9
			L127.7,66.9z M65.2,8.4C65.2,8.4,65.2,8.4,65.2,8.4C64.6,7.3,64.8,9.2,65.2,8.4z M72.2,1c0-0.3-0.5,0-0.4,0.3
			C71.9,1.6,72.2,1.2,72.2,1z M125.9,68.9c0,0.3,0.5,0.3,0.5,0C126.4,68.6,125.9,68.6,125.9,68.9z M47.9,112.2c0,0,0,0.1,0.1,0.1
			c0-0.2,0-0.5,0-0.7C47.7,111.7,47.8,112,47.9,112.2z M111.2,29.1c0,1.2,1.5,0.8,1.6-0.2C112.8,27.8,111.2,28.2,111.2,29.1
			C111.2,29,111.2,28.9,111.2,29.1C111.2,29.4,111.2,29.3,111.2,29.1z M121.1,33c0-1.1-1.6-0.7-1.5,0.2
			C119.6,34.3,121.1,34,121.1,33z M119.6,33.3C119.6,32.8,119.6,33.6,119.6,33.3L119.6,33.3z M106.1,25.5
			C105.9,25.7,106.1,25.4,106.1,25.5L106.1,25.5z M107.1,25.5c-0.2-0.8-0.7-0.8-1-0.1C105.7,26.4,107,26.6,107.1,25.5z M117.7,65.4
			C117.7,65.1,117.7,65.8,117.7,65.4L117.7,65.4z M119,65.5c0-0.7-1.2-0.8-1.2,0C117.7,66.2,119,66.3,119,65.5z M112.2,25.9
			c0.7,0,0.8-1.2,0.1-1.2c0,0,0,0,0.1,0c0,0,0,0-0.1,0c-0.2,0-0.1,0,0,0C111.6,24.8,111.4,25.9,112.2,25.9z M122.7,59.9
			c-0.3-0.2-0.9-0.8-1.3-0.6c-0.1,0-0.2,0-0.3,0c0.6-0.1,0,0.3,0.3,0.6c0.2,0.3,0.6,0.1,0.7-0.2c0.4,0.4,0.7,1,0.7,1.5
			C123,60.7,123.2,60.2,122.7,59.9z M121.3,59.2C121.4,59.2,121.2,59.2,121.3,59.2L121.3,59.2z M120.4,67.6c0,0.4,0.7,0.4,0.7,0
			C121,67.1,120.3,67.1,120.4,67.6z M107,33.3c0,0.5,0.5,0.6,0.6,0.1C107.5,33,107.2,33.1,107,33.3z M119.4,63c0-0.3-0.6-0.3-0.6,0
			c0,0,0-0.1,0,0c0,0.1,0,0,0,0C118.9,63.3,119.4,63.3,119.4,63z M118.4,75c-0.1-0.3-0.5-0.1-0.4,0.1
			C118.2,75.4,118.4,75.2,118.4,75z M118,75.1C118,75,118.1,75.2,118,75.1L118,75.1z M119.9,71.4c-0.2,0.3,0.4,0.5,0.3,0.1
			C120.3,71.4,120,71.2,119.9,71.4z M114.1,71.9c0,0.5,0.8,0.5,0.9,0C114.9,71.4,114,71.4,114.1,71.9z M113.8,68.5
			c0,0.3,0.6,0.5,0.6,0.1C114.4,68.2,113.8,68.1,113.8,68.5z M30,41.2l-0.8,0.1c0,0.1,0.1,0.3,0.1,0.4C29.5,41.6,29.8,41.4,30,41.2z
			 M24.5,67.3c0.1,0,0.2-0.1,0.3-0.1C24.8,67.2,24.6,67.3,24.5,67.3z M124.7,49.6c0.1-0.6,1-1.7,0.1-1.8c-0.5-0.1-0.8,0.6-1,0.8
			c-0.9,1-1.8-0.2-2.2-1c-0.5-1.4-0.8-2.8-1.4-4.1c-0.3-0.6-0.7-1.2-1.3-1.7c-0.6-0.5-1.3-0.6-1.3-1.6c0.1-1.3,2.1-1.7,3-2.4
			c1-0.8,2.4,4.6,2.8,5.2c0.1-1.4-0.3-3.8,1.2-4.6c0.9-0.5,1.9-0.3,2.8-0.6c0.4-0.1,0.7-0.4,0.8-0.8c0.4-1.3-0.7-0.8-1.4-1.5
			c0.9,1,0.3,2-0.9,1.1c-0.5-0.4-0.8-1.4-1.3-1.8c1.2-0.3,3.1,1.3,4,0.5c-0.9-0.4-1.8-0.7-2.7-1.1c3.9,0.4,8.4-0.3,12.1-1.6
			c-4.2-0.1-8.7-0.1-12.7,1.5c-0.9,0.4-1.9,0.8-2.5,1.5c-0.5,0.6-1.1,1.1-1.8,1.3c-1.4,0.3-2.8-0.9-3.8-1.7
			c-0.6-0.5-1.2-0.9-1.8-1.3c-0.3-0.2-0.5-0.3-0.8-0.4c-0.7-0.3-0.5,0-0.9,0.5c-0.4,0.7-1.1,1.1-1.8,1.2c-0.5,0.1-0.9,0-1.4-0.1
			c-0.3-0.1-0.5-0.7-0.9-0.5c-1-2.3,3.4-1.9,2-4.1c-1.3,0.9-2.5,1.9-3.6,2.9c-0.4,0.4-0.5,0.7-1.1,0.6l-1.4-0.1c0,0-0.4-1.4-0.5-1.6
			c-0.5-1,0-0.4,0.3-1.1c1.4-0.6,0.6-2,0.3-3.1c-0.7-3-1.3-6.1-2.8-8.8c-0.6-1.2-2.3-1.3-3.3-2.2c-1-0.9-1.5-2.2-1.6-3.5
			c-1.5,1.6-4,0-4.4-1.8c-0.5,0.5-1,0.9-1.5,1.4c-0.6-2.7-4.2-0.9-5.3-3.4c-1,0.5-0.1,1.4-0.8,2c-0.4,0.4-2.3-0.6-3-0.7
			c-2.2-0.4-4.2-0.5-5.9-2.3c-0.1,0.6-0.2,1.3-0.3,1.9c-0.1,0.4-0.1,0.7-0.2,1.1c-0.1,0.5-1.1,0.3-1.5,0.3c-0.8,0.1-1.3,0.3-1.7-0.3
			c-0.5-0.2,0,0.3-0.8-0.2c-0.4-0.2-0.8-0.5-1.2-0.8c-1.4-0.9-2.8-2-3.9-3.3c-0.1,1.8,1.4,3.7-0.3,5.2c-2,0.1-3.8-1.1-5.7-1.7
			c-0.9-0.3-1.8-0.4-2.6-0.2c-0.7,0.2-1.6-1.4-2.1-2c-1-1.1-2.5-2.9-4.1-3c1.5,1.9,1.7,4.6,3.3,6.3c0.5,0.5,2.3,1.1,1.7,1.9
			c-0.3,0.4-0.8,0.7-1.2,0.8c-0.5,0.1-0.8,0.8-1.4,1.1c-1.7,0.9-3.4-1.3-4.5-2.2c-0.6-0.5-1.3-1-2.1-1c-1,1.2,0.2,2.7,1.3,3.4
			c-0.2-0.1-1.3,0.6-1,0.9c0.2,0.1,1.5-0.4,1-0.9c0.6,0.4,1.8,0.4,1.9,1.1c0.2,0.7-0.1,1.4-0.6,1.9c-0.4,0.5-1.6,0-2.3-0.1
			c-0.7-0.1-1.6-0.1-2.2,0.3c0.9,0.3,1.8,0.8,2.6,1.4c-0.3,0.3-0.6,0.7-0.7,1.2c-0.1,0.7-0.8,0.3-1.4,0.2c-1.1-0.3-2.2-0.9-3.1-1.5
			c-0.2,0.4-0.4,1-0.2,1.4c-0.9-0.2-2.2,0-2.1,1.3c0.1,0.9-0.7,1.7,0.2,2.5c1.1,1,3.9,1.1,3.8,3c-1.9-0.8-3.1-0.3-3.8,1.6
			c-0.6,1.8-1.5,2.8-3.5,2.2c1,0.7,2.4,0.6,3.5,1c-2.3,1.2-4.7,2.4-6.8,3.9c-0.6,0.4-1.1,0.9-1.7,1.3c-0.7,0.7-0.8,0.9-0.9,1.9
			c-0.1,0.8-0.4,2.9-1.4,1.6c0,0.4,0.4,0.7,0.7,0.8c-0.7,1.2-1.8,2-3,2.5c0.8,0.4,0.3,0.9,0.1,1.6l-0.6,2c-1.1-0.6-2.3-1.3-3.5-1.3
			c-1.2,0-1.6,0.9-1.6,2c0,1.8,1.2,3.4,1.2,5.2c0,0.6-0.9,1.8,0.1,1.9c0.5,0.1,0.7-0.6,0.9-0.9c1.1-1.8,3.2,1.3,2.6,1.7
			c0.7,0.7,0.9,1.5,1.3,2.4c0.3,0.5,0.6,1,1,1.5c0.1,0.7,0.2,1.4,0.3,2.1c-0.8-0.3-1.8-0.3-2.6-0.2c-0.7,0.1-0.5-0.1-0.8-0.7
			c-0.2-0.4-0.4-0.8-0.7-1.1c0,0.5,0,1,0.1,1.5c0.1,1.1-0.5,0.9-1.4,1.6c-0.7,0.5-0.4,0.4-1.2,0.1c-0.5-0.1-0.8,0.1-1.1,0.4
			c-0.5,0.8-0.1,1.5,0.6,2c-0.5,0.2-1,0.4-1.2,1c-0.5,1.5,0.8,0.9,1.5,1.6c-1-1-0.5-2,0.8-1.2c0.6,0.4,0.9,1.4,1.5,1.7
			c-1.2,0.5-3.3-1-4.2,0c1,0.3,1.9,0.6,2.9,0.8c-4.1,0-8.6,1.3-12.3,3c3.2-0.3,6.4-0.6,9.5-1.6c1.5-0.5,2.9-1.1,4.3-1.9
			c0.8-0.5,1.3-1,1.8-1.8c0.4-0.5,0.9-1,1.6-1.2c-0.1,0.3,0.9-0.1,1.1,0c0.6,0.1,0.1,0.5,0.7,0.8c0.3,0,0.4-0.1,0.4-0.4
			c0.9,0.4,1.5,0.7,1.9,1.7c-0.7,0.1-1.5,0.1-2.2,0.2c0.3-0.4,0.5-0.7,0.8-1.1c-0.9,0.4-1.7-0.2-2,1c0.7,0.3,1.4,0.5,2.2,0.5
			c0.5,0,0.9,0,1.4-0.1c0.2,0.5,0.4,1,0.6,1.5c0.4,1.1,0.8,2,0.8,3c0,0.1,0.1,0.2,0.1,0.2c0.5,0.2,0.5,0.1,0.7,0.7
			c0.4,1,0.8,1.9,1.1,2.9c-3-0.4-5.5,2-7.5,3.9c-0.9,0.9-2.4,2-3,3c-0.7,1.2,0,2.3,1.3,2.3c-0.4,0.3-0.8,0.6-0.9,1.1
			c0.9,0.1,1.8-0.4,2.6-0.6c0.8-0.2,0.8-0.3,1.3-1c-0.4-0.2-0.8-0.2-1.2-0.2c1.3-1,2-2.6,3.1-3.8c0.6-0.7,1.1-0.9,2-1.1
			c1.1-0.1,2.2-0.4,3.2-0.8c0.2,1.1,0.4,2.1,0.4,3.2c1.1-1.2,1.3-3.5,3.2-3.7c1-0.1,0.6,0.6,0.4,1.2c-0.2,0.7-0.5,1.2-0.1,1.8
			c0.7,1.1,0.6,2.5-0.2,3.5c0.6-0.1,0.8,1.3,0.9,1.8c-0.7,0.1-2.5,0.2-2.4,1.2c0.1,0.7,0.6,1.3,1.2,1.7c0.5,0.4,1.2,0.8,1.5,1.5
			c0.1,0.2,0.1,0.9,0.5,0.5c0.2-0.2,0.1-0.5,0.1-0.7c0-1.5,3.9,0.9,4.3,1.4c0.3,0.4,2.1,2.5,0.8,2.4c-1.1-0.1-1.8-1.1-2.8-1.4
			c0.7,1,1.8,1.9,0.8,3.1c0.1-0.9-1.1-1.1-1.4-0.2c0,0.5,0.4,0.7,0.9,0.7c-0.2,0.3-0.4,0.7-0.2,1c0.3,0.6,0.6,0,1.1,0.1
			c-0.4-0.1-1.1-0.5-0.4-0.7c0.6-0.2,1.1,0.3,1.6,0.2c-0.4,0.6-1.9,0.6-2,1.3c0.5-0.2,1.1-0.4,1.6-0.5c-1.9,1.3-3.6,3.3-4.8,5.3
			c2.2-1.8,3.9-3.9,6-5.7c-0.4-0.1-1.3,1-1.6,1.2c0.4-0.6,0.8-1.3,1-2c0.2-0.7,0-1.4,0.5-2c0,0.2,0.4-0.3,0.5-0.4
			c0.7-0.3,1.5-0.4,2,0c1.5,1,3,1.9,4.5,3c-1.2,0.6-1.7,2-2,3.3c-0.2,0.9-1,3.1-0.4,3.9c1.1,1.4,1.8-1.3,1.9-2c0-0.7,0-1.4,0.2-2
			c0.2-0.7,1.3-1.3,1.7-2c0.4,0.4,0.9,0.9,1.2,1.4c0.2-1-0.5-2.2,0.5-2.9c1.1,0.1,2,0.9,3,1.3c0.4,0.2,0.9,0.3,1.4,0.3
			c0.6,0,0.8,0.7,1.2,1.2c0.5,0.7,1.2,1.8,2.1,2c-0.9-1.4-0.6-3.5-2.2-4.4c-0.8-0.5,0.9-1,1-1.2c0.5-0.5,1.1-0.4,1.6,0
			c0.4,0.3,2.4,2.9,2.6,1.4c0.1-0.7-0.6-1.4-1.1-1.8c-0.5-0.3-0.8-0.2-0.6-0.9c0.1-0.4,0.5-0.7,0.8-0.9c-0.1,0.7,0.5,1.8,1.3,1.8
			c1,0.1,1.9-1.3,2.1-2.2c0.7,0.5,0.7-0.3,0.4-0.8c-0.4-0.5-0.2-1.3-0.2-1.9c0.2,0.6,0.6,1.1,1.2,1.3c0.5,0.2,0.5,0,0.6-0.4
			c0.4,0,0.8-0.1,1.1-0.3c1.5-1,1.2-3.3-0.4-3.9c0.4-0.4,1-0.3,1.5-0.1c-0.6-0.5-1.5-0.5-2.2-0.9c0.6-0.6,0.9-1.2,1.8-1.4
			c0.6,0.6,1.2,1.3,1.7,2c0.1-0.5,0.1-1,0-1.5c-0.1-0.9-0.2-0.8,0.6-1.2c0.7-0.4,1.7-1.2,1.3-2.1c1.3,0.4,2.5,1.2,3.7,1.8
			c0.6,0.3,1.2,0.5,1.9,0.7c0.6,0.1,1.5-0.3,1.8,0.3c0.1,0.2,1,1.4,0.9,1.5c-0.2,0.3,0.8,1,1,1.3c0.7,0.9,1.7,2.2,2.9,2.4
			c-0.4-0.5-0.6-1.1-0.8-1.8c0.8,0.9,2.6,1.7,3.7,0.9c-0.5-0.6-2.6-1.7-3.3-1.5c-0.8,0.2-0.7-0.4-0.9-1.1c-0.3-1-0.6-1.9-1.1-2.8
			c0.6,0.2,0.3-0.4,0-0.6c0.2-0.2,0.7,0,0.7,0.3c0-0.8-0.9-0.9-1.2-0.2c-0.6-0.6-2-1.1-0.7-1.9c0.5-0.3,1-0.2,1.4-0.6
			c0.3-0.3,0.7-0.6,1.1-0.7c1.6-0.4,2.9,1.6,3.8,2.5c0.5,0.5,1.1,1.1,1.8,1.3c1.1,0.2,0.4-2.1,0.1-2.5c-0.3-0.5-0.8-0.9-1.2-1.2
			c-0.5-0.3-1.2-0.3-1.3-0.9c-0.1-1.2,0.7-1.9,1.7-2.4c0.5,1.1,1.4,2.9,2.8,2.2c1.2-0.6,1.8-1.9,2.2-3.1c0.4,0.3,0.7,0.5,1.1,0.8
			c0.5-0.7,0.5-1.5-0.2-2.1c-0.4-0.4-0.1-0.5,0.2-0.9c0.5-0.7,0.5-0.5,1.1-0.1c0.4,0.3,1.1,0.8,1.4,0.3c0.3-0.4,0.4-0.9,0.3-1.4
			c-0.5-1.7-3.9-1.6-3.6-3.7c1.7,0.9,2.9,0.7,3.8-1.1c0.8-1.6,1.7-2.6,3.6-1.8c-0.6-0.5-1.3-0.7-2-0.9c0.9-1.5,2.5-1,3.7-0.3
			c0.5,0.3,1.2,0.6,1.8,0.4c0.3-0.1,0.6-0.4,0.7-0.6c0.4-0.5-0.6-1-0.7-1.7c0.1,0.5-0.1,2.1-0.9,1.2c-0.6-0.7-0.6-1.6-0.5-2.4
			c0.1-1.1,1.1,0.2,1.4,0.6c0.4,0.6,0.9,1.6,1.7,1.5c-0.6-0.8-1.1-1.7-1.7-2.5c2.6,2.2,5.9,3.8,9.1,5c-1.4,0-1.1,1.9,0.1,2.1
			c0.9,0.1,2.1-0.8,1.1-1.7c0.3,0.1,0.7,0.2,1,0.3c-3.6-2.6-7.5-5.3-11.9-6.2c1.1-0.6,2.9-2,2.3-3.4c-0.3-0.7-0.8-1.3-0.3-2
			c0.5-0.7,1.3-1.1,2.2-1.3c0.7-0.1,1.4-0.1,2.2,0c0.7,0.1,0.7,0.2,0.9-0.4c0.4-0.8,0.7-1.7,1.1-2.5c1.6,1.1,4.6,3,5-0.2
			C125.5,53,124.5,51.4,124.7,49.6z M24.8,67.2c0,0-0.1,0-0.3,0.1c0.2-0.2,0.3-0.3,0.3-0.6c0.4,0,0.8-0.1,1.2-0.3
			C25.7,66.9,25.2,67.1,24.8,67.2z M30.4,65.8c-0.1,0.7-0.4,0.9-0.8,1.4c-0.1-0.1-0.2-0.1-0.2-0.1c-0.5-0.3-0.9-0.8-1.3-1.3
			c0.6-0.2,1.2,0,1.6-0.5c0.2-0.4,0.5-0.7,0.7-1.1C30.5,64.6,30.5,65.2,30.4,65.8z M46.2,25.4c-0.2,0.4-0.7,1.3-1.3,1.2
			c-0.3-0.7-0.7-1.4-1.4-2c0.3-0.1,0.8-1.2,0.7-1.7c0.4,0.3,0.8,0.6,1.2,0.9C46.2,24.3,46.7,24.6,46.2,25.4z M102.2,76
			c-0.1-0.3-0.4,0-0.2,0c-0.6,0.1-0.9-0.1-1.2-0.6C101.7,74.5,101.8,75.3,102.2,76z M105.7,68.4c-0.5-0.2-1.7-0.8-1.1-1.3
			c0.4-0.5,1-0.7,1.6-0.9C106.2,67,105.9,67.7,105.7,68.4z M29.4,67.1c0.1,0,0.1,0.1,0.2,0.1C29.8,67,29.2,66.9,29.4,67.1z
			 M105.7,68.4C105.9,67.7,105.2,68.2,105.7,68.4L105.7,68.4z M43.6,24.6C44.1,25.1,43.8,24.5,43.6,24.6L43.6,24.6z M16.6,101.9
			c-0.7,0.4-0.7,1.5-0.1,2.1c0.1,0,0.7-0.5,0.7-0.6c0.4-0.5,0-1.2-0.2-1.7C16.8,101.7,16.6,101.8,16.6,101.9z M114,25.3
			c3.1,1.4,6.2-1,8.5-2.8c0.9-0.7,2.7-1.7,3.2-2.7c0.6-1.3-0.2-2.1-1.6-2.1c-2.2,0.1-3.4,2.6-5,4c0,0.1-0.2,0.2-0.8,0.6
			c-1.4-0.1-2.9,0-4.2,0.5c-0.6,0.2-1.2,0.6-1.6,1.1C112,24.4,113.5,25.1,114,25.3z M118.2,22.3c0.3-0.1,0.6-0.3,0.8-0.6
			C119.1,21.5,116.7,22.2,118.2,22.3z M118.8,86.7c0.4-0.5-0.3-1.9-1-1.7C117.1,87.2,118.9,84.7,118.8,86.7z M119.4,88.8
			c0.1-0.1,0.1-0.2,0.2-0.4c-0.3,0-0.6,0-0.9-0.1C118.9,88.5,119.2,88.7,119.4,88.8z M131.5,62.2c-0.8-0.3-1.5,0.6-1.6,1.4
			c0.3,0,1.2,0.6,1.5,0.3c0.3-0.3-0.4-0.8-0.5-1c0.4-0.3,1.2,0,1.3,0.5C132,62.9,132,62.4,131.5,62.2z M136.3,66.5
			c0.2,0.1,0.5,0.1,0.7,0c0.5-0.3,0.2-0.4,0-0.8c-0.8-1.2-2.1-2.3-3.5-2.4c1,0.7,2,1.5,3,2.2l-1.3,0.3
			C135.6,65.9,135.9,66.2,136.3,66.5z M135.7,70.9c-0.5-0.2-0.7-0.6-1.2-0.5l-1.3,0.4c1,2,4.4,3.6,6.5,2.5c0.1,0,0.2-0.1,0.3-0.2
			c-0.1-0.1-0.2-0.2-0.3-0.3C138.6,71.8,137,71.6,135.7,70.9z M137.8,31.4c0,0.1,0,0.1,0,0.2l0.9,0.1
			C138.7,31.3,138.2,31.4,137.8,31.4z M142.7,30.6c0.2,0.2,2.2,0.1,3.3,0L142.7,30.6z M128.2,42.8c-0.3,0.1-0.6,0.2-0.9,0.3
			c1,0.9,2.3,2.3,3.7,1.6C129.9,45.1,127.5,44.2,128.2,42.8z M128.6,42.8c0.1,0.1,0.2,0.3,0.3,0.4c0.2-0.1,0.4-0.2,0.6-0.3
			C129.2,42.9,128.9,42.9,128.6,42.8z M132.1,25.5c0,0.1,0,0.2,0,0.3C132.2,25.8,132.2,25.7,132.1,25.5z M129.7,24.9
			C130.4,24.3,130.1,24.4,129.7,24.9L129.7,24.9z M132.1,25.5c0-0.6-0.1-1-0.7-1c-0.5,0-1.3-0.1-1.7,0.4
			C130.4,24.3,131.6,24.9,132.1,25.5z M131,43.5c0-0.1-0.1-0.1-0.4,0.4c1,0.1,2.2,0.1,1,1.2c0.4,0.5,1.7-0.5,1.4-1
			C132.3,44,131.6,43.3,131,43.5z M136.7,43.2c-0.2-0.2-0.3-0.2,0.3,0.4c0,0,0.1,0,0.1,0c1.1,0.4,2.2-0.5,1.5-1.5
			C138.2,41.5,136.2,42.2,136.7,43.2z M131,53.8c-1,0.3-2,0.6-3,0.9c0.8,0.1,1.6,0.1,2.4,0.2C129.9,54.7,130.8,54,131,53.8z
			 M131.1,54.9l-0.7,0C130.6,55,131,54.9,131.1,54.9z M135.9,55.3c-0.2,0.7,1,0.4,1.5,0.5C137.5,55.1,136.3,55.3,135.9,55.3z
			 M137.5,52.8c-0.4-0.5-1-0.5-1.5-0.1C136.5,53,137.1,53.3,137.5,52.8z M141.8,55.1c0.2,0.7-0.3,0.6-0.8,0.6
			c-0.6-0.1-1.2-0.1-1.8,0.2c1.1,0,2.2-0.1,3.3-0.1C142.1,55.7,141.8,55.5,141.8,55.1z M143.1,55.7l-0.6,0
			C142.7,55.8,142.9,55.8,143.1,55.7z M128.4,49.6c-0.3-1.4-1-0.9-1.8-0.7C127.5,49.4,128,50.5,128.4,49.6z M125.5,48.8
			c0.3,0.4,0.7,0.3,1.1,0.1C126.3,48.7,126,48.6,125.5,48.8z M139.2,50.8c0.8,0.1,1.5-0.6,1.4-1.5c0-0.1-0.8-0.1-0.9-0.1
			c-0.6,0.2-0.8,0.9-1,1.4C139.1,50.8,139.2,50.8,139.2,50.8z M5.9,43C5.8,43.3,6,42.7,5.9,43L5.9,43z M5.9,43
			c0.1-0.3,0-0.6-0.3-0.7c-0.2,0.4-0.5,0.7-0.7,1.1C5.4,43.5,5.7,43.5,5.9,43z M35,20.8c0.4-0.6-0.4-1.4-0.9-1.6
			c-0.4-0.2-1.1-0.3-1.5,0c-0.1,0.1-0.4,0.6-0.6,0.6C31,21.8,34.4,23,35,20.8z M35,20.8C34.8,21.6,35.1,20.7,35,20.8L35,20.8z
			 M20,41.6C20,41.7,20.2,41.3,20,41.6L20,41.6z M19.6,43.4c0,0.2,1.4-0.3,1.6-0.5c0.5,0.3,0.5-2.5,0.5-2.5
			c-0.1,0.1-0.2,0.3-0.2,0.4c-0.1-0.2-1.4-0.4-1.3-0.6c-0.3-0.3-0.8,0.7-1.1,0.4c-0.2,0.3-0.2,0.8-0.4,1.1c-0.1,0.3,0,0.2,0,0.1
			C18.6,42.6,19.6,42.8,19.6,43.4z M20.6,40.7c0.2,0.5-0.2,0.3-0.3,0.6c0,0.1,0,0.2,0.1,0.3c0.1,0.2-0.4,0-0.3,0
			c0.1-0.3-0.1-0.6-0.2-0.9C20.1,40.7,20.3,40.7,20.6,40.7z M12,43c0,0,0,0,0-0.3c-0.2-0.3-0.2-0.7-0.4-0.9c0.6,0.3,1.3,0.6,2,0.6
			c-0.6,0.7,1.5,2,1.8,0.5c0.8,1.5,2.5-1.2,1.7-1.3c-0.3,0-1.1-0.4-1.4-0.1c-0.2,0.3,0.5,0.8,0.6,1c-1,1-1.6-2-2.8-0.1
			c-1.1-0.6-2.2-1.3-3.2-1.9c0.4-0.1,0.9-0.3,1.3-0.4c-0.5-0.1-0.8-0.4-1.3-0.6C10,39.1,9.2,39.5,9.6,40c0.4,0.6,1,1.1,1.6,1.6
			c-0.1,0-0.1,0-0.2-0.1c-0.7-0.1-0.9,0.5-1.1,0.9c0.3,0.4,0.3,0.8,0.7,1.1C11.4,43.5,11.8,43.6,12,43z M11.6,42.1
			c0.1,0.2,0,0.9-0.2,0.9c0,0-0.8,0-0.8,0C9.8,42.3,11.2,41.4,11.6,42.1z M18.3,67.7C18.2,67.9,18.4,67.6,18.3,67.7L18.3,67.7z
			 M17.5,67.2c-0.3,0.7,0.4,1.1,0.8,0.5C18.7,67.1,17.7,67.2,17.5,67.2z M11.2,38.4c-0.4,0.3,0,1,0.5,0.8c0.1-0.2,0.1-0.1,0,0
			C11.9,38.8,11.7,38.1,11.2,38.4z M76.5,9.7c0.3-0.5,0-0.9-0.6-0.4C75.6,9.7,76.3,10.2,76.5,9.7z M83.2,4.2
			C83.2,4.2,83.1,4.3,83.2,4.2C83.3,4.2,83.3,4.2,83.2,4.2c0.2-0.1,0.4-0.6,0-0.7C82.5,3.5,82.7,4.6,83.2,4.2z M82.9,8.1
			c0.1,0.5,0.9,0.2,0.8-0.2c0,0.1,0.1,0.1,0,0C83.4,7.7,82.8,7.6,82.9,8.1z M42.6,15.7c0.2-0.5-1.1-0.7-0.9-0.2
			C41.7,15.7,42.5,16,42.6,15.7z M42.6,15.7C42.5,15.9,42.7,15.5,42.6,15.7L42.6,15.7z M82.6,2.2C82.6,2.1,82.6,2.2,82.6,2.2
			c0.1-0.5-0.2-0.5-0.5-0.3C81.7,2.5,82.3,2.7,82.6,2.2z M86.2,4.8c0.3-0.4-0.3-0.6-0.5-0.2C85.5,5,86.1,5,86.2,4.8z M23.4,44.9
			c0.1,0.2,0.9,0.5,0.9,0.1C24.3,44.8,23.6,44.6,23.4,44.9C23.6,45.2,23.5,45,23.4,44.9z M94.8,94C94.8,94,94.8,94,94.8,94
			c-0.2,0.5,0.2,0.8,0.5,0.3C95.2,94.1,95.2,93.9,94.8,94z M75.4,7C74.5,6.5,75.3,8.3,75.4,7L75.4,7z M85.6,5.1
			c0.1-0.2-0.5-0.4-0.5,0C85,5.5,85.5,5.4,85.6,5.1z M92.2,94.9C92.2,94.9,92.2,94.9,92.2,94.9C92.3,94.9,92.3,94.9,92.2,94.9
			c0.3,0.1,0.4-0.1,0.3-0.4C92.2,94.4,92,94.7,92.2,94.9z M21.8,58.1c0,0.1,0.3,0.6,0.4,0.2C22.3,57.9,22.1,57.8,21.8,58.1z
			 M22.2,58.3C22.2,58.5,22.2,58.2,22.2,58.3L22.2,58.3z M0.3,85.4C0.1,85.5-0.1,85.7,0,86C0.1,85.9,0.5,85.5,0.3,85.4
			C0.3,85.4,0.3,85.4,0.3,85.4z M86.4,94.5c0.9,1.4,2.9,0.4,1.9-1C87.5,92.2,85.5,93.1,86.4,94.5z M88.4,93.5
			C88.7,94,88.3,93.4,88.4,93.5L88.4,93.5z M89.5,85.4c-0.2,0.3,0.3,0.6,0.5,0.3C90.2,85.4,89.7,85,89.5,85.4z M90,85.7
			C89.9,85.8,90.1,85.5,90,85.7L90,85.7z M81.8,95.2c-0.1,0.4,0.2,0.3,0.4,0.1C82.3,95,81.8,95,81.8,95.2z M85.5,93.3
			c-0.1,0.2,0.2,0.4,0.3,0.2C86,93.3,85.6,93.1,85.5,93.3z M85.8,93.5C85.8,93.6,85.9,93.4,85.8,93.5L85.8,93.5z M80.4,90.8
			c0.5,0.3,0.9-0.3,0.5-0.7C80.4,89.8,79.9,90.5,80.4,90.8z M80.4,90.8C80.2,90.6,80.6,90.9,80.4,90.8L80.4,90.8z M82.1,87.6
			c0.3,0.2,0.6-0.2,0.3-0.5c0,0,0.1,0.1,0,0c-0.1-0.1,0,0,0,0C82.1,86.8,81.8,87.3,82.1,87.6z M27.3,18.1c0.5-2.3-1.1,0.4-1.2-1.7
			C25.7,17.1,26.6,18.4,27.3,18.1z M25.2,14.4c-0.1,0.1-0.1,0.3-0.2,0.4c0.3,0,0.6,0,1,0C25.7,14.6,25.5,14.5,25.2,14.4z M13.6,42.4
			C11.9,42.3,13.5,42.4,13.6,42.4L13.6,42.4z M11.8,35c0.4-0.2,0.9-0.3,1.3-0.5c-1.3-2-5.4-3.3-7.3-1.6c1.3,1.2,3.1,1.2,4.7,1.8
			C11,34.9,11.3,35.2,11.8,35z M11.9,75.5c0,0.4,0.7,0.2,1,0.2c0-0.1,0-0.1,0-0.2C12.5,75.5,12.2,75.5,11.9,75.5z M4.5,77.3L7.9,77
			C7.7,76.8,5.6,77.1,4.5,77.3z M22.4,62.3c-1.1-0.8-2.6-2.1-4-1.2c1-0.5,3.7,0.1,3.1,1.6C21.7,62.6,22,62.5,22.4,62.3z M20.1,62.8
			c0.3,0,0.6,0,1,0C20.7,62.2,20.5,62.5,20.1,62.8z M19.4,81c0-0.1,0-0.2,0-0.3C19.3,80.8,19.3,80.9,19.4,81z M19.4,81
			c0.1,0.8,0.3,1,1.1,1c0.5,0,1.1-0.2,1.4-0.6C21.3,82.1,20,81.6,19.4,81z M21.9,81.4C21.2,82.1,21.6,82,21.9,81.4L21.9,81.4z
			 M18.9,61.9c-1.1,0-2.3,0.1-1.2-1.1c-0.5-0.4-1.7,0.7-1.3,1.2c0.6,0,1.5,0.6,2.1,0.3C18.5,62.5,18.6,62.5,18.9,61.9z M12.6,63.3
			c0.2,0.1,0.3,0.2-0.3-0.4c0,0-0.1,0-0.1,0c-1-0.2-2.3,0.7-1.5,1.6C11.4,65.4,13.2,64.4,12.6,63.3z M17.8,50.6
			c-0.3-0.1-0.6,0-0.8,0L17.8,50.6z M17.3,51.8c1-0.4,2-0.9,3-1.3c-0.8,0-1.7,0.1-2.5,0.1C18.3,50.8,17.5,51.5,17.3,51.8z
			 M12.1,50.9c0-0.1,0-0.3,0-0.4l-1.5,0.1C10.4,51.2,11.7,50.9,12.1,50.9z M12.2,53.5c-0.5-0.3-1.2-0.5-1.5,0.1
			C11.3,53.9,11.7,54.1,12.2,53.5z M6,51.7c-0.2-0.5,0-0.6,0.4-0.6c0.8-0.1,1.5,0,2.2-0.4c-1.1,0.2-2.3,0.3-3.4,0.5
			C5.6,51.1,6,51.3,6,51.7z M5.3,51.1c-0.2,0-0.4,0-0.6,0.1L5.3,51.1z M23.5,56.3c-0.4-0.3-0.8-0.2-1.2,0
			C22.7,56.5,23.1,56.5,23.5,56.3z M20.4,55.9c0.4,1.5,1.2,0.9,1.9,0.5C21.4,55.9,20.8,54.9,20.4,55.9z M75.9,103.5
			c-1.9,1.5,1.1,0.4-0.2,2.1C76.4,105.4,76.6,103.9,75.9,103.5z M75,107.7c0.1-0.1,0.3-0.1,0.4-0.2c-0.3-0.2-0.5-0.4-0.8-0.6
			L75,107.7z M100.7,91.9c-0.6-0.5-1.6-0.1-2,0.4c0.3,0.2,0.7,1.2,1.1,1.1c0.4-0.1,0.2-0.9,0.1-1.1c0.5-0.1,1,0.7,0.8,1.1
			C100.9,92.9,101.2,92.4,100.7,91.9z M101.9,94.1c0.4,1.2,0.8,2.5,1.3,3.7c-0.4-0.2-0.9-0.4-1.3-0.5c0.4,0.4,0.3,0.9,0.6,1.4
			c0.1,0.2,0.4,0.3,0.6,0.3c0.6,0.1,0.4-0.2,0.4-0.6C103.6,96.9,103.1,95.1,101.9,94.1z M99.5,102.3c-0.3-0.5-0.4-1.2-0.9-1.4
			c-0.4-0.2-0.9-0.3-1.3-0.5c-0.3,2.3,1.7,5.6,4.2,6c0.1,0,0.2,0,0.4,0c0-0.2,0-0.3-0.1-0.4C101.4,104.6,100.3,103.5,99.5,102.3z
			 M124.2,69.6c-0.2,0.3,0.4,0.6,0.6,0.7C125.1,70,124.4,69.8,124.2,69.6z M131.7,73.7l-2.8-2C128.9,72,130.6,73.2,131.7,73.7z
			 M109.3,76.2C108.7,75.4,109.1,76.5,109.3,76.2L109.3,76.2z M109.3,73.7c-0.3-0.1-0.7-0.2-1-0.3c0.2,1,0.4,2,1,2.8
			c-1.6,2.1,2.1,4.6,3.6,2.4c1.5-2.2-1.8-4.5-3.5-2.6C108.8,75.4,108.3,74.2,109.3,73.7z M109.6,73.9c-0.1,0.6,0.3,0.6,0.8,0.6
			C110.1,74.3,109.9,74.1,109.6,73.9z M122.7,61.2c-0.1,0.1-0.1,0.2-0.2,0.3C122.6,61.5,122.7,61.4,122.7,61.2z M118.6,78.9
			c0-0.4-2.1-1.1-2.2,0.1c-0.1-0.2-0.1-0.3,0,0.5c0,0,0,0.1,0.1,0.1c0.3,0.4,1,0.8,1.6,0.6C118.8,80,118.6,79.5,118.6,78.9z
			 M104.7,85.7l-0.6-0.5C104.3,85.5,104.6,85.6,104.7,85.7z M105.3,84.7c-1-0.3-2.1-0.7-3.1-1c0.7,0.5,1.3,1,2,1.5
			C103.9,84.8,105,84.7,105.3,84.7z M108.7,88.8c-0.6,0.4,0.6,1,1,1.3C110.2,89.6,109,89,108.7,88.8z M111.5,87.6
			c-0.2-0.6-0.4-1-1.2-0.9C110.5,87.2,110.8,87.8,111.5,87.6z M113.8,92.1c-0.2,0.6-0.6,0.4-1,0c-0.6-0.4-1-0.8-1.7-0.9
			c1,0.6,1.9,1.2,2.9,1.8C113.8,92.8,113.6,92.4,113.8,92.1z M114.5,93.4L114,93C114.2,93.2,114.3,93.3,114.5,93.4z M104.5,78
			c0.4,0.9,0.2,2.1,1.1,1.6C106.2,78.2,105.3,78.1,104.5,78z M115.6,85.9c-0.5-0.4-1.4,0.3-1.7,0.6c0.2,0.4,0.3,0.5,0.3,0.4
			c0.6,0.6,1.7,0.4,2.1-0.5C116.3,86.3,115.7,86,115.6,85.9z M30.3,94C30.4,94.1,30.3,93.8,30.3,94L30.3,94z M30,93.7
			c0,0.3,0,0.5,0,0.8c0.2-0.1,0.4-0.2,0.3-0.5C30.3,93.8,30.2,93.7,30,93.7z M36.5,88.8C36.4,88.6,36.5,88.8,36.5,88.8L36.5,88.8z
			 M36.8,87.7c0,0.1,0,0.2,0,0.3c-0.6,0.2-0.7,0-1.1,0.7c-0.5,0,1.2,1.7,1.2,1.2c0.1-0.6,0.9-0.7,0.3-1.3
			C37.3,88.3,36.8,87.7,36.8,87.7z M36.6,88.8c-0.1,0-0.1,0.1-0.2,0c-0.1-0.2-0.2-0.3-0.4-0.3C36.5,87.9,36.8,88.6,36.6,88.8z
			 M43.5,101.5c0.1,0.3,0.5,0.6,0.5,0.1C43.9,101.3,43.6,101.3,43.5,101.5z M31.8,90.3C31.8,90.2,31.8,90.3,31.8,90.3
			c0-0.4-0.5-0.4-0.5,0C31.5,90.5,31.7,90.6,31.8,90.3z M39.1,89.2c0.1,0.2,0.4-0.1,0.5-0.1C39.5,88.9,39.1,89,39.1,89.2z
			 M87.1,90.5c0-0.2-0.3-0.2-0.3,0c0,0,0-0.1,0,0c0,0,0,0,0,0C86.8,90.7,87.1,90.7,87.1,90.5z M42.8,95.9
			C42.8,96,42.7,95.8,42.8,95.9L42.8,95.9z M42.8,95.9c0-0.1,0-0.1-0.1-0.2C42.1,95.8,42.9,96.3,42.8,95.9z M41.2,115.9
			C41.1,115.8,41.1,115.9,41.2,115.9c0.2-0.2,0.2-0.3,0-0.3C41.1,115.6,41.1,115.8,41.2,115.9z M78.1,94.3
			C78.4,94.2,77.4,94.3,78.1,94.3L78.1,94.3z M78.1,94.3c-1.7,0-1.5,2.6,0.1,2.4C79.9,96.5,79.6,94,78.1,94.3z M84.7,91.3
			c-1.2-0.4-1.3,1.2-0.2,1.1C85.2,92.4,85.3,91.5,84.7,91.3z M84.5,92.4C84.2,92.4,84.9,92.4,84.5,92.4L84.5,92.4z M82.7,88.5
			C82.7,88.7,82.7,88.4,82.7,88.5L82.7,88.5z M82,88.5c0,0.4,0.7,0.5,0.7,0C82.7,88.1,82,88.1,82,88.5z M83.5,89.7
			C83.5,89.6,83.5,89.9,83.5,89.7L83.5,89.7z M83.9,89.7c0-0.3-0.4-0.3-0.4,0C83.5,90,84,90,83.9,89.7z M82.2,94.1
			c0,0.1,0.1,0.1,0.2,0.1C82.4,93.9,82.1,94,82.2,94.1z M83.3,92.1C83.3,92.1,83.3,92,83.3,92.1C83.3,92.1,83.3,92.1,83.3,92.1
			c0.1,0.2,0.2,0.1,0.2,0C83.4,91.9,83.3,91.9,83.3,92.1z M79.9,92.3C79.9,92.3,79.9,92.2,79.9,92.3C79.9,92.4,79.9,92.3,79.9,92.3
			c0,0.3,0.5,0.3,0.5,0C80.4,92,79.8,92,79.9,92.3z M80.1,90.3c0-0.3-0.3-0.3-0.3,0C79.7,90.5,80.1,90.6,80.1,90.3z M31.3,75.1
			c0,0.4,0.8,0.7,1.1,0.4C31.9,74.3,32,76.1,31.3,75.1z M30.2,74.4l0,0.2c0.1-0.1,0.3-0.2,0.4-0.3C30.6,74.4,30.4,74.4,30.2,74.4z
			 M35.3,89.9c-0.2-0.5-1.5,0.6-0.3,0.5c-0.1,0.8-1.4-0.4-1.3,0.8c-0.7,0-1.4,0.1-2.1,0.1c0.2-0.2,0.3-0.4,0.5-0.6
			c-0.1,0.1-2,0.4-0.9,0.7c0.4,0.1,0.8,0.2,1.3,0.2c-0.9,0-0.4,1,0.1,1.1c0.9,0,0.6-1.1-0.1-1.1c0.4,0,0.9-0.1,1.2-0.4
			c-0.1,0.6,1.3,0.5,1-0.3C35.3,91.1,35.5,90.3,35.3,89.9z M32.9,92c0.1,0.2-0.3,0.7-0.6,0.4C32,91.9,32.7,91.4,32.9,92z M33.7,91.2
			C32.9,91.7,33.7,91.2,33.7,91.2L33.7,91.2z M43.5,107.3c0.1-0.1,0.3-0.2,0.4-0.3c0,0,0-0.1-0.1-0.1
			C43.6,107,43.5,107.2,43.5,107.3z M40.6,110.5l1.5-1.3C41.9,109.2,41,110,40.6,110.5z M43.8,98.3c0.1-0.1,0.2-0.3,0.3-0.5
			c-0.8,0-1.9-0.2-2.3,0.8C42.1,97.9,43.6,97.4,43.8,98.3z M43.2,98.7c0.1-0.1,0.3-0.2,0.4-0.3C43.4,98.3,43.2,98.4,43.2,98.7z
			 M48.7,107.4c0-0.1-0.1-0.1-0.1-0.1C48.5,107.4,48.6,107.4,48.7,107.4z M48.7,107.4c0.4,0.5,1.1,0.1,1.2-0.4c0,0.2,0,0.1,0-0.2
			C49.9,107.3,49.1,107.5,48.7,107.4z M41.5,98.5c-0.4,0-0.6,0.8-0.2,1c0.4-0.3,1.2-0.1,1.1-0.8C42,98.9,41,99.4,41.5,98.5z
			 M39.9,101.3c0.2,0,0.2,0-0.3-0.1c-0.7,0.2-0.8,1.1-0.1,1.3C39.9,102.7,40.5,101.6,39.9,101.3z M39.4,92.9
			c-0.4,0.3-0.7,0.6-1.1,0.8c0.3-0.1,0.1,0.5,0.1,0.7C38.7,93.9,39.1,93.4,39.4,92.9z M38.3,93.7c-0.1,0-0.3,0.2-0.3,0.3L38.3,93.7z
			 M35,96.2c0.3-0.2,0.8-0.4,0.6-0.7C35.3,95.7,34.8,95.9,35,96.2z M35.9,97.4c0.4,0.1,0.6-0.1,0.7-0.5C36.3,96.9,35.9,97,35.9,97.4
			z M33.1,98c-0.4-0.4,0.7-0.9,0.9-1.3c-0.5,0.4-0.9,0.9-1.4,1.3C32.8,97.8,33,97.8,33.1,98z M42.2,95c0.2,0,0.4-0.1,0.5-0.4
			C42.4,94.5,42.3,94.7,42.2,95z M41.1,95.3c0.7,0.5,0.8,0,1-0.4C41.6,95.1,41,94.8,41.1,95.3z M23.3,110.7c0.2-0.3,0-0.7-0.1-1
			C22.2,109.9,22.7,111.5,23.3,110.7z M82.6,101c0.2-0.3-0.1-1.1-0.6-1C81.6,101.2,82.7,99.8,82.6,101z M82.6,101.9
			c0.1,0.1,0.3,0.2,0.4,0.2c0-0.1,0.1-0.1,0.1-0.2C83,101.9,82.7,101.9,82.6,101.9z M93.3,88.7c-0.4-0.7-1.2-1.4-2.1-1.5
			c0.6,0.4,1.2,0.9,1.8,1.3c-0.3,0.1-0.5,0.1-0.8,0.2C92.3,88.7,93.9,89.7,93.3,88.7z M94.5,82.9c0.6,0,1.3,0,1.9-0.1
			c-0.2,0-0.4-0.2-0.4-0.4C96.2,83,95,82.7,94.5,82.9z"/>
	</g>
</g>
<g>
</g>
<g>
</g>
<g>
</g>
<g>
</g>
<g>
</g>
<g>
</g>
<g>
</g>
<g>
</g>
<g>
</g>
<g>
</g>
<g>
</g>
<g>
</g>
<g>
</g>
<g>
</g>
<g>
</g>
</svg>
