<?xml version="1.0" encoding="iso-8859-1"?>
<!-- Generator: Adobe Illustrator 17.1.0, SVG Export Plug-In . SVG Version: 6.00 Build 0)  -->
<!DOCTYPE svg PUBLIC "-//W3C//DTD SVG 1.1//EN" "http://www.w3.org/Graphics/SVG/1.1/DTD/svg11.dtd">
<svg version="1.1" xmlns="http://www.w3.org/2000/svg" xmlns:xlink="http://www.w3.org/1999/xlink" x="0px" y="0px"
	 viewBox="0 0 58.891 66.66" style="enable-background:new 0 0 58.891 66.66;" xml:space="preserve">
<g id="bubble">
	<path style="fill:#F7A13A;" d="M55.305,24.052C55.476,24.146,55.393,24.103,55.305,24.052
		C55.331,24.066,55.305,24.052,55.305,24.052z M54.215,19.452c-0.001-0.012-0.002-0.019-0.003-0.031
		C54.194,19.432,54.173,19.434,54.215,19.452z M37.691,55.057C37.731,55.09,37.604,54.986,37.691,55.057L37.691,55.057z
		 M37.767,54.974c0.152-0.023-0.742,0.566,0.289-0.021C37.172,54.887,38.017,55.047,37.767,54.974
		C37.919,54.951,37.829,54.992,37.767,54.974z M52.237,15.437C52.246,15.43,52.336,15.282,52.237,15.437
		C52.258,15.422,52.237,15.437,52.237,15.437z M34.334,1.786C34.513,1.694,34.323,1.757,34.334,1.786
		C34.334,1.786,34.329,1.773,34.334,1.786z M48.702,10.343c0.074-0.019,0.276,0.68,0.537,0.524
		C49.06,10.692,48.881,10.518,48.702,10.343C48.595,10.371,48.881,10.518,48.702,10.343z M57.775,21.746
		c-2.211-7.15-6.425-14.049-13.206-17.643c0.167,0.187,0.334,0.374,0.5,0.561c-1.38-0.85-2.784-1.69-4.315-2.239
		c-0.998-0.358-2.827-0.877-4.042-1.595c0.168,0.088,0.333,0.182,0.495,0.282c-0.655-0.099-1.301-0.249-1.954-0.362
		c-0.19-0.084-0.381-0.165-0.574-0.244c-0.392,0.024-0.679,0.138-1.074,0.019c-0.049-0.038-1.992-0.045-2.302,0.049
		c0.826,0.265,1.683,0.473,2.451,0.889c-0.109-0.107-0.222-0.119-0.34-0.037c0.301,0.149,0.609,0.281,0.924,0.396
		c0.059-0.404,2.525,0.83,2.834,0.981c0.532,0.26,1.241,0.265,1.71,0.64c0.107,0.085,0.955,0.659,0.647,0.381
		c0.091,0.168,0.416,0.223,0.558,0.348c-0.081-0.077-0.135-0.085-0.161-0.023c0.184,0.205,0.519,0.337,0.757,0.469
		c0.262,0.146,0.514,0.312,0.769,0.468c0.236,0.144,0.895,0.823,0.493,0.18c0.287,0.286,0.084,0.007,0.037-0.029
		c0.787,0.257,1.441,1.444,2.227,1.208c0.633-0.19,1.619,1.128,2.026,1.452c-0.079-0.252-0.158-0.504-0.237-0.757
		c0.487,0.558,0.963,1.17,1.486,1.691c0.204,0.203,1.394,1.493,0.525,0.574c0.384,0.497,3.129,3.109,2.796,3.37
		c-0.427-0.646-0.987-1.484-1.712-1.823c0.205,0.223,0.948,0.951,0.911,1.262c0.012-0.104,0.814,0.878,0.923,1.042
		c0.25,0.376,0.487,0.761,0.717,1.15c0.064,0.109,0.315,0.719,0.277,0.361c0.184,0.221,1.55,2.948,1.396,2.995
		c0.016-0.034,0.038-0.063,0.066-0.088c0.034,0.003,1.562,2.725,1.493,2.965c-0.038,0.133,0.53,2.678,0.149,2.278
		c0.164,0.184,0.287,0.391,0.371,0.623c-0.083,0.076-0.149,0.06-0.196-0.047c-0.003,0.193,0.546,1.116,0.712,0.696
		c0.215,0.491,0.344,2.024,0.303,2.232c0.126,0.626,0.142,1.27,0.148,1.907c0.003,0.27,0.138,1.603-0.097,1.354
		c-0.032,0.091,0.25,0.468,0.056,0.489c0.054-0.006-0.183,0.62-0.208,0.677c0.485-0.239,0.086,0.814-0.245,0.542
		c0.167,0.478-0.173,1.136-0.007,1.832c-0.179-0.469-0.119-0.557,0.18-0.263c0.134,0.238-0.088,0.577-0.09,0.821
		c-0.072-0.555-0.234,0.572-0.228,0.756c0.009,0.265,0.062,1.163-0.29,0.886c0.082,0.167,0.114,0.528,0.05,0.702
		c-0.077,0.072-0.103,0.047-0.078-0.074c-0.137,0.399-0.579,1.193-0.574,1.492c0.01,0.632-0.384,1.342-0.657,1.885
		c-0.934,1.858-1.96,3.667-3.067,5.448c-1.086,1.747-2.45,3.132-3.927,4.543c-0.448,0.428-1.06,0.675-1.477,1.126
		c-0.357,0.386-0.875,1.004-1.594,1.066c0.516,0.151-0.264,0.38-0.102,0.202c-1.112,1.063-2.588,1.589-3.93,2.284
		c-0.465,0.241-0.807,0.224-1.302,0.363c-0.531,0.149-0.847,0.618-1.427,0.727c0.276-0.308-0.358,0.272-0.12,0.026
		c-1.14,0.174-2.264,0.431-3.397,0.641c-0.484,0.09-0.969,0.171-1.457,0.233c-0.328,0.042-0.657,0.074-0.988,0.096
		c-0.512-0.075-0.647-0.045-0.403,0.089c-1.964,0.054-3.185,0.454-4.262,2.216c-0.667,1.092-1.093,2.302-0.866,3.585
		c0.362,2.05,1.255,2.794,3.053,3.686c0.318-1.385-0.032-2.453-0.627-3.695c-0.56-1.169-0.191-1.748,0.673-2.475
		c0.95-0.8,1.888-0.676,3.097-0.791c1.688-0.16,3.338-0.465,4.961-0.96c3.461-1.055,6.385-2.442,9.318-4.446
		c4.426-3.023,8.494-7.917,10.448-12.939c1.132-2.909,1.69-6.323,1.979-9.421c0.291-3.109,0.144-6.545-1.043-9.476
		c0.048,0.12,0.091,0.249,0.123,0.374C57.815,21.872,57.792,21.81,57.775,21.746C55.558,14.575,58.005,22.408,57.775,21.746z
		 M27.143,57.814c0.012-0.015,0.02-0.031,0.033-0.045C27.151,57.791,27.143,57.805,27.143,57.814z M36.039,0.886l0.024,0.004
		C36.078,0.82,36.037,0.839,36.039,0.886z M46.266,7.921C46.265,7.894,46.282,8.199,46.266,7.921L46.266,7.921z M39.954,4.24
		c-0.113-0.051-0.216-0.087-0.297-0.096C39.966,4.294,39.987,4.284,39.954,4.24z M33.06,0.502c-0.286-0.04,0.192,0.104,0.316,0.107
		C33.735,0.73,32.762,0.401,33.06,0.502C32.773,0.462,33.148,0.532,33.06,0.502z M33.696,1.546l-0.066,0.051
		C33.74,1.595,33.739,1.573,33.696,1.546z M5.819,41.114C5.859,41.18,6.002,41.18,5.819,41.114
		C5.825,41.124,5.819,41.114,5.819,41.114z M8.145,45.252c0.004,0.012,0.006,0.018,0.01,0.029C8.17,45.267,8.19,45.26,8.145,45.252z
		 M14.34,7.156C14.297,7.137,14.437,7.197,14.34,7.156L14.34,7.156z M14.294,7.259c-0.143,0.056,0.544-0.728-0.275,0.089
		C14.902,7.198,14.029,7.249,14.294,7.259C14.151,7.315,14.229,7.256,14.294,7.259z M10.99,48.615
		C10.982,48.624,10.927,48.79,10.99,48.615C10.973,48.635,10.99,48.615,10.99,48.615z M26.035,65.058
		C25.841,65.108,26.038,65.089,26.035,65.058C26.035,65.058,26.036,65.071,26.035,65.058z M15.529,52.658
		c0.05-0.027-0.516-0.383-0.638-0.365C15.104,52.414,15.316,52.536,15.529,52.658z M27.881,66.224
		c-0.478-0.179-0.964-0.4-1.346-0.747c0.081,0.133,0.188,0.171,0.323,0.115c-0.267-0.2-0.54-0.39-0.821-0.57
		c-0.153,0.386-1.685-1.067-1.874-1.271c-0.427-0.464-0.907-0.887-1.319-1.363c-0.223-0.258-0.376-1.085-0.643-1.218
		c0.02,0.068,0.003,0.12-0.051,0.156c-0.089-0.181-0.159-0.37-0.21-0.565c0.212,0.315-0.127-0.559-0.161-0.641
		c-0.094-0.226-0.198-0.448-0.276-0.681c-0.084-0.251-0.122-1.281-0.276-0.562c-0.013-0.374-0.056-0.056-0.046-0.003
		c-0.27-0.342-0.254-0.864-0.257-1.272c-0.006-0.689-0.124-0.691-0.407-1.2c-0.514-0.924-1.075-1.452-2.084-1.982
		c0.133,0.227,0.266,0.455,0.398,0.682c-0.612-0.444-1.234-0.873-1.838-1.327c-0.177-0.133-1.674-1.066-0.6-0.368
		c-0.476-0.388-3.688-2.253-3.435-2.57c0.617,0.478,1.265,1.161,2.053,1.339c-0.347-0.228-0.746-0.377-1.055-0.662
		c-0.043-0.047-0.328-0.452-0.04-0.357c-1.074-0.067-1.87-1.404-2.534-2.104c0.088,0.236-0.894-0.849-1.072-1.082
		c-0.078-0.102-0.922-1.314-0.901-1.329c-0.005,0.038-0.018,0.074-0.038,0.106c-0.185,0.038-1.066-1.24-1.196-1.407
		c-0.091-0.273-0.446-0.462-0.649-0.635c-0.336-0.285-0.22-0.414-0.347-0.806c-0.015-0.046-1.316-2.13-0.649-1.759
		c-0.212-0.125-0.391-0.286-0.537-0.484c0.084-0.15,0.287-0.101-0.132-0.426c-0.087-0.067-0.502-0.353-0.547-0.045
		c-0.323-0.413-0.859-1.832-0.869-2.038c-0.271-0.565-0.464-1.165-0.644-1.764c-0.075-0.25-0.565-1.478-0.267-1.303
		c0.007-0.096-0.363-0.374-0.182-0.446c-0.028,0.011,0.033-0.637,0.039-0.699c-0.393,0.351-0.319-0.739,0.077-0.573
		c-0.285-0.383-0.158-1.134-0.455-1.73c0.271,0.398,0.232,0.497-0.117,0.297c-0.183-0.194-0.047-0.566-0.13-0.799
		c0.264,0.538,0.088-0.46,0.098-0.612c-0.066,0.336-0.627-1.315-0.039-1.07c-0.13-0.149-0.226-0.866-0.122-0.601
		c-0.096-3.47,0.936-6.952,1.953-10.266c0.575-1.873,1.68-3.671,2.752-5.3c0.384-0.584,0.583-1.004,1.086-1.369
		c0.261-0.189,0.426-0.651,0.716-0.779c-0.502,0.006,0.136-0.441,0.031-0.227c0.739-1.172,1.91-1.942,2.867-2.913
		c0.409-0.414,0.59-0.632,1.102-0.875c0.569-0.27,0.869-0.857,1.401-1.198c-0.16,0.389,0.245-0.381,0.102-0.064
		c1.666-0.994,3.387-1.922,5.215-2.583c0.503-0.182,1.092-0.61,1.889-0.637c0.298-0.007,0.485-0.221,0.712-0.374
		c0.408-0.275,0.866-0.098,1.283-0.284c0.145-0.065,2.93-0.813,2.986-0.535c0.669-0.033,1.32-0.15,1.99-0.119
		c0.888,0.04,1.631-0.401,2.454-0.734c-1.559-2.681-6.089-1.263-8.482-0.803c-3.735,0.718-7.131,2.323-10.207,4.546
		C6.412,9.771,2.519,16.106,0.726,23.426c-1.753,7.156-0.257,15.103,3.698,21.277c1.879,2.933,4.216,5.6,6.903,7.819
		c1.295,1.07,2.681,2.063,4.126,2.921c1.233,0.733,2.691,0.914,3.129,2.355c0.028-0.262,0.055-0.525,0.083-0.787
		c0.312,1.708,0.75,3.436,1.777,4.868c0.647,0.902,1.997,2.261,3.008,3.357c-0.138-0.143-0.27-0.292-0.397-0.446
		c0.661,0.404,1.311,0.832,2.022,1.146c0.465,0.205,0.99,0.256,1.448,0.509c-0.16-0.169,0.513-0.026,0.603,0.038
		c0.589,0.158,1.284,0.262,1.879,0.074c-0.453-0.107-0.875-0.259-1.315-0.405C27.704,66.159,28.041,66.293,27.881,66.224
		C27.418,66.051,28.161,66.345,27.881,66.224z M23.485,3.105c-0.014,0.004-0.028,0.012-0.042,0.016
		C23.468,3.118,23.481,3.112,23.485,3.105z M24.119,65.451l-0.021-0.013C24.061,65.5,24.107,65.497,24.119,65.451z M18.399,54.402
		C18.406,54.425,18.321,54.137,18.399,54.402L18.399,54.402z M22.084,60.777c0.059,0.1,0.112,0.187,0.176,0.231
		C22.103,60.729,22.086,60.722,22.084,60.777z M27.098,66.565c0.298,0.086-0.195-0.136-0.32-0.158
		C26.402,66.222,27.405,66.716,27.098,66.565C27.397,66.651,27.009,66.521,27.098,66.565z M26.609,65.409l0.073-0.035
		C26.575,65.351,26.572,65.372,26.609,65.409z M14.255,48.567C14.264,48.532,14.275,48.446,14.255,48.567
		C14.258,48.553,14.255,48.567,14.255,48.567z M6.272,36.15C6.309,36.175,6.284,36.158,6.272,36.15L6.272,36.15z M6.266,36.203
		C6.433,36.28,6.279,36.222,6.266,36.203C6.293,36.216,6.291,36.238,6.266,36.203z M17.303,50.414
		C17.296,50.419,17.226,50.473,17.303,50.414L17.303,50.414z M24.026,54.816C24,54.917,24.03,54.838,24.026,54.816
		C24.026,54.816,24.029,54.834,24.026,54.816z M19.203,51.196c-0.059,0.121,0.022,0.173,0.244,0.158
		C19.461,51.318,19.226,51.211,19.203,51.196z M24.787,55.829c0.139-0.362,0.045-0.754-0.082-1.101
		c-0.064-0.174-0.667-1.301-0.248-0.919c-0.379-0.332-0.481-0.924-0.901-1.211c-0.25-0.29-0.536-0.552-0.822-0.805
		c-0.164-0.145-1.077-0.617-0.338-0.486c-0.881-0.623-1.909-0.968-2.867-1.445c-1.08-0.537-2.12-1.24-3.117-1.918
		c-1.895-1.287-3.525-3.02-4.948-4.805C9.09,40.164,7.488,36.205,6.955,32.48c-0.128-0.892-0.075-2.006-0.532-2.81
		c-0.163-0.287-0.411-0.316-0.654-0.095c-0.58,0.529-0.515,1.047-0.363,1.76c0.162,0.763,0.159,1.475,0.242,2.248
		c0.086,0.798,0.54,1.516,0.601,2.311c0.04,0.517,0.115,0.944,0.296,1.447c0.099,0.274,0.658,1.491,0.547,1.481
		c0.431,0.225,0.726,1.237,0.9,1.631c0.389,0.883,0.767,1.822,1.332,2.61c0.406,0.566,1.04,0.936,1.326,1.626
		c0.146,0.351,0.631,0.534,0.749,0.708c0.132,0.193,0.499,0.893,0.38,0.605c0.1,0.408,0.737,0.607,0.642,0.649
		c0.536,0.202,0.958,0.681,1.407,1.028c0.287,0.222,0.582,0.392,0.482,0.752c-0.082,0.294,0.267,0.014,0.286,0.437
		c-0.032-0.203,1.248,0.672,1.43,0.782c0.642,0.388,2.17,0.905,2.569,1.512c-0.089-0.134,0.515,0.099,0.577,0.127
		c-0.215-0.165-0.666-0.266-0.773-0.547c0.367,0.188,0.769,0.306,1.069,0.606c0.041-0.053,0.72,0.183,0.244-0.029
		c0.42,0.077,0.819,0.234,1.245,0.288c-0.735,0.329,0.193,0.12,0.37,0.485c0.158,0.327,0.512,0.299,0.696,0.632
		c-0.109-0.048,0.188,0.049-0.135,0.005c0.103,0.085,0.784,0.7,0.914,0.568C22.81,53.288,24.648,55.596,24.787,55.829
		C25.056,55.127,24.631,55.567,24.787,55.829z M24.466,54.066l0.004,0.008C24.496,54.067,24.504,54.049,24.466,54.066z
		 M20.57,51.783C20.706,51.707,20.607,51.762,20.57,51.783L20.57,51.783z M22.632,53.346c-0.008-0.028-0.03-0.057-0.061-0.086
		C22.547,53.258,22.543,53.269,22.632,53.346z M24.78,55.164C24.563,54.833,24.83,55.33,24.78,55.164
		C24.763,55.138,24.801,55.234,24.78,55.164z M49.082,14.93C49.089,14.938,49.237,14.933,49.082,14.93
		C49.085,14.934,49.082,14.93,49.082,14.93z M36.49,6.263C36.492,6.279,36.483,6.214,36.49,6.263L36.49,6.263z M36.537,6.242
		C36.538,6.242,36.624,6.427,36.537,6.242C36.574,6.269,36.551,6.27,36.537,6.242z M50.942,18.152
		C50.936,18.156,50.872,18.225,50.942,18.152C50.929,18.16,50.942,18.152,50.942,18.152z M52.853,26.761
		C52.759,26.71,52.841,26.755,52.853,26.761L52.853,26.761z M51.786,20.444c0.122-0.004-0.001-0.285-0.134-0.259
		C51.697,20.271,51.742,20.358,51.786,20.444z M31.926,5.466c-0.078-0.147-1.598-0.275-1.723-0.177
		c-1.521,0.91,0.247,1.461,1.306,1.424c1.338-0.047,3.015,0.574,4.299,0.933c1.605,0.449,3.152,1.077,4.627,1.853
		c2.695,1.418,5.069,3.605,6.931,6.006c0.937,1.208,1.658,2.559,2.401,3.89c0.346,0.621,0.55,1.307,0.758,1.982
		c0.125,0.406,0.252,0.812,0.414,1.205c0.074,0.181,0.305,1.154,0.416,0.481c0.362,0.871,0.877,2.109,0.588,3.063
		c0.154-0.568,0.183,0.404,0.191,0.479c0.044,0.447,0.048,0.955,0.357,1.318c0.268-1.186,0.689-3.139,0.332-4.485
		c-0.079,0.458-0.051-0.078-0.059,0.13c-0.252-0.407-0.069-0.675-0.388-1c-0.278-0.283,0.008-1.236-0.401-0.515
		c-0.001-0.46-0.186-0.882-0.211-1.337c0.169,0.42,0.065-0.05,0.056-0.159c-0.025-0.299-0.458-0.924-0.59-1.234
		c0.281,0.136,0.346,0.601,0.517,0.834c-0.032-0.076-0.199-0.675-0.113-0.601c-0.697-0.588-0.588-1.767-1.19-2.418
		c-0.211-0.228-1.13-1.879-0.99-1.851c-0.421-0.041-0.153-0.376-0.45-0.311c-0.338,0.073-0.454-0.127-0.669-0.407
		c-0.38-0.495-0.891-1.053-1.085-1.65c-0.045,0.092-0.23-0.58-0.635-0.709c0.451,0.22-0.202-0.052-0.233-0.068
		c-0.039-0.011-0.721-0.662-0.947-0.87c-0.78-0.719-1.537-1.636-2.472-2.134c-0.764-0.407-1.459-0.879-2.25-1.237
		c-0.389-0.176-1.208-0.386-1.443-0.791c0.017,0.154-1.168-0.43-1.414-0.528c-0.645-0.258-1.182-0.277-1.833-0.386
		c-0.674-0.113-1.322-0.371-1.973-0.572c-0.675-0.208-1.518,0.005-2.1-0.204C32.054,5.478,32.047,5.493,31.926,5.466
		C31.855,5.332,32.181,5.558,31.926,5.466z M52.08,26.327l-0.001-0.008C52.037,26.325,52.054,26.335,52.08,26.327z M52.154,21.721
		C52.115,21.767,52.292,21.555,52.154,21.721L52.154,21.721z M52.922,24.429c0.007,0.047,0.019,0.088,0.038,0.114
		C52.946,24.411,52.935,24.407,52.922,24.429z M52.272,27.338C52.281,27.497,52.363,26.98,52.272,27.338
		C52.276,27.404,52.279,27.309,52.272,27.338z M52.808,27.012l0.036,0.018C52.832,26.991,52.82,26.993,52.808,27.012z M15.194,26
		C15.186,25.985,15.102,25.829,15.194,26L15.194,26z M16.315,25.392l0.01,0.004C16.316,25.38,16.309,25.363,16.315,25.392z
		 M19.221,32.029C19.219,32.027,19.252,32.076,19.221,32.029L19.221,32.029z M19.217,32.033
		C19.114,31.959,19.127,32.13,19.217,32.033C19.176,32.004,19.208,32.043,19.217,32.033z M17.4,25.067
		C17.402,25.077,17.443,25.203,17.4,25.067C17.404,25.089,17.4,25.067,17.4,25.067z M20.54,28.183
		C20.421,28.186,20.514,28.184,20.54,28.183L20.54,28.183z M18.857,25.432c-0.058-0.018-0.132-0.192-0.171-0.007
		C18.743,25.423,18.8,25.425,18.857,25.432z M14.128,27.998c0.062,0.072,0.124,0.143,0.186,0.215
		c-0.091-0.14,0.242-0.048-0.02,0.295c0.344-0.171,0.06,0.007,0.024,0.054c0.236,0.025-0.095,0.657,0.053,0.875
		c0.297,0.436,0.088,1.249,0.741,1.729c0.372,0.274,0.754,0.538,1.153,0.77c0.293,0.171,1.058,0.223,1.175,0.519
		c-0.022-0.266,0.795-0.133,1.078-0.171c0.276-0.038,0.678-0.311,0.83-0.325c0.55-0.052,1.311-0.838,1.564-1.292
		c0.165-0.295,0.714-1.54,0.382-1.765c-0.23-0.156-1.871-0.409-1.955-0.01c0.215-0.066-0.142,0.546-0.199,0.596
		c-0.164,0.145-0.715,0.519-0.92,0.538c-0.851,0.078-1.105-0.192-1.445-1.19c-0.189-0.553,0.33-1.576,1.033-1.341
		c0.158,0.053,2.169,0.19,1.45,0.776c0.124-0.023,0.115-0.254,0.255-0.038c-0.024,0.07-0.064,0.129-0.121,0.176
		c0.117,0.054,0.241,0.079,0.369,0.075c-0.216,0.05,0.075,0.271,0.264,0.128c0.137-0.103,0.453-0.288,0.545-0.435
		c0.066-0.011,0.051-1.603-0.111-1.852c-0.029,0.045-0.048,0.092-0.057,0.144c-0.113-0.022-0.224-0.373-0.28-0.472
		c-0.402,0.594-0.729-0.628-0.699,0.295c-0.059-0.222-0.519-0.651-0.376-0.602c-0.337-0.43-0.786,0.054-0.909-0.365
		c0.196,0.004,0.391-0.009,0.585-0.039c-0.097-0.012-0.573,0.012-0.337-0.227c-0.427,0.267-1.455,0.015-1.789,0.075
		c-0.112,0.02-1.022,1.357-1.231,0.55c0.248,0.527-0.077,0.073-0.164,0.211c0.18,0.58-0.235,1.423-0.468,1.634
		c-0.121-0.038-0.113,0.014-0.27,0.093c0.421,0.057-0.097,0.151-0.205,0.095C14.393,27.862,14.262,27.837,14.128,27.998
		C14.19,28.07,14.144,27.98,14.128,27.998z M19.434,28.269l-0.001-0.002C19.373,28.285,19.396,28.281,19.434,28.269z M19.496,25.87
		C19.497,25.867,19.553,25.65,19.496,25.87L19.496,25.87z M20.688,26.865c0.015,0.022,0.031,0.039,0.055,0.043
		C20.721,26.834,20.7,26.844,20.688,26.865z M19.607,28.523C19.598,28.581,19.79,28.399,19.607,28.523
		C19.604,28.542,19.622,28.513,19.607,28.523z M26.233,26C26.225,25.985,26.142,25.829,26.233,26L26.233,26z M27.354,25.392
		l0.01,0.004C27.355,25.38,27.348,25.363,27.354,25.392z M30.26,32.029C30.258,32.027,30.291,32.076,30.26,32.029L30.26,32.029z
		 M30.256,32.033C30.153,31.959,30.166,32.13,30.256,32.033C30.215,32.004,30.247,32.043,30.256,32.033z M28.439,25.067
		C28.441,25.077,28.482,25.203,28.439,25.067C28.443,25.089,28.439,25.067,28.439,25.067z M31.579,28.183
		C31.46,28.186,31.553,28.184,31.579,28.183L31.579,28.183z M29.896,25.432c-0.058-0.018-0.131-0.192-0.171-0.007
		C29.782,25.423,29.839,25.425,29.896,25.432z M32.457,29.131c0.079-0.547-2.005-0.583-2.078-0.241
		c0.215-0.066-0.142,0.546-0.199,0.596c-0.164,0.145-0.715,0.519-0.92,0.538c-0.851,0.078-1.105-0.192-1.445-1.19
		c-0.189-0.553,0.33-1.576,1.033-1.341c0.158,0.053,2.169,0.189,1.45,0.776c0.124-0.023,0.114-0.254,0.255-0.038
		c-0.024,0.07-0.064,0.129-0.121,0.176c0.117,0.054,0.241,0.079,0.369,0.075c-0.217,0.049,0.075,0.271,0.264,0.128
		c0.137-0.103,0.453-0.288,0.545-0.435c0.066-0.011,0.051-1.603-0.111-1.852c-0.029,0.045-0.048,0.092-0.057,0.144
		c-0.113-0.022-0.224-0.373-0.28-0.472c-0.403,0.593-0.729-0.627-0.699,0.295c-0.059-0.222-0.519-0.651-0.376-0.602
		c-0.337-0.431-0.786,0.054-0.909-0.365c0.196,0.004,0.391-0.009,0.585-0.039c-0.097-0.012-0.573,0.012-0.337-0.227
		c-0.427,0.267-1.455,0.015-1.789,0.075c-0.113,0.02-1.021,1.357-1.231,0.55c0.248,0.527-0.077,0.073-0.164,0.211
		c0.18,0.58-0.235,1.423-0.468,1.634c-0.121-0.038-0.113,0.014-0.27,0.093c0.421,0.057-0.097,0.151-0.205,0.095
		c0.201,0.221-0.288,0.101,0.056,0.498c-0.091-0.14,0.242-0.048-0.02,0.295c0.343-0.171,0.06,0.007,0.024,0.054
		c0.236,0.025-0.095,0.657,0.053,0.875c0.297,0.436,0.088,1.249,0.741,1.729c0.372,0.274,0.754,0.538,1.153,0.77
		c0.294,0.171,1.058,0.223,1.175,0.519c-0.018-0.214,1.279-0.163,1.616-0.3c0.308-0.126,0.67-0.387,0.982-0.607
		c0.462-0.326,0.624-0.661,0.996-1.063C32.108,30.357,32.446,29.126,32.457,29.131C32.54,28.564,32.442,29.124,32.457,29.131z
		 M30.473,28.269l-0.001-0.002C30.412,28.285,30.435,28.281,30.473,28.269z M30.535,25.87C30.536,25.867,30.592,25.651,30.535,25.87
		L30.535,25.87z M31.727,26.865c0.015,0.022,0.031,0.039,0.055,0.043C31.76,26.834,31.739,26.844,31.727,26.865z M30.646,28.523
		C30.637,28.581,30.829,28.399,30.646,28.523C30.643,28.542,30.661,28.513,30.646,28.523z M37.272,26
		C37.264,25.985,37.181,25.829,37.272,26L37.272,26z M38.393,25.392l0.01,0.004C38.394,25.38,38.387,25.363,38.393,25.392z
		 M41.299,32.029C41.297,32.027,41.33,32.076,41.299,32.029L41.299,32.029z M41.295,32.033
		C41.193,31.959,41.205,32.129,41.295,32.033C41.254,32.004,41.286,32.043,41.295,32.033z M39.478,25.067
		C39.48,25.077,39.521,25.203,39.478,25.067C39.482,25.089,39.478,25.067,39.478,25.067z M42.618,28.183
		C42.499,28.186,42.592,28.184,42.618,28.183L42.618,28.183z M40.935,25.432c-0.058-0.018-0.132-0.192-0.171-0.007
		C40.821,25.423,40.878,25.425,40.935,25.432z M43.496,29.131c0.078-0.548-2.005-0.583-2.078-0.241
		c0.215-0.066-0.142,0.546-0.199,0.596c-0.164,0.145-0.715,0.519-0.92,0.538c-0.851,0.078-1.105-0.192-1.445-1.19
		c-0.189-0.553,0.33-1.576,1.033-1.341c0.158,0.053,2.169,0.19,1.45,0.776c0.124-0.023,0.114-0.253,0.255-0.038
		c-0.024,0.07-0.064,0.129-0.121,0.176c0.117,0.054,0.241,0.079,0.369,0.075c-0.217,0.049,0.075,0.271,0.264,0.128
		c0.137-0.103,0.453-0.288,0.545-0.435c0.066-0.011,0.051-1.603-0.111-1.852c-0.028,0.045-0.047,0.092-0.057,0.144
		c-0.113-0.022-0.224-0.373-0.28-0.472c-0.402,0.594-0.729-0.628-0.699,0.295c-0.059-0.222-0.519-0.651-0.376-0.602
		c-0.337-0.43-0.786,0.054-0.909-0.365c0.196,0.004,0.391-0.009,0.585-0.039c-0.097-0.012-0.573,0.012-0.337-0.227
		c-0.427,0.267-1.455,0.015-1.789,0.075c-0.112,0.02-1.022,1.357-1.231,0.55c0.248,0.527-0.077,0.073-0.164,0.211
		c0.18,0.58-0.235,1.423-0.468,1.634c-0.121-0.038-0.113,0.014-0.27,0.093c0.421,0.057-0.097,0.151-0.205,0.095
		c0.201,0.221-0.288,0.101,0.056,0.498c-0.091-0.14,0.242-0.048-0.02,0.295c0.344-0.171,0.06,0.007,0.024,0.054
		c0.236,0.025-0.095,0.657,0.053,0.875c0.297,0.436,0.088,1.249,0.741,1.729c0.372,0.274,0.754,0.538,1.153,0.77
		c0.293,0.171,1.058,0.223,1.174,0.519c-0.017-0.214,1.279-0.163,1.616-0.3c0.308-0.126,0.67-0.387,0.982-0.607
		c0.462-0.327,0.624-0.66,0.996-1.063C43.147,30.357,43.484,29.126,43.496,29.131C43.577,28.563,43.481,29.124,43.496,29.131z
		 M41.512,28.269l-0.001-0.002C41.451,28.285,41.474,28.281,41.512,28.269z M41.574,25.87C41.575,25.867,41.631,25.65,41.574,25.87
		L41.574,25.87z M42.766,26.865c0.015,0.022,0.031,0.039,0.055,0.043C42.799,26.834,42.778,26.844,42.766,26.865z M41.685,28.523
		C41.676,28.581,41.868,28.399,41.685,28.523C41.682,28.542,41.7,28.513,41.685,28.523z"/>
</g>
<g id="Layer_1">
</g>
</svg>
