<?xml version="1.0" encoding="iso-8859-1"?>
<!-- Generator: Adobe Illustrator 17.1.0, SVG Export Plug-In . SVG Version: 6.00 Build 0)  -->
<!DOCTYPE svg PUBLIC "-//W3C//DTD SVG 1.1//EN" "http://www.w3.org/Graphics/SVG/1.1/DTD/svg11.dtd">
<svg version="1.1" xmlns="http://www.w3.org/2000/svg" xmlns:xlink="http://www.w3.org/1999/xlink" x="0px" y="0px"
	 viewBox="0 0 58.76 50.688" style="enable-background:new 0 0 58.76 50.688;" xml:space="preserve">
<g id="camera">
	<path style="fill:#F7A13A;" d="M53.282,48.205C53.367,48.199,53.409,48.209,53.282,48.205L53.282,48.205z M2.845,35.104
		C2.784,35.16,2.759,35.225,2.768,35.3C2.794,35.235,2.819,35.169,2.845,35.104z M2.573,24.681c0.003,0.023,0.005,0.039,0.008,0.064
		C2.609,24.674,2.591,24.686,2.573,24.681z M12.162,48.28c-0.037-0.01-0.087-0.016-0.179-0.015
		C12.049,48.27,12.103,48.275,12.162,48.28z M56.487,33.843C56.527,34.096,56.496,33.889,56.487,33.843
		C56.494,33.887,56.487,33.843,56.487,33.843z M56.456,34.122c0.023,0.078-0.003,0.606,0.074,0.609
		c0.021-0.259,0.013-0.518-0.025-0.775C56.503,33.988,56.477,34.346,56.456,34.122C56.484,34.296,56.484,34.296,56.456,34.122
		C56.476,34.19,56.478,34.355,56.456,34.122z M52.345,10.145l-0.061-0.073C52.279,10.091,52.291,10.114,52.345,10.145z
		 M2.477,14.914C2.478,14.986,2.553,15.033,2.477,14.914C2.477,14.921,2.477,14.914,2.477,14.914z M38.99,3.778
		c0.019,0.044,0.034,0.213,0.107,0.197C39.061,3.909,39.026,3.844,38.99,3.778z M7.752,10.035c0.381,0.192,1.163,0.115,1.651,0.063
		C9.376,9.982,7.931,10.039,7.752,10.035z M58.755,35.332c-0.273,2.09-0.035,4.217-0.045,6.316
		c-0.011,2.267-0.041,4.535,0.007,6.802c0.029,1.358-0.985,1.938-2.206,2.066c-1.844,0.193-3.761,0.03-5.611,0.018
		c-9.093-0.061-18.181-0.021-27.274,0.004c-4.289,0.012-8.903-0.013-12.844-0.032c-1.801-0.009-4.441,0.299-5.832,0.101
		c-1.208,0.001-2.62,0.301-3.748-0.264c-1.504-0.754-1.047-2.903-1.04-4.259c0.012-2.31,0.03-4.621,0.048-6.931
		c0.037-4.536,0.089-9.073,0.047-13.608C0.212,20.739,0.039,15.93,0,11.128c-0.015-1.844,0.546-3.164,2.591-3.189
		c1.318-0.016,2.635,0.064,3.955,0.04c0.669-0.012,0.618-0.131,0.529-0.742c-0.026-0.178-0.285-0.76-0.063-0.62
		C6.855,6.451,6.604,6.124,6.885,5.975C6.895,6.032,6.922,6.081,6.969,6.12c0.109-0.017-0.061-0.361-0.077-0.411
		c0.029,0.049,0.256-0.023,0.08-0.178c0.244,0.152,3.325,0.112,3.387-0.032c-0.04,0.212,1.647,0.143,1.965,0.143
		c-0.001,0.395-0.385,2.09,0.099,2.24c0.67,0.207,1.879,0.075,2.589,0.048c1.183-0.046,1.554-1.348,2.065-2.233
		c0.662-1.147,1.289-2.32,2.012-3.431c-0.18,0.444-0.361,0.888-0.541,1.332c0.444-0.767,0.887-1.534,1.321-2.306
		c0.21-0.373,0.42-0.747,0.63-1.12c0.488-0.004,0.975-0.007,1.463-0.011c2.183-0.016,4.368-0.044,6.55,0.038
		c-0.588-0.107,0.987,0.032,1.143,0.047c0.649,0.062,1.31,0.039,1.961,0.03C33.126,0.254,34.638,0.166,36.14,0
		c-0.363,0.037-0.726,0.074-1.089,0.111c0.875,0.077,1.753,0.126,2.632,0.145c0.347-0.032,0.73,0.814,0.865,1.047
		c0.357,0.616,0.766,1.23,1.268,1.738c0.524,0.53,0.654,1.328,1.12,1.902c-0.214-0.402,0.041,0.412,0.089,0.477
		c0.188,0.258,0.437,0.476,0.612,0.743c0.58,0.883,1.237,1.728,1.673,2.698c-1.101-1.329-2.165-2.694-3.367-3.936
		c0.102,0.138,0.45,0.428,0.433,0.611c0.051-0.552-1.049-1.185-1.355-1.57c-0.036,0.007-0.566-0.79-0.732-1.053
		c-0.207-0.327-0.401-0.659-0.634-0.97c-0.519-0.691-0.672-0.623-1.533-0.552c-1.242,0.102-2.476,0.192-3.723,0.196
		c-0.723,0.002-1.446-0.004-2.169,0.021c-0.577,0.02-1.146,0.321-1.729,0.207c0.099-0.045,0.201-0.082,0.306-0.11
		C28.634,1.6,26.724,1.629,27.849,1.85c-0.265-0.178-1.791,0.138-2.051,0.149c-1.2,0.049-2.423,0.073-3.625,0.09
		c0.408-0.061,0.88,0.107,0.314-0.082c0.741-0.234-0.218-0.096-0.398-0.073c-0.445,0.055-0.713,0.443-0.913,0.806
		c-0.387,0.702-0.529,1.665-1.286,2.061c-0.13,0.068-1.014,1.223-0.816,1.335c-0.753,1.159-1.35,2.407-2.001,3.624
		c0.173-0.544,0.334-1.093,0.465-1.649c-0.33,0.726-0.397,1.478-1.246,1.533c-0.675,0.043-1.35,0.016-2.022,0.104
		c-1.185,0.155-2.374-0.022-3.551,0.136c0.364-0.001,0.727-0.002,1.091-0.003c-0.709,0.049-1.404,0.094-2.097,0.248
		c-0.41,0.091-1.264-0.165-1.807-0.18C6.182,9.906,4.366,9.748,2.653,9.961c0.365,0.434,1.566,0.167,2.049,0.144
		c0.995-0.047,2.157-0.21,3.126,0.075c-0.93,0-2.514-0.367-3.396,0.118c-0.03,0.067,0.012,0.091,0.127,0.071
		c-0.522-0.142-1.587-0.398-2.079-0.09c-0.619,0.388,0.008,2.813,0.03,3.423c-0.191-0.934-0.071,0.72-0.07,0.757
		c0.017,0.702,0.048,1.405,0.066,2.107c0.011,0.429-0.228,1.075,0.316,1.061c0.08-0.002,0.786,0.017,0.306-0.039
		c2.584-0.027,5.168-0.02,7.753-0.026c1.28-0.003,2.55-0.081,3.829-0.123c0.688-0.022,1.379-0.018,2.068-0.011
		c0.715,0.007,1.001-0.446,1.52-0.911c1.635-1.465,3.518-2.504,5.565-3.284c0.659-0.251,1.247-0.21,1.788-0.471
		c0.363-0.175,0.94-0.223,1.302-0.432c-0.385,0.465,0.598,0.085,0.243,0.066c1.128-0.044,2.258-0.127,3.387-0.076
		c1.005,0.045,1.935,0.338,2.92,0.465c0.615,0.079,1.056,0.271,1.604,0.529c0.283,0.133,0.723,0.264,0.713,0.254
		c1.191,0.338,2.302,0.92,3.319,1.619c0.515,0.354,1.008,0.74,1.481,1.149c0.234,0.202,0.463,0.41,0.687,0.623
		c-0.011-0.01,0.969,0.742,0.531,0.604c0.278,0.296,1.156,0.08,1.504,0.054c0.834-0.063,1.702,0.013,2.535,0.066
		c0.105,0.027,0.988-0.048,1.288-0.074c0.467-0.04,0.903,0.009,1.369,0.046c0.349,0.027,0.698,0.043,1.047,0.048
		c0.598,0.045,0.714,0.029,0.348-0.049c0.188,0.016,0.373,0.044,0.558,0.083c-0.287-0.131,1.036-0.072,1.297-0.076
		c0.647-0.011,1.295-0.015,1.942-0.016c0.412,0.001,2.568,0.31,2.759-0.177c0.425-1.078-0.015-2.753,0.141-3.921
		c0.088-0.658-0.025-1.313-0.037-1.971c-0.006-0.306,0.246-1.128,0.03-1.404c-0.247-0.315-0.721-0.003-1.013,0.026
		c-0.597,0.059-1.204-0.053-1.794-0.131c-1.352-0.179-2.765-0.12-4.127-0.103c-1.156,0.014-2.377,0.228-3.517,0.044
		c-1.171-0.189-2.34-0.388-3.51-0.588c2.702-1.787,6.196-1.468,9.272-1.348c1.586,0.062,3.211-0.147,4.787,0.049
		c1.658,0.206,1.977,1.266,1.967,2.785C58.628,19.04,58.791,27.191,58.755,35.332C58.504,37.257,58.782,29.294,58.755,35.332z
		 M56.41,40.863c-1.011,0.081-2.025,0.14-3.031,0.282c0.19-0.005,0.4,0.039,0.586-0.005c-0.355,0.083-1.432,0.224-1.559,0.138
		c-0.5,0.195-1.278-0.01-1.802-0.017c-1.135-0.016-2.264,0.171-3.398,0.197c-0.89,0.02-1.782,0.038-2.672,0.042
		c-0.397,0.002-1.279-0.129-1.607,0.138c0.086-0.014,0.17-0.035,0.252-0.063c-0.148,0.197-0.882,0.056-1.106,0.074
		c0.433-0.013,0.463,0.026,0.092,0.117c-0.344,0.063-0.705,0.021-1.051,0.002c-0.507-0.027-0.944,1.068-1.383,0.746
		c-0.282-0.207-2.085,1.314-2.445,1.507c0.157-0.221,0.297-0.452,0.422-0.692c-1.018,0.953-2.244,1.154-3.337,1.868
		c0.181-0.055,0.361-0.114,0.539-0.176c-0.537,0.292-0.965,0.478-1.562,0.524c-0.391,0.03-3.213,0.339-3.208,0.513
		c0.941-0.043,1.883-0.289,2.828-0.206c-0.407,0.063-1.41,0.499-1.696,0.436c-1.206-0.513-2.635,0.029-3.892-0.089
		c0.365-0.081-1.086-0.28-1.301-0.313c-0.645-0.1-1.295-0.193-1.922-0.376c-1.019-0.298-2.247-0.746-3.014-1.501
		c-0.539-0.53-1.277-0.651-1.88-1.137c-0.119-0.096-1.348-0.966-1.162-0.538c-0.475-0.973-2.717-0.348-3.529-0.32
		c0.811-0.14-0.82-0.066-0.796-0.066c-0.52-0.004-1.039,0.006-1.559,0.024c-1.034,0.037-2.07,0.169-3.104,0.172
		c-2.245,0.006-4.506-0.053-6.755-0.069c0.021,1.037,0.025,2.074,0.023,3.111c-0.001,0.536-0.004,1.072-0.008,1.608
		c-0.001,0.091-0.218,1.604,0.097,0.79c0.052,0.392-0.148,0.496-0.034,0.678c0.057,0.091,0.307-0.068,0.368-0.098
		c-0.272,0.453,1.083,0.12,1.106-0.005c-0.046-0.083-0.115-0.138-0.207-0.163c1.317,0.244,2.661-0.036,3.984,0.147
		c-0.306-0.031-0.611-0.062-0.917-0.093c0.105,0.396,0.782,0.332,1.074,0.316c0.272-0.014,1.647,0.002,0.543-0.126
		c0.602,0.029,1.201-0.042,1.8-0.088c-0.72,0.012,0.505,0.153,0.67,0.157c0.315,0.006,2.151,0.206,1.718-0.164
		c0.263,0.096,0.601,0.084,0.875,0.102c0.104,0.007,1.085,0.069,0.469-0.017c6.473-0.081,12.945-0.292,19.419-0.224
		c3.484,0.037,6.98,0.02,10.461,0.162c1.615,0.066,3.17,0.047,4.78-0.031c0.878-0.043,1.757-0.034,2.635-0.009
		c0.348,0.01,0.697,0.023,1.045,0.037c0.422,0.017,1.155-0.248,0.76,0.143c0.284-0.027,0.57-0.035,0.854-0.054
		c0.075-0.005,0.979-0.055,0.593-0.097c0.121,0.223,1.759-0.315,1.653,0.1C56.605,48.327,56.402,41.358,56.41,40.863
		C55.493,40.936,56.395,41.813,56.41,40.863C55.4,40.943,56.393,41.913,56.41,40.863z M43.236,19.144
		c1.214,1.603,1.625,3.516,2.453,5.294c0.798,1.715,0.578,3.118,0.085,4.867c-1.212-0.891-1.636-2.371-1.976-3.764
		c-0.382-1.57-0.813-2.944-1.763-4.274c-2.071-2.899-5.225-5.266-8.679-6.215c-6.627-1.821-13.951,1.484-16.955,7.657
		c-3.047,6.261-1.174,14.39,4.515,18.496c5.613,4.051,12.855,3.182,18.241-0.737c-0.121,0.193-0.255,0.378-0.401,0.553
		c1.344-0.981,2.341-2.324,3.384-3.6c0.565-0.432,1.258-2.237,1.378-3.26c-0.299,1.32,0.363-0.517,0.431-0.751
		c0.152-0.523,0.36-1.051,0.457-1.588c0.111-0.611,0.152-1.817,0.471-2.517c0.121,0.844,0.147,1.701,0.322,2.537
		c-0.07-0.133-0.052-0.247,0.053-0.345c0.049,0.34,0.067,0.686,0.061,1.03c-0.329-0.093-0.536,2.381-0.601,2.719
		c-0.14,0.73-0.532,1.32-0.826,1.99c-0.078,0.139-0.512,1.288-0.397,0.897c0.006,0.212-0.219,0.466-0.311,0.645
		c0.32-0.405-0.105,0.349-0.153,0.431c-0.288,0.495-0.743,0.852-1.046,1.334c0.323,0.006,0.646,0.014,0.969,0.024
		c-0.689-0.106,0.948-0.067,0.857-0.065c0.517-0.009,1.035-0.004,1.552,0.003c1.206,0.016,2.415,0.042,3.617-0.07
		c-0.287,0.025-0.574,0.049-0.86,0.074c1.866,0.11,3.858,0.221,5.723,0.096c-0.299,0.066,0.222,0.086,0.191,0.084
		c0.373,0.026,0.738,0.081,1.113,0.071c0.424-0.011,0.849-0.057,1.274-0.042c0.014-0.741,0.044-1.481,0.101-2.22
		c0.063-0.205-0.103-1.484-0.128-1.965c-0.033-0.641,0.095-1.267,0.133-1.904c0.013-0.21,0.17-1.875-0.046-1.259
		c0.036-0.239,0.076-0.478,0.12-0.715c-0.217,0.707-0.095-0.846-0.095-0.857c-0.022-0.711-0.036-1.423-0.043-2.135
		c-0.014-1.424-0.004-2.847,0.007-4.271c0.013-1.673,0.111-3.365,0.065-5.038c-0.004-0.151,0.027-1.144-0.254-1.145
		c-1.4-0.006-2.801-0.012-4.201-0.018C49.126,19.179,46.181,19.164,43.236,19.144c0.073,0.096,0.648,0.275,0.699,0.092
		C43.964,19.133,43.108,19.143,43.236,19.144C43.54,19.545,44.676,19.154,43.236,19.144z M2.613,19.108
		c0.104,1.609-0.08,3.217-0.037,4.826c0.023,0.857-0.164,1.689-0.147,2.541c0.015,0.735,0.18,1.469,0.167,2.204
		c-0.015,0.83-0.132,1.658-0.158,2.488c-0.013,0.403-0.024,0.821,0.049,1.22c0.028,0.152,0.392,0.826,0.395,0.141
		c-0.072,0.333-0.288,1.177-0.124,1.487c0.057-0.029,0.082-0.083,0.075-0.161c0.041,0.461,0.019,0.882-0.172,1.31
		c-0.093,0.208-0.212,1.207-0.32,0.499c-0.155,1.62,0.096,3.232,0.063,4.853c4.873-0.007,9.745-0.136,14.618-0.097
		c-0.249-0.327-0.565-0.62-0.836-0.929c-0.105-0.119-0.707-0.861-0.557-0.713c-0.332-0.625-0.719-1.218-1.06-1.837
		c-0.138-0.249-0.265-0.503-0.381-0.762c-0.054-0.122-0.237-1.178-0.373-0.686c-0.179-0.249-0.403-0.924-0.566-1.247
		c0.503,0.193-0.102-0.958-0.327-0.592c0.053-0.732-0.341-1.401-0.268-2.143c-0.023,0.167-0.029,0.335-0.018,0.503
		c0.388-0.169,0.134-1.458,0.058-0.887c-0.012-0.325-0.061-0.644-0.146-0.958c0.072,0.368,0.461-1.569-0.029-1.284
		c0.107-0.167,0.216-1.017,0.121-0.717c0.005-3.055,1.129-6.721,3.087-9.085C11.357,19.116,6.985,19.113,2.613,19.108
		c0.015,0.231,0.439,0.292,0.427,0.109C2.929,19.104,2.787,19.068,2.613,19.108C2.698,20.422,3.559,19.109,2.613,19.108z
		 M8.483,7.135c0.023,0.129,0.013,0.256-0.032,0.381C8.797,7.452,9.555,7.142,9.87,7.401c0.264,0.217,1.187,0.351,0.926-0.34
		C10.657,7.267,8.541,7.178,8.483,7.135C8.598,7.219,8.423,7.09,8.483,7.135z M37.963,0.466l0.048,0.071
		C38.062,0.54,38.003,0.413,37.963,0.466z M17.008,9.899c-0.082,0.026-0.163,0.052-0.245,0.078C17.064,9.812,17,9.772,17.008,9.899z
		 M28.278,1.941c-0.167-0.02-0.398-0.024-0.662-0.021C27.513,1.946,27.547,1.961,28.278,1.941z M41.523,5.857
		c-0.14-0.167-0.281-0.334-0.421-0.502c0.142,0.252,0.436,0.418,0.542,0.691c-0.031-0.085-0.079-0.156-0.145-0.211
		C41.523,5.872,41.709,6.12,41.523,5.857C41.383,5.689,41.745,6.171,41.523,5.857z M39.957,5.177l-0.026-0.128
		C39.86,4.981,39.839,4.984,39.957,5.177z M5.898,42.055c-0.019,0.002-0.031,0.003-0.051,0.005
		C5.904,42.079,5.894,42.067,5.898,42.055z M49.557,17.664C49.355,17.692,49.521,17.671,49.557,17.664
		C49.521,17.669,49.557,17.664,49.557,17.664z M49.336,17.644c-0.06,0.015-0.479-0.004-0.481,0.049
		c0.205,0.014,0.409,0.009,0.612-0.017c-0.063-0.002-0.126-0.008-0.188-0.017C49.45,17.701,49.046,17.667,49.336,17.644
		C49.283,17.657,49.152,17.659,49.336,17.644z M13.614,41.991C13.586,41.992,13.464,42.068,13.614,41.991
		C13.608,41.992,13.614,41.991,13.614,41.991z M52.383,41.25c-0.059-0.005-0.117-0.01-0.176-0.016
		C52.264,41.266,52.322,41.271,52.383,41.25C52.324,41.245,52.38,41.256,52.383,41.25z M49.938,40.548l0.037,0
		C49.995,40.521,49.939,40.506,49.938,40.548z M42.762,41.729c-0.132-0.013-0.314-0.016-0.523-0.014
		C42.157,41.732,42.184,41.743,42.762,41.729z M54.694,40.628c-0.172,0.014-0.343,0.028-0.515,0.042
		c0.231-0.014,0.461-0.027,0.692-0.037c-0.098-0.058-0.158-0.059-0.179,0C54.827,40.63,54.828,40.628,54.694,40.628
		C54.522,40.642,54.997,40.625,54.694,40.628z M53.55,41.232l-0.095-0.034C53.379,41.211,53.372,41.223,53.55,41.232z
		 M21.768,44.494c-0.013-0.003-0.021-0.005-0.035-0.008C21.755,44.528,21.757,44.509,21.768,44.494z M35.35,13.342
		C35.216,13.334,35.319,13.343,35.35,13.342C35.324,13.34,35.35,13.342,35.35,13.342z M35.22,13.262
		c-0.108-0.026-0.217-0.04-0.328-0.041c-0.133-0.07,0.62,0.31,0.618,0.3C35.49,13.413,35.042,13.231,35.22,13.262
		C35.112,13.235,35.096,13.24,35.22,13.262z M26.743,46.068C26.725,46.084,26.621,46.172,26.743,46.068L26.743,46.068z
		 M45.258,32.49C45.117,32.728,45.313,32.514,45.258,32.49C45.245,32.512,45.267,32.494,45.258,32.49z M33.73,45.555
		c-0.078,0.018-0.825,0.185-0.829,0.16C33.027,45.778,33.746,45.568,33.73,45.555z M43.868,33.68l0.006-0.021
		C43.839,33.635,43.808,33.66,43.868,33.68z M37.185,44.168c0.034-0.049,0.068-0.098,0.101-0.148
		C37.229,44.06,37.222,44.108,37.185,44.168z M43.535,38.476c-0.059,0.065-0.129,0.163-0.212,0.274
		C43.307,38.804,43.347,38.81,43.535,38.476z M44.551,30.944c0.005,0.104,0.01,0.208,0.016,0.311c0.017-0.125,0.02-0.25,0.009-0.376
		C44.602,31.045,44.569,30.801,44.551,30.944C44.556,31.048,44.573,30.765,44.551,30.944z M45.342,31.756l-0.059,0.051
		C45.295,31.858,45.312,31.865,45.342,31.756z M20.724,19.981C20.86,19.968,20.807,19.971,20.724,19.981
		C20.745,19.979,20.724,19.981,20.724,19.981z M18.356,23.431c0.002-0.01,0.004-0.015,0.007-0.026
		C18.333,23.422,18.346,23.423,18.356,23.431z M41.556,33.544C41.565,33.444,41.556,33.523,41.556,33.544
		C41.558,33.525,41.556,33.544,41.556,33.544z M41.613,33.447c0.021-0.08,0.033-0.161,0.036-0.243
		c-0.084,0.153-0.159,0.309-0.226,0.47C41.429,33.627,41.636,33.33,41.613,33.447C41.634,33.367,41.631,33.355,41.613,33.447z
		 M17.174,27.132C17.163,27.117,17.107,27.044,17.174,27.132L17.174,27.132z M27.194,40.974
		C27.326,41.055,27.26,40.996,27.194,40.974C27.194,40.974,27.231,40.987,27.194,40.974z M17.414,31.723
		c-0.033,0.145,0.028,0.441,0.111,0.639C17.583,32.339,17.368,31.732,17.414,31.723z M42.252,27.47
		c0.039-0.099,0.01-0.198-0.084-0.296c0.373,0.345-0.186-0.717-0.087-0.778c-0.237-0.104-0.221-0.688-0.3-0.917
		c-0.333-0.974-0.784-1.959-1.284-2.859c-1.979-3.565-5.899-5.95-9.988-5.99c0.225,0.065-0.415-0.022-0.534-0.084
		c0.163,0.25-0.544,0.1-0.712,0.081c-0.337-0.038-0.607,0.042-0.958,0.042c0.709,0.102-1.536,0.028-0.285-0.022
		c-0.567-0.109-1.039,0.2-1.592,0.212c0.256,0.139-0.61,0.603-0.443,0.231c-0.304,0.146-0.649,0.222-0.931,0.413
		c0.043,0.008,0.085,0.017,0.127,0.028c-0.8,0.252-1.989,0.834-2.643,1.355c-0.319,0.254-1.366,1.108-1.352,1.088
		c-0.283,0.227-0.58,0.018-0.815,0.369c0.212-0.194-0.29,0.324-0.386,0.376c-0.362,0.174-0.869,1.776-1.268,2.215
		c-0.533,0.585-0.824,1.446-1.034,2.198c-0.115,0.412-0.204,0.831-0.29,1.249c-0.046,0.225-0.274,1.434-0.312,1.226
		c-0.148,1.436,0.03,2.783,0.244,4.165c0.035-0.6-0.476-1.573-0.082-2.111c0.463,1.11,0.081,2.432,0.68,3.565
		c-0.049-0.132-0.093-0.267-0.132-0.403c-0.08,0.033,1.18,2.298,1.37,2.508C18.997,35.22,18.834,35.11,18.671,35
		c0.702,1.314,1.439,2.286,2.469,3.333c-0.042-0.03-0.299-0.139-0.005,0.029c-0.549-0.201,0.551,0.527,0.816,0.699
		c0.093,0.061,0.839,0.503,0.632,0.341c0.151,0.096,0.31,0.176,0.478,0.239c-0.323-0.109,0.469,0.375,0.537,0.404
		c0.447,0.196,0.916,0.347,1.387,0.474c0.721,0.195,1.458,0.319,2.194,0.442c0.115,0.051,0.137,0.078,0.066,0.081
		c0.261,0.01,1.043-0.269,0.511-0.067c0.639-0.015,1.272-0.117,1.905-0.195c-0.784-0.324-1.577-0.179-2.367-0.555
		c-0.272-0.129-0.581-0.186-0.872-0.251c-0.172-0.039-1.385-0.407-0.435-0.178c-2.158-0.313-3.912-1.948-5.183-3.616
		c0.044,0.04,0.38,0.34,0.406,0.314c-2.893-3.834-3.577-9.359-0.812-13.454c2.936-4.349,8.871-6.041,13.683-4.025
		c4.795,2.008,7.461,7.179,6.521,12.262c-0.5,2.703-2.011,5.064-4.118,6.808c-1.081,0.894-2.205,1.549-3.577,1.858
		c-1.15,0.259-2.465,0.449-3.244,1.436c1.385,0.34,2.183,0.395,3.524-0.11c0.813-0.307,2.356-0.446,2.897-1.183
		c0.313-0.427,0.926-0.403,1.28-0.777c0.539-0.523,1.148-0.95,1.656-1.507c1.069-1.171,1.795-2.652,2.319-3.854
		c0.022-0.051,0.264-0.336,0.087-0.153c0.258-1.025,0.66-1.861,0.751-2.938C42.269,29.733,42.313,28.598,42.252,27.47
		C42.354,27.57,42.33,28.9,42.252,27.47z M26.354,40.05l0.016,0.005C26.387,40.031,26.367,40.01,26.354,40.05z M18.567,34.921
		C18.69,35.005,18.683,35,18.567,34.921L18.567,34.921z M22.815,39.663c-0.05-0.043-0.123-0.095-0.205-0.157
		C22.571,39.492,22.567,39.521,22.815,39.663z M28.423,40.557c-0.078,0.002-0.156,0.004-0.234,0.006
		C28.292,40.587,28.545,40.573,28.423,40.557C28.345,40.559,28.559,40.574,28.423,40.557z M27.822,41.075l-0.039-0.04
		C27.745,41.042,27.74,41.054,27.822,41.075z M34.661,21.909C34.646,21.944,34.624,22.004,34.661,21.909
		C34.656,21.921,34.661,21.909,34.661,21.909z M37.896,26.694C37.881,26.69,37.873,26.691,37.896,26.694
		C37.89,26.692,37.896,26.694,37.896,26.694z M37.909,26.67C37.772,26.668,37.894,26.662,37.909,26.67
		C37.885,26.669,37.89,26.659,37.909,26.67z M33.324,21.44C33.327,21.434,33.376,21.362,33.324,21.44L33.324,21.44z M30.073,21.397
		C30.038,21.314,30.065,21.393,30.073,21.397C30.073,21.397,30.067,21.394,30.073,21.397z M32.52,21.324
		C32.479,21.284,32.379,21.186,32.52,21.324L32.52,21.324z M29.661,21.829c0.25,0.527,0.966,0.224,1.408,0.354
		c0.349,0.102,0.251,0.338,0.702,0.399c0.481,0.065,0.858,0.253,1.285,0.483c1.605,0.861,3.08,2.202,3.369,4.077
		c0.08,0.52,0.499,1.155,0.444,1.67c-0.069,0.639,1.358,0.656,1.361,0.053c0.001-0.339-0.587-3.245-0.582-3.246
		c-0.203-0.003-1.009-1.617-1.204-1.879c-0.211-0.284-0.899-0.829-0.78-0.86c-0.024,0.087-0.022,0.039,0.008-0.143
		c-0.128-0.014-0.194,0.088-0.156-0.084c-0.036,0.06-0.351,0.215-0.136,0.028c-0.334,0.054-1.023-0.461-0.859-0.89
		c-0.03,0.175-1.843-0.513-1.974-0.561c0.089,0.084,0.182,0.196,0.285,0.26c-0.272,0.068-0.242-0.3-0.542-0.182
		c-0.132,0.052-0.379,0.086-0.525,0.161c0.36-0.544-0.215,0.056-0.17-0.48c-0.115,0.027-0.232,0.039-0.35,0.037
		c0.025-0.023,0.044-0.051,0.058-0.083c-0.166-0.003-1.238,0.431-1.237,0.397C29.916,21.492,29.781,21.654,29.661,21.829
		C29.688,21.887,29.856,21.615,29.661,21.829z M30.201,22.091l-0.003-0.001C30.195,22.117,30.198,22.133,30.201,22.091z
		 M31.957,21.183C31.893,21.286,31.933,21.221,31.957,21.183L31.957,21.183z M30.885,20.98c0.009,0.015,0.024,0.02,0.041,0.02
		C30.935,20.985,30.934,20.974,30.885,20.98z M29.9,21.954C29.86,21.971,29.836,22.019,29.9,21.954
		C29.9,21.954,29.891,21.963,29.9,21.954z M24.661,36.702C24.676,36.667,24.698,36.606,24.661,36.702
		C24.666,36.69,24.661,36.702,24.661,36.702z M21.425,31.917C21.441,31.921,21.449,31.92,21.425,31.917
		C21.432,31.919,21.425,31.917,21.425,31.917z M21.413,31.941C21.55,31.943,21.427,31.949,21.413,31.941
		C21.437,31.942,21.432,31.952,21.413,31.941z M25.998,37.171C25.994,37.176,25.946,37.249,25.998,37.171L25.998,37.171z
		 M29.248,37.213C29.284,37.296,29.256,37.218,29.248,37.213C29.248,37.213,29.255,37.217,29.248,37.213z M26.802,37.286
		C26.843,37.326,26.943,37.425,26.802,37.286L26.802,37.286z M29.661,36.782c-0.25-0.527-0.966-0.224-1.408-0.354
		c-0.349-0.102-0.251-0.338-0.702-0.399c-0.481-0.065-0.858-0.253-1.285-0.483c-1.605-0.861-3.08-2.202-3.369-4.077
		c-0.08-0.52-0.499-1.155-0.444-1.67c0.069-0.639-1.358-0.656-1.361-0.053c-0.001,0.339,0.587,3.245,0.582,3.246
		c0.203,0.003,1.009,1.617,1.204,1.879c0.211,0.284,0.9,0.829,0.78,0.86c0.024-0.087,0.022-0.039-0.008,0.143
		c0.128,0.014,0.194-0.088,0.156,0.084c0.036-0.06,0.351-0.215,0.136-0.028c0.334-0.054,1.023,0.461,0.859,0.89
		c0.03-0.175,1.843,0.513,1.974,0.561c-0.089-0.084-0.182-0.196-0.285-0.26c0.272-0.068,0.242,0.3,0.542,0.182
		c0.132-0.052,0.379-0.086,0.525-0.161c-0.36,0.544,0.215-0.056,0.17,0.48c0.115-0.027,0.232-0.039,0.35-0.037
		c-0.025,0.023-0.044,0.051-0.058,0.083c0.166,0.003,1.238-0.431,1.237-0.397C29.406,37.119,29.541,36.956,29.661,36.782
		C29.634,36.724,29.466,36.996,29.661,36.782z M29.121,36.519l0.003,0.001C29.127,36.494,29.124,36.478,29.121,36.519z
		 M27.364,37.428C27.429,37.325,27.388,37.39,27.364,37.428L27.364,37.428z M28.437,37.631c-0.009-0.015-0.024-0.02-0.041-0.02
		C28.387,37.626,28.387,37.636,28.437,37.631z M29.422,36.657C29.461,36.639,29.486,36.591,29.422,36.657
		C29.422,36.657,29.431,36.648,29.422,36.657z M22.73,8.184C22.762,8.168,22.839,8.12,22.73,8.184
		C22.743,8.178,22.73,8.184,22.73,8.184z M34.622,3.164C34.586,3.186,34.608,3.176,34.622,3.164
		C34.614,3.17,34.622,3.164,34.622,3.164z M34.572,3.144C34.437,3.294,34.57,3.145,34.572,3.144
		C34.551,3.167,34.53,3.159,34.572,3.144z M25.673,10.491C25.67,10.499,25.637,10.58,25.673,10.491L25.673,10.491z M34.467,9.734
		C34.555,9.794,34.49,9.738,34.467,9.734C34.467,9.734,34.485,9.737,34.467,9.734z M27.778,10.292
		c-0.001,0.137,0.098,0.151,0.297,0.042C28.072,10.296,27.806,10.296,27.778,10.292z M36.309,4.533
		c-0.005,1.191-0.236,2.404-0.091,3.577c0.063,0.506,0.084,0.797-0.181,1.234c-0.359,0.593-0.448,0.425-0.876,0.199
		c-0.059-0.031-1.039,0.221-1.394,0.267c-1.042,0.136-1.577,0.468-2.551,0.517c0.358-0.2-0.029-0.054,0.111-0.091
		c-0.445-0.139-0.67,0.125-1.065-0.08c-0.352-0.183-1.168,0.372-0.615-0.231c-0.436,0.138-0.902,0.117-1.334,0.267
		c0.541-0.005-0.201,0.061-0.218,0.127c-0.339-0.125-0.948-0.232-1.269,0.003c0.318-0.007,0.656-0.01,0.966,0.066
		c-0.08,0-0.7,0.068-0.588,0.125c-0.473-0.242-1.428-0.079-1.96-0.029c-0.77,0.073-1.529-0.044-2.291,0.029
		c0.277-0.598-0.163-1.594-0.108-2.141c-0.058-0.036,0.305-0.662,0.299-0.951C23.133,6.808,23.163,6.045,22.9,5.48
		c0.217,0.082,0.118-0.154,0.035-0.227c-0.186-0.162-0.049-0.496-0.049-0.887c-0.112,0.533,0.109,0.264,0.121-0.031
		c0.012-0.287,0.02-0.323-0.115-0.779c0.011,0.143,0.362-0.445,0.25-0.525c0.443,0.161,1.1,0.048,1.558,0.045
		c0.999-0.006,1.998-0.007,2.998-0.004c0.851,0.003,1.702,0.006,2.553,0.023c0.383,0.008,1.177,0.158,1.504-0.096
		c0.011-0.019,1.894,0.045,2.302,0.076c0.788,0.061,1.465,0.067,2.267,0.067c-0.005,0.466-0.008,0.931-0.014,1.397
		c0.001-0.06,0.001-0.12,0.002-0.18C36.31,4.418,36.31,4.475,36.309,4.533C36.306,5.323,36.314,4.065,36.309,4.533z M34.976,9.218
		c-0.418-0.409-0.109-1.272-0.081-1.767c0.051-0.917-0.212-1.823-0.127-2.753c-2.843,0.17-5.71-0.293-8.574-0.079
		C25.17,5.037,24.693,3.99,24.44,5.38c-0.217,1.195,0.011,2.433,0.01,3.636c1.241-0.086,2.493,0.03,3.729-0.144
		c0.418-0.059,0.842-0.086,1.264-0.084c0.225,0.001,1.649-0.058,1,0.248c1.056,0.071,2.272,0.315,3.286-0.1
		C33.245,9.118,34.89,9.277,34.976,9.218C34.557,8.808,35.027,9.183,34.976,9.218z M33.95,9.048l0.009,0
		C33.963,9.021,33.95,9.006,33.95,9.048z M29.346,10.253C29.452,10.121,29.372,10.221,29.346,10.253L29.346,10.253z M32.315,10.229
		c-0.03-0.013-0.072-0.016-0.119-0.014C32.177,10.232,32.183,10.243,32.315,10.229z M34.773,9.732l-0.022-0.034
		C34.734,9.711,34.732,9.723,34.773,9.732z M11.724,5.664C11.695,5.683,11.705,5.679,11.724,5.664
		C11.716,5.67,11.724,5.664,11.724,5.664z M11.709,5.644C11.543,5.791,11.677,5.659,11.709,5.644
		C11.683,5.667,11.676,5.659,11.709,5.644z"/>
</g>
<g id="Layer_1">
</g>
</svg>
