<?xml version="1.0" encoding="iso-8859-1"?>
<!-- Generator: Adobe Illustrator 17.1.0, SVG Export Plug-In . SVG Version: 6.00 Build 0)  -->
<!DOCTYPE svg PUBLIC "-//W3C//DTD SVG 1.1//EN" "http://www.w3.org/Graphics/SVG/1.1/DTD/svg11.dtd">
<svg version="1.1" xmlns="http://www.w3.org/2000/svg" xmlns:xlink="http://www.w3.org/1999/xlink" x="0px" y="0px"
	 viewBox="0 0 68.495 52.277" style="enable-background:new 0 0 68.495 52.277;" xml:space="preserve">
<g id="cards">
	<path style="fill:#F7A13A;" d="M14.493,50.971C14.61,50.935,14.573,50.955,14.493,50.971L14.493,50.971z M0.094,15.989
		C0.062,15.891,0.034,15.802,0,15.696C0.037,15.841,0.067,15.926,0.094,15.989z M32.387,46.011
		C32.254,45.96,32.581,46.085,32.387,46.011L32.387,46.011z M32.203,46.113c-0.214,0.035,0.112-0.079,0.141-0.088
		c-0.248,0.027-0.49,0.083-0.725,0.168C31.642,46.265,32.125,46.11,32.203,46.113C32.034,46.129,32.034,46.129,32.203,46.113
		C31.954,46.154,32.087,46.108,32.203,46.113z M42.114,4.036C42.136,4.085,42.259,4.106,42.114,4.036
		C42.124,4.057,42.114,4.036,42.114,4.036z M66.813,29.414c-0.033-0.056-0.066-0.112-0.099-0.168
		C66.731,29.45,66.764,29.507,66.813,29.414z M54.601,1.02c-0.239,0.307-1.395,0.029-1.479,0.435
		C53.615,1.31,54.108,1.165,54.601,1.02C54.563,1.069,54.108,1.165,54.601,1.02z M64.888,37.169c0.235-0.136-1.191,0.24-1.423,0.306
		c0-0.603-0.445-2.113,0.537-2.192c1.09-0.087,2.487-0.664,3.537-0.143c-0.397-1.133-0.985-3.095-1.224-3.739
		c-0.402-2.211-1.202-4.558-1.94-6.68c0.054,0.346,0.109,0.692,0.163,1.039c-0.112-0.757-0.299-1.499-0.447-2.249
		c-0.011,0.314-0.29,1.039-0.112,0.206c-0.019,0.188-0.305,1.249-0.115,1.344c0.037-0.102,0.072-0.204,0.104-0.307
		c0.266,0.385-0.185,1.207-0.202,1.631c-0.054,1.409,0.022,2.822-0.092,4.229c-0.095,1.169-0.298,2.333-0.273,3.509
		c0.012,0.577,0.277,1.622,0.022,2.15c0.106,0.141-0.104,1.464-0.206,1.885c0.023-0.234,0.025-0.469,0.005-0.704
		c-0.176,1.005-0.256,2.023-0.359,3.038c-0.051,0.502-0.1,1.003-0.148,1.505c0.129,0.259,0.526,0.363,0.748,0.515
		c-1.835,0.327-3.476,0.65-5.332,0.584c-2.931-0.103-5.926-0.1-8.856,0.027c-2.547,0.111-5.258-0.21-7.741,0.472
		c-1.36,0.374-2.718,0.755-4.08,1.118c-0.681,0.182-1.364,0.359-2.048,0.528c-0.342,0.085-0.685,0.167-1.028,0.248
		c-0.023,0.005-1.436,0.522-0.85,0.127c-0.024-0.026-0.6,0.239-0.635,0.297c0.513-0.378-0.88,0.178-1.07,0.242
		c-0.57,0.191-1.123,0.477-1.707,0.619c-0.49,0.119-1.779,0.237-1.986,0.371c-3.278,1.163-6.741,1.692-10.017,2.862
		c0.786-0.31-1.452-0.011-0.37,0.205c-0.266,0.012-2.086,0.277-2.138,0.511c0.353-0.139-0.279-0.006-0.313,0
		c-0.357,0.065-0.711,0.154-1.069,0.213c0.43,0.017,0.363,0.076-0.201,0.177c-0.473,0.14-0.949,0.27-1.425,0.395
		c-0.797,0.21-1.596,0.408-2.393,0.618c-0.445,0.289-0.651,0.162-0.617-0.383c-0.144-0.515-0.295-1.028-0.442-1.542
		c-0.205-0.718-0.405-1.44-0.559-2.171c-0.159-0.754-0.582-4.538-1.544-4.634c0.428,0.134,0.33,0.174-0.294,0.12
		c-0.548,0.013-1.096,0.014-1.644,0.01c-0.915-0.006-1.83-0.025-2.745-0.022c0.004-4.673,0.029-9.347-0.086-14.019
		c-0.051-2.06,0.079-4.199-0.325-6.229c-0.162-0.814-0.536-1.536-0.744-2.33c-0.221-0.84-0.308-1.709-0.522-2.551
		c0.237,0.554-0.115-0.484-0.152-0.593c-0.13-0.388-0.248-0.79-0.408-1.167c0.611,0.957,0.02-0.489-0.028-0.628
		c0.149,0.261-0.178-0.59,0.343-0.7c0.682-0.144,1.903-0.253,1.917-0.99c0.037-1.948,0.01-3.907,0.035-5.859
		c0.086,0.597,0.014-0.497,0.007-0.612C2.371,7.42,2.362,7.001,2.304,6.596C2.646,7.678,2.45,6.129,2.439,5.982
		c0.064,0.423,0.076-0.228,0.077-0.279c0.008-0.483,0.533-0.245,0.93-0.27C3.85,5.407,4.224,5.386,4.629,5.391
		c0.116,0.001,1.067-0.132,0.376-0.146c0.575,0.046,1.15,0.117,1.728,0.088c-1.086,0.131,0.238,0.1,0.48,0.117
		c0.349,0.024,0.864,0.052,1.072-0.307c-0.293,0.031-0.587,0.062-0.88,0.093c1.27-0.183,2.561,0.097,3.824-0.147
		c-0.09,0.027-0.156,0.081-0.199,0.163c0.024,0.136,1.99,0.467,1.366,0.005c0.451,0.059,0.907,0.165,1.363,0.175
		c0.316,0.007,0.755-0.105,1.076-0.056c-0.795,0.32,0.754,0.103,0.841,0.103c0.725,0.003,1.45,0.012,2.175,0.02
		c0.716,0.007,1.433,0.013,2.15,0.007c0.357-0.003,0.714-0.009,1.071-0.018c0.597,0.01,0.713-0.004,0.348-0.042
		c1.622-0.034,3.237,0.221,4.858,0.059c-0.672-0.107,0.272-0.225,0.479-0.32c0.41-0.19,0.813-0.213,1.257-0.172
		c-0.078-0.004-0.133,0.022-0.167,0.079c0.274,0.165,1.138-0.059,1.44-0.128c-0.155-0.024-0.241,0.038-0.257,0.186
		c0.571,0.618,1.943,0.29,2.653,0.198c1.173-0.152,2.237,0.201,3.402,0.087c1.436-0.14,2.85-0.252,4.266-0.55
		c0.814-0.172,1.621-0.376,2.422-0.602c0.313-0.088,0.624-0.18,0.935-0.275c0.061-0.019,1.482-0.315,0.609-0.269
		c2.241-0.502,4.738-0.614,6.757-1.811c-0.419,0.18,0.35,0.115,0.441,0.104c0.886-0.103,1.778-0.504,2.639-0.735
		c-1.473,0.899-3.324,0.978-4.953,1.43c0.059,0.222,7.509-1.898,8.721-2.132c-0.337,0.089-0.675,0.179-1.012,0.268
		C57.136,0.712,58.279,0.208,59.492,0c0.259,1.45,0.585,2.887,0.844,4.337c0.016-0.457,0.033-0.914,0.049-1.371
		c0.126,0.502,0.236,2.805,0.931,2.855c-0.584-0.001,0.675,0.12,0.841,0.12c0.59,0,1.206-0.084,1.793-0.03
		c-0.127,1.468-0.183,2.94-0.307,4.408c0.134-0.437,0.268-0.874,0.403-1.312c-0.02,1.229-0.115,2.459-0.033,3.687
		c-0.184,0-0.066,1.308-0.029,1.434c0.159,0.534,0.326,0.736,0.297,1.403c-0.029,0.667,0.04,1.381-0.012,2.032
		c-0.083-0.015-0.115-0.085-0.096-0.211c-0.01,0.158,0.003,1.128,0.189,1.166c0.009-0.108,0.016-0.215,0.021-0.323
		c0.339,0.288,0.26,1.391,0.3,1.796c0.113,1.144,0.543,2.276,0.805,3.393c0.328,1.397,0.459,2.834,0.845,4.219
		c0.104,0.372,0.613,1.695,0.501,1.78c0.087,0.451-0.138,1.678,0.293,1.97c-0.143-0.097-0.139-0.54-0.176-0.697
		c0.092,1.037,0.283,2.061,0.449,3.088c0.077,0.477,0.156,0.954,0.237,1.431c0.181,0.219,0.608,0.216,0.855,0.304
		C67.292,36.042,66.09,36.606,64.888,37.169C65.132,37.028,66.09,36.606,64.888,37.169z M46.341,5.409
		c0.162,0.024,1.802,0.094,1.022-0.072c2.295,0.095,4.736,0.633,6.996-0.001c-0.452,0.065,0.309,0.202,0.399,0.215
		c0.883,0.13,1.848-0.026,2.739-0.027c-1.655,0.486-3.464,0.085-5.155,0.099c0,0.302,6.008,0.163,6.689,0.006
		c-0.302-1.09-0.606-2.178-0.9-3.27c-1.254,0.301-2.507,0.609-3.758,0.924C51.687,3.959,49.009,4.666,46.341,5.409
		c0.184,0.027,1.284-0.179,1.353-0.348C47.649,5.17,46.439,5.381,46.341,5.409C46.765,5.471,49.242,4.601,46.341,5.409z
		 M33.446,43.385c-1.097,0.006-2.194,0.013-3.291,0.006c-0.549-0.004-1.097-0.011-1.645-0.024c-0.366-0.008-0.731-0.02-1.096-0.034
		c-0.611,0.03-0.727,0.004-0.346-0.079c-0.017-0.031-0.642,0.076-0.691,0.122c0.587-0.23-0.993-0.062-1.206-0.048
		c-0.612,0.038-1.213,0.167-1.829,0.133c-0.457-0.025-1.696-0.189-1.885-0.128c-3.467,0.275-6.949-0.111-10.416,0.172
		c0.84-0.096-1.4-0.386-0.41,0.102c-0.287-0.042-0.575-0.055-0.865-0.038c0.537,1.943,1.074,3.886,1.611,5.83
		c3.658-1.153,7.411-1.96,11.104-2.989c1.734-0.483,3.512-0.786,5.25-1.256C29.656,44.632,31.515,43.912,33.446,43.385
		C31.253,43.398,32.303,43.697,33.446,43.385z M62.242,35.993c0.337-1.621,0.148-3.305,0.029-4.939
		c-0.037,0.348-0.074,0.697-0.111,1.045c0.158-1.371,0.241-2.75,0.269-4.13c0.013-0.667,0.042-1.347-0.021-2.012
		c-0.016-0.163-0.154-1.737-0.049-1.181c-0.132-3.4,0.017-6.803-0.048-10.204c-0.061,0.456-0.121,0.913-0.182,1.369
		c-0.133-1.978-0.126-3.963-0.113-5.944c0.002-0.36,0.005-0.72,0.007-1.08c0.004-0.739,0.306-1.07-0.555-1.091
		c-1.117-0.027-2.234-0.051-3.351-0.072c-4.284-0.08-8.569-0.119-12.854-0.133c-8.575-0.028-17.15,0.043-25.725,0.072
		c-3.87,0.013-7.83,0.023-11.395-0.068c-0.833-0.021-1.667-0.036-2.5-0.032C4.963,7.596,4.673,7.335,4.673,8.125
		c0,0.521,0.001,1.043,0.002,1.564c0.005,2.121,0.018,4.243,0.019,6.364c0.003,8.375-0.069,16.746-0.004,25.121
		c4.397-0.193,8.765,0.011,13.173-0.033c5.211-0.052,10.427-0.067,15.639-0.091c5.283-0.024,10.556,0.201,15.833,0.205
		c2.585,0.002,5.171-0.072,7.756-0.11c1.462-0.022,4.328-0.276,5.54,0.791c-0.091-1.197-0.151-3.245-0.215-3.928
		C62.472,37.326,62.311,36.667,62.242,35.993C62.567,34.432,62.314,36.7,62.242,35.993z M65.018,26.892l-0.013-0.044
		C64.945,26.867,64.986,26.926,65.018,26.892z M60.367,2.891c-0.045,0.219,0.03-0.2,0.029-0.228
		C60.387,2.739,60.377,2.815,60.367,2.891z M64.276,17.358c0.062,0.246,0.124,0.459,0.185,0.609
		C64.298,17.283,64.275,17.256,64.276,17.358z M66.618,32.4c0.021,0.069,0.042,0.137,0.063,0.206
		c-0.135-0.245-0.068-0.567-0.164-0.827c0.023,0.143,0.022,0.64,0.135,0.745C66.65,32.522,66.598,32.28,66.618,32.4
		C66.639,32.468,66.586,32.206,66.618,32.4z M67.053,30.726l0.079,0.098C67.064,30.617,67.049,30.63,67.053,30.726z M26.628,5.078
		c0.073,0.01,0.135-0.016,0.188-0.076C26.754,5.027,26.691,5.053,26.628,5.078z M36.76,5.266c0.024,0.003,0.039,0.005,0.062,0.008
		C36.817,5.256,36.829,5.238,36.76,5.266z M2.439,5.982C2.435,5.879,2.43,5.787,2.425,5.675C2.423,5.826,2.43,5.914,2.439,5.982z
		 M25.862,43.339C25.747,43.257,26.03,43.461,25.862,43.339L25.862,43.339z M25.818,43.342c-0.247-0.038-0.495-0.047-0.744-0.025
		c0.003,0.076,0.51,0.051,0.584,0.074C25.443,43.369,25.787,43.344,25.818,43.342C25.529,43.294,25.761,43.346,25.818,43.342
		C25.571,43.304,25.72,43.348,25.818,43.342z M54.228,43.165l-0.058,0.073C54.221,43.208,54.233,43.185,54.228,43.165z
		 M63.411,36.219c-0.017-0.063-0.035-0.126-0.052-0.188C63.322,36.232,63.339,36.295,63.411,36.219z M57.468,5.579
		c0.021,0.058,1.5,0.202,1.539,0.027C58.501,5.549,57.976,5.577,57.468,5.579z M62.329,33.318l-0.001-0.045
		C62.266,33.274,62.289,33.342,62.329,33.318z M64.049,8.931c-0.1,0.2,0.081-0.186,0.087-0.213
		C64.107,8.789,64.078,8.86,64.049,8.931z M64.081,23.916c-0.004,0.254,0.001,0.476,0.021,0.636
		C64.121,23.85,64.106,23.818,64.081,23.916z M62.449,39.052c0.003,0.072,0.005,0.143,0.008,0.215
		c-0.067-0.272,0.081-0.565,0.055-0.841c-0.015,0.144-0.145,0.624-0.062,0.754C62.449,39.178,62.461,38.931,62.449,39.052
		C62.452,39.124,62.469,38.857,62.449,39.052z M63.337,37.512C63.254,37.536,63.428,37.863,63.337,37.512
		C63.329,37.515,63.344,37.537,63.337,37.512z M11.251,16.122C11.247,16.009,11.247,16,11.251,16.122L11.251,16.122z M14.313,14.034
		c0.01-0.001,0.015-0.002,0.024-0.003C14.327,14.016,14.323,13.998,14.313,14.034z M23.113,34.204
		C23.088,34.182,23.177,34.258,23.113,34.204L23.113,34.204z M23.061,34.277c-0.111,0.009,0.491-0.437-0.221,0.002
		C23.512,34.389,22.871,34.203,23.061,34.277C22.95,34.286,23.013,34.258,23.061,34.277z M17.539,12.99
		C17.541,13,17.623,13.125,17.539,12.99C17.544,13.012,17.539,12.99,17.539,12.99z M29.21,21.9
		C29.042,21.815,29.192,21.913,29.21,21.9C29.21,21.9,29.201,21.907,29.21,21.9z M22.078,13.463c0.057-0.07-0.482-0.119-0.535-0.089
		C21.546,13.358,22.011,13.45,22.078,13.463z M29.895,24.569c0.934,1.907-1.07,3.765-1.484,5.527
		c-0.215,0.917-1.642,2.034-2.386,2.551c-0.828,0.576-1.996,0.865-2.716,1.519c0.201-0.182-0.495,0.03-0.468,0.114
		c-0.391,0.24-0.824,0.255-1.245,0.406c-1.178,0.425-2.51,0.144-3.731,0.193c0.232-0.037-0.38-0.341-0.164,0.078
		c-0.487-0.366-1.314-0.364-1.873-0.574c-0.998-0.376-2.036-0.866-2.928-1.454c-1.525-1.006-2.803-2.389-3.563-4.057
		c-0.37-0.811-0.629-1.672-0.775-2.55c-0.099-0.597,0.096-1.684-0.246-2.15c0.468,0.174,0.112-1.053,0.021-0.835
		c0.084-0.198,0.126-0.404,0.126-0.619c0.197,0.651-0.214-1.413-0.06-0.253c-0.256-0.536,0.203-0.892,0.125-1.407
		c0.238,0.253,0.731-0.448,0.27-0.37c0.029-0.043,0.334-0.435,0.323-0.438c0.209,0.048-0.05-0.614,0.149-0.232
		c0.3-0.986,0.812-1.88,1.476-2.659c0.233-0.273,0.466-0.545,0.699-0.817c0.133-0.154-0.438-0.827,0.18-0.671
		c0.123-0.154,0.209-0.327,0.257-0.519c-0.132,0.56,2.332-1.31,2.502-1.327c0.471-0.274,0.834-0.461,1.352-0.609
		c0.401-0.115,0.76-0.228,1.179-0.263c0.164-0.014,1.317-0.109,1.071-0.209c0.805,0.014,1.751,0.273,2.523-0.057
		c-0.097,0.034,0.908,0.32,1.087,0.348c-0.606,0.064-1.219-0.074-1.823-0.097c-0.008,0.279,1.589,0.357,1.882,0.36
		c0.323,0.004,1.593,0.484,0.815,0.259c0.039-0.079,1.896,1.136,2.058,1.318c-0.067-0.189-0.133-0.378-0.197-0.568
		c0.448,0.25,0.882,0.889,1.434,0.9c0.754,0.016,0.858,0.736,1.435,1.189c-0.125-0.366,0.317,0.362-0.041-0.248
		c0.271,0.322,0.554,0.662,0.752,1.036c0.038,0.072,0.373,0.745,0.158,0.481c0.043,0.464,0.105,0.565,0.186,0.304
		c-0.249,0.313,0.668,1.843,0.731,2.282c0.028,0.2,0.075,1.465,0.251,1.434c-0.007,0.11-0.13,0.897-0.151,0.441
		c-0.136,0.524-0.271,1.047-0.407,1.571c-0.194-0.274-0.182-0.638-0.197-0.956c-0.021-0.456-0.206-0.51-0.377-0.867
		c-0.124-0.26-0.439-1.809-0.443-1.05c0.057-1.693-1.515-3.204-2.78-4.108c0.079,0.121,0.143,0.25,0.192,0.385
		c-2.014-1.199-3.93-2.215-6.342-2.036c-2.197,0.163-4.308,1.061-5.772,2.739c-2.992,3.429-3.035,9.048,0.362,12.255
		c-0.052-0.269,0.29-0.704,0.454-0.996c-0.54,0.149,0.76-1.339,1.007-1.509c0.649-0.449,1.367-0.78,2.082-1.108
		c-3.933-3.514,2.8-9.359,5.513-5.239c0.396,0.601,1.409,1.971,0.326,2.375c-0.887,0.331-0.765-0.436-1.037-1.011
		c-0.207-0.438-0.784-0.729-1.166-1.005c-0.244-0.176-1.436-0.163-1.383-0.028c-0.349-0.518-1.493,1.001-1.631,1.192
		c-0.197,0.273-0.46,1.24-0.294,1.318c0.193-0.058-0.038-0.133,0.224,0.013c-0.067,0.108-0.171,0.124-0.003,0.166
		c-0.083,0.008-0.333,0.229-0.083,0.109c-0.17,0.253,0.006,0.411,0.153,0.681c0.25,0.457,0.145,0.157,0.479,0.129
		c-0.066,0.139-0.016,0.161,0.15,0.068c-0.552,0.283,0.758,0.624,0.883,0.664c0.472,0.149,1.631,0.27,2.074-0.021
		c-0.137-0.608,0.23,0.013,0.253-0.404c-0.033-0.002-0.066-0.01-0.096-0.025c0.069-0.068,1.472-1.054,1.188-1.125
		c0.158-0.245,0.416-0.344,0.569-0.608c0.288,0.276-0.048,1.425,0.117,1.276c-0.451,0.385-0.629,1.057-1.097,1.474
		c1.235,0.44,3.322,1.887,3.642,3.247c0.531-0.604,1.11-1.174,1.549-1.852c0.533-0.824,0.59-1.717,0.896-2.618
		c0.188-0.553,0.535-1.119,1.088-1.349c0.562-0.254,0.616,0.291,0.738,0.545C29.916,24.607,29.776,24.317,29.895,24.569
		C30.007,24.798,29.737,24.234,29.895,24.569z M19.101,27.756C19.117,27.776,19.118,27.757,19.101,27.756
		C19.101,27.756,19.106,27.756,19.101,27.756z M24.547,30.877c-0.121-0.071-1.773-2.714-2.016-2.143
		c0.072-0.508-2.001-0.902-2.351-0.999c-0.447-0.124-1.104,0.004-1.514-0.056c-0.232-0.034-0.482-0.004-0.71,0.041
		c-0.424,0.082-0.104,0.121-0.216,0.397c-0.098-0.123-0.144-0.088-0.139,0.105c0.007-0.448-1.911,0.825-1.982,0.899
		c0.072-0.121,0.152-0.236,0.242-0.345c-0.044-0.012-0.905,0.583-1.125,0.667c0.674,0.168-0.264,0.139,0.154,0.523
		c-0.054,0.055-0.33,0.179-0.306,0.272c0.033-0.006,0.066-0.006,0.099,0c-0.367,0.617-0.967,0.5,0.026,1.084
		c0.865,0.509,1.792,0.856,2.774,1.065C20.1,32.942,22.555,32.402,24.547,30.877C24.369,30.773,24.451,30.95,24.547,30.877z
		 M27.941,21.303l-0.004-0.013C27.877,21.309,27.905,21.321,27.941,21.303z M24.309,14.495
		C24.309,14.497,24.277,14.288,24.309,14.495L24.309,14.495z M28.194,17.865c0.052,0.071,0.098,0.133,0.142,0.171
		C28.221,17.818,28.191,17.825,28.194,17.865z M28.393,22.916c0.018,0.165,0.056-0.113,0.034-0.19
		C28.502,22.308,28.366,23.065,28.393,22.916C28.411,23.08,28.402,22.866,28.393,22.916z M29.169,22.345l0.056,0.029
		C29.202,22.306,29.184,22.312,29.169,22.345z M17.931,25.351C17.935,25.349,18.043,25.291,17.931,25.351L17.931,25.351z
		 M20.254,21.673C20.254,21.672,20.25,21.708,20.254,21.673L20.254,21.673z M20.25,21.673C20.227,21.597,20.16,21.691,20.25,21.673
		C20.24,21.642,20.241,21.675,20.25,21.673z M22.44,24.509C22.507,24.55,22.455,24.518,22.44,24.509L22.44,24.509z M23.045,24.995
		L23.044,25C23.084,25.012,23.071,25,23.045,24.995z M21.594,25.369c0.017-0.014,0.025-0.032,0.019-0.052
		C21.572,25.361,21.572,25.365,21.594,25.369z M23.106,24.299C23.117,24.234,22.961,24.502,23.106,24.299
		C23.114,24.255,23.094,24.316,23.106,24.299z M17.758,28.081C17.758,28.087,17.765,28.209,17.758,28.081L17.758,28.081z
		 M23.523,29.396C23.524,29.395,23.502,29.425,23.523,29.396L23.523,29.396z M23.486,29.407
		C23.485,29.394,23.549,29.287,23.486,29.407C23.484,29.385,23.497,29.386,23.486,29.407z M16.383,28.645
		C16.363,28.623,16.334,28.593,16.383,28.645C16.373,28.633,16.383,28.645,16.383,28.645z M15.553,29.047
		C15.463,29.255,15.527,29.106,15.553,29.047L15.553,29.047z M15.017,29.507C14.991,29.497,15.178,29.57,15.017,29.507
		L15.017,29.507z M14.409,30.573c-0.011,0.018-0.016,0.036-0.009,0.053C14.436,30.58,14.428,30.573,14.409,30.573z M45.396,13.578
		C45.397,13.579,45.438,13.38,45.396,13.578C45.398,13.579,45.396,13.578,45.396,13.578z M46.24,13.766
		c0.002,0.003,0.003,0.005,0.005,0.008C46.245,13.756,46.246,13.738,46.24,13.766z M38.599,13.958
		C38.598,13.956,38.589,13.908,38.599,13.958L38.599,13.958z M38.603,13.955C38.645,14.04,38.699,13.883,38.603,13.955
		C38.623,13.996,38.611,13.949,38.603,13.955z M47.02,13.813C47.02,13.823,47.033,13.954,47.02,13.813
		C47.02,13.836,47.02,13.813,47.02,13.813z M50.95,14.953C50.928,15.072,50.953,14.975,50.95,14.953
		C50.95,14.953,50.951,14.963,50.95,14.953z M48.09,14.132C48.095,14.09,47.807,14.119,48.09,14.132
		C48.091,14.123,48.09,14.132,48.09,14.132z M35.842,16.18c0.626-0.111,1.227,0.117,1.852,0.083
		c0.401-0.022,0.865-0.197,1.214-0.204c1.053-0.022,2.148-0.057,3.238,0.08c1.422,0.178,2.937,0.054,4.383,0.092
		c0.404,0.011,2.943,0.34,2.618-0.177c0.383-0.087,1.18-0.238,1.461,0.151c-0.051-0.053-0.09-0.113-0.118-0.181
		c0.103-0.197,0.783,0.343,0.663-0.265c0.127,0.105,0.232,0.08,0.314-0.074c-0.209-0.224-0.285-0.563-0.517-0.761
		c-0.005,0.141-1.283-0.778-1.459-0.808c0.008,0.049,0.024,0.095,0.049,0.137c-0.037,0.039-0.349-0.134-0.403-0.167
		c0.045,0.786-0.797-0.182-0.344,0.634c-0.214-0.229-0.327-0.347-0.505-0.253c-0.016-0.187-0.08-0.209-0.192-0.364
		c0,0.374-0.374-0.105-0.452,0.231c-0.067-0.054-0.102-0.124-0.105-0.21c0.148,0.01,0.288-0.095,0.43-0.099
		c-0.12,0-0.408,0.064-0.261-0.188c-0.22,0.311-0.955,0.024-1.121-0.214c0.014-0.083-0.485,0.399-0.564,0.356
		c-0.171-0.254-0.579,0.024-0.404-0.514c-0.088,0.269-0.145,0.283-0.169,0.043c-0.084,0.001,0.042,0.505-0.242,0.492
		c-0.206-0.01-0.836,0.083-0.794-0.121c-0.035,0.03-0.063,0.067-0.083,0.109c-0.045-0.098-0.059-0.132-0.121-0.229
		c0.048,0.429-0.11-0.079-0.097-0.169c-0.074,0.172-0.079,0.05-0.197-0.064c-0.075,0.129-0.048,0.483-0.322,0.219
		c0.146,0.378,0.008,0.071-0.036,0.029c0.036,0.278-0.115,0.121-0.155-0.036c-0.015,0.066-0.049,0.119-0.102,0.16
		c0.13-0.085-0.469-0.187-0.535-0.183c-0.391,0.022-0.785,0.008-1.176,0.008c-0.311,0-1.602,0.281-1.722-0.033
		c0.08,0.472-0.884,0.018-1.056,0.084c-0.203,0.078-0.132,0.295-0.335,0.213c-0.289-0.117-0.732-0.034-1.032-0.019
		c-0.211,0.011-1.662,0.144-1.653,0.118C35.445,14.83,35.509,15.446,35.842,16.18C36.559,16.053,35.468,15.355,35.842,16.18z
		 M50.709,16.035l-0.004,0.001C50.705,16.098,50.711,16.074,50.709,16.035z M48.676,14.315
		C48.68,14.315,48.633,14.091,48.676,14.315C48.679,14.315,48.676,14.315,48.676,14.315z M49.925,14.283
		c0.021,0.004,0.04-0.001,0.053-0.021C49.92,14.243,49.917,14.258,49.925,14.283z M51.186,15.915
		C51.307,15.934,50.97,15.731,51.186,15.915C51.217,15.92,51.169,15.9,51.186,15.915z M42.913,17.578
		C42.914,17.579,42.945,17.378,42.913,17.578C42.915,17.579,42.913,17.578,42.913,17.578z M43.546,17.766
		c0.001,0.003,0.002,0.005,0.004,0.008C43.55,17.756,43.551,17.738,43.546,17.766z M37.815,17.958
		C37.815,17.953,37.808,17.91,37.815,17.958L37.815,17.958z M37.818,17.955C37.848,18.033,37.901,17.872,37.818,17.955
		C37.834,17.996,37.824,17.949,37.818,17.955z M44.131,17.813C44.131,17.823,44.141,17.954,44.131,17.813
		C44.132,17.836,44.131,17.813,44.131,17.813z M47.079,18.953C47.062,19.071,47.081,18.975,47.079,18.953
		C47.079,18.953,47.08,18.963,47.079,18.953z M44.934,18.132C44.938,18.081,44.719,18.115,44.934,18.132
		C44.935,18.123,44.934,18.132,44.934,18.132z M35.747,20.18c0.364-0.165,0.817,0.001,1.18,0.075c0.516,0.106,0.899-0.1,1.287-0.095
		c0.761,0.009,1.572-0.169,2.541,0.03c0.639,0.131,1.428-0.055,2.104-0.029c0.354,0.014,3.099,0.385,2.867-0.108
		c0.217-0.066,0.969-0.082,1.096,0.151c-0.032-0.059-0.067-0.118-0.103-0.175c0.06-0.241,0.304,0.047,0.346,0.093
		c0.23-0.375,0.393-0.764,0.013-1.199c0.012,0.031,0.008,0.062-0.013,0.094c-0.35-0.323-0.724-0.82-1.081-0.902
		c0.028,0.072,0.07,0.19-0.045,0.222c-0.05,0.014-0.013-0.274-0.039-0.259c-0.085,0.049-0.284,0.397-0.278,0.377
		c-0.183-0.334-0.262-0.095-0.162,0.264c-0.165-0.235-0.238-0.361-0.379-0.253c-0.003-0.138-0.051-0.259-0.144-0.364
		c0,0.378-0.278-0.119-0.339,0.231c0.063-0.281-0.21-0.121,0.244-0.309c-0.143,0-0.29,0.029-0.196-0.188
		c-0.246,0.141-0.693,0.068-0.841-0.214c0.01-0.085-0.392,0.378-0.423,0.356c-0.111-0.047-0.137-0.089-0.081-0.126
		c-0.244,0.073-0.318-0.056-0.222-0.388c0.009-0.174-0.199,0.594-0.264,0.617c-0.291,0.106-0.592-0.168-0.702-0.095
		c-0.03-0.092-0.108-0.441-0.076-0.06c-0.066-0.103-0.095-0.215-0.087-0.338c-0.102,0.313-0.038-0.316-0.239,0.147
		c0.158-0.267-0.006,0.195-0.017,0.183c-0.047-0.056-0.091-0.114-0.133-0.174c0.031,0.108,0.037,0.143-0.087,0.181
		c-0.097-0.013-0.116-0.076-0.056-0.188c-0.147,0.208-0.121,0.133-0.271-0.083c-0.023,0.216-0.104-0.124-0.096,0.154
		c-0.074-0.254-0.538-0.136-0.836-0.081c-0.246,0.045-1.279,0.064-1.224,0.173c-0.051-0.06-0.089-0.129-0.112-0.204
		c-0.076,0.088-0.073,0.147-0.272,0.151c0.014,0-0.812,0.019-0.633-0.073c-0.476,0.243-0.848,0.233-1.495,0.283
		c-0.038,0.003-0.772,0.038-0.77,0.029C35.46,18.801,35.468,19.475,35.747,20.18C36.39,19.888,35.444,19.413,35.747,20.18z
		 M46.898,20.035l-0.003,0.001C46.895,20.098,46.899,20.074,46.898,20.035z M45.374,18.315
		C45.376,18.315,45.341,18.09,45.374,18.315C45.375,18.315,45.374,18.315,45.374,18.315z M46.31,18.283
		c0.016,0.004,0.03-0.001,0.04-0.021C46.306,18.243,46.304,18.258,46.31,18.283z M47.256,19.915
		C47.364,19.938,47.086,19.722,47.256,19.915C47.279,19.92,47.243,19.9,47.256,19.915z M40.43,24.018
		C40.431,24.019,40.452,23.885,40.43,24.018C40.431,24.019,40.43,24.018,40.43,24.018z M37.032,24.272
		C37.032,24.268,37.027,24.239,37.032,24.272L37.032,24.272z M37.034,24.27C37.053,24.322,37.089,24.214,37.034,24.27
		C37.044,24.297,37.038,24.266,37.034,24.27z M41.243,24.175C41.243,24.183,41.249,24.268,41.243,24.175
		C41.243,24.19,41.243,24.175,41.243,24.175z M43.208,24.935C43.197,25.014,43.209,24.95,43.208,24.935
		C43.208,24.935,43.208,24.942,43.208,24.935z M41.778,24.387C41.78,24.359,41.617,24.364,41.778,24.387
		C41.778,24.382,41.778,24.387,41.778,24.387z M35.653,25.753c0.526-0.25,1.637-0.093,2.23-0.095
		c0.673-0.002,1.347,0.053,2.019,0.086c0.918,0.045,2.578,0.159,3.173-0.145c0.05,0.029,0.091,0.067,0.122,0.116
		c0.134-0.218,0.202-0.578,0.008-0.799c-0.003,0.099-0.611-0.512-0.729-0.539c0.002,0.032,0.011,0.063,0.025,0.091
		c-0.015,0.021-0.436-0.31-0.252,0.275c-0.006-0.057-0.009-0.114-0.009-0.172c0.006,0.117-0.248-0.458-0.113,0.208
		c-0.105-0.149-0.15-0.247-0.253-0.169c-0.003-0.091-0.035-0.172-0.096-0.242c-0.052,0.086-0.127,0.137-0.226,0.154
		c0.177-0.168-0.622-0.121,0.161-0.17c-0.074-0.082-0.232,0.075-0.13-0.162c-0.22,0.138-0.547-0.166-0.608-0.115
		c-0.173,0.143-0.537,0.282-0.437-0.133c-0.044,0.177-0.072,0.188-0.084,0.033c-0.178,0.667-0.331,0.034-0.59,0.241
		c-0.023,0.018-0.044-0.245-0.02,0.034c-0.102-0.045-0.081-0.442-0.217-0.127c0.019-0.218,0.029,0.166-0.011,0.122
		c-0.169-0.185-0.134,0.118-0.184-0.12c0.005-0.004-1.727,0.11-1.767-0.032C37.749,24.739,34.589,23.321,35.653,25.753
		C36.22,25.484,35.458,25.307,35.653,25.753z M43.087,25.656l-0.002,0C43.085,25.698,43.088,25.683,43.087,25.656z M42.071,24.509
		C42.072,24.51,42.049,24.359,42.071,24.509C42.072,24.51,42.071,24.509,42.071,24.509z M43.326,25.576
		C43.398,25.592,43.212,25.447,43.326,25.576C43.341,25.579,43.317,25.566,43.326,25.576z M45.396,28.018
		C45.398,28.019,45.438,27.888,45.396,28.018C45.398,28.019,45.396,28.018,45.396,28.018z M38.599,28.272
		C38.6,28.274,38.589,28.236,38.599,28.272L38.599,28.272z M38.616,28.237C38.627,28.246,38.669,28.371,38.616,28.237
		C38.635,28.252,38.625,28.26,38.616,28.237z M47.02,28.175C47.02,28.182,47.033,28.269,47.02,28.175
		C47.02,28.19,47.02,28.175,47.02,28.175z M50.95,28.935C50.927,29.016,50.953,28.95,50.95,28.935
		C50.95,28.935,50.951,28.942,50.95,28.935z M48.09,28.387C48.093,28.369,47.813,28.381,48.09,28.387
		C48.091,28.382,48.09,28.387,48.09,28.387z M35.842,29.753c2.84-0.334,5.835-0.041,8.687,0.025c1.231,0.029,2.454,0.011,3.68,0.113
		c0.711,0.059,1.707-0.76,2.399-0.122c-0.132-0.112,0.681-0.077,0.858-0.347c-0.206-0.138-0.305-0.387-0.517-0.508
		c-0.006,0.122-1.293-0.52-1.459-0.539c0.01,0.034,0.026,0.065,0.049,0.091c-0.14-0.016-0.274-0.054-0.403-0.111
		c-0.097,0.552-0.605-0.217-0.344,0.423c-0.221-0.157-0.497-0.227-0.698-0.411c0,0.215-0.488,0.124-0.556,0.014
		c0.145-0.011,0.288-0.034,0.43-0.066c-0.313,0-0.882-0.025-1.309-0.157c-0.085-0.026-1.274,0.263-1.041-0.216
		c-0.072,0.174-0.134,0.189-0.187,0.044c-0.297,0.315,0.002,0.338-0.62,0.311c-0.281-0.012-0.589-0.097-0.581-0.047
		c-0.099-0.042-0.138-0.117-0.116-0.225c-0.135,0.209-0.079-0.178-0.319,0.098c-0.053,0.045-0.886,0.003-1.436,0.002
		c-0.349-0.001-2.327,0.254-2.49-0.032C39.993,28.584,33.685,27.43,35.842,29.753C37.589,29.547,35.447,29.328,35.842,29.753z
		 M50.709,29.656l-0.004,0C50.705,29.698,50.711,29.683,50.709,29.656z M48.676,28.509C48.681,28.51,48.634,28.362,48.676,28.509
		C48.679,28.51,48.676,28.509,48.676,28.509z M49.925,28.488c0.021,0.003,0.04-0.001,0.053-0.014
		C49.92,28.461,49.917,28.472,49.925,28.488z M51.186,29.576C51.27,29.585,50.996,29.468,51.186,29.576
		C51.217,29.579,51.169,29.566,51.186,29.576z M49.74,32.018C49.744,32.019,49.801,31.89,49.74,32.018
		C49.743,32.019,49.74,32.018,49.74,32.018z M39.97,32.272C39.972,32.278,39.957,32.233,39.97,32.272L39.97,32.272z M39.975,32.27
		C40.069,32.357,40.081,32.232,39.975,32.27C40.005,32.297,39.987,32.266,39.975,32.27z M52.075,32.175
		C52.075,32.182,52.094,32.269,52.075,32.175C52.076,32.19,52.075,32.175,52.075,32.175z M57.725,32.935
		C57.688,33.02,57.728,32.949,57.725,32.935C57.725,32.935,57.727,32.942,57.725,32.935z M53.614,32.387
		c0.028-0.07-0.032-0.082-0.179-0.035C53.441,32.47,53.514,32.386,53.614,32.387z M57.873,33.059
		c0.168,0.031-0.157-0.147-0.151-0.144c-0.003,0.057-1.835-0.518-2.097-0.539c0.016,0.038,0.039,0.068,0.071,0.091
		c-0.156,0.076-0.425-0.077-0.579-0.111c0.069,0.705-0.957-0.367-0.495,0.423c0.022,0.011-1.174-0.271-0.727-0.265
		c-0.291-0.116-0.846,0.116-1.075-0.132c0.186,0.006,0.497,0.002,0.671-0.061c-0.078,0.028-0.617,0.02-0.429-0.131
		c-0.342,0.162-3.073-0.148-3.003-0.248c-0.066,0.135-0.53,0.426-0.8,0.419c-0.251-0.007-1.229-0.246-1.196-0.11
		c-0.088-0.119-0.235,0-0.167-0.225c-0.186,0.2-0.175-0.13-0.458,0.098c0.26-0.153-0.115,0.109-0.24,0.106
		c-0.212-0.005-0.27-0.091-0.464-0.067c-0.562,0.07-1.153,0.015-1.717-0.002c-0.489-0.015-2.913,0.309-3.222-0.068
		c0.048,0.133-5.172,0.154-5.766,0.229c-0.841,0.107-0.406,1.038-0.086,1.365c0.317,0.324,1.32,0.003,1.738,0.08
		c1.017,0.188,2.2,0.02,3.228-0.011c1.794-0.053,3.58-0.117,5.38-0.077c1.289,0.029,2.571,0.093,3.862,0.098
		c0.99,0.003,1.974,0.011,2.96,0.098c0.339,0.03,2.386,0.062,2.021-0.207c0.626-0.066,1.531-0.265,2.1,0.1
		c-0.219-0.129,1.013-0.113,1.234-0.347C58.25,33.331,58.052,33.21,57.873,33.059C58.02,33.136,58.02,33.136,57.873,33.059
		C58.042,33.09,57.999,33.181,57.873,33.059z M57.378,33.656l-0.005,0C57.372,33.698,57.38,33.683,57.378,33.656z M54.456,32.509
		C54.465,32.51,54.397,32.362,54.456,32.509C54.459,32.51,54.456,32.509,54.456,32.509z M56.251,32.488
		c0.03,0.003,0.057-0.001,0.076-0.014C56.243,32.461,56.239,32.472,56.251,32.488z M58.064,33.576
		C58.145,33.582,57.822,33.48,58.064,33.576C58.109,33.579,58.039,33.566,58.064,33.576z"/>
</g>
<g id="Layer_1">
</g>
</svg>
