<?xml version="1.0" encoding="iso-8859-1"?>
<!-- Generator: Adobe Illustrator 17.1.0, SVG Export Plug-In . SVG Version: 6.00 Build 0)  -->
<!DOCTYPE svg PUBLIC "-//W3C//DTD SVG 1.1//EN" "http://www.w3.org/Graphics/SVG/1.1/DTD/svg11.dtd">
<svg version="1.1" xmlns="http://www.w3.org/2000/svg" xmlns:xlink="http://www.w3.org/1999/xlink" x="0px" y="0px"
	 viewBox="0 0 31.261 30.681" style="enable-background:new 0 0 31.261 30.681;" xml:space="preserve">
<g id="check">
	<path style="fill:#F7A13A;" d="M22.217,17.493C22.359,17.512,22.337,17.509,22.217,17.493L22.217,17.493z M23.59,15.122
		l-0.001,0.02C23.63,15.148,23.609,15.137,23.59,15.122z M6.31,24.618C6.367,24.624,6.349,24.616,6.31,24.618
		C6.326,24.62,6.31,24.618,6.31,24.618z M6.332,24.698c0.057,0.028,0.117,0.041,0.18,0.041c-0.036-0.066-0.072-0.131-0.108-0.197
		C6.355,24.489,6.363,24.708,6.332,24.698C6.389,24.726,6.395,24.719,6.332,24.698z M24.944,13.006
		C24.953,13.016,25.062,13.154,24.944,13.006L24.944,13.006z M31.007,1.913C31.198,1.877,31.03,1.892,31.007,1.913
		C31.007,1.913,31.028,1.895,31.007,1.913z M26.365,10.329c0.083-0.039,0.286-0.037,0.315-0.296
		C26.614,9.99,26.417,10.272,26.365,10.329z M31.083,1.499C31.034,0.994,31.17,0.491,31.261,0c-0.513,0.1-0.559,0.763-1.072,0.911
		c-0.62,0.178-0.279,0.347-0.627,0.782c-0.136,0.17-0.626,0.844-0.467,0.147c-0.067,0.673-0.582,1.202-0.924,1.749
		c-0.668,0.633-1.041,1.495-1.639,2.185c0.158-0.903-0.359-0.14-0.583,0.105C25.564,6.3,25.25,6.782,24.96,7.273
		c-0.521,0.883-0.974,1.777-1.611,2.587c-1.495,1.902-2.614,4.049-4.105,5.968c-1.527,1.967-2.706,4.302-4.406,6.123
		c-1.103,1.182-1.548,3.217-2.929,4.198c-0.179-0.322-0.973-0.602-0.716-0.92c-1.319-0.734-2.143-2.042-3.119-3.143
		c-1.071-1.208-2.15-2.478-3.496-3.387c-1.002-0.677-1.857-2.751-3.207-2.543c-1.592,0.246-1.786,1.622-0.637,2.523
		c1.964,1.54,2.894,3.675,4.875,5.166c0.035,0.026,0.853,0.549,0.6,0.704c0.37-0.226,0.282,0.779,0.707,0.772
		c0.344-0.005,1.193,1.086,1.429,1.337c0.291,0.31,0.907,0.969,0.628,1.087c0.359-0.007,1.075,0.8,0.909,0.705
		c0.384,0.478,1.374,1.758,2.001,1.871c0.434,0.452,0.499,0.543,1.039-0.117c0.565-0.691,0.959-1.49,1.483-2.207
		c0.409-0.561,0.986-0.957,1.436-1.481c0.549-0.64,0.502-1.272,1.142-1.893c0.319-0.31,0.128-0.73,0.641-1.009
		c0.22-0.119,0.173-1.001,0.703-1.037c-0.478-0.201,0.197-0.426,0.215-0.613c0.146,0.181,0.2,0.137,0.162-0.134
		c0.204-0.202,0.205-0.253,0.004-0.154c0.103-0.078,0.182-0.174,0.239-0.289c0.064-0.083,0.642-0.096,0.112,0.17
		c0.567-0.088,0.457-0.663,0.754-0.719c-0.335-0.102-0.325-0.781-0.001-0.385c0.01-0.246,0.095-0.396-0.023-0.493
		c0.059-0.083,0.132-0.099,0.219-0.048c0.097-0.094,0.063-0.13-0.101-0.108c0.482-0.618,1.2-1.319,1.405-2.082
		c0.21-0.78,1.33,0.005,0.989-0.565c0.134-0.104,0.286-0.156,0.456-0.155c-0.838,0.035,0.345-1.027,0.251-1.298
		c-0.05-0.144,1.292-1.377,1.385-1.354c0.031-0.365,0.737-1.747,0.771-1.573c0.217-0.491,0.467-1.4,1.089-1.523
		c-0.421,0.143,0.214-0.731,0.284-0.829c-0.396,0.196-0.674,0.694-0.91,1.045c-0.202-0.275,0.322-0.888,0.479-1.062
		c0.452-0.502,0.496-0.346,0.702-1.045c-0.392,0.563,0.027-0.178,0.145-0.323c0.244-0.299,0.293-0.946,0.367-1.307
		c0.072,0.201,0.149,0.401,0.233,0.598C27.811,7.9,28.05,6.798,28.65,7.325c0.304-0.302,0.168-0.941,0.57-1.181
		c0.004,0.328,0.183-0.337,0.056,0.235c0.188-0.308,0.363-0.669,0.488-1.011c0.048-0.129,0.141-0.852,0.145-0.531
		c-0.317-0.339,1.331-2.821,1.213-2.896c0.128-0.452,0.04-0.548,0.034-0.614C31.131,1.384,31.107,1.442,31.083,1.499
		C31.036,1.013,31.251,1.158,31.083,1.499z M29.46,1.715l0.008-0.009C29.429,1.67,29.392,1.666,29.46,1.715z M27.603,8.463
		C27.535,8.315,27.535,8.315,27.603,8.463L27.603,8.463z M30.027,4.988c-0.046,0.02-0.086,0.064-0.121,0.122
		C29.918,5.151,29.94,5.156,30.027,4.988z M30.49,0.55c-0.01,0.062-0.019,0.123-0.029,0.185C30.683,0.516,30.484,0.56,30.49,0.55
		C30.48,0.612,30.542,0.466,30.49,0.55z M31.256,1.554L31.183,1.54C31.19,1.576,31.209,1.592,31.256,1.554z"/>
</g>
<g id="Layer_1">
</g>
</svg>
