<?xml version="1.0" encoding="iso-8859-1"?>
<!-- Generator: Adobe Illustrator 17.1.0, SVG Export Plug-In . SVG Version: 6.00 Build 0)  -->
<!DOCTYPE svg PUBLIC "-//W3C//DTD SVG 1.1//EN" "http://www.w3.org/Graphics/SVG/1.1/DTD/svg11.dtd">
<svg version="1.1" xmlns="http://www.w3.org/2000/svg" xmlns:xlink="http://www.w3.org/1999/xlink" x="0px" y="0px"
	 viewBox="0 0 57.66 57.859" style="enable-background:new 0 0 57.66 57.859;" xml:space="preserve">
<g id="clock">
	<path style="fill:#F7A13A;" d="M21.444,56.974C21.557,56.998,21.517,56.998,21.444,56.974L21.444,56.974z M7.853,8.791
		C7.907,8.745,7.93,8.683,7.919,8.605C7.897,8.667,7.875,8.729,7.853,8.791z M15.647,3.117c0.022-0.007,0.036-0.012,0.057-0.018
		C15.69,3.085,15.693,3.064,15.647,3.117z M38.775,56.189C38.65,56.15,38.962,56.248,38.775,56.189L38.775,56.189z M38.611,56.304
		c-0.199,0.05,0.099-0.086,0.126-0.098c-0.232,0.044-0.456,0.117-0.67,0.218C38.09,56.487,38.539,56.306,38.611,56.304
		C38.453,56.332,38.453,56.332,38.611,56.304C38.379,56.362,38.501,56.307,38.611,56.304z M24.07,0.312
		C24.073,0.321,24.27,0.445,24.07,0.312C24.078,0.334,24.07,0.312,24.07,0.312z M56.507,23.316
		c-0.031-0.052-0.062-0.104-0.092-0.156C56.421,23.344,56.452,23.396,56.507,23.316z M34.916,0.779
		c0.146,0.033,1.171,0.396,1.238,0.258c-0.247-0.085-1.301-0.51-1.463-0.287C35.13,0.806,34.856,0.771,34.916,0.779
		C35.014,0.801,34.781,0.761,34.916,0.779z M57.656,32.031c-0.043-1.044-0.27-2.068-0.416-3.1c-1.108,1.348-1.48,3.074-1.807,4.744
		c-0.378,1.929-0.869,3.827-1.61,5.652c-1.476,3.636-4.067,6.71-6.931,9.349c-5.684,5.237-13.647,7.942-21.343,6.835
		c-7.459-1.073-14.386-5.25-18.511-11.577c-1.942-2.979-3.391-6.401-4.161-9.875C2.03,30.241,2.183,26.335,3.17,22.803
		C5.697,13.759,11.647,6.55,20.738,3.638c8.847-2.834,18.482-0.932,25.654,4.997c-0.248-0.318-0.531-0.607-0.82-0.889
		c2.5,1.627,4.463,4.061,6.085,6.53c-0.472-0.499,0.363,0.7,0.338,0.663c0.339,0.516,0.713,1.011,1.003,1.558
		c0.588,1.108,1.025,2.392,1.298,3.614c-0.07-0.299-0.14-0.598-0.21-0.897c0.805,1.742,1.558,3.935,1.681,5.862
		c0.026-0.173,0.224,0.657,0.24,0.795c0.12,1.017,0.047,2.067,0.332,3.061c0.087-1.488,0.043-2.981,0.153-4.468
		c0.023,0.197,0.122,0.443,0.091,0.64c0.095-0.599-0.006-1.217-0.052-1.815c0.104-0.06-1.084-4.241-1.2-4.693
		c-0.274-1.07-0.74-2.044-1.272-3.007c-0.197-0.356-0.702-2.065-1.065-2.209c0.023,0.1,0.043,0.2,0.061,0.301
		c-0.162,0.021-0.506-0.966-0.596-1.106c0.358,0.79,0.155-0.142,0.022-0.36c-0.232-0.38-0.514-0.729-0.802-1.067
		c-0.671-0.788-1.332-1.59-2.016-2.365c0.222,0.342,0.588,0.501,0.132,0.266c0.314,0.735-0.406-0.372-0.484-0.459
		c-0.423-0.476-0.847-0.952-1.303-1.397c-0.546-0.532-0.991-0.883-1.693-1.118c-1.495-0.5-2.518-1.823-4.047-2.506
		c0.316,0.289,0.604,0.607,0.872,0.94c-1.72-1.416-3.851-2.164-5.897-2.969c0.318,0.077,0.628,0.177,0.93,0.302
		c-0.653-0.312-1.348-0.519-2.013-0.804c-0.591,0.08-1.981-0.244-2.842-0.393c-0.417-0.072-3.378-0.236-3.372-0.446
		c1.609,0.111,3.217,0.545,4.838,0.422c-0.744-0.115-1.507-0.157-2.245-0.304c-0.104-0.021-1.074-0.261-0.67-0.309
		c-0.976,0.23-1.979-0.01-2.964-0.006c-1.223,0.005-2.453-0.01-3.667,0.157c0.45,0.007,0.367,0.049-0.249,0.127
		c-0.523,0.105-1.048,0.202-1.573,0.298c-1.052,0.192-2.105,0.376-3.152,0.594c-0.996,0.208-1.842,0.535-2.743,1.008
		c-0.616,0.324-1.956,0.699-2.369,1.262c-0.655,0.892-1.883,1.058-2.74,1.628c-0.762,0.506-1.861,2.28-2.863,2.166
		C9.466,7.124,9.485,7.022,9.611,6.936C9.444,7.178,8.973,7.905,8.674,7.961C8.659,7.899,8.68,7.844,8.738,7.796
		C8.419,8.033,8.177,8.287,8.052,8.67C7.966,8.933,7.489,9.683,7.941,9.328c-0.455,0.653-1.048,1.243-1.556,1.855
		c-0.319,0.385-0.638,0.771-0.951,1.161c-0.057,0.071-0.586,0.761-0.286,0.401c-0.542,0.955-1.128,1.884-1.662,2.844
		c-0.304,0.548-0.59,1.107-0.841,1.681c-0.104,0.238-0.504,1.772-0.535,1.115c-0.152,0.27-0.188,0.698-0.304,0.978
		c-0.166,0.402-0.422,0.766-0.58,1.171c0.591-0.441-0.198,1.27-0.331,1.26c-0.069-0.059-0.106-0.134-0.111-0.225
		c-0.064,1.225-0.552,2.38-0.555,3.615c0.011-0.282,0.023-0.563,0.034-0.845c0.591,0.24-0.021,1.494-0.004,1.922
		c-0.003-0.049-0.019-0.432-0.029-0.433c-0.014,0.55-0.106,1.092-0.185,1.635c0.055-0.722,0.082,0.516,0.097,0.579
		C0.215,28.358,0.374,30.017,0,29.646C0.113,29.9,0.245,31.35,0.147,30.87c0.218,5.972,2.545,12.144,6.446,16.7
		c1.916,2.237,4.167,4.214,6.639,5.816c1.342,0.87,2.754,1.637,4.221,2.274c0.726,0.315,1.467,0.598,2.221,0.839
		c0.294,0.094,0.59,0.181,0.888,0.261c0.391,0.105,0.898,0.489,0.676,0.054c0.244,0.091,0.498,0.157,0.745,0.239
		c0.063,0.021,0.856,0.285,0.497,0.237c0.108-0.128,1.828,0.367,2.047,0.453c-0.839-0.614,1.189-0.017,0.402-0.042
		c3.105,0.146,6.247,0.364,9.314-0.278c0.506-0.106,1.116-0.138,1.779-0.245c0.588-0.094,1.14-0.332,1.675-0.585
		c0.28-0.131,0.563-0.252,0.852-0.362c0.078-0.03,1.215-0.654,0.696-0.176c0.026-0.058,0.545-0.361,0.57-0.339
		c-0.495,0.419,0.668-0.17,0.697-0.181c0.579-0.217,1.148-0.461,1.707-0.727c1.002-0.478,1.971-1.027,2.9-1.635
		c0.933-0.61,1.827-1.279,2.674-2.004c0.474-0.406,0.933-0.829,1.374-1.27c0.131-0.13,1.192-1.138,0.768-0.902
		c2.352-2.555,4.691-5.742,5.806-9.078c0.847-2.535,2-5.263,1.911-7.988C57.653,31.966,57.666,32.293,57.656,32.031
		C57.614,30.998,57.669,32.38,57.656,32.031z M54.814,21.063l-0.011-0.039C54.743,21.045,54.781,21.096,54.814,21.063z
		 M42.206,3.534c0.119,0.166-0.117-0.145-0.14-0.164C42.113,3.424,42.16,3.479,42.206,3.534z M52.656,12.666
		c0.145,0.189,0.263,0.359,0.353,0.479C52.673,12.579,52.612,12.583,52.656,12.666z M55.941,25.98
		c0.012,0.062,0.024,0.125,0.036,0.187c-0.1-0.224,0.011-0.506-0.058-0.741C55.892,24.718,55.963,26.525,55.941,25.98
		C55.953,26.043,55.935,25.81,55.941,25.98z M56.584,24.534l0.066,0.096C56.608,24.436,56.591,24.447,56.584,24.534z M11.437,12.185
		C11.542,12.067,11.522,12.007,11.437,12.185C11.451,12.17,11.437,12.185,11.437,12.185z M17.904,7.439
		c0.019-0.007,0.03-0.011,0.047-0.017C17.941,7.414,17.944,7.399,17.904,7.439z M37.17,51.655
		C37.057,51.632,37.332,51.689,37.17,51.655L37.17,51.655z M37.138,51.669c-0.192,0.043-0.378,0.105-0.557,0.186
		C36.614,51.942,37.079,51.694,37.138,51.669C37.007,51.705,37.007,51.705,37.138,51.669C36.946,51.712,37.067,51.699,37.138,51.669
		z M24.915,5.096C24.917,5.102,25.082,5.183,24.915,5.096C24.921,5.11,24.915,5.096,24.915,5.096z M52.115,24.216
		C51.98,23.976,52.115,24.217,52.115,24.216C52.115,24.216,52.111,24.228,52.115,24.216z M34.954,5.661
		c-0.112,0.037-0.943-0.287-1.181-0.258C33.779,5.369,34.843,5.633,34.954,5.661z M50.873,22.27l-0.009-0.033
		C50.824,22.251,50.852,22.296,50.873,22.27z M48.787,15.34c0.121,0.157,0.22,0.3,0.292,0.403
		C48.796,15.272,48.747,15.274,48.787,15.34z M51.806,26.436c-0.043,0.137-0.028,0.183,0.045,0.136
		c0.004-0.205-0.02-0.405-0.074-0.603C51.736,25.32,51.836,26.911,51.806,26.436C51.798,26.595,51.797,26.295,51.806,26.436z
		 M52.199,25.236l0.047,0.082C52.212,25.155,52.201,25.163,52.199,25.236z M27.806,18.069
		C27.806,18.068,27.608,18.023,27.806,18.069C27.806,18.067,27.806,18.069,27.806,18.069z M27.993,17.146
		c0.003-0.002,0.005-0.004,0.008-0.006C27.983,17.141,27.965,17.14,27.993,17.146z M28.041,16.293
		C28.051,16.292,28.181,16.278,28.041,16.293C28.063,16.292,28.041,16.293,28.041,16.293z M29.18,11.994
		C29.3,12.019,29.203,11.991,29.18,11.994C29.18,11.994,29.19,11.993,29.18,11.994z M28.359,15.122
		c-0.062-0.018-0.08,0.027-0.053,0.136C28.477,15.29,28.356,15.211,28.359,15.122z M30.262,12.258l0.001,0.004
		C30.326,12.262,30.302,12.256,30.262,12.258z M28.542,14.481C28.543,14.477,28.319,14.528,28.542,14.481
		C28.543,14.479,28.542,14.481,28.542,14.481z M28.511,13.115c0.004-0.023-0.001-0.043-0.021-0.058
		C28.47,13.121,28.486,13.124,28.511,13.115z M30.142,11.736C30.16,11.613,29.963,11.966,30.142,11.736
		C30.147,11.702,30.127,11.755,30.142,11.736z M9.345,19.04C9.345,19.04,9.232,19.208,9.345,19.04
		C9.345,19.039,9.345,19.04,9.345,19.04z M9.207,18.744c0.001-0.003,0.002-0.005,0.003-0.008
		C9.201,18.752,9.191,18.767,9.207,18.744z M11.4,19.788C11.395,19.798,11.38,19.827,11.4,19.788L11.4,19.788z M11.398,19.79
		C11.428,19.71,11.288,19.873,11.398,19.79C11.412,19.751,11.392,19.794,11.398,19.79z M9.017,18.579
		C9.021,18.572,9.084,18.454,9.017,18.579C9.028,18.56,9.017,18.579,9.017,18.579z M7.049,30.251
		C7.048,30.251,7.035,30.453,7.049,30.251C7.048,30.25,7.049,30.251,7.049,30.251z M6.781,30.064
		C6.78,30.06,6.78,30.059,6.779,30.056C6.779,30.074,6.779,30.092,6.781,30.064z M9.202,29.871
		C9.203,29.882,9.205,29.915,9.202,29.871L9.202,29.871z M9.201,29.874C9.188,29.791,9.148,29.999,9.201,29.874
		C9.195,29.833,9.198,29.88,9.201,29.874z M6.534,30.016C6.534,30.008,6.529,29.873,6.534,30.016
		C6.534,29.994,6.534,30.016,6.534,30.016z M10.665,41.108C10.665,41.108,10.755,41.29,10.665,41.108
		C10.664,41.108,10.665,41.108,10.665,41.108z M10.34,41.08c-0.002-0.003-0.003-0.004-0.005-0.006
		C10.344,41.089,10.352,41.105,10.34,41.08z M12.341,39.702C12.347,39.712,12.365,39.739,12.341,39.702L12.341,39.702z
		 M12.362,39.75C12.341,39.729,12.265,39.611,12.362,39.75C12.345,39.733,12.342,39.721,12.362,39.75z M10.102,41.162
		C10.098,41.156,10.027,41.04,10.102,41.162C10.091,41.143,10.102,41.162,10.102,41.162z M19.234,48.711
		C19.234,48.711,19.403,48.823,19.234,48.711C19.234,48.711,19.234,48.711,19.234,48.711z M18.938,48.849
		c-0.003-0.001-0.005-0.002-0.008-0.003C18.946,48.855,18.962,48.864,18.938,48.849z M19.982,46.656
		C19.992,46.661,20.022,46.675,19.982,46.656L19.982,46.656z M19.984,46.658C19.905,46.628,20.067,46.767,19.984,46.658
		C19.945,46.643,19.988,46.663,19.984,46.658z M18.774,49.039C18.766,49.035,18.649,48.972,18.774,49.039
		C18.754,49.028,18.774,49.039,18.774,49.039z M27.805,49.784C27.805,49.784,27.603,49.77,27.805,49.784
		C27.805,49.783,27.805,49.784,27.805,49.784z M27.992,49.516c0.003-0.001,0.005-0.001,0.008-0.002
		C27.982,49.515,27.964,49.514,27.992,49.516z M28.04,49.269C28.047,49.269,28.182,49.265,28.04,49.269
		C28.062,49.269,28.04,49.269,28.04,49.269z M29.208,48.023C29.109,48.024,29.296,48.032,29.208,48.023
		C29.199,48.023,29.219,48.024,29.208,48.023z M28.395,48.971C28.325,48.942,28.26,48.916,28.395,48.971L28.395,48.971z
		 M30.261,48.1l0.001,0.001C30.325,48.101,30.301,48.1,30.261,48.1z M28.541,48.744C28.541,48.744,28.313,48.759,28.541,48.744
		C28.542,48.744,28.541,48.744,28.541,48.744z M30.141,47.949C30.168,47.896,29.945,48.022,30.141,47.949
		C30.146,47.939,30.126,47.954,30.141,47.949z M38.412,47.645C38.412,47.645,38.23,47.735,38.412,47.645
		C38.412,47.644,38.412,47.645,38.412,47.645z M38.44,47.32c0.003-0.002,0.004-0.003,0.006-0.005
		C38.431,47.323,38.415,47.332,38.44,47.32z M38.358,47.081C38.365,47.077,38.479,47.007,38.358,47.081
		C38.377,47.07,38.358,47.081,38.358,47.081z M38.747,45.417C38.662,45.467,38.828,45.381,38.747,45.417
		C38.74,45.421,38.757,45.412,38.747,45.417z M38.517,46.645C38.442,46.655,38.372,46.665,38.517,46.645L38.517,46.645z
		 M39.698,44.958l0.001,0.001C39.754,44.927,39.733,44.938,39.698,44.958z M38.53,46.376C38.53,46.375,38.34,46.502,38.53,46.376
		C38.53,46.375,38.53,46.376,38.53,46.376z M39.519,44.886C39.516,44.826,39.386,45.048,39.519,44.886
		C39.518,44.876,39.509,44.899,39.519,44.886z M46.526,40.497C46.525,40.496,46.413,40.665,46.526,40.497
		C46.525,40.496,46.526,40.497,46.526,40.497z M46.387,40.201c0.001-0.003,0.002-0.005,0.003-0.008
		C46.381,40.208,46.372,40.224,46.387,40.201z M46.224,39.986C46.224,39.986,46.153,40.118,46.224,39.986
		C46.224,39.986,46.224,39.986,46.224,39.986z M45.702,38.401C45.653,38.487,45.754,38.33,45.702,38.401
		C45.698,38.409,45.709,38.392,45.702,38.401z M46.117,39.578C46.057,39.625,46.001,39.668,46.117,39.578L46.117,39.578z
		 M46.296,37.527h0.001C46.328,37.473,46.315,37.493,46.296,37.527z M45.993,39.339C45.993,39.338,45.892,39.543,45.993,39.339
		C45.993,39.338,45.993,39.339,45.993,39.339z M45.635,39.168c-0.004-0.007-0.011-0.005-0.025,0.01
		C45.616,39.204,45.625,39.191,45.635,39.168z M46.105,37.556C46.073,37.506,46.07,37.761,46.105,37.556
		C46.099,37.546,46.102,37.571,46.105,37.556z M49.978,30.251C49.978,30.251,49.965,30.453,49.978,30.251
		C49.978,30.25,49.978,30.251,49.978,30.251z M49.711,30.064c-0.001-0.003-0.001-0.005-0.002-0.008
		C49.709,30.074,49.709,30.092,49.711,30.064z M49.464,30.016C49.464,30.008,49.459,29.873,49.464,30.016
		C49.464,29.994,49.464,30.016,49.464,30.016z M48.218,28.848C48.218,28.947,48.227,28.76,48.218,28.848
		C48.218,28.857,48.219,28.837,48.218,28.848z M49.165,29.66C49.137,29.73,49.11,29.796,49.165,29.66L49.165,29.66z M53.022,29.743
		c-0.065-0.022-0.12-0.059-0.164-0.111c-0.017,0.09-0.043,0.101-0.08,0.033c0.48,4.684-1.273,9.157-3.914,13.003
		c-1.462,2.129-2.598,3.514-4.551,5.107c-0.966,0.788-2,1.493-3.087,2.103c-0.536,0.302-1.086,0.58-1.647,0.832
		c-0.275,0.124-0.554,0.241-0.835,0.351c-0.043,0.017-1.06,0.58-0.707,0.216c-0.152,0.097-0.309,0.184-0.472,0.262
		c0.392-0.396-0.524,0.139-0.609,0.172c-0.425,0.164-0.833,0.363-1.275,0.477c-0.773,0.199-1.575,0.353-2.358,0.506
		c-2.529,0.495-5.137,0.495-7.689,0.195c0.709,0.039-1.094-0.445-0.332,0.018c-0.408-0.141-1.559-0.345-1.6-0.351
		c-0.055,0.056-1.017-0.343-1.147-0.389c0.499,0.265-0.745-0.12-0.87-0.166c-0.542-0.201-1.085-0.4-1.626-0.604
		c-1.251-0.472-2.426-1.162-3.587-1.818c-2.348-1.327-4.4-3.065-6.129-5.137c-1.617-1.937-2.891-4.162-3.801-6.513
		c-0.458-1.182-0.822-2.401-1.083-3.641c-0.13-0.617-0.234-1.239-0.312-1.864c-0.039-0.312-0.071-0.625-0.097-0.938
		c0.006,0.075-0.145-1.448-0.026-0.765c-0.107-0.051-0.077-1.028-0.139-1.196c0.247,0.303,0.113-0.958,0.122-1.195
		c0.006-0.14-0.057-1.164-0.086-0.622c0.058-0.453,0.123-0.906,0.14-1.363c-0.002,0.915,0.09-0.164,0.121-0.304
		c0.064-0.288,0.158-0.675-0.062-0.931c-0.015,0.234-0.029,0.467-0.044,0.701c0.009-0.275,0.263-1.053,0.096-1.277
		c-0.305-0.409,0.468-1.25,0.389-1.725c-0.011,0.082,0.02,0.137,0.093,0.166c0.175-0.172,0.595-1.359,0.247-1.035
		c0.109-0.309,0.22-0.617,0.335-0.924c0.009-0.024,0.395-1.366,0.377-0.653c0.568-1.776,1.599-3.325,2.524-4.927
		c-0.082,0.131-0.11,0.161-0.083,0.091c0.618-1.09,1.673-1.935,2.408-2.944c-0.262,0.248-0.243,0.18,0.057-0.203
		c0.194-0.376,0.314-0.744,0.665-1.016c-0.176,0.259,0.612-0.551,0.731-0.709c-0.158,0.22,1.032-0.555,1.228-0.71
		c1-0.789,2.027-1.347,3.069-2.074c1.257-0.878,2.8-1.435,4.262-1.86c0.75-0.218,1.51-0.398,2.273-0.563
		c0.469-0.101,0.939-0.196,1.41-0.289c-0.004,0.001,1.51-0.176,0.736-0.197c1.834-0.269,3.695,0.199,5.524-0.126
		c-0.367,0.033,0.213,0.155,0.274,0.168c0.705,0.154,1.445,0.211,2.16,0.311c-1.299,0.031-2.575-0.29-3.867-0.36
		c0.116,0.048,0.117,0.072,0.004,0.073c2.103-0.131,4.772,0.371,6.705,1.258c-0.253-0.104-0.512-0.188-0.777-0.252
		c1.393,0.5,2.762,1.077,4.044,1.822c0.059-0.117,0.051-0.21-0.022-0.277c0.646,0.301,1.286,0.615,1.847,1.06
		c0.207,0.229,0.965,0.879,1.49,1.095c1.372,0.564,2.275,1.688,3.243,2.785c-0.081-0.101-0.289-0.45,0.039,0.006
		c-0.637-1.086,0.138,0.123,0.27,0.296c0.279,0.366,0.618,0.657,0.93,0.991c0.295,0.317,0.574,0.655,0.81,1.018
		c0.11,0.168,0.419,1.12,0.076,0.422c0.162,0.253,0.307,0.515,0.436,0.786c0.018-0.059,0.049-0.11,0.092-0.154
		c0.451,0.542,0.801,1.15,1.06,1.805c-0.07,0.016-0.136,0.007-0.198-0.027c-0.179,0.31,0.447,1.145,0.587,1.399
		c0.344,0.623,0.57,1.265,0.731,1.958c0.117,0.508,1.01,2.998,0.785,3.173c0.046,0.503-0.052,1.02,0.077,1.516
		c-0.224-1.346-0.022,0.206-0.021,0.437c0.001,0.489-0.026,0.978-0.039,1.467c0.352-0.169,0.535,0.221,0.857,0.035
		C53.125,28.345,53.125,29.046,53.022,29.743C53.031,29.661,53.128,29.023,53.022,29.743z M29.813,4.957
		C29.882,4.939,29.815,4.957,29.813,4.957C29.822,4.955,29.813,4.957,29.813,4.957z M52.134,29.826
		c-0.018,0.078-0.041,0.154-0.07,0.229c-0.002-0.068-0.018-0.131-0.049-0.19c-0.105,0.315-0.307-0.121-0.286,0.274
		c-0.03-0.071-0.062-0.141-0.095-0.211c0.055,0.212-0.673,0.203-0.822,0.079c-0.01,0.061-0.027,0.065-0.048,0.013
		c0.004,0.364-0.029-0.101-0.041,0.154c-0.04-0.077-0.068-0.157-0.082-0.243c-0.008,0.054-0.019,0.107-0.032,0.16
		c0.003-0.1-0.045-0.383-0.049-0.036c-0.02-0.06-0.053-0.315-0.011,0.029c-0.1-0.303-0.086,0.134-0.102,0.219
		c-0.005-0.118-0.018-0.134-0.041-0.048c-0.013-0.539,0.087,0.669-0.059-0.354c0.014,0.393-0.021,0.022-0.032-0.06
		c-0.024,0.235-0.302-0.09-0.296-0.095c-0.093,0.08-0.057,0.384-0.06,0.49c-0.006,0.292-0.057-0.56-0.052,0.127
		c0.111-0.34,0.077-0.464-0.101-0.369c0.07,0.014,0.061-0.034-0.027-0.145c0.05,0.084-0.18,0.387-0.179,0.356
		c-0.146-0.163-0.174-0.478-0.355-0.214c0.039-0.214-0.046-0.223,0.02-0.497c-0.023,0.317-0.143-0.095-0.143,0.231
		c-0.04-0.118-0.06-0.239-0.061-0.364c-0.106,0.212-0.111-0.088-0.16-0.253c0.113,0.838-0.092,0.334-0.096,0.262
		c-0.058,0.288,0.119,0.418-0.141,0.206c0.015,0.044,0.021,0.09,0.016,0.137c-0.111-0.106-0.167-0.237-0.166-0.395
		c0.106,0.413-0.309-0.539-0.291-0.507c-0.009,0.031-0.011,0.063-0.005,0.094c-0.13-0.352-0.087-0.842,0.005-1.199
		c0.002,0.068,0.028,0.126,0.077,0.173c0.075-0.079,0.084-0.165,0.025-0.256c0.132,0.577,0.481-0.062,0.748-0.072
		c0.358-0.014,1.568,0.475,1.762,0.012c0.076,0.445,1.059,0.15,1.128,0.105c-0.042-0.514,0.038-1.068-0.126-1.567
		c-0.022-0.068-0.152-0.672-0.173-0.434c-0.144-1.716-0.707-3.401-1.399-4.969c0.066,0.251,0.131,0.502,0.197,0.754
		c-0.255-1.007-0.929-2.262-1.081-3.086c0.047,0.256-0.272,0.011-0.076,0.312c-0.003-0.003-0.148-0.096-0.188-0.135
		c0.154,0.156-0.482,0.512-0.672,0.479c0.021,0.058,0.01,0.07-0.035,0.035c0.186,0.313-0.076-0.073,0.042,0.154
		c-0.073-0.046-0.137-0.102-0.192-0.169c0.02,0.051,0.037,0.102,0.052,0.155c-0.047-0.088-0.23-0.31-0.06-0.006
		c-0.047-0.042-0.203-0.247,0.004,0.03c-0.238-0.213-0.008,0.159,0.021,0.241c-0.063-0.1-0.082-0.107-0.059-0.021
		c-0.28-0.46,0.41,0.536-0.228-0.277c0.209,0.334-0.007,0.03-0.058-0.036c0.096,0.215-0.307,0.074-0.304,0.066
		c-0.04,0.116,0.142,0.361,0.194,0.454c0.141,0.256-0.329-0.457,0.019,0.136c-0.074-0.35-0.165-0.44-0.272-0.269
		c0.068-0.022,0.036-0.06-0.096-0.112c0.106,0.06,0.031,0.412,0.023,0.398c-0.208-0.069-0.39-0.327-0.415-0.008
		c-0.073-0.205-0.151-0.17-0.231-0.441c0.139,0.287-0.171-0.012-0.008,0.272c-0.094-0.082-0.172-0.177-0.235-0.285
		c0.014,0.237-0.14-0.021-0.265-0.139c0.517,0.67,0.088,0.335,0.048,0.275c0.094,0.279,0.312,0.303-0.019,0.248
		c0.035,0.03,0.063,0.067,0.082,0.111c-0.149-0.036-0.263-0.122-0.341-0.259c0.299,0.305-0.539-0.313-0.505-0.294
		c0.008,0.032,0.022,0.06,0.042,0.084c-0.289-0.24-0.497-0.685-0.595-1.041c0.036,0.058,0.087,0.095,0.154,0.111
		c0.026-0.107-0.01-0.185-0.106-0.234c0.403,0.433,0.385-0.294,0.611-0.437c0.303-0.191,1.595-0.372,1.532-0.871
		c0.19,0.229,1.031-0.133,0.848-0.487c0.029,0.034,0.058,0.068,0.089,0.1c-1.493-2.01-3.01-4.119-5.132-5.516
		c0.255,0.226,0.494,0.469,0.716,0.728c-0.753-0.643-1.621-1.304-2.565-1.636c0.173,0.455-0.105,0.533-0.296,0.604
		c0.048,0.039,0.043,0.056-0.013,0.048c0.317,0.178-0.102-0.025,0.113,0.112c-0.087-0.003-0.17-0.02-0.251-0.05
		c0.043,0.034,0.083,0.07,0.122,0.108c-0.085-0.052-0.354-0.152-0.055,0.025c-0.062-0.013-0.3-0.111,0.019,0.024
		c-0.313-0.065,0.073,0.142,0.139,0.198c-0.104-0.055-0.125-0.051-0.062,0.011c-0.473-0.258,0.623,0.258-0.336-0.126
		c0.348,0.184,0.009,0.03-0.068-0.002c0.191,0.138-0.229,0.217-0.23,0.21c0.023,0.121,0.304,0.241,0.395,0.297
		c0.25,0.151-0.513-0.231,0.084,0.108c-0.24-0.266-0.363-0.298-0.37-0.097c0.047-0.053,0.001-0.07-0.139-0.049
		c0.122-0.001,0.233,0.341,0.219,0.333c-0.214,0.045-0.502-0.088-0.363,0.201c-0.166-0.141-0.216-0.071-0.421-0.266
		c0.263,0.178-0.154,0.078,0.129,0.24c-0.122-0.024-0.237-0.067-0.346-0.129c0.13,0.198-0.131,0.053-0.299,0.013
		c0.785,0.321,0.243,0.246,0.179,0.214c0.22,0.194,0.422,0.106,0.108,0.225c0.046,0.009,0.088,0.027,0.126,0.055
		c-0.147,0.044-0.289,0.026-0.425-0.053c0.412,0.114-0.624-0.001-0.585-0.001c0.023,0.023,0.049,0.041,0.078,0.052
		c-0.37-0.064-0.773-0.344-1.036-0.603c0.06,0.033,0.123,0.039,0.189,0.019c-0.031-0.105-0.101-0.155-0.209-0.15
		c0.566,0.174,0.187-0.449,0.311-0.685c0.167-0.317,1.196-1.123,0.891-1.523c0.334,0.123,0.441-0.413,0.498-0.615
		c-0.71-0.34-1.423-0.678-2.162-0.95c-1.187-0.438-2.373-0.848-3.609-1.13c-0.778-0.177-1.578-0.355-2.378-0.374
		c-0.221-0.005-0.708-0.035-0.825,0.225c-0.09,0.2-0.082,1.005,0.165,1.109C30.213,7.76,30.11,8.622,30.43,8.626
		c-0.329,0.152,0.102,0.507,0.029,0.745c-0.161,0.526,0.177,0.512-0.584,0.58c-0.522,0.047-1.045,0.023-1.562-0.054
		c0.194,0.021-0.396-0.907-0.06-0.86c-0.115-0.005-0.118-0.021-0.011-0.048C28.158,8.99,28.078,8.973,28,8.94
		c0.068-0.002,0.131-0.018,0.19-0.049c-0.315-0.105,0.121-0.307-0.274-0.286c0.071-0.03,0.141-0.062,0.211-0.095
		c-0.212,0.055-0.203-0.673-0.079-0.822c-0.061-0.01-0.065-0.027-0.013-0.048c-0.364,0.004,0.101-0.029-0.154-0.041
		c0.077-0.04,0.157-0.068,0.243-0.082c-0.054-0.008-0.107-0.019-0.16-0.032c0.1,0.003,0.383-0.045,0.036-0.049
		c0.06-0.02,0.315-0.053-0.029-0.011c0.303-0.1-0.134-0.086-0.219-0.102c0.118-0.005,0.134-0.018,0.048-0.041
		c0.539-0.013-0.669,0.087,0.354-0.059c-0.393,0.014-0.022-0.021,0.06-0.032c-0.234-0.024,0.09-0.302,0.095-0.296
		c-0.08-0.093-0.383-0.057-0.49-0.06c-0.292-0.006,0.56-0.057-0.127-0.052c0.34,0.111,0.463,0.077,0.369-0.101
		c-0.014,0.07,0.034,0.061,0.145-0.027c-0.098,0.058-0.343-0.115-0.218-0.195c-0.04,0.026-0.189,0.143-0.19,0.192
		c0.091-0.09,0.179-0.182,0.264-0.278c-3.164,0.193-6.239,0.864-9.087,2.28c0.205,0.249,0.412,1.257,0.73,1.217
		c-0.217,0.18,0.124,0.978,0.403,0.822c-0.149,0.212,0.227,0.12,0.008,0.356c0.541-0.056,0.27,0.541,0.599,0.743
		c-0.542,0.451-1.15,0.801-1.805,1.06c0.178-0.078-0.796-0.587-0.482-0.715c-0.102,0.053-0.113,0.041-0.034-0.036
		c-0.072,0.043-0.15,0.069-0.233,0.079c0.058-0.036,0.105-0.082,0.14-0.137c-0.325,0.067-0.049-0.327-0.38-0.111
		c0.003-0.003,0.096-0.148,0.135-0.188c-0.156,0.153-0.512-0.481-0.48-0.672c-0.058,0.021-0.07,0.009-0.035-0.036
		c-0.313,0.186,0.073-0.076-0.154,0.042c0.046-0.073,0.102-0.137,0.169-0.192c-0.051,0.02-0.102,0.037-0.155,0.052
		c0.087-0.047,0.31-0.23,0.006-0.06c0.042-0.047,0.246-0.204-0.03,0.004c0.212-0.238-0.159-0.008-0.241,0.021
		c0.1-0.063,0.107-0.082,0.021-0.059c0.46-0.281-0.536,0.41,0.277-0.228c-0.334,0.209-0.03-0.007,0.036-0.058
		c-0.215,0.096-0.073-0.307-0.066-0.304c-0.116-0.041-0.361,0.142-0.454,0.193c-0.256,0.141,0.457-0.329-0.136,0.019
		c0.35-0.075,0.44-0.165,0.269-0.272c0.023,0.067,0.06,0.035,0.112-0.096c-0.06,0.106-0.412,0.03-0.398,0.023
		c0.245-0.742,0.035-0.105,0.13-0.323c-2.038,1.302-3.853,2.946-5.366,4.831c-0.381,0.475-0.86,0.885-1.131,1.441
		c-0.251,0.515,0.577,1.395,1.002,1.071c-0.098,0.265,0.597,0.785,0.76,0.51c-0.024,0.258,0.257-0.009,0.185,0.304
		c0.441-0.319,0.504,0.333,0.891,0.344c-0.244,0.661-0.595,1.269-1.033,1.82c0.124-0.169-0.991-0.101-0.775-0.378
		c-0.062,0.097-0.077,0.092-0.047-0.015c-0.041,0.073-0.095,0.135-0.163,0.185c0.032-0.06,0.05-0.123,0.053-0.189
		c-0.249,0.221-0.205-0.258-0.385,0.094c0.009-0.077,0.017-0.153,0.023-0.23c-0.059,0.214-0.68-0.15-0.751-0.342
		c-0.04,0.048-0.056,0.043-0.048-0.013c-0.178,0.317,0.025-0.102-0.112,0.113c0.003-0.087,0.02-0.17,0.05-0.251
		c-0.034,0.043-0.07,0.083-0.108,0.122c0.052-0.084,0.153-0.355-0.025-0.055c0.013-0.062,0.112-0.3-0.024,0.019
		c0.065-0.313-0.142,0.073-0.198,0.139c0.055-0.104,0.051-0.125-0.011-0.062c0.258-0.473-0.259,0.623,0.126-0.336
		c-0.184,0.348-0.03,0.009,0.002-0.068c-0.138,0.191-0.217-0.229-0.209-0.23c-0.121,0.023-0.242,0.303-0.297,0.395
		c-0.151,0.25,0.231-0.513-0.108,0.084c0.266-0.239,0.298-0.363,0.097-0.37c0.053,0.047,0.069,0.001,0.049-0.139
		c0.001,0.11-0.408,0.47-0.323-0.121c-1.155,2.24-1.786,4.574-2.327,7.018c-0.128,0.577-0.365,1.238-0.242,1.834
		c0.097,0.47,1.273,0.604,1.425,0.239c0.048,0.279,0.909,0.381,0.913,0.062c0.152,0.329,0.507-0.102,0.745-0.029
		c0.526,0.161,0.512-0.177,0.58,0.584c0.047,0.522,0.023,1.045-0.054,1.562c0.022-0.193-0.907,0.395-0.86,0.06
		c-0.005,0.115-0.021,0.118-0.048,0.011c0.001,0.084-0.015,0.165-0.048,0.242c-0.002-0.068-0.018-0.131-0.049-0.19
		c-0.105,0.315-0.307-0.121-0.286,0.274c-0.03-0.071-0.062-0.141-0.095-0.211c0.055,0.212-0.673,0.203-0.822,0.079
		c-0.01,0.061-0.027,0.065-0.048,0.013c0.004,0.364-0.029-0.101-0.041,0.154c-0.04-0.077-0.068-0.157-0.082-0.243
		c-0.008,0.054-0.019,0.107-0.032,0.16c0.003-0.1-0.045-0.383-0.049-0.036c-0.02-0.06-0.053-0.315-0.011,0.029
		c-0.1-0.303-0.086,0.134-0.102,0.219c-0.005-0.118-0.018-0.134-0.041-0.048c-0.013-0.539,0.087,0.669-0.059-0.354
		c0.014,0.393-0.021,0.022-0.032-0.06c-0.024,0.235-0.302-0.09-0.296-0.095c-0.093,0.08-0.057,0.384-0.06,0.49
		c-0.006,0.292-0.057-0.56-0.052,0.127c0.111-0.34,0.077-0.464-0.101-0.369c0.07,0.014,0.061-0.034-0.027-0.145
		c0.05,0.085-0.18,0.387-0.179,0.356c-0.231-0.259-0.27-0.414-0.263,0.066c0.007,0.473,0.105,0.95,0.196,1.413
		c0.232,1.182,0.531,2.351,0.848,3.513c0.202,0.743,0.421,1.481,0.663,2.211c0.168,0.505,0.353,1.193,0.776,1.553
		c0.291,0.247,1.219-0.257,1.174-0.611c0.18,0.217,0.978-0.124,0.822-0.403c0.212,0.149,0.12-0.227,0.356-0.008
		c-0.056-0.541,0.541-0.27,0.743-0.599c0.451,0.542,0.801,1.15,1.06,1.805c-0.079-0.179-0.587,0.797-0.715,0.482
		c0.053,0.102,0.041,0.113-0.036,0.034c0.043,0.072,0.069,0.15,0.079,0.233c-0.036-0.058-0.082-0.105-0.137-0.14
		c0.067,0.326-0.327,0.048-0.111,0.38c-0.003-0.003-0.148-0.096-0.188-0.135c0.153,0.156-0.481,0.512-0.672,0.48
		c0.021,0.058,0.009,0.07-0.036,0.035c0.186,0.313-0.076-0.073,0.042,0.154c-0.073-0.046-0.137-0.102-0.193-0.169
		c0.02,0.051,0.037,0.102,0.052,0.155c-0.047-0.088-0.23-0.309-0.06-0.006c-0.047-0.042-0.204-0.246,0.004,0.03
		c-0.238-0.213-0.008,0.159,0.021,0.241c-0.063-0.1-0.082-0.107-0.059-0.021c-0.28-0.46,0.41,0.536-0.228-0.277
		c0.209,0.334-0.007,0.03-0.058-0.036c0.096,0.215-0.307,0.073-0.304,0.066c-0.041,0.116,0.142,0.361,0.194,0.454
		c0.141,0.256-0.329-0.457,0.019,0.136c-0.075-0.35-0.165-0.44-0.272-0.269c0.067-0.023,0.035-0.06-0.096-0.112
		c0.106,0.06,0.03,0.412,0.023,0.398c-0.77-0.254-0.082-0.029-0.327-0.131c1.7,2.736,3.959,4.991,6.657,6.741
		c0.107-0.308,0.887-0.985,0.69-1.245c0.265,0.098,0.785-0.597,0.51-0.76c0.258,0.024-0.009-0.257,0.304-0.185
		c-0.319-0.441,0.333-0.504,0.344-0.891c0.661,0.244,1.269,0.595,1.82,1.033c-0.168-0.124-0.101,0.99-0.378,0.775
		c0.097,0.062,0.092,0.077-0.015,0.047c0.073,0.041,0.135,0.095,0.185,0.163c-0.06-0.032-0.123-0.05-0.189-0.053
		c0.22,0.249-0.258,0.205,0.094,0.385c-0.077-0.009-0.153-0.017-0.23-0.023c0.214,0.059-0.15,0.68-0.342,0.752
		c0.047,0.04,0.043,0.056-0.013,0.048c0.317,0.178-0.102-0.025,0.113,0.112c-0.087-0.003-0.17-0.02-0.251-0.05
		c0.043,0.034,0.083,0.07,0.122,0.108c-0.084-0.052-0.356-0.154-0.055,0.025c-0.062-0.013-0.3-0.112,0.019,0.024
		c-0.313-0.065,0.073,0.142,0.139,0.198c-0.104-0.055-0.125-0.051-0.062,0.011c-0.473-0.258,0.623,0.259-0.336-0.126
		c0.348,0.184,0.009,0.03-0.068-0.002c0.191,0.138-0.229,0.217-0.23,0.209c0.023,0.121,0.303,0.242,0.395,0.297
		c0.25,0.151-0.513-0.231,0.084,0.108c-0.239-0.266-0.363-0.298-0.37-0.097c0.047-0.053,0.001-0.069-0.139-0.049
		c0.122-0.001,0.232,0.341,0.219,0.333c-0.689,0.144,0.118,0.339,0.549,0.519c0.836,0.348,1.698,0.637,2.559,0.916
		c1.813,0.589,4.463,1.156,5.799,1.085c0.071-0.03,0.141-0.062,0.211-0.095c-0.212,0.055-0.203-0.673-0.079-0.822
		c-0.061-0.011-0.065-0.027-0.013-0.048c-0.364,0.004,0.101-0.029-0.154-0.041c0.077-0.04,0.157-0.068,0.243-0.082
		c-0.054-0.008-0.107-0.019-0.16-0.032c0.1,0.003,0.383-0.045,0.036-0.049c0.06-0.02,0.315-0.053-0.029-0.011
		c0.303-0.1-0.134-0.086-0.219-0.102c0.118-0.005,0.134-0.018,0.048-0.041c0.539-0.013-0.669,0.087,0.354-0.059
		c-0.393,0.014-0.022-0.021,0.06-0.032c-0.234-0.024,0.09-0.302,0.095-0.296c-0.08-0.093-0.383-0.057-0.49-0.06
		c-0.292-0.006,0.56-0.057-0.127-0.052c0.34,0.111,0.463,0.077,0.369-0.101c-0.014,0.07,0.034,0.061,0.145-0.027
		c-0.085,0.05-0.387-0.18-0.356-0.179c0.163-0.146,0.478-0.174,0.214-0.355c0.214,0.039,0.223-0.046,0.497,0.02
		c-0.317-0.023,0.095-0.143-0.231-0.143c0.118-0.04,0.239-0.06,0.364-0.061c-0.212-0.106,0.088-0.111,0.253-0.16
		c-0.839,0.113-0.334-0.092-0.262-0.096c-0.288-0.058-0.419,0.119-0.206-0.141c-0.044,0.015-0.09,0.021-0.137,0.016
		c0.106-0.111,0.237-0.167,0.395-0.166c-0.413,0.106,0.539-0.309,0.507-0.291c-0.031-0.009-0.063-0.011-0.094-0.005
		c0.352-0.13,0.842-0.088,1.199,0.005c-0.068,0.002-0.126,0.028-0.173,0.077c0.079,0.075,0.165,0.084,0.256,0.025
		c-0.577,0.132,0.062,0.481,0.072,0.748c0.014,0.358-0.475,1.568-0.012,1.762c-0.446,0.076,0.005,0.857-0.172,0.888
		c1.798-0.114,3.639-0.266,5.333-0.928c1.273-0.498,2.858-0.676,3.868-1.681c-0.156,0.154-0.512-0.484-0.48-0.674
		c-0.058,0.021-0.07,0.009-0.035-0.036c-0.313,0.185,0.073-0.076-0.154,0.042c0.046-0.073,0.103-0.137,0.169-0.192
		c-0.051,0.02-0.102,0.037-0.155,0.052c0.087-0.047,0.31-0.23,0.006-0.06c0.042-0.047,0.247-0.204-0.03,0.004
		c0.213-0.238-0.159-0.008-0.241,0.021c0.1-0.063,0.107-0.082,0.021-0.059c0.46-0.28-0.536,0.409,0.277-0.227
		c-0.334,0.209-0.03-0.007,0.036-0.058c-0.215,0.096-0.073-0.307-0.066-0.305c-0.116-0.041-0.361,0.142-0.455,0.193
		c-0.256,0.141,0.457-0.329-0.136,0.018c0.35-0.074,0.44-0.165,0.269-0.272c0.023,0.068,0.06,0.036,0.112-0.096
		c-0.06,0.106-0.412,0.03-0.398,0.023c0.069-0.208,0.327-0.39,0.008-0.415c0.205-0.073,0.17-0.151,0.441-0.231
		c-0.287,0.138,0.012-0.171-0.272-0.009c0.082-0.094,0.177-0.172,0.285-0.234c-0.237,0.013,0.021-0.14,0.139-0.265
		c-0.671,0.518-0.334,0.087-0.275,0.047c-0.278,0.093-0.303,0.312-0.248-0.019c-0.03,0.035-0.067,0.062-0.111,0.082
		c0.036-0.149,0.122-0.263,0.259-0.341c-0.305,0.299,0.314-0.539,0.294-0.505c-0.032,0.008-0.06,0.022-0.084,0.042
		c0.24-0.289,0.686-0.496,1.041-0.594c-0.058,0.036-0.095,0.087-0.111,0.154c0.107,0.026,0.185-0.009,0.234-0.106
		c-0.434,0.403,0.294,0.386,0.437,0.613c0.191,0.303,0.372,1.598,0.871,1.535c-0.219,0.181,0.058,0.585,0.194,0.68
		c0.239,0.167,0.547-0.176,0.703-0.291c0.843-0.62,1.652-1.285,2.427-1.988c1.379-1.251,2.807-2.651,3.678-4.317
		c-0.156,0.308-0.074,0.006-0.049-0.087c-0.059,0.214-0.68-0.15-0.751-0.342c-0.04,0.048-0.056,0.043-0.048-0.013
		c-0.178,0.317,0.025-0.102-0.112,0.113c0.003-0.087,0.02-0.17,0.05-0.251c-0.034,0.043-0.07,0.083-0.108,0.122
		c0.052-0.085,0.153-0.354-0.025-0.055c0.013-0.062,0.112-0.299-0.024,0.019c0.065-0.312-0.142,0.073-0.198,0.139
		c0.055-0.104,0.051-0.125-0.011-0.062c0.258-0.473-0.259,0.623,0.126-0.336c-0.185,0.348-0.03,0.009,0.002-0.068
		c-0.138,0.191-0.217-0.229-0.209-0.23c-0.121,0.023-0.242,0.303-0.297,0.395c-0.151,0.25,0.231-0.513-0.108,0.084
		c0.266-0.239,0.298-0.363,0.097-0.37c0.053,0.047,0.069,0.001,0.049-0.139c0.001,0.122-0.341,0.232-0.333,0.219
		c-0.045-0.214,0.088-0.501-0.201-0.363c0.141-0.166,0.072-0.216,0.266-0.421c-0.178,0.262-0.078-0.154-0.24,0.129
		c0.024-0.122,0.067-0.237,0.129-0.345c-0.198,0.13-0.052-0.132-0.012-0.299c-0.322,0.783-0.246,0.243-0.214,0.179
		c-0.194,0.22-0.106,0.422-0.225,0.108c-0.009,0.046-0.027,0.088-0.055,0.126c-0.044-0.147-0.026-0.289,0.054-0.425
		c-0.115,0.412,0.002-0.624,0.002-0.584c-0.023,0.023-0.041,0.049-0.052,0.078c0.064-0.37,0.345-0.773,0.604-1.035
		c-0.033,0.06-0.039,0.123-0.02,0.189c0.105-0.031,0.155-0.101,0.15-0.209c-0.174,0.566,0.447,0.187,0.684,0.311
		c0.317,0.167,1.12,1.196,1.52,0.891c-0.081,0.219,0.276,0.42,0.408,0.497c0.365,0.215,0.424,0.015,0.639-0.328
		c0.461-0.734,0.723-1.595,0.955-2.423C51.217,34.198,51.663,32.005,52.134,29.826C52.139,29.804,51.808,31.337,52.134,29.826z
		 M48.295,27.795l0.001-0.001C48.296,27.731,48.294,27.755,48.295,27.795z M48.939,29.515
		C48.938,29.514,48.953,29.742,48.939,29.515C48.938,29.514,48.939,29.515,48.939,29.515z M48.143,27.914
		C48.091,27.888,48.216,28.11,48.143,27.914C48.134,27.909,48.149,27.929,48.143,27.914z M47.846,19.651
		C47.846,19.651,47.935,19.833,47.846,19.651C47.845,19.651,47.846,19.651,47.846,19.651z M47.521,19.623
		c-0.002-0.003-0.003-0.004-0.005-0.006C47.524,19.633,47.533,19.648,47.521,19.623z M47.283,19.706
		C47.278,19.698,47.208,19.585,47.283,19.706C47.271,19.686,47.283,19.706,47.283,19.706z M45.619,19.317
		C45.67,19.402,45.584,19.236,45.619,19.317C45.624,19.324,45.615,19.307,45.619,19.317z M46.846,19.547
		C46.857,19.621,46.866,19.691,46.846,19.547L46.846,19.547z M45.16,18.366l0.001-0.001C45.129,18.31,45.139,18.332,45.16,18.366z
		 M46.577,19.534C46.577,19.534,46.704,19.724,46.577,19.534C46.577,19.534,46.577,19.534,46.577,19.534z M45.088,18.546
		C45.029,18.548,45.249,18.679,45.088,18.546C45.078,18.546,45.101,18.556,45.088,18.546z M16.948,10.471
		C16.948,10.471,16.766,10.56,16.948,10.471C16.948,10.47,16.948,10.471,16.948,10.471z M16.976,10.145
		c0.003-0.002,0.004-0.003,0.006-0.005C16.966,10.149,16.951,10.158,16.976,10.145z M18.353,12.146
		C18.344,12.152,18.316,12.171,18.353,12.146L18.353,12.146z M18.306,12.167C18.327,12.146,18.444,12.071,18.306,12.167
		C18.322,12.151,18.334,12.147,18.306,12.167z M16.893,9.908C16.9,9.904,17.015,9.832,16.893,9.908
		C16.913,9.896,16.893,9.908,16.893,9.908z M27.805,6.854C27.805,6.854,27.603,6.84,27.805,6.854
		C27.805,6.853,27.805,6.854,27.805,6.854z M27.992,6.586C27.995,6.586,27.997,6.585,28,6.585
		C27.982,6.585,27.964,6.585,27.992,6.586z M28.185,9.008C28.173,9.008,28.14,9.011,28.185,9.008L28.185,9.008z M28.182,9.006
		C28.266,8.993,28.055,8.954,28.182,9.006C28.223,9,28.176,9.004,28.182,9.006z M30.141,5.019
		C30.168,4.966,29.945,5.092,30.141,5.019C30.146,5.009,30.126,5.025,30.141,5.019z M40.7,11.534
		C40.7,11.534,40.868,11.647,40.7,11.534C40.699,11.535,40.7,11.534,40.7,11.534z M40.404,11.673
		c-0.003-0.001-0.005-0.002-0.008-0.003C40.412,11.679,40.427,11.689,40.404,11.673z M40.239,11.864
		C40.232,11.86,40.114,11.796,40.239,11.864C40.22,11.853,40.239,11.864,40.239,11.864z M38.604,12.362
		C38.69,12.41,38.533,12.31,38.604,12.362C38.612,12.366,38.595,12.355,38.604,12.362z M39.781,11.945
		C39.828,12.005,39.871,12.06,39.781,11.945L39.781,11.945z M37.73,11.769v-0.001C37.675,11.736,37.695,11.749,37.73,11.769z
		 M39.542,12.069C39.541,12.069,39.747,12.17,39.542,12.069C39.541,12.069,39.542,12.069,39.542,12.069z M39.371,12.428
		c-0.007,0.004-0.005,0.011,0.01,0.025C39.407,12.446,39.395,12.438,39.371,12.428z M37.758,11.96
		C37.708,11.992,37.964,11.994,37.758,11.96C37.749,11.966,37.774,11.963,37.758,11.96z M37.357,32.158
		C37.358,32.159,37.489,32.004,37.357,32.158C37.358,32.159,37.357,32.158,37.357,32.158z M38.478,33.076
		C38.473,33.085,38.418,33.204,38.478,33.076C38.467,33.096,38.478,33.076,38.478,33.076z M40.904,35.793
		C40.828,35.886,40.895,35.814,40.904,35.793C40.904,35.793,40.9,35.803,40.904,35.793z M39.135,33.823
		C39.161,33.786,38.925,33.685,39.135,33.823C39.14,33.816,39.135,33.823,39.135,33.823z M40.908,35.969
		c0.003-0.067,0.007-0.135,0.01-0.202c-0.071,0.114-0.588-1.238-0.708-1.342c-0.019,0.045-0.03,0.092-0.031,0.14
		c-0.036,0.013-0.194-0.276-0.223-0.322c-0.356,0.697-0.543-0.478-0.58,0.398c-0.05-0.299-0.068-0.448-0.259-0.442
		c0.077-0.16,0.043-0.219,0.035-0.4c-0.197,0.328-0.225-0.265-0.46,0.001c-0.033-0.309,0.25-0.202,0.402-0.125
		c-0.115-0.066-0.329-0.132-0.105-0.278c-0.3,0.056-0.74-0.387-0.748-0.679c0.053-0.067-0.577,0.118-0.608,0.06
		c-0.124-0.204-0.35-0.339-0.051-0.623c0.103-0.147-0.526,0.391-0.577,0.38c-0.322-0.073-0.538-0.489-0.666-0.494
		c0.016-0.109,0.021-0.133,0.023-0.252c-0.18,0.399-0.037-0.126,0.01-0.189c-0.249,0.202,0.104-0.287-0.316-0.013
		c0.291-0.138-0.097,0.186-0.109,0.148c-0.02-0.075-0.036-0.151-0.048-0.228c-0.079,0.394-0.028,0.069-0.042,0.009
		c-0.089,0.238-0.156,0.08-0.1-0.099c-0.048,0.039-0.1,0.071-0.158,0.094c-0.036-0.106-0.061-0.214-0.076-0.324
		c-0.126,0.168-0.051-0.154-0.175,0.077c0.141-0.719-2.392-0.804-2.262-1.444c-0.15,0.379-0.637-0.143-0.636-0.423
		c0.002-0.437-0.432-0.449-0.927-0.416c-0.583,0.04-0.904-0.005-1.13,0.509c-0.132,0.299-1.154,1.162-1.443,0.736
		c-0.145,0.488-1.496-1.075-1.098-1.804c0.355-0.651,0.623-0.794,1.285-0.648c0.15,0.033,1.983,0.095,1.223,0.721
		c0.125-0.022,0.114-0.255,0.255-0.037c-0.052,0.051-0.092,0.111-0.121,0.178c0.409,0.079,0.828,0.329,1.178-0.232
		c0.073-0.012,0.046-1.613-0.116-1.861c-0.028,0.045-0.047,0.093-0.057,0.144c-0.115-0.023-0.225-0.374-0.283-0.474
		c-0.403,0.595-0.732-0.632-0.701,0.294c-0.1-0.371,0.08-2.093-0.236-2.329c-0.06-0.662-0.082-1.335-0.037-1.999
		c0.036-0.54,0.317-0.991,0.198-1.518c-0.272-1.205-0.099-2.673,0.003-3.909c0.035-0.431,0.337-3.13-0.164-2.785
		c-0.088-0.422-0.253-1.279,0.151-1.598c-0.053,0.055-0.113,0.099-0.181,0.132c-0.19-0.11,0.335-0.857-0.265-0.727
		c0.106-0.136,0.081-0.251-0.074-0.343c-0.222,0.227-0.567,0.318-0.761,0.565c0.136,0.005-0.784,1.443-0.808,1.595
		c0.049-0.009,0.095-0.027,0.137-0.054c0.434,0.45-0.844,0.155,0.206,0.486c-0.208,0.256-0.318,0.666,0.262,0.331
		c-0.197,0.202-0.249,0.425-0.401,0.649c-0.083-0.009,0.185-0.24,0.213-0.256c0.071-0.041-0.73,0.608-0.43,0.37
		c0.347,0-0.054,0.422,0.231,0.494c-0.053,0.07-0.123,0.108-0.21,0.114c0.01-0.161-0.097-0.315-0.099-0.47
		c0,0.111,0.073,0.451-0.188,0.286c0.373,0.298-0.169,1.327-0.18,1.335c-0.016,0.074,0.651,1.248-0.192,0.95
		c0.269,0.096,0.283,0.158,0.041,0.185c0,0.051,0.455,0.008,0.478,0.254c0.02,0.212,0.085,0.922-0.107,0.878
		c0.03,0.038,0.067,0.068,0.109,0.09c-0.096,0.048-0.136,0.067-0.229,0.132c0.424-0.052-0.069,0.122-0.169,0.106
		c0.278,0.131-0.274,0.083,0.147,0.349c-0.126-0.109,0.279-0.089,0.009,0.219c0.065-0.028,0.19-0.01,0.201,0.086
		c-0.055,0.065-0.124,0.106-0.208,0.123c0.06,0.036-0.01,1.247-0.011,1.571c-0.002,0.357,0.288,2.159-0.036,2.294
		c0.26-0.048,0.383,1.197-0.059,1.188c-0.204-0.004-1.221,1.371-1.42,0.599c0.247,0.528-0.078,0.073-0.165,0.212
		c0.179,0.582-0.239,1.429-0.472,1.641c-0.12-0.038-0.113,0.014-0.27,0.094c0.421,0.057-0.096,0.152-0.205,0.096
		c0.2,0.221-0.288,0.102,0.055,0.5c-0.091-0.14,0.242-0.048-0.02,0.296c0.343-0.172,0.06,0.007,0.024,0.054
		c0.235,0.025-0.095,0.661,0.054,0.879c0.298,0.44,0.09,1.254,0.745,1.737c0.373,0.275,0.757,0.541,1.158,0.774
		c0.295,0.172,1.063,0.225,1.181,0.521c-0.018-0.222,0.339-0.205,0.659-0.221c0.603-0.03,0.813-0.077,1.277-0.333
		c1.12-0.618,1.765-0.208,2.762,0.509c1.117,0.803,2.413,1.276,3.546,2.062c0.306,0.212,2.199,1.913,2.212,1.228
		c0.337,0.093,1.02,0.338,1.038,0.773c0.037-0.071,0.627-0.068,0.695-0.038C41.024,36.825,40.889,36.09,40.908,35.969
		C40.9,35.901,40.913,35.933,40.908,35.969z M40.179,36.624l-0.003-0.001C40.145,36.677,40.161,36.659,40.179,36.624z M39.49,34.24
		C39.492,34.242,39.569,34.027,39.49,34.24C39.492,34.241,39.49,34.24,39.49,34.24z M40.458,34.762
		c0.014,0.013,0.031,0.017,0.051,0.005C40.474,34.725,40.464,34.737,40.458,34.762z M40.604,36.73
		C40.693,36.807,40.529,36.469,40.604,36.73C40.625,36.748,40.598,36.71,40.604,36.73z M26.266,26.222
		C26.258,26.207,26.175,26.05,26.266,26.222L26.266,26.222z M27.392,25.61l0.01,0.004C27.393,25.598,27.386,25.581,27.392,25.61z
		 M30.313,32.282C30.311,32.28,30.344,32.329,30.313,32.282L30.313,32.282z M30.309,32.286
		C30.206,32.212,30.219,32.383,30.309,32.286C30.268,32.257,30.3,32.296,30.309,32.286z M31.645,28.414
		C31.526,28.416,31.619,28.414,31.645,28.414L31.645,28.414z M30.538,28.498l-0.001-0.002C30.477,28.514,30.5,28.51,30.538,28.498z
		 M30.59,26.088C30.591,26.085,30.647,25.868,30.59,26.088L30.59,26.088z M31.789,27.089c0.015,0.022,0.031,0.039,0.055,0.044
		C31.822,27.058,31.802,27.068,31.789,27.089z M30.712,28.755C30.703,28.814,30.894,28.631,30.712,28.755
		C30.709,28.775,30.727,28.746,30.712,28.755z"/>
</g>
<g id="Layer_1">
</g>
</svg>
