<?xml version="1.0" encoding="iso-8859-1"?>
<!-- Generator: Adobe Illustrator 17.1.0, SVG Export Plug-In . SVG Version: 6.00 Build 0)  -->
<!DOCTYPE svg PUBLIC "-//W3C//DTD SVG 1.1//EN" "http://www.w3.org/Graphics/SVG/1.1/DTD/svg11.dtd">
<svg version="1.1" xmlns="http://www.w3.org/2000/svg" xmlns:xlink="http://www.w3.org/1999/xlink" x="0px" y="0px"
	 viewBox="0 0 72.206 44.692" style="enable-background:new 0 0 72.206 44.692;" xml:space="preserve">
<g id="cloud">
	<path style="fill:#F7A13A;" d="M11.849,40.7c-0.063,0.042-0.125,0.048-0.186,0.018C11.725,40.712,11.787,40.706,11.849,40.7z
		 M20.752,41.995c0.023,0.003,0.038,0.005,0.059,0.008C20.807,41.986,20.819,41.968,20.752,41.995z M44.314,9.437
		C44.27,9.322,44.401,9.669,44.314,9.437L44.314,9.437z M44.289,9.406c-0.097-0.207-0.22-0.397-0.367-0.572
		c-0.064,0.052,0.223,0.408,0.244,0.481C44.071,9.14,44.271,9.384,44.289,9.406C44.213,9.267,44.213,9.267,44.289,9.406
		C44.191,9.199,44.233,9.336,44.289,9.406z M29.756,42.043C29.757,42.052,29.933,42.206,29.756,42.043
		C29.759,42.066,29.756,42.043,29.756,42.043z M70.552,32.452c-0.064,0.002-0.055,0.161-0.049,0.202
		C70.519,32.587,70.535,32.519,70.552,32.452C70.488,32.454,70.547,32.496,70.552,32.452z M40.669,42.309
		c0.013,0.02,1.438,0.224,1.481,0.027C41.663,42.279,41.157,42.307,40.669,42.309z M72.183,27.129
		c-0.007-0.174-0.014-0.348-0.021-0.522c-0.048,0.051,0.012,0.365-0.036,0.022c-0.155,1.615-0.407,3.257-1.088,4.743
		c0.043-0.145,0.262-0.534,0.185-0.677c0.23,0.429-0.572,1.403-0.744,1.783c-0.035,0.001-0.364,0.961-0.502,1.239
		c-0.203,1.126-1.085,2.066-1.841,2.867c-0.834,0.883-1.661,1.789-2.597,2.567c-0.345,0.286-1.985,0.895-2.131,1.259
		c0.099-0.023,0.199-0.042,0.299-0.06c0.02,0.17-1.161,0.486-1.142,0.53c0.847-0.22-0.095-0.18-0.3-0.114
		c-0.395,0.128-0.775,0.301-1.149,0.479c-1.018,0.485-1.873,0.73-3.008,0.859c0.444,0.018,0.67-0.226,0.288,0.041
		c0.74,0.123-0.402,0.165-0.529,0.177c-0.421,0.041-0.846,0.019-1.266-0.015c-0.817-0.066-1.923-0.327-2.637,0.169
		c-0.146,0.101-1.472,0.342-1.472,0.105c-1.182,0.082-2.365-0.013-3.546-0.033c0.421,0.134,0.841,0.268,1.262,0.403
		c-1.198-0.111-2.399-0.189-3.597-0.296c-1.078-0.096-2.179,0.051-3.247-0.105c0.336,0.001,0.671,0.002,1.007,0.003
		c-1.174-0.087-8.633,0.037-8.633-0.198c1.63-0.015,3.359,0.348,4.958-0.099c-0.757,0-1.551,0.108-2.304,0.034
		c-0.112-0.011-1.101-0.165-0.714-0.223c-2.167,0.63-4.525,0.096-6.729,0.001c0.435,0.071,0.362,0.099-0.217,0.083
		c-0.498,0.019-0.996,0.025-1.494,0.019c-1.008-0.011-2.015-0.068-3.019-0.158c-1.789-0.162-3.501,0.063-5.286,0.01
		c-0.756-0.023-1.5,0.152-2.253,0.186c-0.845,0.039-1.641-0.31-2.483-0.269c-0.559-0.003-1.118,0.047-1.674-0.044
		c-0.288-0.047-1.212-0.722-0.598-0.597c-0.357,0.02-0.897-0.056-1.221-0.212c-0.033-0.065,0.013-0.078,0.137-0.038
		c-0.322-0.149-0.604-0.231-0.96-0.208c-0.294,0.019-1.094-0.18-0.664,0.133c-1.389-0.554-2.532-1.443-3.67-2.392
		c0.277,0.317-0.757-0.633-0.878-0.756c-0.429-0.437-0.823-0.908-1.195-1.395c-0.376-0.494-0.729-1.005-1.069-1.525
		c-0.116-0.177-1.067-1.392-0.517-1.001c-0.104-0.292-0.373-0.551-0.481-0.833c-0.144-0.376-0.2-0.789-0.297-1.178
		c-0.239,0.707-0.526-1.406-0.092-1.029c-0.209-0.274-0.479-3.335-0.499-3.332c0.046,0.018,0.131,0.798,0.1,0.819
		c-0.345-0.055-0.33-0.489-0.306-0.745c0.022-0.225,0.153-1.547,0.166-0.573c0.028-0.513,0.171-1,0.326-1.486
		c-0.152,0.599-0.041-0.458-0.013-0.594c0.054-0.262,0.4-1.836,0.62-1.315c-0.012-0.273,0.54-1.502,0.401-1.063
		c0.989-1.956,2.83-3.467,4.655-4.62c1.644-1.038,3.167-1.317,5.057-1.559c0.734-0.094,1.054-2.812,1.26-3.377
		c1.038-2.853,2.872-5.553,5.415-7.264c1.425-1.07,3.046-2.316,4.828-2.666c0.8-0.157,1.596-0.331,2.397-0.482
		c0.48-0.091,0.961-0.174,1.445-0.241c0.414-0.057,1.077,0.143,0.754-0.206c0.287-0.003,1.446,0.146,1.256,0.157
		c0.074-0.149,1.771,0.136,1.961,0.224c-0.744-0.643,1.085,0.026,0.378-0.027c3.199,0.356,5.9,2.077,8.451,3.919
		c0.274,0.107,0.884,1.039,1.201,1.388c0.776,0.855,1.489,1.596,2.144,2.56c-0.03-0.134-0.11-0.206-0.241-0.217
		c0.897,1.139,1.823,0.208,3.069,0.047c1.562-0.202,3.161,0.104,4.503,0.941c1.042,0.649,1.766,1.525,2.306,2.613
		c0.24,0.483,0.464,0.674,1.012,0.614c0.203-0.022,1.525-0.168,0.817-0.227c2.983-0.397,6.037,0.455,8.548,2.055
		c1.348,0.859,2.58,1.93,3.378,3.328c0.369,0.646,0.773,1.276,1.093,1.948c0.194,0.408,0.356,0.831,0.475,1.268
		c-0.079-0.221,0.308,0.801,0.054,0.383c0.538,1.114,0.911,2.297,1.199,3.498c0.084-0.423,0.587-0.195,0.929-0.163
		c-0.017-0.424-0.357-0.214-0.7-0.188c1.919-2.937-0.472-6.961-2.458-9.196c-2.536-2.854-6.083-4.837-9.898-5.25
		c-0.663-0.072-2.566,0.337-3.029-0.172c-1.249-1.374-2.158-2.545-3.984-3.258c-1.645-0.643-3.458-0.776-5.154-0.301
		c-0.897,0.251-1.02-0.327-1.549-0.975c-0.654-0.801-1.372-1.55-2.144-2.238C37.902,0.12,30.089-1.325,23.408,1.286
		c-3.185,1.244-6.004,3.354-8.111,6.045c-1.164,1.487-2.066,3.133-2.762,4.887c-0.183,0.461-0.39,1.77-0.841,1.995
		c-0.512,0.255-1.129,0.348-1.683,0.468c-3.039,0.663-5.587,2.79-7.32,5.329c-1.893,2.774-3.22,7.035-2.486,10.232
		c0.733,4.261,3.271,8.09,6.724,10.65c4.203,3.115,8.831,3.395,13.886,3.428c5.767,0.038,11.535,0.127,17.302,0.186
		c5.804,0.059,11.715,0.415,17.505-0.047c-0.443-0.051-0.884-0.114-1.326-0.176c3.474-0.005,7.003-0.584,9.963-2.506
		c-0.435,0.386,0.868-0.513,1.001-0.607c0.523-0.372,1.025-0.774,1.509-1.196c1.068-0.934,2.053-1.972,2.919-3.096
		c-0.195,0.221-0.394,0.439-0.598,0.653c0.604-0.954,1.235-1.898,1.719-2.921c0.542-1.147,0.749-2.388,1.152-3.582
		c-0.026,0.203-0.022-0.76,0.091-1.08C72.231,29.019,72.221,28.068,72.183,27.129C72.184,26.955,72.22,28.057,72.183,27.129z
		 M72.184,26.468C72.166,26.545,72.135,26.671,72.184,26.468L72.184,26.468z M69.689,36.877c0.079-0.091,0.134-0.157,0.127-0.162
		C69.761,36.783,69.725,36.831,69.689,36.877z M71.382,26.393c-0.051,0.077,0.591,0.675,0.675,0.763
		C72.086,26.939,71.515,26.508,71.382,26.393z M70.327,35.548l-0.024,0.04C70.359,35.617,70.375,35.545,70.327,35.548z
		 M48.873,42.545c0.189,0.098-0.177-0.08-0.205-0.087C48.736,42.486,48.805,42.515,48.873,42.545z M62.686,40.71
		c0.21-0.105,0.377-0.226,0.495-0.317C62.622,40.72,62.59,40.723,62.686,40.71z M72.054,29.946c-0.029,0.215-0.059,0.43-0.088,0.644
		c0.105-0.27,0.167-0.55,0.185-0.84c-0.078,0.097-0.114,0.206-0.109,0.326C72.054,30.082,72.104,29.804,72.054,29.946
		C72.024,30.161,72.128,29.735,72.054,29.946z M70.985,31.264l-0.022-0.121C70.923,31.35,70.943,31.347,70.985,31.264z
		 M38.597,7.975C38.606,7.969,38.699,7.897,38.597,7.975L38.597,7.975z M33.057,5.798C33.057,5.799,33.056,5.762,33.057,5.798
		L33.057,5.798z M33.06,5.797C33.089,5.869,33.143,5.769,33.06,5.797C33.072,5.827,33.068,5.795,33.06,5.797z M39.593,9.026
		C39.575,9.05,39.551,9.084,39.593,9.026C39.583,9.038,39.593,9.026,39.593,9.026z M41.172,12.077
		C41.098,12.103,41.155,12.083,41.172,12.077L41.172,12.077z M40.101,9.838C40.017,9.74,40,9.719,40.101,9.838L40.101,9.838z
		 M30.634,7.002c1.092-0.247,3.139,0.316,4.173,0.726c1.146,0.454,2.459,1.237,3.323,2.123c0.113,0.116,1.536,1.581,1.597,1.481
		C40.26,11.7,40.341,12.73,41,12.681c0.083-0.199,0.145-0.405,0.188-0.616c-0.063,0.037-0.197-1.188-0.271-1.33
		c-0.022,0.027-0.038,0.058-0.047,0.091c-0.06-0.106-0.105-0.218-0.136-0.336c-0.461,0.277-0.2-0.506-0.52,0.055
		c-0.005-0.235-0.109-0.336-0.096-0.53c0.025-0.369-0.34-0.178-0.39-0.477c0.113,0.065,0.236,0.117,0.354,0.173
		c-0.085-0.093-1.481-1.563-1.286-1.67c-0.359,0.299-1.1-0.196-1.146-0.543c-0.116,0.262-0.061-0.089-0.012-0.142
		c-0.155,0.082-0.077-0.012-0.125-0.132c-0.296,0.112-0.075-0.025-0.158,0.164c0.043-0.022-0.365-0.241-0.338-0.164
		c0.274-0.44-2.78-1.052-2.832-1.342C34.156,6.32,28.834,4.289,30.634,7.002C31.278,6.856,30.344,6.566,30.634,7.002z
		 M40.459,12.314l-0.002-0.002C40.422,12.336,40.438,12.33,40.459,12.314z M40.35,10.294C40.335,10.317,40.45,10.151,40.35,10.294
		L40.35,10.294z M41.043,11.11c0.008,0.016,0.02,0.028,0.037,0.029C41.062,11.09,41.052,11.095,41.043,11.11z M40.742,12.58
		C40.77,12.633,40.779,12.405,40.742,12.58C40.753,12.601,40.745,12.566,40.742,12.58z M7.081,33.315
		C7.082,33.315,7.191,33.238,7.081,33.315C7.092,33.308,7.081,33.315,7.081,33.315z M7.355,33.2
		C7.357,33.198,7.383,33.179,7.355,33.2C7.359,33.197,7.355,33.2,7.355,33.2z M7.365,33.193C7.421,33.152,7.276,33.253,7.365,33.193
		C7.387,33.177,7.361,33.195,7.365,33.193z M7.273,33.161C7.259,33.171,7.204,33.21,7.273,33.161
		C7.272,33.162,7.273,33.161,7.273,33.161z M7.841,32.714C7.905,32.669,7.853,32.706,7.841,32.714
		C7.841,32.714,7.846,32.71,7.841,32.714z M7.409,33.052C7.329,33.108,7.473,32.999,7.409,33.052
		C7.405,33.056,7.409,33.052,7.409,33.052z M8.589,32.325c-0.142,0.077-0.061,0.031-0.007-0.007
		c-0.094,0.067-0.105,0.043,0.018-0.046c-0.098,0.172-0.062,0.035-0.102,0.06c0.33-0.273-0.388,0.203,0.026-0.097
		c-0.191,0.142-0.132,0.089-0.047,0.029c-0.214,0.148-0.405,0.281-0.652,0.462c0.017-0.012,0.034-0.024,0.051-0.036
		c-1.103,0.822,0.18-0.146-0.433,0.32c0.071-0.048,0.055-0.035-0.05,0.039c0.242-0.174-0.043,0.033,0.074-0.053
		c-0.108,0.085-0.249,0.168-0.391,0.274c0.161-0.121,0.342-0.236,0.506-0.35c0.035-0.023-0.311,0.227,0.144-0.099
		c-0.302,0.19-0.03,0.025-0.332,0.243c0.291-0.201-0.109,0.072,0.128-0.086c-0.091,0.063-0.181,0.127-0.271,0.191
		c0.026-0.017,0.051-0.035,0.077-0.052c-0.057,0.006-0.156,0.111-0.23,0.172c0.146-0.119,0.074-0.038,0.24-0.162
		c-0.105,0.075-0.125,0.092-0.062,0.05c-0.071,0.052-0.143,0.103-0.216,0.151c0.137-0.097,0.153-0.107,0.049-0.031
		c0.091-0.062,0.181-0.125,0.27-0.189c-0.194,0.135,0.068-0.04-0.108,0.087c0.179-0.129-0.247,0.176,0.048-0.034
		c-0.585,0.445,0.115-0.082-0.191,0.138c0.06-0.043,0.052-0.036-0.025,0.019c0.073-0.051,0.143-0.098,0.215-0.15
		c-0.133,0.098-0.057,0.044-0.003,0.006c-0.115,0.084,0.021-0.001-0.14,0.108c0.067-0.056,0.056-0.046-0.032,0.032
		c0.408-0.265-0.091,0.055,0.164-0.102c-0.256,0.195,0.221-0.15-0.092,0.074c0.097-0.075,0.114-0.084,0.05-0.027
		c-0.001-0.012,0.245-0.166,0.02-0.01c0.115-0.078,0.139-0.09,0.061-0.028c0.041-0.03,0.046-0.033,0.016-0.008
		c0.14-0.102-0.026,0.026,0.148-0.095c-0.02,0.014-0.039,0.03-0.058,0.047C7.621,33.046,8.612,32.341,8.589,32.325
		C8.452,32.4,8.636,32.358,8.589,32.325z M8.431,32.299L8.431,32.299C8.465,32.275,8.452,32.284,8.431,32.299z M7.458,33.011
		C7.586,32.92,7.46,33.01,7.458,33.011L7.458,33.011z M8.363,32.342C8.283,32.408,8.342,32.357,8.363,32.342
		C8.365,32.34,8.355,32.348,8.363,32.342z M29.333,26.572c-0.13-0.196-0.29-0.383-0.523-0.609
		C28.907,26.127,29.127,26.355,29.333,26.572z M29.337,26.577C29.338,26.59,29.335,26.56,29.337,26.577L29.337,26.577z
		 M42.269,18.836c-1.781,2.159-4.028,4.082-6.015,6.061c-0.68,0.575-1.994,2.189-2.913,3.125c-0.733-0.733-1.411-1.519-2.16-2.235
		c-0.393-0.375-0.576-1.107-1.208-0.96c-0.525,0.122-1.079,0.434-0.912,1.042c0.154,0.561,1.069,1.423,0.345,0.69
		c0.31,0.332,0.008,0.073-0.065,0.022c-0.083-0.087,0.477,0.567,0.231,0.224c1.375,1.178,2.508,2.603,3.77,3.894
		c3.314-3.279,6.912-6.379,9.949-9.924c-0.12-0.077,0.273-0.267,0.275-0.269c0.486-0.472,0.625-0.993,1.191-0.375
		c0.562,0.614,1.058,0.84,0.415,1.498c0.193-0.103,0.309-0.41,0.551-0.427c-0.52,0.701-1.288,1.156-1.872,1.796
		c-0.586,0.643-1.151,1.312-1.811,1.882c0.174-0.193-0.457,0.576-0.604,0.712c-0.117,0.109-1.174,1.06-0.659,0.624
		c-0.113,0.117-1.333,1.29-0.808,0.878c-0.139,0.142-1.069,1.013-0.392,0.271c-0.371,0.373-0.738,0.749-1.083,1.147
		c0.25-0.253,0.19-0.173-0.179,0.241c-0.324,0.371-0.667,0.725-1.013,1.076c-0.69,0.701-1.397,1.393-1.987,2.183
		c0.603-0.406-0.003,0.145-0.105,0.253c0.22-0.833-0.36,0.132-0.551,0.326c-0.439,0.445-0.877,0.89-1.316,1.334
		c-0.614-0.61-1.203-1.274-1.855-1.842c-0.208-0.181-1.026-1.143-0.809-0.974c-0.084-0.078-0.613-0.568-0.415-0.411
		c-0.298-0.371-0.368-0.37-0.211,0.001c-0.582-0.573-1.175-1.132-1.763-1.703c-0.139-0.135-0.833-0.872-0.676-0.771
		c-0.153-0.588,1.031-0.83,0.938-1.563c-0.077-0.611-0.612-1.823,0.035-2.29c-0.384,0.113-0.606,0.608-0.867,0.874
		c-0.004-0.001,0.439-0.532,0.492-0.586c-0.692,0.668-1.414,1.304-2.095,1.983c-0.274,0.273-1.331,1.569-1.379,1.53
		c0.5,0.569,1.074,1.065,1.589,1.619c-0.543-0.285,0.375,0.222,0.486,0.33c0.406,0.396,0.768,0.833,1.171,1.232
		c0.845,0.835,1.69,1.67,2.535,2.505c0.857,0.847,1.715,1.695,2.572,2.542c0.503,0.497,1.336-0.845,1.611-1.123
		c3.436-3.47,6.774-7.047,10.333-10.393c0.373-0.316,0.982-1.142,1.41-1.581c0.477-0.489,0.962-0.972,1.446-1.454
		c0.242-0.241,0.484-0.482,0.726-0.724c-0.372-0.375-0.743-0.751-1.115-1.126c-0.495-0.501-0.991-1.001-1.486-1.502
		c-0.377-0.381-1.132-1.488-1.687-1.592c-0.66-0.123-1.618,1.879-2.203,2.117C42.186,19,42.528,18.582,42.269,18.836
		C41.753,19.461,42.676,18.437,42.269,18.836z"/>
</g>
<g id="Layer_1">
</g>
</svg>
