<?xml version="1.0" encoding="iso-8859-1"?>
<!-- Generator: Adobe Illustrator 17.1.0, SVG Export Plug-In . SVG Version: 6.00 Build 0)  -->
<!DOCTYPE svg PUBLIC "-//W3C//DTD SVG 1.1//EN" "http://www.w3.org/Graphics/SVG/1.1/DTD/svg11.dtd">
<svg version="1.1" xmlns="http://www.w3.org/2000/svg" xmlns:xlink="http://www.w3.org/1999/xlink" x="0px" y="0px"
	 viewBox="0 0 72 7.672" style="enable-background:new 0 0 72 7.672;" xml:space="preserve">
<g id="dash">
	<g>
		<path style="fill:#F6931D;" d="M21.064,0.891C21.034,0.876,21.018,0.903,21.064,0.891L21.064,0.891z"/>
		<path style="fill:#F6931D;" d="M44.686,0.305c0.009,0.001,0.014-0.002,0.023-0.002c0.017-0.08,0.032-0.149,0.048-0.202
			L44.686,0.305z"/>
		<path style="fill:#F6931D;" d="M48.486,0.804c0.009,0.009,0.015,0.013,0.023,0.021C48.507,0.777,48.512,0.729,48.486,0.804z"/>
		<path style="fill:#F6931D;" d="M35.931,1.051c-0.033-0.005-0.051,0.013-0.064,0.039C35.885,1.073,35.905,1.058,35.931,1.051z"/>
		<path style="fill:#F6931D;" d="M14.101,1.317c0,0,0.01-0.004,0.017-0.007c-0.013-0.016-0.027-0.028-0.041-0.048L14.101,1.317z"/>
		<path style="fill:#F6931D;" d="M14.178,1.18c0.084,0.059-0.023,0.113-0.06,0.13c0.092,0.109,0.185,0.117,0.279,0.067
			C14.396,1.254,14.219,1.272,14.178,1.18z"/>
		<path style="fill:#F6931D;" d="M1.47,1.659l0.038-0.05C1.493,1.623,1.481,1.641,1.47,1.659z"/>
		<path style="fill:#F6931D;" d="M36.304,7.114c-0.019,0.011-0.04,0.017-0.057,0.029C36.277,7.147,36.293,7.133,36.304,7.114z"/>
		<path style="fill:#F6931D;" d="M3.464,1.782l0.022-0.196C3.467,1.668,3.462,1.729,3.464,1.782z"/>
		<path style="fill:#F6931D;" d="M44.757,0.101l0.028-0.076C44.775,0.042,44.766,0.069,44.757,0.101z"/>
		<path style="fill:#F6931D;" d="M51.996,0.931c0.001,0.06,0.009,0.108,0.019,0.149c0.004,0,0.008,0.001,0.01,0.001L51.996,0.931z"
			/>
		<path style="fill:#F6931D;" d="M69.692,4.047c-0.001-0.024-0.004-0.05-0.009-0.076L69.612,4.11
			C69.649,4.097,69.675,4.076,69.692,4.047z"/>
		<path style="fill:#F6931D;" d="M56.812,1.78c0.004-0.023,0.016-0.043,0.016-0.068c-0.082-0.066-0.3-0.08-0.577-0.072L56.234,1.88
			L56.812,1.78z"/>
		<path style="fill:#F6931D;" d="M62.078,7.388l-0.513-0.484c1.648-0.223,2.416,0.262,3.827-0.128l-0.078,0.105
			c0.205,0.112,0.321-0.975,2.589,0.353v0.048c0.079-0.008,0.078-0.105,0.235,0.024L67.746,7.01c0.235-0.122,0.44-0.353,0.753-0.385
			c0.067,0.054,0.089,0.153,0.096,0.23l0.768-0.081l0.235,0.313c0.235-0.169,0.128-0.829,0.756-0.462
			c-0.237-0.458,0.312-0.274,0.234-0.508c0.032,0.057,0.104,0.141,0.162,0.22C71.123,6.284,71.826,6.155,72,5.92
			c0,0-1.461-0.964-1.854-1.453c0.526,0.124,0.139-0.056,0.035-0.21l-0.035,0.114c-0.315-0.112-0.315-0.401-0.472-0.481
			c0,0.023,0.005,0.051,0.009,0.08l0.02-0.039c0.015,0.051,0.006,0.086-0.011,0.115c0.004,0.062-0.011,0.11-0.096,0.093l0.016-0.03
			c-0.132,0.042-0.359-0.003-0.458-0.024l-0.002-0.241c-0.233,0.46-1.569-0.701-1.883-0.716c-0.315-0.304-0.706,0.075-1.099-0.077
			c-0.627-0.078-0.313-0.352-0.628-0.56c-0.393-0.151,0.079,0.281-0.078,0.298l-0.471-0.336c0.274-0.029,0.125-0.175,0.075-0.268
			c-0.407-0.041-1.049-0.484-1.174-0.002c-0.549-0.231-0.55-0.424-0.786-0.447C63.189,1.823,63.345,1.903,63.346,2
			c-0.22-0.213-0.105,0.052-0.015,0.1c-0.335,0.209-1.741-0.878-1.811-0.349V1.654c-0.078,0.394,0.047,0.776-0.187,0.994
			l-0.156-0.176l-0.235,0.169c-0.158-0.128-0.08-0.233-0.08-0.281c-0.383,0.182-0.918-0.035-1.383-0.088l0.492,1.074
			c-0.392-0.248-1.099-0.751-1.177-0.406l-0.235-0.361c-0.786-0.689-0.548,0.299-0.862,0.092l-0.395-0.393l0.393,0.007
			c-0.393-0.199-0.55-0.328-0.863-0.584c0,0.004-0.003,0.007-0.003,0.011c0.022,0.016,0.036,0.035,0.038,0.059l-0.055,0.01
			c-0.048,0.196-0.252,0.33-0.529,0.317c-0.393-0.055-0.7,0.234-1.327-0.182l-0.156,0.402l-0.471-0.239v-0.32
			c0.461,0.019,1.33-0.103,1.923-0.119l0.01-0.146c-0.352,0-0.752,0.142-0.984,0.11c-0.113-0.064-0.403-0.397-0.193-0.612
			l-0.217,0.313c-1.174,0.036-1.181,0.051-2.406-0.311l0.106,0.161c-0.243,0.094-0.485,0.186-0.553-0.074
			c-0.735-0.053-1.497-0.254-1.975-0.66l-0.105,0.377c-0.155-0.021-0.388-0.59-0.464-0.063L49.14,0.901
			c-0.212-0.029-0.342,0.187-0.584-0.03c0,0,0,0,0,0C48.555,0.87,48.555,0.87,48.555,0.87c-0.015-0.013-0.031-0.028-0.046-0.044
			c0,0.012,0.001,0.021,0.003,0.031c-0.48-0.167,0.005,0.338-0.545,0.121C47.79,0.71,47.771,1.456,47.503,1.37L47.234,0.83
			c-0.486-0.31-0.569,0.232-1.273,0.234C45.623,0.871,45.46,0.41,45.684,0c-0.308,0.496-0.14,0.323-0.548,0.561
			c-0.063-0.204-0.019-0.247,0.071-0.43c-0.363-0.239-0.224,0.184-0.497,0.172c-0.079,0.384-0.171,0.995-0.26,1.02l0.106,0.12
			c-0.289,0.205-0.606,0.301-0.942,0.108l0.013-0.193l-0.358,0.098l-0.023-0.247l-0.511,0.077l0.07,0.067
			c-0.12,0.033-0.514,0.118-0.74-0.011l0.008-0.137c-0.636-0.428-1.161,0.133-1.906,0.178l0.098-0.28
			c-0.254-0.278-0.07,0.431-0.372,0.292l-0.015-0.344c-0.266,0.452-0.344-0.096-0.528-0.267l0.086,0.451L39.09,1.138
			c-0.38-0.149-0.233-0.569-0.178-0.805l-0.259,0.355l-0.051-0.398c-0.189,0.463-0.189-0.074-0.521,0.174
			c-0.027-0.151,0.057-0.237-0.056-0.301l-0.547,0.561l0.33-0.249l-0.04,0.581c-0.344,0.441-0.466-0.063-0.711,0.099l0.169-0.173
			c-0.401,0.141-0.422-0.106-0.648-0.235c0.07,0.108,0.177,0.269,0.015,0.345c-0.119,0.032-0.065-0.204-0.177-0.269
			c-0.027,0.387-0.314,0.592-0.575,0.41c0.003-0.055,0.009-0.108,0.026-0.143C35.8,1.153,35.766,1.252,35.65,1.159l0.068-0.431
			l-0.223,0.41c-0.148-0.118-0.365,0.194-0.346-0.096l0.084-0.086l-1.125-0.104l-0.016-0.344c-0.111,0.474-0.613-0.18-0.576,0.411
			c-0.212-0.322-0.836,0.228-0.711-0.439c-0.739-0.051-1.138,0.59-2.037,0.266c-0.32-0.566-1.197-0.383-1.773-0.443
			c-1.127,0.237-1.856,0.45-3.008,0.631c-0.693-0.79-1.728,0.272-2.474-0.174l-0.204,0.314c-0.496-0.5-1.252,0.112-1.948-0.376
			c-0.17,0.137-0.26,0.181-0.299,0.192c0.032,0.015,0.079,0.075,0.095,0.274c-0.199-0.14-0.6,0.035-0.572-0.363l0.05-0.041
			c0.029-0.398-0.603,0.186-0.824-0.159l0.122,0.427l-0.376-0.072l0.101-0.082c-1.634,0.947-2.372-0.406-3.906,0.458
			c0.203-0.465-0.302,0.244-0.322-0.264c-0.387-0.64-0.717,0.138-1.034,0.309c0,0.025-0.004,0.054-0.022,0.093L13.82,1.41
			c0.331-0.643-0.399,0.533-0.095-0.014c-1.446-0.481-3.333,0.009-5.007-0.213l0.073,0.165C8.367,1.317,7.839,1.518,7.517,1.254
			C7.195,0.99,6.813,1.674,6.688,1.7C6.335,1.985,6.014,1.418,6.165,1.447C5.788,1.526,5.433,2.114,4.909,1.862
			C4.73,1.316,3.48,2.397,3.464,1.782L3.458,1.834C2.788,1.402,2.155,2.138,1.432,1.746c0,0,0.014-0.045,0.038-0.086L0,3.523
			l0.419,2.052l1.275,1.666L5.147,6.88l2.757,0.651l6.709-0.22l0.479-0.463c1.318,0.809,3.009-0.122,4.429,0.456l0.029-0.398
			c0.4-0.024,0.373,0.223,0.472,0.293c3.725-0.088,7.559-0.619,10.91-0.117c0.323,0.263,1.306,0.108,1.559,0.387
			c1.089-0.487,2.242-0.483,3.331-0.432L35.783,7.08l0.513-0.077c0.022,0.033,0.024,0.08,0.008,0.111
			c0.579-0.353,1.491-0.004,2.2,0.14l-0.041,0.043C42.6,7.37,46.44,6.626,50.543,7.182c1.907,0.65,4.127-0.247,6.315,0.294
			C57.259,7.873,61.687,7.575,62.078,7.388z"/>
		<path style="fill:#F6931D;" d="M68.595,6.855l-0.017,0.002C68.578,7.024,68.604,6.961,68.595,6.855z"/>
		<path style="fill:#F6931D;" d="M59.45,2.268c0.01,0.001,0.019,0.003,0.029,0.004L59.37,2.035L59.45,2.268z"/>
		<path style="fill:#F6931D;" d="M65.308,2.129c-0.263-0.052-0.275-0.012-0.238,0.055C65.164,2.195,65.248,2.182,65.308,2.129z"/>
		<path style="fill:#F6931D;" d="M70.745,6.535c0.138,0.013,0.086-0.087,0.004-0.199c-0.141,0.021-0.239,0.03-0.239,0.03
			C70.588,6.407,70.665,6.495,70.745,6.535z"/>
		<path style="fill:#F6931D;" d="M70.181,4.257l0.043-0.136C70.143,4.154,70.146,4.204,70.181,4.257z"/>
	</g>
</g>
<g id="Layer_1">
</g>
</svg>
