<?xml version="1.0" encoding="iso-8859-1"?>
<!-- Generator: Adobe Illustrator 17.1.0, SVG Export Plug-In . SVG Version: 6.00 Build 0)  -->
<!DOCTYPE svg PUBLIC "-//W3C//DTD SVG 1.1//EN" "http://www.w3.org/Graphics/SVG/1.1/DTD/svg11.dtd">
<svg version="1.1" xmlns="http://www.w3.org/2000/svg" xmlns:xlink="http://www.w3.org/1999/xlink" x="0px" y="0px"
	 viewBox="0 0 112 112" style="enable-background:new 0 0 112 112;" xml:space="preserve">
<g id="disco_x5F_ball_x5F_big">
	<path style="fill:#F7A13A;" d="M54.631,11.777c-0.179-0.376-0.239-4.032,0.015-4.047c0.115,0.104,0.181,0.232,0.199,0.386
		c0.109-1.681,0.49-3.489-0.151-5.112c0.072,0.566,0.116-0.691,0.093-0.886c-0.04-0.34,0.16-0.568,0.262-0.872
		C55.186,0.836,54.964,0.385,55.215,0c0.157,0.489,0.278,0.997,0.545,1.442c0,0.004,0.187,1.029,0.243,1.406
		c0.202,1.361,0.714,2.689,0.781,4.066c-0.023-0.103-0.052-0.204-0.087-0.303c-0.005,0.051,0.056,0.334-0.049,0.131
		c-0.135,0.45,0.173,0.832,0.084,1.268c-0.108,0.207-0.202,0.42-0.281,0.64c-0.05,0.372,0.112,0.723,0.133,1.089
		c-0.137-0.125-0.271-0.252-0.403-0.383c0.115,0.378,0.23,0.757,0.322,1.142c0.045,0.19,0.121,1.322,0.076,0.628
		c0.065,0.276-0.18,2.618,0.198,2.618c-0.01-0.501-0.058-1.017,0.099-1.503c0,0.63,0.152,1.168,0.121,1.809
		c-0.045,0.921-0.058,2.12,0.267,2.982c-1.344-0.043-2.784,0.496-2.558-1.339c0.105-0.853,0.086-1.805-0.002-2.659
		c-0.027-0.266-0.331-1.078-0.1-1.289c-0.199,0.182,0.127,0.517,0.093,0.718c0.028-0.168,0.06-0.644-0.109-0.756
		c0.024,0.016,0.111,0.656,0.098,0.719c0.018-0.088-0.115-0.764-0.13-0.735c-0.066,0.127,0.026,0.618,0.114,0.727
		C54.647,12.393,54.632,11.786,54.631,11.777C54.476,11.451,54.834,13.48,54.631,11.777z M67.75,15.278
		c-0.076,0.098-0.153,0.195-0.229,0.293c0.291-1.426,0.384-2.976,1.251-4.204c-0.067,0.324-0.006-0.799,0.067-1.019
		c0.168-0.506,0.355-1.041,0.198-1.577c-0.999,1.626-2.137,3.478-2.748,5.403c0.006-0.081,0.038-0.123,0.095-0.125
		c-0.023,0.389-0.313,0.761-0.393,1.143c0.321,0.258-0.352,1.729,0.223,1.13c-0.311,0.52-0.457,1.117-0.77,1.637
		c0.063-0.118,0.039-0.166-0.074-0.144c-0.157,0.14,1.23,1.034,1.661,0.498C67.642,17.552,67.703,16.211,67.75,15.278
		c-0.034,0.102-0.043,0.207-0.026,0.313C67.733,15.486,67.742,15.382,67.75,15.278c-0.065,0.083-0.014,0.248-0.026,0.313
		C67.733,15.486,67.742,15.382,67.75,15.278C67.674,15.375,67.714,15.987,67.75,15.278z M43.149,9.696
		c0.271,0.107,0.201,2.003,0.078,1.671c0.867,1.228,0.96,2.777,1.251,4.204c-0.339-0.712-0.138,0.579-0.116,0.672
		c0.121,0.51,0.268,1.013,0.404,1.519c0.209,0.782,0.523,0.741,1.239,0.602c0.175-0.034,0.637-0.079,0.686-0.324
		c0.031-0.159-0.269-0.564-0.135-0.081c-0.313-0.519-0.459-1.117-0.77-1.637c0.631,0.718,0.135-0.685,0.086-0.881
		c-0.034-0.14-0.403-1.279-0.252-1.372c0.046,0.017,0.077,0.052,0.091,0.105c-0.606-1.91-1.711-3.718-2.748-5.403
		C42.871,9.086,43.081,9.646,43.149,9.696C43.167,9.703,43.127,9.68,43.149,9.696z M27.671,7.816c0.268,0.136,0.478,0.84,0.593,1.09
		c0.061,0.134,0.424,1.379,0.107,0.851c1.367,1.085,1.941,2.842,2.687,4.352c-0.555-0.632,0.168,0.901,0.233,1.026
		c0.321,0.621,0.657,1.235,1.001,1.843c0.645,1.138,1.302,2.277,2.005,3.38c0.394,0.619,0.799,1.281,1.332,1.794
		c0.477,0.46,0.968,0.12,1.482-0.171c1.165-0.66,0.513-1.397-0.155-2.211c-0.796-0.971-1.458-2.028-2.078-3.103
		c0.107,0.499,0.406,0.923,0.666,1.352c-0.321,0.186-1.258-1.932-1.48-2.168c0.574,0.594-0.365-0.252-0.425-0.331
		c-0.258-0.341-0.49-0.71-0.805-1.004c0.179,0.047,0.359,0.09,0.54,0.13c-0.24-0.367-0.487-0.726-0.633-1.143
		c-0.185-0.531-0.687-0.963-0.81-1.484c0.193,0.123-0.002-0.092-0.022-0.138c0.08,0.068,0.156,0.141,0.227,0.219
		c-1.28-1.988-3.175-3.714-4.816-5.204c-0.017,0.323,0.455,0.963,0.46,0.948c-0.022-0.058-0.063-0.098-0.121-0.119
		C27.749,7.721,27.66,7.794,27.671,7.816C27.809,7.886,27.543,7.554,27.671,7.816z M22.096,22.161
		c0.402,0.098,0.322,0.684,0.592,0.915c0.17,0.145,0.744,0.884,0.434,0.523c1.365,0.63,2.221,1.925,3.186,3.015
		c-0.606-0.537-0.005,0.443,0.118,0.558c0.27,0.252,0.58,0.465,0.841,0.726c0.861,0.864,1.239,0.438,1.991-0.271
		c-0.499-0.313-0.926-0.728-1.443-1.016c0.821,0.298-0.204-0.692-0.35-0.88c-0.271-0.353-0.709-0.619-0.937-0.991
		c0.03-0.059,0.079-0.043,0.147,0.049c-1.48-1.351-3.341-2.364-5.081-3.306c0.06,0.247,0.301,0.448,0.462,0.631
		c-0.002-0.003,0.18-0.057,0.027-0.027c-0.011,0.083,0.029,0.109,0.118,0.079C22.207,22.129,21.971,22.02,22.096,22.161
		C22.462,22.25,21.931,21.974,22.096,22.161z M7.874,28.302c0.336-0.018,0.703,0.637,1.045,0.768
		c0.238,0.091,0.986,0.785,0.532,0.563c1.726,0.256,3.102,1.49,4.503,2.426c-0.795-0.287,0.257,0.465,0.359,0.528
		c0.656,0.407,1.331,0.783,2.007,1.155c1.042,0.574,2.03,1.218,3.052,1.828c0.624,0.373,1.273,0.757,1.969,0.981
		c0.803,0.257,1.088-0.171,1.51-0.842c0.704-1.118-0.166-1.476-1.131-1.821c-1.124-0.401-2.158-0.934-3.18-1.525
		c0.343,0.379,0.813,0.596,1.252,0.838c-0.18,0.312-0.956-0.317-1.117-0.434c-0.223-0.163-0.437-0.351-0.681-0.483
		c-0.276-0.149-0.645-0.509-0.334-0.07c-0.666-0.2-1.285-0.534-1.965-0.691c0.179-0.049,0.356-0.101,0.533-0.157
		c-0.401-0.203-1.068-0.217-1.239-0.723c-0.198-0.583-0.954-0.439-1.323-0.832c0.229,0.01-0.047-0.079-0.089-0.108
		c0.104,0.019,0.206,0.044,0.306,0.076c-2.095-1.077-4.619-1.632-6.773-2.098c0.146,0.288,0.876,0.606,0.872,0.591
		c-0.048-0.039-0.103-0.053-0.165-0.042c0.036,0.092,0.099,0.106,0.19,0.041C8.006,28.224,7.692,28.179,7.874,28.302
		C8.19,28.285,7.633,28.139,7.874,28.302z M101.66,43.477c0.297,0.131,0.697-0.094,0.895-0.301
		c-1.914-0.053-4.073-0.113-6.053,0.322c0.052-0.015,0.096-0.006,0.132,0.027c-0.015,0.193-1.155,0.439-1.306,0.485
		c-0.221,0.067-1.58,0.294-0.724,0.497c-0.43-0.007-0.903-0.167-1.315,0.044c0.211,0.689,0.232,1.53,1.151,1.33
		c0.318-0.069,0.635-0.143,0.954-0.211c0.113-0.024,1.205-0.465,0.513-0.407c0.778-0.26,1.535-0.583,2.326-0.801
		c0.548-0.151,1.605-0.061,1.984-0.285c0.365-0.216,0.779-0.357,1.163-0.536C101.652,43.515,101.785,43.576,101.66,43.477
		C101.94,43.601,101.728,43.531,101.66,43.477z M89.068,34.597c-0.726,0.359,0.424,1.7,0.787,1.931
		c0.897,0.568,2.505-1.059,3.241-1.458c1.207-0.653,2.485-1.193,3.666-1.888c0.253-0.149,2.169-1.427,1.283-1.123
		c1.401-0.935,2.777-2.17,4.503-2.426c-0.526,0.22,0.54-0.446,0.72-0.524c0.315-0.135,0.412-0.423,0.625-0.663
		c0.285-0.321,0.791-0.36,0.997-0.766c-1.135,0.246-1.521,0.262-2.538,0.649c-1.39,0.529-2.907,0.766-4.235,1.449
		c0.101-0.032,0.203-0.057,0.306-0.076c-0.041,0.03-0.317,0.118-0.089,0.108c-0.374,0.397-1.132,0.224-1.323,0.812
		c-0.165,0.509-0.838,0.539-1.24,0.742c0.176,0.056,0.354,0.109,0.533,0.157c-0.68,0.157-1.299,0.491-1.965,0.691
		c0.31-0.438-0.057-0.079-0.335,0.07c-0.245,0.132-0.459,0.319-0.682,0.483c-0.161,0.118-0.936,0.748-1.116,0.435
		c0.439-0.242,0.91-0.459,1.252-0.838c-0.394,0.228-4.27,2.466-4.528,2.266c-0.048-0.037,0.144-0.238,0.168-0.194
		c0.017,0.156-0.058,0.233-0.224,0.231C88.76,34.672,89.21,34.212,89.068,34.597C88.389,34.933,89.233,34.151,89.068,34.597z
		 M79.297,18.889c0.343-0.236,2.223-3.372,2.01-3.512c-0.151,0.032-0.273,0.111-0.365,0.235c0.746-1.51,1.32-3.267,2.687-4.352
		c-0.346,0.454,0.245-0.657,0.362-0.814c0.205-0.274,0.145-0.572,0.209-0.886c0.086-0.42,0.505-0.707,0.48-1.161
		c-0.848,0.77-1.193,0.997-1.873,1.831c-0.939,1.153-2.135,2.117-2.943,3.372c0.071-0.078,0.147-0.151,0.227-0.219
		c-0.021,0.046-0.216,0.261-0.023,0.138c-0.117,0.495-0.651,0.691-0.849,1.136c0.425,0.55-0.33,1.087-0.593,1.491
		c0.181-0.04,0.361-0.083,0.54-0.13c-0.289,0.27-0.578,0.54-0.85,0.828c-0.134,0.142-0.766,1.084-0.38,0.506
		c-0.222,0.236-1.158,2.354-1.48,2.168c0.259-0.429,0.558-0.852,0.666-1.352c-0.726,1.259-1.431,2.506-2.394,3.617
		c1.245,0.683,2.014,1.749,2.858,0.068c0.357-0.71,2.066-2.137,1.753-2.979c0.09,0.243-0.366,0.384-0.431,0.565
		c0.058-0.162,0.262-0.571,0.464-0.589c-0.032,0.003-0.417,0.502-0.436,0.563c0.026-0.081,0.474-0.599,0.473-0.562
		c-0.002,0.14-0.328,0.512-0.454,0.562C78.982,19.403,79.292,18.896,79.297,18.889C79.595,18.684,78.29,20.235,79.297,18.889z
		 M94.445,64.819c0.078,0.132,0.156,0.264,0.234,0.396c-0.81-0.484-1.384,0.95-0.821,1.167c0.337,0.13,0.707,0.208,1.058,0.29
		c0.085,0.02,1.215,0.191,0.514-0.151c1.426,0.291,2.976,0.384,4.204,1.251c-0.324-0.067,0.799-0.007,1.019,0.067
		c0.506,0.168,1.041,0.355,1.577,0.198c-1.626-0.999-3.479-2.137-5.403-2.748c0.15,0.046,0.182,0.081,0.096,0.107
		c-0.36-0.042-0.685-0.335-1.036-0.361c-0.117,0.016-0.226,0.055-0.327,0.117C95.183,65.264,94.777,64.926,94.445,64.819
		c0.074,0.054,0.157,0.085,0.247,0.093C94.609,64.881,94.527,64.85,94.445,64.819c0.055,0.093,0.22,0.08,0.245,0.094
		C94.608,64.882,94.526,64.85,94.445,64.819C94.522,64.951,95,64.999,94.445,64.819z M18.378,66.274
		c-0.154-0.566-0.219-1.56-1.056-1.059c0.718-0.632-0.685-0.135-0.881-0.086c-0.14,0.034-1.279,0.404-1.372,0.252
		c0.017-0.046,0.052-0.077,0.105-0.091c-1.91,0.606-3.718,1.711-5.403,2.748c0.536,0.156,1.072-0.03,1.577-0.198
		c0.22-0.073,1.343-0.134,1.019-0.067c1.228-0.867,2.777-0.96,4.204-1.251c-0.807,0.377,0.519,0.162,0.649,0.124
		C17.608,66.532,17.987,66.376,18.378,66.274c-0.118-0.433-0.364,0.066-0.411,0.021c0.931-0.048,0.131-0.355,0.065-0.293
		C17.758,66.255,18.234,66.312,18.378,66.274C18.213,65.671,17.553,66.488,18.378,66.274C18.213,65.67,17.487,66.506,18.378,66.274z
		 M85.506,24.762c-0.201,0.358-0.639,0.664-0.927,0.948c-0.116,0.114-1.307,1.232-0.394,0.901c-0.516,0.288-0.944,0.703-1.443,1.016
		c0.384,0.362,0.762,0.73,1.131,1.107c0.324-0.29,0.607-0.626,0.938-0.907c0.287-0.244,0.586-0.472,0.857-0.735
		c0.107-0.104,0.642-1.002,0.024-0.478c0.965-1.09,1.821-2.386,3.186-3.015c-0.239,0.268,0.309-0.617,0.455-0.748
		c0.43-0.39,0.928-0.773,1.073-1.367c-1.678,0.908-3.59,1.944-5.081,3.306c0.154-0.092,0.2-0.081,0.135,0.035
		c-0.056,0.1,0.25-0.342-0.082,0.16C85.409,24.934,85.444,24.8,85.506,24.762C85.387,24.975,85.454,24.794,85.506,24.762z
		 M76.465,86.439c-2.679,1.644-5.464,3.136-8.46,4.118c-2.725,0.893-6.074,2.262-8.977,1.991c-1.073-0.1-2.655-0.505-2.726-1.82
		c-0.064-1.19,0.686-2.455,1.057-3.548c0.464-1.366,0.674-2.726,0.902-4.142c0.169-1.052-1.239-1.63-2.071-0.96
		c0.123-0.431-1.155,0.012-1.316,0.056c0.038-0.023,0.079-0.041,0.122-0.054c-0.135,0.108-0.731,0.3-0.797,0.014
		c-0.353,0.812,0,1.746,0.203,2.547c0.273,1.077,0.526,2.165,0.969,3.188c0.358,0.826,0.676,1.673,0.65,2.588
		c-0.025,0.868-0.745,1.001-1.434,1.206c-1.863,0.555-3.89,0.025-5.737-0.34c-2.177-0.43-4.311-0.951-6.38-1.767
		c0.152,0.228-0.486-0.059-0.554-0.095c-0.761-0.399-1.574-0.69-2.342-1.076c-1.35-0.678-2.771-1.902-3.867-2.502
		c-0.058-0.032-0.496-0.121-0.191-0.097c-0.656-0.526-1.442-0.771-2.087-1.338c-0.811-0.713-1.651-1.389-2.401-2.167
		c-0.613-0.635-1.197-1.301-1.854-1.893c-0.224-0.202-0.896-1.114-0.95-0.654c-0.141-0.394-0.693-0.548-0.689-1.007
		c0.004-0.452-0.294-0.578-0.611-0.777c-0.731-0.461-1.296-1.879-1.747-2.585c-1.42-2.223-2.778-4.535-3.651-7.035
		c-0.803-2.301-1.314-4.8-1.466-7.232c-0.055-0.881-0.403-1.702-0.389-2.571c0.008-0.497,0.244-1.594-0.118-2.038
		c0.489,0.233,0.249-0.747,0.202-0.925c-0.011-0.042-0.177-0.413-0.169-0.44c0.02-0.086,0.288-1.241,0.242-0.751
		c-0.06-0.386,0.327-1.087-0.279-1.212c0.016,0.181,0.048,0.359,0.097,0.534c-0.202-0.768,0.204-1.528,0.012-2.293
		c0.437,0.436,0.81-0.86,0.328-0.66c0.14-0.301,0.482-0.689,0.41-1.048c-0.024-0.123-0.159-0.556,0.081-0.182
		c0.181-1.769,0.641-3.249,1.374-4.853c0.146-0.32,0.717-1.565,0.477-1.774c-0.219-0.191-0.331-0.979-0.172-1.221
		c0.025,0.19,0.276-0.561,0.272-0.717c0.033,0.429,0.889-0.991,0.959-1.119c0.432-0.788,0.971-1.482,1.407-2.266
		c0.671-1.205,1.277-2.554,2.261-3.543c0.447-0.45,0.875-0.915,1.33-1.358c0.058-0.056,0.636-0.654,0.282-0.507
		c1.009-0.9,2.524-1.546,2.911-2.961c-0.162,0.284,0.353,0.071,0.43,0.023c0.402-0.327,0.721-0.74,1.116-1.075
		c-0.425,0.965-1.432,1.444-2.165,2.134c0.281,0.289,3.701-2.903,4.202-3.164c-0.165,0.12-0.329,0.241-0.492,0.363
		c0.516-0.135,0.786-0.64,1.251-0.863c0.8-0.383,1.64-0.673,2.475-0.969c-0.308-0.022-0.616-0.045-0.924-0.067
		c0.801-0.424,1.83-0.505,2.467-1.208c0.422-0.466,0.34-0.743,1.023-0.977c0.606-0.207,1.242-0.322,1.831-0.581
		c-0.08,0.015-0.157,0.007-0.23-0.025c0.353-0.013,0.313-0.058-0.118-0.133c0.135-0.074,0.279-0.117,0.434-0.131
		c0.384-0.066,0.73-0.102,1.098-0.235c0.444-0.159,0.956-0.371,1.438-0.276c-0.046,0.25,0.475-0.137,0.659,0.004
		c0.121,0.013,1.703-0.321,2.135-0.349c1.723-0.115,3.476-0.299,5.204-0.236c-0.53,0.005,0.131-0.069,0.266,0.017
		c0.144,0.091,0.203,0.279-0.079,0.088c0.265,0.071,2.386,0.205,2.389,0.411c0.004,0.331-0.274,0.622-0.372,0.924
		c-0.136,0.415-0.263,0.834-0.39,1.252c-0.046,0.151-0.312,1.278-0.026,0.462c-1.087,1.508-1.053,3.488-1.346,5.246
		c0.81-0.002,1.618,0.142,2.428,0.061c0.751-0.076,1.511-0.203,2.265-0.088c0.021-0.281,0.002-0.559-0.058-0.834
		c-0.001,0.055-0.106,0.371-0.039-0.008c0.015,0.061,0,0.101-0.044,0.118c-0.249-0.369-0.215-2.186,0.015-2.597
		c-0.028,0.05-0.181,0.473-0.185,0.468c-0.292-0.33-0.116-1.279-0.15-1.692c-0.09-1.088-0.521-2.192-0.705-3.274
		c0.241,0.527,0.021-0.279-0.011-0.386c-0.182-0.61-0.733-1.159-1.372-1.26c0.25-0.055,0.502-0.074,0.757-0.057
		c-0.252-0.07-0.504-0.138-0.757-0.205c2.075-0.796,4.622,0.116,6.734,0.101c-0.195-0.087-0.392-0.168-0.592-0.241
		c0.884,0.378,1.798,0.698,2.745,0.875c0.224,0.042,1.401,0.094,1.52,0.32c0.116,0.221,2.141,0.662,2.618,0.859
		c1.011,0.417,1.99,0.905,2.994,1.338c-0.211-0.191-0.423-0.383-0.634-0.574c5.529,2.193,10.219,6.218,13.669,11.021
		c3.825,5.326,6.939,11.564,7.317,18.212c0.201,3.533,0.285,7.119-0.341,10.617c-0.624,3.49-1.982,6.807-3.552,9.97
		c-1.397,2.814-3.04,5.544-5.216,7.828c-1.144,1.201-2.243,2.46-3.543,3.499c-0.593,0.474-1.239,0.879-1.816,1.373
		c-0.541,0.463-0.977,1.118-1.684,1.349c0.183-0.069,0.34-0.176,0.471-0.322c-0.284,0.257-0.959,0.328-1.116,0.706
		c0.116-0.28,0.741-0.586,1.021-0.642c-0.45,0.09-0.849,0.731-1.33,0.832c0.238-0.05,0.582-0.387,0.792-0.517
		C76.12,86.599,76.779,86.201,76.465,86.439C73.143,88.477,77.267,85.831,76.465,86.439z M55.396,22.022
		C55.401,22.023,55.415,22.018,55.396,22.022C55.398,22.022,55.399,22.021,55.396,22.022z M85.421,71.734
		c-0.692,0.072-1.378-0.082-2.069-0.078c-0.669,0.004-1.339,0.162-2.006,0.209c-1.037,0.073-1.862-0.196-2.228,0.943
		c-0.775,2.41-1.976,4.673-3.309,6.816c0.827,0.108,1.655,0.013,2.481,0.088c0.575,0.053,1.259,0.225,1.778-0.123
		c0.501-0.337,0.765-0.94,1.045-1.451c0.098-0.178,0.733-0.525,0.211-0.538c0.974-0.288,1.212-1.632,1.802-2.303
		C84.085,74.204,84.857,73.093,85.421,71.734C84.997,72.212,85.442,71.927,85.421,71.734c-0.048,0.005-0.592,0.101-0.407,0.25
		C85.182,72.121,85.37,71.855,85.421,71.734c0.108-0.011-0.635,0.077-0.414,0.251C85.176,72.118,85.374,71.846,85.421,71.734
		C84.557,71.824,85.18,72.313,85.421,71.734z M75.623,75.068c0.808-0.04,1.105-2.549,1.448-3.113
		c-1.368,0.003-2.736-0.001-4.105-0.003c-0.753-0.001-1.805-0.236-2.387,0.393c-0.723,0.782-0.777,2.534-1.018,3.538
		c-0.314,1.31-0.701,2.608-1.34,3.8c1.47-0.04,4.334,0.557,5.412-0.676c0.529-0.606,0.889-1.348,1.179-2.092
		c0.09-0.23,0.619-1.053,0.263-0.949C75.392,75.723,75.591,75.04,75.623,75.068C76.196,75.039,75.581,75.032,75.623,75.068z
		 M56.19,69.747c0.872,0.091,3.211,0.418,3.311-0.813c0.181-2.223,0.014-4.489,0.094-6.719c-0.561,0.073-1.149-0.102-1.698-0.189
		c-0.277-0.044-1.619,0.072-1.641,0.05c-0.206-0.205-0.855-0.063-1.112-0.051c-0.253,0.012-1.097,0.405-0.564,0.13
		c-0.429,0.299-0.926-0.053-1.377,0.147c0.164-0.273-0.963-0.508-1.007,0.379c-0.064,1.308,0.241,2.658,0.253,3.975
		c0.007,0.807-0.393,2.624,0.598,3.048c1.08,0.462,2.404-0.492,3.453,0.085c-0.126-0.069-0.323,0.024-0.452-0.035
		c0.101-0.013,0.2-0.008,0.3,0.014c-0.091-0.02-0.235,0.013-0.341-0.005C56.04,69.707,56.1,69.701,56.19,69.747
		C56.934,69.824,55.529,69.757,56.19,69.747z M44.381,73.605c0.022,1.244,0.574,2.385,1.011,3.524
		c0.305,0.794,0.352,1.839,1.156,2.33c0.949,0.58,2.132,0.483,3.188,0.365c0.533-0.06,1.066-0.137,1.602-0.155
		c-0.059-0.508,0.053-1.047-0.17-1.529c-0.036-0.077-0.156-1.99-0.204-2.357c-0.108-0.811-0.135-1.631-0.264-2.439
		c-0.048-0.303-0.065-1.345-0.328-1.111c0.23-0.473-1.262-0.395-1.472-0.413c-0.628-0.053-0.252,0.009-0.37,0.3
		c-0.126,0.312-0.772,0.092-1.017,0.281c0.28-0.219-0.98-0.298-1.119-0.3c-0.407-0.005-0.458-0.23-0.899-0.079
		c-0.411,0.14-1.044,0.331-1.474,0.17C44.136,72.664,44.256,73.135,44.381,73.605c-0.133-0.464,0.136,0.392-0.009,0.538
		c0.065-0.065-0.049-0.463-0.017-0.577c-0.043,0.154,0.061,0.486,0.022,0.684C44.387,74.192,44.334,73.427,44.381,73.605
		C44.402,74.847,44.257,73.137,44.381,73.605z M43.733,79.242c0.216-0.111-0.519-1.769-0.6-1.979
		c-0.271-0.709-0.481-1.441-0.752-2.151c-0.038-0.1-0.147-1.053-0.337-0.657c0.124-0.564-0.173-1.993-0.518-2.455
		c-0.107-0.143-0.93-0.097-1.106-0.113c-0.698-0.062-1.477-0.047-2.179-0.046c0.544-0.199,1.131-0.109,1.694-0.099
		c0-0.433-2.608-0.123-2.95-0.198c0.997,0.018-0.525-0.091-0.604-0.103c-0.469-0.07-0.933-0.171-1.391-0.295
		c0.146,0.132,0.29,0.266,0.431,0.403c-0.824-0.281,0.112,1.552,0.236,1.786c0.814,1.531,1.528,3.114,2.35,4.641
		c0.896,1.664,1.721,1.355,3.34,1.529c0.5,0.054,2.344,0.559,2.463-0.279C43.805,79.265,43.726,79.287,43.733,79.242
		C43.892,79.16,43.714,79.376,43.733,79.242z M32.032,41.717C32.032,41.723,32.077,41.736,32.032,41.717
		C32.032,41.721,32.041,41.721,32.032,41.717z M32.057,41.685C32.06,41.674,32.029,41.676,32.057,41.685
		C32.058,41.683,32.053,41.684,32.057,41.685z M32.306,55.61c0.568,1.117-0.717,2.864,0.289,3.779
		c0.821,0.746,2.666,0.121,3.675,0.222c0.917,0.092,3.35,0.819,3.667-0.454c0.157-0.63,0.43-2.286-0.059-2.833
		c0.232,0.111,0.126-1.668,0.169-1.534c-0.043-0.216-0.352-1.364-0.157-0.486c-0.258-0.534,0.082-1.106-0.096-1.652
		c0.109,0.086,0.668-0.611-0.439-0.709c-0.39-0.035-0.736-0.034-1.124,0.048c-0.599,0.126-1.087-0.107-1.683-0.107
		c0.601-0.195,1.238-0.109,1.856-0.099c0-0.323-2.889-0.13-3.231-0.198c1.073,0.076-0.584-0.141-0.647-0.15
		c-0.514-0.07-1.033-0.123-1.538-0.248c0.16,0.131,0.317,0.265,0.472,0.403C31.912,51.522,32.156,54.544,32.306,55.61
		c-0.11-0.745-0.057-0.052,0.06,0.089c-0.006-0.118-0.029-0.232-0.069-0.343c-0.008,0.022,0.015,0.521,0.155,0.477
		c0.043-0.013-0.085-0.413-0.142-0.435C32.274,55.464,32.273,55.534,32.306,55.61C32.868,56.714,32.201,54.866,32.306,55.61z
		 M37.098,31.944c0.055-0.064,0.109-0.128,0.164-0.192c-0.354-0.117-0.539,0.679-0.672,0.867
		C37.011,32.884,37.092,31.903,37.098,31.944C37.127,31.91,37.132,32.307,37.098,31.944C37.152,31.88,37.127,32.251,37.098,31.944z
		 M44.047,39.797c1.095,0.043,2.19,0.05,3.285,0.039c0.88-0.009,1.957,0.195,2.82,0.014c0.98-0.206,0.808-3.135,0.909-4.132
		c0.138,0.647-0.038,1.297-0.085,1.941c0.317,0.028,0.426-2.992,0.533-3.34c-0.187,1.031,0.152-0.368,0.179-0.474
		c0.147-0.578,0.267-1.165,0.487-1.721c-0.205,0.081-0.358,0.221-0.458,0.418c0.116-0.662-0.745-0.573-1.226-0.617
		c-0.21-0.019-0.245,0.233-0.321,0.368c-0.143,0.254-0.512-0.015-0.742,0.225c0.288-0.292-1.058-0.31-1.165-0.31
		c-0.585,0.003-1.413-0.024-1.859,0.42c-0.666,0.663-0.894,2.05-1.145,2.914C44.849,36.958,44.519,38.398,44.047,39.797
		C45.636,39.86,44.52,38.395,44.047,39.797C44.939,39.832,44.605,38.142,44.047,39.797C45.511,39.855,44.645,38.023,44.047,39.797
		C45.507,39.855,44.712,37.823,44.047,39.797z M45.826,29.797c0.078-0.098,0.155-0.196,0.233-0.295
		c-0.177,0.073-0.344,0.163-0.502,0.27C46.073,29.819,45.768,29.79,45.826,29.797C45.904,29.699,45.738,29.786,45.826,29.797z
		 M53.064,42.174c-0.704-0.281-0.623,1.571-0.615,1.898c0.044,1.883-0.087,3.762-0.095,5.645c2.366-0.018,4.732-0.089,7.097-0.022
		c0.752,0.021,0.535-0.035,0.606-0.67c0.041-0.366,0.091-0.767-0.011-1.129c-0.09-0.32-0.297-0.383-0.498-0.609
		c-0.22-0.247,0.034-0.585-0.189-0.892c0.175,0.233,0.23-1.004,0.226-1.131c-0.011-0.386,0.203-0.801,0.098-1.179
		c-0.166-0.595-0.392-1.227-0.254-1.854c-0.998,0.166-2.265-0.675-3.183-0.038c0.111-0.299-1.313-0.099-1.173-0.16
		c-0.156,0.044-0.967,0.514-0.369,0.162c-0.404,0.25-0.844-0.056-1.257,0.147c0.239-0.435-0.554-0.23-0.669-0.289
		C52.884,42.071,52.979,42.111,53.064,42.174c-0.125-0.033-0.241-0.084-0.348-0.152C52.794,42.04,53.03,42.097,53.064,42.174
		C52.331,41.882,53.039,42.118,53.064,42.174z M64.61,32.115c-1.091,0.552-2.344,0.102-3.498,0.245
		c0.324,2.229,0.329,4.463,0.567,6.688c0.191,1.789,5.235,0.784,6.403,0.757c-0.031-0.362-0.403-1.981-0.404-1.98
		c-0.233-1.39-0.567-2.766-1.08-4.081c0.459,0.574,0.587,1.318,0.779,2.006c0.241-0.075-0.39-1.678-0.444-1.828
		c-0.145-0.409-0.297-0.816-0.446-1.224c-0.107-0.293-0.452-0.803-0.031-0.195c-0.336-0.267-0.026-0.402-0.59-0.295
		c-0.16,0.03-1.276,0.184-1.349-0.003c0.058,0.036,0.118,0.037,0.178,0.003c0.083-0.134-0.377,0.022-0.448,0.133
		C64.212,32.397,64.844,32.246,64.61,32.115C63.543,32.655,64.898,32.276,64.61,32.115z M65.667,29.848
		c-0.016-0.062-0.033-0.124-0.049-0.186C65.559,29.788,65.659,29.848,65.667,29.848C65.651,29.786,65.64,29.848,65.667,29.848z
		 M69.738,32.018c-0.429,0.134-0.885,0.119-1.327,0.072c0.671,2.308,1.421,4.534,1.903,6.886c0.227,1.106,1.358,0.95,2.251,0.846
		c1.431-0.166,2.887-0.106,4.325-0.126c-1.028-2.038-1.586-4.087-2.631-5.951c-0.151-0.269-0.882-0.842-0.904-1.005
		c-0.051-0.374-0.157-0.664-0.553-0.735c-0.533-0.095-1.104-0.107-1.628,0.024C70.907,32.095,69.399,32.388,69.738,32.018
		c-0.14-0.018-0.212,0.017-0.217,0.106C69.605,32.115,69.678,32.079,69.738,32.018C69.283,32.16,69.629,32.156,69.738,32.018
		C69.308,32.152,69.6,32.193,69.738,32.018z M74.097,33.442c0.174-0.292-0.671-1.387-0.932-1.38
		C73.486,32.515,73.785,32.983,74.097,33.442z M77.864,43.804c0.172,0.183,0.078-0.647,0.066-0.718
		c-0.085-0.524-0.319-0.999-0.889-1.098c-0.991-0.172-1.983,0.124-2.975,0.125c-1.049,0.001-2.097-0.19-3.146-0.077
		c0.412,2.38,0.789,4.768,1.03,7.172c0.078,0.779,0.418,0.57,1.121,0.61c0.715,0.041,1.432,0.04,2.148,0.02
		c1.434-0.04,2.864-0.157,4.298-0.176c-0.294-1.339-0.319-2.705-0.56-4.042c-0.086-0.478-0.366-0.478-0.645-0.811
		c-0.132-0.145-0.633-1.22-0.275-0.807c-0.265-0.303-0.229-0.266,0.105,0.11C78.049,44.01,77.956,43.907,77.864,43.804
		C78.23,44.196,78.041,44.015,77.864,43.804C78.099,44.056,78.142,44.134,77.864,43.804z M79.479,52.277
		c0.255,0.074,0.347-0.02,0.275-0.282c-0.816,0.013-1.736-0.291-2.529-0.018c0.248-0.086-0.455-0.104-0.522-0.104
		c-0.741,0.005-1.464,0.194-2.209,0.181c-1.143-0.021-2.265-0.563-2.316,0.878c-0.069,1.945-0.312,3.932-0.088,5.874
		c0.119,1.03,0.475,1.098,1.535,1.035c1.817-0.107,3.629-0.106,5.446-0.174c0.92-0.034,1.082-2.693,0.696-3.306
		c0.183,0.103,0.086-0.972,0.079-1.044c-0.013-0.135,0.027-1.058,0.045-0.678c-0.046-0.198-0.4-1.538-0.181-0.536
		C79.506,53.509,79.748,52.859,79.479,52.277c0.06,0.087,0.12,0.174,0.18,0.261C79.53,52.504,79.47,52.417,79.479,52.277
		c0.105,0.052,0.168,0.134,0.188,0.245C79.549,52.537,79.487,52.456,79.479,52.277C79.739,52.388,79.732,52.824,79.479,52.277z
		 M69.63,59.757c0.026-0.893,0.851-2.674,0.171-3.442c0.246,0.118,0.103-1.629,0.151-1.496c-0.05-0.208-0.394-1.312-0.167-0.468
		c-0.284-0.501,0.017-1.077-0.196-1.594c0.3,0.193,0.436-0.417,0.266-0.547c-0.289-0.22-0.872-0.147-1.207-0.141
		c-1.463,0.029-2.926,0.051-4.387,0.139c-0.517,0.031-1.354-0.064-1.845,0.162c-0.439,0.201-0.204,1.549-0.222,1.949
		c-0.084,1.833,0.267,3.668,0.08,5.496C64.725,59.88,67.178,59.806,69.63,59.757c0.001-0.042-1.009-0.016-1.114,0.006
		C68.885,59.684,69.258,59.764,69.63,59.757c0.005-0.187-0.996-0.121-1.112-0.038C68.745,59.556,69.36,59.762,69.63,59.757
		C69.656,58.857,67.241,59.805,69.63,59.757C69.653,58.953,67.113,59.807,69.63,59.757z M68.182,62.023
		c-1.081,0.44-2.31,0.26-3.438,0.177c-0.728-0.054-2.367-0.337-2.755,0.516c-0.321,0.706-0.049,1.682-0.032,2.426
		c0.035,1.552-0.085,3.101-0.148,4.65c1.43,0.039,2.86-0.072,4.29-0.001c0.839,0.042,2.247,0.453,2.704-0.538
		c0.399-0.865,0.296-1.996,0.329-2.928c0.05-1.41-0.051-2.863,0.352-4.234c-0.327-0.008-1.207-0.253-1.461,0.018
		c-0.016,0.017,0.252,0.087,0.27-0.005c0.032-0.163-0.385-0.017-0.418,0.088C67.854,62.263,68.49,62.145,68.182,62.023
		C66.53,62.696,68.583,62.182,68.182,62.023z M50.002,52.114c0.117-0.4-1.413-0.272-1.604-0.268c-0.39,0.008-0.44,0.129-0.678,0.4
		c-0.285,0.325-0.668-0.044-1.017,0.197c0.196-0.14-1.744-0.397-1.868-0.405c-1.208-0.081-2.413-0.101-2.552,1.325
		c-0.108,1.103-0.064,2.256-0.04,3.361c0.014,0.659-0.375,3.002,0.764,3.042c1.572,0.055,3.146,0.044,4.718,0.015
		c0.488-0.009,1.686,0.204,2.052-0.208c0.282-0.317,0.161-0.958,0.193-1.343c0.065-0.793-0.018-1.587,0.029-2.243
		c0.024-0.342-0.027-0.682-0.021-1.023c0.002-0.099-0.449-1.106-0.124-0.444c-0.3-0.452,0.06-0.966-0.133-1.44
		c0.573,0.371,0.034-1.145,0.416-1.049c0.048,0.012-0.047,0.189-0.093,0.113C50.094,52.245,50.08,52.236,50.002,52.114
		C50.12,51.709,50.154,52.363,50.002,52.114z M32.793,49.588c1.41-0.034,2.818,0.077,4.226,0.137
		c0.881,0.038,2.978,0.503,3.342-0.612c0.224-0.685,0.157-1.456,0.317-2.162c0.041-0.179-0.434-1.68-0.193-1.427
		c0.003-0.578-0.135-0.683,0.092-1.22c0.21-0.496,0.441-0.994,0.59-1.513c0.386-1.345-2.246-0.884-2.927-0.883
		c0.544-0.199,1.131-0.109,1.694-0.099c0-0.433-2.608-0.123-2.95-0.198c0.997,0.018-0.525-0.091-0.604-0.103
		c-0.469-0.07-0.933-0.171-1.391-0.295c0.146,0.131,0.29,0.266,0.431,0.403c-1.311-0.064-1.357,1.493-1.595,2.411
		C33.353,45.853,33.024,47.715,32.793,49.588C33.754,49.564,33.067,47.368,32.793,49.588C33.941,49.559,33.084,47.225,32.793,49.588
		C33.909,49.56,33.11,47.022,32.793,49.588C35.075,49.532,33.133,46.835,32.793,49.588z M50.307,69.711
		c-0.16-1.754-0.162-3.519-0.334-5.272c-0.043-0.437,0.121-2.38-0.325-2.56c-0.479-0.193-1.102-0.134-1.598-0.05
		c-0.379,0.064-0.216,0.396-0.742,0.476c-0.852,0.128-1.631-0.251-2.565-0.283c-1.258-0.042-2.404-0.048-2.278,1.424
		c0.128,1.489,0.352,2.979,0.508,4.466c0.106,1.017,0.506,1.921,1.664,1.935C46.527,69.87,48.416,69.759,50.307,69.711
		c-0.047-0.517-0.814,0.133-1.014-0.048C49.549,69.896,50.01,69.718,50.307,69.711C50.232,68.889,48.3,69.762,50.307,69.711
		C50.149,67.976,48.238,69.763,50.307,69.711C50.131,67.781,48.031,69.768,50.307,69.711z M88.799,61.738
		c-1.448-0.036-2.889,0.159-4.336,0.139c-0.907-0.013-2.383-0.458-2.862,0.621c-0.352,0.792-0.224,1.697-0.346,2.533
		c-0.224,1.546-0.656,3.052-1.077,4.553c1.173-0.075,2.328,0.329,3.501,0.174c0.865-0.115,1.964-0.49,2.733,0.121
		c0.736-1.796,1.18-3.724,1.724-5.585c0.162-0.555,0.313-1.115,0.428-1.681C88.671,62.093,88.553,61.88,88.799,61.738
		c-0.337-0.008-0.686-0.08-1.021-0.008C87.882,61.707,88.798,61.851,88.799,61.738c0.156,0.004-0.596,0.01-0.603,0.009
		C88.257,61.764,88.798,61.806,88.799,61.738C87.351,61.701,88.798,61.827,88.799,61.738z M89.149,51.821
		c-0.555,0.366-1.596-0.038-2.215-0.061c-1.013-0.037-2.009,0.051-3.019,0.066c-0.508,0.008-1.284-0.113-1.732,0.183
		c-0.523,0.345-0.02,2.002-0.008,2.511c0.025,1.016-0.029,2.031-0.058,3.047c-0.016,0.547-0.498,2.359,0.463,2.053
		c1.179,0.043,2.353,0.283,3.535,0.196c0.979-0.072,2.149-0.563,3.063,0.02c0.157-0.678,0.645-2.794,0.169-3.426
		c0.579,0.282,0.2-0.837,0.121-1.028c-0.102-0.247-0.079-1.205,0.034-0.928c0.024,0.084-0.112-1.442-0.355-1.095
		c-0.025,0.173,0.011,0.337,0.109,0.492c-0.271-0.655,0-1.432-0.382-2.052c0.302,0.149,0.284-0.113,0.141,0.125
		C89.01,51.933,89.217,51.839,89.149,51.821C88.689,52.124,89.259,51.85,89.149,51.821z M84.522,41.78
		c-1.468-0.495-2.995,0.142-4.479,0.18c0.45,1.429,0.942,2.86,1.149,4.349c0.129,0.923,0.025,2.843,1.009,3.334
		c0.808,0.403,2.147,0.192,3.016,0.119c1.249-0.104,2.667-0.446,3.875,0.046c-0.186-1.101-0.559-2.159-0.773-3.254
		c-0.191-0.976-0.377-2.002-0.939-2.846c-0.115,0.48-0.903-0.412-0.938-0.64c0.076,0.109,0.156,0.113,0.239,0.01
		c-0.167-0.233-0.367-0.434-0.599-0.603c0.414,0.261,0.479-0.591,0.154-0.72c-0.567-0.225-1.214,0.121-1.791-0.005
		c0.065,0.017,0.129,0.037,0.192,0.058c-0.165-0.08-0.424-0.18-0.609-0.2C84.143,41.622,84.61,41.804,84.522,41.78
		C83.086,41.296,84.891,41.881,84.522,41.78z M77.096,31.82c-0.469-0.125-1.016-0.03-1.444,0.187
		c1.391,2.135,2.111,4.393,3.16,6.676c0.526,1.146,1.266,0.917,2.345,1.011c1.451,0.126,2.91,0.148,4.364,0.083
		c-0.644-1.224-1.811-2.059-2.553-3.214c-0.673-1.047-1.29-2.064-2.02-3.072c-0.514-0.71-1.03-1.586-1.97-1.683
		c-0.443-0.046-0.888-0.085-1.333-0.092c-0.085-0.001-0.951,0.145-0.546,0.179c-0.122-0.102-0.145-0.111-0.068-0.027
		c0.177,0.122,0.035-0.207-0.087-0.065C76.914,31.836,77.189,31.976,77.096,31.82C76.646,31.7,77.217,32.024,77.096,31.82z
		 M69.3,24.702c1.535,1.201,3.064,2.481,4.182,4.096c0.941,1.36,2.936,1.073,4.36,1.087c-0.638-0.518-1.335-0.97-1.904-1.569
		c0.154,0.119,0.31,0.237,0.466,0.353c-0.257-0.447-0.793-0.562-1.143-0.908c-0.612-0.605-1.269-1.161-1.898-1.748
		c0.119,0.282,0.238,0.563,0.357,0.845c-0.707-0.444-1.244-1.205-2.091-1.403c-0.562-0.132-0.758,0.26-1.346-0.103
		c-0.156-0.096-1.546-1.014-0.644-0.432c-0.847-0.547,0.294,0.125,0.378,0.307C69.896,24.969,69.523,24.842,69.3,24.702
		c0.107,0.084,0.625,0.602,0.811,0.604C69.953,25.305,69.451,24.797,69.3,24.702C70.817,25.888,69.973,25.122,69.3,24.702z
		 M68.569,24.37c0.243,0.141,0.509,0.422,0.724,0.606C69.179,24.713,68.884,24.378,68.569,24.37
		c0.147,0.087,0.178,0.099,0.093,0.036C68.505,24.314,68.839,24.377,68.569,24.37C68.812,24.512,68.668,24.373,68.569,24.37z
		 M61.835,22.343c0.766,0.818,1.641,1.517,2.329,2.409c0.652,0.845,1.186,1.77,1.771,2.66c-0.053-0.205-0.106-0.41-0.158-0.615
		c0.813,0.925,0.908,2.7,2.249,3.076c1.249,0.35,2.565-0.098,3.824-0.121c-0.719-0.702-1.283-1.54-1.835-2.374
		c0.052,0.249,0.105,0.499,0.157,0.748c-0.505-0.587-0.934-1.503-1.797-1.611c-0.904-0.113-1.255-1.142-2.037-1.484
		c0.193,0.201-0.199,0.251,0.052,0.294c-0.767-0.132-1.45-1.224-2.041-1.701c-0.202-0.163-2.447-1.25-2.434-1.183
		c0.024,0.12,0.287,0.104,0.307,0.141C62.107,22.483,61.978,22.403,61.835,22.343C62.252,22.787,61.936,22.396,61.835,22.343
		c0.116,0.126,0.234,0.25,0.355,0.372C62.075,22.606,61.98,22.419,61.835,22.343C62.495,23.047,61.901,22.377,61.835,22.343z
		 M58.655,22.283c-0.033,0.312,0.212,0.816,0.302,1.109c0.061,0.2,0.603,1.258,0.329,0.356c0.043,1.728,0.65,3.567,0.93,5.276
		c0.297,1.807,3.798,0.872,5.084,0.833c-0.306-0.75-0.472-0.996-1.042-1.539c-0.473-0.45-0.423-1.212-0.923-1.653
		c0.021,0.059,0.028,0.12,0.021,0.181c-0.39-0.212-1.248-1.884-1.634-2.529c-0.545-0.91-1.425-1.59-2.237-2.263
		c-0.455-0.377-1.14-0.531-1.556-0.922c0.073-0.01,0.142,0.009,0.208,0.059c-0.279-0.222-0.602-0.378-0.929-0.516
		c0.265,0.204,1.737,1.418,1.401,1.799C58.583,22.503,58.444,22.006,58.655,22.283C58.62,22.607,58.413,21.964,58.655,22.283
		C58.653,22.299,58.419,21.972,58.655,22.283z M53.803,32.076c-0.276,2.556-0.683,5.098-0.867,7.663
		c1.771-0.009,3.544,0.111,5.314,0.088c0.691-0.009,1.05,0.109,1.129-0.625c0.119-1.099-0.07-2.216-0.182-3.308
		c0.258,0.6,0.231,1.264,0.281,1.9c0.328-0.029-0.165-2.99-0.137-3.346c0.048,1.1,0.067-0.585,0.068-0.654
		c0.006-0.521-0.008-1.044,0.043-1.564c-0.194-0.027-0.271,0.346-0.327,0.46c-0.084-0.955-1.946-0.471-2.518-0.46
		c-0.429,0.008-0.732-0.104-1.182-0.062c-0.152,0.014-0.793,0.23-0.429,0.079c-0.317,0.254-0.661-0.089-0.973,0.147
		C54.14,32.122,53.92,32.231,53.803,32.076c-0.038,0.35,0.095,0.855-0.098,1.17C53.839,33.026,53.971,32.299,53.803,32.076
		c-0.023,0.215,0.026,0.963-0.098,1.164C53.804,33.079,53.919,32.23,53.803,32.076C53.527,34.632,53.902,32.207,53.803,32.076z
		 M54.913,22.399C55.062,22.286,54.952,22.343,54.913,22.399C54.933,22.384,54.93,22.376,54.913,22.399z M50.368,25.288
		c-1.15,0.753-1.678,2.112-2.301,3.275c0.147-0.127,0.294-0.254,0.442-0.381c-0.251,0.583-0.577,1.13-0.855,1.7
		c1.134,0.023,4.662,0.83,4.58-1.181c-0.021,0.053-0.231,0.32-0.034-0.022c-0.011,0.052-0.038,0.087-0.081,0.104
		c-0.174-0.387,0.687-2.193,1.02-2.46c-0.049,0.039-0.37,0.366-0.369,0.369c-0.085-0.298,0.317-0.476,0.386-0.722
		c0.226-0.551,0.401-1.125,0.612-1.683c0.246-0.646,0.487-1.53,1.1-1.934c-0.08,0.01-0.815-0.098-0.582,0.146
		c-0.147-0.273-1.023,0.429-1.143,0.517c-0.135,0.098-1.225,0.919-0.52,0.491c-1.043,0.302-1.685,1.288-2.497,1.936
		c0.092-0.066,0.187-0.129,0.283-0.19c-0.14,0.085-0.302,0.183-0.432,0.287C50.048,25.483,50.513,25.184,50.368,25.288
		C49.241,26.026,50.735,25.026,50.368,25.288z M50.108,23.293c0.147-0.009,0.166,0.063,0.279-0.057
		C50.294,23.255,50.201,23.274,50.108,23.293z M42.428,28.732c-0.285,0.319-0.587,0.623-0.883,0.932
		c1.205,0.094,2.902,0.776,3.963-0.108c0.723-0.602,0.723-1.169,0.93-1.993c0.168-0.669,0.874-1.029,1.163-1.635
		c-0.212,0.196-0.196-0.12-0.206-0.01c0.107-1.117,2.256-1.915,2.912-2.6c-1.222,0.012-2.279,0.884-3.293,1.462
		c-1.005,0.572-2.026,1.156-2.847,1.984c0.2-0.092,0.401-0.183,0.601-0.274c-0.524,0.594-2.035,1.506-2.36,2.256
		c0.059-0.136,0.474-0.504-0.045,0.057c0.536-0.5,0.144-0.135,0,0c0.084-0.079,0.15-0.182,0.229-0.266
		C42.54,28.603,42.485,28.668,42.428,28.732C42.143,29.051,42.919,28.156,42.428,28.732z M42.88,25.284
		C42.911,25.287,42.94,25.258,42.88,25.284C42.88,25.284,42.893,25.279,42.88,25.284z M35.499,30.05
		c0.308,0.012,2.979-0.084,3.016-0.17c-0.338-0.136-0.274-0.233,0.192-0.292c0.25-0.141,0.477-0.313,0.68-0.516
		c-0.1,0.122-0.199,0.246-0.3,0.368c0.773-0.934,1.666-1.606,2.649-2.321c-0.245,0.062-0.491,0.125-0.736,0.187
		c0.51-0.479,1.971-1.176,1.878-2.022c-0.524,0.233-1.036,0.493-1.541,0.766c0.258-0.035,0.516-0.07,0.775-0.105
		c-1.016,0.852-2.244,1.394-3.404,2.017c-1.133,0.608-2.013,1.556-3.123,2.168C35.78,30.025,35.751,29.998,35.499,30.05
		c0.221,0.009,0.261,0.004,0.118-0.015C35.463,30.029,35.726,29.894,35.499,30.05C35.756,30.06,35.571,30,35.499,30.05z
		 M26.792,39.926c0.145-0.035,1.784-0.084,1.04-0.198c1.281,0.449,2.679,0.192,4,0.165c1.155-0.024,1.289-0.749,1.539-1.767
		c0.57-2.323,2.713-4.115,3.499-6.349c-0.961-0.003-1.941-0.829-2.898-0.473c-0.942,0.35-1.614,1.474-2.232,2.206
		C29.996,35.572,28.248,37.644,26.792,39.926c0.156-0.038,0.89-0.895,0.733-0.988C27.401,38.864,26.864,39.813,26.792,39.926
		c0.17-0.042,0.72-0.803,0.675-0.974C27.487,39.028,26.826,39.873,26.792,39.926C26.912,39.896,28.174,37.761,26.792,39.926z
		 M23.383,49.994c0.36-0.044,0.718-0.106,1.078-0.151c0.211-0.026,1.622-0.059,0.687-0.14c1.103,0.353,4.949,1.005,5.456-0.516
		c0.355-1.064,0.421-2.231,0.719-3.317c0.09-0.327,0.234-0.733,0.176-1.078c-0.064-0.379-0.454-0.662-0.243-1.114
		c-0.025,0.114,0.019,0.159,0.132,0.133c0.103-0.802,0.038-0.653,0.486-1.29c0.44-0.626-0.048-0.926-0.681-0.973
		c-0.959-0.071-1.9-0.213-2.848-0.373c-0.697-0.118-1.691-0.511-2.283,0.051c-0.824,0.782-1.091,2.169-1.357,3.225
		c-0.457,1.815-0.969,3.609-1.22,5.468c-0.117-0.283-0.049,0.192,0.004,0.149c0.085-0.108,0.071-0.177-0.042-0.206
		c-0.348,0.19,0.297,0.125,0.107,0.006C23.455,49.84,23.399,49.881,23.383,49.994C23.543,49.974,23.421,49.71,23.383,49.994z
		 M23.027,59.95c0.007,0.031,0.019,0.061,0.025,0.092C23.083,60.024,23.085,59.996,23.027,59.95z M23.745,59.769
		c0.367,0.191,1.451,0.39,1.776,0.044c-0.102-0.107-0.227-0.15-0.374-0.127c1.602,0.513,3.296,0.127,4.937,0.166
		c-0.143-1.056,0.475-2.53-0.173-3.474c0.416,0.228,0.134-0.875,0.094-1.003c-0.066-0.209,0.013-1.158,0.103-0.792
		c-0.005-0.198,0.048-0.958-0.169-1.054c-0.197,0.059-0.187,0.22,0.028,0.483c-0.063-0.257-0.132-1.891,0.012-1.946
		c0.53-0.202,0.251-0.452-0.217-0.411c0.231,0.099-0.415,0.196,0.213,0.137c-0.767-0.03-2.025-0.042-2.586-0.552
		c0.04,0.036,0.412,0.269,0.4,0.276c-0.358,0.204-1.259-0.183-1.64-0.248c-0.971-0.166-1.931-0.154-2.887-0.454
		c-0.314,2.068-0.624,4.118-0.539,6.216c0.031,0.77,0.116,1.536,0.153,2.305c0.054,1.115,0.762,0.09,1.027,0.541
		c-0.156-0.267-0.188,0.143-0.068-0.023C23.804,59.897,23.477,59.844,23.745,59.769C24.006,59.904,23.408,59.864,23.745,59.769z
		 M25.89,69.917c0.34,0.085,0.818-0.017,1.164-0.032c0.15-0.007,1.665-0.094,0.779-0.223c1.305,0.457,2.693,0.107,4.034,0.152
		c-0.381-1.923-1.42-3.759-1.38-5.756c0.009-0.465,0.183-2.64-0.726-2.419c0.231,0.099-0.415,0.196,0.213,0.137
		c-0.767-0.03-2.025-0.042-2.586-0.552c0.04,0.036,0.412,0.269,0.4,0.276c-0.358,0.204-1.259-0.183-1.64-0.248
		c-0.971-0.166-1.931-0.153-2.886-0.454c0.736,2.263,0.64,4.641,1.498,6.9c0.264,0.694,0.528,1.42,0.864,2.085
		C25.741,70.013,26.373,70.232,25.89,69.917C26.212,69.998,25.962,69.977,25.89,69.917C26.323,70.026,25.984,69.996,25.89,69.917
		C25.977,69.939,26.019,70.024,25.89,69.917z M33.949,79.867c0.175-0.026,0.74-0.049,0.245-0.256
		c0.742,0.336,1.569,0.197,2.351,0.156c-0.419-0.719-0.814-1.453-1.284-2.141c-0.079-0.116-0.358-0.957-0.48-0.543
		c-0.094-1.149-0.992-2.1-1.307-3.192c-0.155-0.536-0.548-2.512-1.43-2.277c0.205,0.095-0.374,0.184,0.194,0.137
		c-0.998-0.043-1.922-0.425-2.903-0.561c-1.063-0.147-2.189-0.024-3.209-0.413c1.19,2.321,2.852,4.339,4.368,6.446
		c0.612,0.851,1.23,1.79,2.108,2.394C32.897,79.819,33.985,79.883,33.949,79.867C34.138,79.84,33.904,79.847,33.949,79.867z
		 M41.449,85.701c-0.935-0.88-1.782-1.849-2.59-2.845c-0.323-0.398-0.56-0.879-0.985-1.186c-0.14-0.102-0.664-0.095-0.269,0.031
		c-0.622-0.035-1.178-0.34-1.786-0.442c-0.57-0.096-1.156-0.109-1.711-0.286c0.456,0.419,0.791,0.961,1.306,1.316
		c0.549,0.379,1.192,0.591,1.739,0.971c0.677,0.47,1.379,0.904,2.097,1.308c0.431,0.243,0.868,0.475,1.31,0.698
		c0.214,0.108,1.471,0.928,0.503,0.108c0.817,0.738,0.214,0.134,0.005,0.015C41.061,85.395,41.386,85.671,41.449,85.701
		c-0.111-0.126-0.238-0.23-0.381-0.311C41.018,85.419,41.455,85.704,41.449,85.701C40.521,84.828,41.099,85.535,41.449,85.701z
		 M49.211,88.303c-0.581-0.886-1.545-1.223-1.95-2.319c-0.284-0.769-0.902-1.419-1.278-2.149c-0.371-0.721-0.796-1.647-1.571-2.015
		c-0.459-0.218-0.949-0.106-1.362,0.159c-0.05,0.029-0.659-0.188-0.798-0.188c0.419-0.162,0.875-0.109,1.312-0.099
		c0-0.392-1.086-0.173-1.283-0.136c-0.198,0.037-1.147-0.062-0.734-0.059c-0.359-0.129-0.739-0.202-1.12-0.205
		c1.589,1.198,2.759,2.844,4.282,4.115c0.698,0.583,1.456,1.105,2.217,1.601c0.384,0.25,0.774,0.492,1.173,0.719
		c0.147,0.084,1.465,0.651,0.967,0.406C49.047,88.219,49.096,88.276,49.211,88.303C48.938,87.887,48.994,88.196,49.211,88.303
		C49.004,87.989,48.939,88.169,49.211,88.303z M53.55,89.085c-0.392-0.921-0.616-1.903-0.866-2.869
		c-0.294-1.134-0.806-2.264-0.911-3.437c-0.076-0.85-0.043-0.737-0.831-0.918c-0.513-0.117-0.575-0.185-0.735,0.21
		c-0.106,0.261-0.591,0.085-0.777,0.279c0.242-0.244-1.717-0.286-1.906-0.32C48.93,84.72,50.408,88.085,53.55,89.085
		c-0.103-0.243-1.09-0.923-1.308-0.586C52.165,88.617,53.416,89.042,53.55,89.085c-0.085-0.199-1.171-1.004-1.325-0.627
		C52.136,88.674,53.477,89.062,53.55,89.085C53.037,87.882,50.763,88.199,53.55,89.085z M58.947,78.086
		c-0.153-0.293,0.083-1.223,0.147-1.655c0.203-1.361,0.404-2.849,0.214-4.218c0.028,0.146,0.043,0.135,0.043-0.033
		c-0.952,0.149-2.236-0.653-3.104-0.051c0.111-0.299-1.313-0.099-1.173-0.16c-0.156,0.044-0.967,0.514-0.369,0.162
		c-0.404,0.25-0.844-0.056-1.257,0.147c0.184-0.335-0.531-0.5-0.384-0.169c-0.081-0.129-0.187-0.159-0.317-0.089
		c-0.122,0.311,0.15,1.296,0.183,1.647c0.058,0.614,0.151,1.224,0.2,1.839c0.087,1.101-0.071,2.847,0.614,3.786
		c0.532,0.729,1.885,0.445,2.631,0.385c0.61-0.049,1.223-0.103,1.836-0.09C59.002,79.604,58.776,78.772,58.947,78.086
		c0.12,0.104,0.116,0.196-0.013,0.277c0.031-0.645,0.118-0.06-0.004-0.008C58.935,78.265,58.941,78.175,58.947,78.086
		c0.079,0.118,0.072,0.205-0.022,0.261C58.932,78.259,58.939,78.172,58.947,78.086C59.034,78.253,58.832,78.548,58.947,78.086z
		 M63.082,85.094c0.719-0.949,1.258-2.015,1.789-3.076c-0.431-0.041-0.846,0.104-1.271,0.139c-0.455,0.037-0.882-0.147-1.336-0.132
		c-0.849,0.028-1.551,0.101-1.812,1.019c-0.273,0.96-0.241,1.976-0.507,2.938c-0.322,1.164-0.73,2.301-1.146,3.434
		c1.197-0.631,2.144-1.61,3.068-2.578c0.43-0.451,1.498-1.409,1.564-2.106C63.425,84.802,63.166,85.226,63.082,85.094
		c-0.174,0.229,0.363-0.49,0.35-0.363C63.425,84.804,63.166,85.226,63.082,85.094C63.801,84.146,63.212,85.298,63.082,85.094z
		 M70.996,82.536c0.064-0.235,0.422-0.447,0.545-0.667c-0.066,0.013-0.582,0.101-0.381-0.095c-1.358,1.071-3.003-0.952-4.073,0.975
		c-1.091,1.964-2.07,4.049-3.707,5.634c1.277-0.894,2.709-1.543,3.952-2.488C68.654,84.889,69.754,83.634,70.996,82.536
		c-0.069,0.253-0.342,0.616-0.627,0.645C70.637,83.154,70.815,82.696,70.996,82.536c-0.066,0.241-0.373,0.575-0.623,0.631
		C70.595,83.117,70.827,82.686,70.996,82.536c-0.057,0.209-0.421,0.518-0.615,0.602C70.503,83.085,70.913,82.609,70.996,82.536
		C71.012,82.478,69.62,83.753,70.996,82.536z M75.779,83.234c0.343-0.369,0.553-0.955,1.121-1.03
		c0.214,0.211,0.671-0.431,0.777-0.555c-1.436,0.29-2.925-0.49-3.998,0.866c-1.086,1.373-1.945,2.714-3.32,3.854
		c0.976-0.485,1.91-1.065,2.866-1.59c0.472-0.259,0.943-0.524,1.431-0.751c0.23-0.107,0.496-0.383,0.454-0.272
		c0.317-0.217,0.65-0.47,0.912-0.753c-0.085,0.092-0.468,0.46-0.067,0.043C75.949,83.053,75.777,83.232,75.779,83.234
		C76.183,82.8,75.783,83.24,75.779,83.234C76.125,82.862,75.786,83.245,75.779,83.234z M112,55.785
		c-0.489-0.157-0.997-0.278-1.442-0.545c-0.004-0.001-1.029-0.187-1.406-0.243c-1.361-0.202-2.689-0.714-4.066-0.781
		c0.103,0.023,0.204,0.052,0.303,0.087c-0.05,0.005-0.334-0.056-0.131,0.049c-0.45,0.135-0.832-0.173-1.268-0.084
		c-0.207,0.108-0.42,0.202-0.64,0.281c-0.372,0.05-0.723-0.112-1.089-0.133c0.125,0.137,0.252,0.271,0.383,0.403
		c-0.378-0.115-0.757-0.23-1.142-0.322c-0.19-0.045-1.322-0.121-0.628-0.076c-0.276-0.065-2.618,0.18-2.618-0.198
		c0.501,0.01,1.017,0.058,1.503-0.099c-0.63,0-1.168-0.152-1.809-0.121c-0.928,0.046-2.16,0.068-3.021-0.279
		c0.072,1.248-0.483,2.86,1.383,2.757c0.914-0.05,1.701-0.151,2.618-0.095c1.167,0.072,2.334,0.15,3.503,0.167
		c0.424,0.006,0.851,0.011,1.274-0.032c0.165-0.017,1.034-0.267,0.178-0.37c1.681-0.109,3.489-0.49,5.112,0.151
		c-0.566-0.072,0.691-0.116,0.886-0.093c0.34,0.04,0.568-0.16,0.872-0.262C111.164,55.814,111.615,56.036,112,55.785
		c-0.114-0.089-0.216-0.08-0.305,0.025C111.797,55.802,111.898,55.794,112,55.785c-0.137-0.089-0.24-0.081-0.309,0.024
		C111.789,55.884,111.892,55.876,112,55.785C111.511,55.629,111.663,56.005,112,55.785z M103.191,82.433
		c-0.433-0.627-1.304-0.942-1.872-1.437c-0.811-0.706-1.508-1.546-2.418-2.132c0.078,0.071,0.151,0.147,0.219,0.227
		c-0.046-0.021-0.261-0.215-0.138-0.022c-0.495-0.117-0.691-0.651-1.136-0.849c-0.55,0.424-1.087-0.33-1.491-0.593
		c0.04,0.181,0.083,0.361,0.13,0.54c-0.27-0.289-0.54-0.578-0.828-0.85c-0.142-0.134-1.084-0.766-0.506-0.38
		c-0.236-0.222-2.354-1.158-2.168-1.48c0.429,0.259,0.852,0.558,1.352,0.666c-1.285-0.741-2.472-1.409-3.605-2.383
		c-0.677,1.323-1.722,2.275,0.115,3.085c0.713,0.315,1.34,0.606,2.005,1.013c0.927,0.567,1.851,1.139,2.788,1.689
		c0.168,0.099,2.016,1.037,1.254,0.416c1.51,0.746,3.267,1.32,4.352,2.687c-0.454-0.346,0.657,0.245,0.814,0.362
		c0.274,0.205,0.572,0.145,0.886,0.209c0.42,0.086,0.707,0.505,1.161,0.48c-0.345-0.38-0.725-0.739-0.976-1.193
		C103.5,82.762,103.149,82.341,103.191,82.433C102.892,81.999,103.24,82.54,103.191,82.433z M67.989,99.91
		c-0.686-1.363-0.171-2.97-0.487-4.409c0.008,0.448-0.319-0.836-0.371-0.964c-0.274-0.679-0.145-1.075-0.912-0.951
		c-0.345,0.056-1.013,0.142-0.896,0.653c0.038,0.166,0.497,1.352,0.415,0.668c0.461,1.381,1.156,2.769,1.018,4.266
		c-0.113-0.341,0.379,0.576,0.421,0.768c0.122,0.567,0.205,1.19,0.648,1.613c0.017-0.61,0.361-1.361,0.065-1.834
		C67.891,99.724,67.971,99.922,67.989,99.91C67.348,98.639,67.965,99.925,67.989,99.91z M83.152,102.353
		c-0.062-0.76-0.658-1.468-0.903-2.18c-0.349-1.016-0.533-2.092-1.028-3.055c0.032,0.101,0.057,0.203,0.076,0.306
		c-0.03-0.041-0.118-0.317-0.108-0.088c-0.397-0.374-0.224-1.132-0.812-1.323c-0.509-0.165-0.539-0.838-0.742-1.24
		c-0.056,0.176-0.109,0.354-0.157,0.533c-0.157-0.68-0.491-1.299-0.691-1.965c0.439,0.311,0.079-0.058-0.07-0.334
		c-0.132-0.244-0.32-0.458-0.483-0.681c-0.118-0.161-0.746-0.937-0.434-1.117c0.242,0.439,0.459,0.91,0.838,1.252
		c-0.67-1.158-1.251-2.266-1.789-3.506c-0.958,0.607-2.504,0.928-1.669,2.321c0.433,0.722,0.997,1.32,1.396,2.066
		c0.467,0.872,0.93,1.746,1.413,2.609c0.104,0.186,1.303,2.017,0.953,1.097c0.935,1.401,2.17,2.777,2.426,4.503
		c-0.22-0.526,0.446,0.54,0.524,0.72c0.135,0.315,0.423,0.412,0.663,0.625c0.321,0.285,0.36,0.791,0.766,0.997
		c-0.109-0.502-0.258-1.002-0.249-1.521C83.255,102.792,83.162,102.252,83.152,102.353C83.11,101.827,83.141,102.471,83.152,102.353
		z M89.012,88.195c-0.306-0.671-0.884-1.168-1.339-1.731c-0.544-0.674-0.875-1.496-1.461-2.139c0.254,0.424-0.574-0.577-0.641-0.623
		c-0.501-0.344-0.753-0.495-1.183-0.973c0.079-0.372-0.104,0.602-0.056,0.495c0.233-0.521-0.819,0.364-0.893,0.454
		c-0.302,0.372,0.67,1.305,1.001,1.369c0.077-0.129,0.059-0.247-0.053-0.354c1.09,0.965,2.386,1.821,3.015,3.186
		c-0.268-0.239,0.617,0.309,0.748,0.455c0.39,0.43,0.773,0.928,1.367,1.073c-0.208-0.384-0.447-0.758-0.566-1.183
		c0.283,0.35,0.022-0.127-0.013-0.182C88.962,88.079,89.005,88.161,89.012,88.195C88.723,87.562,89.031,88.292,89.012,88.195z
		 M18.366,44.529c-0.324,0.025-0.647,0.018-0.969-0.022c0.856-0.203-0.503-0.43-0.724-0.497c-0.151-0.046-1.291-0.291-1.306-0.485
		c0.036-0.033,0.08-0.042,0.132-0.027c-1.962-0.431-4.071-0.377-6.053-0.322c0.336,0.351,0.808,0.48,1.267,0.576
		c0.229,0.043,0.457,0.094,0.682,0.154c0.039,0.011,0.897,0.492,0.432,0.338c1.497-0.137,2.886,0.557,4.266,1.018
		c-0.683-0.057,0.646,0.416,0.817,0.456c0.261,0.06,1.13,0.498,1.362,0.367c0.243-0.137,0.357-1.27,0.439-1.535
		c-0.136-0.009-0.287,0.046-0.422,0.01C18.43,44.599,18.141,44.576,18.366,44.529C18.042,44.554,18.484,44.504,18.366,44.529z
		 M57.262,94.968c-0.683,0.022-1.361-0.155-2.046-0.043c-0.961,0.157-0.636,2.219-0.615,2.918c0.045,1.537-0.099,3.064-0.096,4.6
		c0,0.217,0.142,2.413,0.341,1.441c0.109,1.681,0.49,3.489-0.151,5.112c0.072-0.566,0.116,0.691,0.093,0.886
		c-0.04,0.34,0.16,0.568,0.262,0.872c0.137,0.409-0.086,0.861,0.165,1.246c0.157-0.489,0.278-0.997,0.545-1.442
		c0-0.004,0.187-1.029,0.243-1.406c0.202-1.361,0.714-2.689,0.781-4.066c-0.023,0.103-0.052,0.204-0.087,0.303
		c-0.005-0.051,0.056-0.334-0.049-0.131c-0.135-0.45,0.173-0.832,0.084-1.268c-0.108-0.207-0.202-0.42-0.281-0.64
		c-0.05-0.372,0.112-0.723,0.133-1.089c-0.137,0.125-0.271,0.252-0.403,0.383c0.115-0.378,0.231-0.757,0.322-1.142
		c0.045-0.19,0.121-1.322,0.076-0.628c0.065-0.276-0.181-2.618,0.198-2.618c-0.01,0.501-0.058,1.017,0.099,1.503
		c0-0.72,0.13-1.375,0.108-2.113c-0.013-0.451,0.071-0.894,0.087-1.344c0.004-0.303,0.029-0.604,0.076-0.904
		c0.134-0.74-0.087-0.444-0.094-0.285C57.177,95.147,57.247,95.099,57.262,94.968c-0.164-0.053-0.298-0.013-0.403,0.119
		C56.943,95.263,57.222,95.074,57.262,94.968c-0.174-0.032-0.254,0.016-0.241,0.146C57.14,95.161,57.22,95.112,57.262,94.968
		C56.87,94.981,57.121,95.341,57.262,94.968z M45.507,93.604c-0.092-0.041-0.185-0.081-0.277-0.122
		c-0.085,0.496-0.525,0.882-0.537,1.39c-0.006,0.243-0.053,0.541-0.15,0.765c-0.066,0.062-0.081,0.017-0.045-0.136
		c-0.431,1.961-0.377,4.071-0.322,6.053c0.351-0.336,0.48-0.808,0.576-1.267c0.043-0.229,0.094-0.457,0.154-0.682
		c0.011-0.039,0.492-0.897,0.338-0.432c-0.137-1.497,0.557-2.886,1.018-4.266c-0.075,0.623,0.273,0.035,0.298-0.044
		c0.099-0.318,0.107-0.656,0.2-0.974C46.544,93.837,45.508,93.644,45.507,93.604C45.415,93.563,45.507,93.567,45.507,93.604z
		 M11.777,56.369c1.465-0.175,3.07,0.262,4.493-0.024c1.245-0.25,0.75-1.737,0.8-2.619c-0.77,0.31-1.889,0.316-2.717,0.291
		c-0.738-0.022-1.393,0.109-2.113,0.108c0.487,0.157,1.003,0.109,1.503,0.099c0,0.378-2.342,0.133-2.618,0.198
		c0.802-0.201-0.401,0.19-0.499,0.203c-0.424,0.053-0.86,0.07-1.272,0.195c0.13-0.132,0.258-0.266,0.383-0.403
		c-0.445,0.024-0.978,0.32-1.397,0.024c-0.5-0.354-1.065,0.072-1.6-0.088c0.203-0.106-0.08-0.044-0.131-0.049
		c0.099-0.036,0.2-0.065,0.303-0.087C4.518,54.333,2.073,55.121,0,55.785c0.516,0.336,1.265,0.27,1.85,0.376
		c0.272,0.049,0.573-0.039,0.843-0.055c0.088-0.005,0.813,0.195,0.311,0.2c1.623-0.641,3.431-0.26,5.112-0.151
		c-0.947,0.175-0.059,0.212,0.098,0.212c0.485-0.001,0.971-0.014,1.456-0.025c0.89-0.021,1.911-0.185,2.793-0.036
		C12.264,56.272,11.963,56.281,11.777,56.369c0.143-0.017,0.392,0.024,0.521-0.037C12.149,56.403,11.898,56.312,11.777,56.369
		c-0.102,0.012,0.555-0.065,0.552-0.045C12.316,56.405,11.67,56.42,11.777,56.369C12.654,56.264,11.465,56.518,11.777,56.369z
		 M20.449,74.336c-0.145,0.269-1.031,0.791-1.423,0.994c-0.208,0.108-0.571,0.083-0.726,0.228c-0.199,0.185-0.396,0.427-0.634,0.563
		c0.499-0.107,0.923-0.407,1.352-0.666c0.186,0.322-1.932,1.258-2.169,1.48c0.594-0.574-0.252,0.365-0.33,0.425
		c-0.341,0.258-0.71,0.49-1.004,0.805c0.047-0.179,0.09-0.359,0.13-0.54c-0.367,0.24-0.726,0.487-1.143,0.633
		c-0.531,0.185-0.963,0.687-1.484,0.81c0.123-0.193-0.092,0.002-0.138,0.022c0.068-0.08,0.141-0.156,0.219-0.227
		c-1.988,1.28-3.714,3.175-5.204,4.816c0.615,0.033,1.231-0.399,1.79-0.6c0.26-0.093,0.477-0.32,0.703-0.47
		c0.074-0.049,0.802-0.238,0.369,0.018c1.085-1.366,2.842-1.941,4.352-2.687c-0.12,0.093-0.197,0.213-0.232,0.36
		c0.123,0.263,3.508-1.986,3.831-2.2c1.051-0.698,2.15-1.321,3.268-1.905c0.907-0.473-0.445-1.951-0.705-2.459
		c-0.205,0.174-0.833,0.657-0.74,0.579c0.175-0.147-0.214,0.113-0.026-0.005C20.618,74.237,20.599,74.245,20.449,74.336
		C20.409,74.41,20.746,74.151,20.449,74.336z M28.741,83.881c-0.041-0.04-1.17-1.108-1.038-0.727
		c-0.033-0.141-0.063-0.283-0.09-0.426c-0.207,0.23-0.329,0.526-0.57,0.727c-0.221,0.184-0.529,0.183-0.714,0.422
		c-0.076,0.098-0.768,0.825-0.54,0.447c-1.351,1.48-2.364,3.341-3.306,5.081c0.453-0.111,0.803-0.473,1.114-0.797
		c0.166-0.179,0.336-0.352,0.512-0.521c0.019-0.017,0.884-0.55,0.49-0.21c0.63-1.365,1.925-2.22,3.015-3.186
		c-0.56,0.642,0.202,0.158,0.31,0.055C28.212,84.473,28.456,84.156,28.741,83.881c-0.097-0.095-0.49,0.015-0.328,0.174
		C28.559,84.064,28.668,84.006,28.741,83.881c-0.115-0.112-0.485,0.021-0.33,0.172C28.557,84.065,28.667,84.008,28.741,83.881
		c-0.114-0.112-0.363,0.14-0.298,0.203C28.566,84.061,28.666,83.993,28.741,83.881C28.515,83.66,28.168,84.433,28.741,83.881z
		 M35.597,89.57c-0.721,0.268-0.916,1.739-1.15,2.373c-0.159,0.431-0.368,0.895-0.789,1.132c-0.165,0.11-0.186,0.698-0.295,0.887
		c0.379-0.343,0.596-0.813,0.838-1.252c0.312,0.18-0.317,0.956-0.434,1.117c-0.163,0.223-0.351,0.437-0.483,0.682
		c-0.15,0.277-0.509,0.645-0.07,0.334c-0.2,0.666-0.534,1.285-0.691,1.965c-0.049-0.179-0.101-0.356-0.157-0.533
		c-0.203,0.401-0.217,1.068-0.723,1.239c-0.583,0.198-0.439,0.954-0.832,1.323c0.01-0.229-0.079,0.048-0.108,0.089
		c0.019-0.104,0.044-0.206,0.076-0.306c-1.077,2.095-1.632,4.619-2.098,6.773c0.416-0.211,0.78-0.971,1.041-1.335
		c0.115-0.16,1.098-1.495,0.911-1.007c0.257-1.726,1.49-3.102,2.426-4.503c-0.441,0.839,0.315,0.174,0.41,0.035
		c0.254-0.373,0.455-0.78,0.659-1.181c0.646-1.269,1.31-2.53,1.969-3.792c0.312-0.598,1.814-2.509,1.476-3.138
		c-0.355-0.661-1.329-0.835-1.922-1.199c0.059,0.22-0.021,0.337-0.24,0.353C35.558,89.626,35.599,89.553,35.597,89.57
		C35.079,89.762,35.609,89.47,35.597,89.57z"/>
</g>
<g id="Layer_1">
</g>
</svg>
