<?xml version="1.0" encoding="iso-8859-1"?>
<!-- Generator: Adobe Illustrator 17.1.0, SVG Export Plug-In . SVG Version: 6.00 Build 0)  -->
<!DOCTYPE svg PUBLIC "-//W3C//DTD SVG 1.1//EN" "http://www.w3.org/Graphics/SVG/1.1/DTD/svg11.dtd">
<svg version="1.1" xmlns="http://www.w3.org/2000/svg" xmlns:xlink="http://www.w3.org/1999/xlink" x="0px" y="0px"
	 viewBox="0 0 65.335 62.076" style="enable-background:new 0 0 65.335 62.076;" xml:space="preserve">
<g id="eye">
	<path style="fill:#F7A13A;" d="M60.199,22.021C60.199,22.022,60.112,21.974,60.199,22.021
		C60.199,22.021,60.199,22.021,60.199,22.021z M63.251,19.328C63.3,19.398,63.265,19.336,63.251,19.328
		C63.251,19.328,63.257,19.332,63.251,19.328z M61.01,21.278C60.998,21.265,60.83,21.496,61.01,21.278
		C61.006,21.274,61.01,21.278,61.01,21.278z M61.038,23.393c0.532-0.551,1.159-1.026,1.584-1.673
		c0.254-0.387,0.168-1.448,1.066-1.599c-0.17,0.036,0.371-0.593,0.272-0.902c-0.238,0.079-0.498,0.005-0.725,0.099
		c0.091,0.08-1.227,0.713-1.346,0.833c0.033,0.013,0.068,0.019,0.103,0.017c-0.007,0.103-0.266,0.201-0.342,0.253
		c0.372,0.421-0.555,0.349,0.113,0.538c-0.263,0.079-0.492,0.257-0.764,0.303c0.172,0.143-0.214,0.467-0.341,0.454
		c0.097-0.112,0.131-0.27,0.22-0.385c-0.163,0.206-1.1,0.664-1.135,1.042C60.178,22.708,60.61,23.047,61.038,23.393
		c0.045-0.046-0.168-0.149-0.167-0.148C60.926,23.294,60.982,23.344,61.038,23.393C61.505,22.909,60.625,23.059,61.038,23.393z
		 M63.664,19.969l-0.002,0.003C63.695,19.999,63.686,19.984,63.664,19.969z M61.477,20.884
		C61.481,20.881,61.335,20.827,61.477,20.884C61.479,20.883,61.477,20.884,61.477,20.884z M62.252,19.872
		c0.015-0.015,0.025-0.032,0.023-0.051C62.227,19.86,62.234,19.868,62.252,19.872z M63.904,19.537
		C63.962,19.478,63.7,19.622,63.904,19.537C63.926,19.515,63.885,19.545,63.904,19.537z M53.316,17.034
		C53.318,17.032,53.234,16.921,53.316,17.034C53.318,17.032,53.316,17.034,53.316,17.034z M54.503,15.444
		C54.509,15.448,54.591,15.481,54.503,15.444C54.516,15.452,54.503,15.444,54.503,15.444z M57.697,11.8
		C57.751,11.869,57.711,11.805,57.697,11.8C57.697,11.8,57.703,11.802,57.697,11.8z M55.377,14.455
		c-0.04-0.051-0.077-0.015-0.111,0.11C55.364,14.629,55.329,14.528,55.377,14.455z M55.616,16.61c0.434-0.368,0.78-0.877,1.09-1.347
		c0.13-0.197,0.862-1.34,0.441-1.213c0.218-0.466,0.505-1.252,1.033-1.451c-0.222,0.094,0.358-0.796,0.264-1.069
		c-0.244,0.141-0.533,0.114-0.765,0.262c0.092,0.064-1.295,1.075-1.402,1.216c0.037,0.008,0.074,0.007,0.109-0.002
		c-0.005,0.129-0.264,0.282-0.356,0.355c0.616,0.315-0.721,0.493,0.134,0.58c-0.334,0.174-0.835,1.064-1.15,1.08
		c0.099-0.145,0.13-0.331,0.223-0.478c-0.007,0.012-0.223,0.468-0.276,0.203c0.002,0.377-1.478,2.19-1.565,2.02
		c0.102,0.166,0.074,0.238-0.084,0.215c0.059,0.094,0.134,0.172,0.226,0.235c0.005,0.305-0.423,0.427-0.532,0.674
		c0.446,0.253,0.888,0.513,1.327,0.778c0.322-0.569,0.773-1.822,1.38-2.132c-0.037,0.019-0.19,0.324-0.262,0.297
		C55.495,16.751,55.55,16.677,55.616,16.61C56.092,16.205,55.087,17.254,55.616,16.61z M58.15,12.433l-0.002,0.004
		C58.184,12.46,58.174,12.445,58.15,12.433z M55.861,13.916C55.865,13.91,55.71,13.88,55.861,13.916
		C55.863,13.914,55.861,13.916,55.861,13.916z M56.654,12.618c0.016-0.021,0.025-0.041,0.023-0.062
		C56.627,12.609,56.634,12.618,56.654,12.618z M58.393,11.898C58.442,11.833,58.192,12.028,58.393,11.898
		C58.415,11.869,58.373,11.911,58.393,11.898z M44.937,11.793C44.939,11.79,44.838,11.693,44.937,11.793
		C44.938,11.791,44.937,11.793,44.937,11.793z M45.876,9.813C45.883,9.815,45.97,9.83,45.876,9.813
		C45.89,9.818,45.876,9.813,45.876,9.813z M48.504,5.159C48.57,5.221,48.519,5.161,48.504,5.159
		C48.504,5.159,48.511,5.16,48.504,5.159z M46.597,8.547c-0.053-0.047-0.084,0-0.094,0.144C46.614,8.731,46.561,8.635,46.597,8.547z
		 M44.23,13.726c0.003,0.089,0.032,0.258,0.031,0.265c0.28,0.091,1.691,0.795,1.63,0.175c-0.048-0.482,0.521-1.485,0.686-1.957
		c0.305-0.871,0.792-1.64,1.099-2.504c0.113-0.316,1.001-2.235,0.63-2.017c0.149-0.563,0.287-1.44,0.807-1.795
		c-0.2,0.147,0.237-0.928,0.096-1.202c-0.219,0.205-0.521,0.255-0.726,0.464c0.111,0.051-1.132,1.466-1.214,1.634
		c0.04,0,0.076-0.01,0.109-0.029c0.017,0.157-0.219,0.347-0.3,0.464c0.675,0.192-0.659,0.701,0.226,0.585
		c0.011-0.009-0.648,0.916-0.494,0.538c-0.206,0.211-0.189,0.79-0.488,0.89c0.076-0.176,0.129-0.403,0.165-0.587
		c-0.012,0.061-0.18,0.541-0.262,0.307c0.041,0.407-1.167,2.649-1.251,2.53c0.095,0.096,0.22,0.608,0.117,0.849
		c-0.096,0.224-0.653,0.983-0.508,1.004c-0.143,0.033-0.085,0.201-0.267,0.064C44.403,13.57,44.105,13.723,44.23,13.726
		C44.23,13.714,44.251,13.726,44.23,13.726z M49.058,5.724l-0.001,0.005C49.096,5.744,49.084,5.731,49.058,5.724z M46.997,7.857
		C47.001,7.849,46.84,7.855,46.997,7.857C46.998,7.854,46.997,7.857,46.997,7.857z M47.588,6.283
		c0.013-0.026,0.019-0.05,0.013-0.071C47.56,6.28,47.568,6.287,47.588,6.283z M49.217,5.096C49.252,5.023,49.042,5.276,49.217,5.096
		C49.235,5.058,49.199,5.114,49.217,5.096z M32.37,8.852C32.371,8.848,32.242,8.79,32.37,8.852C32.37,8.849,32.37,8.852,32.37,8.852
		z M32.527,6.483C32.534,6.483,32.62,6.464,32.527,6.483C32.542,6.483,32.527,6.483,32.527,6.483z M33.287,0.751
		C33.372,0.788,33.301,0.748,33.287,0.751C33.287,0.751,33.293,0.749,33.287,0.751z M32.739,4.922
		c-0.071-0.028-0.082,0.032-0.035,0.182C32.822,5.096,32.738,5.023,32.739,4.922z M32.294,8.529c0.137,0.069,0.427,0.54,0.42,0.812
		c-0.007,0.253-0.244,1.246-0.111,1.213c-0.119,0.089,0.001,0.239-0.225,0.17c0.006,0.006,0.182,0.609,0.036,0.358
		c0.181,0.066,0.34,0.734,0.063,0.677c0.028,0.745,0.963,0.418,1.58,0.433c-0.092-1.846-0.033-3.704-0.022-5.552
		c0.004-0.735,0.177-1.42,0.233-2.131c0.02-0.249,0.029-1.507-0.247-1.127c-0.066-0.637-0.267-1.55,0.1-2.13
		C33.992,1.472,34.009,0.225,33.774,0c-0.166,0.346-0.402,0.485-0.508,0.754c0.057,0.003-0.518,1.863-0.539,2.127
		c0.038-0.016,0.068-0.04,0.091-0.072c0.076,0.158-0.075,0.431-0.111,0.587c0.71-0.07-0.369,0.972,0.423,0.502
		c0.012-0.024-0.271,1.194-0.265,0.738c-0.119,0.303,0.119,0.853-0.132,1.091c0.006-0.186,0.005-0.512-0.061-0.683
		c0.03,0.079,0.018,0.627-0.131,0.438C32.704,5.832,32.384,8.593,32.294,8.529C32.407,8.615,32.407,8.615,32.294,8.529
		C32.369,8.566,32.396,8.601,32.294,8.529z M34.008,1.104l0,0.006C34.05,1.109,34.034,1.101,34.008,1.104z M32.861,4.067
		C32.862,4.058,32.714,4.127,32.861,4.067C32.861,4.064,32.861,4.067,32.861,4.067z M32.84,2.246
		c0.003-0.031-0.001-0.058-0.014-0.077C32.813,2.254,32.823,2.258,32.84,2.246z M33.928,0.407
		C33.934,0.327,33.833,0.652,33.928,0.407C33.931,0.362,33.918,0.433,33.928,0.407z M5.2,22.901
		C5.205,22.897,5.265,22.832,5.2,22.901C5.212,22.891,5.2,22.901,5.2,22.901z M3.306,19.283C3.385,19.252,3.316,19.272,3.306,19.283
		C3.306,19.283,3.311,19.278,3.306,19.283z M4.688,21.913C4.673,21.922,4.859,22.138,4.688,21.913
		C4.683,21.915,4.688,21.913,4.688,21.913z M3.306,19.283c0.384,0.264,0.266,1.163,0.487,1.516c0.02-0.029,0.034-0.061,0.04-0.096
		c0.099,0.03,0.134,0.305,0.168,0.391c0.496-0.462,0.154,0.725,0.55,0.013c0.017,0.274,0.137,0.538,0.119,0.813
		c0.177-0.136,0.405,0.317,0.364,0.436c-0.086-0.12-0.233-0.19-0.324-0.303c0.247,0.311,0.358,0.989,0.752,1.339
		c0.333-0.269,0.869-0.495,1.079-0.889c0.256-0.48-0.436-1.03-0.658-1.406c-0.098-0.165-0.793-1.3-0.858-0.827
		c-0.304-0.285-0.877-0.763-0.846-1.232c-0.004,0.174-0.492-0.497-0.815-0.472C3.375,18.717,3.424,19.161,3.306,19.283
		C3.416,19.359,3.353,19.234,3.306,19.283z M4.025,19.029l0.003,0.003C4.06,19.006,4.044,19.011,4.025,19.029z M4.413,21.368
		C4.41,21.363,4.324,21.493,4.413,21.368C4.412,21.366,4.413,21.368,4.413,21.368z M3.605,20.381
		c-0.011-0.018-0.026-0.031-0.044-0.034C3.588,20.402,3.597,20.398,3.605,20.381z M3.659,18.696
		C3.615,18.626,3.695,18.914,3.659,18.696C3.643,18.67,3.663,18.717,3.659,18.696z M11.695,17.973
		C11.694,17.97,11.558,17.998,11.695,17.973C11.694,17.97,11.695,17.973,11.695,17.973z M10.773,16.216
		C10.779,16.212,10.844,16.152,10.773,16.216C10.786,16.207,10.773,16.216,10.773,16.216z M8.865,11.761
		C8.951,11.742,8.876,11.751,8.865,11.761C8.865,11.761,8.87,11.757,8.865,11.761z M10.258,15c-0.064,0.014-0.047,0.063,0.051,0.147
		C10.41,15.087,10.304,15.075,10.258,15z M8.865,11.761c0.451,0.445,0.223,1.305,0.475,1.803c0.023-0.03,0.038-0.063,0.045-0.099
		c0.114,0.06,0.141,0.36,0.167,0.474c0.55-0.42,0.133,0.863,0.581,0.129c0.001,0.017,0.28,0.952,0.104,0.662
		c0.031,0.252,0.482,0.583,0.374,0.841c-0.088-0.152-0.242-0.26-0.335-0.407c0.007,0.011,0.326,0.403,0.064,0.336
		c0.342,0.161,1.335,2.279,1.146,2.284c0.194-0.02,0.246,0.036,0.158,0.169c0.11-0.013,0.213-0.047,0.31-0.102
		c0.255,0.117,0.22,0.534,0.349,0.737c0.442-0.266,0.887-0.525,1.336-0.779c-0.663-0.955-1.163-2.012-1.837-2.959
		c-0.165-0.232-1.074-2.083-1.146-1.621c-0.326-0.398-0.911-0.997-0.863-1.558c-0.011,0.24-0.563-0.667-0.85-0.7
		C8.955,11.129,9.003,11.638,8.865,11.761C8.985,11.88,8.925,11.708,8.865,11.761z M9.632,11.626l0.003,0.004
		C9.67,11.607,9.653,11.61,9.632,11.626z M9.981,14.331C9.978,14.325,9.884,14.452,9.981,14.331
		C9.98,14.328,9.981,14.331,9.981,14.331z M9.153,13.055c-0.012-0.023-0.026-0.041-0.046-0.047
		C9.134,13.076,9.144,13.073,9.153,13.055z M9.255,11.176C9.217,11.103,9.285,11.413,9.255,11.176
		C9.237,11.143,9.258,11.2,9.255,11.176z M19.923,12.432C19.922,12.428,19.783,12.425,19.923,12.432
		C19.923,12.429,19.923,12.432,19.923,12.432z M19.276,10.338C19.283,10.335,19.357,10.287,19.276,10.338
		C19.29,10.332,19.276,10.338,19.276,10.338z M18.064,5.133C18.154,5.134,18.076,5.124,18.064,5.133
		C18.064,5.133,18.07,5.129,18.064,5.133z M18.951,8.919c-0.071,0.001-0.062,0.057,0.028,0.169
		C19.088,9.042,18.984,9.007,18.951,8.919z M20.896,14.452C20.886,14.45,20.893,14.453,20.896,14.452
		C20.896,14.452,20.895,14.453,20.896,14.452z M18.064,5.133c0.376,0.433,0.044,1.532,0.193,2.035
		c0.029-0.027,0.049-0.059,0.061-0.095c0.119,0.104,0.073,0.404,0.093,0.545c0.627-0.315-0.011,0.962,0.562,0.278
		c0.002-0.014,0.143,1.113,0,0.731c-0.009,0.287,0.394,0.712,0.243,0.986c-0.063-0.18-0.178-0.384-0.275-0.544
		c0.033,0.053,0.233,0.52,0.015,0.403c0.306,0.272,0.932,2.74,0.79,2.71c0.136,0.007,0.572,0.299,0.658,0.547
		c0.08,0.228,0.183,1.167,0.308,1.083c-0.083,0.121,0.073,0.206-0.153,0.228c0.255,0.092-0.075,0.192,0.247,0.364
		c-0.024-0.018,1.058-0.29,1.509-0.435c-0.01-0.028-0.247-0.553-0.198-0.617c-0.014,0.018,0.188,0.313,0.194,0.366
		c-0.132-1.033-0.962-2.113-1.29-3.109c-0.215-0.654-0.403-1.292-0.64-1.942c-0.095-0.26-0.607-2.008-0.75-1.538
		c-0.271-0.515-0.763-1.254-0.62-1.868c-0.046,0.235-0.454-0.844-0.742-0.951C18.254,4.475,18.229,5.031,18.064,5.133
		C18.194,5.283,18.137,5.087,18.064,5.133z M18.854,5.174l0.002,0.005C18.895,5.163,18.878,5.162,18.854,5.174z M18.778,8.139
		C18.776,8.131,18.661,8.244,18.778,8.139C18.777,8.136,18.778,8.139,18.778,8.139z M18.149,6.581
		c-0.008-0.027-0.02-0.049-0.039-0.061C18.126,6.597,18.137,6.597,18.149,6.581z M18.546,4.604
		C18.523,4.526,18.539,4.855,18.546,4.604C18.534,4.564,18.545,4.63,18.546,4.604z M63.195,42.793
		C63.116,42.824,63.184,42.804,63.195,42.793C63.195,42.793,63.19,42.798,63.195,42.793z M61.812,40.163
		C61.828,40.155,61.642,39.938,61.812,40.163C61.817,40.161,61.812,40.163,61.812,40.163z M63.195,42.793
		c-0.384-0.264-0.266-1.163-0.487-1.516c-0.02,0.029-0.034,0.061-0.04,0.096c-0.099-0.03-0.134-0.305-0.168-0.391
		c-0.496,0.462-0.154-0.724-0.55-0.013c-0.017-0.274-0.137-0.538-0.119-0.813c-0.177,0.136-0.405-0.317-0.364-0.436
		c0.086,0.12,0.233,0.19,0.324,0.303c-0.166-0.209-0.318-0.432-0.437-0.754c-0.451,0.287-0.854,0.648-1.276,0.975
		c0.271,0.338,0.466,0.732,0.717,1.085c0.394,0.556,1.591,0.744,1.528,1.708c0.004-0.174,0.492,0.497,0.815,0.472
		C63.125,43.359,63.076,42.915,63.195,42.793C63.084,42.717,63.147,42.842,63.195,42.793z M62.476,43.047l-0.003-0.003
		C62.44,43.07,62.456,43.065,62.476,43.047z M62.088,40.708C62.09,40.713,62.177,40.583,62.088,40.708
		C62.089,40.71,62.088,40.708,62.088,40.708z M62.895,41.695c0.011,0.018,0.026,0.031,0.044,0.034
		C62.913,41.674,62.903,41.678,62.895,41.695z M62.841,43.38C62.886,43.45,62.805,43.162,62.841,43.38
		C62.858,43.406,62.838,43.359,62.841,43.38z M54.806,44.103C54.807,44.106,54.943,44.078,54.806,44.103
		C54.807,44.106,54.806,44.103,54.806,44.103z M55.728,45.861C55.722,45.865,55.657,45.924,55.728,45.861
		C55.715,45.869,55.728,45.861,55.728,45.861z M57.635,50.315C57.549,50.334,57.625,50.325,57.635,50.315
		C57.635,50.315,57.631,50.32,57.635,50.315z M56.243,47.076c0.064-0.014,0.047-0.063-0.051-0.147
		C56.091,46.989,56.197,47.002,56.243,47.076z M57.635,50.315c-0.451-0.445-0.223-1.305-0.475-1.803
		c-0.023,0.03-0.038,0.063-0.045,0.099c-0.114-0.06-0.141-0.36-0.167-0.474c-0.55,0.419-0.133-0.863-0.581-0.129
		c-0.001-0.017-0.28-0.952-0.104-0.662c-0.031-0.252-0.482-0.583-0.374-0.841c0.088,0.152,0.242,0.26,0.335,0.407
		c-0.007-0.011-0.326-0.403-0.064-0.336c-0.341-0.161-1.337-2.279-1.146-2.284c-0.21,0.013-0.253-0.041-0.13-0.164
		c-0.127-0.222-1.498,0.642-1.62,0.712c0.605,0.855,1.103,1.778,1.628,2.682c0.123,0.211,0.876,1.814,0.952,1.326
		c0.326,0.398,0.911,0.997,0.863,1.558c0.011-0.24,0.563,0.667,0.85,0.7C57.545,50.948,57.497,50.436,57.635,50.315
		C57.515,50.196,57.576,50.367,57.635,50.315z M56.868,50.45l-0.003-0.004C56.83,50.469,56.847,50.466,56.868,50.45z M56.52,47.745
		C56.523,47.752,56.617,47.624,56.52,47.745C56.521,47.748,56.52,47.745,56.52,47.745z M57.348,49.021
		c0.012,0.023,0.026,0.041,0.046,0.047C57.367,49.001,57.357,49.003,57.348,49.021z M57.246,50.9
		C57.284,50.973,57.216,50.663,57.246,50.9C57.263,50.933,57.243,50.876,57.246,50.9z M46.577,49.644
		C46.578,49.648,46.718,49.651,46.577,49.644C46.578,49.647,46.577,49.644,46.577,49.644z M47.225,51.738
		C47.219,51.741,47.144,51.789,47.225,51.738C47.211,51.744,47.225,51.738,47.225,51.738z M48.437,56.943
		C48.346,56.942,48.424,56.952,48.437,56.943C48.437,56.943,48.431,56.947,48.437,56.943z M47.55,53.157
		c0.071-0.001,0.062-0.057-0.028-0.169C47.413,53.034,47.517,53.069,47.55,53.157z M48.437,56.943
		c-0.376-0.433-0.044-1.532-0.193-2.035c-0.029,0.027-0.049,0.059-0.061,0.095c-0.119-0.104-0.073-0.404-0.093-0.545
		c-0.627,0.315,0.011-0.962-0.562-0.278c-0.002,0.014-0.143-1.113,0-0.731c0.009-0.287-0.394-0.712-0.243-0.986
		c0.063,0.18,0.178,0.384,0.275,0.544c-0.033-0.053-0.233-0.52-0.015-0.403c-0.306-0.272-0.932-2.74-0.79-2.71
		c-0.369-0.018,0.033-0.334-0.459-0.184c-0.202-0.158-0.254-0.637-0.308-0.864c-0.215-0.903-0.909-0.23-1.595-0.005
		c0.487,1.21,0.886,2.455,1.391,3.658c0.221,0.526,0.379,1.029,0.528,1.578c0.047,0.174,0.402,1.379,0.558,0.869
		c0.271,0.515,0.763,1.255,0.62,1.868c0.046-0.235,0.453,0.844,0.742,0.951C48.247,57.601,48.272,57.045,48.437,56.943
		C48.307,56.794,48.363,56.989,48.437,56.943z M47.647,56.902l-0.002-0.005C47.605,56.913,47.623,56.914,47.647,56.902z
		 M47.723,53.937C47.725,53.945,47.839,53.832,47.723,53.937C47.723,53.94,47.723,53.937,47.723,53.937z M48.352,55.496
		c0.008,0.027,0.02,0.049,0.039,0.061C48.374,55.479,48.364,55.479,48.352,55.496z M47.955,57.472
		C47.978,57.55,47.962,57.221,47.955,57.472C47.967,57.512,47.955,57.446,47.955,57.472z M34.131,53.224
		C34.13,53.228,34.259,53.286,34.131,53.224C34.13,53.227,34.131,53.224,34.131,53.224z M33.974,55.593
		C33.967,55.593,33.88,55.612,33.974,55.593C33.959,55.594,33.974,55.593,33.974,55.593z M33.214,61.325
		C33.129,61.288,33.2,61.329,33.214,61.325C33.214,61.325,33.208,61.327,33.214,61.325z M33.762,57.154
		c0.071,0.028,0.082-0.032,0.035-0.182C33.679,56.98,33.763,57.053,33.762,57.154z M34.207,53.547
		c-0.137-0.069-0.427-0.54-0.42-0.812c0.007-0.253,0.244-1.246,0.111-1.213c0.119-0.089-0.001-0.239,0.225-0.17
		c-0.006-0.006-0.182-0.609-0.036-0.358c-0.186-0.435-1.089-0.433-1.478-0.285c-0.627,0.239-0.237,2.27-0.191,2.723
		c0.111,1.081,0.107,2.248-0.019,3.327c-0.037,0.312-0.223,2.352,0.081,1.934c0.066,0.637,0.267,1.55-0.1,2.13
		c0.129-0.221,0.112,1.027,0.347,1.252c0.166-0.346,0.402-0.485,0.508-0.754c-0.056-0.003,0.518-1.863,0.539-2.127
		c-0.038,0.016-0.068,0.04-0.091,0.072c-0.076-0.158,0.075-0.431,0.111-0.587c-0.71,0.07,0.369-0.972-0.423-0.502
		c-0.012,0.024,0.271-1.193,0.265-0.738c0.119-0.303-0.119-0.853,0.132-1.091c-0.006,0.186-0.005,0.511,0.061,0.683
		c-0.03-0.079-0.018-0.627,0.131-0.438C33.797,56.244,34.117,53.484,34.207,53.547C34.094,53.461,34.094,53.461,34.207,53.547
		C34.132,53.51,34.104,53.475,34.207,53.547z M32.493,60.972l0-0.005C32.451,60.967,32.466,60.975,32.493,60.972z M33.64,58.009
		C33.639,58.018,33.787,57.949,33.64,58.009C33.639,58.012,33.64,58.009,33.64,58.009z M33.661,59.83
		c-0.003,0.031,0.001,0.058,0.014,0.077C33.688,59.822,33.677,59.818,33.661,59.83z M32.573,61.669
		C32.567,61.749,32.668,61.424,32.573,61.669C32.57,61.714,32.583,61.644,32.573,61.669z M3.249,42.748
		C3.201,42.678,3.236,42.741,3.249,42.748C3.249,42.748,3.243,42.745,3.249,42.748z M5.491,40.798
		C5.503,40.811,5.671,40.58,5.491,40.798C5.494,40.802,5.491,40.798,5.491,40.798z M6.23,40.091
		c-0.365-0.286-1.037-1.14-1.389-0.766c-0.315,0.334-0.661,0.643-0.933,1.016c-0.282,0.388-0.195,1.463-1.096,1.615
		c0.17-0.036-0.371,0.593-0.272,0.902c0.238-0.079,0.498-0.005,0.725-0.099c-0.092-0.08,1.227-0.713,1.346-0.833
		c-0.033-0.013-0.068-0.019-0.103-0.017c0.007-0.103,0.266-0.201,0.342-0.253c-0.372-0.421,0.555-0.349-0.113-0.538
		c0.263-0.079,0.492-0.257,0.764-0.303c-0.172-0.143,0.214-0.467,0.341-0.454c-0.097,0.112-0.131,0.27-0.22,0.385
		c0.148-0.188,0.843-0.499,0.427-0.791C6.058,39.958,6.228,40.095,6.23,40.091C5.823,39.772,6.223,40.107,6.23,40.091z
		 M2.837,42.107l0.002-0.003C2.806,42.078,2.815,42.092,2.837,42.107z M5.023,41.192C5.02,41.195,5.166,41.25,5.023,41.192
		C5.022,41.193,5.023,41.192,5.023,41.192z M4.249,42.204c-0.015,0.015-0.025,0.032-0.023,0.051
		C4.273,42.216,4.267,42.208,4.249,42.204z M2.597,42.539C2.539,42.598,2.801,42.454,2.597,42.539
		C2.575,42.561,2.616,42.531,2.597,42.539z M13.185,45.042C13.183,45.044,13.266,45.155,13.185,45.042
		C13.183,45.044,13.185,45.042,13.185,45.042z M11.998,46.632C11.992,46.628,11.91,46.595,11.998,46.632
		C11.985,46.624,11.998,46.632,11.998,46.632z M8.804,50.276C8.75,50.207,8.79,50.271,8.804,50.276
		C8.804,50.276,8.798,50.274,8.804,50.276z M11.124,47.621c0.04,0.051,0.077,0.015,0.111-0.11
		C11.137,47.447,11.171,47.548,11.124,47.621z M13.003,44.852c-0.175-0.411-0.817-0.633-1.167-0.849
		c-0.336,0.602-0.721,1.175-1.112,1.743c-0.331,0.481-0.657,0.953-1.031,1.401c-0.109,0.13-0.825,1.026-0.339,0.88
		c-0.218,0.466-0.505,1.252-1.033,1.451c0.222-0.093-0.358,0.796-0.264,1.069c0.244-0.141,0.533-0.114,0.765-0.262
		c-0.092-0.065,1.295-1.075,1.402-1.216c-0.037-0.008-0.074-0.007-0.109,0.002c0.005-0.129,0.264-0.282,0.356-0.355
		c-0.616-0.315,0.721-0.493-0.134-0.58c0.335-0.174,0.835-1.064,1.15-1.08c-0.099,0.145-0.13,0.331-0.223,0.478
		c0.007-0.012,0.223-0.468,0.276-0.203c-0.002-0.377,1.478-2.19,1.565-2.02c-0.103-0.183-0.072-0.246,0.092-0.188
		C13.226,45.082,12.974,44.942,13.003,44.852C12.876,44.553,12.965,44.972,13.003,44.852z M8.351,49.643l0.002-0.004
		C8.317,49.617,8.327,49.631,8.351,49.643z M10.64,48.16C10.636,48.166,10.791,48.196,10.64,48.16
		C10.638,48.162,10.64,48.16,10.64,48.16z M9.847,49.458c-0.016,0.02-0.025,0.041-0.023,0.062
		C9.873,49.467,9.867,49.458,9.847,49.458z M8.108,50.178C8.059,50.243,8.309,50.048,8.108,50.178
		C8.085,50.208,8.128,50.165,8.108,50.178z M21.564,50.283C21.562,50.286,21.663,50.383,21.564,50.283
		C21.563,50.285,21.564,50.283,21.564,50.283z M20.624,52.264C20.618,52.261,20.53,52.246,20.624,52.264
		C20.61,52.258,20.624,52.264,20.624,52.264z M17.996,56.917C17.93,56.855,17.982,56.915,17.996,56.917
		C17.996,56.917,17.99,56.916,17.996,56.917z M19.904,53.529c0.053,0.047,0.084,0,0.094-0.144
		C19.887,53.345,19.939,53.441,19.904,53.529z M20.478,48.273c-0.449,1.206-0.994,2.374-1.43,3.584
		c-0.193,0.534-0.416,1.01-0.677,1.513c-0.083,0.16-0.636,1.288-0.177,1.018c-0.149,0.562-0.286,1.44-0.807,1.795
		c0.2-0.147-0.237,0.928-0.096,1.202c0.219-0.205,0.521-0.255,0.726-0.464c-0.111-0.05,1.132-1.467,1.214-1.634
		c-0.04,0-0.076,0.01-0.109,0.029c-0.017-0.157,0.219-0.347,0.3-0.464c-0.675-0.192,0.659-0.701-0.226-0.585
		c-0.011,0.009,0.648-0.916,0.494-0.538c0.206-0.211,0.189-0.79,0.488-0.89c-0.076,0.176-0.129,0.403-0.165,0.587
		c0.012-0.061,0.18-0.541,0.262-0.307c-0.041-0.407,1.167-2.649,1.251-2.53c-0.184-0.186-0.204-1.584,0.395-1.805
		C21.437,48.623,20.956,48.452,20.478,48.273c-0.072,0.146-0.103,0.298-0.094,0.457C20.41,48.813,20.869,48.419,20.478,48.273
		C19.976,49.622,20.954,48.451,20.478,48.273z M17.443,56.352l0.001-0.005C17.405,56.332,17.417,56.345,17.443,56.352z
		 M19.504,54.22C19.5,54.227,19.661,54.221,19.504,54.22C19.502,54.222,19.504,54.22,19.504,54.22z M18.913,55.793
		c-0.013,0.026-0.019,0.05-0.013,0.071C18.941,55.796,18.933,55.789,18.913,55.793z M17.284,56.98
		C17.248,57.053,17.459,56.8,17.284,56.98C17.266,57.018,17.302,56.962,17.284,56.98z M14.63,19.309
		C14.554,19.45,14.535,19.488,14.63,19.309C14.63,19.309,14.615,19.336,14.63,19.309z M21.866,16.365
		c0.019-0.003,0.031-0.005,0.049-0.008C21.905,16.341,21.908,16.32,21.866,16.365z M0.17,31.777C0.11,31.72,0.058,31.67,0,31.614
		C0.076,31.699,0.127,31.745,0.17,31.777z M41.34,47.299C41.249,47.251,41.484,47.375,41.34,47.299L41.34,47.299z M41.198,47.389
		c-0.171,0.022,0.086-0.07,0.109-0.078c-0.197,0.011-0.387,0.051-0.571,0.121C40.753,47.498,41.134,47.381,41.198,47.389
		C41.064,47.394,41.064,47.394,41.198,47.389C41,47.414,41.105,47.377,41.198,47.389z M29.035,14.669
		C29.037,14.678,29.195,14.804,29.035,14.669C29.041,14.691,29.035,14.669,29.035,14.669z M61.823,28.19
		C61.552,28.1,61.824,28.208,61.823,28.19C61.823,28.19,61.824,28.204,61.823,28.19z M39.089,15.251
		c-0.242,0.165-1.015-0.467-1.196-0.153C38.291,15.148,38.69,15.2,39.089,15.251C39.085,15.253,38.69,15.2,39.089,15.251z
		 M65.335,31.513c-0.368,0.65-0.727,1.307-1.125,1.94c-0.511,0.812-1.348,1.304-2.074,1.921c-1.165,0.99-2.304,2.011-3.515,2.944
		c-0.862,0.664-1.71,1.59-2.656,2.119c-0.978,0.548-1.786,1.298-2.761,1.859c-1.331,0.766-1.823,1.082-3.215,1.785
		c-1.337,0.676-2.696,1.312-4.095,1.85c-0.619,0.238-1.247,0.457-1.882,0.65c-0.316,0.096-0.634,0.186-0.954,0.268
		c-0.132,0.034-1.116,0.481-0.831,0.133c-0.153,0.099-0.314,0.183-0.482,0.253c0.351-0.42-0.615,0.09-0.759,0.137
		c-0.552,0.181-1.077,0.478-1.661,0.54c-0.296,0.031-1.269-0.002-1.376,0.063c-1.757,0.431-3.573,0.42-5.369,0.381
		c-0.902-0.019-1.805-0.044-2.707-0.019c-0.231,0.006-0.991-0.403-0.456,0.053c-0.165-0.075-1.647-0.437-1.711-0.333
		c0.2,0.003-0.85-0.263-1.055-0.323c0.586,0.324-0.551,0.019-0.478,0.037c-0.568-0.145-1.121-0.343-1.691-0.485
		c-1.203-0.299-2.367-0.704-3.533-1.121c-2.647-0.947-5.149-2.13-7.598-3.508c-4.367-2.457-8.309-5.727-11.775-9.337
		c0.405,0.28-0.274-0.334-0.332-0.386c-0.283-0.253-0.567-0.518-0.873-0.745c0.806,0.297-0.033-0.265-0.2-0.414
		c0.175,0.101,0.205,0.083,0.088-0.056c-0.443-0.484-0.109-0.419,0.239-0.891C0.739,30.503,1,29.87,1.41,29.706
		c-0.956,0.533,1.292-1.414,0.648-0.526c0.232-0.28,1.283-0.772,0.96-1.259C2.871,28.1,2.726,28.28,2.58,28.459
		c0.499-0.703,1.857-1.335,2.124-2.102c-0.105,0.476,1.47-0.415,0.804-0.458c0.303-0.177,0.632-0.319,0.917-0.525
		c0.197-0.142,0.415-0.458,0.637-0.57c-0.194,0.343-0.091,0.304,0.309-0.118c0.394-0.311,0.798-0.609,1.206-0.9
		c0.664-0.473,1.341-0.926,2.01-1.392c1.079-0.751,2.604-1.414,3.926-2.434c-0.442,0.15-0.007-0.214,0.098-0.428
		c0.155-0.317,0.549-0.529,0.862-0.648c-0.11,0.056-0.134,0.104-0.072,0.143c0.318-0.091,0.702-0.419,0.941-0.643
		c-0.074,0.041-0.096,0.093-0.066,0.155c0.343,0.19,1.421-0.436,1.738-0.587c1.18-0.563,2.381-0.855,3.558-1.443
		c1.357-0.678,2.85-0.907,4.297-1.296c0.793-0.213,1.602-0.281,2.414-0.388c0.325-0.044,0.651-0.085,0.977-0.125
		c0.035-0.004,1.49,0.005,0.748-0.148c0.936,0.01,1.872-0.022,2.808-0.036c0.899-0.013,1.838,0.248,2.721-0.019
		c-0.386,0.048,0.197,0.207,0.269,0.225c0.679,0.169,1.465,0.123,2.164,0.239c-1.345,0.106-2.697-0.16-4.034-0.264
		c-0.003,0.151,3.83,0.49,4.355,0.541c0.941,0.091,1.647,0.253,2.549,0.582c-0.262-0.068-0.525-0.137-0.787-0.205
		c0.82,0.375,1.759,0.439,2.603,0.772c0.871,0.344,1.704,0.774,2.547,1.182c-0.273-0.237-0.547-0.475-0.82-0.712
		c0.741,0.286,1.461,0.625,2.207,0.9c0.447,0.165,0.929,0.61,1.477,0.544c0.686-0.083,1.192,0.283,1.772,0.668
		c0.359,0.238,0.711,0.487,1.081,0.708c0.108,0.065,0.951,0.73,0.584,0.219c0.554,0.232-0.054-0.108-0.174-0.183
		c0.734,0.4,1.391,0.917,2.131,1.311c0.295,0.157,0.588,0.321,0.861,0.514c0.23,0.162,0.678,0.908,0.21,0.398
		c0.119,0.103,0.828,0.508,0.805,0.662c-0.043-0.073-0.092-0.143-0.145-0.209c0.025,0.345,1.384,1.199,1.61,1.362
		c1.005,0.724,1.888,1.485,2.745,2.379c0.61,0.636,1.291,1.166,1.955,1.74c0.482,0.417,0.666,1.06,1.283,1.463
		c-0.135-0.119-0.264-0.245-0.387-0.377C63.115,29.996,63.912,31.65,65.335,31.513C65.08,31.963,64.359,31.607,65.335,31.513z
		 M40.014,17.678c0.277,0.177,0.548,0.376,0.786,0.603c-0.027-0.192-0.12-0.338-0.281-0.438c-0.079-0.045-0.836-0.213-0.346-0.076
		C40.138,17.714,40.085,17.685,40.014,17.678C40.291,17.855,40.182,17.724,40.014,17.678z M24.153,44.801
		c-4.07-2.615-6.924-7.411-6.925-12.292c0.094,0.283-0.01-0.514-0.119-0.675c0.482,0.264,0.102-1.549,0.028-1.209
		c0.026-0.122,0.034-1.341,0.187-0.66c0.003-0.208,0.037-0.41,0.102-0.607c0.061-0.314-0.451-0.91-0.191,0.003
		c-0.08-0.701,0.293-1.329,0.244-2.02c0.222,0.338,0.812-0.727,0.318-0.555c0.156-0.298,0.374-0.949,0.539-1.172
		c0.092,0.299,0.466-0.89,0.601-1.147c0.346-0.661,0.764-1.282,1.112-1.943c-0.201,0.192,0.101-0.151,0.113-0.165
		c0.205-0.249,0.413-0.496,0.62-0.742c0.134-0.16,0.956-1.047,0.683-0.885c0.291-0.373-0.067-0.772,0.417-1.081
		c-0.087,0.091-0.074,0.152,0.038,0.184c0.176-0.206,0.321-0.433,0.434-0.68c-0.18,0.441,0.826-0.274,0.91-0.337
		c0.454-0.344,1.307-0.542,1.626-0.945c-4.493,1.162-8.661,3.331-12.493,5.916c-2.034,1.372-3.989,2.862-5.863,4.444
		c-0.47,0.397-3.858,2.669-3.574,3.335c0.46,1.076,2.043,1.856,2.92,2.586c1.883,1.567,3.762,3.145,5.768,4.555
		C15.455,41.385,19.677,43.505,24.153,44.801C23.985,44.724,23.985,44.724,24.153,44.801C19.941,42.096,23.981,44.752,24.153,44.801
		z M64.229,31.599c-0.556-0.495-1.198-0.938-1.601-1.579c-0.028-0.091-0.605-0.455-0.47-0.185c-1.085-1.233-2.699-2.379-4.068-3.274
		c0.182,0.19,0.365,0.38,0.547,0.571c-0.751-0.802-1.591-1.52-2.458-2.191c-0.333-0.258-0.655-0.477-1.032-0.665
		c-0.12-0.06-1.227-0.676-0.825-0.536c-2.191-1.286-4.351-2.641-6.666-3.7c0.29,0.188,0.569,0.39,0.839,0.606
		c-2.436-1.119-4.965-2.041-7.559-2.717c0.556,0.368,1.017,0.83,1.61,1.047c0.413,0.151,0.547,0.034,0.946,0.461
		c0.387,0.414,0.712,0.885,1.129,1.272c-0.036-0.053-0.157-0.39,0.041-0.01c-0.241-0.821,0.213,0.195,0.348,0.373
		c0.159,0.211,0.337,0.36,0.481,0.577c0.097,0.146,0.609,1.08,0.458,0.89c0.074,0.203,0.157,0.402,0.247,0.597
		c0.049,0.075,0.059-0.144,0.045-0.154c0.196,0.145,0.261,0.844,0.376,1.064c0.328,0.631,0.652,1.215,0.773,1.926
		c0.052,0.305,0.23,2.525,0.532,2.446c0.003,0.324-0.021,0.647-0.071,0.967c-0.016-0.108-0.033-0.215-0.049-0.323
		c-0.069,0.312-0.122,0.626-0.16,0.943c-0.06,0.477-0.102,0.957-0.177,1.433c-0.121-0.25-0.44-1.957-0.424-1.996
		c0.012-0.554-0.261-1.12-0.409-1.644c-0.075-0.265-0.73-2.082-0.469-0.884c-0.093-0.929-0.754-2.67-1.272-3.046
		c-0.979-1.184-1.902-2.444-3.159-3.356c0.043,0.051,0.403,0.491,0.366,0.525c-5.459-3.892-12.851-4.663-18.084,0.152
		c-4.646,4.275-5.796,11.384-2.839,16.931c2.973,5.576,9.927,8.397,15.942,6.446c3.189-1.034,5.644-3.019,7.648-5.682
		c0.882-1.172,1.313-2.348,1.65-3.764c0.329-1.379,0.715-2.83,1.949-3.682c0.507,1.675,0.618,2.585,0.094,4.242
		c-0.266,0.841-0.648,1.654-0.978,2.472c-1.151,2.851-2.943,4.949-5.423,6.619c4.588-1.23,8.723-3.685,12.756-6.12
		c1.897-1.145,3.703-2.539,5.315-4.059c0.724-0.683,1.413-1.378,2.22-1.966c0.365-0.266,0.738-0.525,1.134-0.743
		c0.291-0.16,0.898-0.166,0.563-0.445C64.071,31.46,64.182,31.602,64.229,31.599C63.687,31.117,64.211,31.601,64.229,31.599z
		 M29.873,48.338c-0.042,0.001-0.081,0.001-0.124,0.002C29.749,48.341,29.814,48.34,29.873,48.338z M59.451,27.579l-0.027-0.021
		C59.386,27.607,59.44,27.622,59.451,27.579z M44.328,16.839c0.101,0.128-0.103-0.119-0.128-0.137
		C44.243,16.748,44.285,16.794,44.328,16.839z M54.716,21.939c0.162,0.111,0.308,0.201,0.422,0.252
		C54.695,21.877,54.666,21.876,54.716,21.939z M62.747,30.351c0.046,0.133,0.088,0.157,0.126,0.071
		c-0.11-0.176-0.252-0.323-0.423-0.441C62.07,29.508,63.039,30.714,62.747,30.351C62.832,30.483,62.658,30.24,62.747,30.351z
		 M62.505,28.948l0.1,0.021C62.473,28.867,62.465,28.885,62.505,28.948z M26.944,25.467C26.926,25.362,26.926,25.361,26.944,25.467
		L26.944,25.467z M29.315,23.903l0.019,0C29.325,23.887,29.32,23.87,29.315,23.903z M36.021,39.266
		C36.006,39.25,36.072,39.317,36.021,39.266L36.021,39.266z M35.986,39.333c-0.078,0,0.3-0.349-0.173-0.016
		C36.324,39.474,35.842,39.253,35.986,39.333C35.908,39.333,35.946,39.311,35.986,39.333z M31.781,23.117
		C31.784,23.127,31.85,23.251,31.781,23.117C31.786,23.139,31.781,23.117,31.781,23.117z M40.418,29.968
		C40.277,29.921,40.395,29.96,40.418,29.968L40.418,29.968z M35.225,23.551c0.047-0.072-0.333-0.12-0.406-0.058
		C34.821,23.48,35.174,23.542,35.225,23.551z M40.342,31.567c-1.288,0.381-1.047,1.798-1.639,2.755
		c-0.724,1.169-2.003,2.236-3.262,2.776c-2.711,1.162-6.084,0.06-7.515-2.53c-1.415-2.563-0.906-6.109,1.496-7.943
		c1.033-0.788,2.45-1.205,3.743-1.188c0.696,0.01,1.366,0.186,2.006,0.453c0.393,0.164,0.774,0.355,1.154,0.545
		c0.272,0.136,0.985,0.797,0.732,0.097c0.859,0.58,2.119,1.733,1.911,2.901c0.08-0.574,0.281,0.497,0.353,0.687
		c0.102,0.27,0.315,1.108,0.514,1.317c0.148-0.383,0.296-0.765,0.444-1.148c0.003,0.325,0.157-0.253,0.168-0.334
		c0.276-0.041-0.819-2.584-0.607-2.812c-0.091,0.211-0.137,0.134-0.136-0.23c0.009,0.01-0.439-0.946-0.634-1.185
		c0.239,0.492-0.06-0.082,0.007,0.21c-0.37-0.242-0.468-0.744-0.836-0.98c-0.522,0.33-0.933-0.348-1.332-0.579
		c0.03,0.172,0.063,0.343,0.098,0.514c-0.11-0.148-1.455-1.15-1.497-1.077c0.66,0.192-0.138-0.195-0.263-0.291
		c-0.182,0.142-1.771,0.074-1.763-0.223c0.456,0.007,0.928,0.122,1.383,0.05c-0.106-0.017-1.06-0.197-0.82-0.309
		c-0.531,0.347-1.343,0.074-1.923,0.044c0.11,0.063-1.26,0.253-1.511,0.298c-0.546,0.096-1.062,0.367-1.509,0.686
		c-0.153,0.11-1.742,1.265-1.691,0.785c-0.016,0.159-0.07,0.304-0.164,0.434c-0.404-0.126,0.041,0.674-0.454,1.047
		c-0.652,0.491-1.025,1.4-1.283,2.154c-0.088-0.125-0.277,0.33-0.41,0.493c0.395-0.026-0.02,0.465-0.245,0.273
		c0.152,0.413-0.319,0.584-0.062,1.084c-0.146-0.679,0.09,0.202,0.123,0.326c-0.105-0.252,0.066,1.05-0.189,0.979
		c0.214,0.238,0.222,0.741,0.137,1.028c-0.089,0.302,0.159,0.687,0.232,1.076c0.2,1.065,0.782,2.48,1.578,3.232
		c0.871,0.823,1.776,1.522,2.852,2.054c0.662,0.328,1.881,0.377,2.374,0.865c-0.11-0.3-0.009-0.131,0.151-0.059
		c0.361,0.162,1.961,0.005,2.466-0.095c0.477-0.094,1.504-0.254,1.774-0.67c0.163-0.2,0.909-0.266,1.171-0.42
		c0.865-0.511,1.963-1.325,2.381-2.284c0.479-1.101,1.164-2.07,1.475-3.261c0.131-0.503,0.015-0.737-0.258-1.168
		C40.77,31.483,40.53,31.505,40.342,31.567C39.26,31.887,40.538,31.502,40.342,31.567z M39.211,29.612l-0.003-0.009
		C39.149,29.622,39.175,29.628,39.211,29.612z M36.891,24.37C36.89,24.349,36.885,24.194,36.891,24.37L36.891,24.37z M39.817,26.898
		c0.038,0.054,0.074,0.1,0.111,0.125C39.845,26.858,39.819,26.865,39.817,26.898z M39.564,30.742
		C39.584,30.953,39.644,30.293,39.564,30.742C39.571,30.818,39.572,30.697,39.564,30.742z M40.36,30.299l0.055,0.019
		C40.394,30.269,40.376,30.274,40.36,30.299z M21.409,20.227C21.47,20.157,21.436,20.042,21.409,20.227
		C21.418,20.217,21.409,20.227,21.409,20.227z M47.868,28.453C47.924,28.43,47.729,28.233,47.868,28.453
		C47.876,28.449,47.855,28.433,47.868,28.453z M46.507,27.377l-0.006-0.02C46.442,27.377,46.472,27.399,46.507,27.377z
		 M46.091,22.562c0.077,0.104,0.144,0.196,0.2,0.256C46.115,22.504,46.076,22.51,46.091,22.562z M47.147,29.908
		c0.031,0.253,0.045-0.184,0.019-0.291C47.187,29.284,47.129,30.182,47.147,29.908C47.178,30.161,47.152,29.827,47.147,29.908z
		 M47.886,29.094l0.059,0.047C47.916,29.039,47.898,29.046,47.886,29.094z"/>
</g>
<g id="Layer_1">
</g>
</svg>
