<?xml version="1.0" encoding="iso-8859-1"?>
<!-- Generator: Adobe Illustrator 17.1.0, SVG Export Plug-In . SVG Version: 6.00 Build 0)  -->
<!DOCTYPE svg PUBLIC "-//W3C//DTD SVG 1.1//EN" "http://www.w3.org/Graphics/SVG/1.1/DTD/svg11.dtd">
<svg version="1.1" xmlns="http://www.w3.org/2000/svg" xmlns:xlink="http://www.w3.org/1999/xlink" x="0px" y="0px"
	 viewBox="0 0 31.09 31.225" style="enable-background:new 0 0 31.09 31.225;" xml:space="preserve">
<g id="facebook">
	<path style="fill:#A6A6A6;" d="M4.272,4.614C4.244,4.766,4.252,4.713,4.272,4.614C4.268,4.638,4.272,4.614,4.272,4.614z
		 M8.475,1.672c0.013-0.004,0.02-0.006,0.031-0.009C8.498,1.653,8.498,1.64,8.475,1.672z M20.969,30.348
		C20.909,30.323,21.066,30.39,20.969,30.348L20.969,30.348z M20.883,30.416c-0.185,0.042,0.993-0.56-0.297,0.056
		C21.617,30.37,20.574,30.405,20.883,30.416C20.698,30.458,20.822,30.414,20.883,30.416z M13.031,0.162
		C13.033,0.168,13.139,0.251,13.031,0.162C13.035,0.176,13.031,0.162,13.031,0.162z M30.419,12.628
		C30.305,12.482,30.411,12.639,30.419,12.628C30.419,12.628,30.414,12.636,30.419,12.628z M19.527,0.603
		c0.008-0.004-0.689-0.175-0.765-0.158C18.766,0.423,19.455,0.585,19.527,0.603z M30.834,15.634
		c-1.214,1.198-1.118,3.092-1.667,4.603c-0.633,1.741-1.697,3.321-2.881,4.735c-1.267,1.513-2.919,2.708-4.714,3.517
		c-0.884,0.399-1.823,0.862-2.785,1.001c-0.995,0.143-1.591-0.011-1.762,1.03c-0.297-0.893-0.14-0.823-1.245-0.873
		c-0.515-0.024-1.28-0.234-1.776-0.077c-0.34,0.108-0.489,0.573-0.791,0.761c-0.328-1.053-0.976-0.964-1.98-1.279
		c-1.139-0.358-2.227-0.875-3.232-1.519c-1.876-1.201-3.447-2.847-4.54-4.789c-2.26-4.014-2.423-9.026-0.46-13.187
		C6.981,1.12,17.757-0.793,24.895,4.897c0.027-0.027-0.374-0.444-0.418-0.49c1.274,0.954,2.261,2.21,3.23,3.458
		c0.397,0.378,1.212,2.245,1.374,3.102c-0.326-1.214,0.292,0.415,0.368,0.626c0.228,0.639,0.419,1.314,0.446,1.996
		c-0.118,0.534,0.166,1.535,0.34,2.045c0.072-0.794,0.18-1.589,0.153-2.388c0.017,0.108,0.033,0.216,0.05,0.324
		c0.018-0.319,0.018-0.639-0.001-0.958c0.17-0.075-1.316-4.854-1.831-5.34c0.039,0.058,0.035,0.102-0.013,0.132
		c-0.1-0.186-0.193-0.376-0.279-0.569c0.233,0.299-0.286-0.545-0.34-0.63c-0.149-0.232-0.294-0.428-0.472-0.649
		c-0.073-0.091-0.887-1.367-0.5-0.503c-0.223-0.355-0.072-0.051-0.032,0.002c-1.216-1.269-2.581-2.255-4.133-3.074
		c0.161,0.173,0.308,0.357,0.443,0.551c-0.458-0.391-0.991-0.671-1.539-0.913c-0.283-0.125-2.362-1.046-1.108-0.568
		c-1.414-0.709-2.969-0.405-4.429-0.832c0.767-0.386,1.808,0.146,2.613,0.136c-0.442-0.058-0.883-0.116-1.325-0.175
		C17.438,0.161,16.968,0.043,17.247,0c-1.164,0.34-2.399-0.055-3.583,0.081c0.572,0.069-0.79,0.2-0.744,0.192
		c-0.594,0.104-1.192,0.194-1.778,0.338c-0.913,0.225-2.187,0.662-2.924,1.253C7.599,2.359,6.902,2.584,6.291,3.077
		c-0.161,0.13-1.185,0.77-1.105,0.629C5.05,3.926,4.895,4.13,4.72,4.32C4.622,4.295,4.621,4.247,4.717,4.177
		c-0.373,0.265-0.246,0.64-0.506,0.958c0.242-0.175-0.549,0.706-0.68,0.863C3.328,6.24,3.126,6.482,2.928,6.728
		c-0.008,0.01-0.293,0.364-0.11,0.162C1.93,8.45,1.273,9.71,0.671,11.084c0.39-0.23-0.136,0.849-0.259,0.554
		c-0.032,0.665-0.305,1.286-0.284,1.959c0.093-1.526,0.064,1.223,0.013,0.35c-0.014,0.297-0.052,0.591-0.112,0.883
		C0.07,14.704,0.325,16.274,0,16.01c0.042,0.08,0.134,0.781,0.113,0.775c-0.063-0.27,0.018,0.713,0.039,0.849
		c0.081,0.534,0.175,1.066,0.278,1.596c0.466,2.401,1.583,4.754,3.186,6.602c1.592,1.835,3.619,3.245,5.845,4.212
		c0.879,0.381,1.771,0.529,2.56,0.859c0.425,0.178,0.906,0.089,1.33,0.241c-0.482-0.361,0.671-0.104,0.204-0.057
		c1.415-0.08,2.828,0.27,4.241,0.08c1.19-0.16,2.393-0.585,3.524-0.972c-0.299,0.249,0.374-0.241,0.123-0.041
		c3.174-0.994,5.873-3.399,7.409-6.114c0.681-1.204,1.266-2.508,1.765-3.797C31.257,18.592,31.163,17.355,30.834,15.634
		C29.696,16.756,30.959,16.291,30.834,15.634z M29.377,11.464l-0.006-0.02C29.331,11.457,29.354,11.483,29.377,11.464z
		 M22.803,1.963C22.837,2.021,22.672,1.739,22.803,1.963L22.803,1.963z M28.429,6.877c0.066,0.089,0.112,0.149,0.192,0.257
		C28.443,6.828,28.408,6.831,28.429,6.877z M29.991,14.068c0.035,0.261,0.017-0.2-0.003-0.295
		C29.984,13.38,29.994,14.365,29.991,14.068C30.026,14.329,29.99,13.986,29.991,14.068z M30.447,13.282l0.042,0.05
		C30.464,13.229,30.453,13.235,30.447,13.282z M18.59,10.803C18.602,10.822,18.663,10.916,18.59,10.803L18.59,10.803z M10.86,19.057
		C10.832,19.023,10.912,19.119,10.86,19.057L10.86,19.057z M10.843,19.059c-0.128-0.006-0.256-0.011-0.384-0.017
		C10.455,19.053,10.907,19.052,10.843,19.059C10.715,19.054,10.806,19.063,10.843,19.059z M21.232,13.567
		C21.23,13.572,21.304,13.678,21.232,13.567C21.228,13.582,21.232,13.567,21.232,13.567z M17.512,28.166
		C17.41,28.005,17.498,28.176,17.512,28.166C17.512,28.166,17.505,28.171,17.512,28.166z M21.474,18.605
		c-0.007,0.016-0.308,0.283-0.313,0.271c0.298-0.065,0.481-0.36,0.432-0.655C21.533,18.59,21.438,18.672,21.474,18.605
		C21.528,18.483,21.56,18.442,21.474,18.605z M13.726,29.905c0.619-1.927,0.277-3.963,0.392-5.944
		c0.124-2.14,0.079-4.284,0.065-6.426c-0.516,0.004-3.622,0.383-3.705-0.036c-0.074-0.376-0.056-2.451,0.27-2.44
		c0.819,0.027,1.649,0.232,2.466,0.065c1.256-0.257,0.904-1.773,0.885-2.721c-0.051-2.575,0.369-4.863,3.181-5.568
		c0.975-0.244,2.004-0.269,2.999-0.152c0.883,0.045,0.637,0.455,0.621,1.26c-0.02,1.005-0.179,1-1.203,0.926
		c-1.175-0.085-2.423,0.41-2.801,1.608c-0.316,1-0.217,2.303-0.109,3.337c0.112,1.072,0.867,1.276,1.837,1.298
		c0.607,0.013,1.221,0.024,1.826,0.086c0.475,0.049-0.024,1.585-0.111,1.933c-0.171,0.681-1.604,0.333-2.199,0.335
		c-0.342,0.001-0.684,0.003-1.027,0.004c-0.794,0.003-0.513,0.313-0.512,0.991c0,0.33,0.003,0.66,0.01,0.991
		c0.005,0.22-0.05,1.805,0.167,0.466c0.045,1.365,0.091,2.814-0.025,4.164c-0.071,0.827,0.089,1.699-0.075,2.515
		c0.127-1.149,0.125,0.525,0.125,0.636c0.002,0.522,0.12,1.097,0.045,1.616c-0.147,0.31,0.068,1.348,0.176,1.673
		c0.049-0.316,0.099-0.633,0.15-0.949c0.031-0.158,0.061-0.315,0.092-0.473c0.102-0.551,0.142-0.619,0.121-0.205
		c0.389-1.424,0.16-3.857,0.438-4.99c0.035-0.166,0.057-0.333,0.065-0.502c0.01,0.371,0.084-0.3,0.088-0.334
		c0.056-0.524,0.078-1.054,0.092-1.58c-0.094,0.756,0.019-0.178-0.091,0.225c-0.095-0.618,0.22-1.225,0.111-1.84
		c-0.341-0.275-0.38-1.106,0.216-1.063c-0.174-0.095-0.351-0.185-0.531-0.268c0.879,0.146,1.768,0.267,2.661,0.267
		c-1.093-0.036,0.128,0.045,0.34,0.058c0.344,0.02,0.505-0.023,0.688-0.361c0.393-0.729,0.203-1.612,0.367-2.393
		c0.3,0.64-0.145,1.539-0.157,2.205c0.164-0.902,1.221-4.087,0.233-4.575c0.217,0.219-0.211-0.01-0.326-0.036
		c-0.42-0.095-0.85-0.148-1.278-0.192c-0.222-0.023-1.911-0.29-2.017-0.003c-0.393-0.353,0.29-2.098,0.24-2.216
		c-0.225-0.376-0.117-0.965,0.381-1.059c0.495-0.094,1.03,0.036,1.52,0.103c0.468,0.064,1.036,0.162,1.481-0.05
		c0.164-0.078,0.292-0.206,0.368-0.371c0.086-0.187,0.022-0.981,0.159-0.529c-0.091-0.419-0.011-0.803,0.082-1.211
		c-0.31,0.241-0.098-0.644,0.112-0.444c-0.17-0.634,0.129-1.262-0.165-1.888c-0.086,0.094,0.259,0.423,0.13,0.542
		c-0.12-0.059-0.814-1.186-0.344-0.836c-0.248-0.224-0.611-0.329-0.934-0.371c0.47,0.02-1.342,0.302-1.061-0.078
		c-0.653,0.214-1.479-0.003-2.168-0.02c-1.144-0.029-2.747,0.649-3.699,1.234c-2.093,1.286-2.062,5.191-1.803,7.242
		c-0.876-0.002-1.689,0.102-2.601-0.072c0.783,0.324-0.777,0.133-0.248,0.068c-0.207,0.015-0.607-0.099-0.644,0.205
		c-0.076,0.628,0.015,1.312-0.001,1.946c-0.03,1.167-0.034,2.314-0.084,3.475c0.522,0.024,1.828-0.043,2.064-0.103
		c0.337-0.085,0.607-0.046,0.962-0.019c0.197,0.016,0.394,0.028,0.591,0.035c0.008,0.476,0.016,0.952,0.016,1.428
		c-0.001,1.032,0.223,2.079,0.166,3.105c-0.124,2.237-0.271,4.543,0.404,6.706C13.395,30.202,13.566,30.06,13.726,29.905
		C14.351,27.96,13.586,30.066,13.726,29.905z M16.791,27.06l0-0.017C16.748,27.044,16.764,27.07,16.791,27.06z M18.325,18.81
		C18.291,18.772,18.487,18.989,18.325,18.81L18.325,18.81z M17.958,23.478c-0.002,0.097,0.001,0.181,0.014,0.242
		C17.985,23.453,17.975,23.44,17.958,23.478z M16.871,29.245c-0.005,0.212,0.048-0.156,0.042-0.239
		C17.021,28.397,16.834,29.453,16.871,29.245C16.866,29.457,16.882,29.181,16.871,29.245z M17.44,28.672l0.034,0.044
		C17.466,28.633,17.454,28.636,17.44,28.672z"/>
</g>
<g id="Layer_1">
</g>
</svg>
