<?xml version="1.0" encoding="utf-8"?>
<!-- Generator: Adobe Illustrator 17.1.0, SVG Export Plug-In . SVG Version: 6.00 Build 0)  -->
<!DOCTYPE svg PUBLIC "-//W3C//DTD SVG 1.1//EN" "http://www.w3.org/Graphics/SVG/1.1/DTD/svg11.dtd">
<svg version="1.1" id="Layer_1" xmlns="http://www.w3.org/2000/svg" xmlns:xlink="http://www.w3.org/1999/xlink" x="0px" y="0px"
	 viewBox="0 0 31.6 31.5" enable-background="new 0 0 31.6 31.5" xml:space="preserve">
<path id="_x2E_svg_4_" fill="#A6A6A6" d="M29.9,18.6c0.1-3.2,0-6.4,0.1-9.6c0.1-2.3,0.9-6.4-2.2-7.1c-1.2-0.3-2.6-0.1-3.8-0.1
	c-1.6,0-3.2,0-4.8,0c-2.7-0.1-5.4,0-8,0c-1.4,0-2.7,0-4.1-0.1C6,1.6,4.9,1.5,3.9,1.8C1,2.6,1.6,5.8,1.6,8.1c0.1,5.9-0.1,11.7,0,17.6
	c0,1.2,0.2,2.4,0.9,3.3c0.8,1,2,1.1,3.2,1.1c1.5,0,2.9-0.1,4.4-0.1c1.4,0,2.9-0.1,4,0.9c-0.7,0.1-1.4,0.2-2.1,0.4
	c-0.5,0.1-1.1,0-1.6,0c-0.9,0-1.8,0-2.7,0c-1.3,0.1-2.8,0.3-4.1,0c-0.5-0.1-1.1-0.3-1.6-0.6c-0.2-0.2-0.5-0.3-0.7-0.5
	c-0.1-0.1-0.6-0.9-0.6-0.6c-0.6-1.1-0.8-2.3-0.8-3.5c0-0.8,0-1.6,0-2.4c0-0.4,0-0.8,0-1.2c0-0.1-0.1-1,0.1-0.7
	c0-0.1-0.1-0.3-0.1-0.4c0.2,0.3,0.1-0.3,0.1-0.5c0-0.4-0.1-0.8-0.1-1.3c0-0.2,0.1-1,0.1-1.1c-0.2-2,0.1-3.9-0.1-5.9
	C0.1,13.3,0.3,12,0,12.6c0-0.1,0.1-1.2,0-1.2c0,0.1,0.1-0.6,0.1-0.8C0,10.6,0.1,9,0.1,8.8c0-1.1,0-2.2,0-3.3C0,3.6,0.4,2,2,1
	C3.6-0.2,5.4,0,7.4,0c2.2,0,4.5,0.1,6.7,0.1c-0.3,0,0.6,0,0.7-0.1c-0.2,0.3,0.7,0.1,0.8,0.1c0.1,0,0.9-0.1,0.5-0.1
	c0.2,0,1.4,0,0.7,0.1c0.3,0,0.9,0.2,1.1-0.2c-0.2,0-0.3,0-0.5,0.1C18.1,0,19.1,0.3,19.7,0c-0.1,0-0.1,0.1-0.1,0.1
	c0.1,0.1,1.1,0.2,0.8,0c0.2,0,0.5,0,0.7,0c0.1,0,1-0.1,0.5,0.1c2.4,0,4.5-0.3,6.8,0.3c-0.4-0.2,0.2-0.1,0.4-0.1
	c0.3,0,0.6,0.1,0.8,0.3c-0.1,0-0.1,0-0.1,0c0.1,0.2,0.7,0.4,0.9,0.5c-0.1-0.1-0.1-0.1-0.2,0c0.1,0.7,1,1.3,1.2,2
	c0.2,0.4,0.1,0.7,0.1,1.1c0,0.6,0.2,1.1,0.1,1.7c0,1.1,0,2.1,0,3.2c0,0.5,0,1-0.1,1.5c0,0.2,0,0.5,0,0.7c0,0-0.1,1.1,0.1,0.6
	c-0.1,1.3-0.4,2.7,0,4c0-0.3-0.1,0.2-0.1,0.2c-0.1,0.5,0,1.1,0,1.6c-0.2-0.9-0.1-2-0.1-2.9c-0.3,0-0.2,2.6-0.1,2.9
	c0.1,0.8,0.1,1.4,0,2.2c0-0.2,0-0.4,0-0.6c-0.2,1.3-0.1,2.7-0.3,4c0.1-0.2,0.2-0.5,0.3-0.7c0,0.9-0.3,2,0,2.8
	c0.1,0.4,0.3,0.7,0.2,1.2c-0.1,0.7-0.3,1.3-0.4,1.9c0-0.1,0.2-0.4,0,0c0.1,0,0.2-0.3,0.2-0.4c-0.2,0.6-0.5,1.3-1,1.8
	c-0.2,0.2-0.4,0.5-0.7,0.6c-0.2,0.1-0.8,0.1-0.3,0c-0.1,0.1-0.6,0.4-0.8,0.3c0.1,0,0.1,0,0.2,0c-0.4-0.2-1,0.1-1.4,0.2
	c-0.8,0.1-1.6,0-2.3,0c-0.8-0.1-1.6-0.1-2.4-0.1c-0.5,0-1-0.2-1.6-0.2c0.1,0,0.3,0,0.4,0c-0.9-0.2-1.9-0.3-2.8-0.4
	c0.2-0.1,2.4,0.1,2.5-0.2c0-0.1,1.4-0.1,1.6-0.1c0.8,0,1.5,0,2.3-0.1c-0.2,0-0.4,0-0.6-0.1c0.7,0.1,1.4,0.2,2.1,0.2
	c0.3,0,0.6,0,0.9-0.1c0.2,0,0.9-0.3,0.8-0.2c1.6-0.9,1.8-2.5,1.8-4.2c0,0.3-0.1,0.5-0.1,0.8c-0.1-1.9-0.1-3.8-0.1-5.7
	c0-0.9,0.1-1.7,0.1-2.5c0-0.2,0.1-0.9,0-1C30,17.3,29.9,18.6,29.9,18.6C30,15.6,29.8,19.2,29.9,18.6z M16.6,20.7
	c0-0.2,0.1-0.4,0.1-0.6c0,1.3-0.1,2.7,0,4c0.2,0.5,0,2-0.1,2.8c0-0.1,0-0.3,0.1-0.4c0.1,0.8,0.2,1.9,0.1,2.7
	c-0.1,0.1,0.1,1.4,0.2,1.7c0.1-0.6,0.2-1.3,0.4-1.9c-0.1,0.7,0.1-0.3,0.1-0.5c-0.2,0,0.1-1.8,0.1-2c0.1-0.5,0-1,0.1-1.4
	c0-0.2,0.1-0.4,0.1-0.6c0,0,0-0.6-0.1-0.2c0.1-0.1,0-0.4,0.1-0.5c0,0.3,0.1-0.4,0.1-0.5c0-0.1,0-0.3,0-0.4c0-0.2,0-0.5,0-0.7
	c0-0.4,0-0.5,0-0.1c0.1-0.3,0-0.1,0,0c-0.1-0.4,0-0.8,0.1-1.2c0.1-0.4-0.2-0.6-0.1-0.9c0-0.3,0.6-0.2,0.9-0.2
	c-0.2-0.1-0.3-0.2-0.5-0.3c1,0.2,2,0.3,2.9,0.2c-0.2,0.1-0.3,0.1-0.5,0.1c1.6,0.2,0.7-3.4,1.3-3.3c-0.1,0.6-0.3,1.3-0.2,2
	c0-0.4,0.1-0.7,0.2-1.1c0.1-0.3,0-0.7,0-1c0.1-0.9,0.4-1.9-0.8-2c0.5,0.2-0.5,0-0.5,0c-0.5,0-0.9,0-1.4-0.1c-0.2,0-1.2,0.1-1.2-0.2
	c0-0.7,0-1.2,0-1.9c0-0.1,0.2-0.8,0.3-0.5c-0.2-0.3,0.3-0.4,0-0.6c0.6-0.5,2-0.1,2.8-0.1c1,0,1.2-0.6,1.2-1.5
	c0.2,0.4,0.1-0.7,0.1-0.9c-0.3,0.2-0.1-0.7,0.1-0.4c0-0.1-0.1-2-0.2-2c0,0.1,0.3,0.4,0.2,0.5c-0.2,0-0.3-0.3-0.4-0.5
	c-0.1-0.2-0.6-0.5-0.1-0.3c-0.3-0.1-0.7-0.2-1-0.3c0.5,0-0.1,0.1-0.2,0.1c-0.2,0-1,0.1-0.8-0.1c-0.1,0.1-0.7,0.1-0.5,0
	c-2.3,0-4.8,0.1-6.3,2.2c-0.9,1.2-1.1,2.9-1.1,4.4c0,0.7,0.1,1.5,0,2.2c-0.1,0.7,0.2,0.3,0.6,0.6c-0.1,0-0.1-0.4-0.1-0.2
	c-0.1-0.4,0.1-0.4-0.4-0.4c-0.4,0-0.7,0.1-1.1,0.1c-0.4,0-0.9-0.1-1.2-0.1c0.1,0,0.1,0.1,0.2,0.1c0,0-1.1,0-0.5,0
	c-0.3,0-1.2-0.1-1.2,0.3c0,0.6,0,1.3,0,1.9c0,1.1-0.2,2.4,0,3.5c0.3,0,1.6,0,1.7-0.1c0,0,0.2-0.1,0.3-0.1c0.2,0.1,1.4-0.1,1.8,0.1
	c0.2,0.1,0,1.6,0,1.9c0.2-0.3,0,0.6,0,0.6c0,0.4,0,0.9,0.1,1.3c0.1,0.5,0.1,1.2,0.1,1.6c0,0.3-0.1,0.5-0.1,0.7
	c0,0.3,0.1,0.6,0.1,0.9c0,0.6,0,1.3,0,1.9c0,0.6,0.2,1.2,0.4,1.8c1.3-1.1,0.9-2.9,0.9-4.4c0-1.9,0.1-3.9,0.1-5.8
	c0-0.6,0.5-2.3-0.3-2.4c-1.1-0.1-2.4,0.4-3.5,0.2c0.3-0.5,0.3-2.1,0.1-2.7c0.9-0.1,1.8,0.3,2.7,0.1c1-0.2,0.9-1.1,0.9-1.9
	c0-2-0.4-4.4,1.4-5.7c1.6-1.2,3.3-1.2,5.2-1.1c0.7,0,0.5,0.3,0.5,0.9c0,0.5,0.2,1.4-0.5,1.4c-2.1-0.1-3.8,0.5-3.8,2.9
	c0,0.8-0.1,1.5-0.1,2.3c0.1,1.1,0.8,1.2,1.8,1.2c0.7,0,2.4-0.3,2.2,0.6c-0.1,0.4-0.1,1.9-0.5,1.9c-0.8,0-1.6,0-2.4,0
	c-0.3,0-0.5,0-0.8,0c-0.6,0-0.4,0.3-0.4,0.8C16.5,19.6,16.5,20.3,16.6,20.7C16.6,20.5,16.6,20.6,16.6,20.7z"/>
<g>
</g>
<g>
</g>
<g>
</g>
<g>
</g>
<g>
</g>
<g>
</g>
<g>
</g>
<g>
</g>
<g>
</g>
<g>
</g>
<g>
</g>
<g>
</g>
<g>
</g>
<g>
</g>
<g>
</g>
</svg>
