<?xml version="1.0" encoding="iso-8859-1"?>
<!-- Generator: Adobe Illustrator 17.1.0, SVG Export Plug-In . SVG Version: 6.00 Build 0)  -->
<!DOCTYPE svg PUBLIC "-//W3C//DTD SVG 1.1//EN" "http://www.w3.org/Graphics/SVG/1.1/DTD/svg11.dtd">
<svg version="1.1" xmlns="http://www.w3.org/2000/svg" xmlns:xlink="http://www.w3.org/1999/xlink" x="0px" y="0px"
	 viewBox="0 0 88.185 102.656" style="enable-background:new 0 0 88.185 102.656;" xml:space="preserve">
<g id="flag_x5F_big">
	<path style="fill:#F7A13A;" d="M22.146,39.191c-0.548,1.372-1.166,2.723-1.535,4.158c-0.268,1.041-0.744,2.52-0.226,3.551
		c0.433,0.863,1.693,0.36,2.113-0.246c0.836-1.208,0.925-3.241,1.413-4.628c0.495-1.407,1.076-2.771,1.673-4.136
		c0.367-0.839,0.773-1.446,1.755-1.549c0.363-0.038,4.085-0.324,4.086-0.193c0-0.271-0.933-0.203-1.1-0.208
		c0.596-0.054,1.214,0.167,1.807,0.008c0.662-0.178-0.899-0.403-1.048-0.416c0.077,0.002,0.335,0.037,0.43,0.001
		c-0.136,0.053-0.41-0.094-0.556-0.077c0.154-0.018,0.338,0.006,0.489,0.011c-0.237-0.041-0.471-0.091-0.704-0.151
		c0.887,0.013,1.776-0.01,2.662,0.057c-0.008-0.469-2.114-0.532-2.464-0.581c0.55,0.012,1.102,0.045,1.652,0.012
		c0.867-0.053-0.029-0.524-0.392-0.627c-0.605-0.171-1.237-0.245-1.861-0.31c-0.52-0.054-1.039-0.091-1.562-0.087
		c-0.571,0.004-1.293,0.309-1.465-0.222c-0.224-0.69-1.23-0.341-1.649-0.085c-0.93,0.567-1.505,1.176-2.588,1.529
		c-0.88,0.287-1.775,0.653-2.401,1.366c-0.184,0.21-1.004,1.319-0.885,1.643c0.093,0.067,0.188,0.052,0.285-0.045
		c-0.193,0.081-0.35,0.206-0.473,0.376c0,0.05,0.91-0.293,1.001-0.336c0.215-0.1-0.458,0.201-0.344,0.209
		c0.889,0.06,1.913-0.755,2.742-0.947c-0.338,0.658-0.617,1.344-0.894,2.029c0.027-0.066,0.053-0.132,0.079-0.198
		c-0.113,0.285-0.229,0.569-0.341,0.855C21.925,39.743,22.121,39.253,22.146,39.191C21.599,40.563,22.289,38.833,22.146,39.191z
		 M30.578,35.733c-0.232-0.06-0.302-0.167-0.561-0.164C30.314,35.268,30.344,35.729,30.578,35.733
		C30.339,35.672,30.539,35.732,30.578,35.733C30.346,35.673,30.581,35.733,30.578,35.733z M30.594,34.413
		c0.093,0.002,0.819,0.037,0.82,0.097C31.413,34.61,30.615,34.413,30.594,34.413z M29.906,34.987
		c0.181-0.002,1.002-0.043,1.002,0.102C30.909,35.267,29.711,34.99,29.906,34.987z M40.549,44.289
		c0.102,0.025,1.095,0.046,1.095,0.05c0.002-0.743-2.949-0.334-3.388-0.866c0.621,0.129,1.264,0.094,1.881,0.245
		c-2.106-0.497-4.213-1.031-6.369-1.266c0.724-0.652,0.781-2.203,1.981-2.007c1.097,0.179,2.212,0.293,3.317,0.42
		c0.374,0.043,4.009,0.345,4.009,0.542c0.002-0.287-0.911-0.195-1.045-0.435c0.089,0.016,0.87,0.115,0.869,0.169
		c0-0.104-0.487-0.156-0.572-0.181c0.127,0.032,1.188,0.045,1.188,0.166c0-0.259-0.914-0.305-1.089-0.35
		c0.104-0.088,1.188,0.121,1.188,0.199c-0.002-0.276-0.895-0.3-1.078-0.347c0.26-0.452-0.186-0.501-0.308-0.871
		c0.166-0.052,1.539,0.127,1.54,0.291c0.005-1.269-6.569-1.704-7.59-1.877c0.569-2.666,3.734-0.996,5.634-1.081
		c0.754-0.034,1.508-0.083,2.26-0.147c0.363-0.031,0.729-0.059,1.088-0.121c0.579-0.101-0.334-0.899,0.533-0.387
		c-2.869-0.771-5.638-1.535-8.598-1.863c-1.219-0.135-1.872-0.037-2.587,1.042c-0.746,1.127-1.334,2.346-2.042,3.496
		c-1.183,1.923-1.845,4.034,0.188,5.712c1.036,0.856,2.45,0.232,3.598,0.012c1.484-0.284,3.022-0.214,4.502,0.056
		c0.002-0.507-1.738,0.003-1.738-0.504c0,0.011,1.457,0.121,0.179-0.116c0.171,0.036,1.393-0.075,1.393,0.195
		c-0.003-0.255-0.616-0.002-0.616-0.29C40.208,44.202,40.542,44.287,40.549,44.289C40.651,44.314,40.359,44.235,40.549,44.289z
		 M41.445,39.411c0.158,0.034,0.457,0.118,0.531,0.282c0.169,0.37-0.484-0.038-0.458-0.015c-0.435-0.387-0.78-0.489-1.359-0.671
		c-1.221-0.384-2.443-0.768-3.664-1.152c-1.754-0.552-3.508-1.103-5.261-1.655c-1.242-0.391-2.503-0.747-3.733-1.175
		c2.355,0.819,4.77,1.498,7.148,2.245C36.807,37.948,39.41,38.993,41.445,39.411C41.532,39.429,41.357,39.393,41.445,39.411z
		 M39.922,39.041c0.555-0.036,0.735,0.502,0.984,0.56C40.563,39.517,40.3,38.995,39.922,39.041
		C40.04,39.03,40.04,39.03,39.922,39.041C40.148,39.027,40.034,39.028,39.922,39.041z M36.176,38.215
		c0.321,0.109,0.648,0.196,0.968,0.306C36.948,38.485,36.176,38.559,36.176,38.215C36.566,38.348,36.176,38.238,36.176,38.215
		C36.497,38.324,36.176,38.237,36.176,38.215z M36.243,39.227c0.419,0.059,0.835,0.137,1.254,0.198
		c-0.701-0.042-1.387-0.204-2.079-0.309c-0.032-0.004,1.116,0.153,0.785,0.106c0.062,0.008,0.123,0.017,0.185,0.026
		C36.375,39.245,36.108,39.208,36.243,39.227C36.662,39.286,36.015,39.195,36.243,39.227z M38.756,44.251
		c-0.12,0.032-0.18-0.003-0.181-0.105C38.843,44.139,38.903,44.174,38.756,44.251z M54.084,43.733
		c0.16,0.026,1.716,0.217,1.716,0.224c0.002-0.549-2.167,0.163-2.167-0.563c0.226,0.039,2.355,0.246,2.354,0.322
		c-0.001-0.31-2.076-0.362-2.354-0.41c0.319-0.036,0.638-0.076,0.957-0.119c-0.897-0.167-0.94-0.443-0.926-1.344
		c0.017-1.122-0.02-2.226-0.376-3.3c-0.286-0.865-1.224-3.53-2.497-2.461c-1.448,1.216-2.687,2.856-4.044,4.187
		c-0.887,0.871-1.743,1.798-2.656,2.639c-0.774,0.713-1.757,1.207-2.383,2.076c0.47-0.037,0.747-0.511,1.089-0.766
		c-0.609-0.15-0.792,1.65-1.386,1.505c0.705-0.173,1.189-1.557,1.991-1.358c-0.261,0.451-1.917,1.499-1.538,2.134
		c0.145,0.242,1.282-0.209,1.285-0.386c-0.005,0.548-0.948,0.469-0.957,1.017c0.555,0.14,0.714-0.786,1.254-0.753
		c-0.173-0.045-1.132,1.18-1.133,1.377c1.766,0.102,2.933-2.791,4.609-3.198c-0.074,0.019-0.825,0.234-0.825,0.179
		c1.312-0.805,2.028-1.737,3.638-1.257c0.443,0.132,1.056,0.134,1.44,0.413c0.556,0.404,0.258,1.571,0.277,2.144
		c0.015,0.447,0.067,0.919,0.196,1.35c0.206,0.692,0.527,0.441,0.983,0.733c1.353,0.867,0.951-3.325,0.979-3.872
		c0.093,0.012,0.967,0.137,0.968,0.048c-0.001-0.121-1.019-0.413-0.95-0.487c0.105-0.049,0.216-0.07,0.334-0.062
		c0.002-0.082-0.33,0.036-0.33-0.089C53.18,43.579,54.406,43.786,54.084,43.733z M42.49,45.424c0.078-0.215,0.479-0.454,0.66-0.587
		C43.151,45.049,42.716,45.482,42.49,45.424C42.584,45.166,42.529,45.434,42.49,45.424C42.569,45.208,42.534,45.435,42.49,45.424z
		 M43.183,45.681c-0.069,0.064-0.146,0.113-0.231,0.149C43.038,45.851,43.229,45.666,43.183,45.681
		C43.115,45.745,43.202,45.675,43.183,45.681z M43.662,46.257c-0.261,0.254-0.029-0.122,0.05-0.152
		C43.879,46.149,43.38,46.528,43.662,46.257C43.4,46.511,43.71,46.211,43.662,46.257z M44.041,44.763
		C44.041,44.833,44.041,44.605,44.041,44.763C44.041,44.77,44.041,44.759,44.041,44.763z M43.788,44.713
		c-0.286,0.22-1.232,0.517-1.232,0.959c0.005-0.477,1.332-1.487,1.793-1.367C44.134,44.402,43.947,44.538,43.788,44.713z
		 M44.228,45.659c-0.083-0.022-0.121-0.086-0.121-0.164C44.108,45.349,44.421,45.71,44.228,45.659z M44.448,45.134
		c-0.037-0.042-0.073-0.085-0.11-0.128C44.417,44.987,44.448,45.15,44.448,45.134C44.412,45.092,44.448,45.116,44.448,45.134z
		 M44.393,43.305c-0.308,0.382-0.72,0.689-1.144,0.93c0.181-0.225,0.433-0.404,0.661-0.576c0.066-0.05,0.663-0.585,0.37-0.213
		C44.317,43.398,44.355,43.351,44.393,43.305C44.086,43.687,44.467,43.215,44.393,43.305z M45.119,45.01
		c0,0.135-0.22-0.097-0.22,0.145c-0.359-0.055,0.218-0.754,0.22-0.14C45.119,44.968,45.119,44.675,45.119,45.01
		C45.119,45.146,45.119,44.625,45.119,45.01z M45.185,44.626c-0.118,0.085-0.175-0.234-0.143-0.225
		C45.216,44.445,45.186,44.685,45.185,44.626C45.067,44.711,45.185,44.619,45.185,44.626z M45.779,44.415
		c-0.157,0.144-0.226,0.04-0.286-0.147c0.112-0.008,0.223-0.003,0.334,0.017C45.908,44.33,45.597,44.576,45.779,44.415
		C45.623,44.559,45.802,44.396,45.779,44.415z M51.423,43.028c-0.231-0.043-0.458-0.1-0.682-0.172
		C50.814,42.873,51.423,42.957,51.423,43.028C51.139,42.975,51.423,43.02,51.423,43.028C51.192,42.985,51.423,43.021,51.423,43.028z
		 M51.445,40.272c0,0.743-0.022,1.485-0.022,2.228c-0.644-0.191-1.3-0.351-1.969-0.417c0.482-0.515,2.13-1.196,2.123-2.003
		c-0.046,0.068-0.093,0.135-0.139,0.203c0.066-0.096,0.03,0.215,0.02,0.291C51.464,40.523,51.43,40.293,51.445,40.272
		C51.445,41.014,51.489,40.208,51.445,40.272z M65.53,47.99c-0.407,0.894-1.355,1.646-1.337,2.7c0.951-1.14,1.484-2.671,2.176-3.974
		c0.894-1.683,1.807-3.365,2.595-5.101c0.21-0.463,2.403-5.299,0.946-5.158c-1.532,0.148-3.171,2.19-4.204,3.182
		c-0.632,0.606-1.283,1.161-1.971,1.706c-0.562,0.446-2.735,1.528-2.742,2.363c0.718-1.237,0.211-3.12-0.329-4.332
		c-0.206-0.463-0.813-1.134-1.382-1.043c-0.74,0.119-0.996,1.413-1.281,1.957c-0.827,1.578-1.874,3.089-2.436,4.792
		c-0.077,0.234-0.722,2.608-0.336,2.464c-0.308,0.371,0.048,1.215,0.572,0.866c-0.241,0.33-0.187,0.865,0.287,0.401
		c0.46-0.451,0.771-1.024,1.088-1.577c0.64-1.116,1.154-2.298,1.771-3.426c0.054,1.287,0.68,4.866,2.746,3.363
		c1.701-1.237,3.199-3.255,4.492-4.899c-0.595,1.195-1.207,2.381-1.782,3.585c-0.467,0.982-0.57,2.155-1.309,2.999
		c-0.083,0.05,0.497-0.302,0.502-0.295c0.018,0.027-0.495,0.297-0.454,0.391c0.056,0.128,0.633-0.62,0.733-0.637
		c-0.404,0.622-0.575,1.365-1.012,1.969c0.355-0.047,0.525-0.697,0.726-0.93c-0.012,0.049-0.054,0.428,0.033,0.413
		c0.182-0.03,0.682-1.296,0.803-1.202c-0.067,0.259-0.199,0.478-0.396,0.659c0.154-0.128,0.268-0.285,0.341-0.471
		c-0.245,0.635-0.747,1.216-0.748,1.928c0.742-0.863,1.185-1.925,1.694-2.929c-0.602,1.257-1.214,2.508-1.837,3.754
		c-0.034-0.029,1.745-3.732,2.156-3.835c0.005,0.215-0.151,0.418-0.235,0.605C65.442,48.182,65.491,48.076,65.53,47.99
		C65.141,48.844,65.599,47.837,65.53,47.99z M64.028,47.784c-0.064,0.148-0.123,0.297-0.176,0.449
		C63.874,48.121,64.054,47.753,64.028,47.784C63.964,47.931,64.061,47.745,64.028,47.784z M64.149,47.662
		c0-0.038,0.087-0.126,0.11-0.131c-0.078,0.092-0.155,0.184-0.233,0.276C64,47.84,64.195,47.609,64.149,47.662
		C64.149,47.624,64.186,47.619,64.149,47.662z M64.391,47.22c-0.048,0.057-0.095,0.114-0.143,0.171
		c0.085-0.208,0.203-0.397,0.352-0.565C64.588,47.026,64.385,47.224,64.391,47.22C64.344,47.277,64.518,47.124,64.391,47.22z
		 M64.65,48.173c0.014,0.209-0.065,0.374-0.236,0.494c0.033-0.307,0.135-0.589,0.308-0.845c-2.366,11.562-4.732,23.123-7.097,34.685
		c-0.516,2.522-1.032,5.045-1.548,7.567c-0.084,0.409-0.136,1.985-0.467,2.285c0.328-0.298,0.38-1.853,0.464-2.265
		c0.402-1.96,0.803-3.921,1.204-5.881c1.17-5.716,2.34-11.431,3.509-17.147c0.911-4.454,1.823-8.908,2.733-13.362
		C63.869,52.004,64.242,49.571,64.65,48.173C64.664,48.383,64.683,48.06,64.65,48.173z M65.134,47.411
		c-0.053,0.089-0.106,0.179-0.16,0.268c0.07-0.207,0.165-0.402,0.286-0.584C64.589,48.771,65.154,47.362,65.134,47.411
		C65.081,47.5,65.176,47.305,65.134,47.411z M87.408,62.433c-0.372-0.226-0.409-1.054-0.716-1.4
		c-0.318-0.36-0.558-0.714-0.834-1.018c-0.174-0.192-0.588-1.321-0.837-1.753c-0.497-0.862-1.04-1.698-1.564-2.544
		c-0.463-0.749-0.878-1.519-1.307-2.287c-0.385-0.69-0.935-1.112-1.365-1.722c-0.484-0.451-0.906-1.355-1.277-1.918
		c-0.471-0.713-0.818-1.497-1.227-2.245c-0.374-0.684-0.764-1.565-1.284-2.145c-0.48-0.536-1.182-0.805-1.763-1.206
		c-1.457,2.569,0.953,5.17,2.256,7.22c1.995,3.141,3.512,6.552,5.603,9.654c0.538,0.799,2.61,2.903,1.224,3.529
		c-0.642,0.29-1.164,0.753-1.822,1.038c-0.888,0.385-1.768,0.79-2.647,1.194c-3.292,1.513-6.538,2.776-10.127,3.379
		c-3.549,0.597-7.139,0.673-10.58-0.504c-3.53-1.208-5.965-3.513-8.858-5.73c-2.757-2.113-5.892-3.73-9.307-4.447
		c-3.79-0.796-7.79-1.451-11.65-0.794c0.249,0.069,0.499,0.139,0.748,0.208c-1.807,0.182-3.641,0.169-5.422,0.568
		c-0.985,0.622-2.785,0.484-3.889,0.377c0.192,0.007,0.383,0.022,0.574,0.044c-0.903,0.345-3.04,0.324-3.527,1.001
		c-0.86,1.195-1.188-1.315-1.262-1.659c-0.818-3.832-2.034-7.527-3.012-11.315c-2.184-8.453-4.458-16.875-6.674-25.314
		c-0.255-0.972,0.109-1.012,0.975-1.339c0.937-0.354,1.877-0.696,2.834-0.995c2.169-0.678,4.377-1.226,6.598-1.705
		c2.03-0.438,4.099-0.921,6.162-1.167c2.179-0.26,4.264-0.883,6.459-0.988c4.018-0.193,8.565,0.263,12.445,1.344
		c3.858,1.075,6.29,3.646,9.292,6.092c4.206,3.427,10.017,4.878,15.371,4.456c2.88-0.227,5.719-0.936,8.459-1.83
		c2.649-0.865,5.568-1.554,7.899-3.138c-0.092,0.319-0.439,0.384-0.594,0.654c-0.31,0.542-0.49,1.146-0.741,1.714
		c-0.477,1.079-1.084,2.103-1.443,3.231c0.195-0.215,0.389-0.43,0.584-0.645c-0.829,1.898-2.254,3.801-2.701,5.829
		c-0.292,1.326-1.308,2.681-2.166,3.701c0.132-0.174,0.269-0.344,0.413-0.509c-0.25,0.821-0.669,1.574-1.018,2.355
		c-0.088,0.197-0.371,0.246-0.35,0.503c0.032,0.395-0.087,0.728-0.318,1.044c0.142-0.093-0.053,0.554-0.153,0.642
		c-0.27,0.623-0.663,1.225-0.705,1.921c0.63-0.82,1.216-1.685,1.975-2.395c-0.078,0.091-0.14,0.191-0.185,0.301
		c0.007-0.094,0.634-0.569,0.724-0.754c0.272-0.559,0.766-1.122,1.049-1.747c0.36-0.797,0.93-1.441,1.346-2.205
		c0.241-0.442,0.378-0.931,0.656-1.353c0.036-0.055,0.924-1.084,0.503-0.668c0.249-0.054,0.349-0.5,0.485-0.672
		c-0.084,0.231-0.027,0.217,0.172-0.041c0.201-0.246,0.325-0.54,0.491-0.808c0.114-0.183,1.073-1.662,1.005-1.75
		c-0.114,0.076-0.211,0.172-0.289,0.287c0.329-0.359,0.029-0.134-0.034-0.044c0.24-0.887,1.515-1.628,1.391-2.609
		c-0.14-1.108,0.746-2.065,1.279-3.067c-0.278,0.162-0.556,0.323-0.833,0.485c0.456-0.606,0.923-1.204,1.346-1.834
		c0.552-0.822,0.819-1.804,1.408-2.598c-0.132,0.269-0.265,0.538-0.397,0.807c0.425-0.686,0.87-1.36,1.315-2.033
		c-0.179,0.267-0.124-1.191-0.082-1.453c0.038-0.243-0.135-1.19-0.419-0.586c0.755-0.675,0.609,0.903,0.641,1.267
		c0.307-0.16,0.165-1.324-0.179-1.403c-0.445-0.103-1.045-0.448-1.479-0.461c-0.473-0.014-0.878,0.352-1.276,0.549
		c0.663-0.156-0.56,0.447-0.599,0.469c-0.698,0.4-1.423,0.758-2.161,1.079c-1.214,0.528-2.388,1.042-3.582,1.612
		c-0.524,0.25-1.059,0.453-1.564,0.746c-0.704,0.408-1.344,0.294-2.069,0.565c-0.209,0.078-1.865,0.377-1.519,0.024
		c-0.224,0.203-0.473,0.369-0.748,0.497c-0.094-0.101-0.077-0.18,0.051-0.237c-0.266,0.016-1.107,0.852-0.826,0.884
		c-0.737,0.365-1.749,0.493-2.565,0.491c-0.715-0.002-1.494,0.006-2.209,0.077c-0.337,0.039-0.673,0.087-1.007,0.143
		c-0.168,0.023-0.336,0.046-0.504,0.068c-0.521,0.155-0.643,0.114-0.368-0.124c0.024,0.316-1.319-0.148-1.384-0.175
		c0.256,0.512-1.003,0.154-0.642-0.279c-0.653,0.233-1.438-0.186-2.117-0.112c0.186-0.047,0.348-0.015,0.485,0.094
		c0.075,0.389-1.151-0.025-1.19-0.025c0.503-0.05-0.539-0.312-0.648-0.373c0.131,0.083-1.784,0.146-1.22-0.399
		c-0.21,0.063-0.815-0.175-0.71-0.169c-1.954-0.812-4.043-2.185-5.437-3.785c-1.71-1.962-3.718-3.161-6.102-4.185
		c-2.487-1.068-5.003-1.64-7.651-2.125c-0.715-0.131-1.33,0.046-1.998-0.136c-0.261-0.071-0.255-0.267-0.558-0.29
		c-0.283-0.022-0.713,0.082-0.973-0.059c0.448,0.525-0.484,0.158-0.267,0.12c-2,0.27-4.033-0.086-6.026,0.267
		c-1.236,0.219-2.862,0.04-3.891,0.552c-0.205,0.102-1.536,0.068-2.012,0.135c-1.027,0.145-2.043,0.355-3.055,0.58
		c-1.715,0.381-3.561,0.548-5.191,1.227c-2.767,1.153-5.55,1.879-8.386,2.902c-0.463-1.736-0.791-3.522-1.532-5.17
		c-0.013,0.264-0.025,0.528-0.038,0.792C3.995,12.915,3.85,10.768,2.935,9.12c-0.59-1.064-0.693-2.616-0.682-3.808
		C2.264,5.51,2.266,5.708,2.26,5.907C1.423,4.111,1.439,1.598,0.117,0C0.153,0.94,0.25,1.886,0.119,2.824
		c0.008-0.113-0.008-0.221-0.045-0.325c-0.288,0.099,0.361,3.039,0.381,3.278c0.063,0.744,0.151,1.385,0.352,2.111
		c0.118,0.425,0.137,0.833,0.154,1.267c0.002,0.063,0.05,0.832,0.084,0.516c-0.107,0.222,0.057,0.51,0.062,0.736
		c0.102,0.331-0.113,2.258,0.36,2.772c0.054-0.115,0.071-0.239,0.049-0.371c-0.025,0.442,0.062,0.107,0.054,0.009
		c0.321,0.631-0.11,2.436,0.729,2.704c0.841,0.269,0.671,2.083,0.822,2.75c0.11-0.279,0.221-0.559,0.331-0.838
		c0.039,0.778,0.804,2.976-0.076,3.485c0.476,0.198,1.937,4.612,1.459,4.74c-0.23-0.907-0.271-1.944-0.865-2.713
		c0.104,0.386,0.106,1.59,0.206,1.738c1.011,0.872,0.807,2.543,1,3.729c0.026-0.121,0.403,1.371,0.444,1.62
		c0.189,1.136,0.371,1.858,0.632,2.881c0.143,0.56,0.276,1.176,0.582,1.673c0.413,0.671,0.328,1.153,0.452,1.888
		c0.024,0.144,0.531,2.205-0.008,1.7c0.197,0.21,0.357,0.446,0.48,0.707c-0.097,0.091-0.176,0.076-0.235-0.045
		c0.01,0.237,0.71,1.24,0.882,0.756c0.481,0.885,0.531,1.927,0.737,2.894c0.138,0.646,0.307,1.284,0.488,1.919
		c0.091,0.317,0.183,0.633,0.276,0.949c0.267,0.461,0.251,0.593-0.05,0.398c0.304-0.109,0.213,1.32,0.213,1.326
		c0.398-0.388,0.468,0.866-0.05,0.68c0.443,0.569,0.313,1.367,0.735,1.988c-0.452-0.647-0.027-0.587,0.14-0.333
		c0.172,0.262,0.087,0.606,0.229,0.876c-0.285-0.42-0.023,0.615-0.014,0.734c0-0.112,1.088,1.36,0.318,1.224
		c0.416,0.3,0.327,0.795,0.378,1.161c0.114,0.824,0.465,1.481,0.618,2.277c0.429,2.219,0.971,4.433,1.574,6.618
		c0.705,2.553,1.491,5.087,2.22,7.634c0.282,0.987,0.453,2.105,0.926,3.01c0.241,0.461,0.394,1.423,0.279,1.925
		c0.357-0.509,0.265,0.31,0.19,0.184c1.296,2.641,1.36,5.851,2.582,8.405c0.127,0.266,0.223,1.501,0.356,2.025
		c0.258,1.022,0.567,2.029,0.854,3.043c0.484,1.707,0.928,3.403,1.524,5.077c0.572,1.605,1.052,3.136,1.369,4.814
		c0.317,1.683,1.032,2.908,2.082,4.238c2.279-2.36,0.152-5.776-0.51-8.422c-0.885-3.54-1.632-7.102-2.607-10.623
		c-2.018-7.291-4.212-14.533-6.103-21.859c0.375,0.012,0.754,0.01,1.122,0.092c-0.139-0.08-0.254-0.055-0.346,0.075
		c1.071,0.178,2.345-0.242,3.543-0.208c0.981,0.028,2.695-0.332,3.317-0.17c0.229,0.047,0.46,0.063,0.693,0.046
		c-0.296,0.047,0.462,0.114,0.57,0.117c0.426,0.013,1.681,0.201,2.035-0.021c-0.09-0.081-0.201-0.121-0.332-0.121
		c0.463,0.123,0.085-0.044,0.016-0.051c0.658-0.208,2.211,0.536,2.617-0.222c0.382-0.715,2.046-0.127,2.644-0.084
		c-0.225-0.182-0.449-0.364-0.674-0.546c1.058,0.256,2.463,0.815,3.589,0.721c-0.096,0.008-0.431-0.075-0.482-0.083
		c0.36,0.094,4.591,0.313,4.472,0.875c-0.834-0.175-1.719-0.512-2.58-0.297c0.438,0.06,0.883,0.042,1.318,0.124
		c0.063,0.018,0.521,0.289,0.203,0.34c1.138-0.54,2.839,0.547,3.812,0.904c0.228,0.084,2.545,1.152,2.46,1.304
		c-0.093-0.368,1.073,0.357,1.187,0.429c0.525,0.331,1.189,0.546,1.673,0.91c0.308,0.232,1.923,1.98,1.439,1.931
		c0.27,0.049,0.521,0.148,0.752,0.298c-0.038,0.131-0.114,0.158-0.229,0.082c0.16,0.228,1.289,0.427,1.165,0.18
		c0.596,0.353,1.553,1.104,2.001,1.643c0.567,0.292,0.963,0.819,1.519,1.127c0.361,0.2,0.751,0.338,1.142,0.465
		c0.473,0.154,0.689,0.075,0.594,0.354c0.099-0.291,1.207,0.62,1.217,0.627c-0.103-0.549,1.004,0.084,0.56,0.413
		c0.729-0.08,1.392,0.432,2.141,0.355c-1.014,0.122-0.36-0.287-0.127-0.271c0.267,0.018,0.511,0.195,0.783,0.172
		c-0.508,0.091,0.558,0.269,0.672,0.309c-0.09-0.039,1.643-0.501,1.27,0.151c0.182-0.125,0.815-0.079,0.723-0.055
		c3.626,0.265,7.384-0.061,10.878-1.247c2.311-0.785,4.665-1.694,6.856-2.774c0.972-0.479,2.384-1.638,3.532-1.631
		c-0.572-0.237,0.212-0.311,0.127-0.226c0.862-0.732,2.124-1.028,2.718-2.058C88.463,64.493,88.266,63.523,87.408,62.433
		c0.07,0.072,0.14,0.143,0.211,0.215C87.548,62.576,87.478,62.504,87.408,62.433c0.062,0.038,0.111,0.141,0.153,0.191
		C87.51,62.56,87.459,62.496,87.408,62.433C87.192,62.301,87.756,62.875,87.408,62.433z M3.954,21.364
		C3.953,21.355,3.953,21.362,3.954,21.364L3.954,21.364z"/>
</g>
<g id="Layer_1">
</g>
</svg>
