<?xml version="1.0" encoding="iso-8859-1"?>
<!-- Generator: Adobe Illustrator 17.1.0, SVG Export Plug-In . SVG Version: 6.00 Build 0)  -->
<!DOCTYPE svg PUBLIC "-//W3C//DTD SVG 1.1//EN" "http://www.w3.org/Graphics/SVG/1.1/DTD/svg11.dtd">
<svg version="1.1" xmlns="http://www.w3.org/2000/svg" xmlns:xlink="http://www.w3.org/1999/xlink" x="0px" y="0px"
	 viewBox="0 0 58.049 67.458" style="enable-background:new 0 0 58.049 67.458;" xml:space="preserve">
<g id="flag">
	<path style="fill:#F6931D;" d="M10.206,40.481c0.26,0.006,0.52,0.016,0.78,0.031c0.692,0.038,0.632,0.864,0.798,1.468
		c0.317,1.151,0.653,2.296,0.987,3.441c0.561,1.92,0.921,3.526,1.462,5.323c0.347,1.151,0.654,2.222,0.972,3.351
		c0.343,1.217,0.685,2.433,1.028,3.65c0.423,1.504,0.551,3.137,1.01,4.61c0.556,1.783,1.655,3.632,0.063,5.103
		c-0.348-0.397-0.695-0.795-1.043-1.192c-0.086-0.077-0.429-1.562-0.434-1.873c-0.079-0.319-0.32-0.832-0.371-1.217
		c-0.169-1.281-0.823-2.383-1.139-3.716c-0.014,0.028-0.028,0.056-0.042,0.085c-0.337-1.576-0.96-3.094-1.175-4.695
		c0.244,0.205-0.315-0.321-0.019-0.09c-0.005-0.079-0.091-0.553-0.156-0.535c-0.231-0.457-0.236-0.839-0.417-1.257
		c-0.443-1.024-0.499-2.497-1.082-3.608c0.018,0.029,0.037,0.057,0.055,0.086c-0.023-0.119-0.045-0.239-0.068-0.358
		c-0.041,0.052-0.083,0.103-0.124,0.155c0.027-0.095-0.218-0.78-0.149-0.785c0.04-0.08,0.015-0.286,0.016-0.526
		c-0.154,0.075-0.67-2.046-0.794-2.54c-0.329-1.318-0.717-2.604-1.186-3.885c-0.442-1.206-0.424-2.527-0.928-3.675
		c-0.133-0.302-0.157-1.795-0.566-1.914c0.235-0.181-0.051-0.797-0.123-1.109c0.113-0.062,0.004-0.246-0.203-0.43
		c0.058,0.007,0.115,0.015,0.173,0.022c0.011-0.269-0.167-0.63-0.26-0.874c-0.07-0.092-0.111-0.076-0.121,0.048
		c-0.011-0.25,0.028-0.378-0.077-0.628c0.035,0.047,0.07,0.094,0.105,0.141c-0.153-0.272,0.017-0.706-0.434-0.635
		c0.058,0.095,0.115,0.189,0.173,0.284c-0.505-0.428-0.201-0.927-0.501-1.301c0.349,0.102,0.278-0.36,0.195-0.576
		c-0.047,0.041-0.095,0.083-0.142,0.124c0.034-0.4-0.149-0.635-0.113-0.885c0.042,0.021,0.084,0.043,0.126,0.064
		c-0.234-0.798-0.546-1.857-0.677-2.388c-0.15-0.609-0.05-1.121-0.399-1.716c-0.195,0.18-0.634-0.105-0.638-0.481
		c0.055,0.08,0.113,0.088,0.174,0.024c-0.122-0.232-0.154-0.283-0.34-0.457c0.456,0.378,0.205-0.695,0.18-0.753
		c-0.192-0.433-0.059-0.735-0.138-1.078c-0.042-0.298-0.476-0.613-0.445-0.933c-0.144-0.459-0.282-0.859-0.372-1.282
		c-0.189-0.635-0.213-1.767-0.53-2.492c-0.011,0.038-0.021,0.077-0.032,0.115c-0.109-0.732-0.158-1.883-0.657-2.449
		c0.197,0.265-0.093-1.073-0.113-1.147c0.277,0.431,0.44,1.221,0.58,1.779c0.039-0.01,0.077-0.021,0.116-0.031
		c0.079-0.356-0.196-0.65-0.249-0.978c-0.073-0.447-0.222-1.009-0.498-1.362c-0.076,0.048-0.004-0.482-0.008-0.58
		c0.054,0.025,0.081,0.067,0.083,0.125c0.143-0.399-0.142-0.499-0.197-0.823c-0.092-0.543-0.072-1.202-0.084-1.772
		c-0.062,0.196-0.197,0.369-0.266,0.563c-0.164-0.739-0.057-1.701-0.735-1.846C1.068,9.765,1.204,8.94,0.945,8.464
		C0.923,8.62,0.91,8.619,0.905,8.46C0.876,8.539,0.864,8.622,0.868,8.707c-0.09-0.399-0.16-0.815-0.226-1.207
		C0.635,7.45,0.512,6.415,0.657,6.878C0.672,6.729,0.68,6.554,0.66,6.406c-0.027-0.088-0.08,0.119-0.095,0.103
		C0.491,6.434,0.602,5.828,0.579,5.721C0.524,5.235,0.316,4.803,0.3,4.303C0.277,3.615,0.209,2.935,0.117,2.418
		c-0.014-0.067-0.048-0.094-0.102-0.08C0.043,2.35,0.04,2.361,0.007,2.369c-0.016-0.235-0.005-0.511,0.028-0.734
		C0.119,1.661,0.14,1.74,0.098,1.872C0.213,1.269,0.167,0.612,0.162,0C0.703,0.588,0.489,1.536,0.97,1.957
		c0.379,0.331,0.397,1.402,0.649,1.91C1.625,3.738,1.64,3.601,1.628,3.472C1.61,3.875,2.134,6.076,2.124,6.088
		c0.446,1.154,0.622,2.386,1.004,3.56C3.126,9.473,3.173,9.297,3.174,9.122c0.478,1.003,0.702,2.214,0.989,3.281
		c1.065-0.433,2.15-0.605,3.225-1.001c1.193-0.439,2.282-0.906,3.622-1.192c-0.031-0.014-0.061-0.028-0.092-0.042
		c1.77-0.349,3.55-0.901,5.366-0.936c-0.226,0.186,0.179-0.11,0.189-0.095c0.057,0.085-0.205,0.097,0.216,0.059
		c-0.023,0.002,0.33,0.008,0.321-0.064c0.275-0.081,0.501-0.283,0.798-0.297c0.292-0.014,0.331,0.166,0.588,0.097
		c1.203-0.325,2.976-0.005,4.389-0.229c-0.038,0.008-0.076,0.016-0.113,0.024c0.133,0.006,0.288,0.017,0.416,0.053
		c-0.042-0.056-0.084-0.112-0.126-0.168c0.087,0.053,0.933,0.058,0.915,0.12c0.048,0.144,0.306,0.122,0.564,0.213
		c-0.029-0.262,2.682,0.355,3.289,0.499c1.66,0.392,3.283,1.105,4.77,1.963c0.643,0.371,1.356,0.874,1.78,1.498
		c0.466,0.685,1.058,0.901,1.683,1.411c-0.069,0.041,1.725,1.171,1.965,1.273c-0.021,0.127,0.193,0.152,0.465,0.099
		c-0.039,0.042-0.078,0.084-0.117,0.126c0.203,0.171,0.633,0.21,0.887,0.263c0.116-0.011,0.123-0.054,0.021-0.129
		c0.219,0.129,0.321,0.208,0.593,0.236c-0.059,0.009-0.118,0.017-0.177,0.026c0.315-0.013,0.634,0.354,0.77-0.098
		c-0.11,0.019-0.221,0.029-0.332,0.032c0.009-0.171,1.347,0.073,1.403,0.052c-0.218,0.299,0.256,0.385,0.491,0.38
		c-0.025-0.059-0.05-0.117-0.076-0.176c0.421,0.2,0.627,0.023,0.907,0.144c-0.033,0.034-0.065,0.069-0.098,0.103
		c0.878-0.02,1.859-0.044,2.666-0.218c0.142-0.21,1.312-0.067,1.769-0.311c-0.186-0.203,0.147-0.628,0.524-0.639
		c-0.084,0.055-0.093,0.113-0.028,0.175c0.24-0.125,0.298-0.16,0.481-0.35c-0.404,0.469,0.756,0.162,0.795,0.143
		c0.163-0.093,0.329-0.18,0.499-0.261c0.286-0.109,0.432,0.096,0.638,0.029c0.281-0.069,0.682-0.446,0.951-0.566
		c0.47-0.211,1.004-0.613,1.341-0.76c1.294-0.178,2.762-0.997,3.829-1.72c-0.044,0.003-0.087,0.005-0.131,0.008
		c0.582-0.314,1.205,0.553,1.674,0.303c-0.008-0.012-0.042,0.891-0.041,0.884c-0.029-0.315-0.06-0.629-0.078-0.944
		c-0.056-0.088-0.285,0.081-0.35,0.116c0.292-0.563,0.247,0.685,0.246,0.701c-0.015,0.296-0.049,0.541,0.176,0.547
		c-0.198,0.453-0.553,0.878-0.823,1.29c0.095-0.173,0.17-0.356,0.261-0.531c-0.744,0.981-1.144,2.071-1.946,3.079
		c0.182-0.122,0.407-0.18,0.592-0.296c-0.381,0.708-1.156,1.471-0.748,2.064c-0.176,0.502-0.855,1.076-0.998,1.668
		c0.032-0.043,0.234-0.179,0.027,0.031c0.078-0.048,0.145-0.11,0.2-0.184c-0.174,0.328-0.407,0.542-0.532,0.888
		c-0.054,0.149-0.794,1.262-0.592,0.805c-0.122,0.113-0.238,0.262-0.334,0.397c-0.04,0.091,0.143-0.043,0.143-0.023
		c0.002,0.129-0.501,0.545-0.563,0.658c-0.299,0.449-0.449,0.957-0.787,1.392c-0.461,0.593-0.888,1.218-1.184,1.721
		c-0.039,0.063-0.032,0.109,0.02,0.137c-0.012-0.029-0.003-0.036,0.028-0.021c-0.153,0.21-0.35,0.433-0.534,0.603
		c-0.046-0.084-0.007-0.165,0.119-0.244c-0.514,0.438-0.934,1.021-1.358,1.543c0.003-0.268,0.629-1.753,0.534-1.698
		c0.23-0.299,0.31-0.743,0.448-1.055c0.245-0.553,0.479-0.931,0.643-1.515c-0.087,0.114-0.201,0.21-0.284,0.328
		c0.47-0.521,0.951-1.268,1.25-1.938c0.091-0.204,0.261-0.659,0.215-0.614c0.477-1.281,1.21-2.445,1.749-3.699
		c-0.122,0.148-0.28,0.267-0.404,0.414c0.25-0.845,0.719-1.67,1.093-2.464c0.022-0.047,0.499-0.827,0.522-0.785
		c-0.732,0.588-2.037,0.852-2.931,1.189c-2.029,0.765-4.122,1.42-6.271,1.738c-3.147,0.465-6.131-0.005-8.829-1.286
		c-1.563-0.742-2.599-1.527-3.784-2.748c-1.353-1.395-3.115-2.313-4.973-2.837c-1.58-0.445-3.412-0.766-5.027-0.834
		c-0.306-0.019-1.351,0.041-1.87,0.067c-0.73,0.037-2.225-0.173-2.851,0.126c-1.109,0.53-2.592,0.489-3.792,0.736
		c-1.448,0.286-2.862,0.705-4.313,0.963c-1.596,0.284-2.997,0.731-4.516,1.305c-0.555,0.21-0.684,0.063-0.53,0.724
		c0.111,0.48,0.242,0.955,0.379,1.428c0.304,1.05,0.65,2.095,0.843,3.173c0.729,4.082,2.518,8.15,3.18,12.092
		c0.212,1.261,0.527,2.256,0.873,3.43c0.45,1.529,0.807,2.992,1.189,4.545c0.161,0.655,0.075,0.321,0.127,0.517
		C10.961,40.16,10.466,40.244,10.206,40.481z M57.561,41.068c0.018,0.011-0.155-0.701-0.328-0.852
		c-0.264-0.23-0.707-0.506-0.554-0.711c0.008-0.011-0.212-0.112-0.228-0.139c-0.445-0.729-1.158-2.156-1.733-3.121
		c-0.375-0.63-0.568-0.803-0.911-1.42c-0.214-0.384-0.691-0.75-0.837-1.133c-0.205-0.54-0.727-1.303-1.161-1.837
		c-0.363-0.447-0.708-1.839-1.1-2.016c-0.683-0.421-1.105-1.081-1.59-0.326c-0.286,0.445-0.255,1.343,0.04,1.792
		c0.966,1.47,1.794,2.849,2.545,4.437c0.681,1.441,1.673,2.779,2.508,4.135c0.263,0.427,0.524,1.115,0.93,1.427
		c1.229,0.943-0.404,0.859-0.263,1.266c0.052,0.149-3.683,1.831-4.13,2.019c-1.865,0.784-3.719,1.269-5.724,1.451
		c-3.138,0.285-5.397,0.228-8.25-1.309c-2.775-1.495-4.699-4.045-7.746-5.201c-2.847-1.08-6.772-1.677-9.786-1.094
		c0.168,0.038,0.326,0.122,0.495,0.159c-1.193,0.128-2.4,0.101-3.573,0.38c-0.386-0.051-1.859,0.319-2.566,0.225
		c0.125-0.001,0.257,0.025,0.381,0.042c-0.585,0.24-1.141,0.155-1.701,0.309c-0.434,0.234-0.597,0.394-0.992,0.509
		c0.171,0.688,0.151,0.404,0.706,0.557c-0.126-0.047-0.201-0.031-0.227,0.049c0.209,0.045,0.472,0.073,0.696,0.071
		c-0.007-0.033-0.016-0.037-0.029-0.01c-0.012-0.053,0.015-0.085,0.079-0.097c0.334-0.031,3.709-0.405,3.879-0.066
		c-0.066-0.01-0.096-0.043-0.088-0.098c0.139,0.003,0.305,0.035,0.439,0.073c-0.447,0.073,0.525,0.108,0.573,0.107
		c0.374-0.006,0.755,0,1.14-0.02c-0.08-0.012-0.153-0.039-0.22-0.082c0.146,0.025,0.15,0.012,0.01-0.038
		c0.462-0.161,1.222,0.111,1.629,0.055c0.258-0.616,1.093-0.32,1.819-0.263c-0.159-0.119-0.279-0.295-0.442-0.409
		c0.539,0.148,1.065,0.313,1.588,0.414c0.324,0.063,0.458-0.218,0.796,0.081c-0.116-0.009-0.233-0.018-0.349-0.027
		c0.086,0.025,0.727,0.293,0.718,0.244c0.651-0.217,1.657,0.034,2.229,0.236c-0.008,0.039-0.017,0.078-0.025,0.117
		c-0.483-0.135-1.26-0.282-1.688-0.181c-0.006-0.001,1.35,0.25,0.99,0.327c0.672-0.189,1.578,0.254,2.191,0.537
		c-0.023-0.028-0.046-0.056-0.07-0.084c0.673,0.084,1.546,0.716,2.033,0.93c0.314,0.193,0.647,0.352,1.031,0.523
		c0.197,0.088,0.403,0.305,0.664,0.287c0.097-0.007,1.548,1.423,0.994,1.405c0.265,0.033,0.264,0.03,0.511,0.176
		c-0.019,0.088-0.074,0.11-0.165,0.067c0.21,0.316,0.742,0.349,0.812,0.078c-0.006-0.003,1.361,1.158,1.367,1.149
		c0.495,0.353,1.383,0.866,2.238,1.167c-0.043,0.02-0.087,0.04-0.13,0.06c0.094,0.093,0.415-0.088,0.365,0.101
		c0.013-0.05,0.352,0.282,0.439,0.344c-0.008-0.062-0.017-0.123-0.025-0.185c0.222,0.045,0.676,0.24,0.391,0.478
		c0.485-0.041,0.793,0.462,1.426,0.219c-0.114,0.006-0.227,0.012-0.341,0.018c0.152-0.434,0.46-0.067,0.779-0.101
		c-0.058,0.013-0.117,0.026-0.175,0.038c0.275,0.006,0.381,0.094,0.618,0.184c-0.112-0.059-0.111-0.103,0.003-0.13
		c0.267,0.013,0.667-0.026,0.918,0.076c-0.027,0.052-0.053,0.104-0.08,0.155c0.245-0.133,0.458-0.172,0.48-0.046
		c0.324,0.019,0.994-0.083,1.114,0.194c0.212-0.361,1.669-0.092,2.003-0.184c1.296-0.353,2.525-0.239,3.828-0.734
		c0.582-0.221,6.026-2.409,5.886-2.59c0.233-0.047,0.414-0.114,0.504-0.089c0.022,0.071,0.614-0.318,0.713-0.311
		c-0.059-0.029-0.118-0.058-0.177-0.087c0.107-0.049,0.215-0.097,0.322-0.146c-0.023,0.024-0.045,0.049-0.068,0.073
		c0.477-0.428,1.03-0.737,1.575-1.069C58.085,42.585,58.342,42.044,57.561,41.068C57.877,41.257,57.771,41.33,57.561,41.068z
		 M13.931,23.524c0.095-0.218,0.196-0.433,0.304-0.645c-0.174,0.041-2.032,0.824-2.032,0.716c0.089-0.071,0.185-0.131,0.288-0.179
		c0.078-0.037-0.728,0.374-0.728,0.245c0.088-0.123,0.203-0.215,0.344-0.274c-0.09,0.052-0.179,0.057-0.264,0.015
		c0-0.161,0.503-0.656,0.504-0.901c-0.004-0.511,1.16-0.976,1.478-1.123c0.504-0.232,1.028-0.421,1.562-0.569
		c0.2-0.334,0.473-0.561,0.824-0.722c0.564-0.258,1.19-0.406,1.192,0.322c0.443-0.053,4.081-0.187,4.104,0.61
		c0,0.107-1.314,0.066-1.496,0.062c0.198,0.028,1.793,0.24,1.792,0.422c-0.652-0.048-1.295-0.032-1.936-0.041
		c0.169,0.044,0.34,0.081,0.512,0.109c-0.112-0.004-0.225,0.001-0.336-0.002c0.015,0.034,0.336,0.051,0.376,0.06
		c-0.102,0.006-0.201-0.007-0.304-0.01c0.116,0.01,0.896,0.052,0.896,0.193c0.002,0.228-1.299,0.091-1.448,0.103
		c-0.011,0,0.8,0.015,0.8,0.151c-0.001-0.125-3.364,0.175-3.672,0.226c-0.406,0.071-1.003,2.035-1.156,2.411
		c-0.43,1.059-0.818,2.138-1.157,3.231c-0.226,0.73-0.22,2.141-1.147,2.228c-1.165,0.111-0.972-0.521-0.944-1.474
		C12.337,26.972,13.254,25.075,13.931,23.524C14.038,23.281,13.824,23.768,13.931,23.524z M19.755,21.765
		c0.001-0.167-0.312-0.223-0.416-0.12C19.504,21.643,19.615,21.762,19.755,21.765C19.755,21.75,19.753,21.765,19.755,21.765z
		 M19.747,20.814c0,0.104,0.608,0.06,0.608,0.062C20.355,20.835,19.747,20.798,19.747,20.814z M19.227,21.248
		c0,0.241,0.76-0.043,0.76,0.049C19.987,21.149,19.227,21.273,19.227,21.248z M26.711,27.924c-0.391-0.083,0.316,0.172,0.316,0.191
		c0,0.154-0.456-0.204-0.464-0.206c0,0.108-0.48,0.091-0.6,0.046c0.103,0.018,0.31,0.074,0.376,0.15
		c0,0.041-0.456-0.136-0.456-0.047c0,0.184,1.266,0.183,1.264,0.367c-1.06-0.197-1.995-0.219-3.064-0.075
		c-0.619,0.082-2.17,0.626-2.636,0.191c-0.492-0.462-1.23-1.444-1.3-2.143c0-0.996,1.124-2.274,1.571-3.12
		c0.209-0.394,1.194-2.586,1.733-2.502c0.916,0.139,1.866,0.148,2.785,0.344c0.398,0.085,4.521,0.697,4.519,1.137
		c0,0-0.254-0.093-0.312-0.092c0.001,0.114,0.074,0.224,0.072,0.339c0.001-0.183-0.997,0.149-1.06,0.163
		c-0.641,0.148-1.299,0.135-1.949,0.072c-0.695-0.067-1.385-0.171-2.079-0.247c-0.984-0.107-1.385-0.02-1.608,1.047
		c0.544,0.092,5.52,0.923,5.52,1.365c0-0.033-1.011-0.245-1.12-0.212c0.098,0.291,0.452,0.231,0.224,0.634
		c0.074,0.019,0.785,0.137,0.784,0.252c0,0.018-0.742-0.173-0.824-0.199c-0.009,0.021-0.023,0.039-0.04,0.054
		c0.094,0.024,0.792,0.15,0.792,0.254c0-0.039-0.808-0.106-0.864-0.12c0.142,0.033,0.281,0.077,0.416,0.131
		c0,0.002-0.601-0.117-0.632-0.123c0.062,0.105,0.76,0.23,0.76,0.316c0-0.015-3.512-0.469-3.646-0.488
		c-0.751-0.103-1.508-0.156-2.258-0.26c-0.165,0.419-0.545,1.242-0.864,1.508c1.571,0.179,3.095,0.557,4.632,0.921
		c-0.421-0.139-0.93-0.09-1.368-0.178c0.219,0.275,2.463,0.323,2.464,0.631C27.795,28.082,26.742,27.93,26.711,27.924
		C26.623,27.905,26.799,27.941,26.711,27.924z M27.467,24.382c-0.013-0.017,0.552,0.625,0.552,0.283
		C28.02,24.454,27.597,24.438,27.467,24.382C27.52,24.449,27.526,24.408,27.467,24.382z M26.507,24.168
		c0.248,0.117,0.482,0.344,0.752,0.411c0.014,0.004,0.051-0.211-0.064-0.239C26.968,24.278,26.734,24.224,26.507,24.168
		C26.593,24.208,26.523,24.172,26.507,24.168z M23.819,23.619c0,0.161,0.589,0.153,0.704,0.174
		C24.43,23.761,23.819,23.539,23.819,23.619z M23.267,24.225c0.506,0.077,0.999,0.195,1.512,0.225
		C24.274,24.381,23.773,24.292,23.267,24.225C23.339,24.236,23.502,24.256,23.267,24.225z M25.747,27.924
		c-0.061-0.013-0.123-0.027-0.184-0.04C25.563,27.986,25.747,27.988,25.747,27.924C25.686,27.91,25.747,27.95,25.747,27.924z
		 M36.515,27.528c-0.003,0.087,0.078,0.109,0.24,0.065c-0.081,0.004-0.161-0.002-0.24-0.017c-0.001,0.385,0.688,0.19,0.688,0.416
		c0,0.063-0.724-0.037-0.704-0.035c-0.015,0.303,0.039,3.043-0.48,2.945c-0.831-0.157-0.976-0.726-1.084-1.554
		c-0.054-0.417-0.036-0.836-0.036-1.256c0-0.702-1.068-0.646-1.696-0.8c-0.745-0.183-1.472,0.6-2.168,1.02
		c0,0.071,0.539-0.116,0.6-0.13c-0.651,0.173-1.328,0.993-1.856,1.376c-0.281,0.204-1.13,0.973-1.496,0.949
		c0.001-0.097,0.851-0.995,0.824-1.002c-0.294-0.027-0.638,0.622-0.912,0.547c0.005-0.262,0.699-0.484,0.696-0.74
		c0-0.066-0.772,0.384-0.856,0.363c-0.437-0.41,0.903-1.395,1.04-1.635c-0.342-0.07-1.071,0.885-1.448,0.988
		c0.054,0.012,0.999-1.098,1.008-1.095c-0.154,0.115-0.142,0.007-0.304,0.073c1.914-1.635,3.691-3.41,5.454-5.21
		c0.175-0.178,0.826-1.037,1.09-0.982c0.578,0.125,1.099,1.219,1.284,1.713c0.215,0.571,0.379,1.222,0.38,1.835
		c0,0.442-0.002,0.884-0.009,1.326c-0.009,0.538,0.208,0.407,0.681,0.496c-0.232,0.031-0.464,0.06-0.696,0.087
		c0.152,0.026,1.711,0.184,1.712,0.298c0,0.021-1.622-0.219-1.712-0.235c0,0.345,1.575,0.187,1.576,0.411
		C38.091,27.779,36.59,27.541,36.515,27.528C36.515,27.531,36.595,27.542,36.515,27.528z M28.503,28.813
		c0.084-0.023,0.388-0.352,0.388-0.427C28.813,28.447,28.297,28.875,28.503,28.813C28.532,28.805,28.474,28.822,28.503,28.813z
		 M28.955,28.987c0.002-0.165-0.2,0.124-0.208,0.121C28.809,29.123,28.888,29.008,28.955,28.987
		C28.955,28.981,28.941,28.991,28.955,28.987z M29.355,29.364c-0.055-0.125-0.184,0.041-0.184,0.112
		C29.232,29.438,29.294,29.401,29.355,29.364C29.35,29.352,29.328,29.367,29.355,29.364z M29.539,28.325
		C29.539,28.215,29.539,28.405,29.539,28.325C29.539,28.314,29.539,28.327,29.539,28.325z M29.579,28.119
		c0.04-0.033,0.124-0.104,0.184-0.119c-0.196-0.048-1.304,0.734-1.304,0.994C28.457,28.824,29.424,28.246,29.579,28.119
		C29.637,28.071,29.52,28.167,29.579,28.119z M29.723,28.965c0-0.056-0.136-0.165-0.136-0.099
		C29.587,28.93,29.723,29.024,29.723,28.965z M29.835,28.563C29.835,28.369,29.835,28.658,29.835,28.563
		C29.835,28.553,29.835,28.577,29.835,28.563z M29.835,27.235c-0.383-0.105-0.693,0.49-0.872,0.714
		C29.297,27.757,29.526,27.446,29.835,27.235C29.83,27.234,29.819,27.246,29.835,27.235z M30.347,28.387
		c-0.164-0.045-0.436,0.165-0.184,0.231C30.163,28.518,30.301,28.528,30.347,28.387C30.32,28.379,30.331,28.436,30.347,28.387z
		 M30.379,28.219c-0.037-0.05-0.075-0.1-0.112-0.15C30.256,28.067,30.28,28.304,30.379,28.219
		C30.379,28.139,30.374,28.224,30.379,28.219z M30.827,28.018c-0.122-0.153-0.1-0.012-0.232-0.045
		C30.631,28.083,30.827,28.214,30.827,28.018C30.8,27.984,30.827,28.046,30.827,28.018z M34.907,27.055
		c-0.165-0.036-0.331-0.073-0.496-0.109C34.418,26.947,34.907,27.107,34.907,27.055C34.742,27.019,34.907,27.06,34.907,27.055z
		 M35.019,24.926c0.001,0.102-1.375,1.277-1.544,1.457c0.506,0.051,0.956,0.161,1.432,0.303
		C34.907,26.226,34.755,25.311,35.019,24.926C35.019,24.921,34.987,24.973,35.019,24.926z M45.243,30.464
		c0,0.258-1.276,2.733-1.56,2.78c-0.079-0.063,1.209-2.49,1.328-2.737c-0.365,0.721-0.764,1.585-1.232,2.13
		c0.001-0.373,0.406-1.042,0.544-1.402c-0.053,0.135-0.136,0.25-0.248,0.343c0.044-0.058,0.286-0.487,0.272-0.484
		c-0.286,0.055-0.303,0.837-0.568,0.879c-0.058,0.01-0.033-0.26-0.024-0.3c-0.078,0.089-0.445,0.665-0.528,0.676
		c0.3-0.414,0.431-0.963,0.736-1.431c-0.229,0.038-0.291,0.441-0.488,0.469c-0.022,0.003,0.152-0.348,0.136-0.3
		c-0.053,0.095-0.125,0.17-0.216,0.224c0.392-0.447,0.505-1.228,0.763-1.78c0.473-1.013,0.987-2.007,1.485-3.009
		c-1.079,1.375-2.283,2.837-3.76,3.803c-0.365,0.281-1.239-0.869-1.376-1.147c-0.226-0.457-0.105-1.052-0.128-1.539
		c-0.28,0.513-1.8,3.87-2.376,3.8c-0.211-0.026,0.049-0.399,0.088-0.453c-0.36,0.245-0.673-0.322-0.416-0.629
		c-0.589,0.191,0.19-1.823,0.268-2.01c0.423-1.005,1.068-1.94,1.572-2.908c0.299-0.512,0.523-1.066,0.824-1.578
		c0.319-0.738,1.245,0.393,1.36,0.736c0.232,0.683,0.553,2.309,0.168,2.969c0-0.246,1.184-1.06,1.38-1.22
		c0.819-0.667,1.646-1.323,2.453-2.005c0.254-0.215,3.007-2.797,3.007-1.744c0,1.747-1.083,3.603-1.864,5.118
		c-0.798,1.547-1.52,3.616-2.648,4.928C44.195,31.886,45.246,31.224,45.243,30.464z M44.147,30.444
		c-0.219,0.041-0.131,0.063-0.2,0.412C43.99,30.706,44.047,30.563,44.147,30.444C44.131,30.447,44.123,30.473,44.147,30.444z
		 M44.243,30.346C44.215,30.351,44.042,30.586,44.243,30.346C44.232,30.348,44.216,30.378,44.243,30.346z M44.419,30.04
		c0.024-0.069,0.048-0.138,0.072-0.207c-0.109,0.07-0.191,0.301-0.256,0.412C44.29,30.17,44.351,30.102,44.419,30.04
		C44.443,29.971,44.397,30.054,44.419,30.04z M44.579,30.558c-0.15,0.181-0.176,0.384-0.224,0.614
		C44.519,31.009,44.551,30.786,44.579,30.558C44.541,30.603,44.568,30.645,44.579,30.558z M44.97,30.028
		c-0.072,0.133-0.172,0.275-0.208,0.425C44.802,30.483,44.983,29.994,44.97,30.028C44.944,30.077,44.933,30.128,44.97,30.028z"/>
</g>
<g id="Layer_1">
</g>
</svg>
