<?xml version="1.0" encoding="iso-8859-1"?>
<!-- Generator: Adobe Illustrator 17.1.0, SVG Export Plug-In . SVG Version: 6.00 Build 0)  -->
<!DOCTYPE svg PUBLIC "-//W3C//DTD SVG 1.1//EN" "http://www.w3.org/Graphics/SVG/1.1/DTD/svg11.dtd">
<svg version="1.1" xmlns="http://www.w3.org/2000/svg" xmlns:xlink="http://www.w3.org/1999/xlink" x="0px" y="0px"
	 viewBox="0 0 31.781 31.493" style="enable-background:new 0 0 31.781 31.493;" xml:space="preserve">
<g id="globe">
	<path style="fill:#A6A6A6;" d="M28.829,10.447C28.864,10.452,28.961,10.481,28.829,10.447
		C28.844,10.449,28.829,10.447,28.829,10.447z M24.069,27.419C24.089,27.428,24.02,27.396,24.069,27.419L24.069,27.419z
		 M24.077,27.411c0.05-0.03,0.1-0.061,0.15-0.091C24.182,27.261,24.048,27.442,24.077,27.411
		C24.127,27.381,24.093,27.394,24.077,27.411z M26.715,6.519C26.72,6.514,26.763,6.429,26.715,6.519
		C26.726,6.509,26.715,6.519,26.715,6.519z M24.995,4.478c-0.023-0.015-0.304-0.218-0.327-0.192
		C24.778,4.532,24.887,4.596,24.995,4.478z M29.309,23.818c-0.161,0.269-1.047,0.075-1.332,0.227c0.176-0.094,0.2-0.063,0.355,0.015
		c-1.259-0.687-0.881,0.633-1.76,0.835c0.239,0.024,0.064,0.06-0.047,0.138c-0.563,0.396-1.193,1.459-1.926,1.971
		c-0.658,0.46-1.181,0.939-1.925,1.281c-0.963,0.443-1.649,1.143-2.525,1.71c-1.01,0.653-2.141,1.123-3.295,1.451
		c1.341,0.25,2.957-0.552,4.229-0.892c1.572-0.42,2.973-1.208,4.251-2.208c0.971-0.76,2.12-1.748,2.797-2.783
		C28.334,25.253,28.984,23.849,29.309,23.818C29.336,23.773,29.259,23.823,29.309,23.818z M16.519,0.123
		c0.059,0.059,0.125,0.069,0.198,0.03C16.653,0.078,16.554,0.124,16.519,0.123C16.642,0.21,16.606,0.126,16.519,0.123z
		 M16.519,0.123c-0.07-0.05-0.506,0.001-0.599,0.013C16.119,0.119,16.512,0.122,16.519,0.123
		C16.449,0.072,16.356,0.118,16.519,0.123z M30.745,15.769C30.785,15.773,30.81,15.73,30.745,15.769
		C30.782,15.773,30.745,15.769,30.745,15.769z M17.182,0.077c-0.197-0.115-0.292-0.101-0.284,0.042
		C17.179,0.203,17.15,0.089,17.182,0.077C16.985-0.038,17.105,0.107,17.182,0.077z M16.776,0.137
		c-0.003,0.002-0.01,0.002-0.014,0.004C16.768,0.139,16.771,0.138,16.776,0.137z M28.915,23.245
		C28.842,23.33,28.911,23.204,28.915,23.245C28.909,23.253,28.917,23.261,28.915,23.245z M31.24,16.367
		c-0.271-0.08,0.087,0.056-0.068-0.105c0.12,0.21-0.952,0.213-0.903,0.139c0.042-0.04,0.088-0.073,0.141-0.098
		c-0.133,0.051-0.266,0.104-0.398,0.157c0.148,0.175-0.394,2.278-0.497,2.81c-0.253,1.306-0.61,2.729-1.538,3.734
		c0.254,0.108,1.158,0.352,1.107,0.344c0.733,0.609,1.72-2.898,1.858-3.329c0.287-0.9,0.461-1.826,0.546-2.766
		c0.019-0.211,0.312-1.147-0.178-1.012C30.774,16.392,31.31,16.371,31.24,16.367C30.99,16.294,31.3,16.371,31.24,16.367z
		 M28.919,8.217C28.91,8.253,28.931,8.245,28.919,8.217C28.919,8.217,28.925,8.229,28.919,8.217z M28.919,23.217
		C28.91,23.253,28.931,23.245,28.919,23.217C28.919,23.217,28.925,23.229,28.919,23.217z M17.801,0.268
		c-0.015,0.129-0.234-0.007-0.451-0.013c0.239,0.006,1.227,0.418,0.744,0.008c0.511,0.451,1.039,0.618,1.611,0.937
		c0.552,0.308,0.958,0.848,1.55,1.092c-0.397-0.25,0.088,0.045-0.098-0.133c0.394-0.002,0.665,0.428,0.999,0.571
		c0.485-0.367,1.506,0.983,1.074,0.093c0.41,0.408,0.926,0.707,1.282,1.17c-0.552-0.419,0.17,0.197,0.144,0.266
		c0.524,0.17,0.895,0.614,1.267,0.993c-0.39-0.098-0.669-0.509-1.004-0.71c0.737,0.626,1.544,1.415,2.09,2.285
		c0.403,0.642,0.577,1.115,1.344,1.314c0.094,0.025,0.981,0.249,0.731,0.21c0.214,0.154,0.446,0.275,0.695,0.363
		c-0.178,0.161-1.213,0.226-1.286,0.163c-0.172-0.147,0.373,1.211,0.087,1.059c0.413,0.254,0,0.239,0.262,0.465
		c0.306,0.265,0.416,0.046,0.622,0.592c0.294,0.779,0.563,1.796,0.387,2.625c0.206-0.138,0.144,0.168,0.087,0.27
		c-0.082,0.147-0.139,0.525,0.019,0.886c-0.203-0.562,0.108,0.217,0.121,0.256c0.062,0.133-0.186,0.493,0.476,0.69
		c0.084,0.025,0.726,0.172,0.427,0.131c0.186,0.108,0.379,0.2,0.58,0.276c0.174-3.105-0.8-6.268-2.387-8.915
		c-0.793-1.323-1.765-2.544-2.912-3.578c-0.562-0.506-1.165-0.967-1.808-1.366c-0.318-0.198-0.646-0.381-0.983-0.547
		C23.29,1.63,21.976,0.911,22.71,1.54c-1.381-0.617-2.901-0.833-4.27-1.481c0.591,0.265-0.905-0.11-1.206,0.006
		C17.4,0.195,17.589,0.263,17.801,0.268C17.804,0.241,17.584,0.253,17.801,0.268z M28.879,8.269
		C28.911,8.273,28.938,8.229,28.879,8.269C28.911,8.273,28.879,8.269,28.879,8.269z M30.792,15.717
		C30.78,15.755,30.804,15.741,30.792,15.717C30.792,15.717,30.798,15.729,30.792,15.717z M18.11,0.123l0.012,0.001
		C18.128,0.083,18.108,0.096,18.11,0.123z M23.379,3.229C23.372,3.154,23.403,3.46,23.379,3.229L23.379,3.229z M16.772,0.098
		c-0.062-0.043-0.127-0.054-0.193-0.033C16.639,0.128,16.704,0.139,16.772,0.098C16.71,0.055,16.774,0.1,16.772,0.098z
		 M23.483,11.266C23.48,11.255,23.344,11.196,23.483,11.266C23.482,11.26,23.483,11.266,23.483,11.266z M21.298,26.44
		C21.314,26.443,21.249,26.434,21.298,26.44L21.298,26.44z M21.301,26.432C21.466,26.351,21.349,26.308,21.301,26.432
		C21.35,26.408,21.308,26.415,21.301,26.432z M21.865,5.587c-0.016-0.022-0.149-0.264-0.183-0.246
		C21.683,5.574,21.744,5.656,21.865,5.587z M24.051,15.063C24.056,15.063,24.048,15.049,24.051,15.063
		C24.052,15.063,24.051,15.06,24.051,15.063z M25.596,14.314c-0.002-1.113-0.209-2.226-0.445-3.31
		c-0.101-0.466-0.215-0.93-0.335-1.392c-0.187-0.718-1.031-0.572-1.725-0.543c0.25,0.633,0.24,1.446,0.405,1.959
		c0.158-0.152,0.66,2.354,0.456,2.936c0.104-0.05-0.156,0.62,0.029,0.964c-0.154-0.383,0.161,0.321,0.417,0.128
		c0.224-0.169,0.891,0.14,1.159,0.226C25.549,14.959,25.562,14.636,25.596,14.314C25.594,13.294,25.562,14.636,25.596,14.314z
		 M23.875,22.643c-0.248-0.011-0.488,0.026-0.721,0.11c0.176,0.013,0.845,0.163,0.931-0.075
		C24.006,22.702,23.936,22.69,23.875,22.643C23.631,22.648,23.885,22.646,23.875,22.643z M23.921,16.67
		c0.397,0.212-0.091,1.621-0.167,1.93c-0.32,1.306-0.391,2.659-0.747,3.961c0.522,0.015,0.807,0.04,1.409,0.244
		c-0.154-0.002,0.159-0.261,0.27-0.607c0.223-0.695,0.352-1.423,0.48-2.14c0.095-0.532,0.188-1.067,0.267-1.602
		c0.089-0.601,0.133-1.206,0.127-1.814C25.054,16.616,24.399,16.41,23.921,16.67C24.263,16.853,24.329,16.448,23.921,16.67z
		 M25.452,15.303C25.615,15.356,25.589,15.348,25.452,15.303L25.452,15.303z M24.32,7.804C24.274,7.851,24.329,7.854,24.32,7.804
		C24.32,7.804,24.321,7.808,24.32,7.804z M25.265,15.176C25.263,15.165,25.214,15.161,25.265,15.176
		C25.264,15.17,25.265,15.176,25.265,15.176z M24.106,22.676C24.103,22.664,24.063,22.661,24.106,22.676
		C24.105,22.67,24.106,22.676,24.106,22.676z M25,15.143c-0.276,0.015-0.552,0.025-0.828,0.03c0.164,0.147,0.958,0.27,1.069,0.005
		C25.154,15.198,25.074,15.186,25,15.143C24.724,15.148,25.004,15.145,25,15.143z M23.875,7.643
		c-0.248-0.011-0.488,0.026-0.721,0.11c0.176,0.013,0.845,0.163,0.931-0.075C24.006,7.702,23.936,7.69,23.875,7.643
		C23.631,7.648,23.885,7.646,23.875,7.643z M24.106,7.676C24.103,7.664,24.063,7.661,24.106,7.676
		C24.105,7.67,24.106,7.676,24.106,7.676z M18.76,30.715c2.701-1.179,4.384-3.945,5.362-6.607c-0.504-0.22-1.12-0.03-1.644-0.022
		c-0.134,0.597-0.586,1.054-0.734,1.645c0.035,0.101-0.852,1.485-0.948,1.604c-0.578,0.721-1.385,1.507-2.227,1.916
		c-0.593,0.403-1.98,2.744-2.724,1.503C16.424,32.001,17.915,31.116,18.76,30.715C21.484,29.526,17.886,31.13,18.76,30.715z
		 M16.226,0.186c0.209,0.053,2.765,1.544,2.675,1.838c0.043,0.061,0.552,0.63,0.793,0.843c-0.141-0.36,0.055-0.028-0.026-0.138
		c0.292,0.097,0.379,0.518,0.575,0.718c0.614-0.24,0.711,1.229,0.838,0.33c0.172,0.439,0.465,0.826,0.587,1.286
		c-0.265-0.408,0.001,0.224,0.087,0.34c0.06,0.08,0.678,0.996,0.617,1.026c-0.286-0.149-0.393-0.578-0.598-0.807
		c0.04,0.073,0.275,0.654,0.177,0.586c0.615,0.429,0.219,1.373,1.139,1.345c0.428-0.013,0.781,0.031,1.218,0.21
		c-0.199-1.064-0.659-2.095-1.186-3.034c-0.315-0.56-0.671-1.102-1.088-1.592c-0.164-0.193-1.145-1.326-0.85-0.604
		c-0.943-0.876-2.128-1.421-3.091-2.27c0.446,0.379-0.238,0.084-0.414,0.051c-0.303-0.058-0.634-0.109-0.916-0.241
		c-0.008-0.009-0.905,0.054-0.983,0.094C16.174,0.076,16.294,0.21,16.226,0.186C16.527,0.262,16.048,0.122,16.226,0.186z
		 M15.781,0.166c0,0,0.105,0.038,0.246,0.093C15.895,0.196,15.781,0.166,15.781,0.166z M17.801,0.268l0.01,0.002
		C17.824,0.23,17.804,0.241,17.801,0.268z M21.038,4.155C21.059,4.1,20.965,4.351,21.038,4.155L21.038,4.155z M18.993,2.171
		c-0.039-0.027-0.077-0.046-0.11-0.05C18.988,2.2,18.999,2.195,18.993,2.171z M16.661,0.128C16.544,0.081,16.393,0.074,16.661,0.128
		C16.647,0.122,16.661,0.128,16.661,0.128z M17.804,11.936C17.79,11.927,17.686,11.867,17.804,11.936L17.804,11.936z M17.475,25.138
		C17.487,25.135,17.431,25.149,17.475,25.138L17.475,25.138z M17.475,25.131C17.598,25.001,17.462,24.996,17.475,25.131
		C17.508,25.096,17.473,25.115,17.475,25.131z M16.616,1.221C16.716,1.215,16.631,1.22,16.616,1.221L16.616,1.221z M17.662,6.686
		c-0.106-0.018-0.063,0.241,0.061,0.243C17.703,6.849,17.683,6.768,17.662,6.686z M17.662,6.686
		c0.332,0.083,0.008,0.669,0.217,0.823c0.216,0.155,1.018,0.058,1.316,0.12c-0.106-0.659-0.081-1.334-0.15-1.997
		c-0.026-0.25-0.333-1.884-0.501-1.235c-0.299-0.975-0.742-1.924-0.834-2.951c0.031,0.453-0.495-0.557-0.647-0.746
		c-0.318-0.395-0.754-0.703-1.282-0.535c0.38,0.095,0.751,0.401,0.802,0.812c0.41,0.608,0.366,2.175,0.546,3.056
		c0.1-0.292,0.059-0.002,0.065-0.114c0.239,0.335,0.004,0.582,0.284,0.866c0.27,0.274-0.174,1.078,0.338,0.484
		c-0.062,0.394-0.06,0.79-0.063,1.188C17.688,6.018,17.667,6.595,17.662,6.686C17.922,6.751,17.662,6.686,17.662,6.686z
		 M18.046,16.766c-0.512,0.566-0.209,2.317-0.192,3c0.014,0.576,0.038,1.152,0.038,1.728c0,0.385-0.23,0.704-0.228,1.043
		c0.539,0.033,1.079,0.115,1.62,0.104c0.092-1.053,0.108-2.111,0.161-3.166c0.032-0.644,0.021-1.35,0.148-1.986
		c0.071-0.355,0.004-0.608-0.009-0.978c-0.537,0.019-1.074,0.033-1.611,0.04C17.893,16.823,18.038,16.767,18.046,16.766
		C17.593,17.266,17.918,16.778,18.046,16.766z M17.735,7.496c0.094,0.091-0.079-0.585-0.12-0.713c0.032,0.1,0.108,0.861-0.041,0.669
		C17.61,7.534,17.664,7.549,17.735,7.496C17.954,7.709,17.673,7.566,17.735,7.496z M19.64,14.6c-0.009-1.87-0.329-3.725-0.308-5.596
		c-0.358,0.014-1.554-0.134-1.605,0.231c-0.046,0.328,0.045,0.502,0.101,0.82c0.037,0.21,0.087,1.633-0.124,1.455
		c0.383,0.25-0.128,0.331,0.196,0.431c0.276,0.085,0.26,0.174,0.287,0.479c0.046,0.53,0.073,1.33-0.181,1.819
		c0.129-0.045-0.234,0.475-0.004,0.811c-0.13-0.293,0.237,0.001,0.438,0.021c0.362,0.035,0.779-0.058,1.13,0.052
		C19.581,14.969,19.648,14.713,19.64,14.6C19.631,12.73,19.626,14.408,19.64,14.6z M16.084,31.08
		c2.497,0.239,2.899-5.56,3.034-7.068c-0.614,0.025-1.515-0.256-1.574,0.444c-0.046,0.538-0.104,1.074-0.208,1.604
		c-0.165,0.834-0.29,1.884-0.574,2.685c-0.14,0.394-0.433,1.01-0.743,1.279C15.875,30.147,15.861,31.242,16.084,31.08
		C17.542,31.22,15.751,31.321,16.084,31.08z M17.505,1.292l0.004,0.007C17.546,1.279,17.526,1.275,17.505,1.292z M17.593,5.542
		C17.633,5.511,17.436,5.667,17.593,5.542L17.593,5.542z M17.013,3.202c-0.01-0.039-0.023-0.072-0.043-0.092
		C16.99,3.22,17.001,3.222,17.013,3.202z M16.794,0.509c-0.02-0.08-0.065-0.133-0.135-0.158C16.666,0.428,16.711,0.48,16.794,0.509z
		 M11.999,11.844C11.985,11.834,11.89,11.761,11.999,11.844L11.999,11.844z M12.849,25.343
		C12.859,25.336,12.81,25.368,12.849,25.343L12.849,25.343z M12.846,25.336C12.923,25.165,12.791,25.209,12.846,25.336
		C12.866,25.291,12.839,25.32,12.846,25.336z M12.875,6.789c0-0.028,0.034-0.259-0.003-0.267
		C12.748,6.686,12.749,6.775,12.875,6.789z M15.198,1.418c-0.152-0.026-0.154-0.042-0.004-0.049
		c-0.634-0.368-0.835,1.51-1.312,1.478c-0.022,0.022-0.378,0.672-0.462,0.93c0.248-0.239,0.05,0.032,0.113-0.074
		c0.017,0.273-0.218,0.517-0.298,0.762c0.526,0.326-0.489,1.168,0.276,0.758c-0.21,0.351-0.302,0.743-0.466,1.113
		c0.078-0.469-0.161,0.529-0.173,0.659c-0.052,0.534,0.137,0.442,0.622,0.345c0.362-0.073,0.633,0.163,0.729-0.308
		c0.101-0.496,0.229-0.986,0.327-1.483c0.026-0.134,0.447-1.345-0.029-0.82c0.109-0.757,0.185-2.056,0.897-2.524
		c-0.332,0.267,0.346-0.813,0.363-0.992C15.666,1.305,15.29,1.416,15.198,1.418C15.045,1.392,15.262,1.417,15.198,1.418z
		 M12.581,23.961c0.057,1.203,0.523,2.359,0.693,3.556c0.081,0.571,0.363,1.355,0.709,1.818c0.527,0.704,1.366,0.363,1.776,1.377
		c-0.379-1.59-0.906-3.137-1.253-4.765c-0.094-0.44-0.135-1.419-0.409-1.825C13.814,23.702,12.984,23.952,12.581,23.961
		c0.008,0.177,0.245,0.034,0.226,0.023C12.732,23.976,12.657,23.969,12.581,23.961C12.594,24.236,13.114,23.949,12.581,23.961z
		 M11.956,16.534c0.225,0.09,0.126,3.171,0.187,3.671c0.082,0.665,0.129,1.348,0.26,2.006c0.107,0.534,1.147,0.098,1.528,0.105
		c-0.179-1.469-0.388-2.948-0.305-4.432c0.196-0.446-0.006-0.947-0.035-1.403C13.126,16.458,12.376,16.248,11.956,16.534
		C12.24,16.647,12.27,16.321,11.956,16.534z M12.781,6.763c0.073-0.518-0.06,0.829-0.197,0.5c0.049,0.055,0.067,0.118,0.056,0.19
		C12.902,7.423,12.799,6.917,12.781,6.763C12.872,6.12,12.796,6.896,12.781,6.763z M13.657,14.624
		c0.047-1.883,0.021-3.776,0.326-5.641c-0.37-0.022-1.58-0.238-1.645,0.18c-0.051,0.328-0.075,0.647-0.086,0.978
		c-0.005,0.143-0.103,1.476-0.304,1.256c0.34,0.293-0.158,0.327,0.144,0.46c0.267,0.118,0.242,0.206,0.245,0.515
		c0.005,0.556-0.03,1.334-0.303,1.836c0.254-0.08-0.423,0.501-0.064,0.758C12.153,14.963,13.456,15.034,13.657,14.624
		C13.704,12.72,13.512,14.92,13.657,14.624z M15.638,1.121c-0.381-0.068,0.035,0.073,0.142,0.092
		C15.707,1.079,15.649,1.124,15.638,1.121C15.258,1.054,15.767,1.147,15.638,1.121z M15.393,2.004L15.391,2.01
		C15.428,2.029,15.418,2.013,15.393,2.004z M13.203,5.4C13.253,5.383,13.009,5.462,13.203,5.4L13.203,5.4z M13.765,2.958
		c0.015-0.04,0.023-0.077,0.019-0.107C13.736,2.961,13.744,2.969,13.765,2.958z M15.716,1.42C15.768,1.379,15.511,1.433,15.716,1.42
		C15.74,1.401,15.699,1.421,15.716,1.42z M6.35,10.932C6.352,10.921,6.254,10.81,6.35,10.932C6.351,10.926,6.35,10.932,6.35,10.932z
		 M9.217,27.133C9.226,27.117,9.192,27.179,9.217,27.133L9.217,27.133z M9.211,27.126C9.19,26.917,9.112,27.028,9.211,27.126
		C9.205,27.068,9.196,27.112,9.211,27.126z M7.621,7.102C7.628,7.104,7.722,7.106,7.621,7.102C7.636,7.107,7.621,7.102,7.621,7.102z
		 M14.569,0.879C14.569,0.886,14.569,0.891,14.569,0.879L14.569,0.879z M8.984,4.812C8.908,4.707,8.748,5.006,8.852,5.103
		C8.896,5.006,8.94,4.909,8.984,4.812z M14.582,0.911c0.384,0.156,0.796,0.218,1.199,0.303c0.17,0.043-1.387-0.364-0.851-0.284
		C14.814,0.92,14.698,0.914,14.582,0.911C14.874,1.03,14.687,0.915,14.582,0.911C14.959,1.064,14.732,0.917,14.582,0.911z
		 M7.687,14.426c0.109-1.839,0.272-3.704,0.901-5.449C8.224,8.887,7.301,8.88,6.979,9.089c-0.029,0.185-0.55,1.357-0.586,1.288
		c0.137,0.192,0.122,0.341-0.045,0.448c0.016,0.417,0.33-0.061,0.269,0.673C6.555,12.234,6.44,13.2,6.091,13.857
		c0.079-0.026-0.228,0.633-0.061,1.024c-0.111-0.358,0.05-0.136,0.094-0.033c0.121,0.284,0.483,0.232,0.847,0.254
		c-0.026-0.048-0.068-0.066-0.128-0.052C7.447,15.575,7.613,14.732,7.687,14.426C7.796,12.586,7.716,14.307,7.687,14.426z
		 M5.983,16.736c0.283,0.132,0.026,0.834,0.087,1.063c0.234,0.883,0.221,1.846,0.393,2.746c0.098,0.514,0.133,1.048,0.306,1.545
		c0.236,0.681,0.824,0.466,1.402,0.51C8.15,22.557,8.113,22.54,8.06,22.549c0.054,0.054,0.493,0.018,0.582-0.008
		c-0.568-1.622-0.693-3.334-0.915-5.025c-0.035-0.266,0.006-1.133-0.475-1.022C6.926,16.569,6.175,16.419,5.983,16.736
		C6.196,16.835,6.122,16.506,5.983,16.736z M6.09,15.031C6.099,15.031,6.087,15.006,6.09,15.031
		C6.092,15.031,6.09,15.027,6.09,15.031z M10.542,2.723c0.165,0.451-1.127,1.135-0.249,0.905C9.887,3.916,9.621,4.341,9.238,4.652
		c0.33-0.492-0.174,0.152-0.24,0.133c-0.077,0.403-0.291,1-0.667,1.225C8.489,5.696,8.68,5.383,8.776,5.042
		c-0.441,0.808-0.86,1.589-1.309,2.49C7.71,7.54,7.932,7.582,8.171,7.601C8.15,7.558,8.113,7.54,8.06,7.549
		C8.032,7.522,8.762,7.455,8.688,7.567c0.42-0.158,0.493,0.011,0.693-0.466c0.281-0.671,0.691-1.272,1.126-1.85
		c0.258-0.343,0.523-0.68,0.774-1.029c0.126-0.176,0.872-0.867,0.219-0.634c0.615-0.738,1.538-1.713,2.585-1.697
		c-0.43,0.007,0.678-0.462,0.935-0.436c-0.201-0.046-0.23-0.083-0.087-0.11c-0.281,0.115-0.62,0.171-0.915,0.238
		c-0.188,0.043-1.243,0.1-0.605,0.193C13.027,1.71,10.278,2.212,10.542,2.723C10.668,3.067,10.254,2.165,10.542,2.723z
		 M14.578,0.887C14.555,0.885,14.591,0.848,14.578,0.887C14.579,0.887,14.58,0.88,14.578,0.887z M14.909,31.13
		c0.199,0.065,0.603-0.386,0.872-0.365C15.49,30.887,15.199,31.009,14.909,31.13z M15.194,1.369c0.204-0.022,0.4-0.074,0.587-0.155
		C15.643,1.294,15.111,1.321,15.194,1.369C15.398,1.347,15.176,1.359,15.194,1.369z M15.098,1.346
		C14.899,1.37,15.04,1.377,15.098,1.346C15.064,1.35,15.079,1.356,15.098,1.346z M15.576,30.234
		c-0.366-0.06-0.599-0.471-1.026-0.553c-0.392-0.075-0.852-0.145-1.155-0.423c-0.593-0.544-1.206-1.066-1.806-1.603
		c-0.831-0.745-1.381-1.754-1.954-2.698c-0.191-0.345-0.335-0.902-0.748-1.055c-0.301-0.112-1.051,0.168-1.418,0.176
		c0.731,1.082,1.394,2.996,2.563,4.199c0.707,0.727,2.047,1.261,3.03,1.358c0.969,0.096,2.325-0.006,2.717,1.129
		C15.712,30.589,15.644,30.412,15.576,30.234C15.325,30.193,15.648,30.41,15.576,30.234z M14.241,1.704l-0.008,0.002
		C14.247,1.746,14.253,1.729,14.241,1.704z M9.904,3.683C9.97,3.688,9.682,3.668,9.904,3.683L9.904,3.683z M15.198,1.418
		C15.351,1.414,14.843,1.316,15.198,1.418C15.262,1.417,15.169,1.41,15.198,1.418z M14.837,0.884l0.016-0.039
		C14.813,0.864,14.817,0.876,14.837,0.884z M1.035,9.817C1.04,9.801,0.971,9.656,1.035,9.817C1.037,9.81,1.035,9.817,1.035,9.817z
		 M6.767,28.442C6.769,28.417,6.763,28.502,6.767,28.442L6.767,28.442z M6.757,28.437c-0.048-0.042-0.095-0.085-0.143-0.127
		C6.571,28.371,6.797,28.458,6.757,28.437C6.71,28.394,6.735,28.425,6.757,28.437z M3.738,5.588C3.743,5.592,3.841,5.62,3.738,5.588
		C3.75,5.597,3.738,5.588,3.738,5.588z M14.27,0.803C14.189,0.908,14.266,0.807,14.27,0.803L14.27,0.803z M6.245,3.473
		c-0.012-0.062-0.353,0.221-0.326,0.2C6.024,3.702,6.113,3.581,6.245,3.473z M15.515,30.239c-1.369-0.802-3.178-0.651-4.675-1.298
		c-2.391-1.034-4.599-2.498-6.232-4.556c-0.35-0.441-2.598-0.575-1.53-1.525c0.521-0.463-0.207-1.291-0.468-1.849
		c-0.534-1.138-0.585-2.388-0.867-3.596c-0.106-0.454-0.072-0.822-0.518-1.074c-0.756-0.427-0.238-0.878,0.205-1.206
		c-0.044-0.011-0.204,0.019-0.253,0.04c0.137,0.027,0.275,0.033,0.415,0.02c0.007-0.448,0.046-0.895,0.109-1.339
		c0.131-0.934,0.36-1.855,0.659-2.749c0.224-0.669,0.552-1.261,0.82-1.903c0.194-0.465-0.632-0.718-0.266-1.204
		c0.419-0.557,0.963-0.153,1.424-0.591c0.57-0.541,1.036-1.181,1.567-1.758c0.594-0.646,1.268-1.119,2.034-1.541
		c0.406-0.224,0.817-0.439,1.209-0.687C9.344,3.3,10.359,2.852,9.53,2.922c1.102-0.639,2.567-1.37,3.882-1.147
		c-0.62-0.09,0.623-0.142,0.824-0.195c0.419-0.112,1.18-0.152,1.545-0.366c-0.403-0.084-0.815-0.147-1.199-0.303
		c0.35,0.121-0.185-0.109-0.32-0.128c0.009,0.113-0.425,0.099-0.521,0.108c-0.35,0.035-2.091,0.42-2.325,0.106
		c0.166,0.103,0.082,0.123-0.254,0.06c-0.025,0.009-0.975,0.177-1.253,0.267c0.506-0.081-0.106,0.025,0.175,0.033
		C9.581,1.599,9.159,1.554,8.844,1.99C8.632,2.282,7.24,2.597,8.21,2.616C7.635,2.799,7.137,3.138,6.585,3.374
		C7.172,2.941,6.334,3.49,6.273,3.448c-0.316,0.402-0.775,0.991-1.3,1.12C5.287,4.271,5.651,4,5.902,3.64
		c-0.799,0.678-1.513,1.301-2.196,2.16C3.262,6.358,2.651,6.834,2.359,7.5c-0.206,0.47-0.401,0.913-0.725,1.324
		C1.33,9.208,1.249,9.159,1.089,9.639c-0.121,0.363,0.229,0.249,0.119,0.735c-0.104,0.461-0.314,0.885-0.481,1.324
		c-0.266,0.699-0.227,1.125-0.524,1.7c0.08-0.028-0.353,0.837-0.149,1.277c-0.129-0.593,0.072,0.183,0.093,0.294
		c-0.085-0.269,0.049,0.989-0.133,0.914c0.231,0.425,0.066,1.035,0.12,1.499c0.08,0.697,0.305,1.407,0.25,2.101
		c-0.082,1.038,0.64,2.183,1.133,3.045c0.617,1.079,1.914,2.255,2.244,3.413c0.049-0.252,0.067-0.037,0.133,0.074
		c0.355,0.598,1.726,1.674,2.396,2.184c0.755,0.574,1.798,1.035,2.633,1.526c1.117,0.658,2.242,0.857,3.486,1.133
		c1.299,0.288,2.13,0.425,3.37-0.094C15.714,30.579,15.625,30.403,15.515,30.239C15.112,30.003,15.634,30.367,15.515,30.239z
		 M13.674,1.621l-0.01,0.002C13.67,1.665,13.683,1.646,13.674,1.621z M7.776,2.564C7.826,2.585,7.566,2.479,7.776,2.564L7.776,2.564
		z M11.19,0.976c0.062-0.015,0.116-0.031,0.151-0.054C11.165,0.952,11.162,0.969,11.19,0.976z M14.848,1.373
		c-0.68-0.159,0.372,0.124,0.175,0.002C14.974,1.335,14.916,1.335,14.848,1.373z M14.6,0.858l0.025-0.035
		C14.573,0.833,14.577,0.846,14.6,0.858z M19.538,7.31C19.543,7.31,19.609,7.183,19.538,7.31C19.541,7.31,19.538,7.31,19.538,7.31z
		 M8.069,7.563C8.072,7.572,8.053,7.523,8.069,7.563L8.069,7.563z M8.075,7.561C8.196,7.656,8.193,7.526,8.075,7.561
		C8.11,7.588,8.089,7.557,8.075,7.561z M22.279,7.466C22.279,7.473,22.302,7.561,22.279,7.466
		C22.28,7.481,22.279,7.466,22.279,7.466z M28.915,8.245C28.91,8.178,28.853,8.317,28.915,8.245
		C28.915,8.239,28.909,8.253,28.915,8.245z M23.868,7.704c0.028-0.005,0.221-0.003,0.223-0.042
		C23.934,7.576,23.86,7.59,23.868,7.704z M12.886,7.423c-0.648,0.089-1.712,0.202-2.327,0.058c-1.261-0.296-3.464,0.141-5.027,0.14
		c-0.509,0-3.025-0.317-2.645,0.811c0.24,0.711,0.903,0.673,1.499,0.628C5.338,8.986,6.279,9.15,7.237,9.103
		c1.913-0.094,3.834-0.147,5.75-0.148c0.666,0,2.975,0.597,3.408,0.057c0.573-0.233,1.292,0.043,1.887,0.027
		c1.148-0.03,2.286-0.044,3.434-0.03c0.874,0.011,1.731-0.03,2.582,0.169c0.302,0.071,0.632,0.055,0.938,0.032
		c0.22-0.016,1.064,0.021,0.631-0.251c0.759-0.068,1.757-0.285,2.465,0.1c-0.439-0.221,0.444-0.136,0.504-0.135
		c0.317,0.004,0.689,0.019,0.945-0.211c-0.406-0.168-0.565-0.403-0.872-0.508c-0.004,0.08-2.173-0.519-2.461-0.539
		c0.187,0.139,0,0.062,0.083,0.091c-0.385,0.16-0.462-0.184-0.785,0.077c-0.286,0.23-0.91-0.399-0.475,0.234
		c-0.324-0.137-0.668-0.165-1.001-0.267C24.318,7.8,24.367,7.8,24.416,7.805c-0.437-0.159-0.746-0.014-1.262-0.052
		c0.135-0.087,0.673-0.21,0.825-0.142c-0.022-0.01-0.785,0.036-0.541-0.13c-0.578,0.266-1.802-0.024-2.448-0.03
		c-0.046-0.046-1.389,0.163-1.077-0.218c-0.216,0.352-0.362-0.17-0.423,0.361c-0.479,0.226-1.141-0.036-1.646-0.015
		c-0.01,0.019-0.691-0.33-1.008-0.164c0.326-0.164-0.736,0.322-0.66,0.001c-0.309,0.221-1.167-0.069-1.528-0.081
		C14.06,7.315,13.468,7.343,12.886,7.423C12.59,7.464,13.713,7.309,12.886,7.423z M28.504,8.947l-0.006,0
		C28.498,8.99,28.507,8.974,28.504,8.947z M25.074,7.801C25.087,7.802,25.005,7.653,25.074,7.801
		C25.078,7.801,25.074,7.801,25.074,7.801z M27.182,7.78c0.036,0.002,0.067-0.001,0.089-0.014
		C27.172,7.753,27.168,7.763,27.182,7.78z M29.31,8.867C29.389,8.873,29.037,8.775,29.31,8.867
		C29.362,8.871,29.28,8.857,29.31,8.867z M20.02,14.81C20.027,14.81,20.102,14.685,20.02,14.81
		C20.024,14.81,20.02,14.81,20.02,14.81z M6.852,15.063C6.857,15.074,6.834,15.021,6.852,15.063L6.852,15.063z M6.859,15.061
		C7.008,15.163,6.99,15.027,6.859,15.061C6.899,15.088,6.875,15.057,6.859,15.061z M23.168,14.966
		C23.168,14.974,23.194,15.061,23.168,14.966C23.168,14.981,23.168,14.966,23.168,14.966z M30.787,15.745
		C30.781,15.679,30.714,15.819,30.787,15.745C30.786,15.739,30.78,15.753,30.787,15.745z M24.992,15.204
		c0.027-0.005,0.254-0.004,0.256-0.042C25.073,15.066,24.987,15.08,24.992,15.204z M31.562,16.127
		c-0.43-0.163-0.453-0.323-0.784-0.421c-0.007,0.157-1.811-0.279-1.812-0.275c-0.225-0.246-0.717-0.246-1.014-0.263
		c0.266,0.172-0.014,0.058,0.095,0.091c-0.407,0.148-0.559-0.148-0.909,0.077c-0.32,0.205-1.022-0.379-0.538,0.235
		c-0.373-0.137-0.762-0.189-1.149-0.267c0.056-0.005,0.113-0.004,0.169,0.002c-0.401-0.132-1.103,0.18-1.449-0.132
		c0.3,0.007,0.685-0.006,0.976-0.057c-0.102,0.018-0.86-0.01-0.651-0.135c-0.656,0.278-1.874-0.005-2.589-0.03
		c-0.213-0.007-1.716,0.055-1.458-0.218c-0.002,0.002-0.645,0.397-0.652,0.398c-0.448,0.055-0.926-0.003-1.371-0.064
		c-0.48-0.066-1.133-0.407-1.51-0.153c0.378-0.165-0.844,0.32-0.758,0.001c-0.446,0.309-1.633,0.109-2.13,0.004
		c-0.538-0.553-2.886,0.07-3.581,0.123c-0.285,0.022-0.912,0.044-1.137-0.159c-0.012-0.025-2.7,0.159-3.184,0.147
		c-1.451-0.033-2.891,0.095-4.346,0.111c-0.695,0.008-1.191,0.451-0.685,1.113c0.433,0.566,2.427,0.298,3.13,0.35
		c2.588,0.192,5.301-0.097,7.9-0.14c2.631-0.044,5.262,0.187,7.886,0.072c1.36-0.06,2.679,0.104,4.031,0.1
		c0.633-0.002,1.26-0.009,1.892,0.025c0.269,0.015,1.887,0.09,1.352-0.203c0.892-0.07,1.985-0.301,2.83,0.1
		c-0.381-0.278,0.412-0.136,0.579-0.133c0.361,0.006,0.78,0.026,1.084-0.213C31.708,16.185,31.635,16.156,31.562,16.127
		C31.361,16.051,31.635,16.156,31.562,16.127z M30.314,16.447l-0.007,0C30.307,16.49,30.318,16.474,30.314,16.447z M26.377,15.301
		C26.394,15.302,26.298,15.152,26.377,15.301C26.381,15.301,26.377,15.301,26.377,15.301z M28.797,15.28
		c0.041,0.002,0.077-0.001,0.103-0.014C28.786,15.253,28.781,15.263,28.797,15.28z M31.24,16.367
		C31.319,16.372,30.936,16.278,31.24,16.367C31.3,16.371,31.206,16.357,31.24,16.367z M19.538,22.31
		C19.543,22.31,19.609,22.183,19.538,22.31C19.541,22.31,19.538,22.31,19.538,22.31z M8.069,22.563
		C8.072,22.572,8.053,22.523,8.069,22.563L8.069,22.563z M8.075,22.561C8.196,22.656,8.193,22.526,8.075,22.561
		C8.11,22.588,8.089,22.557,8.075,22.561z M22.279,22.466C22.279,22.473,22.302,22.561,22.279,22.466
		C22.28,22.481,22.279,22.466,22.279,22.466z M28.912,23.226C28.867,23.313,28.916,23.24,28.912,23.226
		C28.912,23.226,28.913,23.233,28.912,23.226z M23.868,22.704c0.028-0.005,0.221-0.003,0.223-0.042
		C23.934,22.576,23.86,22.59,23.868,22.704z M29.098,23.298c-0.062-0.033-0.126-0.064-0.19-0.092
		c-0.004,0.08-2.173-0.519-2.461-0.539c0.187,0.139,0,0.062,0.083,0.091c-0.385,0.16-0.462-0.184-0.785,0.077
		c-0.286,0.23-0.91-0.399-0.475,0.234c-0.323-0.136-0.662-0.187-1.001-0.267c0.261,0.023,0.202-0.025-0.176-0.144
		c-0.128,0.203-0.714,0.111-0.939,0.094c0.135-0.087,0.673-0.21,0.825-0.142c-0.022-0.01-0.785,0.036-0.541-0.13
		c-0.436,0.265-1.711,0-2.226-0.023c-0.197-0.009-1.56,0.093-1.299-0.225c0.01-0.017-0.586,0.414-0.658,0.403
		c-0.518-0.075-1.255,0.079-1.717-0.208c0.031,0.108-0.367-0.189-0.702-0.015c0.244-0.123-0.467,0.227-0.685,0.109
		c0.039-0.166-0.546-0.045-0.737-0.044c-1.3,0.007-2.599-0.085-3.898-0.064c-1.214,0.019-1.912,0.061-3.229,0.054
		c-1.19-0.007-2.384,0.019-3.565,0.177c-0.498,0.066-2.39-0.081-1.775,1.001c0.439,0.772,1.536,0.25,2.235,0.358
		c1.317,0.205,2.662,0.019,3.989,0.005c1.004-0.011,2.012,0.04,3.013-0.059c0.806-0.08,1.793-0.276,2.572,0.037
		c0.589,0.236,1.799-0.004,2.505,0.033c1.289,0.068,2.582-0.115,3.87-0.02c0.888,0.065,1.829-0.08,2.7,0.033
		c0.44,0.057,0.797,0.2,1.257,0.185c0.213-0.007,1.238,0.03,0.781-0.257c0.766-0.069,1.749-0.29,2.465,0.1
		c-0.436-0.22,0.44-0.135,0.499-0.134c0.317,0.003,0.694,0.018,0.95-0.212c-0.248-0.091-0.479-0.212-0.695-0.363
		C29.208,23.367,29.212,23.349,29.098,23.298C29.122,23.307,29.212,23.35,29.098,23.298z M28.504,23.947l-0.006,0
		C28.498,23.99,28.507,23.974,28.504,23.947z M25.074,22.801C25.087,22.802,25.005,22.653,25.074,22.801
		C25.078,22.801,25.074,22.801,25.074,22.801z M27.182,22.78c0.036,0.002,0.067-0.001,0.089-0.014
		C27.172,22.753,27.168,22.763,27.182,22.78z M29.222,23.825C29.328,23.862,29.352,23.848,29.222,23.825
		C29.243,23.833,29.222,23.825,29.222,23.825z"/>
</g>
<g id="Layer_1">
</g>
</svg>
