<?xml version="1.0" encoding="iso-8859-1"?>
<!-- Generator: Adobe Illustrator 17.1.0, SVG Export Plug-In . SVG Version: 6.00 Build 0)  -->
<!DOCTYPE svg PUBLIC "-//W3C//DTD SVG 1.1//EN" "http://www.w3.org/Graphics/SVG/1.1/DTD/svg11.dtd">
<svg version="1.1" xmlns="http://www.w3.org/2000/svg" xmlns:xlink="http://www.w3.org/1999/xlink" x="0px" y="0px"
	 viewBox="0 0 109.139 68.577" style="enable-background:new 0 0 109.139 68.577;" xml:space="preserve">
<g id="hand_x5F_shake_x5F_big">
	<path style="fill:#F7A13A;" d="M102.51,33.298c-0.799-0.358-1.934,0.296-2.779-0.123c-0.603-0.299,2.381-1.432,2.495-1.766
		c-0.059,0.194-0.145,0.246-0.257,0.157c0.499-0.428,0.091-0.096,0.082-0.108c0.192-0.172,0.062-0.157,0.222-0.46
		c-0.116,0.199-0.242,0.392-0.377,0.579c0.265-0.344-0.521-0.099-0.577-0.445c-0.071,0.326-0.404,0.071-0.561,0.026
		c0.107,0.145,0.14,0.305,0.098,0.481c-0.066-0.16-1.396,0.378-1.159,0.74c-0.837-0.133-0.025-1.426,0.207-1.766
		c0.662-0.971,2.064-1.125,3.05-0.557c1.53,0.88-0.186,3.622-0.678,3.169c0.321,0.114,0.314,0.093-0.021-0.063
		c0.331,0.17,0.34,0.179,0.028,0.027C102.302,33.201,102.507,33.299,102.51,33.298C102.282,33.195,102.601,33.258,102.51,33.298
		c-0.152,0.001-0.245-0.052-0.281-0.159C102.251,33.143,102.568,33.273,102.51,33.298C102.275,33.193,102.639,33.241,102.51,33.298z
		 M109.139,35.365c-2.264,1.361-5.024,1.118-7.465,1.943c0.241,0.005,0.483,0.011,0.724,0.016c-1.867-0.073-3.626,0.376-5.406,0.877
		c-1.567,0.441-1.982-2.376-2.281-3.452c-0.386,0.099-0.743,0.278-1.111,0.425c0.277-0.038,0.555-0.054,0.835-0.046
		c-0.668,0.112-1.225,0.52-1.846,0.76c-0.974,0.375-1.946,0.755-2.924,1.121c-1.591,0.596-3.195,1.233-4.578,2.241
		c2.151,1.666,4.547,4.539,3.167,7.406c-1.233,2.562-3.963,4.329-6.808,4.384c0.084,0.268,0.153,0.539,0.208,0.814
		c-0.254-0.325-0.432,0.849-0.446,0.985c-0.072,0.723,0.201,1.815-0.536,2.288c0.018-0.422,0.199,0.135-0.025,0.482
		c-0.265,0.412-0.671,0.711-0.93,1.128c0.084-0.18,0.169-0.36,0.254-0.54c-0.42,0.768-1.984,1.257-1.567,2.349
		c0.332-0.292,0.618-0.634,0.867-0.999c-0.384,0.557-0.88,1.046-1.477,1.371c-0.665,0.362-1.371,0.254-2.067,0.477
		c-1.188,0.379-1.01,2.157-1.787,3.002c-0.807,0.876-1.466,1.631-2.536,2.159c-1.549,0.764-3.36-0.207-4.872-0.61
		c0.041,0.239-0.07,0.816-0.331,0.297c-0.025,0.16,0.022,0.296,0.138,0.408c-0.154-0.244-0.295-0.495-0.422-0.753
		c0.444,2.335-2.176,3.747-4.126,3.988c-1.489,0.184-2.722-0.667-4.133-0.944c-1.605-0.314-2.924,0.61-4.346,1.177
		c-1.47,0.586-3.038,0.649-4.49-0.023c-0.759-0.351-1.367-0.878-2.023-1.384c-0.609-0.469-1.384-0.082-2.051-0.015
		c-2.345,0.237-5.227-1.15-5.704-3.638c-1.904,1.001-4.495,0.819-6.214-0.485c-0.964-0.731-1.332-1.714-1.801-2.783
		c-0.606-1.382-1.683-1.75-2.974-2.326c-2.39-1.065-2.764-3.614-2.645-5.956c0.062-1.226,0.2-2.13-0.823-2.986
		c-0.26-0.217-2.929-2.591-3.168-2.1c-0.021,0.044,0.326,0.479,0.111-0.029c0.081,0.191,0.125,0.329,0.297,0.476
		c-1.011-0.607-2.063-1.151-3.025-1.837c-0.627-0.448-1.165-1.64-2.086-1.482c0.044,0.013,0.413,0.094,0.407,0.038
		c-0.066-0.628-1.233-0.592-0.986-0.429c-0.92-0.269-1.265-1.664-2.318-1.613c-1.086,0.052-1.291,1.595-1.806,2.294
		c-0.733,0.994-2.039,0.111-2.823-0.331c-1.445-0.815-2.979-1.8-4.615-2.163c0.253,0.078,0.498,0.176,0.735,0.294
		c-1.571-0.995-3.261-1.778-4.917-2.618c1.399,0.192,2.634,0.889,3.941,1.37c0.424,0.156,0.867-0.005,1.303,0.166
		c0.577,0.226,1.113,0.505,1.702,0.705c0.738,0.25,2.701,1.437,3.372,0.843c0.645-0.572,0.903-1.484,1.431-2.153
		c0.748-0.948,1.51-0.931,2.473-0.261c1.185,0.824,2.417,1.577,3.662,2.307c2.908,1.705,5.87,3.314,8.827,4.932
		c-0.401-0.325-0.802-0.649-1.203-0.974c2.756,1.327,5.543,3.287,8.67,3.16c0.601-0.024,1.155-0.516,1.7-0.729
		c0.73-0.285,1.686-0.559,2.474-0.396c1.009,0.208,2.038,1.702,0.906,2.444c-1.09,0.714-2.65,0.277-3.625,1.256
		c-1.072,1.076-1.256,2.947-2.061,4.223c-0.53,0.839-0.308,1.597-0.027,2.462c0.088,0.27,0.699,2.25,1.242,1.758
		c-0.208,0.317,0.465,0.258,0.332,0.357c0.178-0.086,0.319-0.213,0.423-0.381c0.245,0.322,0.241,0.034,0.348,0.572
		c0.1-0.247,0.993,0.004,1.203-0.037c0.686-0.133,0.286-0.374,0.405-0.863c-0.001,0.003,0.402,0.272,0.451,0.275
		c0.078,0.004-0.491-0.609-0.35-0.455c0.051,0.577,0.591-0.593,0.65-0.741c0.537-1.346,1.148-2.646,1.702-3.983
		c0.373-0.9,1.279-2.083,1.18-3.078c-0.094-0.948-0.574-1.924-1.093-2.71c0.345-0.136,1.356,0.127,1.537,0.472
		c0.077,0.146,0.895,0.931,0.847,0.587c0.187,1.578,1.745,1.123,2.859,1.06c1.279-0.073,2.952,1.426,1.315,2.328
		c-1.24,0.683-2.467,0.4-3.366,1.727c-0.666,0.982-0.927,3.288-1.994,3.839c0.356,0.135,0.038,0.623-0.182,0.705
		c0.367,0.548,0.158,1.255,0.463,1.826c0.127,0.238,0.909,1.821,1.289,1.465c-0.215,0.327,0.48,0.233,0.329,0.348
		c0.174-0.091,0.312-0.221,0.415-0.389c0.545,0.731,0.944,0.199,1.81,0.507c-0.476-0.169,1.136-3.995,1.302-4.427
		c0.446-1.159,1.58-1.985,1.932-3.14c0.377-1.239-0.375-2.776-1.035-3.791c0.33-0.134,1.342,0.117,1.513,0.451
		c0.075,0.146,0.888,0.927,0.839,0.566c0.077,0.67,0.316,1.333,0.705,1.885c0.472,0.67,1.272,0.786,1.752,1.368
		c0.823,0.997-1.012,1.999-1.632,2.399c-1.241,0.8-1.791,1.724-2.052,3.159c-0.092,0.506-0.236,1.105-0.11,1.617
		c0.107,0.437,0.908,0.892,0.675,1.395c0.391-0.535-0.063,0.226,0.216-0.098c-0.026,0.121-0.029,0.568,0.22,0.264
		c-0.103,0.218,0.164,0.334,0.285,0.164c-0.043,0.06-0.394,0.242-0.088,0.287c0.229,0.034,0.077-0.562,0.286-0.534
		c0.134,0.018,0.385,0.44,0.229,0.415c0.553,0.089,1.524-0.028,1.007-0.805c0.443,1.184,1.647-1.064,1.237-1.533
		c0.298,0.247,0.285-0.199,0.293-0.346c0.064,0.163-0.009,0.918,0.351,0.532c-0.694-0.38,0.341-1.435,0.614-1.763
		c-0.175,0.069-0.353,0.13-0.533,0.183c0.006-0.222,0.058-0.433,0.155-0.633c-0.16-0.036-0.508,0.043-0.585-0.173
		c-0.008-0.021,0.39-0.238,0.398-0.347c-0.117-0.095-0.23-0.091-0.341,0.012c0.002-0.502,0.649-1.953,0.183-2.353
		c-0.284-0.243-0.017-0.989-0.402-1.405c0.313-0.162,0.62,0.042,0.901,0.163c0.542,0.234,0.209-0.501,0.437-0.545
		c0.176-0.034,1.765-0.619,1.761-0.362c-0.104-0.674,1.229,0.035,1.18-0.377c0.365,1.21,2.075,1.108,2.739,2.031
		c0.429,0.597,1.191,0.843,1.701,1.356c0.666,0.67,1.449,1.278,2.296,1.701c-1.31-0.566-2.787-0.766-3.996-1.551
		c-1.116-0.725-1.957-1.316-3.312-0.933c-1.396,0.394-1.507,0.918-0.954,2.206c0.244,0.568,0.438,1.133,0.511,1.9
		c0.157,1.647,3.529,2.261,4.86,2.131c1.286-0.125,2.071-1.397,2.697-2.4c0.837-1.339-0.116-1.896-0.751-3.005
		c0.29,0.506,0.386,1.157,0.893,1.515c0.568,0.402,0.961-0.444,1.399-0.639c0.551-0.245,1.035,0.471,1.39,0.76
		c0.681,0.555,1.52,0.975,2.411,1.012c1.402,0.059,2.832-1.192,2.598-2.667c-0.102-0.645-0.536-1.171-0.949-1.649
		c-0.484-0.56,0.135-1.262,0.486-1.693c-2.037-0.941-4.045-1.946-6.121-2.802c-1.783-0.735-3.893-1.076-5.551-2.077
		c-0.624-0.377-0.849-0.929-0.49-1.602c0.438-0.82,0.849-1.318,1.689-0.815c0.231,0.139,2.375,1.485,2.45,1.294
		c-0.16,0.781,1.435,1.242,1.934,1.488c1.422,0.703,2.46,1.949,3.747,2.846c-0.24-0.424,0.249,0.367,0.406,0.484
		c0.43,0.319,0.921,0.661,1.41,0.882c0.943,0.427,1.184-0.983,2.222-0.492c0.932,0.441,1.491,1.184,2.646,0.937
		c1.025-0.219,1.733-1.095,2.179-1.988c0.758-1.518,0.819-3.422-0.744-4.425c-0.966-0.619-3.067-1.502-2.068-2.963
		c-2.582-1.242-5.364-2.018-7.903-3.356c-1.137-0.599-2.31-1.3-2.953-2.459c-0.324-0.584-1.055-1.962-0.021-2.273
		c0.808-0.243,1.872,0.129,2.314,0.842c0.711,1.147,1.742,2.012,2.806,2.842c0.925,0.722,1.947,1.463,2.959,2.056
		c0.322,0.189,0.647,0.371,0.961,0.573c0.135,0.087,0.943,0.835,0.365,0.453c0.794-0.045,2.284,1.597,2.944,1.978
		c-0.412-0.324-0.825-0.647-1.237-0.971c1.088-1.372,2.847-0.134,3.934,0.563c1.47,0.943,3.568,1.05,4.93-0.151
		c3.191-2.811-2.121-6.074-4.191-7.35c-1.73-1.066-3.516-2.04-5.237-3.121c-1.846-1.159-3.553-2.53-5.44-3.626
		c-3.481-2.022-7.597-2.827-10.581-5.68c-1.167-1.115-1.544-2.477-2.363-3.81c-0.986-1.605-2.89-1.949-4.627-1.53
		c-1.535,0.371-2.994,0.845-3.004,2.615c-0.01,1.756-0.945,3.417-1.992,4.781c-1.921,2.504-4.793,4.652-7.911,5.353
		c-2.968,0.667-6.064-0.501-5.934-4.025c0.073-1.988,1.082-3.917,1.907-5.684c0.957-2.051,1.997-4.063,2.872-6.152
		c-1.182,0.269-2.34,0.63-3.494,0.997c-1.091,0.347-2.391,0.996-3.559,0.822c-1.774-0.264-3.335-1.858-4.729-2.882
		c-0.331-0.243-1.183-1.045-1.637-0.705c-0.573,0.428-0.629,1.546-0.8,2.18c-0.091,0.338-1.051,2.918-0.723,2.973
		c-1.062,0.072-0.879,1.985-0.988,2.688c-0.127,0.823-2.067,3.107-1.416,3.864c-0.455-0.274-0.613,0.405-0.811,0.678
		c-0.454,0.626-0.297,0.798,0.094,1.391c-0.043-0.066-0.438-0.121-0.517-0.095c-0.018,0.006,0.449,0.366,0.503,0.4
		c-0.674-0.418-0.636,0.793-0.773,1.151c-0.209,0.547-1.491,1.169-0.944,1.863c-0.22-0.336-0.345,0.194-0.39,0.31
		c-0.022-0.248,0.023-0.483,0.133-0.706c-0.359-0.136-0.645,0.722-0.305,0.863c-0.084,0.027-0.624,0.301-0.314,0.065
		c-0.414,0.018-0.544,0.534-0.869,0.706c0.189,0.001,0.377,0.01,0.565,0.027c-0.095,0.222-0.235,0.41-0.421,0.563
		c0.129,0.112,0.275,0.193,0.438,0.244c-0.501,0.278-0.206,0.476-0.367,0.799c-0.156,0.311-0.855,0.498-1.116,0.763
		c-0.347,0.353-0.623,0.762-1.097,0.956c-0.55,0.226-0.975-0.235-0.701-0.24c-0.737-0.098,0.023-1.197,0.233-1.466
		c0.595-0.762,0.565-1.116,0.445-1.933c-0.176-1.198,0.937-2.886,1.436-3.917c0.939-1.939,1.758-3.945,2.562-5.943
		c1.002-2.489,1.545-5.322,2.891-7.648c0.312-0.54,0.998-1.504,0.635-2.158c-0.516-0.93-1.768-1.274-2.694-1.615
		c-0.939-0.346-1.639-1.06-2.452-1.62c-1.011-0.696-1.455-0.336-1.864,0.676c-0.803,1.99-1.172,4.244-2.395,6.031
		c-0.761,1.112-0.793,2.48-1.525,3.589c-0.171,0.258-1.168,1.418-0.787,1.718c-0.528-0.185-1.059,1.65-0.876,1.961
		c-0.681-0.537-2.302,2.375-1.091,2.439c-0.049-0.003-0.347-0.154-0.356-0.033c0.049,0.147,0.134,0.27,0.254,0.368
		c-0.473-0.614-0.989,0.934-1.079,1.22c-0.224,0.71-1.725,1.443-1.228,2.308c-0.155-0.373-0.404,0.248-0.458,0.358
		c-0.001-0.305,0.087-0.582,0.264-0.83c-0.475-0.16-0.491,0.72-0.647,0.942c-0.198,0.284-0.853,0.778-1.182,0.954
		c0.193,0.007,0.386,0.021,0.578,0.043c-0.156,0.234-0.278,0.511-0.536,0.656c0.111,0.133,0.247,0.231,0.408,0.296
		c-0.029,0.067-0.675,0.686-0.351,0.616c-0.433,0.669-1.199,0.978-1.786,1.479c-0.257,0.219-0.374,0.557-0.658,0.75
		c-0.36,0.243-0.812,0.191-1.191,0.385c-0.091-0.369-0.153-0.89,0.043-1.236c0.046-0.081,0.47-0.771,0.102-0.613
		c1.074-0.31,1.196-1.638,1.482-2.532c-0.479,0.146,0.084-1.074,0.164-1.222c0.627-1.16,1.339-2.271,1.979-3.423
		c1.456-2.62,2.708-5.346,4.113-7.993c1.399-2.634,2.644-5.363,3.754-8.131c0.413-1.03,0.813-2.113,1.588-2.937
		c0.347-0.369,0.874-0.426,1.288-0.684c0.607-0.378,1.138-0.892,1.824-1.134c-0.155,0.506-0.47,1.322,0.224,1.584
		c0.867,0.327,1.716,0.705,2.519,1.169c1.94,1.119,3.852,2.27,5.821,3.34c1.639,0.891,3.163,1.839,4.719,2.854
		c1.695,1.106,3.274-0.536,4.988-0.874c1.326-0.261,2.578-0.783,3.921-0.931c2.063-0.227,3.812-0.937,5.588-2.006
		c1.505-0.906,2.978-1.875,4.333-2.994c1.157-0.956,2.56-2.221,4.162-2.205c0.609,0.006,2.365,0.15,2.28,1.085
		c-0.125,1.366-2.573,2.273-3.59,2.762c-1.612,0.775-3.004,1.832-4.432,2.899c-1.593,1.191-3.424,2.085-4.957,3.338
		c-1.363,1.113-2.013,2.521-2.638,4.125c-0.023,0.059-1.176,3.489-1.089,3.468c-0.569,0.417-0.661,1.16-0.853,1.786
		c-0.244,0.797-0.826,1.44-1.148,2.206c-0.742,1.767,0.228,2.295,1.775,1.721c0.948-0.351,1.725-0.909,2.584-1.429
		c0.829-0.502,1.688-0.479,2.455-1.112c0.243-0.201,2.854-3.323,2.299-3.533c-0.128,0.087-0.171,0.206-0.129,0.355
		c-0.12-0.482,0.462-0.878,0.208-1.356c0.631,0.356,0.143-1.494,0.145-1.711c0.152-0.046,0.238,0.01,0.257,0.168
		c-0.848-3.221,3.249-2.275,5.007-3.523c-0.496-0.199,0.3-0.877,0.565-0.904c-0.099,0.073-0.104,0.151-0.012,0.233
		c0.335-0.251,0.668-0.57,1.113-0.603c-0.431,0.08,1.693,0.728,1.767,0.738c1.48,0.21,3.498,0.35,4.652,1.422
		c0.996,0.925,0.532,2.478,1.111,3.607c0.649,1.265,1.986,2.079,3.157,2.797c-0.812-0.128-1.394-0.76-1.964-1.293
		c-0.412,0.481,2.915,2.279,3.308,2.547c-0.106-0.072-0.214-0.167-0.327-0.226c0.977,0.501,1.769,1.279,2.7,1.852
		c-0.137-0.235-0.267-0.474-0.39-0.717c0.671,0.3,1.327,1.037,2.135,0.766c0.827-0.278,1.608,0.39,2.439,0.191
		c-0.101-0.029-0.433-0.267,0.02-0.05c-0.52-0.111,1.148-0.027,1.375-0.005c0.92,0.09,1.858,0.013,2.736-0.284
		c1.493-0.505,2.584-1.66,3.879-2.501c0.024,0.15-0.037,0.244-0.185,0.281c0.74-0.478,1.314-1.158,1.896-1.809
		c-0.153,2.198-2.063,3.615-3.451,5.096c0.194-0.075,0.385-0.157,0.573-0.246c-1.483,0.614-2.917,1.383-4.494,1.735
		c1.786,1.247,3.725,2.253,5.53,3.472c1.29,0.871,3.014,2.717,4.653,1.483c-0.248,0.387-0.653,0.618-0.99,0.915
		c0.522,0.321,1.023-0.384,1.32-0.701c0.597-0.636,1.384-1.06,2.203-1.336c-0.071,0.035-0.619,0.414-0.66,0.351
		c0.183,0.42,1.204-0.545,1.388-0.665c0.999-0.652,2.238-0.548,3.364-0.748c-0.34-0.067-0.68-0.133-1.02-0.2
		c0.795-0.261,1.64-0.388,2.395-0.765c0.718-0.359,1.255-0.975,2.014-1.27c0.564-0.219,2.447-0.943,2.65,0.079
		c-0.028-0.469,0.068-0.175,0.108,0c0.013-0.26-0.033-0.509-0.139-0.747c0.391,1.139,0.609,2.325,0.904,3.49
		c0.266,1.052,1.346,0.846,2.169,0.742c1.229-0.156,2.474-0.369,3.715-0.386c1-0.013,2.163,0.174,3.108-0.239
		c-0.967,0.359,0.725,0.486,1.055,0.452C107.876,35.58,108.496,35.366,109.139,35.365c-0.061,0.037-0.672,0.269-0.667,0.117
		C108.478,35.254,109.018,35.365,109.139,35.365c-0.133,0.08-0.467,0.261-0.605,0.079C108.59,35.518,109.035,35.365,109.139,35.365
		c-0.073,0.044-0.727,0.187-0.713,0.144C108.504,35.282,108.974,35.365,109.139,35.365c-0.134,0.08-1.289,0.559-1.289,0.562
		C107.883,35.502,108.826,35.365,109.139,35.365c-0.061,0.037-1.204,0.764-1.302,0.588
		C107.684,35.676,109.009,35.365,109.139,35.365C106.875,36.726,108.009,35.367,109.139,35.365z M59.385,22.881
		c-0.22-0.14-0.44-0.28-0.66-0.421C58.83,22.559,59.224,22.951,59.385,22.881C59.211,22.739,59.265,22.91,59.385,22.881
		C59.152,22.734,59.29,22.904,59.385,22.881C59.164,22.742,59.269,22.909,59.385,22.881z M33.066,51.217
		c-0.026-0.079-0.051-0.158-0.077-0.237c-0.028,0.182-0.064,0.363-0.108,0.542c-0.171-0.09-0.304-0.218-0.4-0.385
		c-0.104,0.133-0.182,0.28-0.236,0.44c-0.336-0.407-0.883-0.533-1.214-0.954c-0.393-0.5-0.882-0.915-1.554-0.664
		c0.526,0.988-0.768,1.752-0.834,2.682c-0.014,0.199-0.06,1.929,0.432,1.563c-0.204,1.194,1.589,0.865,2.127,0.417
		C32.003,53.956,32.619,52.026,33.066,51.217C33.041,51.138,32.998,51.341,33.066,51.217z M56.364,9.308
		c-0.054-0.019-0.108-0.038-0.163-0.057c0.585-0.199,1.978,1.012,2.492,1.265c0.176,0.087,1.794,0.984,2.046,0.792
		c-0.043-0.059-0.102-0.099-0.177-0.12c0.049,0.015,0.285,0.118,0.111-0.043c0.454-0.153,0.76,0.34,1.198,0.318
		c-0.022-0.762,1.007-0.27,1.386-0.224c-0.094-0.187-0.193-0.371-0.298-0.552c0.413,0.225,0.83,0.476,1.308,0.531
		c0.096,0.011,0.605,0.097,0.182,0.072c0.567,0.241,1.995-0.524,2.24,0.336c-0.43-0.019-0.893-0.126-1.297,0.094
		c0.095,0.003,0.87,0.213,0.781,0.277c0.964-0.851,2.479,0.017,3.549,0.134c0.833,0.091,1.668,0.11,2.491,0.302
		c0.891,0.208,0.981-0.747,1.868-0.841c0.561-0.06,3.313-0.434,3.328-0.102c0.161-0.361,0.674-0.134,0.827-0.509
		c-0.057,0.107-0.019-0.233,0.189-0.298c-0.168,0.265,0.321,0.293,0.366,0.104c0.045-0.187,0.478-0.648,0.541-0.208
		c0.182-0.519,1.059-0.557,1.5-0.613c0.97-0.124,1.949-0.419,2.852-0.789c0.725-0.297,4.487-2.701,5-1.616
		c0.341,0.72,0.312,1.735,0.446,2.514c0.199,1.156,0.513,2.284,0.73,3.436c0.423,2.242,0.617,4.528,1.208,6.737
		c-0.112,0.116-0.644-0.294-0.78-0.318c0.134,0.301-0.216-0.033-0.326,0.11c-0.003,0.155,0.053,0.285,0.167,0.39
		c-0.071-0.154-0.158-0.192-0.261-0.113c-0.055,0.138,0.028,0.385,0.133,0.481c-0.178-0.127-1.1-0.589-1.005-0.032
		c-0.046-0.165-0.002-0.301,0.133-0.407c-0.142,0.129-0.229,0.099-0.259-0.09c-0.247,0.335-0.749-0.013-0.976,0.349
		c-0.12,0.191-0.646,0.634-0.664,0.111c0.398,1.658-7.745,2.831-7.336,3.962c2.249-0.504,4.485-1.078,6.759-1.467
		c1.073-0.183,2.1-0.62,3.199-0.644c0.186-0.004,1.311-0.052,0.937-0.454c0.253-0.065,0.489-0.168,0.709-0.309
		c0.158,0.292,0.051,0.71-0.06,0.998c-0.048,0.126-0.909-0.013-0.285,0.436c-0.071-0.154-0.158-0.192-0.261-0.113
		c-0.055,0.138,0.028,0.385,0.133,0.481c-0.178-0.127-1.1-0.589-1.005-0.032c-0.046-0.165-0.002-0.301,0.133-0.407
		c-0.142,0.129-0.229,0.099-0.259-0.09c-0.247,0.335-0.749-0.013-0.976,0.349c-0.12,0.191-0.646,0.634-0.663,0.11
		c0.403,1.678-7.75,2.803-7.336,3.962c2.25-0.504,4.485-1.078,6.759-1.467c1.073-0.183,2.1-0.62,3.199-0.644
		c0.186-0.004,1.311-0.052,0.937-0.454c-0.675,0.422,0.492,2.217,0.755,2.644c0.346,0.563,0.814,1.222,0.577,1.921
		c-0.072,0.211-0.105,1.439,0.56,1.13c-0.162,0.107-0.043,0.48,0.176,0.394c0.457-0.18,0.665-0.625,0.829-1.051
		c0.288-0.749,0.659-1.631,0.611-2.45c-0.105,0.115-0.22,0.125-0.343,0.031c-0.02-0.503,0.692-0.443-0.231-0.579
		c0.071-0.23,0.088-0.464,0.052-0.701c-0.168,0.087-0.332,0.18-0.491,0.281c0.048-0.152,0.307-0.957,0.252-0.899
		c-0.063,0.087,0.285-0.396,0.326-0.408c-0.338,0.094-0.572-0.792-0.202-0.87c0.039,0.242,0.128,0.465,0.268,0.667
		c-0.028-0.142-0.177-0.623,0.162-0.471c-0.408-0.142-0.179-1.864-0.272-1.864c0.276-0.363-1.013-1.806,0.088-1.601
		c-0.945,0.542-0.081-0.306-0.086-0.246c-0.421-0.334-0.803-0.337-0.83-0.967c-0.014-0.335-0.333-1.165,0.27-1.181
		c-0.584-0.177-0.582-1.621-0.619-2.03c-0.099-1.079-0.315-1.853-0.738-2.835c-0.157-0.365-0.314-0.745-0.372-1.14
		c-0.015-0.102,0.135-0.914,0.211-0.825c-0.307-0.358-0.403-1.088-0.535-1.524c-0.315-1.041-1.326-3.145-0.714-4.202
		c0.543-0.938,1.864-1.123,2.811-1.368c1.264-0.327,2.563-0.681,3.606-1.505c0.927,2.171,1.151,4.554,1.943,6.769
		c0.376,1.051,0.937,2.034,1.208,3.122c0.301,1.205,0.541,2.423,0.852,3.626c0.599,2.319,1.465,4.559,2.041,6.884
		c0.301,1.216,0.447,2.464,0.754,3.678c0.043,0.17,0.473,1.512,0.736,1.059c0.397,0.85,1.212,1.906,0.635,2.864
		c0.173-0.391,0.294,0.235,0.32,0.352c0.092,0.405,0.402,0.971,0.831,1.102c0.503-1.384,1.152-2.883,0.888-4.389
		c0.035,0.54-0.132-0.267-0.117-0.484c-0.486-0.225-0.519-0.504-0.598-0.991c-0.156,0.115-0.307,0.235-0.453,0.362
		c0.128-0.371-0.216-2.514,0.051-2.634c0.068,0.28,0.125,0.599,0.37,0.788c-0.034-0.116-0.272-0.74,0.093-0.574
		c-0.564-0.175-0.212-2.242-0.555-2.227c0.247-0.497-0.607-0.511-0.581-0.958c0.385-0.277-0.235-0.96,0.435-0.97
		c-0.06,0.001-0.59-0.044-0.587-0.047c0.136-0.073,0.274-0.143,0.414-0.209c-0.44,0.499-2.005-2.497-0.846-2.589
		c-0.368-0.11-1.136-1.839-0.691-2.033c-0.774,0.062-1.325-2.893-1.467-3.439c-0.241-0.928-0.213-2.268-0.665-3.077
		c-0.69-1.235-1.113-2.647-1.514-3.997c-0.423-1.423-0.725-5.657-2.987-5.256c-1.064,0.188-1.996,0.936-3.032,1.253
		c-1.451,0.444-2.888,0.932-4.299,1.49c-2.624,1.037-5.05,2.398-7.765,3.21c-2.794,0.835-5.549,2.005-8.399,2.612
		c-2.998,0.639-5.935,0.394-8.953,0.067c-0.943-0.102-1.886-0.214-2.836-0.188c-0.13,0.004-1.612,0.078-1.138,0.371
		c-0.827,0.026-1.638-0.242-2.467-0.158c-0.587,0.027-1.228-0.087-1.671-0.505c0.302,0.263-0.489,0.192-0.604,0.143
		c-0.509-0.219-1.217-0.309-1.726-0.039C55.796,8.59,56.3,9.216,56.364,9.308C56.31,9.289,56.266,9.167,56.364,9.308z M5.582,38.459
		c0.23-0.44,0.021-1.119,0.635-1.293c0.412-0.116,0.907-0.072,1.052-0.582c-0.132,0.368,0.431,0.346,0.624,0.293
		c0.362-0.1,0.494,0.357,0.814,0.402c-0.208,0.109,0.016,0.105,0.044,0.225c-0.01-0.126-0.075-0.171-0.194-0.135
		c0.16,0.231,0.247,0.487,0.262,0.768c0.178-0.263,0.227,0.021,0.456-0.114c0.084,0.572-0.146,1.23-0.847,1.057
		c0.234,0.208,0.9,0.48,0.825,0.884c-0.118,0.639-1.379,0.444-1.789,0.393c-0.734-0.091-2.544-1.32-1.763-2.19
		C5.652,38.261,5.613,38.358,5.582,38.459c0.155-0.296,0.099,0.07,0.066-0.159C5.645,38.278,5.481,38.496,5.582,38.459
		C5.769,38.101,5.432,38.514,5.582,38.459z M8.41,39.058C8.396,39.057,8.407,39.058,8.41,39.058
		C8.41,39.058,8.409,39.058,8.41,39.058z M8.149,38.898c0.083,0.027,0.166,0.054,0.249,0.081c-0.18-0.072-0.374-0.12-0.547-0.209
		C7.813,38.75,8.247,38.944,8.149,38.898C8.232,38.925,8.146,38.897,8.149,38.898z M7.391,38.503
		c0.283,0.096,0.396,0.424,0.735,0.396c-0.275-0.054-0.946-0.8-0.665-0.363c0.002,0.003-0.139-0.063-0.124-0.073
		c0.077-0.02,0.058-0.018-0.056,0.006C7.314,38.481,7.642,38.569,7.391,38.503C7.684,38.603,7.248,38.466,7.391,38.503z"/>
</g>
<g id="Layer_1">
</g>
</svg>
