<?xml version="1.0" encoding="iso-8859-1"?>
<!-- Generator: Adobe Illustrator 17.1.0, SVG Export Plug-In . SVG Version: 6.00 Build 0)  -->
<!DOCTYPE svg PUBLIC "-//W3C//DTD SVG 1.1//EN" "http://www.w3.org/Graphics/SVG/1.1/DTD/svg11.dtd">
<svg version="1.1" xmlns="http://www.w3.org/2000/svg" xmlns:xlink="http://www.w3.org/1999/xlink" x="0px" y="0px"
	 viewBox="0 0 74.558 53.432" style="enable-background:new 0 0 74.558 53.432;" xml:space="preserve">
<g id="helmet">
	<path style="fill:#F7A13A;" d="M69.263,6.268C69.149,6.101,69.195,6.163,69.263,6.268C69.244,6.241,69.263,6.268,69.263,6.268z
		 M67.794,12.282c-0.008,0.014-0.012,0.021-0.019,0.034C67.793,12.318,67.807,12.332,67.794,12.282z M65.207,17.441
		C65.199,17.436,65.026,17.448,65.207,17.441C65.188,17.43,65.207,17.441,65.207,17.441z M60.443,22.409
		c-0.079,0.077-0.715,0.621-0.67,0.691C60.037,22.938,60.383,22.639,60.443,22.409z M74.528,13.566
		c-0.222,0.718-0.146,1.504-0.252,2.243c-0.139,0.97-0.375,1.934-0.596,2.888c-0.461,1.989-1.189,3.925-2.04,5.779
		c-1.616,3.518-4.02,6.574-6.867,9.176c-1.252,1.144-2.632,2.022-3.985,3.032c-0.509,0.38-1.169,0.832-1.57,1.332
		c-0.328,0.409-0.008,1.463,0.03,1.937c0.047,0.58,0.831,0.559,1.224,0.836c0.525,0.37,0.849,0.931,1.01,1.544
		c0.339,1.284,0.089,2.627,0.12,3.933c0.061-0.363,0.121-0.727,0.182-1.09c0.24,2.851,1.178,7.665-2.724,8.162
		c-1.544,0.196-3.161,0.032-4.71,0.005c-2.398-0.043-4.796-0.071-7.195-0.095c-9.15-0.093-18.291-0.024-27.44,0.015
		c-2.841,0.012-6.401,0.758-6.988-2.952c-0.231-1.461,0.005-3.005-0.069-4.486c-0.09-1.79-0.396-4.295,1.427-5.361
		c0.554-0.324,1.062-0.196,1.097-0.95c0.036-0.775,0.422-1.188-0.344-1.678c-1.714-1.097-3.332-2.426-4.875-3.75
		c-2.924-2.508-5.278-5.605-7.011-9.042C-0.46,18.272-0.986,10.331,1.75,3.203c0.583-1.52,1.485-3.296,3.393-3.171
		c1.872,0.122,2.569,1.724,2.525,3.373c-0.106,3.99,0.54,7.492,2.463,11.045c1.719,3.176,4.407,6.415,7.445,8.365
		c1.475,0.947,3.278,2.332,4.987,2.787c0.411,0.109,1.119-0.788,1.438-0.994c0.923-0.596,1.822-1.185,2.815-1.662
		c0.854-0.411,1.734-0.766,2.626-1.086c0.946-0.339,1.188-0.23,1.462-1.223c0.587-2.129,3.184-2.017,4.951-1.999
		c1.706,0.017,3.503-0.046,5.198,0.158c0.619,0.075,1.249,0.241,1.752,0.626c0.684,0.524,0.647,1.47,1.248,1.97
		c0.56,0.466,1.444,0.662,2.115,0.905c0.956,0.347,1.858,0.872,2.727,1.395c1.033,0.622,2.443,2.514,3.632,1.823
		c-0.258,0.061-0.515,0.123-0.773,0.184c1.62-1.268,3.578-2.015,5.23-3.249c1.83-1.366,3.536-2.785,4.947-4.595
		c2.521-3.232,4.372-7.042,4.701-11.171c0.127-1.595-0.397-3.563,0.218-5.067c0.833-2.038,3.229-2.067,4.543-0.556
		c1.372,1.577,1.875,4.091,2.289,6.084c0.12,0.576,1.129,6.408,0.817,6.473c-0.063,0.013-0.091-0.685-0.068-0.762
		C74.404,12.943,74.523,13.5,74.528,13.566C74.359,14.116,74.372,11.763,74.528,13.566z M59.123,42.177
		c-0.366-0.035-0.746,0.021-1.113,0.026c-0.365,0.005-1.361-0.393-0.688-0.226c-0.165-0.021-0.997,0.039-1.07-0.112
		c0.079,0.038,0.16,0.069,0.244,0.095c-0.213-0.267-1.787-0.229-2.033-0.233c-1.417-0.022-2.773-0.088-4.182-0.248
		c-0.82-0.093-1.627-0.043-2.448-0.041c-0.659,0.002-1.252-0.344-2.013-0.231c0.188-0.004,0.376,0.001,0.564,0.013
		c-0.849-0.187-1.715-0.282-2.577-0.382c-0.828-0.096-0.957,0.027-1.473,0.623c-0.354-1.583-0.603-2.971-0.595-4.574
		c0.015-2.906,0.05-5.862-0.047-8.764c-0.047-1.42-0.145-2.839-0.171-4.26c-0.012-0.7,0.241-1.642-0.194-2.413
		c-0.417-0.739-2.257-0.375-2.892-0.371c-0.734,0.005-1.468,0.006-2.202-0.006c-0.367-0.005-0.734-0.014-1.1-0.027
		c-0.14-0.005-1.322,0.162-0.945-0.106c-0.176,0.058-0.356,0.099-0.54,0.125c0.349-0.245-0.118-0.1-0.299-0.06
		c-0.462,0.102-0.253,0.378-0.261,0.71c-0.015,0.631-0.205,1.154-0.161,1.789c0.18,2.578-0.138,5.167,0.125,7.741
		c-0.087-0.603-0.349,1.054,0.102,0.327c-0.048,0.175-0.174,1.702-0.06,1.75c-0.028-0.195-0.124,0.89-0.151,1.106
		c0.351-0.15,0.141,0.736,0.128,0.912c-0.056,0.771-0.017,1.539-0.009,2.311c0.016,1.406-0.134,2.834,0.024,4.243
		c0.143,1.271-2.321,0.752-3.192,0.771c-1.805,0.038-3.611,0.072-5.417,0.092c-1.707,0.019-3.414,0.053-5.118-0.065
		c-0.552-0.038-3.942-0.511-4.208,0.062c-0.509,1.097-0.111,3.011-0.131,4.206c-0.075-0.417-0.019,0.807,0.085,1.027
		c-0.386-0.346-0.202,0.928-0.182,1.177c0.01,0.121,0.143,1.226,0.175,0.648c-0.025,0.245-0.033,0.87-0.133,0.769
		c0.056,0.131,0.143,0.232,0.264,0.3c0.217-0.178,0.215-0.236-0.005-0.174c0.706-0.256,1.491,0.335,2.175-0.057
		c-0.395,0.296,1.429,0.632,0.929,0.169c0.353,0.058,0.709,0.166,1.069,0.179c0.252,0.009,0.621-0.108,0.873-0.059
		c-0.371,0.149-0.267,0.183,0.313,0.102c0.515,0,1.029,0.006,1.544,0.013c0.843,0.011,1.687,0.025,2.53,0.011
		c1.321-0.022,3.045,0.213,4.723,0.003c-0.469-0.094,0.096-0.185,0.298-0.321c0.29-0.195,0.752-0.21,1.084-0.171
		c-0.126-0.001-0.169,0.03-0.132,0.094c0.329,0.064,0.826-0.053,1.145-0.143c-0.082,0.003-0.127,0.038-0.136,0.106
		c0.179,0.311,1.437,0.246,1.751,0.247c1.333,0.005,2.611,0.062,3.948-0.028c1.595-0.107,3.221-0.048,4.815,0.038
		c0.791,0.043,1.581,0.087,2.373,0.103c0.315,0.007,0.63,0.008,0.946,0.003c0.027,0,1.419,0.096,0.694-0.098
		c1.801,0.094,3.812,0.614,5.57-0.001c-0.354,0.064,0.433,0.192,0.495,0.2c0.657,0.088,1.341-0.012,2.003-0.012
		c-1.344,0.287-2.744,0.085-4.104,0.099c0,0.386,3.604,0.237,4.079,0.196c1.099-0.096,1.964-0.097,3.067,0.002
		c-0.278-0.001-0.556-0.002-0.833-0.003c0.791,0.139,2.026,0.222,2.826,0.13c0.819-0.094,0.926-1.253,0.995-1.862
		c-0.1,0.27-0.462,0.654-0.419,0.954c0.26-0.968-0.006-2.042,0.149-2.951c0.099-0.581-0.388-1.024-0.357-1.5
		c0.027-0.407,0.511-3.3,0.115-3.44c0.065,0.321-0.007-0.332-0.092,0.272C59.642,42.556,59.517,42.275,59.123,42.177
		C58.681,42.135,59.21,42.199,59.123,42.177z M23.842,27.853c-0.013-0.008-1.772,1.797-1.91,1.941
		c0.154-0.281-0.375,0.427-0.404,0.658c-0.127-0.377-0.454,0.265-0.605,0.469c-0.069,0.093-0.49,0.971-0.211,0.618
		c-0.217,0.269-0.451,0.519-0.607,0.831c0.191-0.597-0.628,0.562-0.306,0.884c-0.043-0.021,0.174-0.429,0.182-0.494
		c-0.258,0.705-0.752,1.331-0.887,2.08c-0.081-0.513-0.982,0.773-0.4,0.581c-0.143,0.223-0.309,0.436-0.429,0.673
		c-0.099,0.197-0.065,0.477-0.174,0.654c-0.128-0.405-0.333,0.963-0.386,1.189c-0.174,0.743-0.338,1.49-0.444,2.246
		c4.5,0.114,9.005,0.288,13.505,0.095c-0.257-5.405-0.146-10.878-0.077-16.288c-1.246,0.527-2.551,0.93-3.738,1.59
		c-0.645,0.359-1.186,0.828-1.737,1.312c-0.209,0.188-0.426,0.365-0.652,0.533c0.048-0.035-1.062,0.662-0.571,0.443
		C24.065,27.775,24.015,27.769,23.842,27.853C23.98,27.942,24.163,27.71,23.842,27.853z M44.093,24.057
		c-0.087-0.046-0.174-0.092-0.26-0.138c0.017,2.923-0.3,5.833-0.189,8.757c0.1,2.645,0.333,5.386-0.568,7.93
		c0.783-0.056,1.594-0.189,2.371-0.003c0.088,0.047,0.783-0.093,0.497-0.19c1.749,0.181,3.786,0.016,5.537-0.144
		c-0.277-0.037-0.555-0.074-0.832-0.111c1.005,0.145,2.02,0.199,3.033,0.241c0.503,0.021,0.99,0.022,1.491-0.024
		c0.33-0.036,0.66-0.06,0.992-0.073c0.533-0.025,0.638-0.006,0.315,0.055c0.241-0.011,0.481-0.02,0.722-0.028
		c-0.544-2.047-0.85-3.835-1.561-5.543c-0.845-2.03-2.13-3.842-3.478-5.565c0.041,0.019-0.283-0.346-0.504-0.54
		c-0.569-0.5-1.125-0.912-1.636-1.484c-0.572-0.638-1.59-1.083-2.303-1.567c-1.028-0.697-2.118-1.365-3.361-1.583
		c0.52,0.084-0.378-0.199-0.39-0.204C44.01,23.912,44.052,23.984,44.093,24.057C44.007,24.01,44.052,23.984,44.093,24.057z
		 M15.886,36.082c0.137-0.458,0.571-1.054,0.449-1.552c-0.069-0.279-1.209-1.028-1.482-1.073c0.169-0.103-0.894-0.679-0.656-0.614
		c-0.051-0.021-0.893-0.308-0.292-0.081c-0.567-0.08-0.774-0.551-0.934-0.919c-0.002,0.007-0.889-0.795-1.197-1.056
		c-0.77-0.653-1.155-1.38-2.017-1.636c0.082,0.019-0.444-1.01-0.548-1.135c-0.37-0.635-1.015-1.155-1.407-1.833
		c-0.62-1.073-1.223-2.018-1.741-3.076c0.211,0.298,0.357,0.928,0.737,1.063c-0.263-0.496-0.47-1.032-0.842-1.461
		c0.054-0.051-0.298-0.974-0.005-0.317c-0.113-0.585-0.454-1.103-0.454-1.714c-0.028,0.141-0.076,0.275-0.144,0.401
		c-0.115-0.342-0.07-0.853-0.344-1.126c-0.382-0.381-0.198-0.817-0.484-1.294c-0.024,0.265-0.097-0.32-0.043,0.164
		c-0.118-0.512-0.121-1.065-0.082-1.584c-0.009-0.001-0.025-2.056-0.03-2.454c-0.008-0.642,0.202-1.063,0.351-1.824
		c0.238,0.399,0.277,0.857,0.287,1.31c0.004,0.178,0.029,1.797,0.212,1.102c-0.334,1.308,0.35,2.836,0.806,4.037
		c0.041-0.817,0.277,0.157,0.368,0.374c0.213,0.51,0.381,1.037,0.574,1.554c0.39,1.047,0.91,2.043,1.488,2.998
		c1.155,1.909,2.526,3.683,4.172,5.194c0.758,0.696,1.54,1.375,2.32,2.046c0.437,0.376,0.891,0.736,1.38,1.043
		c0.719,0.451,0.725,0.479,1.109-0.242c0.975-1.83,2.163-3.391,3.552-4.923c-1.615-0.792-3.207-1.666-4.591-2.827
		c0.274,0.068-0.189-0.119-0.267-0.124c0.019,0.001-0.757-0.604-0.971-0.695c-0.544-0.233-1.078-0.736-1.385-1.228
		c-0.364-0.583-1.537-1.36-2.102-2.043c-0.724-0.876-1.384-1.807-2.178-2.623c0.304,0.285-0.193-0.793-0.235-0.147
		c-0.208-0.699-0.696-1.336-0.955-2.008c-0.186,0.2-1.167-2.157-1.318-2.517c-0.589-1.401-0.923-2.912-1.216-4.399
		C5.511,7.53,5.277,6.173,5.214,4.833c-0.02-0.412,0.233-2.146-0.305-2.467C4.82,2.314,3.178,6.661,3.023,7.149
		C3.034,6.84,2.85,7.655,2.929,7.873C2.494,7.45,2.574,9.534,2.703,9.14C2.64,9.334,2.478,10.459,2.428,9.827
		c-0.014,0.351-0.36,0.969,0.142,1.147c-0.005-0.169-0.027-0.336-0.065-0.501c0.141,0.717-0.156,1.44,0.024,2.147
		c-0.33-0.328-0.592,0.998-0.169,0.653c-0.076,0.447,0.043,1.006-0.034,1.377c-0.243-0.3,0.008,1.118,0.036,1.365
		c0.076,0.659,0.172,1.317,0.311,1.966c0.163,0.756,0.34,2.055,0.839,3.022c-0.013-0.424,0.741,0.469,0.807,0.739
		c-0.055-0.118-0.119-0.131-0.193-0.037c0.146,0.246,0.322,0.468,0.528,0.667c-0.417-0.367-0.078,0.802,0.003,0.957
		c0.54,1.034,1.058,1.953,1.702,2.923c0.13,0.43,0.502,0.701,0.805,1.005c0.322,0.323,0.47,0.764,0.746,1.125
		c0.345,0.451,0.684,0.906,1.027,1.36c0.184,0.246,0.376,0.485,0.575,0.718c-0.009-0.01,0.786,1.049,0.553,0.481
		c1.383,1.463,2.74,2.672,4.325,3.859c-0.408-0.146-2.44-1.693-2.492-1.631C11.863,33.203,15.444,35.721,15.886,36.082
		c0.095-0.169,0.073-0.27-0.066-0.301C15.731,35.888,15.753,35.988,15.886,36.082C15.999,35.703,15.551,35.809,15.886,36.082z
		 M15.85,36.207c0.042-0.143-0.152-0.247-0.286-0.288C15.659,36.015,15.75,36.116,15.85,36.207z M72.049,11.971
		c0.023-0.007-0.195-2.326-0.231-2.566C71.95,9.7,71.733,8.855,71.61,8.705c0.587,0.24-0.294-1.685-0.233-1.266
		c-0.015-0.106-0.447-1.394-0.055-0.729c-0.16-0.333-0.042-0.98-0.56-1.01c0.06,0.157,0.136,0.305,0.227,0.446
		c-0.367-0.618-0.377-1.414-0.846-1.973c0.411,0.155,0.175-1.149-0.095-0.67c-0.06-0.363-0.197-1.1-0.231-1.098
		c-0.468-0.509-1.079,0.093-1.026,0.633c-0.064,0.392-0.101,2.079-0.008,2.869c0.109-0.336,0.495,0.777,0.424,1.111
		c-0.013-0.143-0.048-0.181-0.103-0.114c-0.049,0.279,0.023,0.642,0.081,0.916c-0.109-0.495-0.5,0.798-0.531,0.926
		c-0.079,0.325-0.055,0.652-0.092,0.983c-0.066,0.586-0.507,0.999-0.605,1.592c-0.201,1.224-0.698,2.477-1.265,3.587
		c-0.29,0.569-0.65,1.099-1.014,1.623c-0.187,0.268-0.374,0.537-0.558,0.807c-0.001,0.002-0.898,1.075-0.371,0.711
		c-0.883,1.043-2.286,1.963-2.725,3.312c0.176-0.316-0.257-0.012-0.287,0.008c-0.447,0.305-0.83,0.806-1.228,1.177
		c0.532-0.9,1.445-1.519,2.131-2.291c-0.074-0.066-2.14,1.93-2.393,2.194c-0.589,0.616-0.956,0.911-1.697,1.35
		c0.169-0.124,0.338-0.249,0.505-0.375c-0.623,0.231-1.078,0.811-1.668,1.125c-0.667,0.355-1.36,0.659-2.053,0.957
		c0.293-0.022,0.585-0.045,0.878-0.067c-0.838,0.462-1.661,0.857-2.5,1.252c-0.883,0.416,0.432,1.447,0.754,1.775
		c1.85,1.887,3.168,4.732,4.015,7.198c0.332-0.341,0.839-0.537,1.25-0.762c0.459-0.251,0.809-0.694,1.213-1.026
		c1.202-0.987,2.542-1.842,3.483-3.107c-0.191,0.318,0.686-0.308,0.083-0.244c0.525-0.263,1.065-1.008,1.528-1.368
		c-0.312-0.134,0.466-0.753,0.608-0.934c0.595-0.76,1.097-1.587,1.655-2.373c0.987-1.389,1.707-2.989,2.203-4.614
		c0.47-1.541,0.517-3.364,1.144-4.83c0.535-1.25,0.024-3.511,0.284-4.335C71.962,12.183,72.002,12.15,72.049,11.971
		C72,11.986,71.948,12.292,72.049,11.971z M56.25,25.416C56.186,25.408,56.57,25.459,56.25,25.416L56.25,25.416z M3.971,21.045
		C3.999,21.131,4.117,21.162,3.971,21.045C3.975,21.059,3.971,21.045,3.971,21.045z M6.347,26.216
		c0.004,0.014,0.007,0.022,0.011,0.035C6.371,26.238,6.39,26.234,6.347,26.216z M15.891,24.286
		C15.885,24.214,15.901,24.413,15.891,24.286L15.891,24.286z M15.761,24.253c-0.149-0.155,1.17,0.537-0.24-0.272
		C16.214,24.959,15.605,23.933,15.761,24.253C15.612,24.098,15.728,24.185,15.761,24.253z M9.606,30.399
		C9.6,30.406,9.561,30.576,9.606,30.399C9.591,30.416,9.606,30.399,9.606,30.399z M14.271,34.891
		c0.087,0.063,0.715,0.549,0.786,0.468C14.829,35.167,14.49,34.91,14.271,34.891z M10.269,29.593
		C10.243,29.592,10.115,29.584,10.269,29.593L10.269,29.593z M7.352,25.656C7.357,25.652,7.412,25.567,7.352,25.656
		C7.364,25.647,7.352,25.656,7.352,25.656z M4.347,14.46C4.35,14.479,4.41,14.542,4.347,14.46C4.347,14.46,4.355,14.47,4.347,14.46z
		 M6.155,23.082c-0.026-0.051-0.161-0.357-0.202-0.342C5.932,23.033,6,23.147,6.155,23.082z M5.09,15.1l0.001,0.011
		C5.133,15.106,5.116,15.092,5.09,15.1z M5.36,21.098C5.397,21.032,5.248,21.3,5.36,21.098L5.36,21.098z M4.302,17.528
		c-0.009-0.063-0.023-0.116-0.043-0.153C4.278,17.55,4.29,17.556,4.302,17.528z M4.926,13.753
		C4.921,13.548,4.825,14.215,4.926,13.753C4.924,13.666,4.918,13.791,4.926,13.753z M4.38,14.14l-0.036-0.026
		C4.356,14.166,4.368,14.163,4.38,14.14z M60.872,25.309C60.868,25.302,60.811,25.198,60.872,25.309L60.872,25.309z M57.421,28.225
		C57.421,28.224,57.398,28.2,57.421,28.225L57.421,28.225z M57.423,28.222C57.479,28.256,57.451,28.148,57.423,28.222
		C57.449,28.238,57.425,28.216,57.423,28.222z M61.788,24.717C61.807,24.735,61.843,24.766,61.788,24.717
		C61.799,24.727,61.788,24.717,61.788,24.717z M64.181,23.364C64.227,23.425,64.191,23.378,64.181,23.364L64.181,23.364z
		 M62.45,24.378C62.404,24.417,62.322,24.488,62.45,24.378L62.45,24.378z M64.322,23.396c-0.038-0.048-0.091-0.063-0.157-0.045
		c0.071,0.069-0.953,0.252-1.076,0.343c-0.034-0.01,0.335,0.165,0.058,0.166c-0.032-0.038-0.071-0.059-0.118-0.065
		c-0.056,0.322-0.247,0.367,0.023,0.519c-0.32-0.003-0.709,0.069-0.807,0.383c-0.109-0.131-0.068-0.226,0.122-0.285
		c-0.194,0.047-1.3,1.054-1.435,0.743c0.019,0.054,0.029,0.109,0.029,0.166c0.012-0.014-0.214-0.196,0.013,0.122
		c0.107,0.15,0.005,0.145-0.144,0.257c-0.234,0.177-0.426,0.263-0.392,0.297c-0.084-0.011-0.151-0.052-0.201-0.123
		c0.075,0.255-0.165-0.181-0.097,0.215c-0.029-0.025,0.209,0.113-0.096,0.092c0.034,0.057,0.03,0.11-0.012,0.16
		c-0.297-0.402-1.686,1.495-2.002,1.278c0.431,0.446-3.548,1.396-1.719,2.667c0.531,0.369,1.64-0.614,2.03-0.938
		c0.448-0.372,0.926-0.487,1.383-0.853c1.148-0.919,2.319-1.815,3.394-2.821c0.43-0.403,1.867-1.797,1.671-2.24
		C63.697,23.452,64.544,23.461,64.322,23.396C64.394,23.362,64.454,23.435,64.322,23.396z M64.601,23.967L64.6,23.97
		C64.631,23.998,64.622,23.984,64.601,23.967z M62.807,24.181C62.827,24.195,62.664,24.085,62.807,24.181L62.807,24.181z
		 M63.373,23.562c0.012-0.009,0.018-0.02,0.015-0.035C63.35,23.546,63.357,23.554,63.373,23.562z M64.772,23.674
		C64.813,23.642,64.597,23.668,64.772,23.674C64.789,23.661,64.758,23.673,64.772,23.674z M51.736,28.793
		C51.743,28.722,51.723,28.921,51.736,28.793L51.736,28.793z M51.716,28.776c-0.094-0.116-0.188-0.232-0.282-0.348
		C51.342,28.523,51.797,28.848,51.716,28.776C51.622,28.66,51.672,28.736,51.716,28.776z M29.662,50.642
		c0.062,0.009,0.112-0.017,0.15-0.076C29.762,50.591,29.712,50.616,29.662,50.642z M37.729,50.829
		c0.02,0.003,0.031,0.005,0.049,0.008C37.774,50.819,37.784,50.801,37.729,50.829z M33.369,21.04
		C33.353,21.015,33.413,21.106,33.369,21.04L33.369,21.04z M33.323,21.1c-0.019,0.001,0.196-0.374-0.182-0.003
		C33.421,21.112,33.275,21.061,33.323,21.1C33.304,21.101,33.284,21.068,33.323,21.1z M45.182,50.876
		C45.183,50.886,45.325,51.035,45.182,50.876C45.185,50.899,45.182,50.876,45.182,50.876z M47.348,41.379
		c0.018,0.059,0.139-0.003,0.17-0.024C47.461,41.363,47.405,41.371,47.348,41.379C47.366,41.438,47.384,41.368,47.348,41.379z
		 M54.216,51.142c0.009,0.012,1.192,0.215,1.226,0.027C55.042,51.113,54.618,51.14,54.216,51.142z M49.678,40.326l0.036-0.001
		C49.712,40.262,49.658,40.286,49.678,40.326z M59.731,50.712C59.872,50.604,59.878,50.599,59.731,50.712L59.731,50.712z
		 M57.163,42.077c-0.202-0.004-0.379,0.001-0.506,0.021C57.216,42.118,57.242,42.102,57.163,42.077z M45.113,40.446
		c-0.057,0.003-0.114,0.005-0.171,0.008c0.21-0.065,0.45,0.101,0.67,0.055C46.252,40.59,44.621,40.384,45.113,40.446
		C45.055,40.448,45.263,40.465,45.113,40.446z M46.31,41.3l-0.092,0.051C46.391,41.339,46.384,41.32,46.31,41.3z M34.657,43.931
		C34.652,43.918,34.606,43.808,34.657,43.931L34.657,43.931z M38.28,49.393C38.276,49.388,38.305,49.425,38.28,49.393L38.28,49.393z
		 M38.276,49.396C38.174,49.343,38.197,49.462,38.276,49.396C38.242,49.378,38.268,49.403,38.276,49.396z M36.616,43.045
		C36.618,43.052,36.65,43.136,36.616,43.045C36.619,43.06,36.616,43.045,36.616,43.045z M39.734,45.817
		C39.652,45.811,39.715,45.815,39.734,45.817L39.734,45.817z M37.957,43.302c0.037-0.055-0.01-0.08-0.141-0.075
		C37.79,43.339,37.871,43.277,37.957,43.302z M39.898,46.337c-1.078,0.057-0.918,0.71-1.7,1.287
		c-0.899,0.662-1.809,0.774-2.538-0.338c-0.679-1.037,0.144-2.903,1.548-2.641c0.339,0.063,1.099,0.18,1.331,0.381
		c0.42,0.364,0.254,1.051,0.76,1.312c0.181-0.15,0.333-0.326,0.454-0.526c0.063-0.009-0.184-1.495-0.311-1.677
		c-0.017,0.035-0.026,0.071-0.027,0.109c-0.13-0.061-0.224-0.288-0.292-0.408c-0.34,0.526-0.51-0.671-0.565,0.131
		c-0.062-0.124-0.63-0.545-0.411-0.473c-0.227-0.213-0.702-0.032-0.861-0.29c0.174,0.022,0.383,0.008,0.553-0.002
		c-0.063,0.004-0.523-0.027-0.329-0.17c-0.587,0.228-1.301-0.013-1.844,0.335c-0.091,0.058-0.8,0.619-0.84,0.3
		c0.043,0.188-0.01,0.256-0.161,0.202c-0.059,0.41,0.205,0.355-0.16,0.848c-0.108,0.145-0.639,0.641-0.425,0.658
		c-0.343,0.1-0.274,0.465-0.295,0.42c0.123,0.12,0.3,0.669,0.018,0.625c0.514,0.479,0.062,1.649,0.725,2.195
		c0.473,0.389,1.839,0.625,2.128,1.102c-0.027-0.163,0.993-0.122,1.22-0.159c0.599-0.097,1.269-0.491,1.651-0.971
		c0.258-0.266,0.441-0.751,0.569-1.095c0.081-0.219,0.17-0.444,0.222-0.673C40.382,46.547,39.884,46.539,39.898,46.337
		C39.788,46.343,39.891,46.444,39.898,46.337z M38.972,45.793l-0.001-0.003C38.931,45.803,38.947,45.802,38.972,45.793z
		 M38.573,43.667C38.568,43.702,38.6,43.486,38.573,43.667L38.573,43.667z M39.692,44.612c0.015,0.02,0.029,0.037,0.047,0.044
		C39.714,44.589,39.698,44.596,39.692,44.612z M39.121,46.125C39.118,46.181,39.238,45.986,39.121,46.125
		C39.12,46.149,39.13,46.114,39.121,46.125z M44.472,44.703C44.467,44.693,44.408,44.591,44.472,44.703L44.472,44.703z
		 M46.906,48.337C46.905,48.336,46.925,48.367,46.906,48.337L46.906,48.337z M46.904,48.339
		C46.844,48.291,46.849,48.403,46.904,48.339C46.878,48.319,46.898,48.345,46.904,48.339z M45.812,44.15
		C45.819,44.177,45.833,44.222,45.812,44.15C45.816,44.165,45.812,44.15,45.812,44.15z M47.632,46.043
		C47.553,46.046,47.615,46.044,47.632,46.043L47.632,46.043z M46.685,44.39C46.574,44.357,46.546,44.348,46.685,44.39L46.685,44.39z
		 M47.255,46.376c0.034-0.238-0.797,0.556-0.787,0.543c-0.124,0.17-0.595,0.181-0.745-0.089c-0.208-0.371-0.275-0.732,0.084-1.046
		c0.19-0.166,1.071,0.12,1.07,0.124c-0.028,0.075-0.058,0.15-0.09,0.223c0.321-0.408,0.082,0.142,0.08,0.063
		c0.237,0.021,0.614,0.08,0.785-0.156c0.041-0.007,0.11-0.926-0.011-1.116c-0.02,0.028-0.033,0.059-0.041,0.092
		c-0.062-0.092-0.115-0.189-0.159-0.29c-0.349,0.347-0.305-0.371-0.44,0.214c-0.113-0.592-0.515-0.325-0.748-0.533
		c0.117-0.014,0.234-0.087,0.353-0.11c-0.319-0.04-0.56-0.146-1.054-0.117c-0.191,0.011-0.846,0.774-0.981,0.326
		c0.213,0.408-0.481,1.191-0.419,1.2c-0.072,0.067-0.155,0.079-0.246,0.038c0.127,0.127,0.007,0.072-0.083,0.171
		c0.041,0.103,0.109,0.149,0.203,0.138c0.067,0.145-0.049,0.285-0.098,0.342c0.135,0.26,0.165,0.749,0.327,1.112
		c0.274,0.615,1.454,0.729,1.581,1.104c0.015,0.256,1.521-0.555,1.743-0.793C48.113,47.241,48.73,45.95,47.255,46.376
		C47.247,46.431,47.365,46.344,47.255,46.376z M46.901,46.121L46.901,46.121C46.86,46.133,46.876,46.13,46.901,46.121z
		 M47.06,44.663C47.053,44.69,47.105,44.493,47.06,44.663L47.06,44.663z M47.768,45.251c0.008,0.013,0.019,0.023,0.034,0.025
		C47.79,45.231,47.777,45.238,47.768,45.251z M47.008,46.247C47.001,46.279,47.129,46.181,47.008,46.247
		C47.006,46.258,47.018,46.242,47.008,46.247z M52.722,44.703C52.717,44.693,52.658,44.591,52.722,44.703L52.722,44.703z
		 M55.156,48.337C55.155,48.336,55.175,48.367,55.156,48.337L55.156,48.337z M55.154,48.339
		C55.094,48.291,55.099,48.403,55.154,48.339C55.128,48.319,55.148,48.345,55.154,48.339z M54.062,44.15
		C54.069,44.177,54.083,44.222,54.062,44.15C54.066,44.165,54.062,44.15,54.062,44.15z M55.882,46.043
		C55.803,46.046,55.865,46.044,55.882,46.043L55.882,46.043z M54.935,44.39C54.824,44.357,54.796,44.348,54.935,44.39L54.935,44.39z
		 M55.505,46.376c0.034-0.238-0.797,0.556-0.787,0.543c-0.124,0.17-0.595,0.181-0.745-0.089c-0.208-0.371-0.275-0.732,0.084-1.046
		c0.19-0.166,1.071,0.12,1.07,0.124c-0.028,0.075-0.058,0.15-0.09,0.223c0.321-0.408,0.082,0.142,0.08,0.063
		c0.237,0.021,0.614,0.08,0.785-0.156c0.041-0.007,0.11-0.926-0.011-1.116c-0.02,0.028-0.033,0.059-0.041,0.092
		c-0.062-0.092-0.115-0.189-0.159-0.29c-0.349,0.347-0.305-0.371-0.44,0.214c-0.113-0.592-0.515-0.325-0.748-0.533
		c0.117-0.014,0.234-0.087,0.353-0.11c-0.319-0.04-0.56-0.146-1.054-0.117c-0.191,0.011-0.846,0.774-0.981,0.326
		c0.213,0.408-0.481,1.191-0.419,1.2c-0.072,0.067-0.155,0.079-0.246,0.038c0.127,0.127,0.007,0.072-0.083,0.171
		c0.041,0.103,0.109,0.149,0.203,0.138c0.067,0.145-0.049,0.285-0.098,0.342c0.135,0.26,0.165,0.749,0.327,1.112
		c0.274,0.615,1.454,0.729,1.581,1.104c0.015,0.256,1.521-0.555,1.743-0.793C56.363,47.241,56.98,45.95,55.505,46.376
		C55.497,46.431,55.615,46.344,55.505,46.376z M55.151,46.121L55.151,46.121C55.11,46.133,55.126,46.13,55.151,46.121z
		 M55.31,44.663C55.303,44.69,55.355,44.493,55.31,44.663L55.31,44.663z M56.018,45.251c0.008,0.013,0.019,0.023,0.034,0.025
		C56.04,45.231,56.027,45.238,56.018,45.251z M55.258,46.247C55.251,46.279,55.379,46.181,55.258,46.247
		C55.256,46.258,55.268,46.242,55.258,46.247z M35.563,39.063C35.554,39.068,35.451,39.126,35.563,39.063L35.563,39.063z
		 M39.197,36.629C39.197,36.629,39.228,36.609,39.197,36.629L39.197,36.629z M39.2,36.631C39.152,36.691,39.264,36.686,39.2,36.631
		C39.18,36.657,39.206,36.636,39.2,36.631z M35.011,37.723C35.038,37.716,35.082,37.702,35.011,37.723
		C35.026,37.719,35.011,37.723,35.011,37.723z M36.904,35.903C36.907,35.982,36.904,35.92,36.904,35.903L36.904,35.903z
		 M35.251,36.85C35.217,36.961,35.209,36.989,35.251,36.85L35.251,36.85z M35.101,38.212c0.102,0.086,0.692,0.623,0.265,0.752
		c0.363-0.19,1.055,0.244,1.183,0.532c0.043-0.286,0.084,0.075,0.055,0.134c0.127-0.127,0.072-0.007,0.171,0.083
		c0.103-0.041,0.149-0.109,0.138-0.203c0.14-0.065,0.288,0.055,0.342,0.098c0.26-0.135,0.749-0.165,1.112-0.327
		c0.615-0.274,0.729-1.454,1.104-1.581c0.509-0.03-2.168-4.229-2.264-1.715c-0.019,0.481,0.002,0.64,0.36,0.919
		c0.246,0.192,0.595,0.645,0.125,0.909c-0.371,0.208-0.731,0.275-1.046-0.084c-0.166-0.19,0.12-1.072,0.124-1.07
		c0.075,0.028,0.15,0.058,0.223,0.09c-0.408-0.321,0.142-0.083,0.063-0.08c0.021-0.237,0.08-0.613-0.156-0.785
		c-0.007-0.041-0.926-0.11-1.116,0.011c0.028,0.02,0.059,0.033,0.092,0.041c-0.092,0.062-0.189,0.115-0.29,0.159
		c0.347,0.349-0.371,0.305,0.214,0.44c-0.592,0.112-0.325,0.515-0.533,0.748c-0.014-0.117-0.087-0.234-0.11-0.353
		C35.156,36.922,34.902,38.268,35.101,38.212C35.088,38.201,34.992,38.243,35.101,38.212z M36.982,36.633L36.982,36.633
		C36.994,36.674,36.99,36.659,36.982,36.633z M35.524,36.475C35.55,36.482,35.354,36.43,35.524,36.475L35.524,36.475z
		 M36.112,35.767c0.013-0.008,0.023-0.018,0.025-0.034C36.092,35.745,36.098,35.758,36.112,35.767z M37.108,36.527
		C37.139,36.534,37.041,36.405,37.108,36.527C37.118,36.529,37.103,36.517,37.108,36.527z M35.563,30.813
		C35.554,30.818,35.451,30.876,35.563,30.813L35.563,30.813z M39.197,28.379C39.197,28.379,39.228,28.359,39.197,28.379
		L39.197,28.379z M39.2,28.381C39.152,28.441,39.264,28.436,39.2,28.381C39.18,28.407,39.206,28.386,39.2,28.381z M35.011,29.473
		C35.038,29.466,35.082,29.452,35.011,29.473C35.026,29.469,35.011,29.473,35.011,29.473z M36.904,27.653
		C36.907,27.732,36.904,27.67,36.904,27.653L36.904,27.653z M35.251,28.6C35.217,28.711,35.209,28.739,35.251,28.6L35.251,28.6z
		 M35.086,29.87c0.021,0.151,0.318,0.226,0.332,0.352c0.105,0.365-0.106,0.389,0.124,0.483c-0.062,0.098,0.019-0.062,0.321,0.059
		c0.308,0.123,0.558,0.197,0.686,0.482c0.043-0.286,0.084,0.075,0.055,0.134c0.127-0.127,0.072-0.007,0.171,0.083
		c0.103-0.041,0.149-0.109,0.138-0.203c0.145-0.067,0.285,0.049,0.342,0.098c0.26-0.135,0.749-0.165,1.112-0.327
		c0.615-0.274,0.736-1.457,1.104-1.581c0.268-0.016-0.548-1.515-0.793-1.743c-0.729-0.677-1.522-1.088-1.471,0.286
		c0.02,0.556,1.222,1.121,0.481,1.561c-0.369,0.219-0.724,0.289-1.042-0.074c-0.166-0.19,0.12-1.072,0.124-1.07
		c0.075,0.028,0.15,0.058,0.223,0.09c-0.408-0.321,0.142-0.083,0.063-0.08c0.021-0.237,0.08-0.613-0.156-0.785
		c-0.007-0.041-0.926-0.11-1.116,0.011c0.028,0.02,0.059,0.033,0.092,0.041c-0.092,0.062-0.189,0.115-0.29,0.159
		c0.347,0.349-0.371,0.305,0.214,0.44c-0.594,0.113-0.319,0.508-0.533,0.748c-0.159-0.004-0.09-0.221-0.11-0.353
		C35.115,28.996,34.903,29.394,35.086,29.87C35.097,29.953,34.996,29.636,35.086,29.87z M36.982,28.383L36.982,28.383
		C36.994,28.424,36.99,28.409,36.982,28.383z M35.524,28.225C35.55,28.232,35.354,28.18,35.524,28.225L35.524,28.225z
		 M36.112,27.517c0.013-0.008,0.023-0.018,0.025-0.034C36.092,27.495,36.098,27.508,36.112,27.517z M37.108,28.277
		C37.139,28.284,37.041,28.155,37.108,28.277C37.118,28.279,37.103,28.267,37.108,28.277z M18.222,44.703
		C18.217,44.693,18.158,44.591,18.222,44.703L18.222,44.703z M20.656,48.337C20.655,48.336,20.675,48.367,20.656,48.337
		L20.656,48.337z M20.654,48.339C20.594,48.291,20.599,48.403,20.654,48.339C20.628,48.319,20.648,48.345,20.654,48.339z
		 M19.562,44.15C19.569,44.177,19.583,44.222,19.562,44.15C19.566,44.165,19.562,44.15,19.562,44.15z M21.382,46.043
		C21.303,46.046,21.365,46.044,21.382,46.043L21.382,46.043z M20.435,44.39C20.324,44.357,20.296,44.348,20.435,44.39L20.435,44.39z
		 M21.005,46.376c0.034-0.238-0.797,0.556-0.787,0.543c-0.124,0.17-0.595,0.181-0.745-0.089c-0.208-0.371-0.275-0.732,0.084-1.046
		c0.19-0.166,1.071,0.12,1.07,0.124c-0.028,0.075-0.058,0.15-0.09,0.223c0.321-0.408,0.082,0.142,0.08,0.063
		c0.237,0.021,0.614,0.08,0.785-0.156c0.041-0.007,0.11-0.926-0.011-1.116c-0.02,0.028-0.033,0.059-0.041,0.092
		c-0.062-0.092-0.115-0.189-0.159-0.29c-0.349,0.347-0.305-0.371-0.44,0.214c-0.113-0.592-0.515-0.325-0.748-0.533
		c0.117-0.014,0.234-0.087,0.353-0.11c-0.319-0.04-0.56-0.146-1.054-0.117c-0.191,0.011-0.846,0.774-0.981,0.326
		c0.213,0.408-0.481,1.191-0.419,1.2c-0.072,0.067-0.155,0.079-0.246,0.038c0.127,0.127,0.007,0.072-0.083,0.171
		c0.041,0.103,0.109,0.149,0.203,0.138c-0.078-0.168-0.056,0.414,0.026,0.316c-0.274-0.007,0.08,1.127,0.198,1.336
		c0.288,0.216,1.509,0.681,1.585,0.907c0.015,0.256,1.521-0.555,1.743-0.793C21.863,47.241,22.48,45.95,21.005,46.376
		C20.997,46.431,21.115,46.344,21.005,46.376z M20.651,46.121L20.651,46.121C20.61,46.133,20.626,46.13,20.651,46.121z
		 M20.81,44.663C20.803,44.69,20.855,44.493,20.81,44.663L20.81,44.663z M21.518,45.251c0.008,0.013,0.019,0.023,0.034,0.025
		C21.54,45.231,21.527,45.238,21.518,45.251z M20.758,46.247C20.751,46.279,20.879,46.181,20.758,46.247
		C20.756,46.258,20.768,46.242,20.758,46.247z M26.472,44.703C26.467,44.693,26.408,44.591,26.472,44.703L26.472,44.703z
		 M28.906,48.337C28.905,48.336,28.925,48.367,28.906,48.337L28.906,48.337z M28.904,48.339
		C28.844,48.291,28.849,48.403,28.904,48.339C28.878,48.319,28.898,48.345,28.904,48.339z M27.812,44.15
		C27.819,44.177,27.833,44.222,27.812,44.15C27.816,44.165,27.812,44.15,27.812,44.15z M29.632,46.043
		C29.553,46.046,29.615,46.044,29.632,46.043L29.632,46.043z M28.685,44.39C28.574,44.357,28.546,44.348,28.685,44.39L28.685,44.39z
		 M29.255,46.376c0.034-0.238-0.797,0.556-0.787,0.543c-0.124,0.17-0.595,0.181-0.745-0.089c-0.208-0.371-0.275-0.732,0.084-1.046
		c0.19-0.166,1.071,0.12,1.07,0.124c-0.028,0.075-0.058,0.15-0.09,0.223c0.321-0.408,0.082,0.142,0.08,0.063
		c0.237,0.021,0.614,0.08,0.785-0.156c0.041-0.007,0.11-0.926-0.011-1.116c-0.02,0.028-0.033,0.059-0.041,0.092
		c-0.062-0.092-0.115-0.189-0.159-0.29c-0.349,0.347-0.305-0.371-0.44,0.214c-0.113-0.592-0.515-0.325-0.748-0.533
		c0.117-0.014,0.234-0.087,0.353-0.11c-0.319-0.04-0.56-0.146-1.054-0.117c-0.191,0.011-0.846,0.774-0.981,0.326
		c0.213,0.408-0.481,1.191-0.419,1.2c-0.072,0.067-0.155,0.079-0.246,0.038c0.127,0.127,0.007,0.072-0.083,0.171
		c0.041,0.103,0.109,0.149,0.203,0.138c0.067,0.145-0.049,0.285-0.098,0.342c0.135,0.26,0.165,0.749,0.327,1.112
		c0.274,0.615,1.454,0.729,1.581,1.104c0.015,0.256,1.521-0.555,1.743-0.793C30.113,47.241,30.73,45.95,29.255,46.376
		C29.247,46.431,29.365,46.344,29.255,46.376z M28.901,46.121L28.901,46.121C28.86,46.133,28.876,46.13,28.901,46.121z
		 M29.06,44.663C29.053,44.69,29.105,44.493,29.06,44.663L29.06,44.663z M29.768,45.251c0.008,0.013,0.019,0.023,0.034,0.025
		C29.79,45.231,29.777,45.238,29.768,45.251z M29.008,46.247C29.001,46.279,29.129,46.181,29.008,46.247
		C29.006,46.258,29.018,46.242,29.008,46.247z"/>
</g>
<g id="Layer_1">
</g>
</svg>
