<?xml version="1.0" encoding="iso-8859-1"?>
<!-- Generator: Adobe Illustrator 17.1.0, SVG Export Plug-In . SVG Version: 6.00 Build 0)  -->
<!DOCTYPE svg PUBLIC "-//W3C//DTD SVG 1.1//EN" "http://www.w3.org/Graphics/SVG/1.1/DTD/svg11.dtd">
<svg version="1.1" xmlns="http://www.w3.org/2000/svg" xmlns:xlink="http://www.w3.org/1999/xlink" x="0px" y="0px"
	 viewBox="0 0 99.42 71.401" style="enable-background:new 0 0 99.42 71.401;" xml:space="preserve">
<g id="helmet_x5F_big">
	<path style="fill:#F7A13A;" d="M98.718,10.776c1.358-0.909-0.609-3.276-0.96-4.267c-0.729-2.056-1-4.667-3.026-5.929
		c-1.854-1.155-4.352-0.459-5.4,1.434c-1.293,2.334-0.185,5.093-0.352,7.584c-0.361,5.403-3.002,10.397-6.406,14.505
		c-1.738,2.097-3.734,3.987-5.963,5.555c-2.381,1.675-5.127,2.768-7.427,4.566c0.343-0.082,0.687-0.163,1.03-0.245
		c-0.329,0.192-0.666,0.37-1.008,0.537c-0.268-0.299-0.538-0.599-0.846-0.857c-0.803-0.671-1.638-1.307-2.526-1.861
		c-1.804-1.125-3.788-1.907-5.724-2.766c-0.623-0.277-1.405-0.491-1.679-1.194c-0.298-0.762-0.64-1.563-1.309-2.076
		c-1.494-1.143-3.494-0.906-5.253-0.875c-2.312,0.041-4.602-0.427-6.917-0.116c-0.989,0.133-2.093,0.405-2.797,1.165
		c-1.102,1.189-0.365,2.662-2.298,3.185c-1.776,0.481-3.431,1.016-5.045,1.933c-1.394,0.792-2.902,2.735-4.563,2.845
		c-1.701,0.113-3.911-1.796-5.271-2.674c-1.76-1.135-3.447-2.334-4.977-3.77c-5.376-5.047-9.436-12.104-9.227-19.61
		c0.071-2.555,0.199-5.867-2.333-7.355C5.753-1.09,3.688,1.462,2.608,3.689c-3.305,6.816-3.194,15.591-1.201,22.756
		c2.123,7.63,6.696,14.431,12.7,19.558c1.399,1.195,2.876,2.179,4.406,3.188c1.338,0.882,2.96,2.456,1.528,4.024
		c-1.067,1.168-2.411,1.465-2.859,3.172c-0.528,2.014-0.197,4.329-0.192,6.389c0.006,2.303-0.133,4.922,1.551,6.746
		c2.043,2.214,5.628,1.882,8.336,1.666c7.667-0.611,15.406-0.343,23.09-0.265C57.704,71,65.439,71.212,73.177,71.3
		c2.558,0.029,6.425,0.626,8.425-1.449c1.052-1.091,1.12-2.672,1.094-4.102c-0.034-1.851,0.014-3.709-0.141-5.555
		c-0.081,0.484-0.161,0.969-0.242,1.453c-0.053-2.204,1.014-4.927-0.897-6.653c-1.038-0.938-2.883-1.661-2.617-3.362
		c0.348-2.23,3.543-3.537,5.198-4.672c2.501-1.716,4.649-3.873,6.566-6.214C97.319,32.491,100.85,21.374,98.718,10.776
		c0.168-0.112,0.214,1.122,0.302,1.157C98.568,11.755,98.789,11.128,98.718,10.776c0.062-0.042,0.419,0.973,0.328,1.14
		c0.075-0.138-0.397-1.547-0.057-1.166c0.174,0.195-0.084,1.078,0.072,1.145c-0.216-0.093-0.491-1.172-0.176-1.164
		c0.366,0.009,0.494,0.966,0.228,1.144c-0.022,0.015-0.589-1.079-0.342-1.149c0.386-0.109,0.714,0.934,0.445,1.001
		c-0.892,0.223-0.117-2.088,0.072-0.544c0.165,1.351-0.82-0.337-0.411-0.492C99.627,10.409,99.217,13.256,98.718,10.776
		C99.98,9.932,99.262,13.479,98.718,10.776z M57.647,54.057c1.111-4.814,0.554-9.735,0.704-14.618
		c0.069-2.262,0.344-4.55,0.253-6.809c-0.056-1.371,2.239-0.131,2.913,0.191c3.934,1.882,7.878,5.069,10.298,8.713
		c2.432,3.663,3.515,8,4.629,12.197c-1.363,0.042-2.715,0.292-4.081,0.243c-1.56-0.056-3.112-0.248-4.656-0.472
		c0.37,0.049,0.74,0.099,1.11,0.148c-2.583,0.236-5.178,0.071-7.756,0.402c-0.582,0.075-3.045,0.583-3.367-0.13
		C57.233,52.904,58.746,54.332,57.647,54.057C58.027,52.411,58.248,54.207,57.647,54.057c0.057-0.246,0.8-1.559,0.587-1.726
		C58.638,52.648,58.241,54.206,57.647,54.057c0.047-0.202,0.693-1.602,0.579-1.691C58.607,52.661,58.193,54.194,57.647,54.057
		c0.042-0.18,0.612-1.661,0.578-1.688C58.581,52.644,58.15,54.183,57.647,54.057c0.04-0.173,0.538-1.718,0.578-1.687
		C58.55,52.62,58.109,54.173,57.647,54.057c0.015-0.064,0.463-1.776,0.578-1.687C58.499,52.58,58.087,54.167,57.647,54.057
		C58.548,50.155,58.4,54.245,57.647,54.057z M28.548,40.705c0.043-0.147,0.201-0.53,0.331-0.142c0.074-1.05,1.015-1.787,1.778-2.382
		c1.083-0.844,2.116-1.751,3.232-2.553c2.202-1.583,4.725-2.622,7.205-3.682c-0.084,6.542-0.123,13.085,0.018,19.627
		c0.015,0.698,0.041,1.397,0.085,2.094c-0.904,0.06-1.81,0.103-2.716,0.131c-1.639,0.051-3.278,0.056-4.917,0.034
		c-3.459-0.045-6.915-0.205-10.373-0.292c0.319-2.257,0.735-4.514,1.91-6.351c-0.456,0.151,0.273-1.573,0.534-0.774
		c-0.055-0.54,0.392-0.914,0.631-1.341c0.252-0.449,0.376-0.952,0.552-1.432c-0.038,0.089-0.408,0.578-0.243,0.658
		C25.876,43.903,28.475,41.085,28.548,40.705C28.592,40.556,28.555,40.666,28.548,40.705z M20.298,47.183
		c-0.557-0.156-4.563-2.638-4.163-3.113c0.987,0.862,1.86,2.026,3.218,2.301c-0.739-0.529-1.338-1.23-2.095-1.736
		c-0.84-0.562-1.617-0.95-2.312-1.708c-1.481-1.615-2.786-3.299-4.128-5.025c-1.296-1.668-2.571-3.264-3.502-5.174
		c-0.302-0.62-0.633-1.205-0.83-1.867c-0.036-0.12-0.235-1.129-0.15-1.048c-1.202-1.227-2.112-2.863-2.389-4.567
		c-0.159-0.975-0.21-1.967-0.425-2.933c-0.213-0.954-0.764-1.906-0.501-2.91c0.111-0.05,0.178-0.016,0.203,0.103
		c-0.176-0.606-0.037-1.238,0.084-1.838c-0.194,0.155-0.44-1.545,0.238-0.871c-0.342-0.529,0.103-1.096,0.031-1.651
		c0.463-0.29,0.008-0.856-0.062-1.212c0.029,0.223,0.058,0.446,0.087,0.669c-0.9-0.09-0.068-1.856,0.065-2.285
		c0.064-0.207,0.248-2.011,0.413-1.851C3.61,9.47,4.468,8.429,4.886,7.584c0.556-1.123,0.713-2.394,1.262-3.52
		c0.659-1.352,0.95-0.128,1.017,0.722c0.107,1.351-0.02,2.706,0.102,4.058c0.249,2.777,1.028,5.474,1.92,8.105
		c0.404,1.192,0.756,2.442,1.521,3.465c0.744,0.996,1.455,2.026,1.81,3.232c-0.025-0.142,0.513,0.318,0.569,0.386
		c0.653,0.796,1.302,1.595,1.97,2.378c1.205,1.411,2.476,2.769,3.838,4.031c2.73,2.529,5.934,4.491,9.264,6.124
		c-0.968,1.068-1.76,2.278-2.516,3.5C25,41.106,24.64,42.422,23.63,43.193c-2.065,1.576-4.088-1.542-5.337-2.778
		c-2.187-2.163-4.341-4.395-6.034-6.977c-0.88-1.343-1.617-2.773-2.308-4.22c-0.364-0.762-0.774-1.522-0.929-2.361
		c-0.09-0.488-0.108-1.131-0.601-1.408c-0.045-0.025-0.09,0.311-0.09,0.352c-0.654-1.687-1.6-3.507-1.052-5.36
		c0.049,0.139,0.006,0.237-0.132,0.293c-0.17-1.162,0.097-2.456-0.59-3.492c-0.298,1.299-0.698,2.58-0.432,3.924
		c0.26,1.308-0.353,2.607-0.059,3.916c0.01,0.023,0.254,0.475,0.276,0.667c0.053,0.473,0.471,0.711,0.636,1.128
		c0.155,0.39,0.142,0.817,0.273,1.214c0.246-0.067,0.185-0.374,0.233-0.552c-0.029,1.101,0.463,2.165,1.017,3.089
		c0.137,0.229,0.96,1.434,0.568,1.656c-0.291-0.495-0.516-1.035-0.902-1.469c1.166,2.382,2.509,4.41,3.99,6.592
		c0.602,0.887,1.029,1.597,2.025,2.07c0.928,0.441,1.539,1.138,2.178,1.929c0.307,0.38,1.117,1.065,1.207,1.581
		c0.069,0.395,1.113,0.761,1.462,0.987c0.756,0.489,1.683,0.854,2.337,1.476c1.048,0.997,0.264,1.557-0.031,2.659
		c-0.315-0.263-0.728-0.388-1.054-0.64c-0.814-0.629,0.533-0.16-0.286-0.403c0.107,0.059,0.597,0.206,0.045,0.044
		c0.753,0.221-0.445-0.11,0.115,0.023c0.226,0.08,0.187,0.072-0.117-0.024C20.13,47.119,20.216,47.144,20.298,47.183
		C19.592,46.986,20.301,47.159,20.298,47.183C19.675,47.009,20.301,47.159,20.298,47.183C19.747,47.029,20.301,47.157,20.298,47.183
		z M21.325,48.147c-0.063,0.239-0.321-0.121-0.413-0.265C21.049,47.97,21.192,48.052,21.325,48.147z M79.006,56.196
		c0.481,0.12,0.698,0.626,0.722,1.076c-0.07-0.161-0.019-0.261,0.152-0.302c0.001,0.102-0.009,0.082-0.029-0.061
		c1.026,1.355-0.421,2.917-0.309,4.362c0.158,2.05,0.988,4.1,0.433,6.159c0.253-0.392,0.392-0.84,0.559-1.271
		c-0.099,0.872-0.146,2.114-1.162,2.427c-0.524,0.161-1.044-0.079-1.569-0.086c-0.788-0.011-1.581,0.106-2.364-0.032
		c0.37,0.001,0.741,0.002,1.111,0.003c-0.991-0.089-9.529,0.61-9.529-0.263c0.971-0.011,1.943-0.058,2.914-0.023
		c0.849,0.031,1.744,0.242,2.558-0.11c-0.85,0-1.705,0.16-2.546-0.034c-1.069-0.247-1.982,0.086-3.071,0.06
		c-2.455-0.059-4.912-0.226-7.368-0.3c-4.784-0.143-9.537-0.02-14.316,0.2c-0.699,0.032-1.689,0.212-2.266-0.296
		c-0.531-0.467-0.828-0.295-1.559-0.294c-0.673,0.001-1.601-0.028-2.036,0.598c-0.254,0.366-1.361,0.117-1.707,0.076
		c-4.303-0.507-8.729,0.339-13.007-0.365c0.314,0.291-1.828,0.217-1.239-0.225c-0.96,0.233-2.004-0.538-2.9,0.076
		c0.108-0.014,0.135,0.026,0.082,0.121c-0.75-0.088-0.171-1.062-0.303-1.487c-0.329-1.06-0.045-2.12-0.061-3.197
		c-0.027-1.782-0.877-3.883-0.009-5.578c0.814-1.59,3.098-0.79,4.47-0.641c2.525,0.274,5.084,0.188,7.619,0.159
		c2.468-0.028,4.99-0.335,7.453-0.196c1.577,0.089,4.218,0.918,4.687-1.252c0.318-1.471-0.1-2.955-0.117-4.43
		c-0.014-1.163,0.025-2.326,0.123-3.485c0.04-0.473,0.142-1.032-0.076-1.48c-0.035-0.073-0.334-0.537-0.246-0.24
		c0.158-1.265-0.061-2.565,0.281-3.808c0.036,0.168-0.025,0.25-0.185,0.245c-0.167-0.129,0.015-1.024,0.001-1.206
		c-0.07-0.876-0.095-1.754-0.098-2.632c-0.005-1.581,0.06-3.162,0.057-4.743c-0.003-1.395-0.18-2.667,0.07-4.05
		c0.08-0.44-0.031-0.811,0.006-1.243c0.057-0.677,1.091-0.439,1.535-0.544c-0.126,0.003,0.367,0.161,0.452,0.181
		c0.793,0.184,1.709-0.05,2.516-0.049c1.64,0.003,3.227-0.097,4.857-0.171c1.119-0.051,2.028,0.462,1.944,1.693
		c-0.113,1.673-0.082,3.315-0.034,4.989c0.197,6.902-0.405,13.919,1.117,20.716c1.382-1.597,3.686-0.698,5.4-0.321
		c-0.244-0.01-0.543-0.254-0.763-0.014c0.626-0.683,1.696,0.12,2.357,0.317c1.265,0.377,2.589,0.088,3.88,0.132
		c1.348,0.046,2.688,0.243,4.038,0.246c1.326,0.002,2.631,0.659,3.959,0.318c-0.332,0.045,0.073-0.314,0.381-0.242
		c0.01,0.002,0.596,0.247,0.448,0.295c-0.279,0.025-0.232-0.043,0.14-0.202c0.327-0.148,0.695-0.133,1.038-0.062
		c0.372,0.077,0.727,0.215,1.083,0.343c0.078,0.028,1.147,0.262,0.395,0.151c0.089,0.021,0.179,0.042,0.268,0.063
		c-0.752-0.263,0.522,0.076-0.249-0.081C79.28,56.266,79.283,56.271,79.006,56.196c0.712,0.178-0.463-0.142,0.198,0.051
		C79.141,56.229,79.069,56.202,79.006,56.196C79.49,56.317,78.942,56.19,79.006,56.196z M96.096,17.353
		c-0.091,1.713,0.056,3.446-0.415,5.118c-0.473,1.678-0.838,3.385-1.296,5.067c-0.834,3.058-2.349,5.797-4.167,8.376
		c-0.9,1.277-1.764,2.616-2.815,3.774c-0.322,0.355-1.044,0.706-1.266,1.073c-0.264,0.436-0.46,0.775-0.826,1.142
		c-1.147,1.15-2.4,2.275-3.744,3.19c-1.154,0.786-2.444,1.426-3.407,2.459c-1.196-3.246-2.472-6.633-5.014-9.089
		c-0.596-0.576-2.378-1.575-1.531-2.6c0.123-0.149,0.749-0.901,0.951-0.521c0.84-0.511,1.698-0.991,2.559-1.466
		c-0.39,0.03-0.78,0.06-1.17,0.09c0.91-0.391,1.811-0.807,2.692-1.262c0.813-0.42,1.428-1.143,2.271-1.514
		c-0.225,0.167-0.449,0.333-0.674,0.5c0.793-0.469,4.638-5.447,5.454-4.727c-0.515,0.58-0.991,1.195-1.558,1.726
		c-0.448,0.419-1.011,0.754-1.283,1.329c2.187-2.04,4.569-4.255,6.113-6.826c0.7-1.165,1.617-2.169,2.264-3.378
		c0.825-1.542,1.223-3.256,1.637-4.941c0.374-1.523,0.977-2.946,1.403-4.445c0.205-0.722,0.22-1.478-0.195-2.134
		c-0.433-0.685-0.355-1.537-0.262-2.302c0.101-0.822-0.184-2.742,0.785-3.13c0.771-0.309,0.902,1.347,0.973,1.776
		c0.144-0.255,1.003,1.225,0.127,0.894c0.917,0.566,0.638,1.808,1.127,2.632c-0.118-0.189-0.219-0.388-0.303-0.595
		c0.874-0.253,0.58,1.394,0.731,1.825c0.076,0.218,0.685,2.299,0.4,2.182c0.52,0.535,1.056,6.129,0.526,6.167
		C96.408,17.726,96.158,17.396,96.096,17.353c-0.038,0.178-0.02,0.35,0.055,0.516C95.964,17.739,96.3,17.495,96.096,17.353
		c-0.038,0.178-0.02,0.349,0.055,0.514C95.983,17.75,96.289,17.487,96.096,17.353c-0.038,0.178-0.02,0.349,0.055,0.514
		C96.009,17.768,96.276,17.478,96.096,17.353c-0.038,0.178-0.02,0.349,0.055,0.514C96.047,17.795,96.259,17.467,96.096,17.353
		c-0.038,0.178-0.019,0.349,0.055,0.514C96.102,17.833,96.239,17.453,96.096,17.353c-0.038,0.178-0.019,0.349,0.055,0.514
		C96.17,17.881,96.223,17.441,96.096,17.353c-0.037,0.182-0.019,0.353,0.055,0.514C96.226,17.92,96.238,17.452,96.096,17.353
		C96.002,19.133,96.454,17.602,96.096,17.353z M86.628,31.26c0.053,0.107-0.37,0.91-0.165,0.923
		c-0.724-0.111-0.841,0.817-1.032,1.296c-0.368,0.923-1.454,1.335-2.237,1.821c-2.03,1.262-3.765,2.922-5.644,4.386
		c-0.576,0.449-1.44,1.238-2.224,0.782c-0.68-0.395-1.02-1.393-0.277-1.894c0.24-0.162,2.572-1.746,2.428-1.901
		c0.673,0.503,1.213-0.941,1.495-1.308c0.331-0.432,1.721-0.164,1.43-1.02c0.556,0.614,0.976-0.512,0.893-0.955
		c0.055,0.292,1.611-0.572,1.647-0.955c0.065,0.21,0.213,0.05,0.291-0.032c-0.099,0.113-0.265,0.384,0.014,0.431
		c-0.299-0.473,0.753-0.487,0.985-0.47c-0.457-0.032,0.001-0.457-0.239-0.667c0.575-0.123,0.925-0.433,1.55-0.424
		c-0.002,0,1.425-0.055,0.888,0.085c-0.004,0,0.315-0.124,0.234,0.058c-0.027-0.04-0.356-0.261-0.051-0.174
		c-0.111,0.017-0.117,0.041-0.018,0.073c-0.253,0.067,0.148-0.202-0.142-0.044C86.511,31.268,86.57,31.264,86.628,31.26
		C86.683,31.371,86.193,31.248,86.628,31.26z M54.033,62.292c0.903,0.696-0.878,2.167-1.321,2.628
		c-0.608,0.633-1.372,1.278-2.307,1.235c-0.216-0.01-1.433-0.211-1.373,0.226c-0.253-0.471-0.853-0.52-1.309-0.649
		c-0.601-0.17-1.145-0.528-1.541-1.01c-0.442-0.54-0.719-1.199-0.882-1.872c-0.182-0.75,0.329-1.63-0.172-2.311
		c0.526,0.306,1.521-2.167,1.377-2.475c0.092,0.552,1.082-0.269,1.255-0.407c0.718-0.572,1.718,0.12,2.441-0.438
		c-0.209,0.169,0.357,0.253,0.437,0.245c-0.248,0.031-0.496,0.036-0.745,0.015c0.115,0.3,0.468,0.219,0.705,0.215
		c0.499-0.009,0.823,0.468,0.998,0.872c-0.223-0.392,0.57-0.171,0.698-0.134c0.579,0.172,0.794,0.745,0.877,1.294
		c0.066,0.439-0.002,1.797-0.631,1.886c-0.169,0.024-0.71-0.59-0.71-0.589c0.765-0.924-1.719-1.477-2.29-1.47
		c-1.651,0.02-2.483,2.336-1.649,3.606c1.859,2.831,5.539-2.988,6.345-0.713c-0.026-0.074-0.19-0.165-0.258-0.201
		c0.102,0.09,0.21,0.173,0.323,0.249c-0.661-0.49,0.045,0.034,0.029,0.022c-0.41-0.306-0.396-0.295,0.04,0.033
		C54.387,62.431,54.019,62.39,54.033,62.292c0.116,0.093,0.234,0.182,0.355,0.268C54.399,62.484,54.025,62.348,54.033,62.292
		C54.886,62.95,54.037,62.267,54.033,62.292z M63.886,61.742c-0.026,0.374,0.632,0.305,0.654,0.751
		c0.024,0.496-0.414,0.972-0.728,1.305c-0.337,0.357-0.721,0.855-1.221,0.978c-0.245,0.06-1.342-0.328-1.322,0.129
		c-0.137-0.459-1.191-0.447-1.558-0.691c-0.78-0.519-0.893-1.2-0.832-2.079c0.043-0.625-0.266-0.842,0.068-1.33
		c0.225-0.328,0.57-1.035,0.417-1.44c0.082-0.127,0.862,0.489,0.134-0.185c0.175,0.53,0.703-0.043,0.874-0.252
		c0.452-0.552,1.182,0.191,1.689-0.224c-0.195,0.237,0.166,0.207,0.275,0.221c-0.426,0.009,0.501,0.806,0.518,0.935
		c-0.1-0.486,0.454-0.085,0.631-0.34c0.36,1.053,0.515,2.439-1.147,1.902c-0.353-0.114-1.481-0.47-1.437,0.323
		c0.028,0.504,0.897,0.45,1.088,0.83c0.007-1.021,1.376-0.617,1.869-0.663c-0.119-0.332,0.194-0.015,0,0.003
		C63.836,61.853,63.845,61.795,63.886,61.742C63.865,62.047,63.813,61.749,63.886,61.742z M74.886,61.742
		c-0.026,0.374,0.632,0.305,0.654,0.751c0.024,0.496-0.414,0.972-0.728,1.305c-0.337,0.357-0.721,0.855-1.221,0.978
		c-0.245,0.06-1.342-0.328-1.322,0.129c-0.137-0.459-1.191-0.447-1.558-0.691c-0.78-0.519-0.893-1.2-0.832-2.079
		c0.043-0.625-0.266-0.842,0.068-1.33c0.225-0.328,0.57-1.035,0.417-1.44c0.082-0.127,0.862,0.489,0.134-0.185
		c0.175,0.53,0.703-0.043,0.874-0.252c0.452-0.552,1.182,0.191,1.689-0.224c-0.195,0.237,0.166,0.207,0.275,0.221
		c-0.426,0.009,0.501,0.806,0.518,0.935c-0.1-0.486,0.454-0.085,0.631-0.34c0.36,1.053,0.515,2.439-1.147,1.902
		c-0.353-0.114-1.481-0.47-1.437,0.323c0.028,0.504,0.897,0.45,1.088,0.83c0.007-1.021,1.376-0.617,1.869-0.663
		c-0.119-0.332,0.194-0.015,0,0.003C74.836,61.853,74.845,61.795,74.886,61.742C74.865,62.047,74.813,61.749,74.886,61.742z
		 M46.838,50.83c-0.549-0.116,0.148-1.067-0.105-1.375c0.237,0.196,0.207-0.166,0.221-0.275c0.009,0.426,0.806-0.501,0.935-0.518
		c-0.486,0.1-0.085-0.454-0.34-0.631c1.053-0.36,2.439-0.515,1.902,1.148c-0.114,0.353-0.471,1.481,0.323,1.436
		c0.504-0.028,0.45-0.897,0.83-1.088c-1.301-0.009-1.141-2.801,0.164-2.488c0.774,0.186,0.887,1.247,1.581,1.558
		c0.369,0.165,0.278,1.663,0.585,1.65c-0.459,0.137-0.447,1.191-0.691,1.558c-0.519,0.78-1.2,0.893-2.079,0.832
		c-0.625-0.043-0.842,0.266-1.33-0.069c-0.328-0.225-1.035-0.57-1.44-0.417c-0.127-0.082,0.489-0.862-0.185-0.134
		c0.329-0.109,0.182-0.5,0.061-0.704c-0.083-0.141-0.185-0.265-0.307-0.374C46.69,50.703,46.667,50.941,46.838,50.83
		C46.264,50.709,46.846,50.892,46.838,50.83C46.289,50.714,46.849,50.913,46.838,50.83C46.319,50.72,46.852,50.937,46.838,50.83z
		 M46.696,39.85c0.233-0.407,0.365-0.996,0.037-1.396c0.237,0.195,0.207-0.166,0.221-0.275c0.009,0.426,0.806-0.501,0.935-0.518
		c-0.486,0.1-0.085-0.454-0.34-0.631c1.053-0.36,2.439-0.515,1.902,1.148c-0.114,0.353-0.471,1.481,0.323,1.436
		c0.504-0.028,0.45-0.897,0.83-1.088c-1.301-0.009-1.141-2.801,0.164-2.488c0.774,0.186,0.887,1.247,1.581,1.558
		c0.368,0.165,0.279,1.664,0.585,1.65c-0.459,0.137-0.447,1.191-0.691,1.558c-0.519,0.78-1.2,0.893-2.079,0.832
		c-0.625-0.043-0.842,0.266-1.33-0.068c-0.328-0.225-1.035-0.57-1.44-0.417c-0.127-0.082,0.489-0.862-0.185-0.134
		c0.744-0.246-0.492-1.238-0.502-1.229C46.798,39.713,46.987,39.866,46.696,39.85C46.934,39.434,46.862,39.859,46.696,39.85
		C46.921,39.458,46.892,39.861,46.696,39.85C46.928,39.446,46.924,39.862,46.696,39.85z M28.886,61.742
		c-0.026,0.374,0.632,0.305,0.654,0.751c0.024,0.496-0.414,0.972-0.728,1.305c-0.337,0.357-0.721,0.855-1.221,0.978
		c-0.245,0.06-1.342-0.328-1.322,0.129c-0.137-0.459-1.191-0.447-1.558-0.691c-0.78-0.519-0.893-1.2-0.832-2.079
		c0.043-0.625-0.266-0.842,0.068-1.33c0.225-0.328,0.57-1.035,0.417-1.44c0.082-0.127,0.862,0.489,0.134-0.185
		c0.175,0.53,0.703-0.043,0.874-0.252c0.452-0.552,1.182,0.191,1.689-0.224c-0.195,0.237,0.166,0.207,0.275,0.221
		c-0.426,0.009,0.501,0.806,0.518,0.935c-0.1-0.486,0.454-0.085,0.631-0.34c0.36,1.053,0.515,2.439-1.147,1.902
		c-0.353-0.114-1.481-0.47-1.437,0.323c0.028,0.504,0.897,0.45,1.088,0.83c0.007-1.021,1.376-0.617,1.869-0.663
		c-0.119-0.332,0.194-0.015,0,0.003C28.836,61.853,28.845,61.795,28.886,61.742C28.865,62.047,28.813,61.749,28.886,61.742z
		 M39.886,61.742c-0.026,0.374,0.632,0.305,0.654,0.751c0.024,0.496-0.414,0.972-0.728,1.305c-0.337,0.357-0.721,0.855-1.221,0.978
		c-0.245,0.06-1.342-0.328-1.322,0.129c-0.137-0.459-1.191-0.447-1.558-0.691c-0.78-0.519-0.893-1.2-0.832-2.079
		c0.043-0.625-0.266-0.842,0.068-1.33c0.225-0.328,0.57-1.035,0.417-1.44c0.082-0.127,0.862,0.489,0.134-0.185
		c0.175,0.53,0.703-0.043,0.874-0.252c0.452-0.552,1.182,0.191,1.689-0.224c-0.195,0.237,0.166,0.207,0.275,0.221
		c-0.426,0.009,0.501,0.806,0.518,0.935c-0.1-0.486,0.454-0.085,0.631-0.34c0.36,1.053,0.515,2.439-1.147,1.902
		c-0.353-0.114-1.481-0.47-1.437,0.323c0.028,0.504,0.897,0.45,1.088,0.83c0.007-1.021,1.376-0.617,1.869-0.663
		c-0.119-0.332,0.194-0.015,0,0.003C39.836,61.853,39.845,61.795,39.886,61.742C39.865,62.047,39.813,61.749,39.886,61.742z"/>
</g>
<g id="Layer_1">
</g>
</svg>
