<?xml version="1.0" encoding="utf-8"?>
<!-- Generator: Adobe Illustrator 17.1.0, SVG Export Plug-In . SVG Version: 6.00 Build 0)  -->
<!DOCTYPE svg PUBLIC "-//W3C//DTD SVG 1.1//EN" "http://www.w3.org/Graphics/SVG/1.1/DTD/svg11.dtd">
<svg version="1.1" id="Layer_1" xmlns="http://www.w3.org/2000/svg" xmlns:xlink="http://www.w3.org/1999/xlink" x="0px" y="0px"
	 viewBox="0 0 31.6 31.6" enable-background="new 0 0 31.6 31.6" xml:space="preserve">
<path id="_x2E_svg_2_" fill="#A6A6A6" d="M21.9,12.4c1.8,3.2,0.1,7.5-3.1,9.1c-3.7,1.9-9-0.4-9.8-4.6c-0.3-1.7,0.1-3.6,1-5
	c0.5-0.7,1.1-1.4,1.8-1.9c0.7-0.4,2-1.1,2.9-1c0.3,0,1,0.2,1,0.6c0,0.3-0.4,0.6-0.7,0.8c-0.1,0.1-0.7,0.1-0.8,0.1
	c-0.4,0.1-0.7,0.3-1.1,0.5c-0.6,0.3-2.6,2-2.4,2.8c0,0.1-0.2,0.7-0.3,0.9c0,0.3-0.1,0.5-0.1,0.8c0,0.2,0.2,0.7,0.1,0.8
	c0,0,0,0.1,0,0.1c0.2-0.1,0.1,0.4,0.1,0.5c0.2-0.1,0.3,0.6,0.3,0.7c0.2,0.6,1.1,1.4,1.6,1.8c0.7,0.5,1.3,0.9,2.1,1.1
	c0.2,0.1,0.7,0.2,1,0.1c0,0.2,0.8-0.1,0.6,0.1c0.1,0,0.5-0.3,0.2-0.1c0.2-0.2,0.5,0,0.6-0.2c0,0.4,1.2-0.2,1.5-0.4
	c0.2-0.1,0.4-0.3,0.7-0.4c0.3-0.2,0-0.6,0.2-0.5c0-0.1,0.1-0.2,0.1-0.3c0,0.3,0.6-0.2,0.6-0.3c0.2-0.2,0.4-0.7,0.5-1
	c0.2-0.6,0.9-1.9,0.4-2.4c0.1,0.1,0.1-0.5,0.1-0.6c0.1,0.2,0.1,0.9,0.2,0.9c0-0.3,0.1-1-0.3-1.2c0-0.1-0.1-0.7,0.1-0.3
	c0-0.5-0.2-0.9-0.3-1.3c0,0.1-0.1,0.2-0.1,0.3c-0.1-0.3-0.2-0.9-0.7-0.7c-0.2-0.2-0.2-0.7-0.5-0.7c0.1,0.2-0.2-0.2,0,0.1
	c-0.3-0.3-0.5-0.6-0.7-0.9c0.1-0.1-1-0.7-1.2-0.8C17.4,10,17.2,9.9,17,9.8c0,0-0.5-0.2-0.3-0.1c-0.3-0.2-0.6-0.3-1-0.5
	c0.2-0.1,1.1-0.1,1.4-0.1c0.2,0,0.4,0.1,0.6,0.1c0.1,0,0.7,0.3,0.3,0c0.4,0.3,1.1,0.4,1.5,0.8c0.5,0.5,1.1,0.9,1.6,1.4
	c-0.3-0.7,0.2,0,0.3,0.1C21.6,11.9,21.8,12.2,21.9,12.4c0-0.1-0.1-0.2-0.1-0.3C21.8,12.3,21.8,12.4,21.9,12.4
	C23.7,15.7,21.6,11.8,21.9,12.4z M25.8,14.4c0,0-0.1,0-0.1,0c0-0.1-0.1-0.2-0.1-0.3c0.7-0.1,1.5-0.1,2.2,0.1
	c-0.6-0.2,0.6-0.1,0.8-0.1c0.2,0,0.4-0.2,0.6-0.2c0.3,0,0.7,0.1,1-0.1c-0.4-0.1-0.8-0.2-1.2-0.4c0.3,0-0.3-0.2-0.3-0.1
	c0,0.1-0.8,0-0.9,0c-0.4,0-0.8-0.1-1.2-0.1c-0.3,0-0.6-0.2-0.6-0.1c-0.1,0-0.2-0.1-0.3-0.1c0.2,0-0.4-0.1-0.5-0.1
	c-0.2,0-0.4,0-0.6-0.1c-0.2,0-1-0.2-0.5,0.1c-0.3-0.1-0.1,0,0,0c-0.3,0.1-0.1,0.9,0,1.1c0.1,0.3,0.3,0.3,0.4,0.6c0.1,0.3,0,0.7,0,1
	c0.1-0.1,0.2-0.2,0.2-0.3c-0.1,0.3-0.1,0.6-0.1,0.9c0,0.1-0.2,1.1-0.1,0.5c-0.1,0.3-0.3,2-0.6,1.9c0.1-0.3,0.3-0.7,0.2-1.1
	c0,0.1-0.3,0.7-0.3,0.6c0.1,0.3,0,0.5-0.1,0.7c-0.1,0.1-0.4,0.7-0.3,0.6c-0.2,0.7-0.8,1.1-1.2,1.7c-0.3,0.3-0.4,0.7-0.8,0.9
	c-0.1,0-0.8,0.5-0.7,0.2c-0.1,0.4-0.2,0-0.4,0.3c-0.2,0.3,0.1,0.4-0.4,0.6c-0.7,0.2-1.3,0.6-2,0.8c0.1-0.2-0.4,0-0.5,0
	c0.2,0.2-0.3,0.2-0.3-0.1c-0.1,0-0.8,0.1-0.8,0.2c0.5-0.2-0.1,0.1-0.2,0.1c0.2-0.1-0.2,0-0.3-0.1c0.1,0-0.7,0.1-0.7,0.1
	c-0.3,0-0.6-0.2-0.8-0.1c-0.7,0.2-2.1-0.6-2.7-0.9c-0.8-0.5-2-0.9-2.5-1.8C9,21,8.1,20.2,8.2,19.6c-0.1,0.2-0.1,0-0.1-0.1
	c0.1,0.3-0.4-0.6-0.3-0.5c-0.2-0.4-0.3-0.7-0.4-1.1c-0.1-0.5-0.2-1-0.3-1.5c0-0.4-0.2-0.7-0.1-1.1c0.1-0.7,0.3-1.3,0.4-1.9
	c0.1-0.5,0.3-0.7-0.3-0.7c-0.9,0-1.9,0.1-2.8,0.2c-0.5,0-0.9,0-1.4-0.1c-0.7-0.1-1.1,0.1-1.8,0.5c0.7,1.4,2.7,0.8,4,0.9
	c0.6,0,0.4,0.6,0.4,1.1c0,0.9,0.1,1.7,0.2,2.6c0.7,3.5,3.1,5.8,6.3,7.3c3.4,1.6,7.8,0.4,10.5-2c1.5-1.3,2.4-2.9,2.9-4.8
	C25.9,17.4,26.7,15.2,25.8,14.4C25.8,14.4,25.9,14.4,25.8,14.4z M25.6,3.1c0.1,0,0.1,0.1,0.2,0.1c-0.6,0.1-1.5,0.3-2-0.1
	c0.2,0.1-1,0.1-1.2,0.3C22.9,3.7,23,3.9,23.3,4c0-0.2,1.3,0.3,1.3,0.3c0.1,0.2,0.5,0.2,0.7,0.3c-0.1-0.1,0-0.1-0.1-0.1
	c0.1-0.1,0.4,0.1,0.5,0.1c0-0.4,0.3-0.2,0.5-0.1c0,0-0.1-0.3-0.1-0.3c0.2,0.2,0.3,0.3,0.5,0.5c-0.2-0.2,0.2,0.4,0.3,0.5
	c-0.2,0-0.2,0.1-0.3-0.2c0.2,0.4-0.1,1-0.1,1.6c0,0.1,0.3,1.5-0.2,1.2c0.2,0.1,0.2,0.2,0,0.2c0,0.1,0.3,0.1,0.3,0.1
	c0.1,0.1,0,0.4,0,0.6c0,0.1-0.1,0.4-0.2,0.3c0,0.2-0.2,0-0.1,0.1c-0.1,0-0.2-0.1-0.2-0.1c0,0.1,0,0-0.1,0c0,0.2,0,0.2,0,0.1
	c0,0.1,0,0.1,0,0.2c0,0,0-0.1-0.1-0.1c0,0.1,0,0.1-0.1,0.1c0.1,0-0.3,0-0.3,0c-0.2,0-0.3-0.1-0.5-0.1c-0.4,0.1-0.9,0-1.3-0.1
	c-0.3,0-2.2,0.1-1.9-0.3c-0.3,0.2-0.2-1-0.2-1.1c0-0.3-0.1-0.6-0.2-0.9c0-0.5,0-0.9,0-1.4c0-0.2-0.1-0.3,0.1-0.5
	c0,0,0.4-0.3,0.4-0.3c0.1-0.4,0.4-1-0.2-1.2c-0.7-0.2-1.2,0.5-1.5,1c-0.6,1.2-0.4,2.9-0.3,4.2c0.1,1.6,1.4,2.2,2.8,2.2
	c1.2,0,3.1,0.2,4.2-0.6c0.5-0.4,0.7-1,0.7-1.6c0-0.9,0-1.9,0-2.9C28.2,4.4,27.1,2.5,25.6,3.1C25.6,3.2,26.4,2.8,25.6,3.1z M1.6,14.1
	c0,0.3-0.1,0.5-0.1,0.8c0-2,0.1-4,0-6c0.1,0.5,0-0.6,0-0.6c-0.1-0.5,0-0.9,0-1.4c0-0.8,0.1-1.6,0.2-2.4c0,0.2,0,0.4-0.1,0.6
	c-0.1-1,0.1-2.2,0.9-3c0.6-0.5,1.4-0.7,2.2-1C3.6,1.2,2.8,1.4,2,1.8c0.1-0.1,0.2-0.2,0.3-0.2C2.1,1.8,1.7,2,1.4,2.3
	C1.1,2.2,0.6,4.9,0.6,5.1C0.5,5.9,0.5,6.8,0.5,7.6c0,0.2,0,1.1-0.1,1.3c0-0.1,0-0.1,0.1-0.2C0.3,8.8,0.4,9.4,0.4,9.5
	c0.1-0.5-0.1-0.1-0.1,0c-0.1,0.3,0,0.6,0,0.9c0,0.3,0,0.6,0,0.9c0,0.2-0.3,1.7,0,0.8c-0.1,0.4,0,0.1,0,0c0.1,0.5,0,1.1-0.1,1.6
	c0,0.3-0.1,0.6-0.1,0.9c0,0.3,0.1,0.3,0.2,0.6c0.2,0.9,0,1.9,0,2.9c0.1-0.3,0.2-0.5,0.3-0.8c-0.1,1.4,0,2.8-0.3,4.2
	c0-0.2,0-0.4,0-0.6c-0.1,0.7-0.1,1.3,0,1.9c0,0.4,0.2,3.4-0.1,3.4c0-1,0.2-2.1-0.1-3c0,0.4,0.1,0.9,0,1.4c0,0.1-0.1,0.7-0.1,0.5
	c0.2,0.8,0,1.6,0.1,2.4c0.1,0.7,0.3,1.4,0.7,2c-0.3-0.5,0.3,0.2,0.3,0.3c0.2,0.2,0.4,0.4,0.6,0.6c0.4,0.3,0.9,0.6,1.4,0.8
	c1.3,0.5,2.6,0.3,3.9,0.3c0.5,0,1-0.2,1.5-0.1c0.4,0,0.8,0.1,1.2,0.1c0.5,0,0.9-0.1,1.4-0.1c0.1,0,0.9,0.3,0.4,0.3
	c0.2-0.1,0.6-0.2,0.9-0.1c0,0,0,0.1-0.1,0.1c0.3,0,0.5,0,0.7-0.1c0.1-0.1,0.7-0.1,0.3-0.2c0.8-0.1,2.3,0,2.8,0c1.4-0.1,2.8,0,4.2,0
	c-0.4,0.2,0.3,0.1,0.4,0.1c0.3,0,0.6,0,0.9,0c-0.4-0.3,1-0.1,0.7,0.1c0.6-0.3,1.6,0,2.3-0.1c-0.2,0-0.3,0-0.5,0.1
	c0.2-0.4,0.8-0.1,1.2-0.2c-0.7,0.1,0.6,0.1,0.8,0.1c-0.5,0,0.3-0.1,0.4-0.1c0.2-0.1,1.3-0.2,1.1,0c0.1-0.1,1-0.2,1-0.3
	c-0.4,0.2,0.6-0.2,0.7-0.2c0.3-0.2,0.6-0.4,0.9-0.6c0.6-0.6,1.1-1.4,1.3-2.2c0.2-0.8,0.2-1.7,0.2-2.6c0-1.1,0.1-2.1,0.1-3.2
	c0-2.2,0-4.4-0.1-6.6c-0.1-2.1-0.2-4.3-0.1-6.3c0,0,0,0.1-0.1,0.1c0-0.2,0.1-1,0.1-0.8c-0.1,0,0-1.2,0-1.3c-0.3,0.6-0.1-0.7-0.1-0.2
	C31.2,5,31.7,2.3,29.6,1c-0.1,0-0.8-0.7-1.2-0.8c-0.4-0.1-0.8-0.1-1.2-0.1c-0.2,0-1,0.1-0.7,0c-0.1,0-0.3,0-0.4,0.1
	C26.3,0,26.2,0,25.8,0c-0.4,0-0.8,0-1.2,0c-0.7,0-1.3,0-2,0c-1.4,0-2.9,0-4.3,0c0.4,0.1-0.5,0-0.5,0c-0.3,0-0.7,0-1,0
	c-0.6,0-1.3,0-1.9,0c-1.4,0-2.9,0.1-4.3,0.1c-0.7,0-1.5,0-2.2,0c-0.5,0-1.1-0.2-1.6,0C6,0.4,5.3,0.5,4.6,0.6c1.9,1.5,4.8,0.9,7,0.9
	c3.2,0,6.3,0.1,9.5,0.1c1.5,0,3,0,4.5,0c1.4-0.1,2.6-0.2,3.5,1c0.8,1,0.8,2.2,0.8,3.4c0,1.7,0,3.3,0,5c0,3.2,0,6.4,0,9.7
	c0,1.5,0,3-0.1,4.5c0,1.2,0.1,2.8-0.7,3.8c-1.4,1.7-4.2,1.1-6,1c-3.1-0.2-6.2,0-9.2,0c-2.4,0-4.9,0.1-7.3,0.1c-1.7,0-3.8,0-4.7-1.8
	c-0.4-0.8-0.4-1.8-0.4-2.7c0-1.2,0.1-2.4,0.1-3.6C1.8,19.2,1.8,16.6,1.6,14.1C1.6,14.4,1.8,16.7,1.6,14.1z"/>
<g>
</g>
<g>
</g>
<g>
</g>
<g>
</g>
<g>
</g>
<g>
</g>
<g>
</g>
<g>
</g>
<g>
</g>
<g>
</g>
<g>
</g>
<g>
</g>
<g>
</g>
<g>
</g>
<g>
</g>
</svg>
