<?xml version="1.0" encoding="iso-8859-1"?>
<!-- Generator: Adobe Illustrator 17.1.0, SVG Export Plug-In . SVG Version: 6.00 Build 0)  -->
<!DOCTYPE svg PUBLIC "-//W3C//DTD SVG 1.1//EN" "http://www.w3.org/Graphics/SVG/1.1/DTD/svg11.dtd">
<svg version="1.1" xmlns="http://www.w3.org/2000/svg" xmlns:xlink="http://www.w3.org/1999/xlink" x="0px" y="0px"
	 viewBox="0 0 64.074 39.145" style="enable-background:new 0 0 64.074 39.145;" xml:space="preserve">
<g id="lips">
	<path style="fill:#F7A13A;" d="M64.001,19.83c0.216,1.084-1.127,1.92-1.744,2.601c-0.986,1.09-2.029,2.128-3.038,3.197
		c-2.312,2.448-4.734,4.567-7.494,6.506c-5.763,4.05-11.976,6.983-19.145,7.011c-6.544,0.026-13.045-2.16-18.543-5.669
		c-2.956-1.887-5.539-4.242-8.099-6.623c-2.08-1.934-4.895-3.743-5.043-6.799c0.588,0.362,1.208,0.671,1.8,1.029
		c0.692,0.418,1.09,1.018,1.657,1.593c1.756,1.781,3.702,3.603,5.676,5.137c4.047,3.146,8.062,5.497,12.98,7.545
		c-0.317-0.002,0.266,0.032,0.347,0.05c-0.058,0.006-0.116,0.011-0.174,0.017c0.238,0.093,0.48,0.175,0.726,0.246
		c0.481,0.135,0.97,0.125,1.454,0.226c0.375,0.078,1.19,0.576,1.424,0.536c2.489,0.207,4.981,0.719,7.48,0.33
		c-0.509,0.109,0.956,0.283,0.286-0.117c0.152,0.052,1.544-0.019,1.568-0.131c-0.19,0.062,0.827-0.004,1.012-0.008
		c-0.549-0.112,0.719-0.288,0.857-0.289c0.653-0.11,1.288-0.306,1.923-0.488c1.216-0.349,2.405-0.805,3.55-1.339
		c2.564-1.196,4.779-2.742,7.056-4.398c3.392-2.467,6.342-5.346,9.215-8.238c-0.216,0.336,0.538-0.534,0.607-0.76
		c0.051,0.49,0.834-0.68,0.94-0.778c-0.014-0.03-0.059-0.291,0.132-0.212c-0.287-0.146-0.644-0.081-0.334-0.08
		c-0.868,0.107-1.17-1.111-2.009-1.093c0.478-0.077-0.833-1.194-0.658-0.57c-0.256-0.21-0.493-0.467-0.78-0.636
		c-0.196-0.115-0.563-0.178-0.743-0.328c0.387,0.03,0.304-0.052-0.249-0.246c-0.467-0.244-0.933-0.491-1.401-0.734
		c-0.768-0.399-1.542-0.787-2.339-1.126c-0.843-0.359-2.341-1.269-3.63-1.6c0.348,0.237-1.047,0.163-1.366-0.008
		c0.106,0.04,0.156,0.025,0.151-0.044c-0.252-0.162-0.74-0.216-1.035-0.229c0.097,0.03,0.157,0.005,0.178-0.074
		c-0.208-0.579-1.739-0.762-2.201-0.846c-0.692-0.126-1.143-0.55-1.878-0.414c-0.733,0.136-1.495,0.111-2.214,0.327
		c-0.817,0.245-1.441,0.703-2.23,0.961c-0.508,0.166-0.96,0.319-1.427,0.583c-0.395,0.222-0.786,0.452-1.156,0.715
		c0.006-0.004-1.154,0.774-0.496,0.482c-0.755,0.585-1.491,1.195-2.194,1.841c-0.573,0.526-0.842,1.147-1.529,0.49
		c-1.068-1.022-1.861-1.982-3.114-2.87c1.356,0.556,2.31,1.871,3.339,2.856c-0.125-0.639-0.796-0.909-1.244-1.28
		c-0.471-0.534-0.967-1.052-1.524-1.498c-0.791-0.634-1.822-1.285-2.707-1.808c0.229,0.103,0.448,0.223,0.657,0.362
		c-1.028-1.002-3.336-1.807-4.735-1.971c0.313,0.14,0.614,0.31,0.888,0.518c-0.956-0.29-2.586-0.543-3.478,0.014
		c-0.491,0.307-0.725,0.456-1.372,0.577c-0.781,0.146-1.608,0.274-2.312,0.665c0.12-0.03,0.501-0.041-0.015,0.045
		c1.177-0.027-0.219,0.147-0.478,0.223c-0.482,0.142-0.935,0.341-1.408,0.506c-0.341,0.119-1.078,0.517-1.489,0.453
		c0.065-0.085,0.155-0.136,0.273-0.153c-0.146,0.04-0.858,0.386-0.967,0.285c0.083,0.005,0.165,0.005,0.248-0.002
		c-0.656-0.383-3.349,1.221-3.855,1.425c-0.381,0.153-4.151,1.698-4.092,1.764c-0.455,0.191-1.005,0.2-1.405,0.515
		c0.974-0.577,0.039-0.123-0.273-0.014c-0.529,0.185-1.053,0.396-1.545,0.665c-0.669,0.365-1.696,1.097-1.066,1.949
		c-1.524-1.84,6.425-5.42,7.226-5.903c-0.254,0.081-0.508,0.163-0.762,0.244c0.909-0.284,1.78-0.676,2.643-1.075
		c0.434-0.201,0.866-0.404,1.303-0.599c0.289-0.13,0.581-0.253,0.875-0.371c0.471-0.227,0.575-0.251,0.312-0.071
		c2.347-1.138,4.832-1.96,7.334-2.683c-0.362,0.031-0.724,0.069-1.085,0.114c4.121-1.557,8.44-0.261,11.832,2.318
		c0.72,0.548,1.452,1.589,2.251,1.968c0.555,0.263,2.054-1.511,2.505-1.847c2.013-1.498,4.47-2.58,6.984-2.796
		c4.722-0.405,9.504,2.038,13.653,3.999c1.749,0.827,3.465,1.73,5.171,2.642C61.713,17.227,63.719,18.236,64.001,19.83
		c-0.012-0.059-0.022-0.12-0.031-0.179C63.98,19.711,63.991,19.77,64.001,19.83C64.2,20.829,63.919,19.367,64.001,19.83z
		 M9.107,18.934c3.514-0.457,6.873,1.728,9.776,3.388c3.25,1.858,6.569,2.401,10.184,3.184c1.733,0.375,3.772,0.161,5.536,0.069
		c1.751-0.091,3.474-0.43,5.183-0.808c1.666-0.369,3.301-0.849,4.828-1.623c0.89-0.451,1.749-0.96,2.604-1.474
		c0.427-0.257,0.854-0.516,1.283-0.77c0.141-0.084,1.446-0.588,0.528-0.451c1.292-0.634,2.643-1.188,4.096-1.285
		c-0.898,0.064,0.825-0.186,0.794-0.182c0.526-0.064,1.058-0.078,1.587-0.052c-0.35-0.027-0.7-0.054-1.051-0.081
		c0.286,0.011-0.771,0.009-0.965,0.031c-0.33,0.036-2.217,0.228-2.204,0.083c-0.401,0.017-1.018,0.053-1.623,0.189
		c0.523-0.061-0.12,0.016,0.168,0.025c-0.508,0.237-0.953,0.127-1.35,0.501c-0.24,0.226-1.695,0.461-0.716,0.522
		c-0.6,0.153-1.15,0.448-1.746,0.612c0.658-0.354-0.265,0.083-0.327,0.026c-0.31,0.337-0.993,0.81-1.486,0.695
		c0.378-0.138,0.803-0.303,1.107-0.578c-0.122,0.066-0.785,0.239-0.746,0.193c-0.749,0.871-2.781,0.837-3.814,1.135
		c-0.11,0.032-2.52,0.693-2.144,0.157c-0.166,0.207-0.896,0.093-0.634,0.626c-0.381,0.217-0.649-0.004-1.032,0.078
		c-0.604,0.129-1.228,0.167-1.839,0.251c0.037-0.074-0.265-0.056-0.552-0.184c0.149,0.356-0.383,0.115-0.296-0.147
		c-0.295,0.261-0.542-0.16-0.922,0.188c0.503-0.245-0.098,0.099-0.269,0.167c0.286-0.175-0.974,0.21-0.871-0.152
		c-0.235,0.179-0.903,0.215-1.05-0.108c-0.129,0.278-0.884,0.062-1.089,0.028c-1.112-0.18-2.261-0.283-3.386-0.434
		c-0.882-0.118-1.76-0.271-2.636-0.423c-0.532-0.092-1.69-0.15-2.049-0.653c0.056,0.264-0.018,0.102-0.142,0.024
		c-0.144-0.09-0.867-0.16-1.14-0.274c-0.49-0.203-0.95-0.469-1.418-0.716c-0.808-0.427-1.685-0.608-2.515-1.024
		C14.472,18.534,11.586,18.447,9.107,18.934C11.596,18.61,9.417,18.873,9.107,18.934z M53.926,1.502
		c-0.102-0.018-0.072-0.029,0.092-0.032c-0.043-0.002-0.062,0.355,0.017,0.285c-0.785-0.017,1.081,2.125,1.207,1.591
		c0.052,0.065,0.108,0.126,0.17,0.182c0.004,0.327,1.548-0.885,1.689-1.089c0.707-1.025-1.188-0.623-1.177-0.599
		c-0.224-0.029-0.164-0.075-0.16,0.141c-0.034-0.116-0.083-0.122-0.098-0.009c-0.052,0.032-0.204-0.27-0.103-0.419
		c0.001-0.002,0.33,0.213,0.421,0.025c-0.07,0.144-0.329,0.064,0.013,0.06C55.82,1.7,56.124,1.583,55.895,1.689
		c0.264-0.035,0.519,0.096,0.784-0.159c-0.019,0.011-0.04,0.013-0.063,0.006c0.159-0.236,0.321-0.642,0.181-0.882
		c-0.022,0.06-0.081,0.16-0.171,0.076c-0.047-0.044,0.119-0.145,0.136-0.173c-0.349,0.576-0.28-0.519-0.5,0.193
		c-0.001-0.179-0.032-0.292-0.151-0.252c0.038-0.252-0.013-0.364-0.316-0.152c0.002-0.11,0.074-0.171,0.217-0.183
		c-0.082-0.011-0.258,0.009-0.151-0.144c-0.35,0.117-0.709-0.177-0.906,0.114c-0.096,0.142-0.427,0.473-0.563,0.125
		c0.076,0.161,0.052,0.204-0.072,0.127c0.109,0.42,0.201,0.167-0.082,0.629c-0.103,0.168-0.232,0.206-0.124,0.226
		c-0.077,0.04-0.157,0.046-0.24,0.017C54.057,1.41,53.731,1.239,53.926,1.502C53.664,1.521,53.834,1.378,53.926,1.502z
		 M15.309,24.065c-0.045-0.1,1.01-1,1.122-0.933c-1.98-1.559-3.673,2.62-4.418,4.008c0.125-0.375,0.614-0.839,0.929-1.076
		c-0.129,0.097,0.74-0.634,0.786-0.594c-0.209-0.182,0.245-0.333,0.451-0.394c-0.016-0.044-0.048-0.058-0.096-0.04
		C14.198,25.141,15.206,23.933,15.309,24.065C15.279,23.996,15.307,24.061,15.309,24.065z M20.483,24.668
		c-2.439-1.626-4.374,4.864-4.973,6.362c0.49,0,0.666-1.973,1.163-1.95c-0.356,0.617,0.738-1.021,0.8-0.959
		c-0.226-0.223,0.246-0.524,0.497-0.666c-0.014-0.056-0.049-0.068-0.104-0.036C17.662,27.203,20.496,24.667,20.483,24.668
		C18.74,23.507,20.333,24.68,20.483,24.668z M25.891,25.444c0.193-0.515-1.574-0.289-1.774-0.244
		c-0.83,0.186-1.278,1.194-1.62,1.968c-0.84,1.898-1.265,3.984-1.872,5.967c0.187-0.093,0.444-1.123,0.533-1.315
		c0.211-0.449,0.22-0.879,0.483-1.21c-0.056,0.136,0.203-0.484,0.236-0.484c-0.308,0.78,0.461-0.814,0.558-1.053
		c0.134-0.33,0.582-1.381,0.657-1.345c-0.04-0.053,1.068-1.688,1.211-1.672C24.8,25.921,25.293,25.288,25.891,25.444
		C26.114,24.849,25.744,25.406,25.891,25.444z M29.289,26.221c-1.024-0.136-1.47-0.299-1.756,0.575
		c-0.194,0.594-0.175,1.232-0.223,1.845c-0.115,1.46-0.325,2.917-0.482,4.373c0.225-0.225,0.357-2.569,0.636-2.562
		c-0.145,0.657,0.316-0.788,0.37-1.001c0.094-0.373,0.043-0.698,0.395-1.013c-0.057-0.061,0.375-1.51,0.453-1.509
		C28.975,26.828,28.942,26.164,29.289,26.221C28.871,26.165,29.28,26.219,29.289,26.221z M33.508,27.739
		c0.106-0.236-0.032-0.487-0.03-0.66c0.01-0.874-0.622-0.634-1.369-0.574c0.176,0.181,0.224,1.237,0.216,1.532
		c-0.023,0.87,0.158,1.558,0.245,2.397c0.181,1.75,0.274,3.526,0.418,5.285c0.094-0.189-0.011-3.06,0.155-3.06
		c-0.009,0.11-0.008,0.221,0.004,0.331C33.15,32.409,33.497,27.74,33.508,27.739C33.507,27.741,33.537,27.734,33.508,27.739z
		 M38.721,30.999c-0.115-0.566-0.063-1.182-0.198-1.734c0.104,0.428-0.02-0.62,0.015-0.808c0.045-0.243-0.267-0.446-0.057-0.727
		c-0.296-0.148-0.218-1.362-0.494-1.395c-0.16-0.019-0.263-0.236-0.482-0.245c-0.402-0.018-0.837,0.087-1.236,0.136
		c1.517-0.065,2.188,3.911,2.5,4.991C38.753,31.145,38.737,31.072,38.721,30.999C38.701,30.902,38.725,31.045,38.721,30.999z
		 M44.997,32.277c-0.058-0.204-0.757-2.693-0.839-2.69c0.032,0.106,0.072,0.208,0.12,0.307c-0.905-2.294-1.467-5.841-4.894-4.356
		c1.634-0.569,2.915,1.269,3.637,2.468c0.865,1.435,1.409,3.025,2.084,4.552C44.629,31.339,45.106,32.559,44.997,32.277
		C44.938,32.072,45.041,32.391,44.997,32.277z M49.727,29.687c-0.161-0.3-0.334-0.592-0.477-0.902
		c-0.11-0.238-0.065-0.767-0.068-0.391c-0.025,0-0.633-1.524-0.595-1.523c0.002,0.001-0.277-0.238-0.276-0.248
		c0.024-0.221-0.699-1.615-1.19-1.614c-0.041,0-0.453-0.473-0.577-0.551c-0.478-0.297-1.005-0.05-1.487,0.234
		c2.193,0.793,3.585,3.32,4.767,5.17C49.791,29.804,49.759,29.746,49.727,29.687C49.506,29.275,49.741,29.724,49.727,29.687z
		 M52.928,25.828c-0.154-0.191-0.501-0.508-0.509-0.777c0.037,0.025,0.071,0.054,0.102,0.086c-0.154-0.23-0.543-0.865-0.458-0.878
		c-0.037,0.003-0.015-0.037-0.009-0.05c-0.072-0.006-0.231-0.044-0.227-0.072c0.013-0.095-0.551-1.016-0.749-1.004
		c-0.148,0.009-0.217-0.073-0.363-0.203c-0.561-0.502-0.986-0.197-1.601,0.217C50.311,23.469,52.448,24.961,52.928,25.828
		C52.752,25.608,52.939,25.847,52.928,25.828z"/>
</g>
<g id="Layer_1">
</g>
</svg>
