<?xml version="1.0" encoding="iso-8859-1"?>
<!-- Generator: Adobe Illustrator 17.1.0, SVG Export Plug-In . SVG Version: 6.00 Build 0)  -->
<!DOCTYPE svg PUBLIC "-//W3C//DTD SVG 1.1//EN" "http://www.w3.org/Graphics/SVG/1.1/DTD/svg11.dtd">
<svg version="1.1" xmlns="http://www.w3.org/2000/svg" xmlns:xlink="http://www.w3.org/1999/xlink" x="0px" y="0px"
	 viewBox="0 0 265.136 75.837" style="enable-background:new 0 0 265.136 75.837;" xml:space="preserve">
<g id="logo_x5F_horizontal">
	<path style="fill:#231F20;" d="M98.248,57.849h-6v-8.805c0-0.067,0.003-0.13,0.008-0.192c0.006-0.061,0.009-0.192,0.009-0.392
		c0-0.811-0.172-1.556-0.516-2.234c-0.344-0.678-0.998-1.018-1.964-1.018c-0.754,0-1.42,0.253-1.997,0.759
		c-0.577,0.506-1.126,1.143-1.647,1.909v9.972h-6V34.755h6v8.551c0.988-1.056,1.965-1.777,2.931-2.161
		c0.966-0.384,1.993-0.576,3.081-0.576c4.064,0,6.095,2.286,6.095,6.855V57.849 M111.222,47.849h-6.48
		c0-1.072,0.308-1.94,0.925-2.604c0.616-0.664,1.424-0.996,2.424-0.996c1.01,0,1.785,0.327,2.324,0.98
		C110.952,45.882,111.222,46.755,111.222,47.849 M116.876,49.608c0-2.135-0.415-3.878-1.243-5.229
		c-0.828-1.351-1.885-2.324-3.169-2.918c-1.285-0.595-2.616-0.893-3.996-0.893c-2.091,0-3.87,0.375-5.338,1.126
		c-1.469,0.751-2.567,1.784-3.295,3.101c-0.728,1.318-1.092,2.81-1.092,4.477c0,1.69,0.364,3.201,1.092,4.535
		c0.728,1.334,1.827,2.39,3.294,3.168c1.468,0.778,3.247,1.167,5.339,1.167c1.935,0,3.528-0.186,4.779-0.558
		c1.251-0.372,2.316-0.786,3.195-1.24v-3.717c-2.447,1.135-4.684,1.702-6.709,1.702c-1.157,0-2.191-0.328-3.104-0.984
		c-0.913-0.656-1.485-1.501-1.719-2.536h11.967V49.608z M134.736,41.782c-0.7-0.41-1.303-0.715-1.808-0.914
		c-0.506-0.2-1.098-0.3-1.775-0.3c-1.289,0-2.412,0.48-3.367,1.438c-0.956,0.959-1.623,1.943-2,2.952v-4.07h-6v16.961h6v-7.317
		c0.567-1.548,1.158-2.609,1.775-3.183c0.617-0.573,1.347-0.861,2.192-0.861c0.934,0,1.856,0.434,2.767,1.3L134.736,41.782
		 M149.72,57.058v-4.722c-1.1,0.333-2.034,0.589-2.8,0.767c-0.767,0.178-1.45,0.267-2.05,0.267c-0.634,0-1.267-0.144-1.9-0.433
		c-0.634-0.288-1.156-0.741-1.567-1.357c-0.411-0.617-0.617-1.374-0.617-2.273c0-1.354,0.414-2.354,1.242-2.998
		c0.827-0.644,1.775-0.966,2.842-0.966c1.1,0,2.628,0.311,4.583,0.933v-4.722c-0.811-0.3-1.611-0.539-2.4-0.718
		c-0.789-0.178-1.811-0.267-3.067-0.267c-1.877,0-3.458,0.311-4.743,0.934c-1.284,0.623-2.265,1.395-2.943,2.317
		c-0.678,0.922-1.153,1.879-1.426,2.868c-0.272,0.989-0.408,1.862-0.408,2.618c0,0.756,0.134,1.629,0.4,2.618
		c0.267,0.989,0.748,1.959,1.443,2.91c0.695,0.95,1.685,1.74,2.969,2.368c1.284,0.628,2.853,0.942,4.709,0.942
		c0.823,0,1.581-0.053,2.275-0.159c0.694-0.106,1.319-0.239,1.875-0.401C148.693,57.422,149.22,57.247,149.72,57.058
		 M170.504,57.849V40.889h-6v9.951c-0.535,0.777-1.057,1.415-1.568,1.914c-0.512,0.499-1.207,0.749-2.086,0.749
		c-1.023,0-1.688-0.347-1.993-1.04c-0.306-0.693-0.459-1.5-0.459-2.421v-9.152h-6v9.96c0,1.876,0.378,3.561,1.133,5.054
		c0.755,1.493,2.415,2.24,4.979,2.24c1.299,0,2.412-0.226,3.339-0.676c0.927-0.451,1.813-1.132,2.656-2.045v2.427H170.504
		 M174.648,57.849h6V34.755h-6V57.849z M196.565,47.849h-6.48c0-1.072,0.308-1.94,0.925-2.604c0.616-0.664,1.424-0.996,2.424-0.996
		c1.01,0,1.785,0.327,2.324,0.98C196.295,45.882,196.565,46.755,196.565,47.849 M202.218,49.608c0-2.135-0.415-3.878-1.243-5.229
		c-0.828-1.351-1.885-2.324-3.17-2.918c-1.284-0.595-2.616-0.893-3.995-0.893c-2.091,0-3.87,0.375-5.338,1.126
		c-1.468,0.751-2.566,1.784-3.295,3.101c-0.728,1.318-1.093,2.81-1.093,4.477c0,1.69,0.364,3.201,1.093,4.535
		c0.728,1.334,1.826,2.39,3.294,3.168c1.468,0.778,3.248,1.167,5.339,1.167c1.935,0,3.528-0.186,4.779-0.558
		c1.251-0.372,2.316-0.786,3.195-1.24v-3.717c-2.448,1.135-4.684,1.702-6.709,1.702c-1.157,0-2.192-0.328-3.104-0.984
		c-0.913-0.656-1.486-1.501-1.719-2.536h11.967V49.608z M218.409,52.894c0-0.879-0.169-1.641-0.508-2.287
		c-0.339-0.645-0.908-1.237-1.708-1.778c-0.8-0.539-1.867-1.065-3.2-1.577c-0.922-0.356-1.517-0.654-1.784-0.893
		c-0.266-0.239-0.4-0.498-0.4-0.776c0-0.267,0.128-0.534,0.383-0.801s0.728-0.401,1.417-0.401c0.567,0,1.119,0.07,1.659,0.208
		c0.538,0.139,1.008,0.297,1.408,0.475c0.4,0.178,0.719,0.339,0.958,0.483c0.239,0.145,0.536,0.323,0.892,0.533v-4.148
		c-0.754-0.388-1.551-0.688-2.389-0.899c-0.838-0.211-1.531-0.341-2.08-0.391c-0.549-0.05-1.001-0.075-1.356-0.075
		c-1.476,0-2.735,0.247-3.779,0.742c-1.043,0.495-1.823,1.132-2.339,1.91c-0.516,0.778-0.774,1.589-0.774,2.434
		c0,1.19,0.388,2.196,1.164,3.018c0.775,0.823,1.717,1.478,2.825,1.968c0.899,0.378,1.617,0.704,2.155,0.977
		c0.538,0.272,0.915,0.518,1.132,0.734c0.216,0.217,0.325,0.465,0.325,0.743c0,0.823-0.748,1.235-2.245,1.235
		c-0.887,0-1.702-0.15-2.445-0.45c-0.743-0.3-1.619-0.739-2.628-1.317v4.265c1.155,0.422,2.22,0.747,3.197,0.974
		c0.977,0.227,2.092,0.341,3.346,0.341c2.242,0,3.931-0.486,5.069-1.458S218.409,54.449,218.409,52.894 M219.752,39.458v0.15h1.333
		v3.397c0,0.693,0.032,1.164,0.096,1.411c0.064,0.247,0.143,0.447,0.238,0.599c0.094,0.153,0.214,0.29,0.358,0.413
		c0.461,0.405,1.039,0.608,1.734,0.608c0.689,0,1.325-0.164,1.908-0.492v-1.415c-0.605,0.356-1.179,0.533-1.723,0.533
		c-0.727,0-1.091-0.437-1.091-1.311v-3.743h2.427v-1.373h-2.427v-1.586L219.752,39.458 M228.129,38.235h-1.52v7.667h1.52v-4.004
		c0-0.638,0.179-1.19,0.538-1.657c0.358-0.466,0.782-0.699,1.272-0.699c0.45,0,0.94,0.249,1.468,0.747l0.801-1.333
		c-0.623-0.578-1.221-0.867-1.794-0.867c-0.734,0-1.468,0.592-2.203,1.778L228.129,40V38.235 M236.425,39.595
		c0.748,0,1.367,0.239,1.859,0.716c0.493,0.477,0.739,1.079,0.739,1.806c0,0.733-0.237,1.333-0.71,1.802
		c-0.473,0.469-1.08,0.703-1.822,0.703c-0.747,0-1.359-0.232-1.834-0.695c-0.476-0.463-0.714-1.061-0.714-1.793
		c0-0.738,0.233-1.345,0.698-1.822C235.105,39.834,235.7,39.595,236.425,39.595 M233.578,39.342
		c-0.779,0.747-1.168,1.681-1.168,2.803c0,1.111,0.385,2.037,1.156,2.779c0.771,0.741,1.73,1.112,2.878,1.112
		c1.187,0,2.171-0.365,2.953-1.096c0.782-0.73,1.173-1.648,1.173-2.753c0-1.138-0.385-2.084-1.156-2.836
		c-0.771-0.753-1.739-1.129-2.903-1.129C235.334,38.222,234.357,38.595,233.578,39.342z M244.782,39.649
		c0.711,0,1.252,0.087,1.621,0.262c0.37,0.175,0.662,0.455,0.876,0.838c0.213,0.384,0.32,0.826,0.32,1.327
		c0,0.779-0.227,1.415-0.679,1.91c-0.453,0.495-1.036,0.742-1.746,0.742c-0.512,0-1.001-0.12-1.468-0.36v-4.72H244.782
		 M243.706,49.822V45.71c0.595,0.217,1.137,0.325,1.626,0.325c1.106,0,2.016-0.37,2.73-1.109c0.714-0.739,1.071-1.683,1.071-2.834
		c0-1.216-0.379-2.164-1.138-2.842c-0.758-0.678-1.817-1.017-3.178-1.017h-2.658v11.587H243.706z M250.76,34.262v11.64h1.52v-5.484
		c0.355-0.4,0.68-0.686,0.974-0.858c0.294-0.172,0.608-0.259,0.941-0.259c0.449,0,0.812,0.171,1.086,0.512
		c0.274,0.341,0.412,0.792,0.412,1.352v4.736h1.52v-4.365c0-0.888-0.099-1.558-0.296-2.008c-0.198-0.45-0.498-0.803-0.904-1.058
		c-0.406-0.256-0.864-0.383-1.375-0.383c-0.94,0-1.725,0.388-2.359,1.163v-4.99H250.76 M263.444,38.235l-1.989,4.341l-2.071-4.341
		h-1.728l2.957,6.043l-2.597,5.545h1.693l5.427-11.587H263.444"/>
	<path style="fill-rule:evenodd;clip-rule:evenodd;fill:#F6931D;" d="M33.244,27.043c0.054,3.7-2.566,4.725-3.645,7.291
		C25.861,32.558,26.826,25.3,33.244,27.043 M49.022,10.185c38.087,16.878,9.3,68.685-23.635,65.513
		c3.138-6.383,2.254-16.79,7.857-20.707c4.465,0.554,9.593,5.014,13.367,2.43c0.185-10.405-8.929-13.899-6.076-23.087
		c1.883,1.358,2.53,3.95,6.076,3.645c3.85-3.035,5.781-7.99,9.721-10.936c-3.84-3.95,7.071-2.255,0-4.86
		c-6.817-1.957-6.693,3.028-10.936,3.646c-1.357-1.883-3.95-2.531-3.645-6.075c-7.459,0.642-16.376-1.39-21.872,1.214
		c1.388,7.118-2.25,18.382,8.843,15.795c-0.987,2.886-0.759,3.493-1.552,7.292c-2.76,2.403-6.788-1.292-12.152,0
		c-1.89,0.454,3.712,3.074,0,4.86c0.519,3.937,8.172,0.741,8.506,4.86c-1.641,6.026-6.39,13.366-5.552,20.256
		C12.092,71.929,6.23,67.893,0.733,61.424C-4.261,19.824,17.865,8.096,18.572,7.8c3.518-2.308,6.759-4.007,10.766-4.982
		c24.287-5.846,13.586-1.319,8.86,2.136c-7.924,4.886,3.189,18.927,10.843,9.939C49.263,13.048,49.223,11.492,49.022,10.185z"/>
</g>
<g id="Layer_1">
</g>
</svg>
