<?xml version="1.0" encoding="iso-8859-1"?>
<!-- Generator: Adobe Illustrator 17.1.0, SVG Export Plug-In . SVG Version: 6.00 Build 0)  -->
<!DOCTYPE svg PUBLIC "-//W3C//DTD SVG 1.1//EN" "http://www.w3.org/Graphics/SVG/1.1/DTD/svg11.dtd">
<svg version="1.1" xmlns="http://www.w3.org/2000/svg" xmlns:xlink="http://www.w3.org/1999/xlink" x="0px" y="0px"
	 viewBox="0 0 187.402 112.269" style="enable-background:new 0 0 187.402 112.269;" xml:space="preserve">
<g id="logo_x5F_vertical">
	<path style="fill:#231F20;" d="M18.107,111.976h-6v-8.805c0-0.067,0.002-0.131,0.008-0.192c0.006-0.061,0.009-0.192,0.009-0.392
		c0-0.812-0.172-1.556-0.516-2.235c-0.344-0.678-0.998-1.017-1.964-1.017c-0.755,0-1.42,0.253-1.997,0.759
		C7.071,100.6,6.521,101.237,6,102.004v9.972H0V88.882h6v8.551c0.988-1.057,1.965-1.777,2.931-2.162
		c0.966-0.384,1.993-0.576,3.081-0.576c4.063,0,6.095,2.285,6.095,6.855V111.976 M33.477,101.976h-6.48
		c0-1.072,0.308-1.94,0.925-2.604c0.616-0.664,1.424-0.996,2.424-0.996c1.01,0,1.785,0.326,2.324,0.98
		C33.208,100.009,33.477,100.882,33.477,101.976 M39.131,103.735c0-2.135-0.414-3.878-1.243-5.229
		c-0.828-1.351-1.885-2.323-3.169-2.918c-1.285-0.595-2.616-0.892-3.996-0.892c-2.091,0-3.87,0.375-5.338,1.125
		c-1.469,0.751-2.567,1.784-3.295,3.102c-0.728,1.318-1.093,2.81-1.093,4.477c0,1.69,0.364,3.201,1.093,4.535
		c0.728,1.334,1.826,2.39,3.294,3.168c1.468,0.778,3.247,1.167,5.339,1.167c1.935,0,3.528-0.186,4.779-0.558
		c1.251-0.372,2.316-0.786,3.195-1.241v-3.717c-2.447,1.135-4.684,1.702-6.709,1.702c-1.157,0-2.191-0.328-3.104-0.984
		c-0.913-0.656-1.486-1.501-1.719-2.536h11.967V103.735z M56.992,95.909c-0.7-0.41-1.303-0.714-1.808-0.914
		c-0.506-0.2-1.098-0.3-1.775-0.3c-1.289,0-2.411,0.48-3.367,1.438c-0.956,0.959-1.623,1.943-2,2.952v-4.07h-6v16.961h6v-7.318
		c0.567-1.548,1.158-2.609,1.775-3.183c0.617-0.573,1.347-0.86,2.191-0.86c0.934,0,1.856,0.433,2.767,1.3L56.992,95.909
		 M71.969,111.184v-4.722c-1.1,0.333-2.033,0.589-2.8,0.767c-0.767,0.178-1.45,0.267-2.05,0.267c-0.633,0-1.267-0.144-1.9-0.433
		c-0.633-0.288-1.156-0.741-1.567-1.357c-0.411-0.616-0.617-1.374-0.617-2.273c0-1.354,0.414-2.353,1.242-2.997
		c0.828-0.644,1.775-0.966,2.842-0.966c1.1,0,2.627,0.311,4.583,0.934V95.68c-0.811-0.3-1.611-0.539-2.4-0.717
		c-0.789-0.178-1.811-0.267-3.067-0.267c-1.878,0-3.459,0.311-4.743,0.934c-1.284,0.623-2.265,1.395-2.944,2.318
		c-0.678,0.922-1.153,1.879-1.426,2.868c-0.273,0.989-0.409,1.862-0.409,2.618c0,0.756,0.134,1.629,0.4,2.618
		s0.748,1.959,1.443,2.909c0.695,0.951,1.684,1.74,2.968,2.368c1.284,0.629,2.853,0.942,4.709,0.942c0.822,0,1.58-0.053,2.275-0.158
		c0.694-0.106,1.319-0.239,1.875-0.401C70.941,111.549,71.469,111.373,71.969,111.184 M92.753,111.976V95.016h-6v9.951
		c-0.534,0.777-1.057,1.414-1.568,1.914c-0.512,0.499-1.207,0.749-2.086,0.749c-1.023,0-1.688-0.346-1.994-1.04
		c-0.306-0.693-0.459-1.501-0.459-2.421v-9.152h-6v9.959c0,1.877,0.378,3.561,1.132,5.054c0.755,1.493,2.415,2.24,4.979,2.24
		c1.299,0,2.412-0.225,3.339-0.676c0.927-0.45,1.813-1.132,2.657-2.045v2.427H92.753 M96.896,111.976h6V88.882h-6V111.976z
		 M118.813,101.976h-6.48c0-1.072,0.308-1.94,0.925-2.604c0.616-0.664,1.424-0.996,2.424-0.996c1.011,0,1.785,0.326,2.324,0.98
		C118.544,100.009,118.813,100.882,118.813,101.976 M124.467,103.735c0-2.135-0.414-3.878-1.242-5.229
		c-0.829-1.351-1.885-2.323-3.17-2.918c-1.284-0.595-2.616-0.892-3.995-0.892c-2.091,0-3.87,0.375-5.339,1.125
		c-1.468,0.751-2.566,1.784-3.295,3.102c-0.728,1.318-1.092,2.81-1.092,4.477c0,1.69,0.364,3.201,1.092,4.535
		c0.729,1.334,1.827,2.39,3.294,3.168c1.469,0.778,3.248,1.167,5.339,1.167c1.935,0,3.529-0.186,4.779-0.558
		c1.251-0.372,2.316-0.786,3.195-1.241v-3.717c-2.448,1.135-4.684,1.702-6.709,1.702c-1.158,0-2.192-0.328-3.104-0.984
		c-0.913-0.656-1.486-1.501-1.72-2.536h11.967V103.735z M140.657,107.02c0-0.879-0.169-1.641-0.508-2.286
		c-0.339-0.645-0.908-1.237-1.708-1.778c-0.8-0.54-1.867-1.065-3.2-1.577c-0.922-0.356-1.517-0.654-1.784-0.893
		c-0.267-0.239-0.4-0.498-0.4-0.776c0-0.266,0.128-0.533,0.383-0.8c0.256-0.267,0.727-0.401,1.417-0.401
		c0.567,0,1.119,0.07,1.658,0.208c0.539,0.14,1.008,0.298,1.408,0.475c0.4,0.178,0.719,0.339,0.958,0.483
		c0.239,0.145,0.536,0.323,0.892,0.533v-4.148c-0.754-0.388-1.551-0.688-2.389-0.899c-0.838-0.211-1.532-0.341-2.081-0.391
		c-0.549-0.05-1.001-0.075-1.356-0.075c-1.476,0-2.735,0.247-3.779,0.742c-1.043,0.495-1.822,1.131-2.338,1.91
		c-0.516,0.778-0.774,1.589-0.774,2.434c0,1.19,0.388,2.196,1.164,3.018s1.717,1.478,2.826,1.967
		c0.898,0.378,1.617,0.704,2.155,0.977c0.537,0.273,0.915,0.518,1.132,0.734c0.216,0.217,0.324,0.465,0.324,0.742
		c0,0.823-0.748,1.235-2.245,1.235c-0.887,0-1.702-0.15-2.445-0.45c-0.743-0.3-1.618-0.739-2.628-1.317v4.265
		c1.154,0.422,2.22,0.747,3.197,0.974c0.977,0.228,2.092,0.341,3.346,0.341c2.242,0,3.932-0.486,5.069-1.458
		C140.089,109.84,140.657,108.576,140.657,107.02 M142.001,93.585v0.151h1.333v3.397c0,0.693,0.032,1.164,0.096,1.411
		c0.064,0.247,0.143,0.447,0.238,0.599c0.095,0.153,0.214,0.29,0.358,0.412c0.461,0.405,1.039,0.608,1.733,0.608
		c0.69,0,1.325-0.164,1.909-0.491v-1.416c-0.605,0.356-1.179,0.533-1.723,0.533c-0.727,0-1.091-0.436-1.091-1.311v-3.742h2.427
		v-1.373h-2.427v-1.587L142.001,93.585 M150.378,92.362h-1.52v7.667h1.52v-4.004c0-0.638,0.179-1.19,0.538-1.657
		c0.359-0.466,0.783-0.699,1.273-0.699c0.45,0,0.94,0.249,1.468,0.747l0.801-1.333c-0.623-0.578-1.221-0.867-1.794-0.867
		c-0.734,0-1.469,0.593-2.203,1.778l-0.083,0.134V92.362 M158.673,93.722c0.747,0,1.367,0.239,1.859,0.716
		c0.493,0.477,0.739,1.079,0.739,1.806c0,0.732-0.237,1.333-0.71,1.801c-0.473,0.469-1.081,0.704-1.822,0.704
		c-0.747,0-1.358-0.232-1.834-0.695c-0.476-0.463-0.714-1.061-0.714-1.793c0-0.738,0.232-1.346,0.697-1.823
		C157.354,93.961,157.948,93.722,158.673,93.722 M155.827,93.469c-0.779,0.747-1.169,1.681-1.169,2.803
		c0,1.111,0.386,2.037,1.157,2.779c0.771,0.741,1.73,1.112,2.878,1.112c1.187,0,2.171-0.365,2.953-1.095
		c0.782-0.73,1.173-1.648,1.173-2.753c0-1.138-0.385-2.084-1.156-2.837c-0.771-0.752-1.739-1.129-2.904-1.129
		C157.583,92.349,156.606,92.722,155.827,93.469z M167.031,93.775c0.711,0,1.251,0.088,1.621,0.263
		c0.37,0.175,0.661,0.455,0.875,0.838c0.214,0.384,0.321,0.826,0.321,1.327c0,0.778-0.227,1.415-0.679,1.91
		c-0.454,0.495-1.036,0.743-1.747,0.743c-0.512,0-1.001-0.12-1.468-0.36v-4.72H167.031 M165.955,103.949v-4.112
		c0.595,0.217,1.137,0.325,1.626,0.325c1.106,0,2.016-0.369,2.73-1.108c0.714-0.739,1.071-1.684,1.071-2.834
		c0-1.217-0.379-2.164-1.137-2.842c-0.758-0.678-1.818-1.017-3.178-1.017h-2.658v11.587H165.955z M173.009,88.388v11.641h1.52
		v-5.484c0.355-0.4,0.68-0.686,0.974-0.858c0.294-0.172,0.608-0.258,0.941-0.258c0.45,0,0.812,0.171,1.087,0.512
		c0.274,0.342,0.412,0.792,0.412,1.353v4.736h1.52v-4.365c0-0.888-0.099-1.557-0.296-2.008c-0.197-0.45-0.498-0.803-0.904-1.057
		c-0.405-0.256-0.864-0.384-1.375-0.384c-0.939,0-1.725,0.388-2.358,1.164v-4.99H173.009 M185.71,92.362l-1.989,4.341l-2.071-4.341
		h-1.728l2.957,6.043l-2.597,5.544h1.693l5.428-11.587H185.71"/>
	<path style="fill-rule:evenodd;clip-rule:evenodd;fill:#F6931D;" d="M87.447,27.043c0.054,3.7-2.566,4.725-3.645,7.291
		C80.065,32.558,81.029,25.3,87.447,27.043 M103.226,10.185c38.087,16.878,9.3,68.685-23.635,65.513
		c3.138-6.383,2.253-16.79,7.856-20.707c4.465,0.554,9.593,5.014,13.367,2.43c0.185-10.405-8.929-13.899-6.076-23.087
		c1.883,1.358,2.53,3.95,6.076,3.645c3.85-3.035,5.781-7.989,9.721-10.936c-3.84-3.95,7.071-2.255,0-4.86
		c-6.817-1.957-6.693,3.028-10.936,3.646c-1.357-1.883-3.95-2.532-3.645-6.075c-7.459,0.642-16.376-1.389-21.872,1.214
		c1.388,7.118-2.25,18.382,8.843,15.796c-0.987,2.886-0.759,3.493-1.552,7.292c-2.761,2.402-6.788-1.293-12.152,0
		c-1.89,0.454,3.712,3.074,0,4.86c0.518,3.937,8.171,0.741,8.506,4.861c-1.641,6.026-6.39,13.366-5.552,20.256
		c-5.879-2.103-11.741-6.139-17.238-12.608C49.942,19.824,72.068,8.095,72.776,7.8c3.518-2.308,6.759-4.007,10.766-4.983
		c24.288-5.846,13.586-1.319,8.86,2.136c-7.923,4.887,3.189,18.927,10.843,9.939C103.466,13.048,103.426,11.492,103.226,10.185z"/>
</g>
<g id="Layer_1">
</g>
</svg>
