<?xml version="1.0" encoding="iso-8859-1"?>
<!-- Generator: Adobe Illustrator 17.1.0, SVG Export Plug-In . SVG Version: 6.00 Build 0)  -->
<!DOCTYPE svg PUBLIC "-//W3C//DTD SVG 1.1//EN" "http://www.w3.org/Graphics/SVG/1.1/DTD/svg11.dtd">
<svg version="1.1" xmlns="http://www.w3.org/2000/svg" xmlns:xlink="http://www.w3.org/1999/xlink" x="0px" y="0px"
	 viewBox="0 0 32.067 23.781" style="enable-background:new 0 0 32.067 23.781;" xml:space="preserve">
<g id="mail">
	<path style="fill:#A6A6A6;" d="M13.997,0.025C13.863,0.106,13.907,0.077,13.997,0.025C13.975,0.038,13.997,0.025,13.997,0.025z
		 M19.383,0.201c0.013,0.002,0.021,0.003,0.033,0.005C19.414,0.194,19.421,0.182,19.383,0.201z M10.98,23.583
		C10.926,23.536,11.064,23.658,10.98,23.583L10.98,23.583z M10.956,23.585c-0.134-0.006-0.269-0.011-0.403-0.017
		C10.555,23.654,11.058,23.577,10.956,23.585C10.822,23.58,10.903,23.589,10.956,23.585z M24.454,0.233
		C24.455,0.239,24.551,0.339,24.454,0.233C24.456,0.248,24.454,0.233,24.454,0.233z M31.312,19.609
		C31.237,19.423,31.305,19.617,31.312,19.609C31.312,19.609,31.306,19.616,31.312,19.609z M31.858,0.447
		c0.03,0.033,0.004,0.394,0.026-0.026c-0.398-0.019-0.823-0.052-1.215,0.049C31.066,0.462,31.462,0.454,31.858,0.447
		C31.875,0.465,31.462,0.454,31.858,0.447z M22.494,23.547c-0.017,0.001-0.034,0.004-0.051,0.004
		C22.472,23.552,22.488,23.55,22.494,23.547z M30.747,23.148c-0.601-0.43-0.738-0.892-1.599-1.039
		c-1.036-0.177-2.118-0.103-3.161-0.029c-3.095,0.221-6.212-0.049-9.316-0.032c-0.654,0.004-14.525,0.425-14.576-0.027
		c0.033,0.293-1.408,0.252-1.504,0.84c-0.007-0.073,0.024-0.137,0.092-0.192c-0.016,0.223-0.14,1.406,0.38,1.043
		c-0.05-0.003-0.096,0.007-0.139,0.032c0.339,0.117,1.626-0.341,1.805,0.018c-0.508-0.308,0.645-0.128,0.222-0.068
		c1.706-0.171,3.421,0.026,5.13-0.075c1.075-0.063,2.226-0.079,3.305-0.059c-0.385,0.129,0.465-0.098,0.137,0.003
		c3.608,0.208,6.902,0.09,10.315-0.052c3.164-0.131,6.431,0.196,9.511-0.48C31.143,23.042,30.942,23.081,30.747,23.148z
		 M0.694,22.578C0.674,22.499,0.713,22.598,0.694,22.578C0.692,22.57,0.683,22.567,0.694,22.578z M0.711,22.601
		C0.696,22.579,0.674,22.576,0.711,22.601C0.711,22.601,0.7,22.594,0.711,22.601z M31.867,7.819c-0.669-0.394-0.143-2.33-0.13-2.949
		c-0.089,0.237-0.179,0.474-0.268,0.711c0.143-1.306,0.267-2.616,0.267-3.931c0,0.215-0.001,0.429-0.002,0.644
		c0.073-0.859,0.521-1.763-0.56-1.829c-1.114-0.068-2.242,0.153-3.35,0.055c0.715-0.575,2.093,0.018,2.929-0.146
		c-0.41,0.007-1.7-0.15-1.837-0.125c-1.203,0.401-2.56,0.063-3.789,0c0.605,0.158-0.867,0.058-0.797,0.059
		c-0.643-0.012-1.284-0.061-1.926-0.09c-1.034-0.046-2.255-0.129-3.274,0.015c-0.867,0.123-1.621-0.021-2.487-0.021
		c-0.242,0-1.408-0.179-1.305-0.212c-0.26,0.071-0.524,0.118-0.792,0.14c-0.054-0.089-0.02-0.124,0.102-0.108
		c-0.224-0.026-1.232,0.271-0.94,0.328c-1.265,0.155-2.408-0.007-3.472,0.002C8.625,0.374,7.537,0.414,6.187,0.195
		c0.351,0.319-0.897,0.083-0.632-0.112C4.872,0.234,4.17,0.059,3.483,0.181C4.664,0.08,3.137,0.259,2.875,0.289
		c0.811-0.143-0.783-0.101-0.792-0.102c0.569-0.014-0.66,0.09-0.92,0.071C1.016,0.248,0.744,0.227,0.673,0.41
		C0.583,0.643,0.871,1.547,0.574,0.918c0.063,0.263,0.078,0.549,0.098,0.818C0.674,1.76,0.694,2.419,0.631,2.062
		C0.58,5.266,0.435,8.475,0.461,11.679c0.027,3.338,0.267,6.675,0.141,10.014c0.689-0.154,0.777-0.881,0.943-1.064
		c0.548-0.601,0.618-0.743,0.61-1.577c-0.023-2.242-0.053-4.484-0.046-6.726c0.01-3.394,0.804-7.686-0.417-10.765
		c0.215-0.037,0.346,0.096,0.326,0.218c0.214-0.563,4.25,0.009,4.847,0.038c3.737,0.179,7.524-0.086,11.267-0.072
		c2.046,0.008,4.092,0.055,6.138,0.08c0.93,0.011,1.86,0.018,2.791,0.014c0.892-0.003,2.176,0.224,3.022-0.066
		c0.42-0.144,0.984-0.206,1.26,0.26c0.445,0.753-0.541,0.838-0.809,1.292c-0.325,0.552-0.14,1.465-0.141,2.071
		c-0.002,1.076-0.024,2.155,0.065,3.229c0.04-0.247,0.081-0.494,0.121-0.741c0.039,1.658-0.038,3.317,0.011,4.975
		c0.033,1.132,0.096,3.057-0.111,4.519c0.021-0.189,0.046-0.378,0.074-0.566c0.086,0.965,0.045,1.939,0.101,2.907
		c0.029,0.505-0.122,1.498,0.336,1.896c0.058-0.446,0.105-0.895,0.2-1.336c-0.097,0.958,0.123-0.448,0.144-0.682
		c-0.057,0.016,0.528-5.503,0.355-6.191c0.006,0.076-0.02,0.113-0.079,0.112c0.028-0.227,0.056-0.453,0.084-0.68
		c0.007,0.358,0.089-0.587,0.094-0.668c0.012-0.175,0.03-0.354,0.029-0.53c-0.001-0.254,0.256-2.045-0.01-1.182
		c0.074-0.441-0.018-0.093-0.025-0.022C31.719,9.869,32.388,8.22,31.867,7.819C31.367,7.524,32.21,8.083,31.867,7.819z M1.866,2.331
		C1.956,2.304,1.844,2.36,1.866,2.331C1.874,2.329,1.875,2.319,1.866,2.331z M1.844,2.351C1.869,2.332,1.86,2.315,1.844,2.351
		C1.844,2.351,1.85,2.339,1.844,2.351z M30.591,18.038l0-0.025C30.549,18.014,30.565,18.051,30.591,18.038z M31.738,4.828
		C31.699,4.892,31.884,4.591,31.738,4.828L31.738,4.828z M31.759,12.945c-0.002,0.137,0.001,0.258,0.014,0.344
		C31.786,12.909,31.776,12.892,31.759,12.945z M30.672,21.138c-0.025,0.115,0.063-0.197,0.041-0.333
		C30.699,20.916,30.686,21.027,30.672,21.138z M31.241,20.329l0.034,0.062C31.266,20.273,31.254,20.278,31.241,20.329z
		 M5.452,19.634C5.451,19.635,5.507,19.76,5.452,19.634C5.451,19.635,5.452,19.634,5.452,19.634z M10.349,14.983
		C10.347,14.982,10.379,15.004,10.349,14.983L10.349,14.983z M10.358,15.02C10.345,15.021,10.23,14.955,10.358,15.02
		C10.335,15.021,10.336,15.009,10.358,15.02z M4.139,20.582C4.134,20.577,4.067,20.521,4.139,20.582
		C4.128,20.571,4.139,20.582,4.139,20.582z M0.708,22.591C0.672,22.515,0.697,22.582,0.708,22.591
		C0.708,22.591,0.703,22.587,0.708,22.591z M3.28,21.022C3.171,21.226,3.249,21.08,3.28,21.022L3.28,21.022z M0.708,22.591
		c0.231-0.386,1.13-0.311,1.458-0.539c-0.03-0.019-0.062-0.031-0.097-0.036c0.116-0.079,0.24-0.139,0.373-0.181
		c-0.292-0.477,0.594-0.234-0.023-0.543c0.294-0.029,0.688-0.088,0.812-0.286c0.124-0.199,0.18-0.302,0.384-0.239
		c-0.1,0.104-0.192,0.214-0.276,0.332c0.233-0.206,0.675-0.56,1.08-0.741c0.082-0.037,0.775-1.035,0.918-0.521
		c-0.062-0.177-0.025-0.23,0.11-0.156c0.012-0.432-0.226-0.251,0.257-0.64c0.219-0.177,0.503-0.314,0.464-0.346
		c0.102-0.033,0.18-0.003,0.235,0.093c-0.037-0.246,0.177,0.084,0.173-0.283c-0.026,0.185,0.035-0.391,0.29-0.258
		c0.087-0.174,0.444-0.385,0.616-0.541c0.277-0.251,1.72-1.865,2.039-1.755c-0.027-0.019,0.97-1.238,1.258-1.472
		c0.531-0.43,2.028-1.11,1.485-1.983c-0.578-0.93-1.678,0.327-2.205,0.762c-0.515,0.426-1.26,0.908-1.576,1.493
		c-0.652,1.204-2.554,2.236-3.592,3.072c-0.813,0.655-1.629,1.308-2.424,1.985c-0.176,0.15-1.272,1.013-0.899,1.049
		c-0.257,0.307-0.701,0.895-1.155,0.883c0.173-0.002-0.456,0.505-0.41,0.823C0.155,22.544,0.575,22.476,0.708,22.591
		C0.774,22.481,0.647,22.538,0.708,22.591z M0.412,21.891l0.003-0.003C0.386,21.857,0.393,21.873,0.412,21.891z M2.684,21.418
		C2.68,21.421,2.812,21.501,2.684,21.418C2.682,21.419,2.684,21.418,2.684,21.418z M1.767,22.253
		c-0.017,0.012-0.029,0.026-0.03,0.045C1.789,22.27,1.784,22.261,1.767,22.253z M0.109,22.265
		C0.04,22.313,0.323,22.221,0.109,22.265C0.083,22.283,0.128,22.261,0.109,22.265z M23.369,17.1
		C23.367,17.098,23.251,17.17,23.369,17.1C23.367,17.099,23.369,17.1,23.369,17.1z M28.6,21.37
		C28.601,21.368,28.583,21.404,28.6,21.37L28.6,21.37z M28.564,21.385C28.562,21.371,28.613,21.25,28.564,21.385
		C28.56,21.362,28.573,21.362,28.564,21.385z M22.262,15.917C22.267,15.911,22.314,15.838,22.262,15.917
		C22.272,15.905,22.262,15.917,22.262,15.917z M19.847,12.751C19.805,12.804,19.915,12.724,19.847,12.751
		C19.843,12.756,19.855,12.748,19.847,12.751z M21.717,15.121C21.501,15.038,21.656,15.097,21.717,15.121L21.717,15.121z
		 M19.838,12.612C19.85,12.623,19.867,12.605,19.838,12.612C19.842,12.616,19.838,12.612,19.838,12.612z M20.204,12.242
		c-0.079,0.015-0.427,0.213-0.356,0.358C20.068,12.442,20.248,12.269,20.204,12.242C20.125,12.258,20.234,12.261,20.204,12.242z
		 M30.709,21.194c-0.617-0.688-1.653-1.027-2.157-1.813c-0.45-0.703-1.33-1.093-1.89-1.699c-1.147-1.242-2.616-2.302-3.883-3.428
		c-0.366-0.325-0.6-0.899-1.12-1.019c0.01,0.319-0.981-0.513-1.017-0.868c0.041,0.29-0.146-0.056-0.271-0.065
		c-0.052,0.048-0.542,0.18-0.571,0.339c0.087-0.02,0.094,0.028,0.023,0.143c0.085-0.088,0.62,1.239,0.731,1.361
		c0.015-0.032,0.023-0.066,0.024-0.101c0.093,0.104,0.169,0.22,0.226,0.348c0.436-0.35,0.307,0.559,0.536-0.091
		c0.065,0.281,0.174,0.675,0.383,0.77c0.214,0.098,0.325,0.139,0.289,0.351c-0.116-0.087-0.237-0.164-0.364-0.232
		c0.233,0.205,0.64,0.598,0.872,0.977c0.046,0.076,1.125,0.638,0.633,0.845c0.168-0.083,0.225-0.053,0.169,0.09
		c0.43-0.043,0.22-0.255,0.667,0.174c0.203,0.195,0.375,0.459,0.402,0.416c0.046,0.097,0.025,0.179-0.062,0.245
		c0.24-0.068-0.061,0.186,0.302,0.136c0.075,0.001,0.66,0.578,1.07,0.941c0.26,0.229,1.901,1.338,1.834,1.658
		c0.105-0.205,2.124,1.571,2.365,1.81c0.369,0.366,0.841,0.981,1.395,0.487C32.201,22.16,30.987,21.811,30.709,21.194
		C30.333,20.774,30.86,21.529,30.709,21.194z M20.493,12.385l0.003,0.002C20.524,12.355,20.509,12.363,20.493,12.385z
		 M21.249,14.579C21.246,14.575,21.183,14.717,21.249,14.579C21.248,14.577,21.249,14.579,21.249,14.579z M20.305,13.775
		c-0.014-0.016-0.03-0.026-0.049-0.024C20.291,13.799,20.3,13.793,20.305,13.775z M6.462,7.553C6.46,7.551,6.338,7.616,6.462,7.553
		C6.461,7.551,6.462,7.553,6.462,7.553z M13,12.884C13.002,12.88,12.984,12.92,13,12.884L13,12.884z M12.995,12.883
		C12.991,12.774,12.898,12.849,12.995,12.883C12.994,12.845,12.985,12.879,12.995,12.883z M5.042,6.115
		C5.047,6.11,5.091,6.033,5.042,6.115C5.052,6.103,5.042,6.115,5.042,6.115z M1.855,2.347C1.933,2.305,1.862,2.334,1.855,2.347
		C1.855,2.347,1.858,2.341,1.855,2.347z M4.178,5.085C4.12,5.117,4.151,5.16,4.272,5.213C4.35,5.126,4.244,5.144,4.178,5.085z
		 M2.436,3.155c0.219,0.237,0.175,0.543,0.422,0.801c0.013-0.036,0.018-0.072,0.014-0.109c0.13,0.026,0.244,0.307,0.304,0.411
		c0.405-0.563,0.389,0.8,0.6-0.04C3.905,4.587,4.72,5.208,4.692,5.538C4.561,5.416,4.379,5.355,4.245,5.239
		C4.368,5.345,6.39,7.37,6.205,7.431c0.181-0.075,0.248-0.035,0.203,0.118c0.367,0.013,0.24-0.331,0.648,0.081
		c0.153,0.155,0.568,0.849,0.653,0.696C7.775,8.423,7.762,8.511,7.67,8.591c0.032-0.006,0.524,0.204,0.253,0.172
		C8.315,8.66,9.588,10.1,9.877,10.361c0.268,0.243,1.853,1.245,1.816,1.627c0.028-0.065,2.103,1.508,2.429,1.782
		c0.394,0.331,0.788,0.604,1.151,0.975c0.245,0.25,0.348,0.415,0.726,0.343c0.406-0.077,1.041-0.705,0.007-0.526
		c-0.007-0.226,0.23-0.336,0.307-0.462c0.189-0.312-0.949-1.115-1.247-1.405c-1.283-1.248-2.786-2.252-4.124-3.437
		C9.647,8.11,8.329,6.963,7.067,5.783c-0.551-0.515-1.174-0.976-1.7-1.513C5.19,4.09,3.953,2.77,4.027,3.259
		C3.59,2.965,2.847,2.558,2.723,1.996c0.062,0.236-0.745-0.485-1.032-0.435c0.105,0.265,0.038,0.55,0.152,0.804
		C1.947,2.258,2.501,3.269,2.436,3.155C2.546,3.275,2.379,3.055,2.436,3.155z M2.554,1.999l0.004,0.003
		C2.585,1.97,2.569,1.977,2.554,1.999z M3.708,4.517C3.703,4.511,3.651,4.661,3.708,4.517C3.706,4.515,3.708,4.517,3.708,4.517z
		 M2.524,3.518C2.506,3.499,2.486,3.486,2.465,3.485C2.511,3.543,2.521,3.537,2.524,3.518z M2.054,1.671
		C1.997,1.612,2.154,1.89,2.054,1.671C2.027,1.644,2.064,1.693,2.054,1.671z M22.615,10.69C22.613,10.692,22.66,10.822,22.615,10.69
		C22.613,10.691,22.615,10.69,22.615,10.69z M28.821,4.976C28.817,4.974,28.855,4.997,28.821,4.976L28.821,4.976z M28.828,5.016
		C28.819,5.017,28.679,4.954,28.828,5.016C28.801,5.02,28.804,5.006,28.828,5.016z M20.99,11.891
		C20.985,11.886,20.916,11.831,20.99,11.891C20.98,11.88,20.99,11.891,20.99,11.891z M16.808,14.511
		C16.776,14.428,16.796,14.501,16.808,14.511C16.808,14.511,16.802,14.506,16.808,14.511z M19.848,12.601
		c0.024,0.062,0.07,0.037,0.14-0.075C19.912,12.436,19.916,12.543,19.848,12.601z M29.095,2.683c-0.984,0.905-2.064,1.77-2.983,2.74
		c-0.483,0.51-1.321,1.768-2.13,1.712c-0.581,1.141-2.011,1.899-2.954,2.722c-0.588,0.513-1.213,0.982-1.821,1.472
		c-0.194,0.156-1.685,1.165-1.19,1.162c-0.353,0.39-0.861,1.067-1.435,1.111c0.24-0.027-0.586,0.667-0.578,0.959
		c0.278-0.067,0.551,0.04,0.817-0.037c-0.079-0.101,1.561-0.664,1.72-0.778c-0.034-0.018-0.069-0.028-0.106-0.029
		c0.044-0.125,0.338-0.198,0.45-0.243c-0.5-0.481,0.847-0.271,0.046-0.599c0.257-0.059,0.501-0.152,0.731-0.28
		c-0.161,0.135,0.488-0.392,0.652-0.499c-0.098,0.142-0.164,0.355-0.307,0.46c0.006-0.005,0.357-0.39,0.327-0.118
		c0.133-0.505,0.885-0.76,1.253-1.056c0.112-0.075,0.796-0.865,0.868-0.454c-0.048-0.189,0-0.251,0.146-0.184
		c0.065-0.362-0.294-0.285,0.172-0.629c0.175-0.129,0.921-0.441,0.782-0.547c0.105-0.052,0.191-0.027,0.256,0.076
		c-0.001-0.032,0.276-0.49,0.207-0.226c-0.046-0.403,1.56-1.458,1.86-1.707c0.279-0.231,1.495-1.658,1.868-1.566
		c-0.11-0.068,2.312-2.269,2.555-2.577c0.162-0.706,1.581-0.559,0.996-1.578C30.65,0.858,29.671,2.366,29.095,2.683
		C28.446,3.281,29.461,2.482,29.095,2.683z M16.562,13.769l0.003-0.003C16.538,13.734,16.543,13.751,16.562,13.769z M19.218,12.985
		C19.212,12.989,19.353,13.062,19.218,12.985C19.216,12.986,19.218,12.985,19.218,12.985z M18.061,14.015
		c-0.021,0.015-0.037,0.033-0.041,0.054C18.084,14.031,18.08,14.021,18.061,14.015z M16.166,14.218
		C16.1,14.266,16.398,14.15,16.166,14.218C16.135,14.24,16.19,14.211,16.166,14.218z"/>
</g>
<g id="Layer_1">
</g>
</svg>
