<?xml version="1.0" encoding="iso-8859-1"?>
<!-- Generator: Adobe Illustrator 17.1.0, SVG Export Plug-In . SVG Version: 6.00 Build 0)  -->
<!DOCTYPE svg PUBLIC "-//W3C//DTD SVG 1.1//EN" "http://www.w3.org/Graphics/SVG/1.1/DTD/svg11.dtd">
<svg version="1.1" xmlns="http://www.w3.org/2000/svg" xmlns:xlink="http://www.w3.org/1999/xlink" x="0px" y="0px"
	 viewBox="0 0 71.829 55.419" style="enable-background:new 0 0 71.829 55.419;" xml:space="preserve">
<g id="notes">
	<path style="fill:#F7A13A;" d="M55.715,42.788C55.69,42.819,55.76,42.729,55.715,42.788L55.715,42.788z M55.643,42.754
		c-0.07,0.008-0.138,0.025-0.205,0.049c0.141,0.037,0.283,0.051,0.426,0.044C55.799,42.803,55.554,42.771,55.643,42.754
		C55.573,42.762,55.565,42.769,55.643,42.754z M3.887,43.486C3.753,43.438,3.828,43.481,3.887,43.486
		C3.887,43.486,3.852,43.483,3.887,43.486z M4.853,44.173l-0.016,0C4.828,44.199,4.852,44.215,4.853,44.173z M7.906,42.991
		c0.056,0.013,0.134,0.016,0.223,0.014C8.163,42.988,8.152,42.978,7.906,42.991z M2.829,44.093c0.073-0.014,0.146-0.028,0.219-0.042
		C2.955,44.043,2.71,44.096,2.829,44.093C2.902,44.079,2.7,44.096,2.829,44.093z M3.316,43.489l0.04,0.034
		C3.389,43.51,3.392,43.497,3.316,43.489z M27.179,31.484C27.209,31.511,27.32,31.605,27.179,31.484
		C27.194,31.497,27.179,31.484,27.179,31.484z M19.928,31.729C19.937,31.728,20.002,31.642,19.928,31.729
		C19.93,31.729,19.928,31.729,19.928,31.729z M2.382,32.486C2.243,32.439,2.316,32.48,2.382,32.486
		C2.382,32.486,2.345,32.483,2.382,32.486z M15.729,31.929c-0.086-0.017-0.412-0.078-0.593-0.042
		C15.142,31.936,15.661,31.928,15.729,31.929z M71.829,32.34c-1.008,1.472-3.41,1.025-4.906,0.924
		c-2.696-0.182-5.475,0.058-8.182,0.035c0.047,0.118-0.162,1.457-0.471,0.941c-0.241,0.523-0.189,1.374-0.765,1.671
		c-0.326,0.212-0.778,1.379-1.118,1.721c-1.549,1.558-3.411,1.96-5.396,2.629c-0.624,0.21-1.549,0.329-1.962-0.382
		c-0.482-0.83,0.754-1.512,1.382-1.575c2.188-0.22,4.678-2.027,5.501-4.074c2.183-5.433-5.152-8.192-9.257-7.069
		c-2.024,0.554-3.959,1.581-4.738,3.651c-0.371,0.986-0.484,2.075-0.071,3.064c0.184,0.44,0.444,0.843,0.711,1.236
		c0.238,0.35,1.257,1.415,0.54,1.284c0.805,0.861,2.196,1.934,3.46,1.693c-0.627,0.097,0.599,0.249,0.804,0.311
		c0.259,0.077,0.256,0.288,0.571,0.313c0.307,0.025,0.66-0.031,0.919,0.185c-0.415,0.148-0.845,0.261-1.239,0.463
		c0.353-0.003-0.26,0.162-0.347,0.175c0.02-0.197-0.772-0.091-0.902-0.092c-0.342-0.004-1.933-0.511-2.119-0.293
		c0.205-0.115,0.118-0.152-0.26-0.11c-0.03-0.017-1.022-0.314-1.322-0.497c0.523,0.198-0.091-0.053,0.212-0.014
		c-0.272-0.386-0.835-0.4-1.155-0.725c0.239-0.59-0.531-0.932-0.829-1.308c0.179,0.011,0.357,0.025,0.535,0.044
		c-0.285-0.179-0.606-0.402-0.804-0.68c-0.076-0.055-0.743-1.285-0.391-0.519c-0.15-0.176-0.299-0.352-0.449-0.528
		c0.217-0.356-0.268-1.048-0.157-1.516c-0.352,0.028-0.038,0.924-0.052,1.113c-0.034-0.109-0.302-1.102-0.373-0.884
		c0.042-0.066,0.075-0.135,0.101-0.208c-1.454-0.151-2.891-0.017-4.335-0.04c-0.598-0.009-2.006-0.372-2.074,0.514
		c-0.099,1.284,0.096,2.678,0.113,3.974c0.009,0.636,0.185,1.25,0.196,1.888c0.006,0.322,0.065,1.717-0.352,1.149
		c-0.063,0.601,0.076,1.207-0.044,1.804c0.378-0.041,0.714-0.112,1.086,0.032c-0.778-0.157,0.233,0.08,0.393,0.108
		c-0.327-0.089,1.348,0.06,1.25-0.107c0.546,0.228,1.393,0.029,1.959,0.007c0.841-0.032,1.682-0.068,2.523-0.09
		c1.741-0.045,3.488-0.045,5.227,0.049c0.9,0.049,1.799,0.074,2.701,0.096c0.735,0.019,1.755,0.191,2.44-0.095
		c-0.317,0.298,0.432,0.131,0.144,0.068c1.554,0.241,3.123-0.05,4.683,0.016c1.349,0.057,2.576,0.184,3.957,0.1
		c1.755-0.107,3.517,0.123,5.271,0.099c1.653-0.023,2.856-0.091,4.443,0.448c-1.131,1.848-5.116,0.892-6.916,0.957
		c-3.911,0.142-7.846-0.02-11.758-0.058c-3.872-0.038-7.741-0.052-11.613-0.027c-1.613,0.01-3.239,0.04-4.85-0.026
		c-0.3-0.012-1.134-0.064-0.827,0.478c-0.114,0.201-0.35,0.324-0.334,0.584c0.021,0.344,0.058,0.845-0.28,0.243
		c-0.247,0.499-0.168,1.315-0.736,1.608c-0.325,0.212-0.778,1.379-1.118,1.721c-1.549,1.558-3.412,1.96-5.396,2.629
		c-0.624,0.21-1.549,0.329-1.962-0.382c-0.482-0.83,0.754-1.512,1.382-1.575c2.192-0.22,4.681-2.006,5.501-4.064
		c2.165-5.438-5.136-8.206-9.258-7.078c-2.103,0.575-4.015,1.655-4.777,3.813c-0.343,0.97-0.485,2.013-0.059,2.98
		c0.194,0.441,0.47,0.84,0.75,1.229c0.239,0.332,1.253,1.346,0.529,1.213c0.805,0.861,2.196,1.934,3.46,1.693
		c-0.627,0.097,0.599,0.249,0.804,0.311c0.259,0.077,0.256,0.288,0.571,0.313c0.306,0.025,0.66-0.031,0.919,0.185
		c-0.415,0.148-0.845,0.261-1.239,0.463c0.353-0.003-0.26,0.162-0.347,0.175c0.02-0.197-0.772-0.091-0.902-0.092
		c-0.342-0.004-1.933-0.511-2.119-0.293c0.205-0.115,0.118-0.152-0.26-0.11c-0.03-0.017-1.022-0.314-1.322-0.497
		c0.523,0.198-0.091-0.053,0.212-0.014c-0.272-0.386-0.835-0.4-1.155-0.725c0.239-0.589-0.531-0.933-0.829-1.308
		c0.179,0.011,0.357,0.025,0.536,0.044c-0.285-0.179-0.606-0.402-0.805-0.68c-0.076-0.055-0.743-1.285-0.391-0.519
		c-0.15-0.176-0.299-0.352-0.449-0.528c0.239-0.393-0.479-1.169-0.126-1.627c-0.429-0.003-0.077,1.014-0.083,1.225
		c-0.034-0.109-0.302-1.102-0.373-0.884c0.078-0.102,0.109-0.216,0.094-0.344c-0.487-0.005-0.974,0.009-1.462-0.001
		c-0.205-0.004-1.732,0.044-0.489-0.185c-1.904-0.069-4.255-0.313-6.137,0.1c0.919-0.111-0.81-0.021-1.058-0.026
		c-0.325-0.007-0.475-0.16-0.793-0.219c-0.583-0.109-1.18,0.107-1.754-0.101c0.291-0.049,0.582-0.099,0.873-0.151
		c0.145-0.031,0.29-0.062,0.435-0.092c0.505-0.102,0.567-0.142,0.187-0.12c0.765-0.227,1.762-0.259,2.631-0.289
		c0.399-0.014,1.824,0.232,2.053-0.203c-0.193,0.158-0.072,0.154,0.363-0.011c-0.342-0.01,0.275-0.084,0.306-0.088
		c0.482-0.056,0.969-0.078,1.453-0.092c-0.693,0.094,0.161-0.018-0.207,0.091c0.398,0.066,0.847-0.117,1.246-0.139
		c0.391-0.022,0.453,0.264,0.814,0.268c1.16,0.013,1.543-0.09,1.741-1.13c0.121-0.634,0.51-2.538,1.33-2.713
		c0.351-0.075,1.094-1.468,0.949-1.468c0.166,0.002,0.325-0.031,0.476-0.101c-0.056-0.389,0.685,0.094,1.139-0.337
		c0.601-0.57,1.604-0.866,2.394-1.053c-0.154-0.124,0.39-0.25,0.544-0.368c-0.062,0.42,0.482,0.011,0.295-0.234
		c0.407,0.169,0.624-0.274,1.109-0.013c-0.69-0.165,0.209,0.1,0.33,0.136c-0.264-0.118,1.09,0.102,1.006-0.184
		c0.431,0.365,1.03-0.04,1.361,0.138c0.47,0.252,1.464,0.211,2.005,0.367c2.218,0.642,3.591,2.108,5.015,3.867
		c-0.201-0.404-0.17-0.875-0.393-1.267c0.033,0.338-0.039,0.262-0.216-0.226c0.11-0.029,0.167-0.102,0.173-0.222
		c0.04-0.21,0.06-0.835-0.151-0.981c0.01,0.293,0.02,0.653-0.099,0.929c0-0.087,0.029-0.837-0.188-0.566
		c0.307-0.345,0.083-1.368,0.014-1.81c-0.101-0.656-0.07-1.133,0.102-1.774c0.055-0.203-0.294-0.25-0.154-0.55
		c0.156-0.334-0.264-0.292-0.504-0.295c-1.436-0.019-2.872-0.053-4.308-0.054c-2.647-0.001-5.294,0.089-7.941,0.09
		c-1.415,0-2.829,0.092-4.243,0.129c-0.707,0.019-1.415,0.025-2.122-0.001c-0.267-0.01-2.419-0.014-1.062-0.24
		c-1.339-0.045-2.761-0.09-4.085,0.024c-0.812,0.069-1.671-0.088-2.472,0.077c0.948-0.107,0.025-0.077-0.118-0.068
		c-0.417,0.026-0.861,0.094-1.278,0.025C1.706,33.118,0.715,33.181,0,32.939c0.311-0.049,0.621-0.099,0.932-0.15
		c0.155-0.031,0.309-0.061,0.464-0.092c0.54-0.102,0.607-0.142,0.201-0.121c1.396-0.388,3.791-0.159,4.9-0.438
		c0.163-0.035,0.327-0.057,0.493-0.065c-0.364-0.01,0.295-0.084,0.328-0.088c0.515-0.056,1.035-0.078,1.552-0.092
		c-0.742,0.094,0.175-0.019-0.221,0.091c0.72,0.113,1.238-0.211,1.896,0.081c0.548,0.244,1.37-0.022,1.948-0.038
		c-0.163,0.091-0.326,0.181-0.491,0.268c0.588-0.093,1.175-0.205,1.769-0.25c0.168-0.013,1.51-0.072,0.501-0.015
		c1.12-0.142,2.216,0.025,3.358-0.052c-0.525-0.341-1.344-0.038-1.928-0.146c1.852,0.001,3.532,0.013,5.192-0.065
		c0.665-0.032,1.329-0.094,1.995-0.099c0.557-0.004,1.281,0.243,1.811,0.086c0.195-0.058,1.742-0.208,1.554-0.294
		c0.09,0.036,0.735,0.164,0.476,0.033c0.148-0.024,0.876,0.264,0.649,0.328c0.698,0.124,1.385,0.036,2.082-0.041
		c0.435-0.048,0.871-0.075,1.309-0.041c0.068-0.401-0.014-0.815,0.005-1.218c-0.088,0.079-0.124,0.072-0.108-0.019
		c0.211-0.114-0.003-0.217-0.116-0.373c0.357,0.087,0.031-0.271-0.169-0.21c0.208-0.195-0.169-0.295,0.147-0.689
		c-0.24,0.407,0.115-0.112,0.162-0.202c-0.101,0.172-0.152,0.095-0.153-0.23c0.258,0.215-0.076-1.161-0.02-1.255
		c0.343-0.58-0.055-1.794-0.088-2.429c-0.037-0.716,0.088-1.474,0.126-2.19c0.023-0.431,0.359-1.827-0.073-2.182
		c0.282,0.103,0.119-0.827,0.127-1.105c0.021-0.682,0.153-1.163-0.089-1.826c-0.311-0.848-0.143-1.763-0.039-2.633
		c0.119-0.985,0.005-1.929-0.077-2.913c-0.059-0.709-0.549-4.548,0.245-4.777c1.795-0.52,3.659-0.964,5.482-1.39
		C43.751,4.315,51.207,1.815,58.841,0c-0.006,2.649,0.202,5.275,0.128,7.927c-0.062,2.233-0.103,4.386-0.078,6.625
		c0.03,2.789,0.017,5.577,0.053,8.366c0.018,1.413-0.091,2.861,0.001,4.269c0.037,0.565,0.152,1.122,0.181,1.687
		c0.014,0.284,0.098,1.532-0.339,0.983c-0.073,0.639-0.007,1.291-0.116,1.926c2.24-0.102,4.602,0.352,6.811,0.113
		C67.562,31.673,69.853,31.712,71.829,32.34C70.685,34.01,71.34,32.184,71.829,32.34z M13.318,43.224
		c-0.002-0.059-0.003-0.118-0.005-0.177c-0.152,0.064-0.294,0.146-0.424,0.248C14.779,42.981,12.926,43.286,13.318,43.224
		C13.316,43.165,13.164,43.248,13.318,43.224z M56.705,8.655C56.704,8.656,56.704,8.659,56.705,8.655
		C56.705,8.656,56.705,8.656,56.705,8.655z M57.276,28.667C57.329,28.553,57.195,28.614,57.276,28.667
		C57.283,28.653,57.269,28.662,57.276,28.667z M32.657,11.384c0.359,1.219,0.432,2.786,0.444,4.054
		c0.012,1.316-0.094,2.653-0.15,3.922c0.113-0.069,0.226-0.138,0.339-0.207c0.417-0.236,0.441-0.288,0.072-0.158
		c0.211-0.157,0.435-0.292,0.672-0.407c0.057,0.216,1.734-0.642,1.96-0.759c0.465-0.241,0.993-0.297,1.472-0.502
		c0.209-0.067,0.499-0.475,0.729-0.424c-0.047,0.037-0.063,0.083-0.047,0.136c0.156-0.066,0.303-0.15,0.439-0.25
		c-0.362,0.084,0.394-0.262,0.479-0.298c0.165-0.07,0.332-0.133,0.503-0.19c0.198-0.072,1.074-0.631,0.627-0.127
		c0.268-0.184,0.067,0.011,0.025,0.032c0.652-0.029,1.142-0.564,1.773-0.656c0.54,0.559,1.552-0.158,2.109-0.335
		c-0.126,0.177-0.255,0.351-0.388,0.523c0.439-0.234,0.876-0.484,1.341-0.663c0.125-0.08,1.885-0.719,0.838-0.343
		c0.476-0.228,3.391-0.869,3.325-1.111c-0.632,0.182-1.298,0.445-1.966,0.433c0.25-0.068,1.085-0.507,1.131-0.503
		c0.822,0.292,1.896-0.429,2.632-0.717c-0.176,0.169,0.811-0.255,0.986-0.333c0.238-0.107,1.192-0.684,1.458-0.482
		c0.431,0.327,2.612-0.642,3.119-0.682c-0.172-0.226,0.026-0.154-0.382-0.301c0.096,0.067,0.169-0.354,0.342-0.685
		c0.202-0.387,0.123-1.312,0.075-1.739c-0.153-1.364,0.264-2.393-0.124-3.547c0.414,0.218,0.141-0.658-0.169-0.455
		c0.161-0.398-0.229-0.874,0.147-1.212c-0.206,0.191,0.107-0.091,0.162-0.172c-0.139,0.174-0.06-0.071-0.078,0.026
		c0.091-0.5-0.005,0.494,0.131-0.43c-0.125,0.065-0.214,0.163-0.268,0.294c0.177-0.407-0.34,0.096-0.523,0.144
		c-0.369,0.096-0.735,0.165-1.1,0.281c-0.915,0.29-1.813,0.631-2.731,0.911c-1.721,0.525-3.567,0.936-5.325,1.313
		c-1.04,0.223-2.07,0.493-3.109,0.723c-0.524,0.116-1.545,0.316-1.919,0.684c0.197-0.463-0.452-0.062-0.181-0.057
		c-1.229,0.074-2.492,0.418-3.642,0.847c-0.651,0.242-1.785,0.649-2.432,0.556c-0.178-0.026-2.285,0.605-2.671,0.877
		c-0.325,0.229-0.22,1.669-0.134,1.961C32.607,11.218,32.61,11.226,32.657,11.384C32.866,12.094,32.557,11.049,32.657,11.384z
		 M39.1,31.579c0.164,0.055,0.219-0.002,0.165-0.17c0.062,0.135,0.313-1.108,0.367-1.346c0.149-0.659,0.514-1.151,0.915-1.675
		c0.138-0.18,1.545-1.775,1.225-1.774c0.166,0.002,0.325-0.031,0.476-0.101c-0.056-0.389,0.684,0.094,1.139-0.337
		c0.601-0.57,1.604-0.866,2.394-1.053c-0.154-0.124,0.39-0.25,0.544-0.367c-0.062,0.42,0.482,0.011,0.295-0.234
		c0.407,0.169,0.624-0.274,1.109-0.013c-0.69-0.165,0.209,0.1,0.33,0.136c-0.264-0.118,1.09,0.102,1.006-0.184
		c0.44,0.373,1.076,0.021,1.523,0.153c0.592,0.174,1.128,0.076,1.763,0.264c2.031,0.602,3.372,1.829,4.736,3.403
		c0.1-0.151-0.037-0.518-0.031-0.143c-0.352-0.84-0.115-0.073-0.043-0.652c0.023-0.181,0.039-0.725-0.155-0.844
		c0.01,0.279-0.009,0.592-0.099,0.859c0-0.085,0.043-0.79-0.188-0.523c0.227-0.23-0.159-2.26-0.143-2.265
		c0.428-0.14,0.237-2.214-0.228-1.913c0.265-0.144,0.287-0.261,0.066-0.352c-0.017-0.132,0.547-0.138,0.548-0.582
		c0.001-0.507-0.122-1.012-0.096-1.518c-0.043,0.017-0.087,0.021-0.133,0.014c0.033-0.057,0.079-0.102,0.138-0.135
		c-0.12-0.006-0.117-0.098-0.229-0.241c0.361,0.081,0.017-0.246-0.169-0.194c0.213-0.184-0.18-0.26,0.147-0.637
		c-0.239,0.376,0.113-0.099,0.162-0.187c-0.099,0.158-0.15,0.087-0.153-0.213c0.037,0.028,0.164-0.037,0.198-0.161
		c0.039-0.143-0.116-0.215-0.084-0.451c0.044-0.323-0.13-0.373-0.081-0.64c0.103-0.571-0.188-1.26-0.193-1.83
		c-0.002-0.251,0.435-2.019,0.041-2c-0.719,0.035-1.674,0.515-2.367,0.735c-1.928,0.611-3.896,1.079-5.819,1.704
		c-2.024,0.657-4.039,1.461-6.174,1.666c0.155-0.106,0.311-0.211,0.467-0.315c-1.316,0.291-2.741,0.627-4.009,1.065
		c-0.815,0.281-1.808,0.422-2.546,0.878c1.013-0.46-0.603-0.031-0.796,0.021c-0.374,0.1-1.295,0.337-1.483,0.248
		c-0.921-0.437-0.81,1.611-0.816,1.895c-0.074,3.385,0.287,6.768,0.129,10.152c0.142-0.027,0.164-0.086,0.065-0.179
		c0.483,0.131,0.955-0.131,1.431,0.098c-0.833-0.157,0.253,0.08,0.42,0.108c-0.35-0.09,1.438,0.056,1.335-0.107
		C36.859,31.918,38.879,31.283,39.1,31.579C39.261,31.637,39.224,31.746,39.1,31.579z M3.414,33.173l-0.017,0
		C3.388,33.199,3.413,33.215,3.414,33.173z M12.6,31.968C12.481,32.042,12.486,32.038,12.6,31.968L12.6,31.968z M6.677,31.991
		c0.06,0.013,0.143,0.016,0.238,0.014C6.951,31.988,6.939,31.978,6.677,31.991z M1.252,33.093c0.078-0.014,0.156-0.028,0.234-0.042
		C1.397,33.044,1.125,33.096,1.252,33.093C1.33,33.079,1.114,33.096,1.252,33.093z M1.772,32.489l0.043,0.034
		C1.85,32.51,1.853,32.497,1.772,32.489z M16.448,37.383C16.586,37.456,16.518,37.411,16.448,37.383
		C16.468,37.393,16.448,37.383,16.448,37.383z M14.512,39.668l0.004-0.019C14.482,39.649,14.499,39.656,14.512,39.668z
		 M31.805,46.854C31.8,46.786,31.8,46.828,31.805,46.854C31.804,46.838,31.805,46.854,31.805,46.854z M31.866,46.795
		c0.014-0.063,0.015-0.126,0.004-0.189c-0.057,0.078-0.113,0.155-0.17,0.233C31.705,46.83,31.872,46.736,31.866,46.795
		C31.88,46.732,31.873,46.725,31.866,46.795z M13.423,42.257C13.412,42.248,13.307,42.169,13.423,42.257L13.423,42.257z
		 M21.295,50.637C21.404,50.744,21.325,50.646,21.295,50.637C21.295,50.637,21.319,50.645,21.295,50.637z M13.765,45.541
		c-0.001,0.058-0.048,0.301,0.078,0.457C13.903,45.972,13.781,45.612,13.765,45.541z M20.835,49.498l0.01,0.003
		C20.859,49.463,20.849,49.436,20.835,49.498z M14.828,47.67C14.967,47.677,14.965,47.677,14.828,47.67L14.828,47.67z
		 M18.193,50.438c-0.031-0.037-0.083-0.068-0.147-0.096C18.01,50.352,18.011,50.37,18.193,50.438z M22.131,49.823
		C21.653,49.943,22.347,49.819,22.131,49.823C22.081,49.836,22.217,49.821,22.131,49.823z M21.708,50.684l-0.023-0.054
		C21.659,50.646,21.654,50.665,21.708,50.684z M30.567,34.529c-0.003-0.004-0.005-0.007-0.008-0.011
		C30.531,34.53,30.549,34.528,30.567,34.529z M30.663,36.219C30.662,36.216,30.518,36.182,30.663,36.219
		C30.663,36.218,30.663,36.219,30.663,36.219z M30.962,38.242c-0.156-0.016-0.177,0.079-0.063,0.286
		C30.959,38.525,30.953,38.284,30.962,38.242z M32.708,45.215C32.556,44.829,32.722,45.404,32.708,45.215
		C32.693,45.177,32.713,45.282,32.708,45.215z M42.389,26.195C42.526,26.268,42.458,26.223,42.389,26.195
		C42.408,26.205,42.389,26.195,42.389,26.195z M40.453,28.48l0.004-0.02C40.422,28.461,40.439,28.468,40.453,28.48z M57.746,35.666
		C57.74,35.598,57.74,35.64,57.746,35.666C57.745,35.65,57.746,35.666,57.746,35.666z M57.806,35.607
		c0.014-0.063,0.015-0.126,0.004-0.189c-0.057,0.078-0.113,0.155-0.17,0.233C57.645,35.642,57.813,35.548,57.806,35.607
		C57.82,35.544,57.814,35.537,57.806,35.607z M39.364,31.068C39.352,31.06,39.247,30.981,39.364,31.068L39.364,31.068z
		 M47.235,39.449C47.344,39.556,47.265,39.458,47.235,39.449C47.235,39.449,47.26,39.457,47.235,39.449z M39.705,34.353
		c-0.001,0.058-0.048,0.301,0.078,0.457C39.844,34.784,39.722,34.424,39.705,34.353z M46.775,38.31l0.01,0.003
		C46.799,38.275,46.789,38.248,46.775,38.31z M40.768,36.482C40.907,36.489,40.906,36.489,40.768,36.482L40.768,36.482z
		 M44.133,39.249c-0.031-0.037-0.083-0.068-0.147-0.096C43.95,39.164,43.951,39.182,44.133,39.249z M48.072,38.635
		C47.594,38.755,48.288,38.631,48.072,38.635C48.021,38.648,48.158,38.633,48.072,38.635z M47.648,39.496l-0.023-0.054
		C47.599,39.458,47.595,39.477,47.648,39.496z M47.048,30.554C47.029,30.519,46.999,30.47,47.048,30.554
		C47.042,30.542,47.048,30.554,47.048,30.554z M44.632,32.263C44.627,32.257,44.61,32.244,44.632,32.263
		C44.628,32.259,44.632,32.263,44.632,32.263z M44.655,32.264C44.563,32.193,44.643,32.246,44.655,32.264
		C44.636,32.249,44.645,32.25,44.655,32.264z M47.656,30.065C47.658,30.073,47.675,30.155,47.656,30.065L47.656,30.065z
		 M49.439,29.013C49.469,29.096,49.446,29.017,49.439,29.013C49.439,29.013,49.443,29.016,49.439,29.013z M48.033,29.755
		C48.076,29.781,48.143,29.821,48.033,29.755L48.033,29.755z M48.836,29.541c0.003,0.013,0.607-0.543,0.612-0.474
		c0.103-0.121,0.145-0.47,0.127-0.615c0.02,0.168-0.158-0.175-0.164-0.183c-0.04,0.045-0.085,0.085-0.133,0.121
		c-0.109-0.033-0.127-0.089-0.055-0.168c-0.118,0.215-1.634,0.229-1.977,0.356c-0.509,0.189-1.841,1.127-2.333,1.084
		c0.086,0.441-1.43,1.639-1.677,2.074c-0.547,0.962-0.453,2.276,0.979,1.639c0.054-0.006,0.484-1.819,0.841-1.48
		c-0.148-0.185,1.116-1.053,1.123-1.054c-0.099-0.232,0.029,0.07,0.077-0.194c0.008-0.046,0.195,0.277,0.072,0.099
		c0.279,0.221,0.046-0.112,0.112-0.207c0.04,0.088,0.274-0.457,0.62,0.001c-0.052-0.146-0.025-0.146,0.081-0.001
		c-0.096-0.136-0.064-0.435,0.146-0.339c0.398,0.183,0.267-0.34,0.681-0.197c-0.154-0.206,0.026-0.088,0.08-0.19
		c-0.117,0.091-0.197,0.097-0.24,0.016c0.058-0.032,0.074-0.079,0.048-0.139c0.293,0.205,0.296,0.061,0.289-0.159
		c0.118,0.058,0.138-0.049,0.217-0.214c-0.006,0.311,0.074,0.144,0.343,0.356c0.029-0.04,0.03-0.085,0.004-0.133
		c0,0.004,0.119,0.042,0.038,0.101C49.026,29.438,48.719,29.685,48.836,29.541C48.873,29.702,48.783,29.605,48.836,29.541z
		 M49.285,28.331l0.002,0C49.287,28.305,49.283,28.289,49.285,28.331z M48.357,29.651C48.355,29.534,48.356,29.608,48.357,29.651
		L48.357,29.651z M49.531,28.445C49.55,28.43,49.584,28.363,49.531,28.445C49.531,28.445,49.537,28.434,49.531,28.445z
		 M21.108,41.742C21.089,41.707,21.059,41.658,21.108,41.742C21.102,41.73,21.108,41.742,21.108,41.742z M18.692,43.451
		C18.686,43.445,18.67,43.432,18.692,43.451C18.688,43.447,18.692,43.451,18.692,43.451z M18.714,43.452
		C18.622,43.381,18.702,43.434,18.714,43.452C18.695,43.438,18.705,43.438,18.714,43.452z M21.715,41.253
		C21.717,41.261,21.735,41.343,21.715,41.253L21.715,41.253z M23.498,40.201C23.528,40.284,23.505,40.205,23.498,40.201
		C23.498,40.201,23.503,40.204,23.498,40.201z M22.092,40.943C22.135,40.969,22.202,41.009,22.092,40.943L22.092,40.943z
		 M22.895,40.729c0.003,0.013,0.608-0.543,0.612-0.474c0.103-0.122,0.144-0.469,0.127-0.615c0.02,0.166-0.158-0.176-0.163-0.184
		c-0.04,0.045-0.085,0.085-0.133,0.121c-0.109-0.033-0.127-0.089-0.055-0.168c-0.201,0.363-1.106,0.076-1.48,0.187
		c-0.704,0.21-1.387,0.516-2.051,0.83c-0.753,0.356-1.711,1.231-2.126,1.946c-0.302,0.521-1.333,2.697,0.096,2.382
		c0.557-0.123,0.759-0.627,0.899-1.22c0.018-0.074,0.375-0.567,0.495-0.453c-0.166-0.208,1.068-1.051,1.123-1.054
		c-0.099-0.231,0.029,0.07,0.077-0.194c0.008-0.046,0.195,0.277,0.072,0.099c0.279,0.221,0.046-0.112,0.112-0.207
		c0.04,0.089,0.274-0.458,0.62,0.001c-0.052-0.146-0.025-0.146,0.081-0.001c-0.096-0.136-0.064-0.435,0.146-0.339
		c0.398,0.183,0.267-0.34,0.681-0.197c-0.154-0.206,0.026-0.088,0.08-0.19c-0.117,0.091-0.197,0.096-0.24,0.016
		c0.058-0.032,0.074-0.079,0.048-0.139c0.293,0.205,0.296,0.061,0.289-0.159c0.118,0.058,0.138-0.049,0.217-0.214
		c-0.006,0.311,0.074,0.145,0.343,0.356c0.029-0.04,0.03-0.085,0.004-0.134c0,0.004,0.119,0.042,0.038,0.101
		C23.086,40.625,22.778,40.873,22.895,40.729C22.933,40.89,22.843,40.794,22.895,40.729z M23.344,39.519l0.002,0
		C23.346,39.493,23.342,39.478,23.344,39.519z M22.416,40.839C22.415,40.722,22.416,40.797,22.416,40.839L22.416,40.839z
		 M23.59,39.633C23.609,39.618,23.643,39.551,23.59,39.633C23.59,39.633,23.597,39.622,23.59,39.633z M56.236,22.39
		C56.301,22.367,56.376,22.341,56.236,22.39C56.256,22.383,56.236,22.39,56.236,22.39z M56.508,24.057
		c-0.003-0.004-0.005-0.006-0.008-0.01C56.472,24.058,56.49,24.056,56.508,24.057z M56.603,25.619
		C56.603,25.617,56.458,25.585,56.603,25.619C56.603,25.618,56.603,25.619,56.603,25.619z M56.865,27.746
		c0.012-0.086,0.025-0.171,0.037-0.257C56.743,27.502,56.75,27.772,56.865,27.746z M58.649,33.937
		C58.495,33.576,58.663,34.116,58.649,33.937C58.634,33.902,58.654,33.999,58.649,33.937z M56.236,10.688
		C56.369,10.582,56.301,10.633,56.236,10.688C56.256,10.672,56.236,10.688,56.236,10.688z M54.966,11.694l0.021-0.014
		C54.954,11.66,54.964,11.676,54.966,11.694z M35.889,8.503C35.96,8.446,35.908,8.484,35.889,8.503
		C35.904,8.491,35.889,8.503,35.889,8.503z M35.998,8.505c0.074-0.033,0.141-0.077,0.201-0.131c-0.149,0.002-0.297,0.02-0.442,0.052
		C35.763,8.421,36.105,8.444,35.998,8.505C36.071,8.471,36.076,8.46,35.998,8.505z M51.464,12.747
		C51.468,12.732,51.502,12.604,51.464,12.747L51.464,12.747z M34.03,18.651C34.242,18.714,34.018,18.553,34.03,18.651
		C34.049,18.656,34.029,18.641,34.03,18.651z M46.73,14.309c0.191-0.004,0.402-0.083,0.59-0.122
		C47.249,14.151,46.683,14.258,46.73,14.309z M35.425,19.363l-0.017,0.004C35.409,19.407,35.441,19.423,35.425,19.363z
		 M44.188,15.101C44.099,15.238,44.102,15.234,44.188,15.101L44.188,15.101z M38.24,16.758c0.065,0.003,0.15-0.016,0.245-0.045
		C38.515,16.678,38.499,16.667,38.24,16.758z M33.219,19.839c0.073-0.042,0.146-0.083,0.219-0.125
		C33.323,19.733,33.096,19.877,33.219,19.839C33.292,19.797,33.081,19.881,33.219,19.839z M33.503,18.823l0.057,0.037
		C33.59,18.831,33.588,18.813,33.503,18.823z M28.799,53.484C28.824,53.515,28.89,53.596,28.799,53.484
		C28.81,53.497,28.799,53.484,28.799,53.484z M50.104,53.774C50.048,53.805,50.091,53.782,50.104,53.774
		C50.095,53.779,50.104,53.774,50.104,53.774z M50.035,53.754C49.809,53.935,50.065,53.746,50.035,53.754
		C50.006,53.777,49.976,53.769,50.035,53.754z M23.752,53.729C23.757,53.728,23.805,53.637,23.752,53.729
		C23.753,53.729,23.752,53.729,23.752,53.729z M11.539,54.486C11.428,54.433,11.501,54.482,11.539,54.486
		C11.539,54.486,11.513,54.483,11.539,54.486z M20.829,53.929c-0.032-0.004-0.279-0.08-0.413-0.042
		C20.42,53.932,20.769,53.925,20.829,53.929z M58.886,53.895c-2.158,0.421-4.533-0.214-6.728-0.044
		c-0.934,0.072-1.701-0.142-2.596-0.16c-0.551-0.011-1.102,0.041-1.652,0.066c-0.46,0.02-1.348-0.158-1.646-0.099
		c-0.126,0.025-0.307,0.159-0.143-0.049c-0.529,0.297-1.683,0.09-2.251,0.069c-1.316-0.048-2.643-0.006-3.95-0.154
		c-1.088-0.124-2.152,0.266-3.27,0.18c-0.836-0.064-2.123,0.183-2.503,0.043c-0.111-0.026-0.879-0.267-0.292-0.108
		c-0.647-0.339-1.662,0.375-1.867,0.164c-1.375-0.03-2.739,0.288-3.831-0.345c-0.076-0.05-2.514,0.193-2.954,0.23
		c-1.488,0.126-2.967,0.144-4.392,0.143c0.436,0.097,0.9,0.073,1.342,0.066c-0.414,0.22-1.045,0.165-1.485,0.078
		c-0.204-0.04-1.233,0.056-0.58,0.052c-0.61,0.139-1.242,0.128-1.853,0.267c0.86-0.511-0.553-0.077-0.89-0.244
		c-0.498-0.247-0.885,0.058-1.444-0.067c0.265-0.105-0.357,0.007,0.154-0.091c-0.649,0.024-1.23,0.159-1.635,0.263
		c0.013,0.047-1.558,0.234-1.906,0.26c-0.318,0.024-0.648,0.024-0.963,0.078c-0.02,0.002-0.762,0.114-0.382,0.082
		c-0.409,0.183-0.855,0.26-1.288,0.363c0.41,0.199,1.241,0.2,1.697,0.274c0.247,0.041,1.634-0.105,0.985,0.072
		c1.474-0.435,3.06-0.174,4.565-0.1c-0.523,0.119-0.473,0.182,0.151,0.189c0.517,0.051,1.038,0.052,1.556,0.034
		c1.046-0.036,2.09-0.119,3.136-0.153c2.143-0.068,4.288-0.071,6.431-0.04c4.072,0.06,8.138,0.031,12.21,0.009
		c4.162-0.022,8.326,0.062,12.488,0.103c1.63,0.016,3.238-0.102,4.866-0.06c0.549,0.014,1.21-0.017,1.625-0.431
		C60.188,54.24,59.415,54.087,58.886,53.895C57.772,54.113,59.075,53.964,58.886,53.895z M12.257,55.173l-0.012,0
		C12.239,55.199,12.256,55.215,12.257,55.173z M18.651,53.968C18.594,54.017,18.536,54.068,18.651,53.968L18.651,53.968z
		 M14.528,53.991c0.042,0.013,0.099,0.016,0.166,0.014C14.719,53.988,14.711,53.978,14.528,53.991z M10.752,55.093
		c0.054-0.014,0.109-0.028,0.163-0.042C10.848,55.044,10.66,55.096,10.752,55.093C10.806,55.079,10.656,55.096,10.752,55.093z
		 M11.114,54.489l0.03,0.034C11.168,54.51,11.17,54.497,11.114,54.489z"/>
</g>
<g id="Layer_1">
</g>
</svg>
