<?xml version="1.0" encoding="iso-8859-1"?>
<!-- Generator: Adobe Illustrator 17.1.0, SVG Export Plug-In . SVG Version: 6.00 Build 0)  -->
<!DOCTYPE svg PUBLIC "-//W3C//DTD SVG 1.1//EN" "http://www.w3.org/Graphics/SVG/1.1/DTD/svg11.dtd">
<svg version="1.1" xmlns="http://www.w3.org/2000/svg" xmlns:xlink="http://www.w3.org/1999/xlink" x="0px" y="0px"
	 viewBox="0 0 56.719 60.673" style="enable-background:new 0 0 56.719 60.673;" xml:space="preserve">
<g id="pen">
	<path style="fill:#F7A13A;" d="M38.697,47.588C38.571,47.649,38.614,47.626,38.697,47.588
		C38.677,47.598,38.697,47.588,38.697,47.588z M43.284,48.335c0.011,0.003,0.018,0.005,0.028,0.008
		C43.311,48.332,43.318,48.322,43.284,48.335z M16.471,54.895C16.525,54.934,16.392,54.837,16.471,54.895L16.471,54.895z
		 M16.492,54.894c0.117,0.005,0.234,0.011,0.35,0.016C16.842,54.857,16.408,54.898,16.492,54.894
		C16.609,54.899,16.538,54.892,16.492,54.894z M47.607,48.661C47.608,48.666,47.69,48.751,47.607,48.661
		C47.609,48.673,47.607,48.661,47.607,48.661z M53.868,44.732C53.584,44.701,53.958,44.742,53.868,44.732L53.868,44.732z
		 M47.575,46.684c-0.028,0.002,0.641,0.401,0.6,0.385C47.975,46.941,47.775,46.813,47.575,46.684z M56.719,45.265
		c-0.678-0.107-1.365-0.179-2.039-0.31c-0.537-0.088-1.076-0.168-1.615-0.244c-0.225-0.031-2.451-0.348-1.137-0.123
		c-2.574-0.479-4.671-0.677-7.31-0.841c0.19,0.034,0.38,0.068,0.569,0.104c-1.119-0.022,0.484,0.554,0.833,0.753
		c0.59,0.337,1.182,0.672,1.762,1.026c0.895,0.546,1.867,1.118,2.508,1.97c1.907,2.536-2.704,2.476-4.123,2.369
		c-2.831-0.213-5.648-0.522-8.469-0.836c-1.184-0.132-2.381-0.207-3.559-0.376c-0.408-0.059-1.9-0.457-2.203-0.057
		c0.298-0.09,1.616,2.892,1.698,3.097c0.731,1.824,1.248,3.764,1.08,5.743c-0.1,1.182-0.479,2.808-1.846,3.084
		c-2.017,0.407-3.462-1.982-5.047-2.788c-4.208-2.14-9.724-1.897-14.317-2.015c-2.466-0.063-4.933-0.114-7.391-0.331
		c-0.816-0.072-1.79-0.472-2.601-0.316c-0.982,0.189-1.864,0.278-2.838-0.016C1.64,54.457,3.01,53.529,3.716,53.1
		c0.077-0.07,0.05-0.064-0.082,0.018c0.184-0.084-0.051-0.121-0.133-0.06c-0.022-0.049,0.009-0.085,0.092-0.108
		c-0.11,0.107-0.044-0.09-0.297-0.021c0.015-0.133,0.071-0.194-0.04-0.133c0.104-0.154,0.033-0.178,0.002-0.113
		c0.09-0.19-0.12,0.228,0.063-0.071c-0.047,0.08-0.112,0.139-0.195,0.178c0.056-0.06,0.06-0.071,0.011-0.032
		c0.086-0.106,0.027,0.157,0.144-0.185c-0.238,0.267,0.075-0.116-0.036,0.041c0.054-0.077,0.027-0.044,0-0.172
		c-0.14,0.251-0.196,0.148-0.288,0.265c0.349-0.388,0.03-0.008,0.177-0.298c-0.091,0.264-0.058-0.061-0.166,0.125
		c0.036-0.066,0.027-0.059-0.028,0.022c0.006-0.01,0.091-0.243,0.053-0.263c-0.023,0.023-0.047,0.045-0.072,0.066
		c0.31-0.323-0.236,0.151,0.189-0.274c-0.048,0.031-0.093,0.065-0.135,0.103c0.16-0.358,0.012-0.037,0.127-0.396
		c-0.043,0.078-0.083,0.158-0.121,0.239c-0.012-0.039-0.016-0.081-0.003-0.107c-0.045,0.07-0.091,0.14-0.135,0.21
		c0.095-0.207,0.004-0.09-0.019-0.033c-0.011-0.095,0.009-0.183,0.058-0.267c-0.095,0.198-0.088,0.074,0.022-0.37
		c-0.012,0.017-0.021,0.036-0.027,0.056c0.063-0.417,0.399-0.723,0.399-0.754c0.019,0.083,0.036,0.166,0.051,0.25
		c0.004-0.415,1.642,1.03,1.552,1.091c-0.351,0.559,2.145-0.331,2.358-0.431c1.621-0.761,3.31-1.44,4.865-2.328
		c-0.129-0.224-0.847-1.46-1.018-1.295c0.125-0.177-1.314-1.706-1.38-1.719c0.021-0.037,0.047-0.071,0.078-0.102
		c0.019-0.139-0.32-0.004-0.258-0.064c-0.385,0.127,0.027-0.175-0.215-0.062c0.062-0.059,0.095-0.13,0.099-0.213
		c-0.123,0.165-0.175-0.585-0.499-0.522c-0.243,0.228-0.209,0.108-0.192,0.117C8.665,45.5,8.613,45.52,8.564,45.549
		c0.26-0.18-0.864-0.975-0.961-1.181c0.106,0.088,0.224,0.14,0.353,0.154c-0.067-0.251-0.173-0.166-0.416-0.209
		c-0.016-0.288-0.114-0.303-0.177-0.583c-0.089,0.326-0.156,0.127-0.479,0.15c-0.017-0.044-0.011-0.087,0.019-0.128
		c-0.099-0.032-0.14,0.002-0.124,0.099c-0.158-0.127-0.351-0.44-0.418-0.637c-0.915,1.511-1.514,3.192-2.38,4.733
		c-0.153,0.273-1.363,2.698-1.27,2.711c-0.255,0.466-0.475,0.98-0.845,1.372c0.118-0.125,0.163-0.372,0.237-0.525
		C1.315,52.597,0.678,53.788,0,54.95c0.052-0.284,1.466-3.158,1.243-3.396c-0.262-0.279,1.827-4.461,2.066-5.174
		c-0.147,0.243-0.294,0.487-0.441,0.73c0.635-1.025,1.256-2.14,1.703-3.261c0.326-0.818,0.472-1.91,1.158-2.528
		c-0.498,0.65,0.782-0.77,0.913-0.903c0.492-0.502,0.989-0.998,1.488-1.493c1.123-1.113,2.254-2.218,3.345-3.362
		c-0.304,0.218-0.608,0.436-0.911,0.655c2.689-3.174,5.834-6.003,8.806-8.908c3.207-3.135,6.365-6.32,9.573-9.454
		c3.095-3.024,6.221-6.017,9.249-9.107c1.553-1.584,3.102-3.172,4.659-4.752c1.21-1.227,2.709-3.449,4.468-3.889
		c0.754-0.324,2.225,0.113,3.168,0.916c0.766,0.653,2.061,1.572,2.552,2.459c0.993,1.002,2.148,2.026,2.675,3.371
		c0.639,1.632-0.312,2.871-1.4,4.01c-2.461,2.577-5.176,4.919-7.705,7.432c-2.8,2.783-5.575,5.592-8.346,8.403
		c-5.39,5.468-10.826,10.896-16.159,16.42c-1.197,1.24-2.385,2.491-3.606,3.708c-1.155,1.151-2.309,2.516-3.603,3.508
		c-1.284,0.984-3.274,1.397-4.748,2.077c-1.856,0.856-3.711,1.715-5.572,2.562c3.952,0.328,7.42-0.271,11.422-0.069
		c-0.282,0.065,0.459-0.081,0.119,0.003c2.458,0.065,4.911,0.252,7.368,0.349c-0.474-0.004,0.66,0.333,0.203-0.029
		c0.931,0.377,1.918,0.338,2.861,0.649c1.626,0.536,2.688,1.212,3.984,2.257c1.26,1.017,2.322,1.605,2.649-0.479
		c0.309-1.97-0.409-4.075-1.176-5.863c0.143,0.195-0.175-0.401-0.298-0.484c0.318,0.052-0.217-0.548-0.312-0.665
		c-0.223-0.276-0.393-0.596-0.657-0.85c0.52,0.417-0.545-0.784-0.777-0.893c0.046-0.004,0.327,0.461,0.383,0.524
		c-0.802-0.767-0.547-1.698,0.342-2.246c-0.09,0.145,1.567,0.183,0.994-0.081c1.493,0.019,2.809,0.319,4.551,0.464
		c0.096-0.159,2.303,0.358,2.047,0.266c0.726,0.059,1.018-0.266,1.586-0.05c0.555,0.211,1.189,0.248,1.765,0.388
		c0.886,0.216,1.792,0.191,2.706,0.304c1.308,0.163,2.639,0.374,3.96,0.236c-0.202-0.047,1.059-0.02,1.208-0.328
		c0.051-0.106-1.265-1.178-1.394-1.268c0.613,0.284,1.104,0.805,1.565,1.284c0.006-0.001-0.865-0.927-0.98-1.019
		c-0.622-0.499-1.346-0.882-1.997-1.351c1.055,0.706-0.374-0.379-0.564-0.502c-0.592-0.384-1.221-0.712-1.785-1.137
		c0.149,0.158,0.297,0.316,0.443,0.475c-0.485-0.317-1.374-0.685-1.544-1.303c-0.246-0.896,2.209-0.273,2.7-0.253
		c-0.075-0.009-0.417-0.074,0.017-0.009c-0.956-0.198,0.416,0.024,0.513,0.034c0.25,0.026,0.471,0.04,0.713,0.084
		c0.174,0.032,1.091,0.23,0.913,0.2c0.204,0.033,0.407,0.076,0.607,0.13c0.372,0.083,1.941,0.256,2.744,0.446
		c0.637,0.151,1.966,0.273,2.405,0.541c0.297,0.061,0.594,0.12,0.891,0.178c-0.946-0.086,0.537,0.112,0.599,0.123
		C55.804,45.11,56.262,45.186,56.719,45.265C56.126,45.172,55.958,45.133,56.719,45.265z M4.485,53.179
		C4.489,53.183,4.485,53.179,4.485,53.179L4.485,53.179z M12.421,47.084c-0.104,0.463,0.897,1.133,1.053,1.565
		c0.806-1.194,1.945-2.109,2.968-3.106c-0.302,0.153-0.23,0.057,0.215-0.288c0.369-0.358,0.735-0.72,1.098-1.084
		c0.727-0.728,1.445-1.466,2.165-2.201c0.72-0.735,1.443-1.467,2.181-2.184c0.369-0.359,0.741-0.714,1.118-1.063
		c0.106-0.098,0.77-0.996,0.69-0.542c0.086-0.168,0.186-0.326,0.3-0.476c-0.093,0.507,0.354-0.243,0.476-0.374
		c0.364-0.389,0.644-0.832,0.984-1.239c0.299-0.358,1.278-0.914,1.389-1.171c1.788-2.176,4.055-3.899,5.837-6.08
		c-0.375,0.498,1.009-0.512,0.163-0.307c0.162-0.093,1.349-1.094,1.299-1.215c-0.119,0.158,0.726-0.55,0.902-0.688
		c-0.361,0.158-0.316,0.055,0.135-0.311c0.236-0.253,0.476-0.503,0.718-0.75c0.605-0.617,1.225-1.219,1.844-1.822
		c1.102-1.073,2.138-2.208,3.227-3.292c1.751-1.742,4.601-3.974,5.589-5.833c-0.087-0.327-0.673-1.241-1.077-1.048
		c-0.193,0.092-1.137,1.016-0.529,0.67c-1.342,0.727-2.272,2.026-3.276,3.134c0.782-0.458-0.365,0.751-0.543,0.956
		c-0.465,0.537-0.998,1.131-1.652,1.44c-1.412,1.18-2.727,2.472-4.012,3.787c-2.664,2.727-5.336,5.435-8.06,8.104
		c-2.746,2.69-5.395,5.474-8.089,8.215c-1.318,1.341-2.595,2.746-3.997,4.002c-0.624,0.559-1.274,1.055-1.798,1.713
		c-0.403,0.507-0.853,1.113-1.535,1.234C13.284,48.106,12.241,46.855,12.421,47.084C12.354,47.38,12.352,46.996,12.421,47.084z
		 M46.271,11.908c0.104,0.244,0.291,0.451,0.533,0.208c-0.175,0.512,0.853,1.097,1.139,1.381c0.579-0.577,1.122-1.234,1.852-1.631
		c-1.379-1.303-2.899-2.579-4.138-4.015c-0.444-0.515-0.829-1.078-1.337-1.536c-0.474-0.428-1.671,0.996-2.087,1.408
		c0.767,0.373,1.17,1.242,1.776,1.804C44.78,10.304,45.473,11.156,46.271,11.908c-0.066-0.062-0.132-0.125-0.199-0.187
		C46.139,11.783,46.205,11.846,46.271,11.908C46.419,12.256,45.736,11.403,46.271,11.908z M47.288,2.809
		c-0.164,0.149-0.891,0.517-0.302,0.491c-0.295,0.213-0.627,0.392-0.894,0.641c-0.189,0.175-0.369,0.522-0.586,0.669
		c0.232-0.692-0.554,0.449-0.6,0.501c1.351,1.003,2.388,2.271,3.609,3.406c0.958,0.89,1.657,1.387,2.395,2.275
		c0.75-0.796,1.566-1.591,2.265-2.417c0.825-0.974-0.167-1.677-0.849-2.381c0.352,0.246-0.568-0.594-0.798-0.678
		c0.522-0.025-0.526-0.812-0.717-0.975c-0.095-0.081-0.982-0.777-0.589-0.341c-0.296-0.362-0.574-0.739-0.926-1.051
		c0.714,0.498-0.041-0.189-0.189-0.331c-0.188-0.181-0.813-0.266-0.236,0.054c-0.226,0.335-0.947-0.485-1.124,0.112
		C47.656,2.453,47.434,2.675,47.288,2.809C47.103,2.976,47.496,2.619,47.288,2.809z M45.059,13.148
		C45.111,13.169,45.152,13.16,45.059,13.148C45.059,13.148,45.077,13.15,45.059,13.148z M9.079,43.7
		c0.045,0.048,0.775-0.758,0.822-0.81c0.152-0.167,1.076-1.059,0.498-0.729c1.342-0.727,2.272-2.026,3.276-3.134
		c-0.782,0.458,0.365-0.751,0.542-0.956c0.41-0.473,0.855-0.948,1.384-1.289c1.32-0.852,2.456-2.107,3.562-3.218
		c2.567-2.58,5.097-5.191,7.699-7.737c2.691-2.633,5.311-5.332,7.939-8.026c2.518-2.583,5.221-5.019,7.671-7.662
		c-0.029-0.028-0.299-0.314-0.467-0.538c0.14,0.186,0.37,0.302,0.539,0.459c0.176-0.19-0.432-0.604-0.584-0.572
		c-0.202-0.371-0.213-0.449-0.032-0.236c-0.166-0.222-0.318-0.454-0.458-0.694c-0.833,0.877-1.853,1.547-2.602,2.507
		c0.405-0.272,0.061,0.202,0.012,0.441c-0.071,0.348-0.391,0.688-0.657,0.9c0.065-0.059,0.078-0.115,0.04-0.168
		c-0.274,0.114-0.592,0.679-0.734,0.931c0.057-0.06,0.064-0.117,0.021-0.171c-0.357-0.09-1.294,0.907-1.508,1.162
		c-0.485,0.58-0.913,0.95-1.513,1.394c-0.623,0.462-0.966,1.191-1.541,1.701c-0.939,1-1.938,1.909-2.883,2.895
		c-0.534,0.557-1.121,1.05-1.697,1.561c-0.355,0.315-0.706,0.635-1.043,0.97c-0.015,0.015-1.103,0.951-0.438,0.563
		c-1.362,1.228-3.174,2.3-4.001,4.002c0.226-0.325-0.296,0.018-0.357,0.06c-0.597,0.41-1.061,1.091-1.571,1.602
		c0.645-1.235,1.925-2.045,2.878-3.019c-0.273-0.273-2.758,2.423-3.069,2.792c-0.72,0.856-1.345,1.482-2.206,2.203
		c0.2-0.199,0.4-0.398,0.601-0.597c-0.654,0.461-1.136,1.14-1.74,1.663c-0.848,0.736-1.738,1.422-2.614,2.124
		c0.345-0.155,0.69-0.31,1.035-0.466c-0.909,0.873-2.274,1.73-2.862,2.825c-0.301,0.559-0.466,0.866-1.01,1.319
		c-0.676,0.563-1.404,1.088-1.959,1.779c0.104-0.086,0.47-0.283,0.003,0.049c0.154-0.081,0.298-0.178,0.431-0.291
		c-0.626,0.604-1.245,1.108-1.822,1.765c-0.276,0.314-0.569,0.622-0.894,0.887c-0.185,0.15-0.979,0.415-0.348,0.033
		c-0.203,0.161-0.409,0.318-0.618,0.471c0.244,0.442,0.908,0.268,1.268,0.451c0.305,0.155,0.923,0.619,0.982,0.745
		C8.998,43.523,9.005,43.543,9.079,43.7C9.134,43.759,8.932,43.388,9.079,43.7z M11.243,45.522
		c-0.051,0.162,0.212,0.429,0.301,0.544c0.587-1.587,2.61-2.553,3.596-3.874c0.643-0.862,2.024-1.404,2.441-2.401
		c0.181-0.567,0.789-1.006,1.217-1.387c0.491-0.437,1.143-1.372,1.553-1.645c0.107-0.071,0.327-0.103,0.066-0.135
		c0.396-0.111,1.023-0.769,1.318-1.081c0.805-0.85,1.577-1.731,2.364-2.597c0.548-0.603,1.079-1.22,1.724-1.721
		c0.449-0.348,0.904-0.712,1.285-1.135c0.288-0.321,0.952-0.813,1.086-1.198c0.073,0.185,0.834-0.807,0.728-0.577
		c0.029-0.047,0.455-0.852,0.129-0.282c0.179-0.578,0.666-0.55,0.896-0.752c0.216-0.19,0.548-0.476,0.857-0.76
		c0.903-0.831,1.84-1.549,2.121-2.617c-0.015,0.076,0.954-0.697,1.072-0.809c0.476-0.451,0.933-0.913,1.44-1.331
		c1.047-0.862,1.994-1.837,2.91-2.754c-0.237,0.375-0.58,0.683-0.896,0.989c0.429-0.13,0.817-0.587,1.063-0.936
		c0.113-0.16,0.947-0.884,0.479-0.422c0.527-0.33,0.963-0.782,1.49-1.112c-0.966,0.234,0.333-0.435,0.453-0.796
		c0.175-0.527,0.661-0.58,0.966-1.063c-0.26,0.112,0.255-0.246-0.173,0.044c0.473-0.439,0.976-0.751,1.335-0.962
		c0.008,0.015,0.804-0.559,1.036-0.759c0.121-0.104,1.349-1.152,0.732-1.031c0.254-0.016-1.355-1.671-1.463-1.807
		c-0.717,0.852-1.601,1.561-2.335,2.409c-0.737,0.851-1.52,1.589-2.362,2.331c-0.557,0.491-0.831,1.102-1.359,1.612
		c-0.619,0.598-1.521,1.76-2.099,2.145c-0.107,0.071-0.327,0.103-0.066,0.135c-0.396,0.111-1.024,0.769-1.318,1.081
		c-0.805,0.85-1.577,1.731-2.364,2.597c-0.548,0.604-1.079,1.221-1.724,1.721c-0.449,0.348-0.904,0.712-1.285,1.135
		c-0.288,0.321-0.952,0.813-1.086,1.198c-0.073-0.185-0.834,0.807-0.728,0.577c-0.029,0.047-0.455,0.852-0.129,0.282
		c-0.179,0.578-0.666,0.55-0.896,0.752c-0.216,0.19-0.548,0.476-0.857,0.76c-0.903,0.831-1.84,1.549-2.121,2.617
		c-0.014,0.07-1.905,1.631-2.237,1.911c-1.134,0.956-2.185,1.982-3.185,2.983c0.237-0.375,0.58-0.683,0.896-0.989
		c-0.429,0.129-0.817,0.587-1.063,0.936c-0.113,0.16-0.947,0.884-0.479,0.422c-0.527,0.33-0.963,0.782-1.49,1.112
		c0.966-0.234-0.333,0.435-0.453,0.796c-0.175,0.527-0.661,0.58-0.966,1.063c0.26-0.112-0.255,0.246,0.172-0.044
		c-0.473,0.44-0.976,0.751-1.335,0.962c-0.027-0.049-1.262,0.925-1.526,1.152c-0.24,0.207-0.471,0.436-0.727,0.623
		c-0.015,0.013-0.616,0.454-0.326,0.211c-0.198,0.088-0.389,0.188-0.575,0.3C9.809,44.33,10.65,45.394,11.243,45.522
		C11.222,45.588,11.013,45.472,11.243,45.522C11.205,45.642,11.039,45.478,11.243,45.522z M52.5,44.645l-0.021-0.003
		C52.478,44.651,52.51,44.652,52.5,44.645z M44.82,44.876C44.778,44.814,44.954,45.073,44.82,44.876L44.82,44.876z M48.198,43.599
		c0.101,0.016,0.169,0.027,0.295,0.046C48.169,43.583,48.154,43.585,48.198,43.599z M54.876,44.977
		c0.131,0.023,0.263,0.044,0.395,0.063C55.142,45.006,55.007,44.998,54.876,44.977z M54.48,44.852l0.054,0.005
		C54.433,44.84,54.437,44.842,54.48,44.852z M38.972,11.566c-0.05,0.038-0.068,0.092-0.054,0.162
		C38.936,11.674,38.954,11.62,38.972,11.566z M33.044,17.23c-0.016,0.012-0.026,0.019-0.041,0.03
		C33.018,17.269,33.024,17.289,33.044,17.23z M24.533,37.436C24.64,37.429,24.366,37.447,24.533,37.436L24.533,37.436z
		 M24.556,37.409c0.168-0.114,0.316-0.25,0.443-0.408C24.896,36.904,24.606,37.351,24.556,37.409
		C24.667,37.323,24.667,37.323,24.556,37.409C24.724,37.295,24.608,37.349,24.556,37.409z M27.655,22.551
		C27.648,22.545,27.44,22.541,27.655,22.551C27.637,22.537,27.655,22.551,27.655,22.551z M2.676,50.665
		C2.685,50.365,2.662,50.671,2.676,50.665C2.676,50.665,2.663,50.671,2.676,50.665z M20.977,28.853
		c-0.012-0.001-1.01,0.703-0.9,0.861C20.404,29.467,20.689,29.144,20.977,28.853z M2.627,48.081l0.014-0.034
		C2.583,48.023,2.583,48.083,2.627,48.081z M15.931,33.566c-0.167,0.039,0.156-0.046,0.183-0.06
		C16.053,33.526,15.992,33.546,15.931,33.566z M7.381,42.16c-0.141,0.136-0.287,0.288-0.334,0.363
		C7.432,42.166,7.462,42.115,7.381,42.16z M0.875,52.378c-0.021,0.054-0.042,0.108-0.063,0.162c0.026-0.223,0.276-0.378,0.324-0.601
		C1.473,51.375,0.618,52.81,0.875,52.378C0.855,52.432,0.954,52.245,0.875,52.378z M2.146,51.606l0.009,0.106
		C2.215,51.546,2.195,51.545,2.146,51.606z M48.328,8.365C48.324,8.375,48.345,8.323,48.328,8.365L48.328,8.365z M48.334,8.368
		C48.36,8.532,48.447,8.432,48.334,8.368C48.341,8.414,48.347,8.376,48.334,8.368z M42.163,9.626
		c-0.023-0.016-0.17-0.165-0.199-0.139C42.017,9.668,42.084,9.714,42.163,9.626z M32.492,24.442
		C32.504,24.432,32.499,24.27,32.492,24.442C32.497,24.438,32.492,24.442,32.492,24.442z M17.758,39.535
		C17.782,39.541,17.7,39.521,17.758,39.535L17.758,39.535z M17.765,39.525c0.049-0.041,0.099-0.083,0.148-0.124
		C17.859,39.349,17.738,39.562,17.765,39.525C17.814,39.484,17.78,39.505,17.765,39.525z M36.168,20.988
		C36.173,20.993,36.267,21.027,36.168,20.988C36.179,20.998,36.168,20.988,36.168,20.988z M38.402,19.089
		c0.04-0.045,0.29-0.284,0.26-0.32C38.541,18.837,38.422,19.064,38.402,19.089z M45.309,13.942l-0.008,0.009
		C45.331,13.98,45.332,13.956,45.309,13.942z M40.039,17.59C40.056,17.574,39.852,17.564,40.039,17.59
		C40.044,17.585,40.039,17.59,40.039,17.59z M42.764,14.835c0.048-0.045,0.087-0.088,0.106-0.126
		C42.733,14.828,42.734,14.841,42.764,14.835z M23.072,31.963C23.061,31.974,23.066,32.135,23.072,31.963
		C23.067,31.968,23.072,31.963,23.072,31.963z M37.807,16.871C37.782,16.865,37.864,16.885,37.807,16.871L37.807,16.871z
		 M37.8,16.88c-0.049,0.041-0.099,0.083-0.148,0.124C37.705,17.056,37.827,16.843,37.8,16.88
		C37.751,16.922,37.785,16.901,37.8,16.88z M19.397,35.417C19.392,35.413,19.298,35.379,19.397,35.417
		C19.386,35.407,19.397,35.417,19.397,35.417z M10.217,43.495C10.27,43.534,10.25,43.352,10.217,43.495
		C10.222,43.499,10.22,43.482,10.217,43.495z M17.163,37.316c-0.04,0.045-0.29,0.284-0.26,0.32
		C17.024,37.569,17.143,37.341,17.163,37.316z M10.256,42.464l0.008-0.009C10.234,42.426,10.233,42.45,10.256,42.464z
		 M15.526,38.815C15.509,38.831,15.713,38.841,15.526,38.815C15.521,38.82,15.526,38.815,15.526,38.815z M12.801,41.57
		c-0.048,0.045-0.087,0.088-0.106,0.126C12.832,41.577,12.831,41.564,12.801,41.57z M9.264,43.569
		C9.098,43.724,9.691,43.274,9.264,43.569C9.194,43.634,9.31,43.537,9.264,43.569z M9.942,43.696l0.003,0.045
		C9.978,43.696,9.968,43.689,9.942,43.696z M3.025,52.663C3.01,52.68,2.95,52.748,3.025,52.663L3.025,52.663z M3.728,53.084
		C3.721,53.088,3.704,53.099,3.728,53.084L3.728,53.084z M3.726,53.084C3.774,53.049,3.633,53.105,3.726,53.084
		C3.748,53.068,3.726,53.084,3.726,53.084z M2.979,52.42C2.984,52.413,3.03,52.344,2.979,52.42
		C2.987,52.408,2.979,52.42,2.979,52.42z M2.888,51.502C2.922,51.432,2.894,51.489,2.888,51.502L2.888,51.502z M2.988,52.172
		C3.014,52.233,2.981,52.154,2.988,52.172L2.988,52.172z M3.215,50.861L3.215,50.861C3.233,50.823,3.225,50.837,3.215,50.861z
		 M2.984,52.033C3.001,52.003,2.897,52.197,2.984,52.033L2.984,52.033z M3.102,50.893C3.092,50.879,3.08,51.019,3.102,50.893
		C3.099,50.888,3.101,50.904,3.102,50.893z M8.718,45.577C8.713,45.581,8.619,45.658,8.718,45.577L8.718,45.577z M11.667,48.625
		C11.665,48.626,11.641,48.647,11.667,48.625L11.667,48.625z M11.664,48.624C11.698,48.572,11.59,48.596,11.664,48.624
		C11.681,48.598,11.658,48.621,11.664,48.624z M8.001,44.847C8.015,44.823,8.037,44.783,8.001,44.847
		C8.009,44.834,8.001,44.847,8.001,44.847z M7.553,44.298C7.601,44.334,7.681,44.393,7.553,44.298L7.553,44.298z M7.293,44.001
		C7.301,43.977,7.234,44.165,7.293,44.001L7.293,44.001z"/>
</g>
<g id="Layer_1">
</g>
</svg>
