<?xml version="1.0" encoding="iso-8859-1"?>
<!-- Generator: Adobe Illustrator 17.1.0, SVG Export Plug-In . SVG Version: 6.00 Build 0)  -->
<!DOCTYPE svg PUBLIC "-//W3C//DTD SVG 1.1//EN" "http://www.w3.org/Graphics/SVG/1.1/DTD/svg11.dtd">
<svg version="1.1" xmlns="http://www.w3.org/2000/svg" xmlns:xlink="http://www.w3.org/1999/xlink" x="0px" y="0px"
	 viewBox="0 0 55.428 56.267" style="enable-background:new 0 0 55.428 56.267;" xml:space="preserve">
<g id="pens">
	<path style="fill:#F7A13A;" d="M11.615,39.293c0.038-0.05,0.092-0.068,0.162-0.054C11.723,39.257,11.669,39.275,11.615,39.293z
		 M17.308,33.323c-0.011,0.015-0.018,0.025-0.03,0.041C17.338,33.345,17.318,33.339,17.308,33.323z M37.507,24.802
		C37.398,24.967,37.488,24.835,37.507,24.802C37.488,24.832,37.507,24.802,37.507,24.802z M37.332,24.934
		C37.305,24.995,37,25.267,37.05,25.32c0.158-0.128,0.294-0.275,0.408-0.443c-0.047,0.042-0.096,0.079-0.149,0.113
		C37.433,24.934,37.18,25.129,37.332,24.934C37.308,24.988,37.22,25.077,37.332,24.934z M50.553,3.01
		c0.041-0.007,0.175,0.022,0.168-0.048C50.665,2.979,50.609,2.994,50.553,3.01z M48.096,2.962l0.034-0.014
		C48.132,2.904,48.072,2.904,48.096,2.962z M33.555,16.435c0.034-0.076,0.069-0.152,0.103-0.229
		C33.597,16.278,33.589,16.348,33.555,16.435z M42.572,7.368c-0.075,0.047-0.227,0.193-0.363,0.334
		C42.163,7.783,42.215,7.753,42.572,7.368z M52.427,1.196c-0.146,0.087-0.292,0.174-0.438,0.261
		c0.223-0.048,0.378-0.298,0.601-0.324c-0.121-0.014-0.175,0.009-0.161,0.07C52.548,1.146,52.548,1.144,52.427,1.196
		C52.28,1.283,52.698,1.072,52.427,1.196z M51.761,2.477l-0.106-0.009C51.594,2.516,51.595,2.536,51.761,2.477z M14.461,47.051
		C14.428,47.046,14.442,47.051,14.461,47.051C14.452,47.05,14.461,47.051,14.461,47.051z M14.446,47.008
		C14.234,47.042,14.453,47.011,14.446,47.008C14.418,47.013,14.412,46.995,14.446,47.008z M5.993,46.312
		C5.988,46.315,5.908,46.355,5.993,46.312L5.993,46.312z M7.478,47.55c-0.049-0.061-0.098-0.121-0.147-0.182
		C7.26,47.465,7.431,47.639,7.478,47.55z M11.723,49.999l0.005,0.005C11.748,49.988,11.752,49.97,11.723,49.999z M8.251,48.233
		C8.398,48.201,8.293,48.224,8.251,48.233L8.251,48.233z M9.957,49.905c-0.008-0.026-0.029-0.052-0.058-0.078
		C9.876,49.829,9.873,49.839,9.957,49.905z M16.918,38.149C16.936,38.087,16.922,38.135,16.918,38.149
		C16.921,38.139,16.918,38.149,16.918,38.149z M16.981,38.114C17.012,37.829,16.966,38.141,16.981,38.114
		C16.985,38.078,17.012,38.063,16.981,38.114z M35.454,19.677C35.45,19.681,35.481,19.779,35.454,19.677
		C35.453,19.678,35.454,19.677,35.454,19.677z M43.544,10.538C43.401,10.571,43.583,10.591,43.544,10.538
		C43.531,10.541,43.548,10.543,43.544,10.538z M37.664,17.219c-0.098,0.09-0.2,0.176-0.299,0.264
		C37.393,17.48,37.721,17.238,37.664,17.219z M42.504,10.585l0.009-0.008C42.498,10.553,42.475,10.555,42.504,10.585z
		 M38.866,15.927C38.871,15.852,38.876,15.775,38.866,15.927L38.866,15.927z M41.745,13.015c-0.039,0.02-0.081,0.058-0.126,0.106
		C41.613,13.151,41.626,13.153,41.745,13.015z M43.618,9.585C43.323,10.012,43.772,9.419,43.618,9.585
		C43.586,9.631,43.683,9.515,43.618,9.585z M43.79,10.266l-0.045-0.003C43.738,10.289,43.745,10.299,43.79,10.266z M18.227,39.435
		C18.252,39.441,18.17,39.421,18.227,39.435L18.227,39.435z M18.234,39.426c0.049-0.041,0.099-0.083,0.148-0.124
		C18.328,39.249,18.207,39.463,18.234,39.426C18.283,39.384,18.249,39.405,18.234,39.426z M36.637,20.888
		C36.642,20.893,36.736,20.927,36.637,20.888C36.648,20.898,36.637,20.888,36.637,20.888z M45.817,12.81
		C45.764,12.772,45.784,12.954,45.817,12.81C45.812,12.807,45.814,12.824,45.817,12.81z M38.871,18.99
		c0.04-0.044,0.289-0.285,0.26-0.32C39.01,18.737,38.891,18.964,38.871,18.99z M45.778,13.842l-0.008,0.009
		C45.8,13.88,45.801,13.856,45.778,13.842z M40.508,17.49C40.525,17.474,40.321,17.465,40.508,17.49
		C40.513,17.486,40.508,17.49,40.508,17.49z M43.233,14.736c0.048-0.045,0.087-0.088,0.106-0.126
		C43.202,14.729,43.203,14.742,43.233,14.736z M46.77,12.737C46.936,12.582,46.343,13.032,46.77,12.737
		C46.84,12.672,46.724,12.769,46.77,12.737z M46.092,12.609l-0.003-0.045C46.055,12.61,46.066,12.617,46.092,12.609z M52.75,3.312
		C52.735,3.325,52.663,3.388,52.75,3.312C52.74,3.32,52.75,3.312,52.75,3.312z M53.14,4.037C53.139,4.039,53.121,4.065,53.14,4.037
		C53.137,4.041,53.14,4.037,53.14,4.037z M53.148,4.018C53.085,4.113,53.137,4.032,53.148,4.018
		C53.136,4.037,53.139,4.03,53.148,4.018z M52.469,3.3C52.462,3.305,52.393,3.351,52.469,3.3C52.457,3.308,52.469,3.3,52.469,3.3z
		 M51.52,3.225C51.587,3.188,51.534,3.217,51.52,3.225L51.52,3.225z M52.207,3.337C52.289,3.255,52.233,3.311,52.207,3.337
		L52.207,3.337z M50.91,3.537L50.91,3.537C50.885,3.546,50.871,3.554,50.91,3.537z M52.133,3.278
		C52.008,3.343,52.12,3.285,52.133,3.278L52.133,3.278z M50.985,3.416C51.012,3.414,50.865,3.436,50.985,3.416
		C50.985,3.416,50.975,3.417,50.985,3.416z M45.659,8.999C45.631,9.028,45.596,9.071,45.659,8.999
		C45.65,9.009,45.659,8.999,45.659,8.999z M48.684,11.978C48.674,11.984,48.663,11.994,48.684,11.978
		C48.679,11.981,48.684,11.978,48.684,11.978z M48.682,11.953C48.594,12.04,48.664,11.96,48.682,11.953
		C48.665,11.97,48.664,11.96,48.682,11.953z M44.863,8.34C44.87,8.336,44.943,8.296,44.863,8.34L44.863,8.34z M44.367,7.957
		C44.369,7.924,44.377,7.776,44.367,7.957L44.367,7.957z M44.106,7.594C43.994,7.629,44.064,7.607,44.106,7.594L44.106,7.594z
		 M4.973,20.679C4.966,20.671,4.816,20.677,4.973,20.679C4.969,20.675,4.973,20.679,4.973,20.679z M16.614,29.085
		C16.616,29.072,16.607,29.131,16.614,29.085L16.614,29.085z M16.607,29.082C16.526,28.905,16.473,29.036,16.607,29.082
		C16.586,29.036,16.59,29.076,16.607,29.082z M4,16.88C4.007,16.881,4.099,16.861,4,16.88C4.015,16.882,4,16.88,4,16.88z
		 M5.209,14.659c-0.061-0.104-0.263,0.138-0.169,0.243C5.097,14.821,5.153,14.74,5.209,14.659z M19.475,32.544
		C19.475,32.544,19.446,32.481,19.475,32.544C19.475,32.544,19.475,32.544,19.475,32.544z M54.869,53.515
		c0.437,0.343,0.864,0.855,0.21,1.325c-0.569,0.409-0.786-0.079-1.163-0.432c-0.346-0.323-0.734-0.509-1.065-0.885
		c-0.27-0.307-1.555-0.242-1.971-0.343c-1.783-0.434-3.443-1.255-5.087-2.052c-1.676-0.812-3.428-1.273-5.128-1.995
		c-1.678-0.712-2.978-2.416-4.239-3.683c-1.615-1.622-3.209-3.264-4.818-4.892c-2.826-2.861-5.611-5.724-8.441-8.587
		c-3.117-3.154-6.257-6.286-9.364-9.45c-1.5-1.527-3.004-3.049-4.525-4.555c-0.731-0.723-1.466-1.443-2.206-2.157
		c-0.207-0.2-0.493-0.735-0.739-0.274c-0.395,0.355-0.576,0.861-0.684,1.366c-0.39,1.821,0.701,2.811,1.963,3.922
		c1.537,1.353,3.136,2.724,4.836,3.868c1.358,0.914,3.087,1.595,4.285,2.713c1.13,1.055,2.813,1.387,3.701,2.759
		c0.467,0.722,0.416,1.437,0.647,2.21c0.167,0.559,0.951,0.709,0.444,1.333c-0.447,0.551-1.488,1.024-1.693,1.76
		c-0.031-0.261-0.063-0.041-0.135,0.066c-0.333,0.5-1.382,1.268-1.898,1.835c-0.578,0.635-1.296,0.984-1.859,1.623
		c-0.64,0.726-1.261,1.421-1.99,2.064c-0.939,0.83-1.768,1.797-2.715,2.602c0.577,0.299,1.068,1.855,1.818,1.208
		c0.42-0.362,0.635-0.901,1.015-1.298c0.432-0.452,0.946-0.679,1.355-1.226c0.693-0.928,2.19-1.602,2.628-2.653
		c0.181-0.567,0.789-1.006,1.217-1.387c0.491-0.437,1.143-1.372,1.553-1.645c0.107-0.071,0.327-0.103,0.066-0.135
		c0.62-0.173,1.706-2.282,2.345-1.778c0.309,0.244,0.574,0.566,0.848,0.848c-0.45,0.47-0.906,0.935-1.351,1.409
		c-0.679,0.722-1.438,1.322-2.141,2.018c-1.682,1.666-3.169,3.49-4.942,5.07c-0.568,0.507-1.179,0.976-1.701,1.532
		c-0.777,0.828,0.517,0.753,0.585,1.581c-0.033-0.397,1.229-1.204,1.491-1.419c0.754-0.623,1.472-1.257,2.168-1.947
		c2.361-2.339,4.759-4.651,7.099-7.01c0.545,0.555,1.091,1.108,1.664,1.634c-2.827,2.775-5.668,5.535-8.465,8.34
		c-2.566,2.573-4.937,5.35-7.509,7.906c-0.968,0.962-2.331,1.828-3.753,1.481c-1.3-0.317-2.286-1.393-3.185-2.314
		c-1.549-1.587-4.787-4.133-3.883-6.234c0.41-1.641,2.429-3.024,3.569-4.149c1.559-1.538,3.125-3.069,4.688-4.602
		c3.075-3.016,6.142-6.041,9.136-9.138c-0.56-0.37-1.102-0.618-1.669-0.971c-0.257-0.16-1.567-1.108-1.579-0.98
		c-0.144-0.47-1.087-0.854-1.452-1.058c-0.816-0.455-1.675-0.892-2.415-1.469c-0.516-0.402-0.887-0.986-1.537-1.242
		c-0.341-0.135-0.527-0.604-0.698-0.714c-0.197-0.127-0.89-0.418-0.608-0.332c-0.417-0.056-0.619-0.698-0.663-0.585
		c-0.214-0.536-0.843-1.018-1.233-1.436c-0.247-0.265-0.321-0.415-0.652-0.339c-0.267,0.061-0.097-0.274-0.479-0.327
		c0.038,0.008-0.686-2.139-0.708-2.408c-0.087-1.084,0.525-2.319,1.114-3.055c-0.119,0.313-0.278,0.615-0.446,0.904
		c0.52-0.274,0.579-0.993,1.063-1.337c-1.601-1.299-2.93-2.825-3.177-4.947C2.308,8.578,2.416,7.846,2.706,7.029
		c0.231-0.651,0.629-1.392,0.007-1.901C2.166,4.68,1.779,3.928,1.23,3.56c-0.381-0.256,0.497-1.383,1.1-0.828
		c0.09,0.083,0.937,0.98,0.99,0.959c0.249-0.101,0.381,0.255,0.382,0.263C3.684,3.708,3.745,3.798,3.765,3.888
		c-0.016-0.242,0.095-0.37,0.331-0.385C3.954,3.472,3.947,3.47,4.218,3.457C3.895,3.433,4.224,3.448,4.29,3.441
		C4.222,3.438,4.153,3.434,4.084,3.43c0.264-0.042-0.158-0.003-0.204,0.002C4,3.408,4.011,3.404,3.913,3.42
		c0.41-0.104-0.477,0.182,0.241-0.093C3.865,3.434,4.165,3.36,4.105,3.348c0.287,0.057-0.632-0.422-0.422-0.26
		C3.626,3.093,3.572,3.107,3.52,3.13c0.424-0.221-0.13-0.464-0.302-0.497C3.088,2.607,3.067,2.192,3.04,2.07
		c0.196,0.152,0.061-0.048,0.114-0.126C3.073,2.167,3.006,1.74,3.027,2.123c-0.008-0.149-0.059-0.322-0.052-0.47
		C2.934,1.763,2.853,1.774,2.769,1.619c0.149,0.359-0.254,0.311-0.063,0.595c-0.07-0.103-0.043-0.036,0.019,0.019
		C2.618,2.28,1.642,2.355,1.738,2.458C0.825,2.515,1.322,1.693,1.291,1.698c0.648,0.113,0.866-0.969,0.968-1.103
		c0.41-0.537,0.584-0.858,1.075-0.309C3.8,0.807,4.274,1.323,4.765,1.821c0.789,0.8,1.132,1.133,2.19,0.633
		c0.843-0.399,2.419-0.559,2.974-0.377c1.661,0.347,2.977,1.389,4.153,2.56c1.497,1.49,2.959,3.017,4.437,4.526
		c3.202,3.272,6.414,6.537,9.733,9.692c2.553-2.77,5.136-5.532,8.015-7.97c-0.218,0.304-0.436,0.608-0.655,0.911
		c1.017-0.97,2.003-1.971,2.991-2.97c0.494-0.499,0.989-0.998,1.488-1.493c0.25-0.247,0.501-0.493,0.753-0.737
		c0.011-0.01,1.293-1.133,0.526-0.546c0.553-0.615,1.516-0.748,2.252-1.028c1.219-0.464,2.43-1.147,3.537-1.832
		c-0.243,0.147-0.487,0.294-0.73,0.441c1.697-0.569,3.655-1.246,5.211-2.126c-0.098,0.089,0.675-0.131,0.825-0.244
		c0.831-0.34,1.642-0.775,2.534-0.94c-1.162,0.678-2.353,1.315-3.445,2.105c0.153-0.075,0.4-0.119,0.525-0.237
		c-0.918,0.866-2.083,1.029-3.239,1.65c-1.833,0.985-3.797,1.766-5.577,2.844c0.196,0.068,0.51,0.26,0.637,0.418
		c-0.098-0.017-0.131,0.025-0.099,0.124c0.041-0.03,0.084-0.037,0.129-0.02c-0.024,0.323,0.175,0.39-0.151,0.479
		c0.193,0.043,0.255,0.15,0.422,0.159c0.348,0.019,0.042,0.346,0.371,0.434c-0.015-0.13-0.066-0.247-0.154-0.353
		c0.207,0.098,1.002,1.222,1.181,0.961c-0.029,0.049-0.05,0.101-0.062,0.156c-0.009-0.017,0.111-0.051-0.117,0.192
		c-0.062,0.324,0.688,0.376,0.522,0.499c0.084-0.005,0.155-0.038,0.213-0.099c-0.113,0.242,0.189-0.17,0.062,0.215
		c0.06-0.063-0.075,0.277,0.064,0.258c0.03-0.03,0.064-0.056,0.102-0.078c0.013,0.066,1.542,1.505,1.719,1.38
		c-0.164,0.171,1.071,0.889,1.295,1.018c0.842-1.474,1.472-3.081,2.21-4.609c0.117-0.242,1.101-2.96,0.55-2.614
		c-0.061,0.09-1.505-1.548-1.091-1.552c-0.084-0.014-0.167-0.031-0.249-0.051c0.03,0,0.336-0.335,0.754-0.399
		c-0.02,0.006-0.039,0.015-0.056,0.027c0.444-0.11,0.568-0.117,0.37-0.022c0.083-0.05,0.172-0.069,0.267-0.058
		c-0.057,0.023-0.174,0.114,0.033,0.019c-0.07,0.045-0.14,0.09-0.21,0.135C52,3.289,52.042,3.293,52.081,3.305
		C52,3.342,51.92,3.382,51.841,3.426c0.359-0.115,0.039,0.033,0.396-0.127c-0.038,0.042-0.073,0.087-0.103,0.135
		c0.425-0.424-0.049,0.122,0.274-0.189c-0.021,0.025-0.043,0.049-0.066,0.071c0.02,0.038,0.252-0.047,0.263-0.053
		c-0.081,0.054-0.088,0.064-0.022,0.028c-0.185,0.108,0.138,0.076-0.125,0.166c0.289-0.147-0.09,0.171,0.298-0.177
		c-0.117,0.092-0.014,0.148-0.265,0.288c0.129,0.027,0.096,0.054,0.172,0c-0.158,0.111,0.226-0.202-0.041,0.036
		c0.341-0.117,0.079-0.058,0.185-0.144c-0.039,0.049-0.029,0.046,0.031-0.011c-0.039,0.083-0.099,0.148-0.178,0.195
		c0.301-0.184-0.119,0.028,0.072-0.064c-0.066,0.032-0.04,0.101,0.113-0.002c-0.061,0.111,0,0.055,0.133,0.04
		c-0.063,0.227,0.034,0.322,0.128,0.205c-0.061,0.082-0.023,0.317,0.06,0.133c-0.082,0.132-0.088,0.159-0.018,0.082
		c0.507-0.834,1.352-2.067,2.062-3.042c0.781,2.594-0.709,5.128-1.789,7.392c-0.609,1.276-1.228,2.557-1.746,3.873
		c-0.553,1.405-0.923,2.634-2.041,3.683c-2.121,1.99-4.124,4.147-6.194,6.194c-1.098,1.085-2.195,2.17-3.293,3.256
		c-0.851,0.841-1.975,1.532-2.722,2.458c2.655,2.204,5.07,4.706,7.283,7.35c-0.286-0.2-0.572-0.401-0.858-0.601
		c1.499,1.577,3.342,2.844,4.594,4.648c1.232,1.776,1.766,4.18,3.138,6.345c-0.139-0.226-0.279-0.451-0.418-0.677
		c0.516,1.573,1.146,3.422,1.972,4.859c-0.152-0.16,0.234,0.992,0.298,1.119C53.883,51.78,54.443,52.622,54.869,53.515
		C55.258,53.82,54.521,52.786,54.869,53.515z M19.722,31.932c0.174-0.017-0.202-0.653-0.286-0.706
		c-0.948,1.167-2.282,2.454-3.546,3.259c-0.375,0.239-0.454,0.711-0.736,1.028c-0.354,0.398-0.789,0.708-1.186,1.058
		c-0.206,0.182-1.052,1.016-0.949,1.31c0.065,0.042,0.131,0.033,0.198-0.029c-0.252,0.142-0.817,0.46-0.931,0.734
		c0.053,0.038,0.109,0.024,0.168-0.04c-0.235,0.296-0.446,0.471-0.814,0.579c-0.206,0.06-0.822,0.506-0.527,0.066
		c-0.597,0.466-1.064,1.056-1.589,1.596c-0.616,0.634-0.419,0.613,0.05,1.219c0.972,1.256,2.201-0.694,2.81-1.452
		c2.093-2.607,4.833-4.864,7.24-7.183C19.084,33.142,19.696,32.285,19.722,31.932C19.915,31.913,19.696,32.28,19.722,31.932z
		 M5.002,45.373c-0.081,0.072-0.971,0.664-0.344,0.453c-0.148,0.217-0.494,0.397-0.669,0.586c-0.249,0.267-0.428,0.599-0.641,0.894
		c0.029-0.648-0.942,0.644-0.514,0.761c-0.596,0.177,0.223,0.898-0.112,1.124c-0.32-0.578-0.234,0.048-0.054,0.236
		c0.142,0.148,0.829,0.903,0.331,0.189c0.312,0.352,0.689,0.63,1.051,0.926c-0.481-0.434,0.245,0.405,0.258,0.433
		c0.123,0.257,1.034,1.387,1.058,0.873C5.45,52.079,6.289,53,6.043,52.647c0.823,0.797,1.527,1.705,2.557,0.689
		c0.912-0.899,1.92-1.74,2.812-2.67c-0.784-0.608-1.495-0.739-2.151-1.317c0.271,0.049,0.037-0.047,0.128-0.001
		c-0.166-0.377-1.414-1.073-0.736-1.176c-0.341-0.149-0.645-0.357-0.948-0.57c0.214,0.181,0.135,0.171-0.236-0.032
		c0.045-0.248-0.462-0.619-0.645-0.779c0.06,0.225,0.346,0.594,0.533,0.734c-0.039-0.029-0.57-0.602-0.51-0.327
		C6.722,46.741,5.41,45.651,5.002,45.373C4.788,45.569,5.074,45.423,5.002,45.373C4.81,45.546,5.086,45.43,5.002,45.373z
		 M9.927,44.512c-0.091,0.034-0.182,0.067-0.273,0.101c-0.093-1.008-1.3-1.384-1.808-2.135c-0.601,0.598-1.085,1.301-1.713,1.873
		c0.714,0.633,1.35,1.348,2.082,1.961c0.325,0.272,0.669,0.513,0.978,0.805c0.151,0.142,1.136,1.033,0.545,0.879
		c0.534,0.632,1.113,1.529,1.941,1.799c-0.464-0.167,0.126,0.321,0.194,0.374c0.448-0.503,0.877-0.982,1.34-1.469
		c0.529-0.556-0.411-1.361-0.846-1.714c-0.23-0.186-0.578-0.165-0.605-0.417c-0.03-0.287-0.302-0.561-0.484-0.761
		C10.856,45.345,10.36,44.961,9.927,44.512C9.836,44.546,10.327,44.927,9.927,44.512z M53.228,4.806
		C53.233,4.808,53.227,4.806,53.228,4.806C53.228,4.806,53.228,4.806,53.228,4.806z M47.182,12.81
		c-0.053-0.585-0.465,0.112-0.587,0.134c-0.301,0.196-0.549,0.496-0.773,0.77c-0.087,0.106-0.815,0.789-0.187,0.431
		c-1.342,0.727-2.272,2.026-3.276,3.134c0.862-0.505-0.431,0.738-0.576,0.882c-0.586,0.584-1.19,1.15-1.781,1.729
		c-1.224,1.2-2.467,2.375-3.728,3.536c-0.468,0.431-0.917,0.881-1.363,1.336c-0.441,0.219-0.455,0.435-0.042,0.649
		c0.22,0.22,0.513,0.648,0.83,0.738c0.433,0.123,0.859-0.467,1.156-0.685c0.245-0.18,1.305-1.01,0.898-0.935
		c0.15-0.114,0.308-0.214,0.476-0.3c-0.292,0.162-0.227,0.059,0.194-0.311c0.346-0.38,0.698-0.755,1.054-1.126
		c0.712-0.742,1.441-1.469,2.175-2.19c0.734-0.722,1.472-1.439,2.203-2.163c0.365-0.362,0.729-0.726,1.089-1.093
		c-0.014,0.014,0.896-1.152,0.647-0.583c0.997-1.023,1.912-2.162,3.106-2.968C48.131,13.59,47.813,12.858,47.182,12.81
		C47.13,12.24,47.763,12.854,47.182,12.81z M44.212,9.948c-0.074-0.094-0.147-0.187-0.221-0.281c-0.112,0.186-0.212,0.377-0.3,0.575
		c0.251-0.299-0.097,0.313-0.121,0.311c-0.076-0.071-0.504,0.501-0.538,0.541c-0.243,0.28-1.385,1.695-1.326,1.727
		c-0.211,0.359-0.523,0.862-0.962,1.335c0.289-0.428-0.069,0.088,0.044-0.172c-0.483,0.305-0.536,0.791-1.063,0.966
		c-0.361,0.12-1.03,1.419-0.796,0.453c-0.33,0.527-0.782,0.963-1.112,1.49c0.526-0.533-0.156,0.234-0.122,0.302
		c-0.465,0.213-1.082,0.73-1.236,1.24c0.306-0.315,0.615-0.659,0.989-0.896c-0.839,0.838-1.734,1.692-2.529,2.639
		c-0.183,0.218-2.566,2.546-2.427,2.773c0.077,0.126,0.905,1.023,1.107,0.956c0.561-0.187,1.368-1.318,1.835-1.804
		c1.12-1.165,2.298-2.107,3.384-3.194c-0.237,0.375-0.58,0.683-0.896,0.989c0.429-0.129,0.817-0.587,1.063-0.936
		c0.113-0.16,0.947-0.884,0.479-0.422c0.527-0.33,0.963-0.782,1.49-1.112c-0.966,0.234,0.333-0.435,0.453-0.796
		c0.175-0.527,0.661-0.58,0.966-1.063c-0.26,0.112,0.255-0.246-0.173,0.044c0.473-0.439,0.976-0.751,1.335-0.962
		c0.027,0.049,1.262-0.925,1.526-1.152c0.24-0.207,0.471-0.436,0.727-0.623c0.015-0.013,0.616-0.454,0.326-0.211
		c0.199-0.089,0.392-0.19,0.578-0.302C45.829,11.583,44.901,10.898,44.212,9.948C44.138,9.855,44.982,11.01,44.212,9.948z
		 M43.134,8.62c-0.505-0.009-0.184-1.242-0.639-1.493c-0.153,0.209-0.31,0.415-0.471,0.618c0.377-0.622,0.212,0.009,0.112,0.152
		c-0.233,0.335-0.542,0.62-0.842,0.893c-0.7,0.638-1.298,1.339-1.955,2.02c0.113-0.133,0.209-0.277,0.291-0.431
		c-0.332,0.467-0.136,0.1-0.049-0.003c-0.924,0.743-1.794,2.689-2.949,2.908c-0.125,0.024-1.05,0.629-0.888,0.79
		c-0.76,0.645-1.397,1.416-2.086,2.133c0.155-0.345,0.31-0.69,0.466-1.035c-0.628,0.783-1.277,1.548-1.91,2.326
		c-0.58,0.713-1.35,1.279-1.877,2.028c0.199-0.2,0.398-0.4,0.597-0.601c-0.381,0.455-0.749,0.922-1.105,1.396
		c0.4,0.386,0.764,0.789,1.14,1.195c0.515,0.556,2.364-1.891,2.732-2.283c0.972-1.037,2.001-2.01,2.946-3.071
		c0.404-0.453,0.809-0.907,1.239-1.336c0.212-0.213,0.431-0.418,0.657-0.616c0.13-0.113,1.026-1.055,0.534-0.215
		c1.108-1.004,2.407-1.934,3.134-3.276c-0.248,0.358-0.164,0.343,0.251-0.044c0.361-0.285,0.695-0.601,1.033-0.911
		c0.483-0.443-0.025-0.827-0.351-1.094C43.267,8.752,43.263,8.736,43.134,8.62C42.874,8.616,43.412,8.849,43.134,8.62z
		 M5.663,14.464c-0.095-0.072-0.146-0.035-0.199,0.084C5.474,14.545,5.655,14.47,5.663,14.464z M53.501,53.227
		C53.402,53.155,53.374,53.135,53.501,53.227L53.501,53.227z M53.884,52.35c-0.267-0.445-0.527-0.894-0.797-1.338
		c-0.147-0.241-1.166-2.094-0.635-0.811c-0.184-0.699-0.715-1.132-0.991-1.705c-0.385-0.798-0.576-1.591-1.082-2.351
		c-0.666-0.999-1.128-2.029-1.637-3.113c-0.165-0.35-0.654-1.697-1.034-1.787c0.056,0.062,0.116,0.12,0.18,0.174
		c-0.127-0.002-0.443-0.732-0.497-0.856c0.181,0.439-0.567-0.388-0.641-0.467c-0.279-0.298-0.605-0.56-0.906-0.836
		c-0.244-0.224-1.851-1.375-0.761-0.828c-0.438-0.304-0.092-0.128,0.005-0.048c-0.665-0.84-2.575-1.692-2.704-2.749
		c-0.015-0.121-0.582-0.986-0.738-0.83c-0.597-0.712-1.32-1.301-1.989-1.942c0.328,0.138,0.656,0.276,0.984,0.414
		c-0.743-0.586-1.472-1.191-2.209-1.785c-0.658-0.53-1.173-1.248-1.867-1.725c0.187,0.185,0.373,0.371,0.56,0.556
		c-0.71-0.587-1.268-1.054-1.831-1.774c-0.302-0.387-2.796-3.167-3.093-2.87c0.888,0.909,2.071,1.67,2.677,2.818
		c-0.4-0.4-0.756-0.892-1.197-1.245c-0.077-0.062-0.797-0.572-0.608-0.294c-0.747-1.608-2.453-2.587-3.728-3.729
		c0.504,0.283-0.651-0.788-0.782-0.915c-0.58-0.56-1.193-1.086-1.819-1.594c-1.189-0.966-2.225-2.053-3.189-3.248
		c-0.812-1.006-1.84-1.643-2.641-2.629c-0.211-0.26-1.117-1.23-1.478-1.15c-0.045,0.05-0.041,0.106,0.014,0.166
		c-0.147-0.273-0.403-0.699-0.667-0.871c-0.069,0.021-0.061,0.074,0.023,0.158c-0.294-0.229-0.935-1.506-0.577-1.273
		c-0.377-0.492-0.822-0.919-1.289-1.323c-0.223-0.19-0.445-0.382-0.666-0.575c0.067,0.059-1.062-0.919-0.559-0.567
		c-1.185-1.312-2.505-2.493-3.74-3.756c0.163,0.539-0.291-0.072-0.408-0.188c-0.24-0.238-0.493-0.386-0.821-0.483
		c0.563-0.194-0.853-0.628-0.681-0.151C9.843,4.621,8.021,4.645,8.007,4.537c0.163,0.012,0.327,0.014,0.491,0.006
		C8.316,4.081,6.994,4.545,7.609,4.549c-0.332,0.12-0.587,0.339-0.863,0.549C7.1,4.772,4.961,6.018,5.73,6.075
		C5.506,6.143,5.2,6.484,5.099,6.688C5.094,6.808,5.128,6.8,5.202,6.665c-1.394,2.167,0.264,4.338,1.861,5.877
		C6.67,12.03,9.169,10.101,9.555,9.675c0.561-0.617,1.114-1.246,1.712-1.827c0.328-0.319,1.042-0.886,1.213-0.945
		c0.016-0.057,0.018-0.114,0.008-0.171c0.252,0.055,0.556,0.259,0.571,0.559c-0.073-0.069-0.088,0.812-0.155,0.916
		c0.009,0.021-0.122-0.224-0.136-0.073c0.03,0.044,0.065,0.081,0.107,0.114c-0.407-0.524-0.096,0.57-0.512-0.069
		c0.029,0.182,0.062,0.285-0.066,0.305c0.064,0.067,0.098,0.148,0.101,0.242c-0.1-0.022-0.192-0.003-0.275,0.057
		c0.251-0.013-0.393,0.562,0.238,0.001c0.002,0.107-0.218,0.12,0.019,0.21c-0.256,0.063-0.281,0.518-0.365,0.527
		c-0.218,0.024-0.598,0.193-0.226,0.415c-0.158-0.093-0.186-0.08-0.085,0.039c-0.365-0.206-0.637,0.243-0.607,0.26
		c-0.052-0.029,0.183,0.253-0.035-0.007c0.019,0.078,0.058,0.146,0.116,0.202c-0.249-0.123,0.202,0.195-0.186,0.048
		c0.169,0.143-0.096-0.146-0.094-0.078c0.007,0.277-0.153-0.02-0.05,0.22c-0.001,0-1.344,1.193-1.275,1.32
		c-0.055-0.071-1.636,1.008-1.694,1.275c2.728,1.987,4.552,4.914,7.067,7.131c1.282,1.13,2.244,2.575,3.551,3.671
		c0.604,0.507,1.109,1.12,1.676,1.666c0.282,0.272,0.633,0.502,0.891,0.795c0.073,0.083,0.554,0.55,0.09,0.334
		c0.157,0.121,0.967,0.795,0.848,0.634c-0.039,0.09,1.068,1.049,1.214,1.129c-0.789-0.165,0.479,0.742,0.146,0.291
		c1.543,1.918,3.513,3.432,5.115,5.296c0.34,0.396,0.745,0.739,1.256,1.141c0.404,0.318,0.66,0.757,0.983,1.148
		c0.155,0.188,0.795,1.1,0.733,0.682c0.105,0.141,0.196,0.291,0.273,0.449c-0.06-0.421,0.574,0.432,0.683,0.533
		c0.493,0.455,0.976,0.921,1.453,1.392c0.955,0.943,1.887,1.91,2.828,2.867c0.353,0.359,0.707,0.717,1.064,1.072
		c0.174,0.173,1.224,1.111,0.933,0.993c0.802,0.78,1.469,1.718,2.39,2.37c0.378-0.326,0.411-0.984,0.696-1.395
		c0.199-0.288,0.44-0.491,0.666-0.75c0.531-0.606,0.784-1.212,1.373-1.719c0.606-0.521,1.214-1.079,1.901-1.492
		c0.241-0.145,1.091-0.181,1.139-0.569c-0.039,0.101-0.001,0.146,0.113,0.135c0.031-0.053,0.057-0.107,0.078-0.164
		c0.308,0.181,0.525,0.154,0.332,0.727c-0.046-0.096-0.362,0.729-0.451,0.808c0.012-0.085-0.02-0.117-0.097-0.095
		c0.041,0.039,0.056,0.084,0.043,0.135c-0.32-0.084-0.358,0.076-0.451-0.207c-0.021,0.184-0.01,0.292-0.141,0.28
		c0.083,0.218,0.114,0.347-0.239,0.244c0.247,0.049-0.487,0.428,0.233,0.059c-0.027,0.102-0.233,0.063-0.025,0.203
		c-0.281,0.006-0.332,0.45-0.427,0.443c-0.227-0.015-0.592,0.099-0.26,0.358c-0.147-0.112-0.175-0.103-0.085,0.025
		c-0.45-0.325-0.502,0.253-0.593,0.208c-0.045-0.023,0.165,0.245-0.035-0.01c0.018,0.078,0.055,0.145,0.111,0.203
		c-0.2-0.112,0.148,0.177-0.184,0.034c0.146,0.159-0.094-0.143-0.093-0.08c0.003,0.245-0.183,0.012-0.049,0.21
		c-0.023,0.009-1.206,1.216-1.086,1.364c-0.24-0.217-1.122,1.653-1.391,1.638c2.351,0.763,4.486,2.039,6.729,3.053
		c0.872,0.395,1.976,0.59,2.756,1.137c0.624,0.437,1.167,0.974,1.775,1.431c-0.278-0.635-0.556-1.269-0.834-1.904
		C52.985,51.496,53.584,51.886,53.884,52.35C53.353,51.466,53.689,52.047,53.884,52.35z M18.156,12.514
		C18.109,12.295,18.122,12.372,18.156,12.514C18.148,12.479,18.156,12.514,18.156,12.514z M23.681,17.655
		c-0.014-0.01-0.023-0.016-0.039-0.027C23.659,17.684,23.665,17.665,23.681,17.655z M31.193,36.903
		C31.038,36.803,31.161,36.885,31.193,36.903C31.165,36.884,31.193,36.903,31.193,36.903z M31.072,36.738
		c-0.121-0.086-0.243-0.173-0.364-0.259c0.118,0.148,0.256,0.274,0.414,0.379c-0.039-0.044-0.073-0.09-0.105-0.14
		C31.065,36.828,30.895,36.602,31.072,36.738C30.958,36.641,30.937,36.634,31.072,36.738z M28.746,22.584
		C28.714,22.582,28.569,22.571,28.746,22.584L28.746,22.584z M51.715,48.944C51.674,48.539,51.634,48.955,51.715,48.944
		C51.711,48.909,51.706,48.946,51.715,48.944z M35.74,29.244c0.079-0.111-0.708-0.791-0.8-0.889
		C34.838,28.581,35.706,29.219,35.74,29.244C35.792,29.172,35.626,29.159,35.74,29.244z M51.781,46.47l0.013,0.032
		C51.838,46.503,51.839,46.446,51.781,46.47z M39.438,32.771c0.072,0.031,0.145,0.061,0.217,0.092
		C39.587,32.805,39.522,32.801,39.438,32.771z M47.519,41.161c-0.03-0.118-0.093-0.274-0.173-0.447
		C47.293,40.656,47.289,40.685,47.519,41.161z M53.419,50.508c-0.082-0.136-0.165-0.271-0.247-0.407
		c-0.017-0.042,0.351,0.693,0.325,0.536c-0.005-0.103-0.033-0.145-0.085-0.127C53.466,50.622,53.468,50.621,53.419,50.508
		C53.337,50.373,53.535,50.761,53.419,50.508z M52.17,49.913l0.012-0.1C52.135,49.756,52.115,49.758,52.17,49.913z M3.675,3.178
		C3.669,3.182,3.569,3.248,3.675,3.178L3.675,3.178z M3.394,3.702C3.395,3.7,3.413,3.673,3.394,3.702L3.394,3.702z M3.397,3.702
		C3.377,3.761,3.476,3.712,3.397,3.702C3.387,3.731,3.403,3.703,3.397,3.702z M3.121,2.402C3.128,2.392,3.172,2.328,3.121,2.402
		C3.13,2.389,3.121,2.402,3.121,2.402z M1.723,2.445C1.679,2.381,1.713,2.431,1.723,2.445L1.723,2.445z M3.018,1.999
		C3.073,2.11,3.031,2.025,3.018,1.999L3.018,1.999z M1.324,1.824l0.001-0.002C1.296,1.792,1.304,1.806,1.324,1.824z M2.869,1.901
		C2.868,1.898,2.911,2.079,2.869,1.901L2.869,1.901z M2.509,2.29C2.498,2.298,2.491,2.309,2.495,2.324
		C2.531,2.307,2.525,2.298,2.509,2.29z M1.161,2.1C1.119,2.13,1.327,2.118,1.161,2.1C1.145,2.112,1.174,2.101,1.161,2.1z
		 M11.697,9.994C11.659,9.965,11.626,9.94,11.697,9.994C11.686,9.986,11.697,9.994,11.697,9.994z M8.988,12.292
		C8.983,12.282,8.976,12.269,8.988,12.292C8.986,12.287,8.988,12.292,8.988,12.292z M9.011,12.298
		C8.946,12.199,9.007,12.278,9.011,12.298C8.998,12.278,9.008,12.281,9.011,12.298z M12.117,9.228
		C12.116,9.228,12.18,9.304,12.117,9.228C12.116,9.228,12.117,9.228,12.117,9.228z M13.034,7.262
		C12.98,7.23,13.08,7.31,13.034,7.262C13.027,7.258,13.038,7.266,13.034,7.262z M12.384,8.713
		C12.282,8.848,12.405,8.731,12.384,8.713C12.384,8.713,12.388,8.717,12.384,8.713z M12.446,6.856l0.002-0.001
		C12.43,6.835,12.417,6.826,12.446,6.856z M12.547,8.46C12.481,8.363,12.523,8.424,12.547,8.46L12.547,8.46z M12.69,6.785
		C12.692,6.772,12.685,6.682,12.69,6.785C12.69,6.785,12.69,6.772,12.69,6.785z M45.463,43.851
		C45.432,43.821,45.396,43.788,45.463,43.851C45.454,43.842,45.463,43.851,45.463,43.851z M43.062,46.204
		C43.057,46.197,43.043,46.184,43.062,46.204C43.059,46.2,43.062,46.204,43.062,46.204z M43.085,46.205
		C42.998,46.126,43.076,46.187,43.085,46.205C43.068,46.19,43.078,46.19,43.085,46.205z M45.953,43.181
		C45.958,43.189,45.998,43.259,45.953,43.181L45.953,43.181z M47.357,41.544C47.341,41.525,47.342,41.559,47.357,41.544
		C47.352,41.538,47.357,41.544,47.357,41.544z M46.304,42.741C46.207,42.818,46.261,42.775,46.304,42.741L46.304,42.741z
		 M46.945,40.961l0.002,0C46.937,40.936,46.928,40.923,46.945,40.961z M46.519,42.539C46.48,42.428,46.505,42.498,46.519,42.539
		L46.519,42.539z M47.215,40.97C47.228,40.948,47.234,40.873,47.215,40.97C47.215,40.97,47.217,40.958,47.215,40.97z"/>
</g>
<g id="Layer_1">
</g>
</svg>
