<?xml version="1.0" encoding="iso-8859-1"?>
<!-- Generator: Adobe Illustrator 17.1.0, SVG Export Plug-In . SVG Version: 6.00 Build 0)  -->
<!DOCTYPE svg PUBLIC "-//W3C//DTD SVG 1.1//EN" "http://www.w3.org/Graphics/SVG/1.1/DTD/svg11.dtd">
<svg version="1.1" xmlns="http://www.w3.org/2000/svg" xmlns:xlink="http://www.w3.org/1999/xlink" x="0px" y="0px"
	 viewBox="0 0 19.749 31.724" style="enable-background:new 0 0 19.749 31.724;" xml:space="preserve">
<g id="phone">
	<path style="fill:#A6A6A6;" d="M12.548,0.025C12.424,0.107,12.466,0.076,12.548,0.025C12.528,0.038,12.548,0.025,12.548,0.025z
		 M17.52,0.201c0.012,0.002,0.02,0.003,0.031,0.005C17.549,0.194,17.555,0.182,17.52,0.201z M0.246,30.257
		C0.304,30.144,0.162,30.422,0.246,30.257L0.246,30.257z M0.244,30.221c0.024-0.153,0.03-0.307,0.017-0.461
		C0.182,29.911,0.176,30.064,0.244,30.221C0.276,29.936,0.241,30.176,0.244,30.221C0.268,30.068,0.24,30.142,0.244,30.221z
		 M19.596,4.285C19.59,4.285,19.492,4.373,19.596,4.285C19.581,4.286,19.596,4.285,19.596,4.285z M18.836,27.866
		C18.761,27.695,18.828,27.875,18.836,27.866C18.836,27.866,18.83,27.873,18.836,27.866z M19.384,10.706
		c0.035,0.035-0.037-0.805-0.025-0.771C19.367,10.192,19.376,10.449,19.384,10.706z M19.63,1.238
		c0.269,0.471,0.004,1.299-0.036,1.803c-0.028,0.335-0.05,0.671-0.064,1.008c0.004-0.094-0.117,1.449,0.051,0.856
		c-0.063,1.129-0.393,2.397,0,3.498c-0.056-0.291-0.137,0.168-0.138,0.176c-0.085,0.44,0.013,0.946,0.013,1.393
		c-0.15-0.749,0.354-1.93-0.146-2.577c-0.356,1.479,0.09,2.996-0.052,4.488c0.058-1.355-0.155,0.541-0.167,0.783
		c-0.037,0.75-0.01,1.504-0.098,2.252c0.089-0.219,0.179-0.437,0.268-0.656c-0.015,0.724-0.216,1.459-0.086,2.182
		c0.081,0.446,0.268,0.497,0.24,0.999c-0.036,0.65-0.188,1.302-0.111,1.956c0.006-0.065,0.099-0.386,0.025,0.02
		c0.293-0.877,0.032,0.57,0.026,0.695c-0.012,0.269-0.016,0.532-0.036,0.799c-0.007,0.099-0.096,1.077-0.104,0.702
		c-0.039,0.208-0.067,0.417-0.084,0.628c0.056,0.001,0.082-0.033,0.079-0.104c0.115,0.421-0.459,5.74-0.355,5.715
		c-0.031,0.325-0.079,0.648-0.144,0.968c0.027-0.426,0.005-0.45-0.067-0.072c-0.083,0.316-0.168,0.633-0.212,0.957
		c-0.065,0.475-0.051,1.074,0.44,1.325c-0.558,0.133-1.112,0.284-1.673,0.4c-0.896,0.186-2.027-0.077-2.953-0.073
		c-2.005,0.009-4.005,0.181-6.009,0.214c-1.492,0.024-3.18,0.036-4.924,0.044c-0.7,0.003-3.08,0.46-3.048-0.544
		c0.06,0.253,0.092-0.595,0.003-0.209c0.038-2.67,0.155-5.461-0.134-8.12c0.072,0.475,0.269-0.717-0.068-0.205
		c0.187-0.641,0.096-1.594,0.024-2.067c0.262-1.995,0.001-4.123-0.053-6.128c-0.11-4.126,0.046-8.242,0.117-12.367
		C0.187,2.14,0.164,1.111,0.098,0.861c0.25,0.51-0.178-0.607,0.423-0.608c0.225-0.001,1.552-0.069,0.97-0.066
		c0.337,0.046,0.675,0.066,1.016,0.059C1.668,0.406,4.32,0.044,2.843,0.181c0.635-0.122,1.281,0.037,1.912-0.098
		C4.507,0.28,5.662,0.514,5.339,0.195C6.493,0.397,7.135,0.35,8.455,0.361c1.311,0.011,2.424,0.185,3.824-0.001
		c-0.264-0.056,0.654-0.354,0.868-0.328c-0.114-0.012-0.145,0.024-0.094,0.108c0.249-0.021,0.492-0.068,0.731-0.14
		c-0.372,0.128,1.724,0.183,1.781,0.185c1.326,0.042,2.805,0.269,4.112-0.034C19.822,0.494,19.635,0.89,19.63,1.238
		C19.841,1.608,19.634,0.921,19.63,1.238z M18.298,30.515c-0.034-0.471-0.286-1.311-0.125-1.754c0.069-0.631-0.042-1.29-0.044-1.924
		c-0.001-0.243-0.01-2.434-0.126-1.03c0.146-0.949,0.277-3.087,0.132-3.662c-0.088-1.7,0.011-3.402-0.032-5.102
		c-0.04,0.228-0.081,0.456-0.121,0.684c-0.237-2.647-0.045-5.304-0.034-7.956c0.011-2.668-0.081-5.341,0.115-8.004
		C12.775,1.401,7.406,1.825,2.104,1.734C1.177,1.718,1.701,6.727,1.709,7.548c0.028,2.914,0.06,5.827,0.064,8.741
		c0.004,2.669-0.062,5.335-0.08,8.003c-0.009,1.254,0.003,2.486-0.075,3.738c-0.035,0.567-0.211,2.048,0.623,2.042
		c2.754-0.019,5.51-0.099,8.261,0.059C13.168,30.285,15.681,29.874,18.298,30.515C18.274,30.175,17.751,30.381,18.298,30.515z
		 M10.699,31.547c-0.016,0.001-0.031,0.004-0.047,0.004C10.679,31.552,10.693,31.55,10.699,31.547z M18.115,26.416l0-0.023
		C18.073,26.394,18.089,26.428,18.115,26.416z M19.262,14.223C19.225,14.277,19.406,14.007,19.262,14.223L19.262,14.223z
		 M19.283,21.715c-0.003,0.127,0.001,0.238,0.014,0.318C19.31,21.682,19.3,21.666,19.283,21.715z M18.195,29.283
		c-0.005,0.28,0.047-0.212,0.042-0.313C18.294,28.547,18.153,29.599,18.195,29.283C18.19,29.563,18.207,29.196,18.195,29.283z
		 M18.765,28.531l0.034,0.057C18.79,28.48,18.778,28.484,18.765,28.531z M7.942,25.925C7.94,25.924,7.9,26.069,7.942,25.925
		C7.94,25.924,7.942,25.925,7.942,25.925z M14.739,25.646C14.739,25.645,14.748,25.685,14.739,25.646L14.739,25.646z M14.722,25.684
		C14.709,25.673,14.67,25.541,14.722,25.684C14.703,25.668,14.713,25.658,14.722,25.684z M6.318,25.752
		C6.318,25.744,6.305,25.65,6.318,25.752C6.318,25.736,6.318,25.752,6.318,25.752z M2.388,24.917
		C2.411,24.828,2.385,24.9,2.388,24.917C2.388,24.917,2.387,24.909,2.388,24.917z M5.248,25.519
		C5.244,25.542,5.526,25.526,5.248,25.519C5.247,25.525,5.248,25.519,5.248,25.519z M17.496,24.017
		c-1.075,0.139-2.218-0.041-3.304-0.007c-1.301,0.041-2.584,0.128-3.887,0.047c-1.364-0.085-2.741-0.132-4.108-0.091
		c-0.284,0.008-2.327-0.232-2.005,0.144c-0.395,0.066-1.137,0.218-1.461-0.111c0.136,0.127-0.681,0.086-0.858,0.381
		c0.21,0.155,0.301,0.422,0.517,0.558c0.005-0.106,1.283,0.57,1.459,0.593c-0.01-0.037-0.026-0.071-0.049-0.1
		c0.073-0.056,0.324,0.095,0.402,0.122c0.096-0.6,0.602,0.231,0.344-0.465c0.283,0.222,0.448,0.2,0.698,0.452
		c0-0.226,0.473-0.172,0.556-0.016c-0.145-0.007-0.287,0.07-0.43,0.073c0.262,0,1.089-0.013,1.383,0.295
		c0.125-0.084,1.228-0.473,0.968,0.116c0.072-0.191,0.135-0.207,0.188-0.049c0.297-0.356-0.026-0.365,0.622-0.334
		c0.308,0.014,0.588,0.102,0.579,0.045c0.09,0.056,0.128,0.139,0.116,0.248c0.142-0.24,0.065,0.214,0.319-0.108
		c-0.116,0.122-0.106,0.085,0.032-0.111c0.281-0.067,1.116,0.111,1.645,0.113c0.322,0.001,2.098-0.258,2.248,0.031
		C13.334,25.254,19.739,26.617,17.496,24.017C16.672,24.124,17.916,24.503,17.496,24.017z M2.629,24.123l0.004-0.001
		C2.633,24.077,2.627,24.094,2.629,24.123z M4.662,25.385C4.657,25.384,4.704,25.547,4.662,25.385
		C4.659,25.384,4.662,25.385,4.662,25.385z M3.413,25.408c-0.021-0.003-0.04,0.001-0.053,0.015
		C3.418,25.437,3.421,25.426,3.413,25.408z M2.152,24.211C2.06,24.2,2.348,24.334,2.152,24.211
		C2.121,24.208,2.169,24.222,2.152,24.211z M7.942,7.925C7.94,7.924,7.9,8.069,7.942,7.925C7.94,7.924,7.942,7.925,7.942,7.925z
		 M14.739,7.646C14.739,7.645,14.748,7.685,14.739,7.646L14.739,7.646z M14.722,7.684C14.709,7.673,14.67,7.541,14.722,7.684
		C14.703,7.668,14.713,7.658,14.722,7.684z M6.318,7.752C6.318,7.744,6.305,7.65,6.318,7.752C6.318,7.736,6.318,7.752,6.318,7.752z
		 M2.388,6.917C2.411,6.828,2.385,6.9,2.388,6.917C2.388,6.917,2.387,6.909,2.388,6.917z M5.248,7.519
		C5.244,7.542,5.526,7.526,5.248,7.519C5.247,7.525,5.248,7.519,5.248,7.519z M17.496,6.017c-1.075,0.139-2.218-0.041-3.304-0.007
		c-1.301,0.041-2.584,0.128-3.887,0.047C8.941,5.972,7.564,5.925,6.197,5.966C5.913,5.974,3.87,5.734,4.192,6.11
		C3.797,6.176,3.055,6.327,2.731,5.999C2.867,6.126,2.05,6.085,1.873,6.38c0.21,0.155,0.301,0.422,0.517,0.558
		c0.005-0.106,1.283,0.57,1.459,0.593c-0.01-0.037-0.026-0.071-0.049-0.1c0.073-0.056,0.324,0.095,0.402,0.122
		c0.096-0.6,0.602,0.231,0.344-0.465c0.283,0.222,0.448,0.2,0.698,0.452c0-0.226,0.473-0.172,0.556-0.016
		c-0.145-0.007-0.287,0.07-0.43,0.073c0.262,0,1.089-0.013,1.383,0.295C6.877,7.808,7.981,7.42,7.721,8.008
		c0.072-0.191,0.135-0.207,0.188-0.049C8.206,7.603,7.882,7.594,8.53,7.625c0.308,0.014,0.588,0.102,0.579,0.045
		c0.09,0.056,0.128,0.139,0.116,0.248c0.142-0.24,0.065,0.214,0.319-0.108C9.428,7.931,9.438,7.894,9.576,7.699
		c0.281-0.067,1.116,0.111,1.645,0.113c0.322,0.001,2.098-0.258,2.248,0.031C13.334,7.254,19.739,8.617,17.496,6.017
		C16.672,6.124,17.916,6.503,17.496,6.017z M2.629,6.123l0.004-0.001C2.633,6.077,2.627,6.094,2.629,6.123z M4.662,7.385
		C4.657,7.384,4.704,7.547,4.662,7.385C4.659,7.384,4.662,7.385,4.662,7.385z M3.413,7.408C3.392,7.405,3.373,7.408,3.36,7.423
		C3.418,7.437,3.421,7.426,3.413,7.408z M2.152,6.211C2.06,6.2,2.348,6.334,2.152,6.211C2.121,6.208,2.169,6.222,2.152,6.211z
		 M10.355,2.988C10.355,2.988,10.366,2.84,10.355,2.988C10.356,2.988,10.355,2.988,10.355,2.988z M8.656,3.267
		C8.655,3.259,8.654,3.234,8.656,3.267L8.656,3.267z M8.657,3.265C8.667,3.324,8.698,3.175,8.657,3.265
		C8.662,3.294,8.659,3.26,8.657,3.265z M10.761,3.16C10.761,3.166,10.765,3.265,10.761,3.16C10.761,3.177,10.761,3.16,10.761,3.16z
		 M11.744,3.996C11.738,4.082,11.744,4.012,11.744,3.996C11.744,3.996,11.744,4.003,11.744,3.996z M11.029,3.394
		C11.031,3.347,10.967,3.368,11.029,3.394C11.029,3.388,11.029,3.394,11.029,3.394z M7.967,4.896
		c0.848-0.058,1.129-0.019,2.043,0.015c0.273,0.024,1.653,0.141,1.462-0.21c0.06,0.073,0.122,0.144,0.186,0.213
		c-0.234-0.439,0.159-0.092,0.081-0.06c0.071-0.255,0.104-0.628,0.004-0.879c0.004,0.023,0.003,0.046-0.004,0.069
		c0.014,0.03-0.314-0.681-0.229-0.372c-0.002-0.117-0.046-0.213-0.131-0.29c0.008,0.046,0.001,0.286-0.065-0.023
		c0.003,0.005-0.033,0.27-0.034,0.274c-0.005-0.08-0.126-0.35-0.076,0.192c-0.041-0.127-0.046-0.333-0.126-0.186
		c-0.007-0.091-0.023-0.179-0.048-0.267c-0.002,0.12-0.037,0.139-0.104,0.059c-0.019,0.238,0-0.228,0.007-0.254
		c-0.218,0.099-0.064,0.065-0.28-0.157c-0.018,0.058-0.186,0.19-0.141,0.261c-0.069-0.276-0.146,0.028-0.101-0.377
		c-0.006,0.051-0.057,0.338-0.026,0.036c-0.024,0.131-0.053,0.262-0.089,0.391c-0.071-0.054-0.189-0.2-0.207-0.043
		c-0.012-0.061-0.036-0.332-0.025-0.044c-0.159-0.188-0.031-0.163-0.078-0.294C9.936,3.04,9.924,3.136,9.949,3.237
		c-0.1-0.242,0.005-0.074-0.023-0.087C9.875,3.126,9.847,3.403,9.857,3.105c-0.01,0.039-0.018,0.078-0.025,0.117
		C9.82,3.159,9.798,3.1,9.767,3.044C9.75,3.076,9.003,3.063,9.048,3.225C9.022,3.173,8.998,3.122,8.973,3.07
		c0.014,0.251-0.345,0.153-0.264,0.062C8.711,3.13,7.946,3.429,7.954,3.361C7.83,3.863,7.865,4.393,7.967,4.896
		C8.216,4.879,7.865,4.395,7.967,4.896z M11.683,4.789L11.683,4.789C11.683,4.836,11.684,4.819,11.683,4.789z M11.175,3.528
		C11.176,3.528,11.164,3.361,11.175,3.528C11.176,3.528,11.175,3.528,11.175,3.528z M11.803,4.702
		C11.845,4.721,11.745,4.558,11.803,4.702C11.811,4.705,11.798,4.69,11.803,4.702z M8.445,26.604
		C8.439,26.596,8.367,26.488,8.445,26.604L8.445,26.604z M10.435,29.546C10.437,29.548,10.454,29.578,10.435,29.546L10.435,29.546z
		 M10.437,29.585C10.42,29.573,10.363,29.47,10.437,29.585C10.42,29.573,10.423,29.563,10.437,29.585z M9.561,26.19
		C9.568,26.219,9.582,26.268,9.561,26.19C9.565,26.206,9.561,26.19,9.561,26.19z M10.813,27.763
		C10.727,27.773,10.796,27.765,10.813,27.763L10.813,27.763z M10.207,26.434C10.113,26.408,10.082,26.4,10.207,26.434L10.207,26.434
		z M9.757,27.958C9.756,27.959,9.761,27.962,9.757,27.958C9.756,27.959,9.757,27.958,9.757,27.958z M10.026,27.857
		c-0.017,0.007-0.029,0.014-0.02,0.012L10.026,27.857z M9.871,27.958C9.871,27.958,9.871,27.958,9.871,27.958
		C9.871,27.958,9.872,27.957,9.871,27.958z M9.791,28.016c0.003,0.01,0.003,0.031,0.006,0.05C9.826,28.061,9.85,28.043,9.791,28.016
		z M9.896,27.926C9.919,27.978,9.959,27.957,9.896,27.926C9.896,27.926,9.9,27.928,9.896,27.926z M9.842,27.88
		C9.765,27.765,9.834,28.05,9.842,27.88C9.835,27.868,9.838,27.965,9.842,27.88z M9.754,28.045
		C9.754,28.039,9.754,28.042,9.754,28.045L9.754,28.045z M9.765,27.958C9.746,27.956,9.779,27.959,9.765,27.958L9.765,27.958z
		 M10.955,27.965c1.111,0.039,0.122,1.08-0.246,1.418c-0.186,0.171-1.083,0.402-1.083,0.439c-0.012-0.117-0.944-0.501-1.135-0.601
		c-0.383-0.2-0.398-1.202-0.468-1.22c0.464-0.203-0.233-0.042,0.145-0.237c-0.089,0.046-0.216-0.058-0.281-0.085
		c0.117-0.051,0.21-0.035,0.075-0.144c0.1,0.038,0.189,0.022,0.268-0.048c-0.132-0.015,0.031-0.073,0.138-0.256
		c0.293-0.498,0.204-0.221,0.071-0.673c0.134,0.086,0.159,0.041,0.073-0.134c0.152,0.369,0.484,0.047,0.59-0.119
		c0.208-0.327,0.562,0.053,0.943-0.116c-0.177,0.418,0.035,0.007,0.083,0.188c-0.43-0.006-0.045,0.006-0.145,0.173
		c0.065-0.064,0.142-0.11,0.23-0.137c0.11,0.242,0.232,0.27,0.22,0.565c0.245-0.749,0.232,0.42,0.541-0.232
		c-0.017,0.036-0.198,0.146-0.154,0.195c0.083,0.094,0.156-0.039,0.175-0.088c0.146,0.258-0.057,0.667-0.23,0.912
		c0.025,0.006,0.048,0.003,0.069-0.008c-0.269,0.094-0.556,0.12-0.862,0.176c0.209,0.016-0.154,0.14,0.111-0.094
		c-0.095,0.036-0.397,0.065-0.328,0.158c-0.053-0.088,0.176,0.019,0.116-0.042c-0.122,0.351-0.104,0.059-0.128,0.063
		C9.739,28.005,10.753,27.947,10.955,27.965C11.113,27.97,10.597,27.933,10.955,27.965z M9.915,28.116
		C9.891,28.036,9.885,28.031,9.915,28.116C9.915,28.116,9.902,28.081,9.915,28.116z M9.927,28.056
		C9.946,28.057,9.924,28.056,9.927,28.056C9.93,28.056,9.927,28.056,9.927,28.056z M9.964,28.058
		C9.904,28.056,9.947,28.057,9.964,28.058L9.964,28.058z M10.014,28.024c0.004-0.003-0.006-0.007-0.021-0.005
		C10.003,28.023,10.014,28.027,10.014,28.024z M10.028,27.909L10.028,27.909C9.983,27.922,10,27.917,10.028,27.909z M10.525,26.69
		C10.516,26.717,10.585,26.508,10.525,26.69L10.525,26.69z M11.065,27.131c0.006,0.011,0.014,0.017,0.03,0.016
		C11.09,27.111,11.077,27.118,11.065,27.131z M10.121,27.929C10.24,27.908,10.143,27.923,10.121,27.929
		C10.121,27.929,10.132,27.926,10.121,27.929z"/>
</g>
<g id="Layer_1">
</g>
</svg>
