<?xml version="1.0" encoding="utf-8"?>
<!-- Generator: Adobe Illustrator 17.1.0, SVG Export Plug-In . SVG Version: 6.00 Build 0)  -->
<!DOCTYPE svg PUBLIC "-//W3C//DTD SVG 1.1//EN" "http://www.w3.org/Graphics/SVG/1.1/DTD/svg11.dtd">
<svg version="1.1" id="Layer_1" xmlns="http://www.w3.org/2000/svg" xmlns:xlink="http://www.w3.org/1999/xlink" x="0px" y="0px"
	 viewBox="0 0 62.1 50.3" enable-background="new 0 0 62.1 50.3" xml:space="preserve">
<path id="_x2E_svg" fill="#F6931D" d="M2.9,48.6C3,48.7,3,48.7,2.9,48.6L2.9,48.6z M24.2,0.2c0.1,0,0.1,0,0.2-0.1
	C24.4,0.1,24.3,0.1,24.2,0.2z M35.1,0.3C35.1,0.3,35.1,0.3,35.1,0.3C35.1,0.3,35.2,0.3,35.1,0.3z M0.3,6.1c0,0.1,0,0.1,0,0.2
	C0.3,6.2,0.3,6.2,0.3,6.1z M22.9,50.2C22.8,50.1,23.1,50.3,22.9,50.2L22.9,50.2z M22.7,50.2c-0.3,0,0.2,0,0.2,0
	c-0.3,0-0.5-0.1-0.8,0C22.1,50.2,22.6,50.2,22.7,50.2C22.5,50.2,22.6,50.2,22.7,50.2z M59,48.6l-0.1,0C58.9,48.6,58.9,48.6,59,48.6z
	 M2.6,5.4L2.6,5.4C2.6,5.5,2.6,5.4,2.6,5.4z M53.3,49.2L53.3,49.2C53.3,49.2,53.3,49.2,53.3,49.2z M24.4,0.1L24.4,0.1
	C24.5,0.1,24.5,0.1,24.4,0.1z M45.1,0.7C45.1,0.7,45.2,0.8,45.1,0.7C45.1,0.7,45.1,0.7,45.1,0.7z M61.2,38.2c0.1,0,0-0.2,0-0.2
	C61.2,38.1,61.2,38.2,61.2,38.2C61.2,38.2,61.2,38.2,61.2,38.2z M58.8,2.2c-0.1,0-1.3-0.2-1.6-0.2c0,0,0,0.1-0.1,0.1
	C57.7,2.1,58.3,2.1,58.8,2.2z M60,16.6c0.1-0.5,0.1-1,0.2-1.5c0.1,3.6-0.1,7.3,0,10.9c0-0.1,0-0.1,0-0.2c0,0.6,0.1,1.2,0.1,1.7
	c0,2.1-0.1,4.3-0.3,6.3c0-0.4,0.1-0.7,0.1-1.1c0.1,1.4,0.1,2.8,0.1,4.3c0,1,0.1,2.1,0.1,3.2c0-0.1,0-0.1,0.1-0.2
	c0.3,0.4,0,1.2,0,1.6c0,1.1,0,2.2,0.2,3.2c0.2-1.8,0.3-3.5,0.5-5.3c0,0.2,0,0.5,0,0.8c-0.1-0.7,0.2-1.4,0.2-2.1c0,0,0,0,0,0.1
	c0.1-0.3,0-1.5,0-2c0-1.2,0.1-2.4,0.2-3.6c0.1-1.3,0.1-2.6,0.1-4c0-0.8,0.4-2,0.2-2.7c0,0-0.1,0.3-0.1,0.3c-0.2-0.3,0.1-1.1,0.1-1.4
	c0,0.2,0,0.3,0,0.5c0-0.1,0.1-0.9,0.1-1c0-0.7,0.1-1.5,0-2.2c-0.1-0.9,0.1-1.7,0.1-2.6c0,0.1,0,0.7-0.1,0.7c0-0.1,0.1-0.2,0-0.4
	c0,0.1,0,0.2-0.1,0.3c-0.1-1.7,0.2-3.5,0.2-5.2c-0.3-0.4-0.3-0.4-0.3-1c0-0.2-0.2-0.9,0-0.9c-0.1-1.3,0-2.6,0-3.9
	c-0.1,0.5-0.3,0.9-0.4,1.4c0.1-1.3,0-2.7,0.3-3.9C62,5.3,61.4,3.9,60.3,3c0.4,0.2,0.7,0.6,0.9,0.9c-0.3-0.5-0.8-1-1.4-1.3
	c-0.2-0.1-1.1-0.6-0.9-0.4c-0.3-0.2-1.4-0.1-1.7-0.1c-0.8-0.1-1.6-0.2-2.4-0.3c-1.1-0.1-2.1-0.1-3.2-0.3c0,0,0-0.1,0-0.1
	c0.9,0.1,1.7,0.1,2.6,0.2c0.9,0.1,2.1,0.4,2.9,0.3c-0.8-0.1-1.7-0.2-2.5-0.3c-0.1,0-1.4-0.3-0.8-0.3c-2.3,0.4-5.2-0.4-7.5-0.6
	c0.1,0,0.2,0.1,0.3,0.1c-1.2,0-2.4-0.2-3.7-0.3c-0.9-0.1-2.9-0.6-3.7-0.3c-0.5,0.2-1.6,0-2.2,0.1c-0.7,0-1.4,0.1-2,0
	c-1,0-2.2,0.3-3.1,0.1c-0.7-0.2-5.1,0.3-5.2-0.2C26.8,0.1,26.9,0,27.1,0c-0.3,0.1-2.1,0.3-1.4,0.1c-0.3,0-0.6,0-0.9,0
	c-0.4,0.1-0.8,0.4-1.2,0.4c0.1,0,0.2,0,0.3,0c-1.9,0.2-3.4,0-5.2,0.1c0.1,0,0.1,0,0.2,0C16.4,1,13.9,1,11.3,1.2
	c0.1,0,0.2-0.1,0.3-0.1c-0.2,0-1,0.3-1.1,0.1c0,0-1.4,0-1.5,0c0.1,0,0.2,0.1,0.3,0.1c-0.2,0-1.7,0.2-1.7,0c0-0.1,0.2-0.2,0.2-0.2
	C6.4,1.6,5.1,1.4,3.6,1.8c0.3-0.1,0.7-0.2,1-0.2c-0.1,0.5-2,0.6-2.4,1c0,0,0.5-0.4,0.5-0.4C1.9,2.6,1.3,3.1,0.8,3.8
	C0.9,3.7,0.9,3.6,1,3.5C0.1,4.1,0.4,6.2,0.3,6.9C0.3,6.8,0.2,6.8,0.2,6.7c0.1,0.2,0.1,1.6,0.1,1.6c0-0.1,0-0.2,0-0.2
	c0,2-0.1,3.8-0.1,5.7c0,3.3-0.2,7-0.2,10.5c0,2.2,0.1,4.5,0.1,6.7c0.1,2.5-0.1,4.9,0,7.3c0.1,1.9,0,3.8,0,5.8c0,2.1,0.7,3.6,2.6,4.5
	c-0.1,0-0.2-0.1-0.3-0.2c0.2,0.1,1.8,0.7,1.9,0.6c0,0-0.1,0-0.1,0c0.1-0.1,2.1,0.3,2.3,0.3c-0.1-0.1-0.2-0.1-0.3-0.2
	c0.4,0.1,0.7,0.1,1.1,0.2c-0.1,0-0.2,0-0.3,0c3.7,0.1,7.4,0.8,11.2,0.7C17.9,50,18.8,50,18.9,50c0.7,0.1,1.3,0.3,2,0.2
	c1-0.1,1.9-0.1,2.8-0.1c-0.1,0-0.2,0-0.2,0.1c0.2-0.1,0.5,0,0.7-0.1c-0.1,0-0.1,0-0.2,0.1c4.8,0.3,9.5,0.1,14.3,0.1
	c-0.1,0-0.1,0-0.2-0.1c1.5,0,3,0.1,4.4-0.1c0.9-0.1,2.5-0.2,3-0.2c4.5-0.4,9-0.9,13.5-1.4c-0.2,0.2,0,0,0.2-0.1c0.5-0.2,1-0.6,1.4-1
	c0.6-0.7,0.8-1.7,0.7-2.6c-0.6,0.9-1.7,1.9-2.8,1.8c-1.6-0.1-3.3,0.4-4.9,0.5c-3.3,0.3-6.5,0.6-9.8,0.6c-6.7,0.1-13.5,0.2-20.2,0.2
	c-2.2,0-4.3-0.1-6.5-0.2c-2.1-0.1-4.3-0.2-6.4-0.4c-1-0.1-2.1-0.2-3.1-0.4c-0.3,0-0.8,0.1-1.2-0.1c-1.8-0.7-3.9,0.2-4-2.5
	c0-3.9-0.1-7.7-0.1-11.6c0-4.5,0-9,0.1-13.5C2.7,15,2.5,10.7,2.5,6.4c0,0,0,0.1,0,0.1C2,3.9,5.1,4,6.9,3.9c0,0-0.1,0-0.1,0
	c11.7-1.3,23.8-1.9,35.6-1c2.7,0.2,5.5,0.3,8.2,0.5c1.4,0.1,2.7,0.2,4.1,0.3c1.3,0.1,2.9,0.1,4.2,0.6c1.9,0.7,1.1,4.3,1.2,5.9
	C59.9,12.3,59.8,14.5,60,16.6z M60.2,35.1L60.2,35.1C60.1,35.1,60.1,35.1,60.2,35.1z M61.9,9.1C61.8,9.3,62,8.9,62,8.9
	C62,8.9,61.9,9,61.9,9.1z M62,25.8c0-0.7,0-0.8,0-0.7C61.9,25.4,61.9,25.6,62,25.8z M60.3,41.2c0,0.1,0,0.2,0,0.2
	c0-0.2,0.1-0.6,0.1-0.9C60.3,40.8,60.3,41,60.3,41.2C60.3,41.6,60.3,41,60.3,41.2z M61.2,39.6l0.1,0.1
	C61.2,39.5,61.2,39.5,61.2,39.6z M27,37.7c2.3-2.3,4.6-4.6,7-7c1.3-1.3,2.6-2.6,3.9-3.9c0.7-0.7,1.3-1.4,0.4-2.4
	c-2.7-2.7-5.5-5.5-8.2-8.2c-1-1-2-2-3-3c-1.1-1.1-1.8,0.2-1.8,1.2c0,4.5,0,9.1,0,13.6c0,2.3,0,4.6,0,6.9c0,0.6,0,1.2,0,1.8
	C25.3,37.6,26.2,38.5,27,37.7z M24.6,18.7C24.6,18.8,24.6,18.8,24.6,18.7L24.6,18.7z M36.9,21.7C36.9,21.7,37.1,21.7,36.9,21.7
	L36.9,21.7z M39.1,24.1L39.1,24.1C39.2,24.1,39.2,24.1,39.1,24.1z M31.4,16.5C31.4,16.5,31.4,16.5,31.4,16.5
	C31.4,16.5,31.4,16.5,31.4,16.5z M24.7,24.8C24.7,24.7,24.6,24.8,24.7,24.8L24.7,24.8z M24.7,24.7c0-0.1,0.2,0.6,0-0.2
	C24.7,24.6,24.7,24.6,24.7,24.7C24.7,24.6,24.7,24.7,24.7,24.7z M24.8,35.7L24.8,35.7C24.8,35.7,24.8,35.7,24.8,35.7z M30.6,17.8
	C30.6,17.8,30.6,17.8,30.6,17.8C30.6,17.8,30.6,17.8,30.6,17.8z M24.8,34L24.8,34C24.8,34,24.8,34,24.8,34z M37,21.7L37,21.7
	L37,21.7z M38.1,27.6C38.1,27.6,38,27.6,38.1,27.6C38.1,27.6,38.1,27.6,38.1,27.6z M26.7,37.8C26.7,37.8,26.8,37.7,26.7,37.8
	C26.7,37.8,26.7,37.8,26.7,37.8z M35,30.4c0,0.1,0.3-0.4,0.3-0.4C35.2,30.2,35.1,30.3,35,30.4z M30.8,32.6c0.1-0.1,0.3-0.2,0.4-0.2
	c-0.7,0.8-1.6,1.5-2.3,2.4c-0.3,0.3-1.2,1.2-1.8,1.6c0.1-0.1,0.2-0.1,0.3-0.2c-0.5,0.6-1,1.5-1.6,0.8c-0.3,0,0.3,0.8,0.5,0.8
	c-0.4-0.1,0.2,0.1,0.4,0.1c0,0,0,0,0,0c0,0,0-0.1,0.1-0.1c0.4-0.2,2.5-2.4,2.9-2.2c0,0-0.1,0-0.1,0c0.1-0.1,0.2-0.1,0.3-0.2
	c-0.3,0.3,0.4-0.3,0.5-0.3c0.3-0.2,0.6-0.5,0.8-0.7c-0.1,0-0.1,0.1-0.2,0.1c0.1-0.1,0.1-0.1,0,0c0.3-0.4,0.9-0.7,1.2-1
	c-0.1-0.5,0.7-1,1.1-1.4C33.1,32,33,32,32.8,32.1c0.6-0.4,1.2-1.2,1.8-1.4c-0.1,0.1-0.2,0.2-0.2,0.2c0.1,0,0.6-0.4,0.6-0.4
	c0.3-0.6,1-1.2,1.5-1.6c0,0.4-0.9,0.9-1.1,1.3c0,0,0.9-0.8,0.8-0.6c0.3-0.6,1.1-1.2,1.6-1.6c0,0-0.1,0-0.1,0
	c0.3-0.4,1.8-1.2,1.8-1.7c0-0.2,0.4-0.6,0.2-0.8c0.2,0-0.5-1.3-0.5-1.3c-0.1-0.1-0.4-0.4-0.5-0.5c-0.3-0.1-0.3-0.4-0.4-0.6
	c-0.1-0.1-1.1-1-0.6-0.9c-0.1,0-0.7-0.4-0.3-0.3c-0.2-0.3-0.5-0.1-0.7-0.3c0,0,0,0.1,0,0.1c-0.4-0.3-0.8-0.9-1.1-1.1
	c-0.6-0.5-1.1-1.1-1.6-1.6c0,0,0.1,0,0.1,0c-0.1-0.2-0.3-0.3-0.5-0.6c0,0,0,0.1,0,0.1c-0.1-0.1-0.5-0.4-0.2-0.5
	c-0.4-0.2-0.5-0.6-0.9-0.8c0.1,0.1,0.2,0.1,0.2,0.2c-0.3,0.1-0.3-0.2-0.6-0.3c0,0,0.1,0,0.1,0.1c-0.2-0.1-0.3-0.3-0.4-0.4
	c0,0.1-0.5-0.3-0.6-0.5c0,0,0.1,0,0.1,0C31.2,16.2,30.9,16,31,16c-0.5-0.6-0.9-0.9-1.4-1.5c-0.3-0.4-0.9-0.8-1.3-1.3
	c-0.2-0.5-0.9-1.1-1.4-1.3c-1.8-0.5-2.4,1.1-2.3,2.5c-0.2,0.5-0.2,1.8,0,2.2c0.1,0.3-0.2,2,0.1,1.9c-0.1,0.4,0,0.8-0.1,1.2
	c0,0,0.1-0.1,0.1-0.1c0,0-0.1,0.5,0,0.2c0.3,1.6-0.2,3.7,0.1,5c0,0.1,0.1,0.1,0.1,0.2c0.2,0.6-0.1,2.4-0.1,3.3c0,0.9,0.3,2,0.1,3
	c-0.1,0.5,0,1.3,0,1.9c0.1,0.7-0.3,1.8,0,2.3c0.2,0.4,0.3,0.8,0.5,1.3c1.4-0.8,0.9-2.9,0.8-4.2c0-1.2,0.2-2.4,0.1-3.6
	c0-4.7-0.1-9.2-0.1-13.9c0,0-0.1-2,0.2-1.8c0.2-0.1,1.7,1.7,1.9,2c2.4,1.8,4.1,4.1,6.3,6.2c0.7,0.7,1.5,1.4,2.2,2.2
	c0.3,0.3,1,1.3,1.4,1.4c0.1,0.3-2.4,2.5-2.8,2.8C33.9,29.6,32.1,30.9,30.8,32.6z M26.9,36.7L26.9,36.7
	C26.9,36.7,26.9,36.7,26.9,36.7z M33.3,31.9C33.2,31.9,33.6,31.9,33.3,31.9L33.3,31.9z M29.7,35.5c0.2-0.2,0.2-0.2,0.1-0.2
	C29.8,35.4,29.8,35.5,29.7,35.5z M26.2,37.2C26.2,37.2,26.2,37.4,26.2,37.2C26.1,37.2,26.2,37.3,26.2,37.2z M26.3,37.8L26.3,37.8
	C26.4,37.9,26.3,37.8,26.3,37.8z"/>
<g>
</g>
<g>
</g>
<g>
</g>
<g>
</g>
<g>
</g>
<g>
</g>
<g>
</g>
<g>
</g>
<g>
</g>
<g>
</g>
<g>
</g>
<g>
</g>
<g>
</g>
<g>
</g>
<g>
</g>
</svg>
