<?xml version="1.0" encoding="iso-8859-1"?>
<!-- Generator: Adobe Illustrator 17.1.0, SVG Export Plug-In . SVG Version: 6.00 Build 0)  -->
<!DOCTYPE svg PUBLIC "-//W3C//DTD SVG 1.1//EN" "http://www.w3.org/Graphics/SVG/1.1/DTD/svg11.dtd">
<svg version="1.1" xmlns="http://www.w3.org/2000/svg" xmlns:xlink="http://www.w3.org/1999/xlink" x="0px" y="0px"
	 viewBox="0 0 62.701 63.317" style="enable-background:new 0 0 62.701 63.317;" xml:space="preserve">
<g id="stars">
	<path style="fill:#F7A13A;" d="M60.796,52.03c-0.28-0.459-0.552-0.923-0.853-1.369c0.089,0.333,0.207,0.655,0.354,0.967
		c-0.765-1.275-1.381-2.638-2.229-3.864c-0.951-1.374-0.457-1.918,0.579-3.039c-0.119,0.142-0.242,0.28-0.37,0.414
		c0.944-2.302,2.269-4.415,3.476-6.583c-1.839,0.034-3.672-0.453-5.508-0.344c-1.161,0.069-2.98,0.685-3.919-0.276
		c-0.857-0.877-1.168-2.196-1.677-3.278c-0.829-1.763-1.996-3.384-2.986-5.057c-0.854,1.482-1.906,2.848-2.626,4.406
		c-0.549,1.187-0.863,2.521-1.701,3.556c-1.004,1.24-2.69,0.733-4.071,0.726c-2.078-0.01-4.156-0.065-6.234-0.045
		c0.936,1.577,1.797,3.245,2.835,4.756c0.678,0.986,1.825,1.973,2.007,3.213c0.086,0.585-0.284,0.991-0.623,1.415
		c-0.594,0.744-1.041,1.644-1.506,2.471c-0.917,1.631-1.846,3.254-2.744,4.896c1.719-0.037,3.439-0.034,5.156,0.046
		c0.785,0.037,1.571,0.043,2.357,0.043c0.808,0,1.673-0.286,2.401,0.208c1.045,0.709,1.289,2.136,1.897,3.162
		c0.958,1.616,1.905,3.237,2.851,4.86c0.934-1.574,1.83-3.173,2.836-4.704c0.651-0.99,0.92-2.214,1.739-3.099
		c1.06-1.146,2.788-0.502,4.106-0.322c2.087,0.284,4.259,0.028,6.358,0.022c-0.635-1.061-1.22-2.17-1.907-3.199
		c0.127,0.191,0.45,0.742-0.055-0.076c0.509,0.815,0.141,0.226,0,0c0.081,0.13,0.16,0.262,0.237,0.395
		C60.917,52.232,60.857,52.131,60.796,52.03C60.517,51.571,61.324,52.912,60.796,52.03z M59.159,39.914
		c0.345-0.072,0.281-0.049-0.193,0.067C59.061,39.973,59.158,39.912,59.159,39.914C59.229,39.901,59.159,39.913,59.159,39.914z
		 M58.222,53.186c-0.636,0.665-2.081-0.258-2.865-0.14c-0.709,0.106-2.503,0.798-2.996-0.034c0.875-0.01,1.767,0.131,2.627-0.096
		c-0.881,0-2.186,0.329-2.853-0.447c-0.415-0.483-0.675-1.226-0.973-1.789c-0.068-0.129-0.457-0.832-0.429-0.285
		c-0.563-0.829-1.318-1.631-1.428-2.674c0.059,0.434-0.261-0.176-0.301-0.275c1.335-0.014,2.664,0.14,3.999,0.142
		c0.783,0.001,1.871-0.289,2.608,0.094c0.842,0.438,1.19,1.72,1.565,2.503c0.291,0.608,0.627,1.189,0.972,1.768
		c0.224,0.376,0.796,0.789,0.934,1.184c-0.172-0.021-0.812,0.029-0.757,0.039c-0.09-0.018-0.146,0.019-0.169,0.11
		C58.186,53.314,58.413,53.156,58.222,53.186C57.716,53.715,58.474,53.147,58.222,53.186z M49.855,55.1
		c-0.467,0.359-0.668,1.174-1.053,1.63c-0.434,0.514-0.463,1.87-1.14,2.131c0.006-0.066,0.016-0.131,0.029-0.195
		c-0.172,0.447-0.332-0.365-0.351-0.476c-0.134-0.753-0.152-0.661-0.635-1.295c0.064-0.099,0.127-0.098,0.189,0.004
		c-0.155-0.421-0.889-0.507-1.146-0.875c-0.439-0.628-1.252-1.828-1.063-2.635c0.158-0.677,0.676-1.189,1.014-1.774
		c0.623-1.077,1.223-2.168,1.898-3.215c0.163,0.304,1.149,1.747,1.142,1.616c0.567,0.836,1.325,1.643,1.439,2.693
		c-0.018-0.134,0.589,0.495,0.618,0.739C50.871,54.078,50.173,54.636,49.855,55.1c0.053-0.076,0.107-0.153,0.16-0.229
		C49.961,54.948,49.908,55.024,49.855,55.1c0.111-0.077,0.196-0.174,0.257-0.291C49.992,54.867,49.906,54.964,49.855,55.1
		C49.76,55.173,50.22,54.569,49.855,55.1z M40.888,52.873c0.045-0.035,0.091-0.07,0.136-0.105c-0.416-0.123-0.851-0.014-1.27-0.12
		c0.265,0.376-0.93,0.201-0.608-0.169c-0.535,0.182-1.138-0.252-1.625,0.147c0.142-0.121-0.319,0.12-0.369,0.149
		c0.048-0.024,0.097-0.043,0.149-0.057c-0.172,0.111-0.209,0.093-0.112-0.054c-0.127,0.103-0.273,0.162-0.435,0.178
		c0.105-0.14,0.241-0.233,0.41-0.279c-0.269,0.081,0.365-0.752,0.51-1.02c0.526-0.971,1.248-1.766,1.693-2.79
		c0.355-0.819,0.857-1.361,1.813-1.219c0.374,0.056,0.748,0.12,1.126,0.132c0.068,0.002,1.014-0.193,0.512-0.283
		c1.007-0.073,2.085-0.326,3.051,0.1c-0.405-0.165,0.307-0.138,0.413-0.124c-0.6,1.239-1.391,2.428-2.206,3.535
		c-0.16,0.217-1.397,1.798-0.612,1.84C42.601,52.688,41.748,52.86,40.888,52.873c0.087-0.022,0.174-0.025,0.263-0.009
		C41.063,52.867,40.975,52.87,40.888,52.873c0.056-0.043,0.212-0.004,0.263-0.009C41.063,52.867,40.975,52.87,40.888,52.873
		C40.933,52.838,41.495,52.864,40.888,52.873z M37.41,41.239c-0.088-0.252-0.214-0.484-0.378-0.695
		c1.04,0.268,2.757-0.39,3.927,0.101c-0.463-0.439,0.438-0.151,0.214-0.102c0.658-0.103,1.326-0.125,1.991-0.132
		c0.255,0.598,0.587,1.159,0.925,1.714c0.711,1.166,1.438,2.325,2.063,3.54c-0.369-0.013-0.737-0.091-1.104-0.121
		c-0.173-0.014-1.492,0.21-0.913,0.3c-1.007,0.073-2.085,0.326-3.051-0.1c0.339,0.138-0.404,0.116-0.507,0.094
		c-0.52-0.112-0.678-0.808-0.915-1.196c-0.407-0.668-0.886-1.289-1.276-1.968c-0.286-0.498-0.488-1.107-0.972-1.458
		c0.184,0.133,0.125,0.494,0.362,0.571c-0.101-0.033-0.453-0.508-0.377-0.61c0.011-0.015,0.319,0.552,0.363,0.579
		c-0.123-0.074-0.277-0.535-0.354-0.552c0.171,0.036,0.251,0.464,0.361,0.571C37.632,41.639,37.507,41.39,37.41,41.239
		C37.322,40.987,38.275,42.586,37.41,41.239z M46.775,35.534c0.279-0.447,0.622-0.846,0.888-1.302c0.538,0.861,1.07,1.741,1.6,2.6
		c0.542,0.879,1.246,1.755,1.726,2.658c-0.841,0.254-0.855,1.412-1.341,2c-0.852,1.031-1.539,2.206-2,3.462
		c-0.56-1.011-1.089-2.039-1.602-3.074c-0.409-0.826-1.449-1.453-1.374-2.476c0.097-1.32,2.656-2.538,2.153-3.886
		C46.831,35.534,46.808,36.126,46.775,35.534c-0.022,0.036,0,0.212,0.004,0.261C46.777,35.708,46.776,35.621,46.775,35.534
		C47.121,34.98,46.775,36.167,46.775,35.534z M53.406,40.173c0.407,0.335,0.974,0.035,1.412-0.033
		c0.755-0.118,1.499,0.163,2.251,0.179c0.202,0.004,1.954-0.077,1.972-0.222c-0.081,0.669-1.733,1.59-1.582,2.18
		c0.575,1.511-1.808,2.142-1.763,3.382c0.032-0.108,0.046-0.107,0.042,0.003c-0.157,0.679-5.756,0.182-6.494,0.112
		c0.194-0.31,0.444-0.588,0.652-0.889c0.097-0.139,0.563-1.389,0.194-0.934c0.437-0.903,0.754-1.957,1.602-2.574
		c-0.108,0.083,0.227-0.831,0.274-0.958c0.164-0.44,1.61,0.024,1.325-0.235c0.308-0.108,0.296,0.32,0.032,0.021
		c0.084-0.061,0.148-0.034,0.192,0.08C53.524,40.328,53.118,40.139,53.406,40.173C53.799,40.496,53.059,40.132,53.406,40.173z
		 M44.663,39.762C44.651,39.736,44.664,39.756,44.663,39.762C44.661,39.757,44.663,39.762,44.663,39.762z M55.211,47.418
		C55.408,47.414,55.187,47.413,55.211,47.418C55.239,47.418,55.211,47.418,55.211,47.418z M43.186,52.693
		C43.188,52.689,43.187,52.691,43.186,52.693C43.186,52.693,43.187,52.692,43.186,52.693z M27.142,50.955
		c-0.066-0.098-0.132-0.196-0.198-0.294c0.089,0.333,0.207,0.655,0.354,0.967c-0.765-1.275-1.381-2.638-2.229-3.864
		c-0.951-1.374-0.457-1.918,0.579-3.039c-0.119,0.142-0.242,0.28-0.37,0.414c0.944-2.302,2.269-4.415,3.476-6.583
		c-1.839,0.034-3.672-0.453-5.508-0.344c-1.161,0.069-2.98,0.685-3.919-0.276c-0.857-0.877-1.168-2.196-1.677-3.278
		c-0.829-1.763-1.996-3.384-2.986-5.057c-0.853,1.482-1.906,2.848-2.626,4.406c-0.549,1.187-0.863,2.521-1.701,3.556
		c-1.004,1.24-2.69,0.733-4.071,0.726c-2.078-0.01-4.156-0.065-6.234-0.045c0.936,1.577,1.797,3.245,2.835,4.756
		c0.678,0.986,1.825,1.973,2.007,3.213c0.086,0.585-0.284,0.991-0.623,1.415c-0.594,0.744-1.041,1.644-1.506,2.471
		C1.827,51.733,0.897,53.356,0,54.998c1.719-0.037,3.439-0.034,5.156,0.046c0.785,0.037,1.571,0.043,2.357,0.043
		c0.808,0,1.673-0.286,2.401,0.208c1.045,0.709,1.289,2.136,1.897,3.162c0.958,1.616,1.905,3.237,2.851,4.86
		c0.934-1.574,1.83-3.173,2.836-4.704c0.651-0.99,0.92-2.214,1.739-3.099c1.06-1.146,2.788-0.502,4.106-0.322
		c2.087,0.284,4.259,0.028,6.358,0.022c-0.85-1.421-1.7-2.842-2.562-4.256c0.193,0.311-0.111-0.192,0.05,0.072
		C27.091,50.869,27.255,51.142,27.142,50.955C27.076,50.857,27.317,51.243,27.142,50.955z M26.159,39.914
		c0.345-0.072,0.281-0.049-0.193,0.067C26.061,39.973,26.158,39.912,26.159,39.914C26.229,39.901,26.159,39.913,26.159,39.914z
		 M25.222,53.186c-0.636,0.665-2.081-0.258-2.865-0.14c-0.709,0.106-2.503,0.798-2.996-0.034c0.875-0.01,1.767,0.131,2.627-0.096
		c-0.881,0-2.186,0.329-2.853-0.447c-0.415-0.483-0.675-1.226-0.973-1.789c-0.068-0.129-0.457-0.832-0.429-0.285
		c-0.563-0.829-1.318-1.631-1.428-2.674c0.059,0.434-0.261-0.176-0.301-0.275c1.335-0.014,2.664,0.14,3.999,0.142
		c0.783,0.001,1.871-0.289,2.608,0.094c0.842,0.438,1.19,1.72,1.565,2.503c0.291,0.608,0.627,1.189,0.972,1.768
		c0.224,0.376,0.796,0.789,0.934,1.184c-0.172-0.021-0.812,0.029-0.757,0.039c-0.09-0.018-0.146,0.019-0.169,0.11
		C25.186,53.314,25.413,53.156,25.222,53.186C24.716,53.715,25.474,53.147,25.222,53.186z M16.855,55.1
		c-0.467,0.359-0.668,1.174-1.053,1.63c-0.434,0.514-0.463,1.87-1.14,2.131c0.006-0.066,0.016-0.131,0.029-0.195
		c-0.172,0.447-0.332-0.365-0.351-0.476c-0.134-0.753-0.152-0.661-0.635-1.295c0.064-0.099,0.127-0.098,0.189,0.004
		c-0.155-0.421-0.889-0.507-1.146-0.875c-0.439-0.628-1.252-1.828-1.063-2.635c0.158-0.677,0.676-1.189,1.014-1.774
		c0.623-1.077,1.223-2.168,1.898-3.215c0.163,0.304,1.149,1.747,1.142,1.616c0.567,0.836,1.325,1.643,1.439,2.693
		c-0.018-0.134,0.589,0.495,0.618,0.739C17.871,54.078,17.173,54.636,16.855,55.1c0.053-0.076,0.107-0.153,0.16-0.229
		C16.961,54.948,16.908,55.024,16.855,55.1c0.111-0.077,0.196-0.174,0.257-0.291C16.992,54.867,16.906,54.964,16.855,55.1
		C16.76,55.173,17.22,54.569,16.855,55.1z M7.888,52.873c0.045-0.035,0.091-0.07,0.136-0.105c-0.416-0.123-0.851-0.014-1.27-0.12
		c0.265,0.376-0.93,0.201-0.608-0.169c-0.535,0.182-1.138-0.252-1.625,0.147c0.142-0.121-0.319,0.12-0.369,0.149
		c0.048-0.024,0.097-0.043,0.149-0.057c-0.172,0.111-0.209,0.093-0.112-0.054c-0.127,0.103-0.273,0.162-0.435,0.178
		c0.105-0.14,0.241-0.233,0.41-0.279c-0.269,0.081,0.365-0.752,0.51-1.02c0.526-0.971,1.248-1.766,1.693-2.79
		c0.355-0.819,0.857-1.361,1.813-1.219c0.374,0.056,0.748,0.12,1.126,0.132c0.068,0.002,1.014-0.193,0.512-0.283
		c1.007-0.073,2.085-0.326,3.051,0.1c-0.405-0.165,0.307-0.138,0.413-0.124c-0.6,1.239-1.391,2.428-2.206,3.535
		c-0.16,0.217-1.397,1.798-0.612,1.84C9.601,52.688,8.748,52.86,7.888,52.873c0.087-0.022,0.174-0.025,0.263-0.009
		C8.063,52.867,7.975,52.87,7.888,52.873c0.056-0.043,0.212-0.004,0.263-0.009C8.063,52.867,7.975,52.87,7.888,52.873
		C7.933,52.838,8.495,52.864,7.888,52.873z M4.41,41.239c-0.088-0.252-0.214-0.484-0.378-0.695c1.04,0.268,2.757-0.39,3.927,0.101
		c-0.463-0.439,0.438-0.151,0.214-0.102c0.658-0.103,1.326-0.125,1.991-0.132c0.255,0.598,0.587,1.159,0.925,1.714
		c0.711,1.166,1.438,2.325,2.063,3.54c-0.369-0.013-0.737-0.091-1.104-0.121c-0.173-0.014-1.492,0.21-0.913,0.3
		c-1.007,0.073-2.085,0.326-3.051-0.1c0.339,0.138-0.404,0.116-0.507,0.094c-0.52-0.112-0.678-0.808-0.915-1.196
		c-0.407-0.668-0.886-1.289-1.276-1.968c-0.286-0.498-0.488-1.107-0.972-1.458c0.184,0.133,0.125,0.494,0.362,0.571
		c-0.101-0.033-0.453-0.508-0.377-0.61c0.011-0.015,0.319,0.552,0.363,0.579c-0.123-0.074-0.277-0.535-0.354-0.552
		c0.171,0.036,0.251,0.464,0.361,0.571C4.632,41.639,4.507,41.39,4.41,41.239C4.322,40.987,5.275,42.586,4.41,41.239z
		 M13.775,35.534c0.279-0.447,0.622-0.846,0.888-1.302c0.538,0.861,1.07,1.741,1.6,2.6c0.542,0.879,1.246,1.755,1.726,2.658
		c-0.841,0.254-0.855,1.412-1.341,2c-0.852,1.031-1.539,2.206-2,3.462c-0.56-1.011-1.089-2.039-1.602-3.074
		c-0.409-0.826-1.449-1.453-1.374-2.476c0.097-1.32,2.656-2.538,2.153-3.886C13.831,35.534,13.808,36.126,13.775,35.534
		c-0.022,0.036,0,0.212,0.004,0.261C13.777,35.708,13.776,35.621,13.775,35.534C14.121,34.98,13.775,36.167,13.775,35.534z
		 M20.406,40.173c0.407,0.335,0.974,0.035,1.412-0.033c0.755-0.118,1.499,0.163,2.251,0.179c0.202,0.004,1.954-0.077,1.972-0.222
		c-0.081,0.669-1.733,1.59-1.582,2.18c0.575,1.511-1.808,2.142-1.763,3.382c0.032-0.108,0.046-0.107,0.042,0.003
		c-0.156,0.679-5.756,0.182-6.494,0.112c0.194-0.31,0.444-0.588,0.652-0.889c0.097-0.139,0.563-1.389,0.194-0.934
		c0.437-0.903,0.754-1.957,1.602-2.574c-0.108,0.083,0.227-0.831,0.274-0.958c0.164-0.44,1.61,0.024,1.325-0.235
		c0.308-0.108,0.296,0.32,0.032,0.021c0.084-0.061,0.148-0.034,0.192,0.08C20.524,40.328,20.118,40.139,20.406,40.173
		C20.799,40.496,20.059,40.132,20.406,40.173z M11.663,39.762C11.651,39.736,11.664,39.756,11.663,39.762
		C11.661,39.757,11.663,39.762,11.663,39.762z M22.211,47.418C22.408,47.414,22.187,47.413,22.211,47.418
		C22.239,47.418,22.211,47.418,22.211,47.418z M10.186,52.693C10.188,52.689,10.187,52.691,10.186,52.693
		C10.186,52.693,10.187,52.692,10.186,52.693z M33.635,28.967c0.664-0.93,1.25-1.913,1.802-2.913
		c0.436-0.791,1.318-0.568,2.059-0.56c2.775,0.029,5.548,0.126,8.323,0.118c-0.911-1.522-1.765-3.081-2.758-4.552
		c0.089,0.333,0.207,0.655,0.354,0.967c-0.765-1.275-1.381-2.638-2.229-3.864c-0.951-1.374-0.457-1.918,0.579-3.039
		c-0.119,0.142-0.242,0.28-0.37,0.414c0.944-2.302,2.269-4.415,3.476-6.583c-1.839,0.034-3.672-0.453-5.508-0.344
		c-1.161,0.069-2.98,0.685-3.919-0.276c-0.857-0.877-1.168-2.196-1.677-3.278C32.938,3.295,31.771,1.673,30.78,0
		c-0.854,1.482-1.906,2.848-2.626,4.406c-0.549,1.187-0.863,2.521-1.701,3.556c-1.004,1.24-2.69,0.733-4.071,0.726
		c-2.078-0.01-4.156-0.065-6.234-0.045c0.936,1.577,1.797,3.245,2.835,4.756c0.678,0.986,1.825,1.973,2.007,3.213
		c0.086,0.585-0.284,0.991-0.623,1.415c-0.594,0.744-1.041,1.644-1.506,2.471c-0.917,1.631-1.846,3.254-2.744,4.896
		c1.719-0.037,3.439-0.034,5.156,0.046c0.785,0.037,1.571,0.043,2.357,0.043c0.808,0,1.673-0.286,2.401,0.208
		c1.045,0.709,1.289,2.136,1.897,3.162c0.958,1.616,1.905,3.237,2.851,4.86c0.539-0.908,1.08-1.814,1.628-2.716
		c0.274-0.451,0.549-0.901,0.827-1.35C33.262,29.606,34.067,28.278,33.635,28.967c0.104-0.136,0.204-0.274,0.301-0.415
		C33.845,28.697,33.726,28.823,33.635,28.967c0.085-0.12,0.17-0.239,0.258-0.357C33.831,28.689,33.615,28.999,33.635,28.967
		C34.299,28.037,33.477,29.219,33.635,28.967z M42.277,10.311c0.345-0.072,0.281-0.049-0.193,0.067
		C42.179,10.37,42.276,10.31,42.277,10.311C42.347,10.298,42.276,10.31,42.277,10.311z M31.093,28.292
		c-0.06,0.229-0.039,0.86-0.313,0.966c0.006-0.066,0.016-0.131,0.029-0.195c-0.172,0.447-0.332-0.365-0.351-0.476
		c-0.134-0.753-0.152-0.661-0.635-1.295c0.064-0.099,0.127-0.098,0.189,0.004c-0.155-0.421-0.889-0.507-1.146-0.875
		c-0.439-0.628-1.252-1.828-1.063-2.635c0.158-0.677,0.676-1.189,1.014-1.774c0.623-1.077,1.223-2.168,1.898-3.215
		c0.163,0.304,1.149,1.747,1.142,1.616c0.567,0.836,1.325,1.643,1.439,2.693c0.011,0.083,0.832,0.513,0.643,0.971
		c-0.213,0.518-0.873,0.897-0.877,1.452c-0.004,0.504-1.453,2.716-1.956,2.805C31.237,28.311,31.791,27.482,31.093,28.292
		c0.01-0.039,0.277-0.299,0.325-0.334C31.305,28.065,31.197,28.176,31.093,28.292C31.043,28.483,31.847,27.489,31.093,28.292z
		 M24.005,23.27c0.045-0.035,0.091-0.07,0.136-0.105c-0.416-0.123-0.851-0.014-1.27-0.12c0.265,0.376-0.93,0.201-0.608-0.169
		c-0.535,0.182-1.138-0.252-1.625,0.147c0.142-0.121-0.319,0.12-0.369,0.149c0.048-0.024,0.097-0.043,0.149-0.057
		c-0.172,0.111-0.209,0.093-0.112-0.054c-0.127,0.103-0.273,0.162-0.435,0.178c0.105-0.14,0.241-0.233,0.41-0.279
		c-0.269,0.081,0.365-0.752,0.51-1.02c0.526-0.971,1.248-1.766,1.693-2.79c0.355-0.819,0.857-1.361,1.813-1.219
		c0.374,0.056,0.748,0.12,1.126,0.132c0.068,0.002,1.014-0.193,0.512-0.283c1.007-0.073,2.085-0.326,3.051,0.1
		c-0.405-0.165,0.307-0.138,0.413-0.124c-0.6,1.239-1.391,2.428-2.206,3.535c-0.16,0.217-1.397,1.798-0.612,1.84
		C25.719,23.085,24.866,23.257,24.005,23.27c0.087-0.022,0.174-0.025,0.263-0.009C24.181,23.264,24.093,23.267,24.005,23.27
		c0.056-0.043,0.212-0.004,0.263-0.009C24.181,23.264,24.093,23.267,24.005,23.27C24.051,23.235,24.613,23.261,24.005,23.27z
		 M20.528,11.636c-0.088-0.252-0.214-0.484-0.378-0.695c1.04,0.268,2.757-0.39,3.927,0.101c-0.463-0.439,0.438-0.151,0.214-0.102
		c0.658-0.103,1.326-0.125,1.991-0.132c0.255,0.598,0.587,1.159,0.925,1.714c0.711,1.166,1.438,2.325,2.063,3.54
		c-0.369-0.013-0.737-0.091-1.104-0.121c-0.173-0.014-1.492,0.21-0.913,0.3c-1.007,0.073-2.085,0.326-3.051-0.1
		c0.339,0.138-0.404,0.116-0.507,0.094c-0.52-0.112-0.678-0.808-0.915-1.196c-0.407-0.668-0.886-1.289-1.276-1.968
		c-0.286-0.498-0.488-1.107-0.972-1.458c0.184,0.133,0.125,0.494,0.362,0.571c-0.101-0.033-0.453-0.508-0.377-0.61
		c0.011-0.015,0.319,0.552,0.363,0.579c-0.123-0.074-0.277-0.535-0.354-0.552c0.171,0.036,0.251,0.464,0.361,0.571
		C20.75,12.037,20.624,11.787,20.528,11.636C20.439,11.384,21.392,12.983,20.528,11.636z M29.892,5.932
		c0.279-0.447,0.622-0.846,0.888-1.302c0.538,0.861,1.07,1.741,1.6,2.6c0.542,0.879,1.246,1.755,1.726,2.658
		c-0.841,0.254-0.855,1.412-1.341,2c-0.852,1.031-1.539,2.206-2,3.462c-0.56-1.011-1.089-2.039-1.602-3.074
		c-0.409-0.826-1.449-1.453-1.374-2.476c0.097-1.32,2.656-2.538,2.153-3.886C29.949,5.931,29.925,6.523,29.892,5.932
		c-0.022,0.036,0,0.212,0.004,0.261C29.895,6.105,29.894,6.018,29.892,5.932C30.238,5.377,29.892,6.564,29.892,5.932z M36.524,10.57
		c0.407,0.335,0.974,0.035,1.412-0.033c0.755-0.118,1.499,0.163,2.251,0.179c0.202,0.004,1.954-0.077,1.972-0.222
		c-0.081,0.669-1.733,1.59-1.582,2.18c0.575,1.511-1.808,2.142-1.763,3.382c0.032-0.108,0.046-0.107,0.042,0.003
		c-0.156,0.679-5.756,0.182-6.494,0.112c0.194-0.31,0.444-0.588,0.652-0.889c0.097-0.139,0.563-1.389,0.194-0.934
		c0.437-0.903,0.754-1.957,1.602-2.574c-0.108,0.083,0.227-0.831,0.274-0.958c0.164-0.44,1.61,0.024,1.325-0.235
		c0.308-0.108,0.296,0.32,0.032,0.021c0.084-0.061,0.148-0.034,0.192,0.08C36.642,10.725,36.236,10.536,36.524,10.57
		C36.917,10.894,36.176,10.529,36.524,10.57z M41.375,22.467c0.187,0.418,0.675,0.635,0.826,1.066
		c-1.356-0.168-2.787-0.078-4.136,0.119c-0.631,0.092-2.167,0.463-2.586-0.243c0.875-0.01,1.767,0.131,2.627-0.096
		c-0.881,0-2.186,0.329-2.853-0.447c-0.415-0.483-0.675-1.226-0.973-1.789c-0.068-0.129-0.457-0.832-0.429-0.285
		c-0.563-0.829-1.318-1.631-1.428-2.674c0.059,0.434-0.261-0.176-0.301-0.275c1.145-0.012,2.291-0.017,3.436,0.021
		c0.882,0.029,2.597-0.442,3.298,0.236c0.583,0.565,0.703,1.43,1.123,2.095C40.451,20.941,41.001,21.704,41.375,22.467
		C41.563,22.888,41.328,22.372,41.375,22.467z M38.328,17.815C38.526,17.811,38.305,17.81,38.328,17.815
		C38.357,17.815,38.328,17.815,38.328,17.815z M27.781,10.159C27.768,10.133,27.781,10.153,27.781,10.159
		C27.779,10.154,27.781,10.159,27.781,10.159z M26.304,23.09C26.305,23.086,26.305,23.088,26.304,23.09
		C26.304,23.09,26.304,23.089,26.304,23.09z"/>
</g>
<g id="Layer_1">
</g>
</svg>
