<?xml version="1.0" encoding="iso-8859-1"?>
<!-- Generator: Adobe Illustrator 17.1.0, SVG Export Plug-In . SVG Version: 6.00 Build 0)  -->
<!DOCTYPE svg PUBLIC "-//W3C//DTD SVG 1.1//EN" "http://www.w3.org/Graphics/SVG/1.1/DTD/svg11.dtd">
<svg version="1.1" xmlns="http://www.w3.org/2000/svg" xmlns:xlink="http://www.w3.org/1999/xlink" x="0px" y="0px"
	 viewBox="0 0 87.73 136.11" style="enable-background:new 0 0 87.73 136.11;" xml:space="preserve">
<g id="steak_x5F_big">
	<path style="fill:#F7A13A;" d="M87.508,76.258c-0.034,0.065-0.067,0.131-0.101,0.196c-0.652-0.321-0.047-1.258-0.063-1.754
		c-0.041-1.24,0.036-2.496-0.234-3.716c-0.188,2.005-0.311,4.021-0.673,6.005c0.008-0.287-0.196-0.597,0.004-0.867
		c-0.311,0.419-0.034,1.394-0.123,1.913c-0.139,0.812-0.135,1.611-0.181,2.429c-0.105,1.88-0.855,3.578-1.672,5.244
		c-0.77,1.571-1.12,3.283-1.849,4.842c-0.342,0.731-1.241,1-1.216,1.988c0.026-0.145,0.034-0.291,0.024-0.437
		c0.194,0.27-0.742,1.593-0.843,1.774c-0.736,1.317-1.258,2.794-1.835,4.185c0.111-0.205,0.218-0.412,0.322-0.62
		c-0.094,0.198,0.107,0.355,0.056,0.564c-0.123,0.504-0.498,1.003-0.762,1.443c-0.548,0.914-1.546,2.038-1.391,3.187
		c0.167,1.244-0.184,1.766-0.702,2.873c-0.549,1.172-0.918,2.415-1.38,3.621c0.349-0.438,0.699-0.876,1.048-1.314
		c-1.238,2.586-2.047,5.364-3.431,7.882c0.144-0.394,0.288-0.787,0.432-1.181c-0.422,0.927-4.095,9.794-4.657,9.333
		c1.407-1.361,2.688-3.126,2.721-5.161c-1.491,4.802-6.255,8.909-10.748,10.879c-2.753,1.207-5.733,2.354-8.689,2.932
		c-1.504,0.294-3.035,0.48-4.559,0.635c-0.628,0.064-1.606,0.267-2.204,0.009c-0.193-0.083-0.7-0.544-0.726-0.552
		c-0.404,0.09-0.802,0.283-1.229,0.213c-0.106-0.017-0.664-0.226-0.243-0.204c-0.591-0.088-1.183,0.049-1.751,0.198
		c-0.11,0.029-0.716,0.206-0.311,0.32c-2.396,0.041-4.699-0.715-6.994-1.3c-1.183-0.302-2.357-0.636-3.537-0.951
		c-0.875-0.234-1.971-0.193-2.73-0.746c-0.002-0.145,0.069-0.202,0.215-0.169c-0.876,0.573-1.845-0.853-2.44-1.286
		c0.198,0.5-1.694-0.782-1.027-0.836c-1.357-0.462-2.248-1.655-3.406-2.433c0.259,0.192,0.517,0.383,0.776,0.575
		c-0.873,0.708-1.398-1.349-1.631-1.234c0.105,0.053,0.196,0.126,0.273,0.218c-0.635-0.255-0.797-1.019-1.051-1.575
		c0.153,0.19-0.654-0.49-0.798-0.761c-0.383-0.72-0.544-1.542-0.783-2.315c-0.614-1.986-0.743-3.869-0.757-5.943
		c1.364,2.232,3.65,3.619,5.782,5.022c1.176,0.773,2.339,1.591,3.649,2.125c0.47,0.191,1.08,0.288,1.426,0.695
		c0.071,0.083,0.381,0.679,0.217,0.532c0.48,0.084,0.914,0.318,1.368,0.48c0.398,0.172,0.814,0.316,1.246,0.372
		c0.125,0.019,1.286-0.08,0.764-0.213c2.416,0.437,4.726,1.322,7.149,1.725c1.126,0.187,2.27,0.222,3.409,0.264
		c0.617,0.023,1.235,0.024,1.849,0.084c0.147,0.014,0.667,0.089,0.13,0.144c0.596,0.119,1.204-0.099,1.819,0.012
		c0.324,0.059,0.737,0.136,0.959,0.09c0.228-0.046,1.343,0.148,1.272,0.19c1.412-0.318,2.889-0.178,4.29-0.559
		c-0.324,0.079-0.649,0.152-0.975,0.22c0.17-0.988,1.561-0.157,2.113-0.611c-0.143,0.016-0.274,0.061-0.394,0.134
		c-0.014,0.115,1.884-0.294,1.924-0.302c0.825-0.415,3.022-0.91,3.839-1.351c6.047-2.254,11.496-6.696,14.03-12.737
		c1.596-3.806,2.818-7.752,4.212-11.633c0.705-1.963,1.437-3.918,2.194-5.862c0.343-0.88,0.693-1.759,1.096-2.614
		c0.14-0.297,0.347-0.637,0.316-0.98c-0.002-0.018-0.167-0.671-0.136-0.155c0.585-1.175,0.912-2.471,1.624-3.583
		c0.012-0.024-0.151,0.322-0.201,0.302c-0.156-0.063,0.32-0.889,0.302-0.967c-0.002,0.071-0.013,0.141-0.033,0.209
		c1.232-4.022,3.425-7.782,4.397-11.877c0.333-1.404,0.173-2.782,0.383-4.148c0.274-1.787-0.837-3.842-1.918-5.181
		c-4.526-5.605-13.621-7.169-20.392-6.289c-3.435,0.447-6.814,1.608-9.642,3.638c-3.265,2.343-4.818,5.437-6.481,8.972
		c-1.648,3.502-4.69,5.726-8.168,7.243c-1.679,0.732-3.434,1.263-5.125,1.965c-1.513,0.628-3.734,1.964-5.322,0.928
		c-0.766-0.499-1.299-1.3-1.865-1.999c-0.861-1.061-1.773-2.081-2.711-3.074c-1.761-1.866-3.612-3.643-5.414-5.47
		c-1.839-1.864-3.611-3.791-5.375-5.726c-1.454-1.594-3.271-2.889-4.378-4.778c0.053,0.078,0.09,0.162,0.109,0.252
		c-0.01,0.018-0.585-0.699-0.457-0.475c-2.329-2.111-5.457-4.667-8.273-1.582c-1.05,1.15-1.612,3.101-1.026,4.59
		c0.292,0.742,0.871,1.29,1.497,1.757c0.278,0.207,0.567,0.391,0.748,0.697c-0.009-0.016,0.301,0.495,0.04,0.244
		c0.125-0.003,0.628,0.184,0.576,0.37c-0.236-0.23-0.066,0.038-0.029,0.096c0.325,0.522,0.898,0.887,1.345,1.295
		c0.889,0.812,1.738,1.669,2.623,2.486c1.784,1.648,3.591,3.271,5.334,4.962c-0.186-0.353,0.209-0.029,0.29,0.042
		c0.495,0.433,0.954,0.903,1.422,1.364c1.1,1.084,2.265,2.091,3.428,3.106c2.352,2.054,4.498,4.331,6.854,6.38
		c-5.611,4.764-9.8,11.501-10.937,18.828c-0.684,4.405-0.271,8.893,0.317,13.284c0.501,3.738,1.898,7.309,4.481,10.104
		c4.964,5.372,12.437,7.455,19.47,8.32c8.099,0.997,16.64,0.196,24.052-3.386c4.991-2.412,9.111-6.361,11.555-11.353
		c2.941-6.008,4.662-12.497,6.849-18.793c-0.273,0.48-0.541,0.962-0.803,1.448c1.207-3.353,2.667-6.608,3.907-9.949
		c0.579-1.56,0.966-3.186,1.593-4.729c0.697-1.715,1.615-3.326,2.463-4.968c-0.203,0.395-0.406,0.79-0.609,1.184
		c0.443-1.507,0.793-3.049,0.907-4.618c0.045-0.616,0.081-1.233,0.116-1.85C87.773,77.875,87.441,77.083,87.508,76.258
		c-0.103,0.36,0.032,0.742-0.129,1.092C87.538,77.005,87.478,76.622,87.508,76.258c-0.01,0.307-0.035,0.614-0.073,0.919
		C87.463,76.871,87.487,76.564,87.508,76.258c-0.102,0.298-0.129,0.602-0.082,0.913C87.439,76.865,87.466,76.561,87.508,76.258
		c-0.136,0.264-0.086,0.63-0.082,0.913C87.439,76.865,87.466,76.561,87.508,76.258c-0.111,0.214-0.086,0.673-0.082,0.913
		C87.439,76.865,87.466,76.561,87.508,76.258c-0.111,0.214-0.086,0.673-0.082,0.913C87.421,76.878,87.484,76.547,87.508,76.258
		C87.474,76.323,87.342,78.288,87.508,76.258z M46.703,75.256c-0.129,0.212-0.519,0.53-1.028,0.882
		C46.027,75.864,46.368,75.568,46.703,75.256z M38.029,81.029C38.32,81.119,38.016,81.035,38.029,81.029
		C38.067,81.041,38.026,81.031,38.029,81.029z M32.537,83.13c1.382-0.568,2.775-1.124,4.192-1.598
		c1.787-0.597,3.402-0.017,4.971,0.895c-1.889,0.539-3.753,1.265-5.732,1.388c-0.923,0.058-1.769,0.478-2.677,0.618
		c-0.655,0.101-0.858-0.742-1.221-1.099c0.365-0.16,0.729-0.323,1.101-0.464C32.958,82.95,32.746,83.037,32.537,83.13
		c0.226-0.091,0.451-0.183,0.676-0.276c-0.228,0.091-0.459,0.178-0.683,0.279c0.111-0.045,0.222-0.09,0.333-0.135
		c-0.107,0.042-0.213,0.086-0.319,0.131C32.764,83.04,33.518,82.729,32.537,83.13c0.132-0.054,0.265-0.108,0.397-0.162
		C32.802,83.022,32.67,83.076,32.537,83.13c-0.348,0.143,0.505-0.207,0.438-0.179C32.83,83.013,32.679,83.066,32.537,83.13
		C33.929,82.557,32.386,83.198,32.537,83.13z M41.681,82.362c0.146,0.021,0.159,0.04,0.037,0.06
		C41.627,82.362,41.798,82.423,41.681,82.362C41.827,82.383,41.726,82.386,41.681,82.362z M20.611,79.055
		c-2.874-2.872-5.782-5.711-8.76-8.477c-2.872-2.666-6.458-5.046-8.865-8.159c-0.941-1.217-0.811-3.014,0.757-3.654
		c1.586-0.647,3.098,1.007,4.075,2.016c2.98,3.077,5.798,6.307,8.713,9.445c2.771,2.985,5.475,6.033,8.262,9.003
		c1.355,1.444,2.795,2.843,3.962,4.45c0.846,1.165,1.656,2.702,3.06,3.275c1.567,0.64,2.9-0.777,4.418-0.873
		c1.712-0.108,3.459,0.469,4.768,1.578c1.385,1.173,2.13,2.869,3.201,4.296c1.314,1.751,2.629,3.501,3.955,5.243
		c-1.645-1.018-3.29-2.036-4.935-3.054c-1.276-0.79-2.265-2.192-3.852-2.375c1.303,0.151,1.466,2.327,1.873,3.256
		c0.968,2.209,2.473,4.12,3.699,6.183c-1.961-1.173-3.972-2.347-5.775-3.755c-0.818-0.638-1.642-1.325-2.606-1.734
		c-0.434-0.184-1.031-0.488-0.787,0.178c0.375,1.023,0.998,1.984,1.562,2.913c1.141,1.88,2.272,3.769,3.435,5.636
		c-1.602-1.231-3.29-2.342-4.922-3.531c-1.453-1.058-3.185-1.898-4.145-3.489c0.145,0.23,0.326,0.426,0.544,0.588
		c-3.127-1.915-2.471-5.545-1.956-8.614c-0.759,1.297-1.135,2.772-1.41,4.237c0.074-0.229,0.067-0.455-0.022-0.678
		c0.697,0.721-0.092,2.19,0.359,3.127c0.638,1.325,1.634,2.486,2.758,3.423c1.077,0.898,2.111,1.743,3.088,2.758
		c0.191,0.205,0.388,0.402,0.593,0.593c0.298,0.239,0.325-0.152,0.559-0.031c0.335,0.172,0.467,0.594,0.732,0.838
		c-0.046-0.155-0.149-0.24-0.309-0.257c0.007,1.579,2.254,1.776,3.177,2.609c-2.511-0.588-5.024-1.166-7.523-1.807
		c-1.242-0.318-2.477-0.665-3.731-0.936c-0.42-0.091-0.84-0.229-1.277-0.206c-0.135,0.007-0.638,0.081-0.202,0.198
		c-0.931-0.144-1.86-0.304-2.789-0.466c0.849-2.569,1.982-5.039,3.284-7.409c0.648-1.179,0.827-2.524,1.189-3.801
		c0.352-1.242,0.931-2.383,0.54-3.696c-0.633-2.127-2.687-3.508-4.252-4.928c-0.931-0.844-1.854-1.731-2.851-2.498
		c-0.789-0.608-1.731-1.119-2.198-2.043c0.265,0.524,0.757,1.285,1.413,1.335c-0.782-0.059-1.397-1.015-1.713-1.64
		c0.3,0.593,0.915,1.463,1.631,1.564c-0.387-0.055-1.672-1.074-1.58-1.514c-0.064,0.304,1.295,1.505,1.593,1.526
		c-0.3-0.021-1.658-1.218-1.593-1.526c-0.036,0.174,1.382,1.511,1.593,1.526c-0.167-0.012-1.637-1.318-1.593-1.526
		c-0.009,0.044,1.48,1.518,1.593,1.526C21.151,79.685,20.742,79.174,20.611,79.055C17.736,76.183,23.255,81.449,20.611,79.055z
		 M46.078,83.97c1.023,0.304,2.034,0.65,3.022,1.055c0.567,0.232,1.048,0.743,1.678,0.817c0.393,0.046,0.768-0.159,1.178-0.122
		c0.469,0.042,0.917,0.204,1.359,0.355c0.544,0.185,1.268,1.166,1.908,0.798c0.477-0.101,2.052,0.491,2.855,0.727
		c1.462,0.43,2.936,0.767,4.426,1.081c1.513,0.319,3.011,0.72,4.546,0.929c1.438,0.196,2.917,0.269,4.284,0.8
		c-1.285,2.991-2.683,5.941-3.734,9.027c-0.25,0.733-0.725,1.956-1.72,1.42c-1.431-0.77-3.024-1.144-4.563-1.628
		c-3.267-1.028-6.584-1.89-9.839-2.956c-2.449-0.802-3.749-3.136-4.927-5.248c-0.002,0.343-0.85-1.232-0.546-1.011
		c-0.932-0.839-1.463-2.015-2.35-2.895c0.196,0.21,0.392,0.42,0.588,0.63c-0.892,0.121-0.979-1.09-1.54-1.498
		c1.01,0.397-0.444-0.453-0.643-0.679c0.806-0.303,1.522-0.799,2.325-1.109c0.336-0.13,0.61-0.177,0.963-0.204
		c0.109-0.008,1.115-0.309,0.711-0.304c1.211,0.365-0.926-0.257,0.444,0.137c-0.568-0.163-0.565-0.162,0.008,0.002
		C46.365,84.058,46.221,84.016,46.078,83.97c0.155,0.047,0.31,0.092,0.466,0.134C46.419,84.074,46.136,83.995,46.078,83.97
		C47.101,84.274,45.86,83.876,46.078,83.97z M46.057,83.837c0.095-0.048,0.411-0.169,0.34,0.094
		c-0.191-0.053-0.382-0.105-0.573-0.158c0.097,0.003,0.193,0.013,0.289,0.029C45.98,83.765,46.282,83.815,46.057,83.837
		C46.182,83.825,46.182,83.825,46.057,83.837C46.169,83.832,46.169,83.832,46.057,83.837C46.169,83.832,46.169,83.832,46.057,83.837
		C46.151,83.79,46.187,83.873,46.057,83.837z M65.948,66.705c3.101-0.574,6.521,0.082,9.009,2.076
		c1.202,0.964,2.145,2.348,2.279,3.914c0.145,1.701-0.686,3.255-1.246,4.806c-2.009-0.758-4.323-2.383-6.265-0.71
		c-1.559,1.343-4.749,1.457-6.272-0.051c-1.719-1.702,0.649-3.303,2.313-3.471c1.189-0.12,2.225,0.401,3.378,0.526
		c0.328,0.036,2.551,0.703,1.599,1.376c0.444-0.335,0.42,0.717,0.595,0.86c0.077-0.655,1.175-0.245,1.264-1.148
		c0.077-0.785-0.038-2.058-0.595-2.675c-0.116,0.436-0.533-0.48-0.629-0.54c-0.085,0.151-0.202,0.271-0.35,0.361
		c-0.14-0.283-0.428-0.437-0.686-0.59c-0.018,0.193-0.029,0.386-0.032,0.58c-0.228-0.427-0.6-0.811-1.004-1.075
		c-0.356-0.232-1.108,0.107-1.264-0.434c0.315,0.078,0.632,0.09,0.952,0.037c-0.115-0.026-0.835-0.141-0.52-0.371
		c-0.341,0.322-2.514-0.565-2.584-0.218c-0.289-0.221-2.446,0.934-2.251,0.054c0.05,0.324-0.441,0.475-0.404,0.193
		c-0.089,0.684-0.543,1.209-1.139,1.523c-0.355,0.188-1.46,0.692-1.614,0.437c0.047,0.379-0.511,0.408-0.381,0.815
		c0.008-0.601,0.293,0.028,0.208,0.14c-1.218-0.248-2.141-0.27-3.323-0.379c1.836-3.798,6.315-5.741,10.286-6.28
		C66.824,66.513,66.387,66.617,65.948,66.705c0.739-0.137,1.48-0.261,2.216-0.409C67.427,66.444,66.684,66.557,65.948,66.705
		c0.469-0.087,0.936-0.177,1.406-0.259C66.884,66.528,66.415,66.612,65.948,66.705c0.413-0.076,0.827-0.146,1.239-0.228
		C66.775,66.56,66.359,66.623,65.948,66.705c0.43-0.08,0.87-0.193,1.306-0.241C66.834,66.511,66.309,66.633,65.948,66.705
		C69.039,66.133,65.673,66.761,65.948,66.705z M57.029,73.543c0.08,0.064,0.413,0.322,0.117,0.014
		c0.157,0.308,1.013,0.37,1.292,0.261c0.329-0.129,0.994,0.791,1.13,0.634c-0.052,0.194,0.006,0.56-0.308,0.567
		c0.484,0.189,0.174,0.995,0.21,1.359c0.088,0.89,0.594,1.725,1.251,2.314c0.625,0.561,1.35,1.033,2.159,1.279
		c0.534,0.162,1.419,0.109,1.658,0.748c-0.028-0.474,1.239-0.173,1.462-0.128c1.155,0.236,2.132-0.312,3.238-0.518
		c0.957-0.178,1.664-0.89,2.494-1.337c1.253-0.675,2.494-0.147,3.781,0.096c-1.256,3.562-2.298,7.204-3.792,10.679
		c-3.478-1.691-7.317-2.364-10.986-3.502c-4.128-1.28-8.333-2.288-12.516-3.371c2.07-1.276,3.919-2.902,5.48-4.766
		c0.857-1.023,1.627-2.118,2.303-3.268c0.117-0.2,0.481-1.162,0.777-1.155c0.14,0.003,0.217,0.357,0.369,0.211
		C57,73.63,57.032,73.54,57.029,73.543C57.113,73.61,56.97,73.599,57.029,73.543z M70.244,99.45
		c0.186-0.334,0.373-0.668,0.559-1.001c0.455,0.202-0.897,3.879-1.569,3.624c0.275-0.701,1.419-1.895,1.122-2.685
		c-0.101,0.053-0.096,0.159,0.016,0.316c-0.172-0.088-0.188-0.194-0.05-0.318c0.017,0.106,0.034,0.212,0.05,0.318
		c-0.174-0.139-0.191-0.245-0.05-0.318c0.075,0.096,0.092,0.202,0.05,0.318c-0.174-0.139-0.191-0.245-0.05-0.318
		c0.075,0.096,0.092,0.202,0.05,0.318c-0.174-0.139-0.191-0.245-0.05-0.318c0.081,0.029,0.083,0.259,0.05,0.318
		C70.272,99.673,70.229,99.589,70.244,99.45C70.431,99.116,70.441,100.187,70.244,99.45z M60.537,112.438
		c-0.644,0.598-1.876-0.607-2.404-0.911c-1.308-0.754-2.828-1.012-4.263-1.416c-3.573-1.006-7.096-2.184-10.69-3.116
		c0.677-0.632,1.232-1.541,0.311-2.249c-0.675-0.519-1.01-1.343-1.511-2.007c-0.515-0.683-1.324-0.99-1.828-1.693
		c-0.271-0.377-0.394-0.917-0.674-1.258c-0.226-0.276-0.839-0.535-0.819-0.959c0.376-0.086,0.573,0.328,0.776,0.543
		c0.176,0.178,0.809,1.076,1.329,1.244c0.029-0.07-0.007-0.128-0.107-0.172c0.51,1.174,2.279,0.915,2.725,2.142
		c-0.597-0.46-1.226-0.875-1.831-1.323c0.463,0.549,1.162,0.81,1.662,1.316c0.479,0.485,0.922,1.014,1.486,1.406
		c1.276,0.885,2.22-0.324,3.083-1.149c-0.175,0.182-0.367,0.345-0.574,0.489c0.954-0.995,0.762-1.896,0.124-3
		c-0.395-0.684-0.934-0.906-1.44-1.462c-0.46-0.505-0.811-1.097-1.149-1.687c0.634,1.108,1.93,1.584,2.642,2.624
		c-0.121-0.115-0.19-0.255-0.209-0.42c0.107,0.135,0.198,0.28,0.273,0.435c-0.035-0.278-0.107-0.546-0.214-0.804
		c0.864,0.249,1.098,1.436,1.984,1.636c0.557,0.126,1.122-0.309,1.509-0.652c0.147-0.13,0.509-0.932,0.381-0.677
		c0.657-0.676,1.849-0.209,2.597,0.022c1.369,0.423,2.86,0.229,4.202,0.747c2.719,1.05,5.634,1.443,8.498,1.885
		c-1.176,2.512-2.077,5.162-3.518,7.544c-0.653,1.079-1.837,2.375-2.453,3.03c0.087-0.093,0.381-0.343-0.036,0.022
		c0.059-0.055,0.117-0.11,0.176-0.165c-0.072,0.066-0.146,0.132-0.216,0.201C60.391,112.568,60.663,112.315,60.537,112.438
		C59.96,112.973,60.781,112.2,60.537,112.438z M61.04,112.373c-0.086,0.209-0.2,0.271-0.343,0.187
		C60.811,112.497,60.931,112.443,61.04,112.373z M45.6,101.605c0.052-0.05,0.073-0.069,0.004,0.002
		C45.603,101.606,45.601,101.605,45.6,101.605z M16.645,104.6c0.522-4.2,2.581-7.998,4.799-11.53
		c1.055-1.681,2.019-3.459,3.444-4.866c1.586-1.564,2.717-0.338,4.201,0.613c-2.264,1.937-4.352,4.81-5.222,7.608
		c-0.335,1.076-1.213,1.896-1.582,2.943c-0.27,0.767-0.311,3.047-1.587,2.846c0.823,0.055,0.302,1.246,0.152,1.664
		c-0.445,1.24-0.431,2.599-0.325,3.895c0.206,2.507,1.502,4.976,3.307,6.7c1.832,1.75,4.163,2.832,6.509,3.712
		c1.242,0.466,2.535,0.969,3.839,1.231c1.38,0.277,2.772,0.012,4.156-0.079c-2.396-3.593-7.336-2.967-10.66-5.119
		c-3.54-2.292-4.594-7.082-3.509-10.968c0.933,0.308,1.772,0.778,2.734,1.012c0.009,0.002,1.542,0.166,0.939-0.022
		c0.164,0.088,3.268,1.256,3.235,1.378c-0.383-0.105-0.761-0.244-1.161-0.278c1.389,0.431,2.737,1.072,4.056,1.679
		c0.582,0.268,1.177,0.565,1.822,0.643c0.655,0.08,1.135-0.353,1.783-0.204c1.016,0.233,1.721,0.936,2.652,1.325
		c0.38,0.159,0.613,0.037,0.994,0.047c0.574,0.014,1.149,0.222,1.684,0.408c1.241,0.431,2.416,0.873,3.727,1.065
		c1.518,0.222,3.002,0.382,4.479,0.818c2.929,0.863,6.11,1.662,9.155,1.947c-1.671,1.507-3.789,2.355-5.841,3.203
		c-2.181,0.901-4.595,1.666-6.983,1.487c0.302,0.026,0.604,0.037,0.906,0.032c-3.199,0.995-6.549-0.15-9.799,0.367
		c1.414,0.432,2.778,1.12,4.278,1.196c-0.217,0.022-0.432,0.01-0.645-0.037c2.015,1.089,4.639,0.478,6.787,0.187
		c1.127-0.153,2.282-0.522,3.424-0.485c0.232,0.007,2.367-0.115,1.671-0.471c0.047,0.041,1.03-0.203,1.171-0.233
		c-0.156-0.071-0.273-0.031-0.352,0.121c1.192,1.18,3.72-1.295,4.742-1.823c-0.155,0.051-0.438,0.059-0.553,0.183
		c-0.027,0.029,0.527-0.364,0.077-0.145c0.414-0.049,0.662-0.585,1.002-0.777c0.51-0.288,1.05-0.519,1.572-0.782
		c0.413-0.208,0.874-0.415,1.109-0.841c0.179-0.325,0.252-0.672,0.715-0.567c-0.179-0.065-0.356-0.135-0.531-0.212
		c1.318-0.849,2.052-2.291,2.763-3.634c-0.338,0.292-0.669,0.594-1.04,0.846c0.705-0.917,1.245-1.944,1.823-2.942
		c0.511-0.882,0.74-1.905,1.327-2.747c-0.125,0.288-0.249,0.577-0.374,0.865c0.34-0.608,0.705-1.203,1.083-1.788
		c-0.06-0.597,0.261-1.131,0.495-1.653c0.246,0.083,0.292,0.229,0.138,0.439c0.281-0.656,1.12-0.232,1.595-0.125
		c-0.523-0.187-1.5-0.369-1.163-1.073c0.336-0.7,0.851-1.406,1.04-2.162c0.452-1.816,1.556-3.361,2.384-5.013
		c-0.172,0.378-0.077-0.123-0.053-0.221c0.136-0.546,0.514-0.981,0.724-1.495c0.291-0.714,0.64-1.92,1.656-1.693
		c-0.961-0.326-0.373-1.509-0.079-2.111c0.701-1.435,0.892-3.038,1.319-4.561c0.404-1.44,0.956-2.832,1.471-4.234
		c0.176-0.479,0.426-0.881,1-0.835c0.128,0.01,0.889,0.28,0.94,0.088c0.063-0.234-0.742-0.385-0.874-0.467
		c-0.414-0.256,0.31-0.866,0.354-1.208c0.088-0.673-0.214-1.296-0.084-1.984c0.17-0.903,0.551-1.742,0.665-2.66
		c0.184-1.487-0.083-3.005-0.915-4.267c-0.388-0.588-0.839-1.16-1.414-1.577c-0.591-0.428-1.351-0.664-1.8-1.272
		c0.069-0.115,0.159-0.135,0.271-0.062c-0.619-0.561-1.413-0.854-2.122-1.276c0.221,0.509-1.787-0.308-1.031-0.617
		c-0.566-0.023-3.666,0.14-3.795-0.567c0.002,0.03,0.808-0.02,0.893-0.02c-0.084,0.337-0.668,0.344-0.927,0.362
		c-0.233,0.016-1.117-0.402-0.641-0.251c-0.655,0.018-1.331-0.217-1.977-0.027c-0.712,0.209-1.447,0.314-2.177,0.438
		c-1.767,0.301-3.52,0.72-5.097,1.6c-2.703,1.508-4.312,4.058-5.797,6.675c-1.513,2.666-3.316,5.209-5.852,6.995
		c-1.316,0.927-2.877,2.092-4.509,2.321c-1.692,0.238-3.412-0.329-5.068-0.593c2.297-0.985,4.679-1.769,6.936-2.849
		c-0.368,0.178-0.736,0.357-1.104,0.535c1.088-0.777,2.143-1.599,3.173-2.451c1.056-0.875,1.803-2.041,2.708-3.057
		c-0.142,0.3-0.072-0.018-0.058-0.084c0.118-0.558,0.559-0.959,0.858-1.42c0.605-0.934,0.926-2.012,1.272-3.058
		c-0.906,1.612-1.783,3.285-3.115,4.594c0.167-0.202,0.326-0.41,0.477-0.625c-0.623,0.959-1.278,2.499-2.573,2.665
		c1.313-1.232,2.465-2.663,3.237-4.298c0.388-0.823,0.642-1.73,1.245-2.434c0.659-0.769,1.492-1.355,2.256-2.011
		c2.897-2.488,6.462-4.184,10.213-4.892c4.141-0.781,8.48-0.407,12.451,0.987c3.148,1.105,6.448,3.002,7.669,6.296
		c1.441,3.888-0.836,7.778-2.384,11.242c-1.766,3.951-3.109,8.07-4.618,12.122c-1.575,4.228-3.139,8.46-4.673,12.704
		c-1.318,3.647-2.863,7.315-5.493,10.227c-7.619,8.434-20.222,9.54-30.745,7.3c-8.818-1.877-20.158-7.495-19.222-18.155
		c-0.037,0.418,0.183,0.945-0.17,1.287c0.639-0.619,0.251-1.628,0.306-2.394c-0.051,0.7-0.326,1.376-0.266,2.085
		c-0.064-0.766,0.284-1.486,0.286-2.247c-0.001,0.752-0.412,1.459-0.282,2.219c-0.122-0.712,0.006-1.514,0.277-2.179
		c-0.279,0.685-0.303,1.456-0.278,2.186c-0.026-0.764,0.27-1.492,0.286-2.252c-0.016,0.756-0.347,1.479-0.285,2.241
		c-0.051-0.626,0.149-1.464,0.266-2.097c-0.124,0.669-0.277,1.441-0.27,2.121C16.548,105.059,16.616,104.816,16.645,104.6
		C17.167,100.399,16.266,107.424,16.645,104.6z M54.057,8.885c-1.241,0.138-0.545,5.51-0.594,6.417
		c-0.131,2.42-1.292,4.6-2.095,6.84c-0.458,1.277-0.925,2.552-1.326,3.848c-0.206,0.666-0.431,1.327-0.686,1.977
		c-0.033,0.085-0.16,0.551-0.192,0.188c-0.559,1.556-1.004,3.155-1.3,4.783c-0.305-0.026,1.022-7.927,1.01-8.099
		c-0.513,0,0.095,0.831-0.373,0.886c0.228-1.047,0.336-2.116,0.574-3.161c0.065-0.285,0.16-0.561,0.221-0.847
		c0.063-0.294-0.083-0.75,0.027-0.993c0.15-0.331,0.386-0.34,0.625-0.58c0.288-0.289,0.296-0.7,0.367-1.072
		c0.033-0.171,0.316-1.388-0.099-1.299c0.165-0.119,0.527-0.948,0.605-1.118c0.269-0.589,0.337-1.248,0.404-1.884
		c0.175-1.659,0.677-3.251,0.932-4.897C52.678,6.535,52.102,2.958,50.456,0c1.045,1.51,2.398,2.944,2.83,4.782
		c0.272,1.158-0.077,3.035,0.696,4.043c0.036-0.066,0.03-0.137-0.019-0.213c-0.029,0.153,0.2,0.579,0.005-0.001
		c0.215,0.664,0.061,0.116-0.019,0.002c0.099,0.107,0.122,0.211,0.069,0.314c-0.052-0.033-0.201-0.25-0.146-0.312
		C54.009,8.654,54.07,8.744,54.057,8.885c-0.092,0.01-0.461-0.119-0.244-0.264C53.974,8.63,54.056,8.718,54.057,8.885
		C53.37,8.962,53.869,8.301,54.057,8.885C53.058,8.997,53.848,8.234,54.057,8.885z M48.479,14.115
		c-0.603,3.904-1.941,7.636-3.104,11.395c-0.643,2.078-0.938,4.22-1.433,6.332c-0.47,2.004-0.839,4.03-0.633,6.095
		c-0.315,0.009-0.733-3.335-0.789-3.696c-0.073-0.464,0.054-0.88,0.119-1.385c0.043-0.332,0.077-0.614,0.002-0.95
		c-0.163-0.72,0.184-1.372,0.053-2.07c-0.503,0,0.179,0.834-0.259,0.886c0.078-0.975,0.053-1.959,0.208-2.927
		c0.071-0.448,0.339-0.984,0.264-1.443c-0.057-0.346-0.323-0.382-0.124-0.723c0.348-0.599,0.891-0.752,1.02-1.507
		c0.028-0.167,0.291-1.437-0.102-1.351c0.171-0.121,0.527-0.939,0.603-1.113c0.269-0.621,0.278-1.26,0.373-1.916
		c0.227-1.581,1.003-3.01,1.461-4.525c1.005-3.328,2.026-6.713,1.404-10.221c0.984,3.166,1.56,6.58,0.821,9.862
		C48.459,14.621,48.499,14.373,48.479,14.115c-0.077,0.501-0.126,1.006-0.237,1.501C48.352,15.129,48.653,14.629,48.479,14.115
		c-0.081,0.523-0.196,1.041-0.248,1.568C48.283,15.16,48.662,14.655,48.479,14.115c-0.082,0.53-0.446,1.1-0.26,1.649
		C48.023,15.183,48.676,14.696,48.479,14.115c-0.081,0.522-0.196,1.038-0.247,1.564C48.279,15.195,48.644,14.604,48.479,14.115
		c-0.1,0.647-0.163,1.316-0.307,1.955C48.271,15.634,48.617,14.521,48.479,14.115C47.85,18.19,48.464,14.07,48.479,14.115z
		 M42.142,18.899c-2.158,7.617-5.429,16.361-1.727,24.039c-0.539-0.025-0.896-1.789-1.133-2.183c-0.5-0.832-1.077-1.529-1.179-2.509
		c-0.047-0.452-0.365-3.407-0.838-3.407c-0.018,0.337,0.002,0.671,0.059,1.003c-0.17-0.592,0.039-1.192-0.123-1.786
		c-0.128-0.47-0.324-0.886-0.32-1.385c0.002-0.174-0.093-1.855-0.184-1.794c0.326-0.319,1.056-3.193,0.617-3.104
		c0.249-0.292,0.257-0.542,0.48-0.852c0.35-0.487,0.321-1.455,0.443-2.034c0.34-1.612,1.058-3.153,1.683-4.669
		c1.353-3.283,2.682-6.659,3.045-10.22c0.096,3.438,0.101,6.999-1.194,10.244C41.874,19.986,41.752,18.941,42.142,18.899
		c-0.147,0.518-0.23,1.054-0.431,1.555C41.818,20.188,41.766,18.939,42.142,18.899c-0.147,0.52-0.232,1.059-0.433,1.563
		C41.802,20.23,41.855,18.93,42.142,18.899c-0.147,0.52-0.232,1.059-0.433,1.563C41.788,20.265,41.955,18.919,42.142,18.899
		c-0.056,0.198-0.722,3.271-0.924,3.293C41.65,22.145,41.748,18.941,42.142,18.899C40.007,26.434,42.184,18.894,42.142,18.899z"/>
</g>
<g id="Layer_1">
</g>
</svg>
