<?xml version="1.0" encoding="iso-8859-1"?>
<!-- Generator: Adobe Illustrator 17.1.0, SVG Export Plug-In . SVG Version: 6.00 Build 0)  -->
<!DOCTYPE svg PUBLIC "-//W3C//DTD SVG 1.1//EN" "http://www.w3.org/Graphics/SVG/1.1/DTD/svg11.dtd">
<svg version="1.1" xmlns="http://www.w3.org/2000/svg" xmlns:xlink="http://www.w3.org/1999/xlink" x="0px" y="0px"
	 viewBox="0 0 31.588 25.492" style="enable-background:new 0 0 31.588 25.492;" xml:space="preserve">
<g id="youtube">
	<path style="fill:#A6A6A6;" d="M12.422,0.069C12.291,0.154,12.334,0.123,12.422,0.069C12.4,0.083,12.422,0.069,12.422,0.069z
		 M17.761,0.193c0.013,0.003,0.021,0.004,0.033,0.006C17.792,0.188,17.798,0.176,17.761,0.193z M11.679,25.377
		C11.627,25.328,11.76,25.453,11.679,25.377L11.679,25.377z M11.655,25.378c-0.133-0.01-0.265-0.02-0.398-0.03
		C11.256,25.433,11.756,25.373,11.655,25.378C11.522,25.368,11.603,25.38,11.655,25.378z M22.781,0.39
		C22.782,0.396,22.871,0.499,22.781,0.39C22.782,0.405,22.781,0.39,22.781,0.39z M30.837,19.312
		C30.762,19.129,30.83,19.32,30.837,19.312C30.837,19.312,30.831,19.319,30.837,19.312z M29.637,1.172
		c-0.001,0.001-0.748-0.082-0.827-0.059C29.086,1.132,29.361,1.152,29.637,1.172z M31.392,7.7c-0.661-0.379-0.142-2.3-0.13-2.904
		c-0.089,0.233-0.179,0.467-0.268,0.7c0.089-0.802,0.299-1.651,0.12-2.452c-0.035-0.156-0.385-1.647-0.687-1.441
		c0.148,0.099,0.278,0.218,0.39,0.356c-0.954-1.296-3.324-0.804-4.727-1.073c0.781-0.432,1.934,0.202,2.771,0.135
		c-0.335-0.028-1.574-0.303-1.666-0.296c-1.236,0.276-2.52-0.207-3.75-0.297c0.611,0.184-0.99,0.048-0.909,0.049
		c-0.53-0.012-1.059-0.043-1.588-0.079c-1.175-0.081-2.407-0.277-3.585-0.187c-0.859,0.066-1.71-0.017-2.57-0.01
		c-0.161,0.001-1.3-0.11-1.045-0.2c-0.256,0.079-0.516,0.135-0.782,0.166c-0.056-0.087-0.023-0.124,0.099-0.111
		c-0.224-0.018-1.211,0.311-0.923,0.358C10.896,0.61,9.756,0.487,8.702,0.525C7.1,0.584,6.05,0.738,4.691,0.658
		C5.094,0.957,3.695,0.82,4.053,0.61C3.387,0.831,2.669,0.729,1.996,0.923C3.53,0.619,0.503,1.697,1.5,1.138
		c-0.409,0.2-0.781,0.488-1.065,0.846c0.332-0.487-0.063,0.469-0.092,0.538C0.247,2.751,0.304,3.75,0.099,3.566
		c0.064,0.142,0.108,0.976,0.057,0.688c-0.06,3.733-0.197,7.461-0.144,11.195c0.028,1.983,0.139,3.967,0.125,5.95
		c-0.006,0.849-0.083,1.688,0.371,2.447c0.073,0.125,0.952,1.087,0.912,0.704c0.639,0.436,1.388,0.224,2.078,0.489
		c-0.464-0.357,0.652-0.062,0.228-0.045c1.531,0.002,3.042,0.306,4.571,0.331c1.258,0.021,2.529-0.024,3.784,0.041
		c-0.385,0.117,0.462-0.083,0.136,0.008c2.38,0.217,4.77,0.07,7.155,0.058c-0.431-0.154,0.974-0.084,0.929-0.081
		c0.515-0.031,1.03-0.073,1.545-0.115c1.048-0.085,2.146-0.023,3.183-0.155c1.654-0.21,6.448,0.303,5.92-2.473
		c-0.85,1.034-3.343,0.907-4.557,1.076c-1.912,0.266-3.843,0.11-5.767,0.133c-3.941,0.047-7.905,0.253-11.833-0.027
		c-1.857-0.132-3.728-0.088-5.574-0.358c-1.598-0.234-1.63-0.85-1.549-2.328c0.212-3.867-0.033-7.818-0.023-11.694
		C1.652,7.412,1.66,5.414,1.676,3.415c0.173-1.442,2.566-1.088,3.609-1.189C9.227,1.842,13.213,1.752,17.173,1.8
		c3.458,0.042,6.915,0.279,10.368,0.441c0.994,0.047,2.357,0.041,2.449,1.293c0.121,1.64-0.146,3.306-0.007,4.96
		c0.04-0.243,0.081-0.487,0.121-0.73c0.039,1.633-0.038,3.267,0.011,4.9c0.033,1.114,0.096,3.013-0.111,4.451
		c0.021-0.186,0.046-0.372,0.074-0.558c0.184,2.023-0.191,4.099,0.272,6.052c0.103-0.881,0.173-1.769,0.363-2.638
		c-0.097,0.943,0.123-0.44,0.144-0.672c-0.063,0.017,0.527-5.424,0.355-6.098c0.006,0.075-0.021,0.112-0.079,0.111
		c0.028-0.223,0.056-0.446,0.084-0.67c-0.039,0.083-0.032,0.131,0.02,0.142c0.082-0.294,0.067-0.641,0.087-0.943
		c0.018-0.268,0.021-0.532,0.032-0.801c0.005-0.122,0.27-1.69-0.026-0.742c0.074-0.434-0.018-0.092-0.025-0.021
		C31.244,9.724,31.905,8.089,31.392,7.7C30.897,7.416,31.729,7.956,31.392,7.7z M30.817,1.959c0.035,0.047,0.068,0.082,0.104,0.136
		C30.93,2.087,30.881,2.029,30.817,1.959z M23.069,25.241c-0.017,0.002-0.033,0.005-0.05,0.006
		C23.047,25.247,23.062,25.245,23.069,25.241z M30.116,17.765l0-0.024C30.074,17.741,30.09,17.778,30.116,17.765z M31.263,4.754
		C31.224,4.816,31.409,4.522,31.263,4.754L31.263,4.754z M31.284,12.749c-0.003,0.135,0.001,0.254,0.014,0.339
		C31.311,12.714,31.3,12.696,31.284,12.749z M30.196,20.823c-0.005,0.299,0.047-0.228,0.042-0.334
		C30.295,20.034,30.153,21.162,30.196,20.823C30.191,21.122,30.208,20.729,30.196,20.823z M30.766,20.021l0.034,0.061
		C30.791,19.967,30.779,19.971,30.766,20.021z M18.975,10.744C18.992,10.741,19.109,10.716,18.975,10.744L18.975,10.744z
		 M20.243,12.263c-0.004,0.008,0.014,0.006-0.007,0.02C20.244,12.278,20.281,12.268,20.243,12.263z M12.246,12.588
		C12.258,12.584,12.204,12.607,12.246,12.588L12.246,12.588z M12.245,12.581C12.346,12.432,12.21,12.45,12.245,12.581
		C12.272,12.541,12.24,12.565,12.245,12.581z M19.518,14.266C19.512,14.261,19.432,14.218,19.518,14.266
		C19.507,14.256,19.518,14.266,19.518,14.266z M13.564,19.102C13.557,19.019,13.563,19.085,13.564,19.102L13.564,19.102z
		 M17.897,15.587c0.05,0.096,0.232-0.093,0.159-0.194C18.002,15.458,17.949,15.522,17.897,15.587z M13.562,19.112
		C13.562,19.111,13.561,19.112,13.562,19.112C13.562,19.112,13.562,19.112,13.562,19.112z M13.579,19.118
		C13.54,19.091,13.569,19.117,13.579,19.118C13.579,19.118,13.571,19.117,13.579,19.118z M20.354,13.254
		c0.088,0.715-1.548,1.327-1.79,1.945c0.06-0.235-0.498,0.282-0.558,0.367c0.171-0.243,0.435-0.526,0.653-0.733
		c-0.26,0.014-0.502,0.316-0.631,0.505c-0.074,0.108-0.701,0.636-0.369,0.311c-0.321,0.231-0.643,0.459-1.004,0.626
		c0.755,0.088-0.028,0.164-0.194,0.487c0.098,0.215,0.04,0.352-0.175,0.41c-0.172,0.085-0.318,0.201-0.437,0.349
		c0.101-0.054-0.179,0.064,0.132-0.003c-0.223,0.198-0.571,0.548-0.906,0.533c0.079,0.133-2.288,1.669-1.674,0.535
		c-0.941-0.057-1.204-0.541-1.104-1.457c0.107-0.983-0.12-1.893-0.06-2.87c0.038-0.625-0.324-4.064-0.169-4.14
		c0.305-0.338,0.076-1.301,0.055-1.678c-0.051-0.925-0.144-1.899,0.711-2.529c1.012-0.746,2.433,1.044,2.925,1.811
		c0.159,0.248,0.342,0.54,0.58,0.638c-0.008-0.003,0.743,0.404,0.361,0.253c0.401,0.079,0.5,0.704,0.561,0.582
		c0.136,0.455,0.588,0.912,0.905,1.245c0.16,0.168,0.349,0.369,0.569,0.461c0.432-0.32,0.172,0.154,0.6,0.09
		c-0.243,0.007,0.491,0.872,0.551,0.932C20.222,12.268,20.639,12.707,20.354,13.254C20.406,13.674,20.461,13.048,20.354,13.254z
		 M13.4,18.289l0.005-0.006C13.375,18.254,13.379,18.273,13.4,18.289z M13.38,18.664L13.38,18.664
		C13.381,18.665,13.38,18.664,13.38,18.664z M13.363,18.685C13.37,18.682,13.374,18.67,13.363,18.685
		C13.365,18.684,13.365,18.682,13.363,18.685z M13.394,18.68c0,0,0.003,0,0.003,0C13.43,18.674,13.414,18.677,13.394,18.68z
		 M13.47,18.301C13.656,18.092,13.395,18.328,13.47,18.301C13.492,18.276,13.467,18.302,13.47,18.301z M18.666,12.796
		c-1.083-1.108-2.202-2.225-3.309-3.304c-0.286-0.279-1.285-1.67-1.644-1.615c-0.382,0.054-0.045,9.081,0.013,10.037
		c0.748-0.41,1.271-1.146,1.814-1.781c-0.53,0.156,0.13-0.382,0.291-0.55c0.382-0.398,0.777-0.784,1.174-1.167
		C17.11,14.313,18.646,12.781,18.666,12.796C17.685,11.793,18.707,12.827,18.666,12.796z M13.405,18.284
		c-0.03-0.029-0.026-0.01-0.005,0.006L13.405,18.284z M17.004,16.307C16.956,16.292,17.197,16.365,17.004,16.307L17.004,16.307z
		 M15.303,18.038c-0.031,0.027-0.054,0.055-0.063,0.083C15.329,18.049,15.326,18.038,15.303,18.038z M13.38,18.664
		C13.381,18.664,13.38,18.664,13.38,18.664L13.38,18.664z"/>
</g>
<g id="Layer_1">
</g>
</svg>
